%TF.GenerationSoftware,KiCad,Pcbnew,9.0.7*%
%TF.CreationDate,2026-02-28T06:01:15-05:00*%
%TF.ProjectId,Macropad,4d616372-6f70-4616-942e-6b696361645f,rev?*%
%TF.SameCoordinates,Original*%
%TF.FileFunction,AssemblyDrawing,Bot*%
%FSLAX46Y46*%
G04 Gerber Fmt 4.6, Leading zero omitted, Abs format (unit mm)*
G04 Created by KiCad (PCBNEW 9.0.7) date 2026-02-28 06:01:15*
%MOMM*%
%LPD*%
G01*
G04 APERTURE LIST*
%ADD10C,0.150000*%
G04 APERTURE END LIST*
D10*
X13476904Y-18599819D02*
X13476904Y-17599819D01*
X13476904Y-17599819D02*
X13238809Y-17599819D01*
X13238809Y-17599819D02*
X13095952Y-17647438D01*
X13095952Y-17647438D02*
X13000714Y-17742676D01*
X13000714Y-17742676D02*
X12953095Y-17837914D01*
X12953095Y-17837914D02*
X12905476Y-18028390D01*
X12905476Y-18028390D02*
X12905476Y-18171247D01*
X12905476Y-18171247D02*
X12953095Y-18361723D01*
X12953095Y-18361723D02*
X13000714Y-18456961D01*
X13000714Y-18456961D02*
X13095952Y-18552200D01*
X13095952Y-18552200D02*
X13238809Y-18599819D01*
X13238809Y-18599819D02*
X13476904Y-18599819D01*
X13476904Y-42411819D02*
X13476904Y-41411819D01*
X13476904Y-41411819D02*
X13238809Y-41411819D01*
X13238809Y-41411819D02*
X13095952Y-41459438D01*
X13095952Y-41459438D02*
X13000714Y-41554676D01*
X13000714Y-41554676D02*
X12953095Y-41649914D01*
X12953095Y-41649914D02*
X12905476Y-41840390D01*
X12905476Y-41840390D02*
X12905476Y-41983247D01*
X12905476Y-41983247D02*
X12953095Y-42173723D01*
X12953095Y-42173723D02*
X13000714Y-42268961D01*
X13000714Y-42268961D02*
X13095952Y-42364200D01*
X13095952Y-42364200D02*
X13238809Y-42411819D01*
X13238809Y-42411819D02*
X13476904Y-42411819D01*
X32526904Y-42411819D02*
X32526904Y-41411819D01*
X32526904Y-41411819D02*
X32288809Y-41411819D01*
X32288809Y-41411819D02*
X32145952Y-41459438D01*
X32145952Y-41459438D02*
X32050714Y-41554676D01*
X32050714Y-41554676D02*
X32003095Y-41649914D01*
X32003095Y-41649914D02*
X31955476Y-41840390D01*
X31955476Y-41840390D02*
X31955476Y-41983247D01*
X31955476Y-41983247D02*
X32003095Y-42173723D01*
X32003095Y-42173723D02*
X32050714Y-42268961D01*
X32050714Y-42268961D02*
X32145952Y-42364200D01*
X32145952Y-42364200D02*
X32288809Y-42411819D01*
X32288809Y-42411819D02*
X32526904Y-42411819D01*
X51576904Y-42411819D02*
X51576904Y-41411819D01*
X51576904Y-41411819D02*
X51338809Y-41411819D01*
X51338809Y-41411819D02*
X51195952Y-41459438D01*
X51195952Y-41459438D02*
X51100714Y-41554676D01*
X51100714Y-41554676D02*
X51053095Y-41649914D01*
X51053095Y-41649914D02*
X51005476Y-41840390D01*
X51005476Y-41840390D02*
X51005476Y-41983247D01*
X51005476Y-41983247D02*
X51053095Y-42173723D01*
X51053095Y-42173723D02*
X51100714Y-42268961D01*
X51100714Y-42268961D02*
X51195952Y-42364200D01*
X51195952Y-42364200D02*
X51338809Y-42411819D01*
X51338809Y-42411819D02*
X51576904Y-42411819D01*
X70626904Y-42411819D02*
X70626904Y-41411819D01*
X70626904Y-41411819D02*
X70388809Y-41411819D01*
X70388809Y-41411819D02*
X70245952Y-41459438D01*
X70245952Y-41459438D02*
X70150714Y-41554676D01*
X70150714Y-41554676D02*
X70103095Y-41649914D01*
X70103095Y-41649914D02*
X70055476Y-41840390D01*
X70055476Y-41840390D02*
X70055476Y-41983247D01*
X70055476Y-41983247D02*
X70103095Y-42173723D01*
X70103095Y-42173723D02*
X70150714Y-42268961D01*
X70150714Y-42268961D02*
X70245952Y-42364200D01*
X70245952Y-42364200D02*
X70388809Y-42411819D01*
X70388809Y-42411819D02*
X70626904Y-42411819D01*
X89676904Y-42411819D02*
X89676904Y-41411819D01*
X89676904Y-41411819D02*
X89438809Y-41411819D01*
X89438809Y-41411819D02*
X89295952Y-41459438D01*
X89295952Y-41459438D02*
X89200714Y-41554676D01*
X89200714Y-41554676D02*
X89153095Y-41649914D01*
X89153095Y-41649914D02*
X89105476Y-41840390D01*
X89105476Y-41840390D02*
X89105476Y-41983247D01*
X89105476Y-41983247D02*
X89153095Y-42173723D01*
X89153095Y-42173723D02*
X89200714Y-42268961D01*
X89200714Y-42268961D02*
X89295952Y-42364200D01*
X89295952Y-42364200D02*
X89438809Y-42411819D01*
X89438809Y-42411819D02*
X89676904Y-42411819D01*
X13476904Y-61462819D02*
X13476904Y-60462819D01*
X13476904Y-60462819D02*
X13238809Y-60462819D01*
X13238809Y-60462819D02*
X13095952Y-60510438D01*
X13095952Y-60510438D02*
X13000714Y-60605676D01*
X13000714Y-60605676D02*
X12953095Y-60700914D01*
X12953095Y-60700914D02*
X12905476Y-60891390D01*
X12905476Y-60891390D02*
X12905476Y-61034247D01*
X12905476Y-61034247D02*
X12953095Y-61224723D01*
X12953095Y-61224723D02*
X13000714Y-61319961D01*
X13000714Y-61319961D02*
X13095952Y-61415200D01*
X13095952Y-61415200D02*
X13238809Y-61462819D01*
X13238809Y-61462819D02*
X13476904Y-61462819D01*
X32526904Y-61462819D02*
X32526904Y-60462819D01*
X32526904Y-60462819D02*
X32288809Y-60462819D01*
X32288809Y-60462819D02*
X32145952Y-60510438D01*
X32145952Y-60510438D02*
X32050714Y-60605676D01*
X32050714Y-60605676D02*
X32003095Y-60700914D01*
X32003095Y-60700914D02*
X31955476Y-60891390D01*
X31955476Y-60891390D02*
X31955476Y-61034247D01*
X31955476Y-61034247D02*
X32003095Y-61224723D01*
X32003095Y-61224723D02*
X32050714Y-61319961D01*
X32050714Y-61319961D02*
X32145952Y-61415200D01*
X32145952Y-61415200D02*
X32288809Y-61462819D01*
X32288809Y-61462819D02*
X32526904Y-61462819D01*
X51576904Y-61462819D02*
X51576904Y-60462819D01*
X51576904Y-60462819D02*
X51338809Y-60462819D01*
X51338809Y-60462819D02*
X51195952Y-60510438D01*
X51195952Y-60510438D02*
X51100714Y-60605676D01*
X51100714Y-60605676D02*
X51053095Y-60700914D01*
X51053095Y-60700914D02*
X51005476Y-60891390D01*
X51005476Y-60891390D02*
X51005476Y-61034247D01*
X51005476Y-61034247D02*
X51053095Y-61224723D01*
X51053095Y-61224723D02*
X51100714Y-61319961D01*
X51100714Y-61319961D02*
X51195952Y-61415200D01*
X51195952Y-61415200D02*
X51338809Y-61462819D01*
X51338809Y-61462819D02*
X51576904Y-61462819D01*
X70626904Y-61462819D02*
X70626904Y-60462819D01*
X70626904Y-60462819D02*
X70388809Y-60462819D01*
X70388809Y-60462819D02*
X70245952Y-60510438D01*
X70245952Y-60510438D02*
X70150714Y-60605676D01*
X70150714Y-60605676D02*
X70103095Y-60700914D01*
X70103095Y-60700914D02*
X70055476Y-60891390D01*
X70055476Y-60891390D02*
X70055476Y-61034247D01*
X70055476Y-61034247D02*
X70103095Y-61224723D01*
X70103095Y-61224723D02*
X70150714Y-61319961D01*
X70150714Y-61319961D02*
X70245952Y-61415200D01*
X70245952Y-61415200D02*
X70388809Y-61462819D01*
X70388809Y-61462819D02*
X70626904Y-61462819D01*
X89676904Y-61462819D02*
X89676904Y-60462819D01*
X89676904Y-60462819D02*
X89438809Y-60462819D01*
X89438809Y-60462819D02*
X89295952Y-60510438D01*
X89295952Y-60510438D02*
X89200714Y-60605676D01*
X89200714Y-60605676D02*
X89153095Y-60700914D01*
X89153095Y-60700914D02*
X89105476Y-60891390D01*
X89105476Y-60891390D02*
X89105476Y-61034247D01*
X89105476Y-61034247D02*
X89153095Y-61224723D01*
X89153095Y-61224723D02*
X89200714Y-61319961D01*
X89200714Y-61319961D02*
X89295952Y-61415200D01*
X89295952Y-61415200D02*
X89438809Y-61462819D01*
X89438809Y-61462819D02*
X89676904Y-61462819D01*
X13476904Y-80512819D02*
X13476904Y-79512819D01*
X13476904Y-79512819D02*
X13238809Y-79512819D01*
X13238809Y-79512819D02*
X13095952Y-79560438D01*
X13095952Y-79560438D02*
X13000714Y-79655676D01*
X13000714Y-79655676D02*
X12953095Y-79750914D01*
X12953095Y-79750914D02*
X12905476Y-79941390D01*
X12905476Y-79941390D02*
X12905476Y-80084247D01*
X12905476Y-80084247D02*
X12953095Y-80274723D01*
X12953095Y-80274723D02*
X13000714Y-80369961D01*
X13000714Y-80369961D02*
X13095952Y-80465200D01*
X13095952Y-80465200D02*
X13238809Y-80512819D01*
X13238809Y-80512819D02*
X13476904Y-80512819D01*
X32526904Y-80512819D02*
X32526904Y-79512819D01*
X32526904Y-79512819D02*
X32288809Y-79512819D01*
X32288809Y-79512819D02*
X32145952Y-79560438D01*
X32145952Y-79560438D02*
X32050714Y-79655676D01*
X32050714Y-79655676D02*
X32003095Y-79750914D01*
X32003095Y-79750914D02*
X31955476Y-79941390D01*
X31955476Y-79941390D02*
X31955476Y-80084247D01*
X31955476Y-80084247D02*
X32003095Y-80274723D01*
X32003095Y-80274723D02*
X32050714Y-80369961D01*
X32050714Y-80369961D02*
X32145952Y-80465200D01*
X32145952Y-80465200D02*
X32288809Y-80512819D01*
X32288809Y-80512819D02*
X32526904Y-80512819D01*
X51576904Y-80512819D02*
X51576904Y-79512819D01*
X51576904Y-79512819D02*
X51338809Y-79512819D01*
X51338809Y-79512819D02*
X51195952Y-79560438D01*
X51195952Y-79560438D02*
X51100714Y-79655676D01*
X51100714Y-79655676D02*
X51053095Y-79750914D01*
X51053095Y-79750914D02*
X51005476Y-79941390D01*
X51005476Y-79941390D02*
X51005476Y-80084247D01*
X51005476Y-80084247D02*
X51053095Y-80274723D01*
X51053095Y-80274723D02*
X51100714Y-80369961D01*
X51100714Y-80369961D02*
X51195952Y-80465200D01*
X51195952Y-80465200D02*
X51338809Y-80512819D01*
X51338809Y-80512819D02*
X51576904Y-80512819D01*
X70626904Y-80512819D02*
X70626904Y-79512819D01*
X70626904Y-79512819D02*
X70388809Y-79512819D01*
X70388809Y-79512819D02*
X70245952Y-79560438D01*
X70245952Y-79560438D02*
X70150714Y-79655676D01*
X70150714Y-79655676D02*
X70103095Y-79750914D01*
X70103095Y-79750914D02*
X70055476Y-79941390D01*
X70055476Y-79941390D02*
X70055476Y-80084247D01*
X70055476Y-80084247D02*
X70103095Y-80274723D01*
X70103095Y-80274723D02*
X70150714Y-80369961D01*
X70150714Y-80369961D02*
X70245952Y-80465200D01*
X70245952Y-80465200D02*
X70388809Y-80512819D01*
X70388809Y-80512819D02*
X70626904Y-80512819D01*
X89676904Y-80512819D02*
X89676904Y-79512819D01*
X89676904Y-79512819D02*
X89438809Y-79512819D01*
X89438809Y-79512819D02*
X89295952Y-79560438D01*
X89295952Y-79560438D02*
X89200714Y-79655676D01*
X89200714Y-79655676D02*
X89153095Y-79750914D01*
X89153095Y-79750914D02*
X89105476Y-79941390D01*
X89105476Y-79941390D02*
X89105476Y-80084247D01*
X89105476Y-80084247D02*
X89153095Y-80274723D01*
X89153095Y-80274723D02*
X89200714Y-80369961D01*
X89200714Y-80369961D02*
X89295952Y-80465200D01*
X89295952Y-80465200D02*
X89438809Y-80512819D01*
X89438809Y-80512819D02*
X89676904Y-80512819D01*
X13476904Y-99561819D02*
X13476904Y-98561819D01*
X13476904Y-98561819D02*
X13238809Y-98561819D01*
X13238809Y-98561819D02*
X13095952Y-98609438D01*
X13095952Y-98609438D02*
X13000714Y-98704676D01*
X13000714Y-98704676D02*
X12953095Y-98799914D01*
X12953095Y-98799914D02*
X12905476Y-98990390D01*
X12905476Y-98990390D02*
X12905476Y-99133247D01*
X12905476Y-99133247D02*
X12953095Y-99323723D01*
X12953095Y-99323723D02*
X13000714Y-99418961D01*
X13000714Y-99418961D02*
X13095952Y-99514200D01*
X13095952Y-99514200D02*
X13238809Y-99561819D01*
X13238809Y-99561819D02*
X13476904Y-99561819D01*
X32526904Y-99561819D02*
X32526904Y-98561819D01*
X32526904Y-98561819D02*
X32288809Y-98561819D01*
X32288809Y-98561819D02*
X32145952Y-98609438D01*
X32145952Y-98609438D02*
X32050714Y-98704676D01*
X32050714Y-98704676D02*
X32003095Y-98799914D01*
X32003095Y-98799914D02*
X31955476Y-98990390D01*
X31955476Y-98990390D02*
X31955476Y-99133247D01*
X31955476Y-99133247D02*
X32003095Y-99323723D01*
X32003095Y-99323723D02*
X32050714Y-99418961D01*
X32050714Y-99418961D02*
X32145952Y-99514200D01*
X32145952Y-99514200D02*
X32288809Y-99561819D01*
X32288809Y-99561819D02*
X32526904Y-99561819D01*
X51576904Y-99561819D02*
X51576904Y-98561819D01*
X51576904Y-98561819D02*
X51338809Y-98561819D01*
X51338809Y-98561819D02*
X51195952Y-98609438D01*
X51195952Y-98609438D02*
X51100714Y-98704676D01*
X51100714Y-98704676D02*
X51053095Y-98799914D01*
X51053095Y-98799914D02*
X51005476Y-98990390D01*
X51005476Y-98990390D02*
X51005476Y-99133247D01*
X51005476Y-99133247D02*
X51053095Y-99323723D01*
X51053095Y-99323723D02*
X51100714Y-99418961D01*
X51100714Y-99418961D02*
X51195952Y-99514200D01*
X51195952Y-99514200D02*
X51338809Y-99561819D01*
X51338809Y-99561819D02*
X51576904Y-99561819D01*
X70626904Y-99561819D02*
X70626904Y-98561819D01*
X70626904Y-98561819D02*
X70388809Y-98561819D01*
X70388809Y-98561819D02*
X70245952Y-98609438D01*
X70245952Y-98609438D02*
X70150714Y-98704676D01*
X70150714Y-98704676D02*
X70103095Y-98799914D01*
X70103095Y-98799914D02*
X70055476Y-98990390D01*
X70055476Y-98990390D02*
X70055476Y-99133247D01*
X70055476Y-99133247D02*
X70103095Y-99323723D01*
X70103095Y-99323723D02*
X70150714Y-99418961D01*
X70150714Y-99418961D02*
X70245952Y-99514200D01*
X70245952Y-99514200D02*
X70388809Y-99561819D01*
X70388809Y-99561819D02*
X70626904Y-99561819D01*
X89676904Y-99561819D02*
X89676904Y-98561819D01*
X89676904Y-98561819D02*
X89438809Y-98561819D01*
X89438809Y-98561819D02*
X89295952Y-98609438D01*
X89295952Y-98609438D02*
X89200714Y-98704676D01*
X89200714Y-98704676D02*
X89153095Y-98799914D01*
X89153095Y-98799914D02*
X89105476Y-98990390D01*
X89105476Y-98990390D02*
X89105476Y-99133247D01*
X89105476Y-99133247D02*
X89153095Y-99323723D01*
X89153095Y-99323723D02*
X89200714Y-99418961D01*
X89200714Y-99418961D02*
X89295952Y-99514200D01*
X89295952Y-99514200D02*
X89438809Y-99561819D01*
X89438809Y-99561819D02*
X89676904Y-99561819D01*
X13476904Y-118612819D02*
X13476904Y-117612819D01*
X13476904Y-117612819D02*
X13238809Y-117612819D01*
X13238809Y-117612819D02*
X13095952Y-117660438D01*
X13095952Y-117660438D02*
X13000714Y-117755676D01*
X13000714Y-117755676D02*
X12953095Y-117850914D01*
X12953095Y-117850914D02*
X12905476Y-118041390D01*
X12905476Y-118041390D02*
X12905476Y-118184247D01*
X12905476Y-118184247D02*
X12953095Y-118374723D01*
X12953095Y-118374723D02*
X13000714Y-118469961D01*
X13000714Y-118469961D02*
X13095952Y-118565200D01*
X13095952Y-118565200D02*
X13238809Y-118612819D01*
X13238809Y-118612819D02*
X13476904Y-118612819D01*
X32526904Y-118612819D02*
X32526904Y-117612819D01*
X32526904Y-117612819D02*
X32288809Y-117612819D01*
X32288809Y-117612819D02*
X32145952Y-117660438D01*
X32145952Y-117660438D02*
X32050714Y-117755676D01*
X32050714Y-117755676D02*
X32003095Y-117850914D01*
X32003095Y-117850914D02*
X31955476Y-118041390D01*
X31955476Y-118041390D02*
X31955476Y-118184247D01*
X31955476Y-118184247D02*
X32003095Y-118374723D01*
X32003095Y-118374723D02*
X32050714Y-118469961D01*
X32050714Y-118469961D02*
X32145952Y-118565200D01*
X32145952Y-118565200D02*
X32288809Y-118612819D01*
X32288809Y-118612819D02*
X32526904Y-118612819D01*
X51576904Y-118612819D02*
X51576904Y-117612819D01*
X51576904Y-117612819D02*
X51338809Y-117612819D01*
X51338809Y-117612819D02*
X51195952Y-117660438D01*
X51195952Y-117660438D02*
X51100714Y-117755676D01*
X51100714Y-117755676D02*
X51053095Y-117850914D01*
X51053095Y-117850914D02*
X51005476Y-118041390D01*
X51005476Y-118041390D02*
X51005476Y-118184247D01*
X51005476Y-118184247D02*
X51053095Y-118374723D01*
X51053095Y-118374723D02*
X51100714Y-118469961D01*
X51100714Y-118469961D02*
X51195952Y-118565200D01*
X51195952Y-118565200D02*
X51338809Y-118612819D01*
X51338809Y-118612819D02*
X51576904Y-118612819D01*
X70626904Y-118612819D02*
X70626904Y-117612819D01*
X70626904Y-117612819D02*
X70388809Y-117612819D01*
X70388809Y-117612819D02*
X70245952Y-117660438D01*
X70245952Y-117660438D02*
X70150714Y-117755676D01*
X70150714Y-117755676D02*
X70103095Y-117850914D01*
X70103095Y-117850914D02*
X70055476Y-118041390D01*
X70055476Y-118041390D02*
X70055476Y-118184247D01*
X70055476Y-118184247D02*
X70103095Y-118374723D01*
X70103095Y-118374723D02*
X70150714Y-118469961D01*
X70150714Y-118469961D02*
X70245952Y-118565200D01*
X70245952Y-118565200D02*
X70388809Y-118612819D01*
X70388809Y-118612819D02*
X70626904Y-118612819D01*
X89676904Y-118612819D02*
X89676904Y-117612819D01*
X89676904Y-117612819D02*
X89438809Y-117612819D01*
X89438809Y-117612819D02*
X89295952Y-117660438D01*
X89295952Y-117660438D02*
X89200714Y-117755676D01*
X89200714Y-117755676D02*
X89153095Y-117850914D01*
X89153095Y-117850914D02*
X89105476Y-118041390D01*
X89105476Y-118041390D02*
X89105476Y-118184247D01*
X89105476Y-118184247D02*
X89153095Y-118374723D01*
X89153095Y-118374723D02*
X89200714Y-118469961D01*
X89200714Y-118469961D02*
X89295952Y-118565200D01*
X89295952Y-118565200D02*
X89438809Y-118612819D01*
X89438809Y-118612819D02*
X89676904Y-118612819D01*
M02*
