%TF.GenerationSoftware,KiCad,Pcbnew,9.0.7*%
%TF.CreationDate,2026-02-28T06:01:15-05:00*%
%TF.ProjectId,Macropad,4d616372-6f70-4616-942e-6b696361645f,rev?*%
%TF.SameCoordinates,Original*%
%TF.FileFunction,Copper,L1,Top*%
%TF.FilePolarity,Positive*%
%FSLAX46Y46*%
G04 Gerber Fmt 4.6, Leading zero omitted, Abs format (unit mm)*
G04 Created by KiCad (PCBNEW 9.0.7) date 2026-02-28 06:01:15*
%MOMM*%
%LPD*%
G01*
G04 APERTURE LIST*
G04 Aperture macros list*
%AMRoundRect*
0 Rectangle with rounded corners*
0 $1 Rounding radius*
0 $2 $3 $4 $5 $6 $7 $8 $9 X,Y pos of 4 corners*
0 Add a 4 corners polygon primitive as box body*
4,1,4,$2,$3,$4,$5,$6,$7,$8,$9,$2,$3,0*
0 Add four circle primitives for the rounded corners*
1,1,$1+$1,$2,$3*
1,1,$1+$1,$4,$5*
1,1,$1+$1,$6,$7*
1,1,$1+$1,$8,$9*
0 Add four rect primitives between the rounded corners*
20,1,$1+$1,$2,$3,$4,$5,0*
20,1,$1+$1,$4,$5,$6,$7,0*
20,1,$1+$1,$6,$7,$8,$9,0*
20,1,$1+$1,$8,$9,$2,$3,0*%
G04 Aperture macros list end*
%TA.AperFunction,ComponentPad*%
%ADD10O,8.000000X3.600000*%
%TD*%
%TA.AperFunction,ComponentPad*%
%ADD11R,1.600000X1.600000*%
%TD*%
%TA.AperFunction,ComponentPad*%
%ADD12O,1.600000X1.600000*%
%TD*%
%TA.AperFunction,SMDPad,CuDef*%
%ADD13R,1.500000X0.900000*%
%TD*%
%TA.AperFunction,SMDPad,CuDef*%
%ADD14R,3.900000X3.900000*%
%TD*%
%TA.AperFunction,ComponentPad*%
%ADD15R,1.700000X1.700000*%
%TD*%
%TA.AperFunction,ComponentPad*%
%ADD16C,1.700000*%
%TD*%
%TA.AperFunction,ComponentPad*%
%ADD17O,1.700000X1.700000*%
%TD*%
%TA.AperFunction,SMDPad,CuDef*%
%ADD18RoundRect,0.375000X-0.625000X-0.375000X0.625000X-0.375000X0.625000X0.375000X-0.625000X0.375000X0*%
%TD*%
%TA.AperFunction,SMDPad,CuDef*%
%ADD19RoundRect,0.500000X-0.500000X-1.400000X0.500000X-1.400000X0.500000X1.400000X-0.500000X1.400000X0*%
%TD*%
%TA.AperFunction,SMDPad,CuDef*%
%ADD20RoundRect,0.175000X-0.175000X-0.425000X0.175000X-0.425000X0.175000X0.425000X-0.175000X0.425000X0*%
%TD*%
%TA.AperFunction,SMDPad,CuDef*%
%ADD21RoundRect,0.190000X0.190000X0.410000X-0.190000X0.410000X-0.190000X-0.410000X0.190000X-0.410000X0*%
%TD*%
%TA.AperFunction,SMDPad,CuDef*%
%ADD22RoundRect,0.200000X0.200000X0.400000X-0.200000X0.400000X-0.200000X-0.400000X0.200000X-0.400000X0*%
%TD*%
%TA.AperFunction,SMDPad,CuDef*%
%ADD23RoundRect,0.175000X0.175000X0.425000X-0.175000X0.425000X-0.175000X-0.425000X0.175000X-0.425000X0*%
%TD*%
%TA.AperFunction,SMDPad,CuDef*%
%ADD24RoundRect,0.190000X-0.190000X-0.410000X0.190000X-0.410000X0.190000X0.410000X-0.190000X0.410000X0*%
%TD*%
%TA.AperFunction,SMDPad,CuDef*%
%ADD25RoundRect,0.200000X-0.200000X-0.400000X0.200000X-0.400000X0.200000X0.400000X-0.200000X0.400000X0*%
%TD*%
%TA.AperFunction,ComponentPad*%
%ADD26O,1.100000X1.700000*%
%TD*%
%TA.AperFunction,SMDPad,CuDef*%
%ADD27RoundRect,0.150000X-0.512500X-0.150000X0.512500X-0.150000X0.512500X0.150000X-0.512500X0.150000X0*%
%TD*%
%TA.AperFunction,SMDPad,CuDef*%
%ADD28RoundRect,0.200000X0.275000X-0.200000X0.275000X0.200000X-0.275000X0.200000X-0.275000X-0.200000X0*%
%TD*%
%TA.AperFunction,SMDPad,CuDef*%
%ADD29RoundRect,0.200000X-0.200000X-0.275000X0.200000X-0.275000X0.200000X0.275000X-0.200000X0.275000X0*%
%TD*%
%TA.AperFunction,SMDPad,CuDef*%
%ADD30RoundRect,0.250000X-1.000000X-1.250000X1.000000X-1.250000X1.000000X1.250000X-1.000000X1.250000X0*%
%TD*%
%TA.AperFunction,SMDPad,CuDef*%
%ADD31RoundRect,0.240000X-0.360000X-0.460000X0.360000X-0.460000X0.360000X0.460000X-0.360000X0.460000X0*%
%TD*%
%TA.AperFunction,SMDPad,CuDef*%
%ADD32RoundRect,0.243750X-0.243750X-0.456250X0.243750X-0.456250X0.243750X0.456250X-0.243750X0.456250X0*%
%TD*%
%TA.AperFunction,ComponentPad*%
%ADD33C,1.600000*%
%TD*%
%TA.AperFunction,ComponentPad*%
%ADD34R,1.800000X1.800000*%
%TD*%
%TA.AperFunction,ComponentPad*%
%ADD35C,1.800000*%
%TD*%
%TA.AperFunction,ViaPad*%
%ADD36C,0.800000*%
%TD*%
%TA.AperFunction,Conductor*%
%ADD37C,0.300000*%
%TD*%
%TA.AperFunction,Conductor*%
%ADD38C,0.250000*%
%TD*%
%TA.AperFunction,Conductor*%
%ADD39C,0.400000*%
%TD*%
G04 APERTURE END LIST*
D10*
%TO.P,SW1,1*%
%TO.N,ROW0*%
X5715000Y-6985000D03*
%TO.P,SW1,2*%
%TO.N,K1*%
X12065000Y-4445000D03*
%TD*%
D11*
%TO.P,D1,1*%
%TO.N,K1*%
X17025000Y-16025000D03*
D12*
%TO.P,D1,2*%
%TO.N,COL0*%
X9405000Y-16025000D03*
%TD*%
D10*
%TO.P,SW2,1*%
%TO.N,ROW1*%
X5715000Y-30797000D03*
%TO.P,SW2,2*%
%TO.N,K2*%
X12065000Y-28257000D03*
%TD*%
D11*
%TO.P,D2,1*%
%TO.N,K2*%
X17025000Y-39837000D03*
D12*
%TO.P,D2,2*%
%TO.N,COL0*%
X9405000Y-39837000D03*
%TD*%
D10*
%TO.P,SW3,1*%
%TO.N,ROW1*%
X24765000Y-30797000D03*
%TO.P,SW3,2*%
%TO.N,K3*%
X31115000Y-28257000D03*
%TD*%
D11*
%TO.P,D3,1*%
%TO.N,K3*%
X36075000Y-39837000D03*
D12*
%TO.P,D3,2*%
%TO.N,COL1*%
X28455000Y-39837000D03*
%TD*%
D10*
%TO.P,SW4,1*%
%TO.N,ROW1*%
X43815000Y-30797000D03*
%TO.P,SW4,2*%
%TO.N,K4*%
X50165000Y-28257000D03*
%TD*%
D11*
%TO.P,D4,1*%
%TO.N,K4*%
X55125000Y-39837000D03*
D12*
%TO.P,D4,2*%
%TO.N,COL2*%
X47505000Y-39837000D03*
%TD*%
D10*
%TO.P,SW5,1*%
%TO.N,ROW1*%
X62865000Y-30797000D03*
%TO.P,SW5,2*%
%TO.N,K5*%
X69215000Y-28257000D03*
%TD*%
D11*
%TO.P,D5,1*%
%TO.N,K5*%
X74175000Y-39837000D03*
D12*
%TO.P,D5,2*%
%TO.N,COL3*%
X66555000Y-39837000D03*
%TD*%
D10*
%TO.P,SW6,1*%
%TO.N,ROW1*%
X81915000Y-30797000D03*
%TO.P,SW6,2*%
%TO.N,K6*%
X88265000Y-28257000D03*
%TD*%
D11*
%TO.P,D6,1*%
%TO.N,K6*%
X93225000Y-39837000D03*
D12*
%TO.P,D6,2*%
%TO.N,COL4*%
X85605000Y-39837000D03*
%TD*%
D10*
%TO.P,SW7,1*%
%TO.N,ROW2*%
X5715000Y-49848000D03*
%TO.P,SW7,2*%
%TO.N,K7*%
X12065000Y-47308000D03*
%TD*%
D11*
%TO.P,D7,1*%
%TO.N,K7*%
X17025000Y-58888000D03*
D12*
%TO.P,D7,2*%
%TO.N,COL0*%
X9405000Y-58888000D03*
%TD*%
D10*
%TO.P,SW8,1*%
%TO.N,ROW2*%
X24765000Y-49848000D03*
%TO.P,SW8,2*%
%TO.N,K8*%
X31115000Y-47308000D03*
%TD*%
D11*
%TO.P,D8,1*%
%TO.N,K8*%
X36075000Y-58888000D03*
D12*
%TO.P,D8,2*%
%TO.N,COL1*%
X28455000Y-58888000D03*
%TD*%
D10*
%TO.P,SW9,1*%
%TO.N,ROW2*%
X43815000Y-49848000D03*
%TO.P,SW9,2*%
%TO.N,K9*%
X50165000Y-47308000D03*
%TD*%
D11*
%TO.P,D9,1*%
%TO.N,K9*%
X55125000Y-58888000D03*
D12*
%TO.P,D9,2*%
%TO.N,COL2*%
X47505000Y-58888000D03*
%TD*%
D10*
%TO.P,SW10,1*%
%TO.N,ROW2*%
X62865000Y-49848000D03*
%TO.P,SW10,2*%
%TO.N,K10*%
X69215000Y-47308000D03*
%TD*%
D11*
%TO.P,D10,1*%
%TO.N,K10*%
X74175000Y-58888000D03*
D12*
%TO.P,D10,2*%
%TO.N,COL3*%
X66555000Y-58888000D03*
%TD*%
D10*
%TO.P,SW11,1*%
%TO.N,ROW2*%
X81915000Y-49848000D03*
%TO.P,SW11,2*%
%TO.N,K11*%
X88265000Y-47308000D03*
%TD*%
D11*
%TO.P,D11,1*%
%TO.N,K11*%
X93225000Y-58888000D03*
D12*
%TO.P,D11,2*%
%TO.N,COL4*%
X85605000Y-58888000D03*
%TD*%
D10*
%TO.P,SW12,1*%
%TO.N,ROW3*%
X5715000Y-68898000D03*
%TO.P,SW12,2*%
%TO.N,K12*%
X12065000Y-66358000D03*
%TD*%
D11*
%TO.P,D12,1*%
%TO.N,K12*%
X17025000Y-77938000D03*
D12*
%TO.P,D12,2*%
%TO.N,COL0*%
X9405000Y-77938000D03*
%TD*%
D10*
%TO.P,SW13,1*%
%TO.N,ROW3*%
X24765000Y-68898000D03*
%TO.P,SW13,2*%
%TO.N,K13*%
X31115000Y-66358000D03*
%TD*%
D11*
%TO.P,D13,1*%
%TO.N,K13*%
X36075000Y-77938000D03*
D12*
%TO.P,D13,2*%
%TO.N,COL1*%
X28455000Y-77938000D03*
%TD*%
D10*
%TO.P,SW14,1*%
%TO.N,ROW3*%
X43815000Y-68898000D03*
%TO.P,SW14,2*%
%TO.N,K14*%
X50165000Y-66358000D03*
%TD*%
D11*
%TO.P,D14,1*%
%TO.N,K14*%
X55125000Y-77938000D03*
D12*
%TO.P,D14,2*%
%TO.N,COL2*%
X47505000Y-77938000D03*
%TD*%
D10*
%TO.P,SW15,1*%
%TO.N,ROW3*%
X62865000Y-68898000D03*
%TO.P,SW15,2*%
%TO.N,K15*%
X69215000Y-66358000D03*
%TD*%
D11*
%TO.P,D15,1*%
%TO.N,K15*%
X74175000Y-77938000D03*
D12*
%TO.P,D15,2*%
%TO.N,COL3*%
X66555000Y-77938000D03*
%TD*%
D10*
%TO.P,SW16,1*%
%TO.N,ROW3*%
X81915000Y-68898000D03*
%TO.P,SW16,2*%
%TO.N,K16*%
X88265000Y-66358000D03*
%TD*%
D11*
%TO.P,D16,1*%
%TO.N,K16*%
X93225000Y-77938000D03*
D12*
%TO.P,D16,2*%
%TO.N,COL4*%
X85605000Y-77938000D03*
%TD*%
D10*
%TO.P,SW17,1*%
%TO.N,ROW4*%
X5715000Y-87947000D03*
%TO.P,SW17,2*%
%TO.N,K17*%
X12065000Y-85407000D03*
%TD*%
D11*
%TO.P,D17,1*%
%TO.N,K17*%
X17025000Y-96987000D03*
D12*
%TO.P,D17,2*%
%TO.N,COL0*%
X9405000Y-96987000D03*
%TD*%
D10*
%TO.P,SW18,1*%
%TO.N,ROW4*%
X24765000Y-87947000D03*
%TO.P,SW18,2*%
%TO.N,K18*%
X31115000Y-85407000D03*
%TD*%
D11*
%TO.P,D18,1*%
%TO.N,K18*%
X36075000Y-96987000D03*
D12*
%TO.P,D18,2*%
%TO.N,COL1*%
X28455000Y-96987000D03*
%TD*%
D10*
%TO.P,SW19,1*%
%TO.N,ROW4*%
X43815000Y-87947000D03*
%TO.P,SW19,2*%
%TO.N,K19*%
X50165000Y-85407000D03*
%TD*%
D11*
%TO.P,D19,1*%
%TO.N,K19*%
X55125000Y-96987000D03*
D12*
%TO.P,D19,2*%
%TO.N,COL2*%
X47505000Y-96987000D03*
%TD*%
D10*
%TO.P,SW20,1*%
%TO.N,ROW4*%
X62865000Y-87947000D03*
%TO.P,SW20,2*%
%TO.N,K20*%
X69215000Y-85407000D03*
%TD*%
D11*
%TO.P,D20,1*%
%TO.N,K20*%
X74175000Y-96987000D03*
D12*
%TO.P,D20,2*%
%TO.N,COL3*%
X66555000Y-96987000D03*
%TD*%
D10*
%TO.P,SW21,1*%
%TO.N,ROW4*%
X81915000Y-87947000D03*
%TO.P,SW21,2*%
%TO.N,K21*%
X88265000Y-85407000D03*
%TD*%
D11*
%TO.P,D21,1*%
%TO.N,K21*%
X93225000Y-96987000D03*
D12*
%TO.P,D21,2*%
%TO.N,COL4*%
X85605000Y-96987000D03*
%TD*%
D10*
%TO.P,SW22,1*%
%TO.N,ROW5*%
X5715000Y-106998000D03*
%TO.P,SW22,2*%
%TO.N,K22*%
X12065000Y-104458000D03*
%TD*%
D11*
%TO.P,D22,1*%
%TO.N,K22*%
X17025000Y-116038000D03*
D12*
%TO.P,D22,2*%
%TO.N,COL0*%
X9405000Y-116038000D03*
%TD*%
D10*
%TO.P,SW23,1*%
%TO.N,ROW5*%
X24765000Y-106998000D03*
%TO.P,SW23,2*%
%TO.N,K23*%
X31115000Y-104458000D03*
%TD*%
D11*
%TO.P,D23,1*%
%TO.N,K23*%
X36075000Y-116038000D03*
D12*
%TO.P,D23,2*%
%TO.N,COL1*%
X28455000Y-116038000D03*
%TD*%
D10*
%TO.P,SW24,1*%
%TO.N,ROW5*%
X43815000Y-106998000D03*
%TO.P,SW24,2*%
%TO.N,K24*%
X50165000Y-104458000D03*
%TD*%
D11*
%TO.P,D24,1*%
%TO.N,K24*%
X55125000Y-116038000D03*
D12*
%TO.P,D24,2*%
%TO.N,COL2*%
X47505000Y-116038000D03*
%TD*%
D10*
%TO.P,SW25,1*%
%TO.N,ROW5*%
X62865000Y-106998000D03*
%TO.P,SW25,2*%
%TO.N,K25*%
X69215000Y-104458000D03*
%TD*%
D11*
%TO.P,D25,1*%
%TO.N,K25*%
X74175000Y-116038000D03*
D12*
%TO.P,D25,2*%
%TO.N,COL3*%
X66555000Y-116038000D03*
%TD*%
D10*
%TO.P,SW26,1*%
%TO.N,ROW5*%
X81915000Y-106998000D03*
%TO.P,SW26,2*%
%TO.N,K26*%
X88265000Y-104458000D03*
%TD*%
D11*
%TO.P,D26,1*%
%TO.N,K26*%
X93225000Y-116038000D03*
D12*
%TO.P,D26,2*%
%TO.N,COL4*%
X85605000Y-116038000D03*
%TD*%
D13*
%TO.P,U901,1*%
%TO.N,GND*%
X66500000Y28260000D03*
%TO.P,U901,2*%
%TO.N,3V3*%
X66500000Y26990000D03*
%TO.P,U901,3*%
X66500000Y25720000D03*
%TO.P,U901,4*%
%TO.N,ROW0*%
X66500000Y24450000D03*
%TO.P,U901,5*%
%TO.N,ROW1*%
X66500000Y23180000D03*
%TO.P,U901,6*%
%TO.N,ROW2*%
X66500000Y21910000D03*
%TO.P,U901,7*%
%TO.N,ROW3*%
X66500000Y20640000D03*
%TO.P,U901,8*%
%TO.N,N/C*%
X66500000Y19370000D03*
%TO.P,U901,9*%
X66500000Y18100000D03*
%TO.P,U901,10*%
X66500000Y16830000D03*
%TO.P,U901,11*%
X66500000Y15560000D03*
%TO.P,U901,12*%
%TO.N,ROW4*%
X66500000Y14290000D03*
%TO.P,U901,13*%
%TO.N,N/C*%
X66500000Y13020000D03*
%TO.P,U901,14*%
X66500000Y11750000D03*
%TO.P,U901,15*%
X68265000Y10500000D03*
%TO.P,U901,16*%
X69535000Y10500000D03*
%TO.P,U901,17*%
%TO.N,ROW5*%
X70805000Y10500000D03*
%TO.P,U901,18*%
%TO.N,COL0*%
X72075000Y10500000D03*
%TO.P,U901,19*%
%TO.N,COL1*%
X73345000Y10500000D03*
%TO.P,U901,20*%
%TO.N,COL2*%
X74615000Y10500000D03*
%TO.P,U901,21*%
%TO.N,COL3*%
X75885000Y10500000D03*
%TO.P,U901,22*%
%TO.N,COL4*%
X77155000Y10500000D03*
%TO.P,U901,23*%
%TO.N,LED_DATA*%
X78425000Y10500000D03*
%TO.P,U901,24*%
%TO.N,N/C*%
X79695000Y10500000D03*
%TO.P,U901,25*%
X80965000Y10500000D03*
%TO.P,U901,26*%
X82235000Y10500000D03*
%TO.P,U901,27*%
X84000000Y11750000D03*
%TO.P,U901,28*%
%TO.N,IR_RX*%
X84000000Y13020000D03*
%TO.P,U901,29*%
%TO.N,IR_TX*%
X84000000Y14290000D03*
%TO.P,U901,30*%
%TO.N,ENC_A*%
X84000000Y15560000D03*
%TO.P,U901,31*%
%TO.N,ENC_B*%
X84000000Y16830000D03*
%TO.P,U901,32*%
%TO.N,ENC_SW*%
X84000000Y18100000D03*
%TO.P,U901,33*%
%TO.N,LCD_SDA*%
X84000000Y19370000D03*
%TO.P,U901,34*%
%TO.N,LCD_SCL*%
X84000000Y20640000D03*
%TO.P,U901,35*%
%TO.N,N/C*%
X84000000Y21910000D03*
%TO.P,U901,36*%
X84000000Y23180000D03*
%TO.P,U901,37*%
X84000000Y24450000D03*
%TO.P,U901,38*%
X84000000Y25720000D03*
%TO.P,U901,39*%
X84000000Y26990000D03*
%TO.P,U901,40*%
%TO.N,GND*%
X84000000Y28260000D03*
D14*
%TO.P,U901,41*%
X73750000Y20540000D03*
%TD*%
D15*
%TO.P,J201,1*%
%TO.N,3V3*%
X92250000Y20460000D03*
D16*
%TO.P,J201,2*%
%TO.N,GND*%
X92250000Y23000000D03*
%TO.P,J201,3*%
%TO.N,IR_RX*%
X92250000Y25540000D03*
%TD*%
D15*
%TO.P,J202,1*%
%TO.N,5V*%
X92250000Y10460000D03*
D16*
%TO.P,J202,2*%
%TO.N,GND*%
X92250000Y13000000D03*
%TO.P,J202,3*%
%TO.N,IR_TX*%
X92250000Y15540000D03*
%TD*%
D15*
%TO.P,J301,1*%
%TO.N,5V*%
X92250000Y460000D03*
D16*
%TO.P,J301,2*%
%TO.N,LED_DIN*%
X92250000Y3000000D03*
%TO.P,J301,3*%
%TO.N,GND*%
X92250000Y5540000D03*
%TD*%
D15*
%TO.P,J302,1*%
%TO.N,3V3*%
X92250000Y-10810000D03*
D16*
%TO.P,J302,2*%
%TO.N,GND*%
X92250000Y-8270000D03*
%TO.P,J302,3*%
%TO.N,LCD_SDA*%
X92250000Y-5730000D03*
%TO.P,J302,4*%
%TO.N,LCD_SCL*%
X92250000Y-3190000D03*
%TD*%
D15*
%TO.P,J400,1*%
%TO.N,BAT+*%
X22250000Y-8000000D03*
D17*
%TO.P,J400,2*%
%TO.N,GND*%
X22250000Y-10540000D03*
%TD*%
D15*
%TO.P,J401,1*%
%TO.N,BAT+*%
X22250000Y-21810000D03*
D16*
%TO.P,J401,2*%
%TO.N,GND*%
X22250000Y-19270000D03*
%TO.P,J401,3*%
%TO.N,5V*%
X22250000Y-16730000D03*
%TO.P,J401,4*%
%TO.N,3V3*%
X22250000Y-14190000D03*
%TD*%
D18*
%TO.P,U402,1*%
%TO.N,GND*%
X27850000Y-11700000D03*
%TO.P,U402,2*%
%TO.N,3V3*%
X27850000Y-14000000D03*
D19*
X34150000Y-14000000D03*
D18*
%TO.P,U402,3*%
%TO.N,BAT+*%
X27850000Y-16300000D03*
%TD*%
D20*
%TO.P,J402,A5*%
%TO.N,USB_CC1*%
X11500000Y-31920000D03*
D21*
%TO.P,J402,A9*%
%TO.N,5V*%
X13520000Y-31920000D03*
D22*
%TO.P,J402,A12*%
%TO.N,GND*%
X14750000Y-31920000D03*
D23*
%TO.P,J402,B5*%
%TO.N,USB_CC2*%
X12500000Y-31920000D03*
D24*
%TO.P,J402,B9*%
%TO.N,5V*%
X10480000Y-31920000D03*
D25*
%TO.P,J402,B12*%
%TO.N,GND*%
X9250000Y-31920000D03*
D26*
%TO.P,J402,S1*%
X7680000Y-32000000D03*
X7680000Y-35800000D03*
X16320000Y-32000000D03*
X16320000Y-35800000D03*
%TD*%
D27*
%TO.P,U403,1*%
%TO.N,N/C*%
X34862500Y-27050000D03*
%TO.P,U403,2*%
%TO.N,GND*%
X34862500Y-28000000D03*
%TO.P,U403,3*%
%TO.N,BAT+*%
X34862500Y-28950000D03*
%TO.P,U403,4*%
%TO.N,5V*%
X37137500Y-28950000D03*
%TO.P,U403,5*%
%TO.N,CHG_PROG*%
X37137500Y-27050000D03*
%TD*%
D28*
%TO.P,R402,1*%
%TO.N,USB_CC1*%
X11500000Y-28825000D03*
%TO.P,R402,2*%
%TO.N,GND*%
X11500000Y-27175000D03*
%TD*%
%TO.P,R403,1*%
%TO.N,USB_CC2*%
X12500000Y-28825000D03*
%TO.P,R403,2*%
%TO.N,GND*%
X12500000Y-27175000D03*
%TD*%
D29*
%TO.P,R404,1*%
%TO.N,CHG_PROG*%
X39175000Y-27050000D03*
%TO.P,R404,2*%
%TO.N,GND*%
X40825000Y-27050000D03*
%TD*%
%TO.P,C402,1*%
%TO.N,5V*%
X32675000Y-25000000D03*
%TO.P,C402,2*%
%TO.N,GND*%
X34325000Y-25000000D03*
%TD*%
%TO.P,C403,1*%
%TO.N,BAT+*%
X29675000Y-25000000D03*
%TO.P,C403,2*%
%TO.N,GND*%
X31325000Y-25000000D03*
%TD*%
D27*
%TO.P,U404,1*%
%TO.N,BOOST_SW*%
X37862500Y-13050000D03*
%TO.P,U404,2*%
%TO.N,GND*%
X37862500Y-14000000D03*
%TO.P,U404,3*%
%TO.N,BOOST_FB*%
X37862500Y-14950000D03*
%TO.P,U404,4*%
%TO.N,BAT+*%
X40137500Y-14950000D03*
%TO.P,U404,5*%
X40137500Y-14000000D03*
%TO.P,U404,6*%
%TO.N,BOOST_SW*%
X40137500Y-13050000D03*
%TD*%
D30*
%TO.P,L401,1*%
%TO.N,BAT+*%
X42000000Y-14000000D03*
%TO.P,L401,2*%
%TO.N,BOOST_SW*%
X46000000Y-14000000D03*
%TD*%
D31*
%TO.P,D401,1*%
%TO.N,BOOST_SW*%
X44850000Y-10000000D03*
%TO.P,D401,2*%
%TO.N,5V*%
X48150000Y-10000000D03*
%TD*%
D29*
%TO.P,R405,1*%
%TO.N,5V*%
X41175000Y-18000000D03*
%TO.P,R405,2*%
%TO.N,BOOST_FB*%
X42825000Y-18000000D03*
%TD*%
%TO.P,R406,1*%
%TO.N,BOOST_FB*%
X41175000Y-20000000D03*
%TO.P,R406,2*%
%TO.N,GND*%
X42825000Y-20000000D03*
%TD*%
%TO.P,C404,1*%
%TO.N,BAT+*%
X37175000Y-18000000D03*
%TO.P,C404,2*%
%TO.N,GND*%
X38825000Y-18000000D03*
%TD*%
%TO.P,C405,1*%
%TO.N,5V*%
X48175000Y-14000000D03*
%TO.P,C405,2*%
%TO.N,GND*%
X49825000Y-14000000D03*
%TD*%
D32*
%TO.P,R401,1*%
%TO.N,LED_DATA*%
X78122500Y3000000D03*
%TO.P,R401,2*%
%TO.N,LED_DIN*%
X79997500Y3000000D03*
%TD*%
D11*
%TO.P,C401,1*%
%TO.N,5V*%
X99250000Y-5000000D03*
D33*
%TO.P,C401,2*%
%TO.N,GND*%
X102750000Y-5000000D03*
%TD*%
D34*
%TO.P,SW401,A*%
%TO.N,ENC_A*%
X75750000Y-22500000D03*
D35*
%TO.P,SW401,B*%
%TO.N,ENC_B*%
X80750000Y-22500000D03*
%TO.P,SW401,C*%
%TO.N,GND*%
X78250000Y-22500000D03*
%TO.P,SW401,S1*%
%TO.N,ENC_SW*%
X75750000Y-7500000D03*
%TO.P,SW401,S2*%
%TO.N,GND*%
X80750000Y-7500000D03*
%TD*%
D36*
%TO.N,COL0*%
X72075000Y12000000D03*
%TO.N,COL1*%
X73345000Y12000000D03*
%TO.N,COL2*%
X74615000Y12000000D03*
%TO.N,COL3*%
X75885000Y12000000D03*
%TO.N,COL4*%
X77155000Y12000000D03*
%TO.N,3V3*%
X70250000Y11570000D03*
%TD*%
D37*
%TO.N,ROW0*%
X5715000Y-6985000D02*
X105250000Y-6985000D01*
X105250000Y-6985000D02*
X105250000Y-120063000D01*
X105250000Y-120063000D02*
X68250000Y-120063000D01*
X68250000Y-120063000D02*
X68250000Y26810000D01*
%TO.N,ROW1*%
X5715000Y-30797000D02*
X24765000Y-30797000D01*
X24765000Y-30797000D02*
X43815000Y-30797000D01*
X43815000Y-30797000D02*
X62865000Y-30797000D01*
X62865000Y-30797000D02*
X81915000Y-30797000D01*
X81915000Y-30797000D02*
X107250000Y-30797000D01*
X107250000Y-30797000D02*
X107250000Y-118063000D01*
X107250000Y-118063000D02*
X68250000Y-118063000D01*
X68250000Y-118063000D02*
X68250000Y24270000D01*
X68250000Y24270000D02*
X70250000Y24270000D01*
%TO.N,ROW2*%
X5715000Y-49848000D02*
X24765000Y-49848000D01*
X24765000Y-49848000D02*
X43815000Y-49848000D01*
X43815000Y-49848000D02*
X62865000Y-49848000D01*
X62865000Y-49848000D02*
X81915000Y-49848000D01*
X81915000Y-49848000D02*
X109250000Y-49848000D01*
X109250000Y-49848000D02*
X109250000Y-116063000D01*
X109250000Y-116063000D02*
X68250000Y-116063000D01*
X68250000Y-116063000D02*
X68250000Y21730000D01*
%TO.N,ROW3*%
X5715000Y-68897000D02*
X24765000Y-68897000D01*
X24765000Y-68897000D02*
X43815000Y-68897000D01*
X43815000Y-68897000D02*
X62865000Y-68897000D01*
X62865000Y-68897000D02*
X81915000Y-68897000D01*
X81915000Y-68897000D02*
X111250000Y-68897000D01*
X111250000Y-68897000D02*
X111250000Y-114063000D01*
X111250000Y-114063000D02*
X68250000Y-114063000D01*
X68250000Y-114063000D02*
X68250000Y19190000D01*
%TO.N,ROW4*%
X5715000Y-87947000D02*
X24765000Y-87947000D01*
X24765000Y-87947000D02*
X43815000Y-87947000D01*
X43815000Y-87947000D02*
X62865000Y-87947000D01*
X62865000Y-87947000D02*
X81915000Y-87947000D01*
X81915000Y-87947000D02*
X113250000Y-87947000D01*
X113250000Y-87947000D02*
X113250000Y-112063000D01*
X113250000Y-112063000D02*
X68250000Y-112063000D01*
X68250000Y-112063000D02*
X68250000Y16650000D01*
%TO.N,ROW5*%
X5715000Y-106998000D02*
X24765000Y-106998000D01*
X24765000Y-106998000D02*
X43815000Y-106998000D01*
X43815000Y-106998000D02*
X62865000Y-106998000D01*
X62865000Y-106998000D02*
X81915000Y-106998000D01*
X81915000Y-106998000D02*
X115250000Y-106998000D01*
X115250000Y-106998000D02*
X115250000Y-110063000D01*
X115250000Y-110063000D02*
X68250000Y-110063000D01*
X68250000Y-110063000D02*
X68250000Y14110000D01*
D38*
%TO.N,3V3*%
X70250000Y11570000D02*
X92250000Y20460000D01*
%TO.N,GND*%
X70250000Y9030000D02*
X80250000Y9030000D01*
%TO.N,5V*%
X80250000Y11570000D02*
X92250000Y460000D01*
%TO.N,GND*%
X80250000Y9030000D02*
X92250000Y23000000D01*
X92250000Y23000000D02*
X92250000Y5540000D01*
%TO.N,5V*%
X80250000Y11570000D02*
X92250000Y10460000D01*
%TO.N,GND*%
X80250000Y9030000D02*
X92250000Y13000000D01*
%TO.N,3V3*%
X70250000Y11570000D02*
X92250000Y-10810000D01*
%TO.N,GND*%
X80250000Y9030000D02*
X92250000Y-8270000D01*
D37*
%TO.N,IR_RX*%
X80250000Y19190000D02*
X92250000Y25540000D01*
%TO.N,IR_TX*%
X80250000Y21730000D02*
X92250000Y15540000D01*
%TO.N,LCD_SDA*%
X80250000Y31890000D02*
X92250000Y-5730000D01*
%TO.N,LCD_SCL*%
X80250000Y34430000D02*
X92250000Y-3190000D01*
%TO.N,LED_DATA*%
X80250000Y16650000D02*
X78122500Y3000000D01*
%TO.N,LED_DIN*%
X79997500Y3000000D02*
X92250000Y3000000D01*
D38*
%TO.N,5V*%
X92250000Y460000D02*
X99250000Y-5000000D01*
%TO.N,GND*%
X92250000Y5540000D02*
X102750000Y-5000000D01*
D37*
%TO.N,ENC_A*%
X80250000Y24270000D02*
X75750000Y-22500000D01*
%TO.N,ENC_B*%
X80250000Y26810000D02*
X80750000Y-22500000D01*
%TO.N,ENC_SW*%
X80250000Y29350000D02*
X75750000Y-7500000D01*
D38*
%TO.N,GND*%
X78250000Y-22500000D02*
X80750000Y-7500000D01*
X80750000Y-7500000D02*
X92250000Y5540000D01*
D37*
%TO.N,BAT+*%
X22250000Y-8000000D02*
X22250000Y-21810000D01*
%TO.N,GND*%
X22250000Y-10540000D02*
X22250000Y-19270000D01*
X22250000Y-19270000D02*
X22250000Y-8270000D01*
X22250000Y-8270000D02*
X92250000Y-8270000D01*
%TO.N,5V*%
X22250000Y-16730000D02*
X22250000Y460000D01*
X22250000Y460000D02*
X92250000Y460000D01*
X92250000Y460000D02*
X92250000Y10460000D01*
D38*
%TO.N,ROW0*%
X66500000Y24450000D02*
X68250000Y26810000D01*
%TO.N,ROW1*%
X66500000Y23180000D02*
X68250000Y24270000D01*
%TO.N,ROW2*%
X66500000Y21910000D02*
X68250000Y21730000D01*
%TO.N,ROW3*%
X66500000Y20640000D02*
X68250000Y19190000D01*
%TO.N,ROW4*%
X66500000Y14290000D02*
X68250000Y16650000D01*
%TO.N,ROW5*%
X70805000Y10500000D02*
X68250000Y14110000D01*
%TO.N,COL0*%
X72075000Y10500000D02*
X72075000Y12000000D01*
%TO.N,COL1*%
X73345000Y10500000D02*
X73345000Y12000000D01*
%TO.N,COL2*%
X74615000Y10500000D02*
X74615000Y12000000D01*
%TO.N,COL3*%
X75885000Y10500000D02*
X75885000Y12000000D01*
%TO.N,COL4*%
X77155000Y10500000D02*
X77155000Y12000000D01*
%TO.N,IR_RX*%
X84000000Y13020000D02*
X80250000Y19190000D01*
%TO.N,IR_TX*%
X84000000Y14290000D02*
X80250000Y21730000D01*
%TO.N,ENC_A*%
X84000000Y15560000D02*
X80250000Y24270000D01*
%TO.N,ENC_B*%
X84000000Y16830000D02*
X80250000Y26810000D01*
%TO.N,ENC_SW*%
X84000000Y18100000D02*
X80250000Y29350000D01*
%TO.N,LCD_SDA*%
X84000000Y19370000D02*
X80250000Y31890000D01*
%TO.N,LCD_SCL*%
X84000000Y20640000D02*
X80250000Y34430000D01*
%TO.N,3V3*%
X66500000Y26990000D02*
X66500000Y25720000D01*
X66500000Y25720000D02*
X70250000Y11570000D01*
D37*
%TO.N,GND*%
X73750000Y20540000D02*
X70250000Y9030000D01*
X66500000Y28260000D02*
X73750000Y20540000D01*
X84000000Y28260000D02*
X80250000Y9030000D01*
D39*
%TO.N,BAT+*%
X22250000Y-8000000D02*
X27850000Y-16300000D01*
%TO.N,3V3*%
X27850000Y-14000000D02*
X34150000Y-14000000D01*
X27850000Y-14000000D02*
X22250000Y-14190000D01*
%TO.N,GND*%
X27850000Y-11700000D02*
X22250000Y-10540000D01*
D37*
%TO.N,5V*%
X10480000Y-31920000D02*
X13520000Y-31920000D01*
X13520000Y-31920000D02*
X37137500Y-28950000D01*
X37137500Y-28950000D02*
X22250000Y-16730000D01*
X37137500Y-28950000D02*
X32675000Y-25000000D01*
D38*
%TO.N,USB_CC1*%
X11500000Y-31920000D02*
X11500000Y-28825000D01*
%TO.N,USB_CC2*%
X12500000Y-31920000D02*
X12500000Y-28825000D01*
D37*
%TO.N,GND*%
X9250000Y-31920000D02*
X14750000Y-31920000D01*
X14750000Y-31920000D02*
X22250000Y-19270000D01*
X7680000Y-32000000D02*
X9250000Y-31920000D01*
X16320000Y-32000000D02*
X14750000Y-31920000D01*
X7680000Y-35800000D02*
X7680000Y-32000000D01*
X16320000Y-35800000D02*
X16320000Y-32000000D01*
D38*
X11500000Y-27175000D02*
X9250000Y-31920000D01*
X12500000Y-27175000D02*
X14750000Y-31920000D01*
D37*
%TO.N,BAT+*%
X34862500Y-28950000D02*
X29675000Y-25000000D01*
X29675000Y-25000000D02*
X22250000Y-21810000D01*
%TO.N,GND*%
X34862500Y-28000000D02*
X34325000Y-25000000D01*
X34325000Y-25000000D02*
X31325000Y-25000000D01*
X31325000Y-25000000D02*
X22250000Y-19270000D01*
D38*
X40825000Y-27050000D02*
X34862500Y-28000000D01*
%TO.N,CHG_PROG*%
X37137500Y-27050000D02*
X39175000Y-27050000D01*
D39*
%TO.N,BAT+*%
X27850000Y-16300000D02*
X38000000Y-18000000D01*
X38000000Y-18000000D02*
X40137500Y-14950000D01*
X40137500Y-14950000D02*
X40137500Y-14000000D01*
X40137500Y-14000000D02*
X42000000Y-14000000D01*
D37*
%TO.N,BOOST_SW*%
X37862500Y-13050000D02*
X40137500Y-13050000D01*
X40137500Y-13050000D02*
X46000000Y-14000000D01*
X46000000Y-14000000D02*
X44850000Y-10000000D01*
%TO.N,5V*%
X48150000Y-10000000D02*
X48175000Y-14000000D01*
X48175000Y-14000000D02*
X41175000Y-18000000D01*
X41175000Y-18000000D02*
X37137500Y-28950000D01*
%TO.N,GND*%
X38825000Y-18000000D02*
X37862500Y-14000000D01*
X38825000Y-18000000D02*
X42825000Y-20000000D01*
X42825000Y-20000000D02*
X49825000Y-14000000D01*
X38825000Y-18000000D02*
X34325000Y-25000000D01*
D38*
%TO.N,BOOST_FB*%
X37862500Y-14950000D02*
X42825000Y-18000000D01*
X42825000Y-18000000D02*
X41175000Y-20000000D01*
%TD*%
M02*
