M48
; DRILL file {KiCad 9.0.7} date 2026-02-28T06:01:15-0500
; FORMAT={-:-/ absolute / metric / decimal}
; #@! TF.CreationDate,2026-02-28T06:01:15-05:00
; #@! TF.GenerationSoftware,Kicad,Pcbnew,9.0.7
; #@! TF.FileFunction,MixedPlating,1,2
FMAT,2
METRIC
; #@! TA.AperFunction,Plated,PTH,ViaDrill
T1C0.400
; #@! TA.AperFunction,Plated,PTH,ComponentDrill
T2C0.600
; #@! TA.AperFunction,Plated,PTH,ComponentDrill
T3C0.800
; #@! TA.AperFunction,Plated,PTH,ComponentDrill
T4C1.000
; #@! TA.AperFunction,Plated,PTH,ComponentDrill
T5C3.000
; #@! TA.AperFunction,NonPlated,NPTH,ComponentDrill
T6C1.750
; #@! TA.AperFunction,NonPlated,NPTH,ComponentDrill
T7C3.200
; #@! TA.AperFunction,NonPlated,NPTH,ComponentDrill
T8C4.000
%
G90
G05
T1
X70.25Y11.57
X72.075Y12.0
X73.345Y12.0
X74.615Y12.0
X75.885Y12.0
X77.155Y12.0
T3
X9.405Y-16.025
X9.405Y-39.837
X9.405Y-58.888
X9.405Y-77.938
X9.405Y-96.987
X9.405Y-116.038
X17.025Y-16.025
X17.025Y-39.837
X17.025Y-58.888
X17.025Y-77.938
X17.025Y-96.987
X17.025Y-116.038
X28.455Y-39.837
X28.455Y-58.888
X28.455Y-77.938
X28.455Y-96.987
X28.455Y-116.038
X36.075Y-39.837
X36.075Y-58.888
X36.075Y-77.938
X36.075Y-96.987
X36.075Y-116.038
X47.505Y-39.837
X47.505Y-58.888
X47.505Y-77.938
X47.505Y-96.987
X47.505Y-116.038
X55.125Y-39.837
X55.125Y-58.888
X55.125Y-77.938
X55.125Y-96.987
X55.125Y-116.038
X66.555Y-39.837
X66.555Y-58.888
X66.555Y-77.938
X66.555Y-96.987
X66.555Y-116.038
X74.175Y-39.837
X74.175Y-58.888
X74.175Y-77.938
X74.175Y-96.987
X74.175Y-116.038
X85.605Y-39.837
X85.605Y-58.888
X85.605Y-77.938
X85.605Y-96.987
X85.605Y-116.038
X93.225Y-39.837
X93.225Y-58.888
X93.225Y-77.938
X93.225Y-96.987
X93.225Y-116.038
X99.25Y-5.0
X102.75Y-5.0
T4
X22.25Y-8.0
X22.25Y-10.54
X22.25Y-14.19
X22.25Y-16.73
X22.25Y-19.27
X22.25Y-21.81
X75.75Y-7.5
X75.75Y-22.5
X78.25Y-22.5
X80.75Y-7.5
X80.75Y-22.5
X92.25Y25.54
X92.25Y23.0
X92.25Y20.46
X92.25Y15.54
X92.25Y13.0
X92.25Y10.46
X92.25Y5.54
X92.25Y3.0
X92.25Y0.46
X92.25Y-3.19
X92.25Y-5.73
X92.25Y-8.27
X92.25Y-10.81
T5
X5.715Y-6.985
X5.715Y-30.797
X5.715Y-49.848
X5.715Y-68.898
X5.715Y-87.947
X5.715Y-106.998
X12.065Y-4.445
X12.065Y-28.257
X12.065Y-47.308
X12.065Y-66.358
X12.065Y-85.407
X12.065Y-104.458
X24.765Y-30.797
X24.765Y-49.848
X24.765Y-68.898
X24.765Y-87.947
X24.765Y-106.998
X31.115Y-28.257
X31.115Y-47.308
X31.115Y-66.358
X31.115Y-85.407
X31.115Y-104.458
X43.815Y-30.797
X43.815Y-49.848
X43.815Y-68.898
X43.815Y-87.947
X43.815Y-106.998
X50.165Y-28.257
X50.165Y-47.308
X50.165Y-66.358
X50.165Y-85.407
X50.165Y-104.458
X62.865Y-30.797
X62.865Y-49.848
X62.865Y-68.898
X62.865Y-87.947
X62.865Y-106.998
X69.215Y-28.257
X69.215Y-47.308
X69.215Y-66.358
X69.215Y-85.407
X69.215Y-104.458
X81.915Y-30.797
X81.915Y-49.848
X81.915Y-68.898
X81.915Y-87.947
X81.915Y-106.998
X88.265Y-28.257
X88.265Y-47.308
X88.265Y-66.358
X88.265Y-85.407
X88.265Y-104.458
T6
X4.445Y-9.525
X4.445Y-33.337
X4.445Y-52.388
X4.445Y-71.438
X4.445Y-90.487
X4.445Y-109.538
X14.605Y-9.525
X14.605Y-33.337
X14.605Y-52.388
X14.605Y-71.438
X14.605Y-90.487
X14.605Y-109.538
X23.495Y-33.337
X23.495Y-52.388
X23.495Y-71.438
X23.495Y-90.487
X23.495Y-109.538
X33.655Y-33.337
X33.655Y-52.388
X33.655Y-71.438
X33.655Y-90.487
X33.655Y-109.538
X42.545Y-33.337
X42.545Y-52.388
X42.545Y-71.438
X42.545Y-90.487
X42.545Y-109.538
X52.705Y-33.337
X52.705Y-52.388
X52.705Y-71.438
X52.705Y-90.487
X52.705Y-109.538
X61.595Y-33.337
X61.595Y-52.388
X61.595Y-71.438
X61.595Y-90.487
X61.595Y-109.538
X71.755Y-33.337
X71.755Y-52.388
X71.755Y-71.438
X71.755Y-90.487
X71.755Y-109.538
X80.645Y-33.337
X80.645Y-52.388
X80.645Y-71.438
X80.645Y-90.487
X80.645Y-109.538
X90.805Y-33.337
X90.805Y-52.388
X90.805Y-71.438
X90.805Y-90.487
X90.805Y-109.538
T7
X0.0Y36.0
X0.0Y-119.0
X102.25Y36.0
X102.25Y-119.0
T8
X9.525Y-9.525
X9.525Y-33.337
X9.525Y-52.388
X9.525Y-71.438
X9.525Y-90.487
X9.525Y-109.538
X28.575Y-33.337
X28.575Y-52.388
X28.575Y-71.438
X28.575Y-90.487
X28.575Y-109.538
X47.625Y-33.337
X47.625Y-52.388
X47.625Y-71.438
X47.625Y-90.487
X47.625Y-109.538
X66.675Y-33.337
X66.675Y-52.388
X66.675Y-71.438
X66.675Y-90.487
X66.675Y-109.538
X85.725Y-33.337
X85.725Y-52.388
X85.725Y-71.438
X85.725Y-90.487
X85.725Y-109.538
T2
X7.68Y-31.7G85X7.68Y-32.3
G05
X7.68Y-35.5G85X7.68Y-36.1
G05
X16.32Y-31.7G85X16.32Y-32.3
G05
X16.32Y-35.5G85X16.32Y-36.1
G05
M30
