%TF.GenerationSoftware,KiCad,Pcbnew,9.0.7*%
%TF.CreationDate,2026-03-01T07:38:40-05:00*%
%TF.ProjectId,Macropad,4d616372-6f70-4616-942e-6b696361645f,rev?*%
%TF.SameCoordinates,Original*%
%TF.FileFunction,Paste,Bot*%
%TF.FilePolarity,Positive*%
%FSLAX46Y46*%
G04 Gerber Fmt 4.6, Leading zero omitted, Abs format (unit mm)*
G04 Created by KiCad (PCBNEW 9.0.7) date 2026-03-01 07:38:40*
%MOMM*%
%LPD*%
G01*
G04 APERTURE LIST*
G04 Aperture macros list*
%AMRoundRect*
0 Rectangle with rounded corners*
0 $1 Rounding radius*
0 $2 $3 $4 $5 $6 $7 $8 $9 X,Y pos of 4 corners*
0 Add a 4 corners polygon primitive as box body*
4,1,4,$2,$3,$4,$5,$6,$7,$8,$9,$2,$3,0*
0 Add four circle primitives for the rounded corners*
1,1,$1+$1,$2,$3*
1,1,$1+$1,$4,$5*
1,1,$1+$1,$6,$7*
1,1,$1+$1,$8,$9*
0 Add four rect primitives between the rounded corners*
20,1,$1+$1,$2,$3,$4,$5,0*
20,1,$1+$1,$4,$5,$6,$7,0*
20,1,$1+$1,$6,$7,$8,$9,0*
20,1,$1+$1,$8,$9,$2,$3,0*%
G04 Aperture macros list end*
%ADD10R,2.550000X2.500000*%
%ADD11RoundRect,0.200000X-0.350000X-0.300000X0.350000X-0.300000X0.350000X0.300000X-0.350000X0.300000X0*%
%ADD12RoundRect,0.200000X0.275000X-0.200000X0.275000X0.200000X-0.275000X0.200000X-0.275000X-0.200000X0*%
%ADD13C,0.350000*%
%ADD14O,0.600000X1.200000*%
G04 APERTURE END LIST*
D10*
%TO.C,SW26*%
X78165000Y-106998000D03*
X92015000Y-104458000D03*
%TD*%
%TO.C,SW14*%
X40065000Y-68898000D03*
X53915000Y-66358000D03*
%TD*%
%TO.C,SW10*%
X59115000Y-49848000D03*
X72965000Y-47308000D03*
%TD*%
%TO.C,SW23*%
X21015000Y-106998000D03*
X34865000Y-104458000D03*
%TD*%
%TO.C,SW21*%
X78165000Y-87947000D03*
X92015000Y-85407000D03*
%TD*%
%TO.C,SW16*%
X78165000Y-68898000D03*
X92015000Y-66358000D03*
%TD*%
%TO.C,SW11*%
X78165000Y-49848000D03*
X92015000Y-47308000D03*
%TD*%
%TO.C,SW5*%
X59115000Y-30797000D03*
X72965000Y-28257000D03*
%TD*%
%TO.C,SW24*%
X40065000Y-106998000D03*
X53915000Y-104458000D03*
%TD*%
%TO.C,SW19*%
X40065000Y-87947000D03*
X53915000Y-85407000D03*
%TD*%
%TO.C,SW25*%
X59115000Y-106998000D03*
X72965000Y-104458000D03*
%TD*%
%TO.C,SW7*%
X1965000Y-49848000D03*
X15815000Y-47308000D03*
%TD*%
%TO.C,SW22*%
X1965000Y-106998000D03*
X15815000Y-104458000D03*
%TD*%
%TO.C,SW1*%
X1965000Y-6985000D03*
X15815000Y-4445000D03*
%TD*%
%TO.C,SW15*%
X59115000Y-68898000D03*
X72965000Y-66358000D03*
%TD*%
%TO.C,SW3*%
X21015000Y-30797000D03*
X34865000Y-28257000D03*
%TD*%
%TO.C,SW17*%
X1965000Y-87947000D03*
X15815000Y-85407000D03*
%TD*%
%TO.C,SW18*%
X21015000Y-87947000D03*
X34865000Y-85407000D03*
%TD*%
%TO.C,SW9*%
X40065000Y-49848000D03*
X53915000Y-47308000D03*
%TD*%
%TO.C,SW8*%
X21015000Y-49848000D03*
X34865000Y-47308000D03*
%TD*%
%TO.C,SW13*%
X21015000Y-68898000D03*
X34865000Y-66358000D03*
%TD*%
%TO.C,SW6*%
X78165000Y-30797000D03*
X92015000Y-28257000D03*
%TD*%
%TO.C,SW4*%
X40065000Y-30797000D03*
X53915000Y-28257000D03*
%TD*%
%TO.C,SW12*%
X1965000Y-68898000D03*
X15815000Y-66358000D03*
%TD*%
%TO.C,SW20*%
X59115000Y-87947000D03*
X72965000Y-85407000D03*
%TD*%
%TO.C,SW2*%
X1965000Y-30797000D03*
X15815000Y-28257000D03*
%TD*%
D11*
%TO.C,SW402*%
X70300000Y3150000D03*
X73700000Y3150000D03*
X70300000Y4850000D03*
X73700000Y4850000D03*
%TD*%
D12*
%TO.C,R407*%
X67500000Y26175000D03*
X67500000Y27825000D03*
%TD*%
D13*
X92250000Y25460000D03*
X92250000Y28000000D03*
X92250000Y30540000D03*
X80645000Y-109538000D03*
X85725000Y-109538000D03*
X90805000Y-109538000D03*
X81915000Y-106998000D03*
X88265000Y-104458000D03*
X42545000Y-71438000D03*
X47625000Y-71438000D03*
X52705000Y-71438000D03*
X43815000Y-68898000D03*
X50165000Y-66358000D03*
X99250000Y-5000000D03*
X102750000Y-5000000D03*
X102250000Y-119000000D03*
X61595000Y-52388000D03*
X66675000Y-52388000D03*
X71755000Y-52388000D03*
X62865000Y-49848000D03*
X69215000Y-47308000D03*
X23495000Y-109538000D03*
X28575000Y-109538000D03*
X33655000Y-109538000D03*
X24765000Y-106998000D03*
X31115000Y-104458000D03*
X80645000Y-90487000D03*
X85725000Y-90487000D03*
X90805000Y-90487000D03*
X81915000Y-87947000D03*
X88265000Y-85407000D03*
X101000000Y14190000D03*
X101000000Y16730000D03*
X101000000Y19270000D03*
X101000000Y21810000D03*
X80645000Y-71438000D03*
X85725000Y-71438000D03*
X90805000Y-71438000D03*
X81915000Y-68898000D03*
X88265000Y-66358000D03*
X92250000Y460000D03*
X92250000Y3000000D03*
X92250000Y5540000D03*
X102250000Y36000000D03*
X80645000Y-52388000D03*
X85725000Y-52388000D03*
X90805000Y-52388000D03*
X81915000Y-49848000D03*
X88265000Y-47308000D03*
X22250000Y-8000000D03*
X22250000Y-10540000D03*
X61595000Y-33337000D03*
X66675000Y-33337000D03*
X71755000Y-33337000D03*
X62865000Y-30797000D03*
X69215000Y-28257000D03*
X42545000Y-109538000D03*
X47625000Y-109538000D03*
X52705000Y-109538000D03*
X43815000Y-106998000D03*
X50165000Y-104458000D03*
X42545000Y-90487000D03*
X47625000Y-90487000D03*
X52705000Y-90487000D03*
X43815000Y-87947000D03*
X50165000Y-85407000D03*
X61595000Y-109538000D03*
X66675000Y-109538000D03*
X71755000Y-109538000D03*
X62865000Y-106998000D03*
X69215000Y-104458000D03*
X4445000Y-52388000D03*
X9525000Y-52388000D03*
X14605000Y-52388000D03*
X5715000Y-49848000D03*
X12065000Y-47308000D03*
X0Y-119000000D03*
X4445000Y-109538000D03*
X9525000Y-109538000D03*
X14605000Y-109538000D03*
X5715000Y-106998000D03*
X12065000Y-104458000D03*
X4445000Y-9525000D03*
X9525000Y-9525000D03*
X14605000Y-9525000D03*
X5715000Y-6985000D03*
X12065000Y-4445000D03*
X0Y36000000D03*
X61595000Y-71438000D03*
X66675000Y-71438000D03*
X71755000Y-71438000D03*
X62865000Y-68898000D03*
X69215000Y-66358000D03*
D14*
X46805000Y39000000D03*
X46805000Y35200000D03*
X55445000Y39000000D03*
X55445000Y35200000D03*
D13*
X95000000Y14190000D03*
X95000000Y16730000D03*
X95000000Y19270000D03*
X95000000Y21810000D03*
X23495000Y-33337000D03*
X28575000Y-33337000D03*
X33655000Y-33337000D03*
X24765000Y-30797000D03*
X31115000Y-28257000D03*
X4445000Y-90487000D03*
X9525000Y-90487000D03*
X14605000Y-90487000D03*
X5715000Y-87947000D03*
X12065000Y-85407000D03*
X98250000Y25460000D03*
X98250000Y28000000D03*
X98250000Y30540000D03*
X23495000Y-90487000D03*
X28575000Y-90487000D03*
X33655000Y-90487000D03*
X24765000Y-87947000D03*
X31115000Y-85407000D03*
X42545000Y-52388000D03*
X47625000Y-52388000D03*
X52705000Y-52388000D03*
X43815000Y-49848000D03*
X50165000Y-47308000D03*
X23495000Y-52388000D03*
X28575000Y-52388000D03*
X33655000Y-52388000D03*
X24765000Y-49848000D03*
X31115000Y-47308000D03*
X23495000Y-71438000D03*
X28575000Y-71438000D03*
X33655000Y-71438000D03*
X24765000Y-68898000D03*
X31115000Y-66358000D03*
X80645000Y-33337000D03*
X85725000Y-33337000D03*
X90805000Y-33337000D03*
X81915000Y-30797000D03*
X88265000Y-28257000D03*
X22250000Y-21810000D03*
X22250000Y-19270000D03*
X22250000Y-16730000D03*
X22250000Y-14190000D03*
X42545000Y-33337000D03*
X47625000Y-33337000D03*
X52705000Y-33337000D03*
X43815000Y-30797000D03*
X50165000Y-28257000D03*
X4445000Y-71438000D03*
X9525000Y-71438000D03*
X14605000Y-71438000D03*
X5715000Y-68898000D03*
X12065000Y-66358000D03*
X5500000Y2500000D03*
X10500000Y2500000D03*
X8000000Y2500000D03*
X5500000Y17500000D03*
X10500000Y17500000D03*
X61595000Y-90487000D03*
X66675000Y-90487000D03*
X71755000Y-90487000D03*
X62865000Y-87947000D03*
X69215000Y-85407000D03*
X4445000Y-33337000D03*
X9525000Y-33337000D03*
X14605000Y-33337000D03*
X5715000Y-30797000D03*
X12065000Y-28257000D03*
X36075000Y-77938000D03*
X28455000Y-77938000D03*
X55125000Y-77938000D03*
X47505000Y-77938000D03*
X93225000Y-77938000D03*
X85605000Y-77938000D03*
X55125000Y-58888000D03*
X47505000Y-58888000D03*
X17025000Y-16025000D03*
X9405000Y-16025000D03*
X74175000Y-58888000D03*
X66555000Y-58888000D03*
X74175000Y-39837000D03*
X66555000Y-39837000D03*
X55125000Y-39837000D03*
X47505000Y-39837000D03*
X93225000Y-39837000D03*
X85605000Y-39837000D03*
X17025000Y-39837000D03*
X9405000Y-39837000D03*
X36075000Y-116038000D03*
X28455000Y-116038000D03*
X36075000Y-39837000D03*
X28455000Y-39837000D03*
X55125000Y-96987000D03*
X47505000Y-96987000D03*
X55125000Y-116038000D03*
X47505000Y-116038000D03*
X74175000Y-77938000D03*
X66555000Y-77938000D03*
X74175000Y-116038000D03*
X66555000Y-116038000D03*
X36075000Y-96987000D03*
X28455000Y-96987000D03*
X17025000Y-77938000D03*
X9405000Y-77938000D03*
X36075000Y-58888000D03*
X28455000Y-58888000D03*
X93225000Y-96987000D03*
X85605000Y-96987000D03*
X93225000Y-116038000D03*
X85605000Y-116038000D03*
X93225000Y-58888000D03*
X85605000Y-58888000D03*
X17025000Y-58888000D03*
X9405000Y-58888000D03*
X17025000Y-116038000D03*
X9405000Y-116038000D03*
X17025000Y-96987000D03*
X9405000Y-96987000D03*
X74175000Y-96987000D03*
X66555000Y-96987000D03*
M02*
