%TF.GenerationSoftware,KiCad,Pcbnew,9.0.7*%
%TF.CreationDate,2026-03-01T07:38:40-05:00*%
%TF.ProjectId,Macropad,4d616372-6f70-4616-942e-6b696361645f,rev?*%
%TF.SameCoordinates,Original*%
%TF.FileFunction,Copper,L1,Top*%
%TF.FilePolarity,Positive*%
%FSLAX46Y46*%
G04 Gerber Fmt 4.6, Leading zero omitted, Abs format (unit mm)*
G04 Created by KiCad (PCBNEW 9.0.7) date 2026-03-01 07:38:40*
%MOMM*%
%LPD*%
G01*
G04 APERTURE LIST*
G04 Aperture macros list*
%AMRoundRect*
0 Rectangle with rounded corners*
0 $1 Rounding radius*
0 $2 $3 $4 $5 $6 $7 $8 $9 X,Y pos of 4 corners*
0 Add a 4 corners polygon primitive as box body*
4,1,4,$2,$3,$4,$5,$6,$7,$8,$9,$2,$3,0*
0 Add four circle primitives for the rounded corners*
1,1,$1+$1,$2,$3*
1,1,$1+$1,$4,$5*
1,1,$1+$1,$6,$7*
1,1,$1+$1,$8,$9*
0 Add four rect primitives between the rounded corners*
20,1,$1+$1,$2,$3,$4,$5,0*
20,1,$1+$1,$4,$5,$6,$7,0*
20,1,$1+$1,$6,$7,$8,$9,0*
20,1,$1+$1,$8,$9,$2,$3,0*%
G04 Aperture macros list end*
%TA.AperFunction,SMDPad,CuDef*%
%ADD10RoundRect,0.160000X-0.390000X-0.240000X0.390000X-0.240000X0.390000X0.240000X-0.390000X0.240000X0*%
%TD*%
%TA.AperFunction,ComponentPad*%
%ADD11R,1.700000X1.700000*%
%TD*%
%TA.AperFunction,ComponentPad*%
%ADD12C,1.700000*%
%TD*%
%TA.AperFunction,ComponentPad*%
%ADD13O,8.000000X3.600000*%
%TD*%
%TA.AperFunction,ComponentPad*%
%ADD14R,1.600000X1.600000*%
%TD*%
%TA.AperFunction,ComponentPad*%
%ADD15C,1.600000*%
%TD*%
%TA.AperFunction,SMDPad,CuDef*%
%ADD16RoundRect,0.200000X-0.200000X-0.275000X0.200000X-0.275000X0.200000X0.275000X-0.200000X0.275000X0*%
%TD*%
%TA.AperFunction,SMDPad,CuDef*%
%ADD17RoundRect,0.150000X-0.512500X-0.150000X0.512500X-0.150000X0.512500X0.150000X-0.512500X0.150000X0*%
%TD*%
%TA.AperFunction,ComponentPad*%
%ADD18O,1.700000X1.700000*%
%TD*%
%TA.AperFunction,SMDPad,CuDef*%
%ADD19RoundRect,0.250000X-1.000000X-1.250000X1.000000X-1.250000X1.000000X1.250000X-1.000000X1.250000X0*%
%TD*%
%TA.AperFunction,SMDPad,CuDef*%
%ADD20RoundRect,0.243750X-0.243750X-0.456250X0.243750X-0.456250X0.243750X0.456250X-0.243750X0.456250X0*%
%TD*%
%TA.AperFunction,SMDPad,CuDef*%
%ADD21RoundRect,0.200000X0.275000X-0.200000X0.275000X0.200000X-0.275000X0.200000X-0.275000X-0.200000X0*%
%TD*%
%TA.AperFunction,SMDPad,CuDef*%
%ADD22RoundRect,0.175000X-0.175000X-0.425000X0.175000X-0.425000X0.175000X0.425000X-0.175000X0.425000X0*%
%TD*%
%TA.AperFunction,SMDPad,CuDef*%
%ADD23RoundRect,0.190000X0.190000X0.410000X-0.190000X0.410000X-0.190000X-0.410000X0.190000X-0.410000X0*%
%TD*%
%TA.AperFunction,SMDPad,CuDef*%
%ADD24RoundRect,0.200000X0.200000X0.400000X-0.200000X0.400000X-0.200000X-0.400000X0.200000X-0.400000X0*%
%TD*%
%TA.AperFunction,SMDPad,CuDef*%
%ADD25RoundRect,0.175000X0.175000X0.425000X-0.175000X0.425000X-0.175000X-0.425000X0.175000X-0.425000X0*%
%TD*%
%TA.AperFunction,SMDPad,CuDef*%
%ADD26RoundRect,0.190000X-0.190000X-0.410000X0.190000X-0.410000X0.190000X0.410000X-0.190000X0.410000X0*%
%TD*%
%TA.AperFunction,SMDPad,CuDef*%
%ADD27RoundRect,0.200000X-0.200000X-0.400000X0.200000X-0.400000X0.200000X0.400000X-0.200000X0.400000X0*%
%TD*%
%TA.AperFunction,ComponentPad*%
%ADD28O,1.100000X1.700000*%
%TD*%
%TA.AperFunction,SMDPad,CuDef*%
%ADD29RoundRect,0.240000X-0.360000X-0.460000X0.360000X-0.460000X0.360000X0.460000X-0.360000X0.460000X0*%
%TD*%
%TA.AperFunction,SMDPad,CuDef*%
%ADD30RoundRect,0.375000X-0.625000X-0.375000X0.625000X-0.375000X0.625000X0.375000X-0.625000X0.375000X0*%
%TD*%
%TA.AperFunction,SMDPad,CuDef*%
%ADD31RoundRect,0.500000X-0.500000X-1.400000X0.500000X-1.400000X0.500000X1.400000X-0.500000X1.400000X0*%
%TD*%
%TA.AperFunction,ComponentPad*%
%ADD32R,1.800000X1.800000*%
%TD*%
%TA.AperFunction,ComponentPad*%
%ADD33C,1.800000*%
%TD*%
%TA.AperFunction,SMDPad,CuDef*%
%ADD34R,1.500000X0.900000*%
%TD*%
%TA.AperFunction,SMDPad,CuDef*%
%ADD35R,3.900000X3.900000*%
%TD*%
%TA.AperFunction,ComponentPad*%
%ADD36O,1.600000X1.600000*%
%TD*%
%TA.AperFunction,ViaPad*%
%ADD37C,0.800000*%
%TD*%
%TA.AperFunction,Conductor*%
%ADD38C,0.300000*%
%TD*%
%TA.AperFunction,Conductor*%
%ADD39C,0.250000*%
%TD*%
%TA.AperFunction,Conductor*%
%ADD40C,0.180000*%
%TD*%
%TA.AperFunction,Conductor*%
%ADD41C,0.400000*%
%TD*%
%TA.AperFunction,Conductor*%
%ADD42C,0.120000*%
%TD*%
%TA.AperFunction,Conductor*%
%ADD43C,0.500000*%
%TD*%
%ADD44C,0.350000*%
%ADD45O,0.600000X1.200000*%
G04 APERTURE END LIST*
D10*
%TO.P,RGB1,1*%
%TO.N,5V*%
X7975000Y-14675000D03*
%TO.P,RGB1,2*%
%TO.N,RGB1_DOUT*%
X11075000Y-14675000D03*
%TO.P,RGB1,3*%
%TO.N,GND*%
X11075000Y-16375000D03*
%TO.P,RGB1,4*%
%TO.N,LED_DIN*%
X7975000Y-16375000D03*
%TD*%
D11*
%TO.P,J202,1*%
%TO.N,5V*%
X92250000Y25460000D03*
D12*
%TO.P,J202,2*%
%TO.N,GND*%
X92250000Y28000000D03*
%TO.P,J202,3*%
%TO.N,IR_TX*%
X92250000Y30540000D03*
%TD*%
D13*
%TO.P,SW26,1*%
%TO.N,ROW5*%
X81915000Y-106998000D03*
%TO.P,SW26,2*%
%TO.N,K26*%
X88265000Y-104458000D03*
%TD*%
%TO.P,SW14,1*%
%TO.N,ROW3*%
X43815000Y-68898000D03*
%TO.P,SW14,2*%
%TO.N,K14*%
X50165000Y-66358000D03*
%TD*%
D14*
%TO.P,C401,1*%
%TO.N,5V*%
X99250000Y-5000000D03*
D15*
%TO.P,C401,2*%
%TO.N,GND*%
X102750000Y-5000000D03*
%TD*%
D10*
%TO.P,RGB2,1*%
%TO.N,5V*%
X7975000Y-38487000D03*
%TO.P,RGB2,2*%
%TO.N,RGB2_DOUT*%
X11075000Y-38487000D03*
%TO.P,RGB2,3*%
%TO.N,GND*%
X11075000Y-40187000D03*
%TO.P,RGB2,4*%
%TO.N,RGB1_DOUT*%
X7975000Y-40187000D03*
%TD*%
%TO.P,RGB26,1*%
%TO.N,5V*%
X84175000Y-114688000D03*
%TO.P,RGB26,2*%
%TO.N,RGB26_DOUT*%
X87275000Y-114688000D03*
%TO.P,RGB26,3*%
%TO.N,GND*%
X87275000Y-116388000D03*
%TO.P,RGB26,4*%
%TO.N,RGB25_DOUT*%
X84175000Y-116388000D03*
%TD*%
%TO.P,RGB7,1*%
%TO.N,5V*%
X7975000Y-57538000D03*
%TO.P,RGB7,2*%
%TO.N,RGB7_DOUT*%
X11075000Y-57538000D03*
%TO.P,RGB7,3*%
%TO.N,GND*%
X11075000Y-59238000D03*
%TO.P,RGB7,4*%
%TO.N,RGB6_DOUT*%
X7975000Y-59238000D03*
%TD*%
%TO.P,RGB22,1*%
%TO.N,5V*%
X7975000Y-114688000D03*
%TO.P,RGB22,2*%
%TO.N,RGB22_DOUT*%
X11075000Y-114688000D03*
%TO.P,RGB22,3*%
%TO.N,GND*%
X11075000Y-116388000D03*
%TO.P,RGB22,4*%
%TO.N,RGB21_DOUT*%
X7975000Y-116388000D03*
%TD*%
D16*
%TO.P,C402,1*%
%TO.N,5V*%
X32675000Y-25000000D03*
%TO.P,C402,2*%
%TO.N,GND*%
X34325000Y-25000000D03*
%TD*%
D13*
%TO.P,SW10,1*%
%TO.N,ROW2*%
X62865000Y-49848000D03*
%TO.P,SW10,2*%
%TO.N,K10*%
X69215000Y-47308000D03*
%TD*%
%TO.P,SW23,1*%
%TO.N,ROW5*%
X24765000Y-106998000D03*
%TO.P,SW23,2*%
%TO.N,K23*%
X31115000Y-104458000D03*
%TD*%
D10*
%TO.P,RGB21,1*%
%TO.N,5V*%
X84175000Y-95637000D03*
%TO.P,RGB21,2*%
%TO.N,RGB21_DOUT*%
X87275000Y-95637000D03*
%TO.P,RGB21,3*%
%TO.N,GND*%
X87275000Y-97337000D03*
%TO.P,RGB21,4*%
%TO.N,RGB20_DOUT*%
X84175000Y-97337000D03*
%TD*%
%TO.P,RGB15,1*%
%TO.N,5V*%
X65125000Y-76588000D03*
%TO.P,RGB15,2*%
%TO.N,RGB15_DOUT*%
X68225000Y-76588000D03*
%TO.P,RGB15,3*%
%TO.N,GND*%
X68225000Y-78288000D03*
%TO.P,RGB15,4*%
%TO.N,RGB14_DOUT*%
X65125000Y-78288000D03*
%TD*%
D17*
%TO.P,U403,1*%
%TO.N,N/C*%
X56725000Y-17000000D03*
%TO.P,U403,2*%
%TO.N,GND*%
X56725000Y-17950000D03*
%TO.P,U403,3*%
%TO.N,BAT+*%
X56725000Y-18900000D03*
%TO.P,U403,4*%
%TO.N,5V*%
X59000000Y-18900000D03*
%TO.P,U403,5*%
%TO.N,CHG_PROG*%
X59000000Y-17000000D03*
%TD*%
D13*
%TO.P,SW21,1*%
%TO.N,ROW4*%
X81915000Y-87947000D03*
%TO.P,SW21,2*%
%TO.N,K21*%
X88265000Y-85407000D03*
%TD*%
D11*
%TO.P,J303,1*%
%TO.N,LCD_CS*%
X101000000Y14190000D03*
D12*
%TO.P,J303,2*%
%TO.N,LCD_DC*%
X101000000Y16730000D03*
%TO.P,J303,3*%
%TO.N,LCD_RST*%
X101000000Y19270000D03*
%TO.P,J303,4*%
%TO.N,LCD_BL*%
X101000000Y21810000D03*
%TD*%
D16*
%TO.P,C404,1*%
%TO.N,BAT+*%
X37175000Y-18000000D03*
%TO.P,C404,2*%
%TO.N,GND*%
X38825000Y-18000000D03*
%TD*%
D13*
%TO.P,SW16,1*%
%TO.N,ROW3*%
X81915000Y-68898000D03*
%TO.P,SW16,2*%
%TO.N,K16*%
X88265000Y-66358000D03*
%TD*%
D10*
%TO.P,RGB23,1*%
%TO.N,5V*%
X27025000Y-114688000D03*
%TO.P,RGB23,2*%
%TO.N,RGB23_DOUT*%
X30125000Y-114688000D03*
%TO.P,RGB23,3*%
%TO.N,GND*%
X30125000Y-116388000D03*
%TO.P,RGB23,4*%
%TO.N,RGB22_DOUT*%
X27025000Y-116388000D03*
%TD*%
D11*
%TO.P,J301,1*%
%TO.N,5V*%
X92250000Y460000D03*
D12*
%TO.P,J301,2*%
%TO.N,LED_DIN*%
X92250000Y3000000D03*
%TO.P,J301,3*%
%TO.N,GND*%
X92250000Y5540000D03*
%TD*%
D10*
%TO.P,RGB16,1*%
%TO.N,5V*%
X84175000Y-76588000D03*
%TO.P,RGB16,2*%
%TO.N,RGB16_DOUT*%
X87275000Y-76588000D03*
%TO.P,RGB16,3*%
%TO.N,GND*%
X87275000Y-78288000D03*
%TO.P,RGB16,4*%
%TO.N,RGB15_DOUT*%
X84175000Y-78288000D03*
%TD*%
D16*
%TO.P,R404,1*%
%TO.N,CHG_PROG*%
X39175000Y-27050000D03*
%TO.P,R404,2*%
%TO.N,GND*%
X40825000Y-27050000D03*
%TD*%
D10*
%TO.P,RGB8,1*%
%TO.N,5V*%
X27025000Y-57538000D03*
%TO.P,RGB8,2*%
%TO.N,RGB8_DOUT*%
X30125000Y-57538000D03*
%TO.P,RGB8,3*%
%TO.N,GND*%
X30125000Y-59238000D03*
%TO.P,RGB8,4*%
%TO.N,RGB7_DOUT*%
X27025000Y-59238000D03*
%TD*%
D17*
%TO.P,U404,1*%
%TO.N,BOOST_SW*%
X37862500Y-13050000D03*
%TO.P,U404,2*%
%TO.N,GND*%
X37862500Y-14000000D03*
%TO.P,U404,3*%
%TO.N,BOOST_FB*%
X37862500Y-14950000D03*
%TO.P,U404,4*%
%TO.N,BAT+*%
X40137500Y-14950000D03*
%TO.P,U404,5*%
X40137500Y-14000000D03*
%TO.P,U404,6*%
%TO.N,BOOST_SW*%
X40137500Y-13050000D03*
%TD*%
D13*
%TO.P,SW11,1*%
%TO.N,ROW2*%
X81915000Y-49848000D03*
%TO.P,SW11,2*%
%TO.N,K11*%
X88265000Y-47308000D03*
%TD*%
D11*
%TO.P,J400,1*%
%TO.N,BAT+*%
X22250000Y-8000000D03*
D18*
%TO.P,J400,2*%
%TO.N,GND*%
X22250000Y-10540000D03*
%TD*%
D10*
%TO.P,RGB14,1*%
%TO.N,5V*%
X46075000Y-76588000D03*
%TO.P,RGB14,2*%
%TO.N,RGB14_DOUT*%
X49175000Y-76588000D03*
%TO.P,RGB14,3*%
%TO.N,GND*%
X49175000Y-78288000D03*
%TO.P,RGB14,4*%
%TO.N,RGB13_DOUT*%
X46075000Y-78288000D03*
%TD*%
D16*
%TO.P,C405,1*%
%TO.N,5V*%
X48175000Y-14000000D03*
%TO.P,C405,2*%
%TO.N,GND*%
X49825000Y-14000000D03*
%TD*%
D13*
%TO.P,SW5,1*%
%TO.N,ROW1*%
X62865000Y-30797000D03*
%TO.P,SW5,2*%
%TO.N,K5*%
X69215000Y-28257000D03*
%TD*%
%TO.P,SW24,1*%
%TO.N,ROW5*%
X43815000Y-106998000D03*
%TO.P,SW24,2*%
%TO.N,K24*%
X50165000Y-104458000D03*
%TD*%
D19*
%TO.P,L401,1*%
%TO.N,BAT+*%
X42000000Y-14000000D03*
%TO.P,L401,2*%
%TO.N,BOOST_SW*%
X46000000Y-14000000D03*
%TD*%
D10*
%TO.P,RGB9,1*%
%TO.N,5V*%
X46075000Y-57538000D03*
%TO.P,RGB9,2*%
%TO.N,RGB9_DOUT*%
X49175000Y-57538000D03*
%TO.P,RGB9,3*%
%TO.N,GND*%
X49175000Y-59238000D03*
%TO.P,RGB9,4*%
%TO.N,RGB8_DOUT*%
X46075000Y-59238000D03*
%TD*%
D20*
%TO.P,R401,1*%
%TO.N,RGB_DATA*%
X78122500Y3000000D03*
%TO.P,R401,2*%
%TO.N,LED_DIN*%
X79997500Y3000000D03*
%TD*%
D10*
%TO.P,RGB18,1*%
%TO.N,5V*%
X27025000Y-95637000D03*
%TO.P,RGB18,2*%
%TO.N,RGB18_DOUT*%
X30125000Y-95637000D03*
%TO.P,RGB18,3*%
%TO.N,GND*%
X30125000Y-97337000D03*
%TO.P,RGB18,4*%
%TO.N,RGB17_DOUT*%
X27025000Y-97337000D03*
%TD*%
%TO.P,RGB6,1*%
%TO.N,5V*%
X84175000Y-38487000D03*
%TO.P,RGB6,2*%
%TO.N,RGB6_DOUT*%
X87275000Y-38487000D03*
%TO.P,RGB6,3*%
%TO.N,GND*%
X87275000Y-40187000D03*
%TO.P,RGB6,4*%
%TO.N,RGB5_DOUT*%
X84175000Y-40187000D03*
%TD*%
D21*
%TO.P,R403,1*%
%TO.N,USB_CC2*%
X52675000Y31500000D03*
%TO.P,R403,2*%
%TO.N,GND*%
X54325000Y31500000D03*
%TD*%
D16*
%TO.P,C403,1*%
%TO.N,BAT+*%
X29675000Y-25000000D03*
%TO.P,C403,2*%
%TO.N,GND*%
X31325000Y-25000000D03*
%TD*%
D10*
%TO.P,RGB13,1*%
%TO.N,5V*%
X27025000Y-76588000D03*
%TO.P,RGB13,2*%
%TO.N,RGB13_DOUT*%
X30125000Y-76588000D03*
%TO.P,RGB13,3*%
%TO.N,GND*%
X30125000Y-78288000D03*
%TO.P,RGB13,4*%
%TO.N,RGB12_DOUT*%
X27025000Y-78288000D03*
%TD*%
%TO.P,RGB11,1*%
%TO.N,5V*%
X84175000Y-57538000D03*
%TO.P,RGB11,2*%
%TO.N,RGB11_DOUT*%
X87275000Y-57538000D03*
%TO.P,RGB11,3*%
%TO.N,GND*%
X87275000Y-59238000D03*
%TO.P,RGB11,4*%
%TO.N,RGB10_DOUT*%
X84175000Y-59238000D03*
%TD*%
D13*
%TO.P,SW19,1*%
%TO.N,ROW4*%
X43815000Y-87947000D03*
%TO.P,SW19,2*%
%TO.N,K19*%
X50165000Y-85407000D03*
%TD*%
%TO.P,SW25,1*%
%TO.N,ROW5*%
X62865000Y-106998000D03*
%TO.P,SW25,2*%
%TO.N,K25*%
X69215000Y-104458000D03*
%TD*%
%TO.P,SW7,1*%
%TO.N,ROW2*%
X5715000Y-49848000D03*
%TO.P,SW7,2*%
%TO.N,K7*%
X12065000Y-47308000D03*
%TD*%
D10*
%TO.P,RGB25,1*%
%TO.N,5V*%
X65125000Y-114688000D03*
%TO.P,RGB25,2*%
%TO.N,RGB25_DOUT*%
X68225000Y-114688000D03*
%TO.P,RGB25,3*%
%TO.N,GND*%
X68225000Y-116388000D03*
%TO.P,RGB25,4*%
%TO.N,RGB24_DOUT*%
X65125000Y-116388000D03*
%TD*%
D16*
%TO.P,R406,1*%
%TO.N,BOOST_FB*%
X41175000Y-20000000D03*
%TO.P,R406,2*%
%TO.N,GND*%
X42825000Y-20000000D03*
%TD*%
D13*
%TO.P,SW22,1*%
%TO.N,ROW5*%
X5715000Y-106998000D03*
%TO.P,SW22,2*%
%TO.N,K22*%
X12065000Y-104458000D03*
%TD*%
%TO.P,SW1,1*%
%TO.N,ROW0*%
X5715000Y-6985000D03*
%TO.P,SW1,2*%
%TO.N,K1*%
X12065000Y-4445000D03*
%TD*%
%TO.P,SW15,1*%
%TO.N,ROW3*%
X62865000Y-68898000D03*
%TO.P,SW15,2*%
%TO.N,K15*%
X69215000Y-66358000D03*
%TD*%
D22*
%TO.P,J402,A5*%
%TO.N,USB_CC1*%
X50625000Y39080000D03*
D23*
%TO.P,J402,A9*%
%TO.N,5V*%
X52645000Y39080000D03*
D24*
%TO.P,J402,A12*%
%TO.N,GND*%
X53875000Y39080000D03*
D25*
%TO.P,J402,B5*%
%TO.N,USB_CC2*%
X51625000Y39080000D03*
D26*
%TO.P,J402,B9*%
%TO.N,5V*%
X49605000Y39080000D03*
D27*
%TO.P,J402,B12*%
%TO.N,GND*%
X48375000Y39080000D03*
D28*
%TO.P,J402,S1*%
X46805000Y39000000D03*
X46805000Y35200000D03*
X55445000Y39000000D03*
X55445000Y35200000D03*
%TD*%
D11*
%TO.P,J302,1*%
%TO.N,3V3*%
X95000000Y14190000D03*
D12*
%TO.P,J302,2*%
%TO.N,GND*%
X95000000Y16730000D03*
%TO.P,J302,3*%
%TO.N,LCD_MOSI*%
X95000000Y19270000D03*
%TO.P,J302,4*%
%TO.N,LCD_SCLK*%
X95000000Y21810000D03*
%TD*%
D13*
%TO.P,SW3,1*%
%TO.N,ROW1*%
X24765000Y-30797000D03*
%TO.P,SW3,2*%
%TO.N,K3*%
X31115000Y-28257000D03*
%TD*%
%TO.P,SW17,1*%
%TO.N,ROW4*%
X5715000Y-87947000D03*
%TO.P,SW17,2*%
%TO.N,K17*%
X12065000Y-85407000D03*
%TD*%
D10*
%TO.P,RGB3,1*%
%TO.N,5V*%
X27025000Y-38487000D03*
%TO.P,RGB3,2*%
%TO.N,RGB3_DOUT*%
X30125000Y-38487000D03*
%TO.P,RGB3,3*%
%TO.N,GND*%
X30125000Y-40187000D03*
%TO.P,RGB3,4*%
%TO.N,RGB2_DOUT*%
X27025000Y-40187000D03*
%TD*%
%TO.P,RGB4,1*%
%TO.N,5V*%
X46075000Y-38487000D03*
%TO.P,RGB4,2*%
%TO.N,RGB4_DOUT*%
X49175000Y-38487000D03*
%TO.P,RGB4,3*%
%TO.N,GND*%
X49175000Y-40187000D03*
%TO.P,RGB4,4*%
%TO.N,RGB3_DOUT*%
X46075000Y-40187000D03*
%TD*%
%TO.P,RGB5,1*%
%TO.N,5V*%
X65125000Y-38487000D03*
%TO.P,RGB5,2*%
%TO.N,RGB5_DOUT*%
X68225000Y-38487000D03*
%TO.P,RGB5,3*%
%TO.N,GND*%
X68225000Y-40187000D03*
%TO.P,RGB5,4*%
%TO.N,RGB4_DOUT*%
X65125000Y-40187000D03*
%TD*%
D11*
%TO.P,J201,1*%
%TO.N,3V3*%
X98250000Y25460000D03*
D12*
%TO.P,J201,2*%
%TO.N,GND*%
X98250000Y28000000D03*
%TO.P,J201,3*%
%TO.N,IR_RX*%
X98250000Y30540000D03*
%TD*%
D13*
%TO.P,SW18,1*%
%TO.N,ROW4*%
X24765000Y-87947000D03*
%TO.P,SW18,2*%
%TO.N,K18*%
X31115000Y-85407000D03*
%TD*%
D29*
%TO.P,D401,1*%
%TO.N,BOOST_SW*%
X44850000Y-10000000D03*
%TO.P,D401,2*%
%TO.N,5V*%
X48150000Y-10000000D03*
%TD*%
D30*
%TO.P,U402,1*%
%TO.N,GND*%
X27850000Y-11700000D03*
%TO.P,U402,2*%
%TO.N,3V3*%
X27850000Y-14000000D03*
D31*
X34150000Y-14000000D03*
D30*
%TO.P,U402,3*%
%TO.N,BAT+*%
X27850000Y-16300000D03*
%TD*%
D13*
%TO.P,SW9,1*%
%TO.N,ROW2*%
X43815000Y-49848000D03*
%TO.P,SW9,2*%
%TO.N,K9*%
X50165000Y-47308000D03*
%TD*%
%TO.P,SW8,1*%
%TO.N,ROW2*%
X24765000Y-49848000D03*
%TO.P,SW8,2*%
%TO.N,K8*%
X31115000Y-47308000D03*
%TD*%
D16*
%TO.P,R405,1*%
%TO.N,5V*%
X41175000Y-18000000D03*
%TO.P,R405,2*%
%TO.N,BOOST_FB*%
X42825000Y-18000000D03*
%TD*%
D13*
%TO.P,SW13,1*%
%TO.N,ROW3*%
X24765000Y-68898000D03*
%TO.P,SW13,2*%
%TO.N,K13*%
X31115000Y-66358000D03*
%TD*%
%TO.P,SW6,1*%
%TO.N,ROW1*%
X81915000Y-30797000D03*
%TO.P,SW6,2*%
%TO.N,K6*%
X88265000Y-28257000D03*
%TD*%
D10*
%TO.P,RGB17,1*%
%TO.N,5V*%
X7975000Y-95637000D03*
%TO.P,RGB17,2*%
%TO.N,RGB17_DOUT*%
X11075000Y-95637000D03*
%TO.P,RGB17,3*%
%TO.N,GND*%
X11075000Y-97337000D03*
%TO.P,RGB17,4*%
%TO.N,RGB16_DOUT*%
X7975000Y-97337000D03*
%TD*%
%TO.P,RGB24,1*%
%TO.N,5V*%
X46075000Y-114688000D03*
%TO.P,RGB24,2*%
%TO.N,RGB24_DOUT*%
X49175000Y-114688000D03*
%TO.P,RGB24,3*%
%TO.N,GND*%
X49175000Y-116388000D03*
%TO.P,RGB24,4*%
%TO.N,RGB23_DOUT*%
X46075000Y-116388000D03*
%TD*%
D11*
%TO.P,J401,1*%
%TO.N,BAT+*%
X22250000Y-21810000D03*
D12*
%TO.P,J401,2*%
%TO.N,GND*%
X22250000Y-19270000D03*
%TO.P,J401,3*%
%TO.N,5V*%
X22250000Y-16730000D03*
%TO.P,J401,4*%
%TO.N,3V3*%
X22250000Y-14190000D03*
%TD*%
D10*
%TO.P,RGB12,1*%
%TO.N,5V*%
X7975000Y-76588000D03*
%TO.P,RGB12,2*%
%TO.N,RGB12_DOUT*%
X11075000Y-76588000D03*
%TO.P,RGB12,3*%
%TO.N,GND*%
X11075000Y-78288000D03*
%TO.P,RGB12,4*%
%TO.N,RGB11_DOUT*%
X7975000Y-78288000D03*
%TD*%
%TO.P,RGB10,1*%
%TO.N,5V*%
X65125000Y-57538000D03*
%TO.P,RGB10,2*%
%TO.N,RGB10_DOUT*%
X68225000Y-57538000D03*
%TO.P,RGB10,3*%
%TO.N,GND*%
X68225000Y-59238000D03*
%TO.P,RGB10,4*%
%TO.N,RGB9_DOUT*%
X65125000Y-59238000D03*
%TD*%
%TO.P,RGB19,1*%
%TO.N,5V*%
X46075000Y-95637000D03*
%TO.P,RGB19,2*%
%TO.N,RGB19_DOUT*%
X49175000Y-95637000D03*
%TO.P,RGB19,3*%
%TO.N,GND*%
X49175000Y-97337000D03*
%TO.P,RGB19,4*%
%TO.N,RGB18_DOUT*%
X46075000Y-97337000D03*
%TD*%
D13*
%TO.P,SW4,1*%
%TO.N,ROW1*%
X43815000Y-30797000D03*
%TO.P,SW4,2*%
%TO.N,K4*%
X50165000Y-28257000D03*
%TD*%
%TO.P,SW12,1*%
%TO.N,ROW3*%
X5715000Y-68898000D03*
%TO.P,SW12,2*%
%TO.N,K12*%
X12065000Y-66358000D03*
%TD*%
D10*
%TO.P,RGB20,1*%
%TO.N,5V*%
X65125000Y-95637000D03*
%TO.P,RGB20,2*%
%TO.N,RGB20_DOUT*%
X68225000Y-95637000D03*
%TO.P,RGB20,3*%
%TO.N,GND*%
X68225000Y-97337000D03*
%TO.P,RGB20,4*%
%TO.N,RGB19_DOUT*%
X65125000Y-97337000D03*
%TD*%
D32*
%TO.P,SW401,A*%
%TO.N,ENC_A*%
X5500000Y2500000D03*
D33*
%TO.P,SW401,B*%
%TO.N,ENC_B*%
X10500000Y2500000D03*
%TO.P,SW401,C*%
%TO.N,GND*%
X8000000Y2500000D03*
%TO.P,SW401,S1*%
%TO.N,ENC_SW*%
X5500000Y17500000D03*
%TO.P,SW401,S2*%
%TO.N,GND*%
X10500000Y17500000D03*
%TD*%
D13*
%TO.P,SW20,1*%
%TO.N,ROW4*%
X62865000Y-87947000D03*
%TO.P,SW20,2*%
%TO.N,K20*%
X69215000Y-85407000D03*
%TD*%
D34*
%TO.P,U901,1*%
%TO.N,GND*%
X66500000Y28260000D03*
%TO.P,U901,2*%
%TO.N,3V3*%
X66500000Y26990000D03*
%TO.P,U901,3*%
%TO.N,EN*%
X66500000Y25720000D03*
%TO.P,U901,4*%
%TO.N,ROW0*%
X66500000Y24450000D03*
%TO.P,U901,5*%
%TO.N,ROW1*%
X66500000Y23180000D03*
%TO.P,U901,6*%
%TO.N,ROW2*%
X66500000Y21910000D03*
%TO.P,U901,7*%
%TO.N,ROW3*%
X66500000Y20640000D03*
%TO.P,U901,8*%
%TO.N,N/C*%
X66500000Y19370000D03*
%TO.P,U901,9*%
X66500000Y18100000D03*
%TO.P,U901,10*%
X66500000Y16830000D03*
%TO.P,U901,11*%
X66500000Y15560000D03*
%TO.P,U901,12*%
%TO.N,ROW4*%
X66500000Y14290000D03*
%TO.P,U901,13*%
%TO.N,N/C*%
X66500000Y13020000D03*
%TO.P,U901,14*%
X66500000Y11750000D03*
%TO.P,U901,15*%
X68265000Y10500000D03*
%TO.P,U901,16*%
X69535000Y10500000D03*
%TO.P,U901,17*%
%TO.N,ROW5*%
X70805000Y10500000D03*
%TO.P,U901,18*%
%TO.N,COL0*%
X72075000Y10500000D03*
%TO.P,U901,19*%
%TO.N,COL1*%
X73345000Y10500000D03*
%TO.P,U901,20*%
%TO.N,COL2*%
X74615000Y10500000D03*
%TO.P,U901,21*%
%TO.N,COL3*%
X75885000Y10500000D03*
%TO.P,U901,22*%
%TO.N,COL4*%
X77155000Y10500000D03*
%TO.P,U901,23*%
%TO.N,RGB_DATA*%
X78425000Y10500000D03*
%TO.P,U901,24*%
%TO.N,N/C*%
X79695000Y10500000D03*
%TO.P,U901,25*%
X80965000Y10500000D03*
%TO.P,U901,26*%
X82235000Y10500000D03*
%TO.P,U901,27*%
X84000000Y11750000D03*
%TO.P,U901,28*%
%TO.N,IR_RX*%
X84000000Y13020000D03*
%TO.P,U901,29*%
%TO.N,IR_TX*%
X84000000Y14290000D03*
%TO.P,U901,30*%
%TO.N,ENC_A*%
X84000000Y15560000D03*
%TO.P,U901,31*%
%TO.N,ENC_B*%
X84000000Y16830000D03*
%TO.P,U901,32*%
%TO.N,ENC_SW*%
X84000000Y18100000D03*
%TO.P,U901,33*%
%TO.N,LCD_MOSI*%
X84000000Y19370000D03*
%TO.P,U901,34*%
%TO.N,LCD_SCLK*%
X84000000Y20640000D03*
%TO.P,U901,35*%
%TO.N,HALL_OUT*%
X84000000Y21910000D03*
%TO.P,U901,36*%
%TO.N,LCD_CS*%
X84000000Y23180000D03*
%TO.P,U901,37*%
%TO.N,LCD_DC*%
X84000000Y24450000D03*
%TO.P,U901,38*%
%TO.N,LCD_RST*%
X84000000Y25720000D03*
%TO.P,U901,39*%
%TO.N,LCD_BL*%
X84000000Y26990000D03*
%TO.P,U901,40*%
%TO.N,GND*%
X84000000Y28260000D03*
D35*
%TO.P,U901,41*%
X73750000Y20540000D03*
%TD*%
D21*
%TO.P,R402,1*%
%TO.N,USB_CC1*%
X47675000Y31500000D03*
%TO.P,R402,2*%
%TO.N,GND*%
X49325000Y31500000D03*
%TD*%
D13*
%TO.P,SW2,1*%
%TO.N,ROW1*%
X5715000Y-30797000D03*
%TO.P,SW2,2*%
%TO.N,K2*%
X12065000Y-28257000D03*
%TD*%
D14*
%TO.P,D13,1*%
%TO.N,K13*%
X36075000Y-77938000D03*
D36*
%TO.P,D13,2*%
%TO.N,COL1*%
X28455000Y-77938000D03*
%TD*%
D14*
%TO.P,D14,1*%
%TO.N,K14*%
X55125000Y-77938000D03*
D36*
%TO.P,D14,2*%
%TO.N,COL2*%
X47505000Y-77938000D03*
%TD*%
D14*
%TO.P,D16,1*%
%TO.N,K16*%
X93225000Y-77938000D03*
D36*
%TO.P,D16,2*%
%TO.N,COL4*%
X85605000Y-77938000D03*
%TD*%
D14*
%TO.P,D9,1*%
%TO.N,K9*%
X55125000Y-58888000D03*
D36*
%TO.P,D9,2*%
%TO.N,COL2*%
X47505000Y-58888000D03*
%TD*%
D14*
%TO.P,D1,1*%
%TO.N,K1*%
X17025000Y-16025000D03*
D36*
%TO.P,D1,2*%
%TO.N,COL0*%
X9405000Y-16025000D03*
%TD*%
D14*
%TO.P,D10,1*%
%TO.N,K10*%
X74175000Y-58888000D03*
D36*
%TO.P,D10,2*%
%TO.N,COL3*%
X66555000Y-58888000D03*
%TD*%
D14*
%TO.P,D5,1*%
%TO.N,K5*%
X74175000Y-39837000D03*
D36*
%TO.P,D5,2*%
%TO.N,COL3*%
X66555000Y-39837000D03*
%TD*%
D14*
%TO.P,D4,1*%
%TO.N,K4*%
X55125000Y-39837000D03*
D36*
%TO.P,D4,2*%
%TO.N,COL2*%
X47505000Y-39837000D03*
%TD*%
D14*
%TO.P,D6,1*%
%TO.N,K6*%
X93225000Y-39837000D03*
D36*
%TO.P,D6,2*%
%TO.N,COL4*%
X85605000Y-39837000D03*
%TD*%
D14*
%TO.P,D2,1*%
%TO.N,K2*%
X17025000Y-39837000D03*
D36*
%TO.P,D2,2*%
%TO.N,COL0*%
X9405000Y-39837000D03*
%TD*%
D14*
%TO.P,D23,1*%
%TO.N,K23*%
X36075000Y-116038000D03*
D36*
%TO.P,D23,2*%
%TO.N,COL1*%
X28455000Y-116038000D03*
%TD*%
D14*
%TO.P,D3,1*%
%TO.N,K3*%
X36075000Y-39837000D03*
D36*
%TO.P,D3,2*%
%TO.N,COL1*%
X28455000Y-39837000D03*
%TD*%
D14*
%TO.P,D19,1*%
%TO.N,K19*%
X55125000Y-96987000D03*
D36*
%TO.P,D19,2*%
%TO.N,COL2*%
X47505000Y-96987000D03*
%TD*%
D14*
%TO.P,D24,1*%
%TO.N,K24*%
X55125000Y-116038000D03*
D36*
%TO.P,D24,2*%
%TO.N,COL2*%
X47505000Y-116038000D03*
%TD*%
D14*
%TO.P,D15,1*%
%TO.N,K15*%
X74175000Y-77938000D03*
D36*
%TO.P,D15,2*%
%TO.N,COL3*%
X66555000Y-77938000D03*
%TD*%
D14*
%TO.P,D25,1*%
%TO.N,K25*%
X74175000Y-116038000D03*
D36*
%TO.P,D25,2*%
%TO.N,COL3*%
X66555000Y-116038000D03*
%TD*%
D14*
%TO.P,D18,1*%
%TO.N,K18*%
X36075000Y-96987000D03*
D36*
%TO.P,D18,2*%
%TO.N,COL1*%
X28455000Y-96987000D03*
%TD*%
D14*
%TO.P,D12,1*%
%TO.N,K12*%
X17025000Y-77938000D03*
D36*
%TO.P,D12,2*%
%TO.N,COL0*%
X9405000Y-77938000D03*
%TD*%
D14*
%TO.P,D8,1*%
%TO.N,K8*%
X36075000Y-58888000D03*
D36*
%TO.P,D8,2*%
%TO.N,COL1*%
X28455000Y-58888000D03*
%TD*%
D14*
%TO.P,D21,1*%
%TO.N,K21*%
X93225000Y-96987000D03*
D36*
%TO.P,D21,2*%
%TO.N,COL4*%
X85605000Y-96987000D03*
%TD*%
D14*
%TO.P,D26,1*%
%TO.N,K26*%
X93225000Y-116038000D03*
D36*
%TO.P,D26,2*%
%TO.N,COL4*%
X85605000Y-116038000D03*
%TD*%
D14*
%TO.P,D11,1*%
%TO.N,K11*%
X93225000Y-58888000D03*
D36*
%TO.P,D11,2*%
%TO.N,COL4*%
X85605000Y-58888000D03*
%TD*%
D14*
%TO.P,D7,1*%
%TO.N,K7*%
X17025000Y-58888000D03*
D36*
%TO.P,D7,2*%
%TO.N,COL0*%
X9405000Y-58888000D03*
%TD*%
D14*
%TO.P,D22,1*%
%TO.N,K22*%
X17025000Y-116038000D03*
D36*
%TO.P,D22,2*%
%TO.N,COL0*%
X9405000Y-116038000D03*
%TD*%
D14*
%TO.P,D17,1*%
%TO.N,K17*%
X17025000Y-96987000D03*
D36*
%TO.P,D17,2*%
%TO.N,COL0*%
X9405000Y-96987000D03*
%TD*%
D14*
%TO.P,D20,1*%
%TO.N,K20*%
X74175000Y-96987000D03*
D36*
%TO.P,D20,2*%
%TO.N,COL3*%
X66555000Y-96987000D03*
%TD*%
D37*
%TO.N,COL0*%
X72075000Y12000000D03*
%TO.N,COL1*%
X73345000Y12000000D03*
%TO.N,COL2*%
X74615000Y12000000D03*
%TO.N,COL3*%
X75885000Y12000000D03*
%TO.N,COL4*%
X77155000Y12000000D03*
%TO.N,ENC_A*%
X80250000Y24270000D03*
%TO.N,ENC_B*%
X80250000Y26810000D03*
%TO.N,ENC_SW*%
X80250000Y29350000D03*
%TO.N,3V3*%
X66500000Y26990000D03*
X70250000Y11570000D03*
%TO.N,GND*%
X66500000Y28260000D03*
%TO.N,USB_CC1*%
X18000000Y-31920000D03*
X50625000Y37580000D03*
%TO.N,USB_CC2*%
X12500000Y-31920000D03*
X51625000Y36580000D03*
%TO.N,EN*%
X66500000Y25720000D03*
%TD*%
D38*
%TO.N,ROW0*%
X105250000Y-6985000D02*
X105250000Y-120063000D01*
D39*
X66500000Y24450000D02*
X68250000Y26810000D01*
D38*
X105250000Y-120063000D02*
X68250000Y-120063000D01*
X68250000Y-120063000D02*
X68250000Y26810000D01*
X5715000Y-6985000D02*
X105250000Y-6985000D01*
%TO.N,ROW1*%
X5715000Y-30797000D02*
X24765000Y-30797000D01*
X81915000Y-30797000D02*
X107250000Y-30797000D01*
D39*
X66500000Y23180000D02*
X68250000Y24270000D01*
D38*
X24765000Y-30797000D02*
X43815000Y-30797000D01*
X68250000Y-118063000D02*
X68250000Y24270000D01*
X107250000Y-30797000D02*
X107250000Y-118063000D01*
X107250000Y-118063000D02*
X68250000Y-118063000D01*
X62865000Y-30797000D02*
X81915000Y-30797000D01*
X43815000Y-30797000D02*
X62865000Y-30797000D01*
X68250000Y24270000D02*
X70250000Y24270000D01*
%TO.N,ROW2*%
X62865000Y-49848000D02*
X81915000Y-49848000D01*
X109250000Y-116063000D02*
X68250000Y-116063000D01*
D39*
X66500000Y21910000D02*
X68250000Y21730000D01*
D38*
X81915000Y-49848000D02*
X109250000Y-49848000D01*
X68250000Y-116063000D02*
X68250000Y21730000D01*
X24765000Y-49848000D02*
X43815000Y-49848000D01*
X109250000Y-49848000D02*
X109250000Y-116063000D01*
X5715000Y-49848000D02*
X24765000Y-49848000D01*
X43815000Y-49848000D02*
X62865000Y-49848000D01*
D39*
%TO.N,ROW3*%
X66500000Y20640000D02*
X68250000Y19190000D01*
D38*
X111250000Y-114063000D02*
X68250000Y-114063000D01*
X62865000Y-68897000D02*
X81915000Y-68897000D01*
X5715000Y-68897000D02*
X24765000Y-68897000D01*
X81915000Y-68897000D02*
X111250000Y-68897000D01*
X43815000Y-68897000D02*
X62865000Y-68897000D01*
X68250000Y-114063000D02*
X68250000Y19190000D01*
X24765000Y-68897000D02*
X43815000Y-68897000D01*
X111250000Y-68897000D02*
X111250000Y-114063000D01*
%TO.N,ROW4*%
X113250000Y-112063000D02*
X68250000Y-112063000D01*
X24765000Y-87947000D02*
X43815000Y-87947000D01*
D39*
X66500000Y14290000D02*
X68250000Y16650000D01*
D38*
X113250000Y-87947000D02*
X113250000Y-112063000D01*
X81915000Y-87947000D02*
X113250000Y-87947000D01*
X62865000Y-87947000D02*
X81915000Y-87947000D01*
X68250000Y-112063000D02*
X68250000Y16650000D01*
X5715000Y-87947000D02*
X24765000Y-87947000D01*
X43815000Y-87947000D02*
X62865000Y-87947000D01*
%TO.N,ROW5*%
X115250000Y-110063000D02*
X68250000Y-110063000D01*
D39*
X70805000Y10500000D02*
X68250000Y14110000D01*
D38*
X68250000Y-110063000D02*
X68250000Y14110000D01*
X115250000Y-106998000D02*
X115250000Y-110063000D01*
X24765000Y-106998000D02*
X43815000Y-106998000D01*
X62865000Y-106998000D02*
X81915000Y-106998000D01*
X81915000Y-106998000D02*
X115250000Y-106998000D01*
X43815000Y-106998000D02*
X62865000Y-106998000D01*
X5715000Y-106998000D02*
X24765000Y-106998000D01*
D39*
%TO.N,COL0*%
X72075000Y10500000D02*
X72075000Y12000000D01*
%TO.N,COL1*%
X73345000Y10500000D02*
X73345000Y12000000D01*
%TO.N,COL2*%
X74615000Y10500000D02*
X74615000Y12000000D01*
%TO.N,COL3*%
X75885000Y10500000D02*
X75885000Y12000000D01*
%TO.N,COL4*%
X77155000Y10500000D02*
X77155000Y12000000D01*
D38*
%TO.N,RGB_DATA*%
X78425000Y10500000D02*
X78122500Y3000000D01*
D40*
%TO.N,LED_DIN*%
X2000000Y3000000D02*
X7975000Y-16375000D01*
X79998000Y3000000D02*
X2000000Y3000000D01*
D38*
X79997500Y3000000D02*
X92250000Y3000000D01*
D39*
%TO.N,IR_TX*%
X84000000Y14290000D02*
X80250000Y21730000D01*
D38*
X80250000Y21730000D02*
X92250000Y30540000D01*
D39*
%TO.N,IR_RX*%
X84000000Y13020000D02*
X98250000Y30540000D01*
%TO.N,LCD_MOSI*%
X84000000Y19370000D02*
X95000000Y19270000D01*
%TO.N,LCD_SCLK*%
X84000000Y20640000D02*
X95000000Y21810000D01*
%TO.N,ENC_A*%
X84000000Y15560000D02*
X80250000Y24270000D01*
%TO.N,ENC_B*%
X84000000Y16830000D02*
X80250000Y26810000D01*
%TO.N,ENC_SW*%
X84000000Y18100000D02*
X80250000Y29350000D01*
%TO.N,3V3*%
X66500000Y25720000D02*
X70250000Y11570000D01*
D41*
X27850000Y-14000000D02*
X22250000Y-14190000D01*
X27850000Y-14000000D02*
X34150000Y-14000000D01*
D39*
X66500000Y26990000D02*
X66500000Y25720000D01*
X70250000Y11570000D02*
X95000000Y14190000D01*
D42*
%TO.N,5V*%
X46075000Y-76588000D02*
X65125000Y-76588000D01*
X27025000Y-38487000D02*
X46075000Y-38487000D01*
X27025000Y-76588000D02*
X46075000Y-76588000D01*
D38*
X37137500Y-28950000D02*
X32675000Y-25000000D01*
D42*
X27025000Y-95637000D02*
X46075000Y-95637000D01*
D38*
X22250000Y-16730000D02*
X22250000Y460000D01*
D42*
X84175000Y-38487000D02*
X7975000Y-57538000D01*
D38*
X92250000Y25460000D02*
X80250000Y11570000D01*
X22250000Y460000D02*
X92250000Y460000D01*
D42*
X46075000Y-114688000D02*
X65125000Y-114688000D01*
X7975000Y-14675000D02*
X7975000Y-38487000D01*
X65125000Y-95637000D02*
X84175000Y-95637000D01*
X7975000Y-38487000D02*
X27025000Y-38487000D01*
X84175000Y-76588000D02*
X7975000Y-95637000D01*
X7975000Y-76588000D02*
X27025000Y-76588000D01*
D38*
X48150000Y-10000000D02*
X48175000Y-14000000D01*
D42*
X46075000Y-57538000D02*
X65125000Y-57538000D01*
X46075000Y-38487000D02*
X65125000Y-38487000D01*
D38*
X92250000Y460000D02*
X92250000Y10460000D01*
X52645000Y39080000D02*
X92250000Y25460000D01*
D42*
X65125000Y-76588000D02*
X84175000Y-76588000D01*
X65125000Y-114688000D02*
X84175000Y-114688000D01*
X7975000Y-95637000D02*
X27025000Y-95637000D01*
X-4000000Y460000D02*
X7975000Y-14675000D01*
X84175000Y-95637000D02*
X7975000Y-114688000D01*
D38*
X41175000Y-18000000D02*
X37137500Y-28950000D01*
D42*
X84175000Y-57538000D02*
X7975000Y-76588000D01*
X92250000Y460000D02*
X-4000000Y460000D01*
D38*
X48175000Y-14000000D02*
X41175000Y-18000000D01*
D43*
X52645000Y39080000D02*
X49605000Y39080000D01*
D39*
X92250000Y460000D02*
X99250000Y-5000000D01*
D42*
X65125000Y-57538000D02*
X84175000Y-57538000D01*
X7975000Y-57538000D02*
X27025000Y-57538000D01*
D38*
X13520000Y-31920000D02*
X37137500Y-28950000D01*
D42*
X27025000Y-114688000D02*
X46075000Y-114688000D01*
D39*
X80250000Y11570000D02*
X92250000Y460000D01*
D42*
X7975000Y-114688000D02*
X27025000Y-114688000D01*
X65125000Y-38487000D02*
X84175000Y-38487000D01*
D39*
X80250000Y11570000D02*
X92250000Y10460000D01*
D42*
X46075000Y-95637000D02*
X65125000Y-95637000D01*
D38*
X37137500Y-28950000D02*
X22250000Y-16730000D01*
D42*
X27025000Y-57538000D02*
X46075000Y-57538000D01*
%TO.N,GND*%
X30125000Y-78288000D02*
X49175000Y-78288000D01*
D38*
X34862500Y-28000000D02*
X34325000Y-25000000D01*
D43*
X55445000Y39000000D02*
X53875000Y39080000D01*
D39*
X80250000Y9030000D02*
X92250000Y23000000D01*
X70250000Y9030000D02*
X80250000Y9030000D01*
D38*
X66500000Y28260000D02*
X55445000Y35200000D01*
D43*
X48375000Y39080000D02*
X46805000Y39000000D01*
D42*
X87275000Y-40187000D02*
X11075000Y-59238000D01*
X87275000Y-97337000D02*
X11075000Y-116388000D01*
D43*
X55445000Y35200000D02*
X55445000Y39000000D01*
D38*
X84000000Y28260000D02*
X80250000Y9030000D01*
X98250000Y28000000D02*
X92250000Y28000000D01*
D42*
X68225000Y-59238000D02*
X87275000Y-59238000D01*
D38*
X38825000Y-18000000D02*
X42825000Y-20000000D01*
X10500000Y17500000D02*
X8000000Y2500000D01*
D39*
X92250000Y5540000D02*
X102750000Y-5000000D01*
D38*
X98250000Y28000000D02*
X80250000Y9030000D01*
D42*
X11075000Y-59238000D02*
X30125000Y-59238000D01*
X68225000Y-97337000D02*
X87275000Y-97337000D01*
D38*
X34325000Y-25000000D02*
X31325000Y-25000000D01*
D42*
X11075000Y-97337000D02*
X30125000Y-97337000D01*
X-4500000Y5540000D02*
X11075000Y-16375000D01*
X11075000Y-116388000D02*
X30125000Y-116388000D01*
D38*
X8000000Y2500000D02*
X22250000Y-8270000D01*
D42*
X30125000Y-59238000D02*
X49175000Y-59238000D01*
X87275000Y-59238000D02*
X11075000Y-78288000D01*
D39*
X11500000Y-27175000D02*
X9250000Y-31920000D01*
D38*
X14750000Y-31920000D02*
X22250000Y-19270000D01*
D42*
X49175000Y-78288000D02*
X68225000Y-78288000D01*
X68225000Y-116388000D02*
X87275000Y-116388000D01*
X30125000Y-116388000D02*
X49175000Y-116388000D01*
D39*
X12500000Y-27175000D02*
X14750000Y-31920000D01*
D38*
X22250000Y-8270000D02*
X92250000Y-8270000D01*
X22250000Y-19270000D02*
X22250000Y-8270000D01*
X22250000Y-10540000D02*
X22250000Y-19270000D01*
D42*
X49175000Y-59238000D02*
X68225000Y-59238000D01*
D39*
X40825000Y-27050000D02*
X34862500Y-28000000D01*
D41*
X27850000Y-11700000D02*
X22250000Y-10540000D01*
D42*
X68225000Y-40187000D02*
X87275000Y-40187000D01*
X30125000Y-40187000D02*
X49175000Y-40187000D01*
X49175000Y-40187000D02*
X68225000Y-40187000D01*
D38*
X42825000Y-20000000D02*
X49825000Y-14000000D01*
D42*
X49175000Y-116388000D02*
X68225000Y-116388000D01*
X11075000Y-16375000D02*
X11075000Y-40187000D01*
D38*
X73750000Y20540000D02*
X70250000Y9030000D01*
D43*
X46805000Y39000000D02*
X46805000Y35200000D01*
D42*
X87275000Y-78288000D02*
X11075000Y-97337000D01*
D38*
X38825000Y-18000000D02*
X37862500Y-14000000D01*
X9250000Y-31920000D02*
X14750000Y-31920000D01*
D42*
X11075000Y-40187000D02*
X30125000Y-40187000D01*
D39*
X92250000Y23000000D02*
X92250000Y5540000D01*
D43*
X53875000Y39080000D02*
X48375000Y39080000D01*
D42*
X68225000Y-78288000D02*
X87275000Y-78288000D01*
D38*
X31325000Y-25000000D02*
X22250000Y-19270000D01*
X66500000Y28260000D02*
X73750000Y20540000D01*
X38825000Y-18000000D02*
X34325000Y-25000000D01*
D42*
X49175000Y-97337000D02*
X68225000Y-97337000D01*
D39*
X80250000Y9030000D02*
X92250000Y-8270000D01*
D38*
X7680000Y-32000000D02*
X9250000Y-31920000D01*
D42*
X30125000Y-97337000D02*
X49175000Y-97337000D01*
X92250000Y5540000D02*
X-4500000Y5540000D01*
D38*
X80250000Y9030000D02*
X95000000Y16730000D01*
D42*
X11075000Y-78288000D02*
X30125000Y-78288000D01*
D39*
X80250000Y9030000D02*
X92250000Y13000000D01*
D41*
%TO.N,BAT+*%
X22250000Y-8000000D02*
X27850000Y-16300000D01*
X38000000Y-18000000D02*
X40137500Y-14950000D01*
X40137500Y-14950000D02*
X40137500Y-14000000D01*
D38*
X22250000Y-8000000D02*
X22250000Y-21810000D01*
D41*
X40137500Y-14000000D02*
X42000000Y-14000000D01*
D38*
X29675000Y-25000000D02*
X22250000Y-21810000D01*
D41*
X27850000Y-16300000D02*
X38000000Y-18000000D01*
D38*
X34862500Y-28950000D02*
X29675000Y-25000000D01*
D39*
%TO.N,USB_CC1*%
X11500000Y-31920000D02*
X11500000Y-28825000D01*
X50625000Y39080000D02*
X50625000Y37580000D01*
X18000000Y-31920000D02*
X11500000Y-31920000D01*
%TO.N,USB_CC2*%
X12500000Y-31920000D02*
X12500000Y-28825000D01*
X51625000Y39080000D02*
X51625000Y36580000D01*
%TO.N,CHG_PROG*%
X37137500Y-27050000D02*
X39175000Y-27050000D01*
D38*
%TO.N,BOOST_SW*%
X40137500Y-13050000D02*
X46000000Y-14000000D01*
X37862500Y-13050000D02*
X40137500Y-13050000D01*
X46000000Y-14000000D02*
X44850000Y-10000000D01*
D39*
%TO.N,BOOST_FB*%
X42825000Y-18000000D02*
X41175000Y-20000000D01*
X37862500Y-14950000D02*
X42825000Y-18000000D01*
D40*
%TO.N,RGB1_DOUT*%
X11075000Y-14675000D02*
X7975000Y-40187000D01*
%TO.N,RGB2_DOUT*%
X11075000Y-38487000D02*
X27025000Y-40187000D01*
%TO.N,RGB3_DOUT*%
X30125000Y-38487000D02*
X46075000Y-40187000D01*
%TO.N,RGB4_DOUT*%
X49175000Y-38487000D02*
X65125000Y-40187000D01*
%TO.N,RGB5_DOUT*%
X68225000Y-38487000D02*
X84175000Y-40187000D01*
%TO.N,RGB6_DOUT*%
X87275000Y-38487000D02*
X7975000Y-59238000D01*
%TO.N,RGB7_DOUT*%
X11075000Y-57538000D02*
X27025000Y-59238000D01*
%TO.N,RGB8_DOUT*%
X30125000Y-57538000D02*
X46075000Y-59238000D01*
%TO.N,RGB9_DOUT*%
X49175000Y-57538000D02*
X65125000Y-59238000D01*
%TO.N,RGB10_DOUT*%
X68225000Y-57538000D02*
X84175000Y-59238000D01*
%TO.N,RGB11_DOUT*%
X87275000Y-57538000D02*
X7975000Y-78288000D01*
%TO.N,RGB12_DOUT*%
X11075000Y-76588000D02*
X27025000Y-78288000D01*
%TO.N,RGB13_DOUT*%
X30125000Y-76588000D02*
X46075000Y-78288000D01*
%TO.N,RGB14_DOUT*%
X49175000Y-76588000D02*
X65125000Y-78288000D01*
%TO.N,RGB15_DOUT*%
X68225000Y-76588000D02*
X84175000Y-78288000D01*
%TO.N,RGB16_DOUT*%
X87275000Y-76588000D02*
X7975000Y-97337000D01*
%TO.N,RGB17_DOUT*%
X11075000Y-95637000D02*
X27025000Y-97337000D01*
%TO.N,RGB18_DOUT*%
X30125000Y-95637000D02*
X46075000Y-97337000D01*
%TO.N,RGB19_DOUT*%
X49175000Y-95637000D02*
X65125000Y-97337000D01*
%TO.N,RGB20_DOUT*%
X68225000Y-95637000D02*
X84175000Y-97337000D01*
%TO.N,RGB21_DOUT*%
X87275000Y-95637000D02*
X7975000Y-116388000D01*
%TO.N,RGB22_DOUT*%
X11075000Y-114688000D02*
X27025000Y-116388000D01*
%TO.N,RGB23_DOUT*%
X30125000Y-114688000D02*
X46075000Y-116388000D01*
%TO.N,RGB24_DOUT*%
X49175000Y-114688000D02*
X65125000Y-116388000D01*
%TO.N,RGB25_DOUT*%
X68225000Y-114688000D02*
X84175000Y-116388000D01*
D39*
%TO.N,LCD_CS*%
X84000000Y23180000D02*
X92000000Y23180000D01*
X92000000Y23180000D02*
X101000000Y14190000D01*
%TO.N,LCD_DC*%
X84000000Y24450000D02*
X93000000Y24450000D01*
X93000000Y24450000D02*
X101000000Y16730000D01*
%TO.N,LCD_RST*%
X94000000Y25720000D02*
X101000000Y19270000D01*
X84000000Y25720000D02*
X94000000Y25720000D01*
%TO.N,LCD_BL*%
X95000000Y26990000D02*
X101000000Y21810000D01*
X84000000Y26990000D02*
X95000000Y26990000D01*
D38*
%TO.N,5V*%
X48175000Y-14000000D02*
X59000000Y-18900000D01*
D39*
%TO.N,GND*%
X56725000Y-17950000D02*
X42825000Y-20000000D01*
X49325000Y31500000D02*
X49325000Y39080000D01*
X49325000Y39080000D02*
X48375000Y39080000D01*
X54325000Y31500000D02*
X54325000Y35200000D01*
X54325000Y35200000D02*
X55445000Y35200000D01*
D38*
%TO.N,BAT+*%
X56725000Y-18900000D02*
X42000000Y-14000000D01*
D39*
%TO.N,USB_CC1*%
X50625000Y39080000D02*
X47675000Y39080000D01*
X47675000Y39080000D02*
X47675000Y31500000D01*
%TO.N,USB_CC2*%
X51625000Y39080000D02*
X52675000Y39080000D01*
X52675000Y39080000D02*
X52675000Y31500000D01*
%TO.N,CHG_PROG*%
X37137500Y-27050000D02*
X59000000Y-17000000D01*
%TD*%
D44*
X72075000Y12000000D03*
X73345000Y12000000D03*
X74615000Y12000000D03*
X75885000Y12000000D03*
X77155000Y12000000D03*
X80250000Y24270000D03*
X80250000Y26810000D03*
X80250000Y29350000D03*
X66500000Y26990000D03*
X70250000Y11570000D03*
X66500000Y28260000D03*
X18000000Y-31920000D03*
X50625000Y37580000D03*
X12500000Y-31920000D03*
X51625000Y36580000D03*
X66500000Y25720000D03*
X92250000Y25460000D03*
X92250000Y28000000D03*
X92250000Y30540000D03*
X80645000Y-109538000D03*
X85725000Y-109538000D03*
X90805000Y-109538000D03*
X81915000Y-106998000D03*
X88265000Y-104458000D03*
X42545000Y-71438000D03*
X47625000Y-71438000D03*
X52705000Y-71438000D03*
X43815000Y-68898000D03*
X50165000Y-66358000D03*
X99250000Y-5000000D03*
X102750000Y-5000000D03*
X102250000Y-119000000D03*
X61595000Y-52388000D03*
X66675000Y-52388000D03*
X71755000Y-52388000D03*
X62865000Y-49848000D03*
X69215000Y-47308000D03*
X23495000Y-109538000D03*
X28575000Y-109538000D03*
X33655000Y-109538000D03*
X24765000Y-106998000D03*
X31115000Y-104458000D03*
X80645000Y-90487000D03*
X85725000Y-90487000D03*
X90805000Y-90487000D03*
X81915000Y-87947000D03*
X88265000Y-85407000D03*
X101000000Y14190000D03*
X101000000Y16730000D03*
X101000000Y19270000D03*
X101000000Y21810000D03*
X80645000Y-71438000D03*
X85725000Y-71438000D03*
X90805000Y-71438000D03*
X81915000Y-68898000D03*
X88265000Y-66358000D03*
X92250000Y460000D03*
X92250000Y3000000D03*
X92250000Y5540000D03*
X102250000Y36000000D03*
X80645000Y-52388000D03*
X85725000Y-52388000D03*
X90805000Y-52388000D03*
X81915000Y-49848000D03*
X88265000Y-47308000D03*
X22250000Y-8000000D03*
X22250000Y-10540000D03*
X61595000Y-33337000D03*
X66675000Y-33337000D03*
X71755000Y-33337000D03*
X62865000Y-30797000D03*
X69215000Y-28257000D03*
X42545000Y-109538000D03*
X47625000Y-109538000D03*
X52705000Y-109538000D03*
X43815000Y-106998000D03*
X50165000Y-104458000D03*
X42545000Y-90487000D03*
X47625000Y-90487000D03*
X52705000Y-90487000D03*
X43815000Y-87947000D03*
X50165000Y-85407000D03*
X61595000Y-109538000D03*
X66675000Y-109538000D03*
X71755000Y-109538000D03*
X62865000Y-106998000D03*
X69215000Y-104458000D03*
X4445000Y-52388000D03*
X9525000Y-52388000D03*
X14605000Y-52388000D03*
X5715000Y-49848000D03*
X12065000Y-47308000D03*
X0Y-119000000D03*
X4445000Y-109538000D03*
X9525000Y-109538000D03*
X14605000Y-109538000D03*
X5715000Y-106998000D03*
X12065000Y-104458000D03*
X4445000Y-9525000D03*
X9525000Y-9525000D03*
X14605000Y-9525000D03*
X5715000Y-6985000D03*
X12065000Y-4445000D03*
X0Y36000000D03*
X61595000Y-71438000D03*
X66675000Y-71438000D03*
X71755000Y-71438000D03*
X62865000Y-68898000D03*
X69215000Y-66358000D03*
D45*
X46805000Y39000000D03*
X46805000Y35200000D03*
X55445000Y39000000D03*
X55445000Y35200000D03*
D44*
X95000000Y14190000D03*
X95000000Y16730000D03*
X95000000Y19270000D03*
X95000000Y21810000D03*
X23495000Y-33337000D03*
X28575000Y-33337000D03*
X33655000Y-33337000D03*
X24765000Y-30797000D03*
X31115000Y-28257000D03*
X4445000Y-90487000D03*
X9525000Y-90487000D03*
X14605000Y-90487000D03*
X5715000Y-87947000D03*
X12065000Y-85407000D03*
X98250000Y25460000D03*
X98250000Y28000000D03*
X98250000Y30540000D03*
X23495000Y-90487000D03*
X28575000Y-90487000D03*
X33655000Y-90487000D03*
X24765000Y-87947000D03*
X31115000Y-85407000D03*
X42545000Y-52388000D03*
X47625000Y-52388000D03*
X52705000Y-52388000D03*
X43815000Y-49848000D03*
X50165000Y-47308000D03*
X23495000Y-52388000D03*
X28575000Y-52388000D03*
X33655000Y-52388000D03*
X24765000Y-49848000D03*
X31115000Y-47308000D03*
X23495000Y-71438000D03*
X28575000Y-71438000D03*
X33655000Y-71438000D03*
X24765000Y-68898000D03*
X31115000Y-66358000D03*
X80645000Y-33337000D03*
X85725000Y-33337000D03*
X90805000Y-33337000D03*
X81915000Y-30797000D03*
X88265000Y-28257000D03*
X22250000Y-21810000D03*
X22250000Y-19270000D03*
X22250000Y-16730000D03*
X22250000Y-14190000D03*
X42545000Y-33337000D03*
X47625000Y-33337000D03*
X52705000Y-33337000D03*
X43815000Y-30797000D03*
X50165000Y-28257000D03*
X4445000Y-71438000D03*
X9525000Y-71438000D03*
X14605000Y-71438000D03*
X5715000Y-68898000D03*
X12065000Y-66358000D03*
X5500000Y2500000D03*
X10500000Y2500000D03*
X8000000Y2500000D03*
X5500000Y17500000D03*
X10500000Y17500000D03*
X61595000Y-90487000D03*
X66675000Y-90487000D03*
X71755000Y-90487000D03*
X62865000Y-87947000D03*
X69215000Y-85407000D03*
X4445000Y-33337000D03*
X9525000Y-33337000D03*
X14605000Y-33337000D03*
X5715000Y-30797000D03*
X12065000Y-28257000D03*
X36075000Y-77938000D03*
X28455000Y-77938000D03*
X55125000Y-77938000D03*
X47505000Y-77938000D03*
X93225000Y-77938000D03*
X85605000Y-77938000D03*
X55125000Y-58888000D03*
X47505000Y-58888000D03*
X17025000Y-16025000D03*
X9405000Y-16025000D03*
X74175000Y-58888000D03*
X66555000Y-58888000D03*
X74175000Y-39837000D03*
X66555000Y-39837000D03*
X55125000Y-39837000D03*
X47505000Y-39837000D03*
X93225000Y-39837000D03*
X85605000Y-39837000D03*
X17025000Y-39837000D03*
X9405000Y-39837000D03*
X36075000Y-116038000D03*
X28455000Y-116038000D03*
X36075000Y-39837000D03*
X28455000Y-39837000D03*
X55125000Y-96987000D03*
X47505000Y-96987000D03*
X55125000Y-116038000D03*
X47505000Y-116038000D03*
X74175000Y-77938000D03*
X66555000Y-77938000D03*
X74175000Y-116038000D03*
X66555000Y-116038000D03*
X36075000Y-96987000D03*
X28455000Y-96987000D03*
X17025000Y-77938000D03*
X9405000Y-77938000D03*
X36075000Y-58888000D03*
X28455000Y-58888000D03*
X93225000Y-96987000D03*
X85605000Y-96987000D03*
X93225000Y-116038000D03*
X85605000Y-116038000D03*
X93225000Y-58888000D03*
X85605000Y-58888000D03*
X17025000Y-58888000D03*
X9405000Y-58888000D03*
X17025000Y-116038000D03*
X9405000Y-116038000D03*
X17025000Y-96987000D03*
X9405000Y-96987000D03*
X74175000Y-96987000D03*
X66555000Y-96987000D03*
M02*
