%TF.GenerationSoftware,KiCad,Pcbnew,9.0.7*%
%TF.CreationDate,2026-03-01T07:38:40-05:00*%
%TF.ProjectId,Macropad,4d616372-6f70-4616-942e-6b696361645f,rev?*%
%TF.SameCoordinates,Original*%
%TF.FileFunction,Legend,Top*%
%TF.FilePolarity,Positive*%
%FSLAX46Y46*%
G04 Gerber Fmt 4.6, Leading zero omitted, Abs format (unit mm)*
G04 Created by KiCad (PCBNEW 9.0.7) date 2026-03-01 07:38:40*
%MOMM*%
%LPD*%
G01*
G04 APERTURE LIST*
%ADD10C,0.150000*%
%ADD11C,0.350000*%
%ADD12O,0.600000X1.200000*%
G04 APERTURE END LIST*
D10*
X8358333Y-13079819D02*
X8025000Y-12603628D01*
X7786905Y-13079819D02*
X7786905Y-12079819D01*
X7786905Y-12079819D02*
X8167857Y-12079819D01*
X8167857Y-12079819D02*
X8263095Y-12127438D01*
X8263095Y-12127438D02*
X8310714Y-12175057D01*
X8310714Y-12175057D02*
X8358333Y-12270295D01*
X8358333Y-12270295D02*
X8358333Y-12413152D01*
X8358333Y-12413152D02*
X8310714Y-12508390D01*
X8310714Y-12508390D02*
X8263095Y-12556009D01*
X8263095Y-12556009D02*
X8167857Y-12603628D01*
X8167857Y-12603628D02*
X7786905Y-12603628D01*
X9310714Y-12127438D02*
X9215476Y-12079819D01*
X9215476Y-12079819D02*
X9072619Y-12079819D01*
X9072619Y-12079819D02*
X8929762Y-12127438D01*
X8929762Y-12127438D02*
X8834524Y-12222676D01*
X8834524Y-12222676D02*
X8786905Y-12317914D01*
X8786905Y-12317914D02*
X8739286Y-12508390D01*
X8739286Y-12508390D02*
X8739286Y-12651247D01*
X8739286Y-12651247D02*
X8786905Y-12841723D01*
X8786905Y-12841723D02*
X8834524Y-12936961D01*
X8834524Y-12936961D02*
X8929762Y-13032200D01*
X8929762Y-13032200D02*
X9072619Y-13079819D01*
X9072619Y-13079819D02*
X9167857Y-13079819D01*
X9167857Y-13079819D02*
X9310714Y-13032200D01*
X9310714Y-13032200D02*
X9358333Y-12984580D01*
X9358333Y-12984580D02*
X9358333Y-12651247D01*
X9358333Y-12651247D02*
X9167857Y-12651247D01*
X10120238Y-12556009D02*
X10263095Y-12603628D01*
X10263095Y-12603628D02*
X10310714Y-12651247D01*
X10310714Y-12651247D02*
X10358333Y-12746485D01*
X10358333Y-12746485D02*
X10358333Y-12889342D01*
X10358333Y-12889342D02*
X10310714Y-12984580D01*
X10310714Y-12984580D02*
X10263095Y-13032200D01*
X10263095Y-13032200D02*
X10167857Y-13079819D01*
X10167857Y-13079819D02*
X9786905Y-13079819D01*
X9786905Y-13079819D02*
X9786905Y-12079819D01*
X9786905Y-12079819D02*
X10120238Y-12079819D01*
X10120238Y-12079819D02*
X10215476Y-12127438D01*
X10215476Y-12127438D02*
X10263095Y-12175057D01*
X10263095Y-12175057D02*
X10310714Y-12270295D01*
X10310714Y-12270295D02*
X10310714Y-12365533D01*
X10310714Y-12365533D02*
X10263095Y-12460771D01*
X10263095Y-12460771D02*
X10215476Y-12508390D01*
X10215476Y-12508390D02*
X10120238Y-12556009D01*
X10120238Y-12556009D02*
X9786905Y-12556009D01*
X11310714Y-13079819D02*
X10739286Y-13079819D01*
X11025000Y-13079819D02*
X11025000Y-12079819D01*
X11025000Y-12079819D02*
X10929762Y-12222676D01*
X10929762Y-12222676D02*
X10834524Y-12317914D01*
X10834524Y-12317914D02*
X10739286Y-12365533D01*
X90964285Y31545180D02*
X90964285Y30830895D01*
X90964285Y30830895D02*
X90916666Y30688038D01*
X90916666Y30688038D02*
X90821428Y30592800D01*
X90821428Y30592800D02*
X90678571Y30545180D01*
X90678571Y30545180D02*
X90583333Y30545180D01*
X91392857Y31449942D02*
X91440476Y31497561D01*
X91440476Y31497561D02*
X91535714Y31545180D01*
X91535714Y31545180D02*
X91773809Y31545180D01*
X91773809Y31545180D02*
X91869047Y31497561D01*
X91869047Y31497561D02*
X91916666Y31449942D01*
X91916666Y31449942D02*
X91964285Y31354704D01*
X91964285Y31354704D02*
X91964285Y31259466D01*
X91964285Y31259466D02*
X91916666Y31116609D01*
X91916666Y31116609D02*
X91345238Y30545180D01*
X91345238Y30545180D02*
X91964285Y30545180D01*
X92583333Y31545180D02*
X92678571Y31545180D01*
X92678571Y31545180D02*
X92773809Y31497561D01*
X92773809Y31497561D02*
X92821428Y31449942D01*
X92821428Y31449942D02*
X92869047Y31354704D01*
X92869047Y31354704D02*
X92916666Y31164228D01*
X92916666Y31164228D02*
X92916666Y30926133D01*
X92916666Y30926133D02*
X92869047Y30735657D01*
X92869047Y30735657D02*
X92821428Y30640419D01*
X92821428Y30640419D02*
X92773809Y30592800D01*
X92773809Y30592800D02*
X92678571Y30545180D01*
X92678571Y30545180D02*
X92583333Y30545180D01*
X92583333Y30545180D02*
X92488095Y30592800D01*
X92488095Y30592800D02*
X92440476Y30640419D01*
X92440476Y30640419D02*
X92392857Y30735657D01*
X92392857Y30735657D02*
X92345238Y30926133D01*
X92345238Y30926133D02*
X92345238Y31164228D01*
X92345238Y31164228D02*
X92392857Y31354704D01*
X92392857Y31354704D02*
X92440476Y31449942D01*
X92440476Y31449942D02*
X92488095Y31497561D01*
X92488095Y31497561D02*
X92583333Y31545180D01*
X93297619Y31449942D02*
X93345238Y31497561D01*
X93345238Y31497561D02*
X93440476Y31545180D01*
X93440476Y31545180D02*
X93678571Y31545180D01*
X93678571Y31545180D02*
X93773809Y31497561D01*
X93773809Y31497561D02*
X93821428Y31449942D01*
X93821428Y31449942D02*
X93869047Y31354704D01*
X93869047Y31354704D02*
X93869047Y31259466D01*
X93869047Y31259466D02*
X93821428Y31116609D01*
X93821428Y31116609D02*
X93250000Y30545180D01*
X93250000Y30545180D02*
X93869047Y30545180D01*
X83915476Y-101945200D02*
X84058333Y-101992819D01*
X84058333Y-101992819D02*
X84296428Y-101992819D01*
X84296428Y-101992819D02*
X84391666Y-101945200D01*
X84391666Y-101945200D02*
X84439285Y-101897580D01*
X84439285Y-101897580D02*
X84486904Y-101802342D01*
X84486904Y-101802342D02*
X84486904Y-101707104D01*
X84486904Y-101707104D02*
X84439285Y-101611866D01*
X84439285Y-101611866D02*
X84391666Y-101564247D01*
X84391666Y-101564247D02*
X84296428Y-101516628D01*
X84296428Y-101516628D02*
X84105952Y-101469009D01*
X84105952Y-101469009D02*
X84010714Y-101421390D01*
X84010714Y-101421390D02*
X83963095Y-101373771D01*
X83963095Y-101373771D02*
X83915476Y-101278533D01*
X83915476Y-101278533D02*
X83915476Y-101183295D01*
X83915476Y-101183295D02*
X83963095Y-101088057D01*
X83963095Y-101088057D02*
X84010714Y-101040438D01*
X84010714Y-101040438D02*
X84105952Y-100992819D01*
X84105952Y-100992819D02*
X84344047Y-100992819D01*
X84344047Y-100992819D02*
X84486904Y-101040438D01*
X84820238Y-100992819D02*
X85058333Y-101992819D01*
X85058333Y-101992819D02*
X85248809Y-101278533D01*
X85248809Y-101278533D02*
X85439285Y-101992819D01*
X85439285Y-101992819D02*
X85677381Y-100992819D01*
X86010714Y-101088057D02*
X86058333Y-101040438D01*
X86058333Y-101040438D02*
X86153571Y-100992819D01*
X86153571Y-100992819D02*
X86391666Y-100992819D01*
X86391666Y-100992819D02*
X86486904Y-101040438D01*
X86486904Y-101040438D02*
X86534523Y-101088057D01*
X86534523Y-101088057D02*
X86582142Y-101183295D01*
X86582142Y-101183295D02*
X86582142Y-101278533D01*
X86582142Y-101278533D02*
X86534523Y-101421390D01*
X86534523Y-101421390D02*
X85963095Y-101992819D01*
X85963095Y-101992819D02*
X86582142Y-101992819D01*
X87439285Y-100992819D02*
X87248809Y-100992819D01*
X87248809Y-100992819D02*
X87153571Y-101040438D01*
X87153571Y-101040438D02*
X87105952Y-101088057D01*
X87105952Y-101088057D02*
X87010714Y-101230914D01*
X87010714Y-101230914D02*
X86963095Y-101421390D01*
X86963095Y-101421390D02*
X86963095Y-101802342D01*
X86963095Y-101802342D02*
X87010714Y-101897580D01*
X87010714Y-101897580D02*
X87058333Y-101945200D01*
X87058333Y-101945200D02*
X87153571Y-101992819D01*
X87153571Y-101992819D02*
X87344047Y-101992819D01*
X87344047Y-101992819D02*
X87439285Y-101945200D01*
X87439285Y-101945200D02*
X87486904Y-101897580D01*
X87486904Y-101897580D02*
X87534523Y-101802342D01*
X87534523Y-101802342D02*
X87534523Y-101564247D01*
X87534523Y-101564247D02*
X87486904Y-101469009D01*
X87486904Y-101469009D02*
X87439285Y-101421390D01*
X87439285Y-101421390D02*
X87344047Y-101373771D01*
X87344047Y-101373771D02*
X87153571Y-101373771D01*
X87153571Y-101373771D02*
X87058333Y-101421390D01*
X87058333Y-101421390D02*
X87010714Y-101469009D01*
X87010714Y-101469009D02*
X86963095Y-101564247D01*
X45815476Y-63845200D02*
X45958333Y-63892819D01*
X45958333Y-63892819D02*
X46196428Y-63892819D01*
X46196428Y-63892819D02*
X46291666Y-63845200D01*
X46291666Y-63845200D02*
X46339285Y-63797580D01*
X46339285Y-63797580D02*
X46386904Y-63702342D01*
X46386904Y-63702342D02*
X46386904Y-63607104D01*
X46386904Y-63607104D02*
X46339285Y-63511866D01*
X46339285Y-63511866D02*
X46291666Y-63464247D01*
X46291666Y-63464247D02*
X46196428Y-63416628D01*
X46196428Y-63416628D02*
X46005952Y-63369009D01*
X46005952Y-63369009D02*
X45910714Y-63321390D01*
X45910714Y-63321390D02*
X45863095Y-63273771D01*
X45863095Y-63273771D02*
X45815476Y-63178533D01*
X45815476Y-63178533D02*
X45815476Y-63083295D01*
X45815476Y-63083295D02*
X45863095Y-62988057D01*
X45863095Y-62988057D02*
X45910714Y-62940438D01*
X45910714Y-62940438D02*
X46005952Y-62892819D01*
X46005952Y-62892819D02*
X46244047Y-62892819D01*
X46244047Y-62892819D02*
X46386904Y-62940438D01*
X46720238Y-62892819D02*
X46958333Y-63892819D01*
X46958333Y-63892819D02*
X47148809Y-63178533D01*
X47148809Y-63178533D02*
X47339285Y-63892819D01*
X47339285Y-63892819D02*
X47577381Y-62892819D01*
X48482142Y-63892819D02*
X47910714Y-63892819D01*
X48196428Y-63892819D02*
X48196428Y-62892819D01*
X48196428Y-62892819D02*
X48101190Y-63035676D01*
X48101190Y-63035676D02*
X48005952Y-63130914D01*
X48005952Y-63130914D02*
X47910714Y-63178533D01*
X49339285Y-63226152D02*
X49339285Y-63892819D01*
X49101190Y-62845200D02*
X48863095Y-63559485D01*
X48863095Y-63559485D02*
X49482142Y-63559485D01*
X99880952Y-359580D02*
X99833333Y-407200D01*
X99833333Y-407200D02*
X99690476Y-454819D01*
X99690476Y-454819D02*
X99595238Y-454819D01*
X99595238Y-454819D02*
X99452381Y-407200D01*
X99452381Y-407200D02*
X99357143Y-311961D01*
X99357143Y-311961D02*
X99309524Y-216723D01*
X99309524Y-216723D02*
X99261905Y-26247D01*
X99261905Y-26247D02*
X99261905Y116609D01*
X99261905Y116609D02*
X99309524Y307085D01*
X99309524Y307085D02*
X99357143Y402323D01*
X99357143Y402323D02*
X99452381Y497561D01*
X99452381Y497561D02*
X99595238Y545180D01*
X99595238Y545180D02*
X99690476Y545180D01*
X99690476Y545180D02*
X99833333Y497561D01*
X99833333Y497561D02*
X99880952Y449942D01*
X100738095Y211847D02*
X100738095Y-454819D01*
X100500000Y592800D02*
X100261905Y-121485D01*
X100261905Y-121485D02*
X100880952Y-121485D01*
X101452381Y545180D02*
X101547619Y545180D01*
X101547619Y545180D02*
X101642857Y497561D01*
X101642857Y497561D02*
X101690476Y449942D01*
X101690476Y449942D02*
X101738095Y354704D01*
X101738095Y354704D02*
X101785714Y164228D01*
X101785714Y164228D02*
X101785714Y-73866D01*
X101785714Y-73866D02*
X101738095Y-264342D01*
X101738095Y-264342D02*
X101690476Y-359580D01*
X101690476Y-359580D02*
X101642857Y-407200D01*
X101642857Y-407200D02*
X101547619Y-454819D01*
X101547619Y-454819D02*
X101452381Y-454819D01*
X101452381Y-454819D02*
X101357143Y-407200D01*
X101357143Y-407200D02*
X101309524Y-359580D01*
X101309524Y-359580D02*
X101261905Y-264342D01*
X101261905Y-264342D02*
X101214286Y-73866D01*
X101214286Y-73866D02*
X101214286Y164228D01*
X101214286Y164228D02*
X101261905Y354704D01*
X101261905Y354704D02*
X101309524Y449942D01*
X101309524Y449942D02*
X101357143Y497561D01*
X101357143Y497561D02*
X101452381Y545180D01*
X102738095Y-454819D02*
X102166667Y-454819D01*
X102452381Y-454819D02*
X102452381Y545180D01*
X102452381Y545180D02*
X102357143Y402323D01*
X102357143Y402323D02*
X102261905Y307085D01*
X102261905Y307085D02*
X102166667Y259466D01*
X8358333Y-36891819D02*
X8025000Y-36415628D01*
X7786905Y-36891819D02*
X7786905Y-35891819D01*
X7786905Y-35891819D02*
X8167857Y-35891819D01*
X8167857Y-35891819D02*
X8263095Y-35939438D01*
X8263095Y-35939438D02*
X8310714Y-35987057D01*
X8310714Y-35987057D02*
X8358333Y-36082295D01*
X8358333Y-36082295D02*
X8358333Y-36225152D01*
X8358333Y-36225152D02*
X8310714Y-36320390D01*
X8310714Y-36320390D02*
X8263095Y-36368009D01*
X8263095Y-36368009D02*
X8167857Y-36415628D01*
X8167857Y-36415628D02*
X7786905Y-36415628D01*
X9310714Y-35939438D02*
X9215476Y-35891819D01*
X9215476Y-35891819D02*
X9072619Y-35891819D01*
X9072619Y-35891819D02*
X8929762Y-35939438D01*
X8929762Y-35939438D02*
X8834524Y-36034676D01*
X8834524Y-36034676D02*
X8786905Y-36129914D01*
X8786905Y-36129914D02*
X8739286Y-36320390D01*
X8739286Y-36320390D02*
X8739286Y-36463247D01*
X8739286Y-36463247D02*
X8786905Y-36653723D01*
X8786905Y-36653723D02*
X8834524Y-36748961D01*
X8834524Y-36748961D02*
X8929762Y-36844200D01*
X8929762Y-36844200D02*
X9072619Y-36891819D01*
X9072619Y-36891819D02*
X9167857Y-36891819D01*
X9167857Y-36891819D02*
X9310714Y-36844200D01*
X9310714Y-36844200D02*
X9358333Y-36796580D01*
X9358333Y-36796580D02*
X9358333Y-36463247D01*
X9358333Y-36463247D02*
X9167857Y-36463247D01*
X10120238Y-36368009D02*
X10263095Y-36415628D01*
X10263095Y-36415628D02*
X10310714Y-36463247D01*
X10310714Y-36463247D02*
X10358333Y-36558485D01*
X10358333Y-36558485D02*
X10358333Y-36701342D01*
X10358333Y-36701342D02*
X10310714Y-36796580D01*
X10310714Y-36796580D02*
X10263095Y-36844200D01*
X10263095Y-36844200D02*
X10167857Y-36891819D01*
X10167857Y-36891819D02*
X9786905Y-36891819D01*
X9786905Y-36891819D02*
X9786905Y-35891819D01*
X9786905Y-35891819D02*
X10120238Y-35891819D01*
X10120238Y-35891819D02*
X10215476Y-35939438D01*
X10215476Y-35939438D02*
X10263095Y-35987057D01*
X10263095Y-35987057D02*
X10310714Y-36082295D01*
X10310714Y-36082295D02*
X10310714Y-36177533D01*
X10310714Y-36177533D02*
X10263095Y-36272771D01*
X10263095Y-36272771D02*
X10215476Y-36320390D01*
X10215476Y-36320390D02*
X10120238Y-36368009D01*
X10120238Y-36368009D02*
X9786905Y-36368009D01*
X10739286Y-35987057D02*
X10786905Y-35939438D01*
X10786905Y-35939438D02*
X10882143Y-35891819D01*
X10882143Y-35891819D02*
X11120238Y-35891819D01*
X11120238Y-35891819D02*
X11215476Y-35939438D01*
X11215476Y-35939438D02*
X11263095Y-35987057D01*
X11263095Y-35987057D02*
X11310714Y-36082295D01*
X11310714Y-36082295D02*
X11310714Y-36177533D01*
X11310714Y-36177533D02*
X11263095Y-36320390D01*
X11263095Y-36320390D02*
X10691667Y-36891819D01*
X10691667Y-36891819D02*
X11310714Y-36891819D01*
X84082142Y-113092819D02*
X83748809Y-112616628D01*
X83510714Y-113092819D02*
X83510714Y-112092819D01*
X83510714Y-112092819D02*
X83891666Y-112092819D01*
X83891666Y-112092819D02*
X83986904Y-112140438D01*
X83986904Y-112140438D02*
X84034523Y-112188057D01*
X84034523Y-112188057D02*
X84082142Y-112283295D01*
X84082142Y-112283295D02*
X84082142Y-112426152D01*
X84082142Y-112426152D02*
X84034523Y-112521390D01*
X84034523Y-112521390D02*
X83986904Y-112569009D01*
X83986904Y-112569009D02*
X83891666Y-112616628D01*
X83891666Y-112616628D02*
X83510714Y-112616628D01*
X85034523Y-112140438D02*
X84939285Y-112092819D01*
X84939285Y-112092819D02*
X84796428Y-112092819D01*
X84796428Y-112092819D02*
X84653571Y-112140438D01*
X84653571Y-112140438D02*
X84558333Y-112235676D01*
X84558333Y-112235676D02*
X84510714Y-112330914D01*
X84510714Y-112330914D02*
X84463095Y-112521390D01*
X84463095Y-112521390D02*
X84463095Y-112664247D01*
X84463095Y-112664247D02*
X84510714Y-112854723D01*
X84510714Y-112854723D02*
X84558333Y-112949961D01*
X84558333Y-112949961D02*
X84653571Y-113045200D01*
X84653571Y-113045200D02*
X84796428Y-113092819D01*
X84796428Y-113092819D02*
X84891666Y-113092819D01*
X84891666Y-113092819D02*
X85034523Y-113045200D01*
X85034523Y-113045200D02*
X85082142Y-112997580D01*
X85082142Y-112997580D02*
X85082142Y-112664247D01*
X85082142Y-112664247D02*
X84891666Y-112664247D01*
X85844047Y-112569009D02*
X85986904Y-112616628D01*
X85986904Y-112616628D02*
X86034523Y-112664247D01*
X86034523Y-112664247D02*
X86082142Y-112759485D01*
X86082142Y-112759485D02*
X86082142Y-112902342D01*
X86082142Y-112902342D02*
X86034523Y-112997580D01*
X86034523Y-112997580D02*
X85986904Y-113045200D01*
X85986904Y-113045200D02*
X85891666Y-113092819D01*
X85891666Y-113092819D02*
X85510714Y-113092819D01*
X85510714Y-113092819D02*
X85510714Y-112092819D01*
X85510714Y-112092819D02*
X85844047Y-112092819D01*
X85844047Y-112092819D02*
X85939285Y-112140438D01*
X85939285Y-112140438D02*
X85986904Y-112188057D01*
X85986904Y-112188057D02*
X86034523Y-112283295D01*
X86034523Y-112283295D02*
X86034523Y-112378533D01*
X86034523Y-112378533D02*
X85986904Y-112473771D01*
X85986904Y-112473771D02*
X85939285Y-112521390D01*
X85939285Y-112521390D02*
X85844047Y-112569009D01*
X85844047Y-112569009D02*
X85510714Y-112569009D01*
X86463095Y-112188057D02*
X86510714Y-112140438D01*
X86510714Y-112140438D02*
X86605952Y-112092819D01*
X86605952Y-112092819D02*
X86844047Y-112092819D01*
X86844047Y-112092819D02*
X86939285Y-112140438D01*
X86939285Y-112140438D02*
X86986904Y-112188057D01*
X86986904Y-112188057D02*
X87034523Y-112283295D01*
X87034523Y-112283295D02*
X87034523Y-112378533D01*
X87034523Y-112378533D02*
X86986904Y-112521390D01*
X86986904Y-112521390D02*
X86415476Y-113092819D01*
X86415476Y-113092819D02*
X87034523Y-113092819D01*
X87891666Y-112092819D02*
X87701190Y-112092819D01*
X87701190Y-112092819D02*
X87605952Y-112140438D01*
X87605952Y-112140438D02*
X87558333Y-112188057D01*
X87558333Y-112188057D02*
X87463095Y-112330914D01*
X87463095Y-112330914D02*
X87415476Y-112521390D01*
X87415476Y-112521390D02*
X87415476Y-112902342D01*
X87415476Y-112902342D02*
X87463095Y-112997580D01*
X87463095Y-112997580D02*
X87510714Y-113045200D01*
X87510714Y-113045200D02*
X87605952Y-113092819D01*
X87605952Y-113092819D02*
X87796428Y-113092819D01*
X87796428Y-113092819D02*
X87891666Y-113045200D01*
X87891666Y-113045200D02*
X87939285Y-112997580D01*
X87939285Y-112997580D02*
X87986904Y-112902342D01*
X87986904Y-112902342D02*
X87986904Y-112664247D01*
X87986904Y-112664247D02*
X87939285Y-112569009D01*
X87939285Y-112569009D02*
X87891666Y-112521390D01*
X87891666Y-112521390D02*
X87796428Y-112473771D01*
X87796428Y-112473771D02*
X87605952Y-112473771D01*
X87605952Y-112473771D02*
X87510714Y-112521390D01*
X87510714Y-112521390D02*
X87463095Y-112569009D01*
X87463095Y-112569009D02*
X87415476Y-112664247D01*
X101488095Y-115254819D02*
X101488095Y-114254819D01*
X101488095Y-114731009D02*
X102059523Y-114731009D01*
X102059523Y-115254819D02*
X102059523Y-114254819D01*
X102964285Y-114588152D02*
X102964285Y-115254819D01*
X102726190Y-114207200D02*
X102488095Y-114921485D01*
X102488095Y-114921485D02*
X103107142Y-114921485D01*
X8358333Y-55942819D02*
X8025000Y-55466628D01*
X7786905Y-55942819D02*
X7786905Y-54942819D01*
X7786905Y-54942819D02*
X8167857Y-54942819D01*
X8167857Y-54942819D02*
X8263095Y-54990438D01*
X8263095Y-54990438D02*
X8310714Y-55038057D01*
X8310714Y-55038057D02*
X8358333Y-55133295D01*
X8358333Y-55133295D02*
X8358333Y-55276152D01*
X8358333Y-55276152D02*
X8310714Y-55371390D01*
X8310714Y-55371390D02*
X8263095Y-55419009D01*
X8263095Y-55419009D02*
X8167857Y-55466628D01*
X8167857Y-55466628D02*
X7786905Y-55466628D01*
X9310714Y-54990438D02*
X9215476Y-54942819D01*
X9215476Y-54942819D02*
X9072619Y-54942819D01*
X9072619Y-54942819D02*
X8929762Y-54990438D01*
X8929762Y-54990438D02*
X8834524Y-55085676D01*
X8834524Y-55085676D02*
X8786905Y-55180914D01*
X8786905Y-55180914D02*
X8739286Y-55371390D01*
X8739286Y-55371390D02*
X8739286Y-55514247D01*
X8739286Y-55514247D02*
X8786905Y-55704723D01*
X8786905Y-55704723D02*
X8834524Y-55799961D01*
X8834524Y-55799961D02*
X8929762Y-55895200D01*
X8929762Y-55895200D02*
X9072619Y-55942819D01*
X9072619Y-55942819D02*
X9167857Y-55942819D01*
X9167857Y-55942819D02*
X9310714Y-55895200D01*
X9310714Y-55895200D02*
X9358333Y-55847580D01*
X9358333Y-55847580D02*
X9358333Y-55514247D01*
X9358333Y-55514247D02*
X9167857Y-55514247D01*
X10120238Y-55419009D02*
X10263095Y-55466628D01*
X10263095Y-55466628D02*
X10310714Y-55514247D01*
X10310714Y-55514247D02*
X10358333Y-55609485D01*
X10358333Y-55609485D02*
X10358333Y-55752342D01*
X10358333Y-55752342D02*
X10310714Y-55847580D01*
X10310714Y-55847580D02*
X10263095Y-55895200D01*
X10263095Y-55895200D02*
X10167857Y-55942819D01*
X10167857Y-55942819D02*
X9786905Y-55942819D01*
X9786905Y-55942819D02*
X9786905Y-54942819D01*
X9786905Y-54942819D02*
X10120238Y-54942819D01*
X10120238Y-54942819D02*
X10215476Y-54990438D01*
X10215476Y-54990438D02*
X10263095Y-55038057D01*
X10263095Y-55038057D02*
X10310714Y-55133295D01*
X10310714Y-55133295D02*
X10310714Y-55228533D01*
X10310714Y-55228533D02*
X10263095Y-55323771D01*
X10263095Y-55323771D02*
X10215476Y-55371390D01*
X10215476Y-55371390D02*
X10120238Y-55419009D01*
X10120238Y-55419009D02*
X9786905Y-55419009D01*
X10691667Y-54942819D02*
X11358333Y-54942819D01*
X11358333Y-54942819D02*
X10929762Y-55942819D01*
X7882142Y-113092819D02*
X7548809Y-112616628D01*
X7310714Y-113092819D02*
X7310714Y-112092819D01*
X7310714Y-112092819D02*
X7691666Y-112092819D01*
X7691666Y-112092819D02*
X7786904Y-112140438D01*
X7786904Y-112140438D02*
X7834523Y-112188057D01*
X7834523Y-112188057D02*
X7882142Y-112283295D01*
X7882142Y-112283295D02*
X7882142Y-112426152D01*
X7882142Y-112426152D02*
X7834523Y-112521390D01*
X7834523Y-112521390D02*
X7786904Y-112569009D01*
X7786904Y-112569009D02*
X7691666Y-112616628D01*
X7691666Y-112616628D02*
X7310714Y-112616628D01*
X8834523Y-112140438D02*
X8739285Y-112092819D01*
X8739285Y-112092819D02*
X8596428Y-112092819D01*
X8596428Y-112092819D02*
X8453571Y-112140438D01*
X8453571Y-112140438D02*
X8358333Y-112235676D01*
X8358333Y-112235676D02*
X8310714Y-112330914D01*
X8310714Y-112330914D02*
X8263095Y-112521390D01*
X8263095Y-112521390D02*
X8263095Y-112664247D01*
X8263095Y-112664247D02*
X8310714Y-112854723D01*
X8310714Y-112854723D02*
X8358333Y-112949961D01*
X8358333Y-112949961D02*
X8453571Y-113045200D01*
X8453571Y-113045200D02*
X8596428Y-113092819D01*
X8596428Y-113092819D02*
X8691666Y-113092819D01*
X8691666Y-113092819D02*
X8834523Y-113045200D01*
X8834523Y-113045200D02*
X8882142Y-112997580D01*
X8882142Y-112997580D02*
X8882142Y-112664247D01*
X8882142Y-112664247D02*
X8691666Y-112664247D01*
X9644047Y-112569009D02*
X9786904Y-112616628D01*
X9786904Y-112616628D02*
X9834523Y-112664247D01*
X9834523Y-112664247D02*
X9882142Y-112759485D01*
X9882142Y-112759485D02*
X9882142Y-112902342D01*
X9882142Y-112902342D02*
X9834523Y-112997580D01*
X9834523Y-112997580D02*
X9786904Y-113045200D01*
X9786904Y-113045200D02*
X9691666Y-113092819D01*
X9691666Y-113092819D02*
X9310714Y-113092819D01*
X9310714Y-113092819D02*
X9310714Y-112092819D01*
X9310714Y-112092819D02*
X9644047Y-112092819D01*
X9644047Y-112092819D02*
X9739285Y-112140438D01*
X9739285Y-112140438D02*
X9786904Y-112188057D01*
X9786904Y-112188057D02*
X9834523Y-112283295D01*
X9834523Y-112283295D02*
X9834523Y-112378533D01*
X9834523Y-112378533D02*
X9786904Y-112473771D01*
X9786904Y-112473771D02*
X9739285Y-112521390D01*
X9739285Y-112521390D02*
X9644047Y-112569009D01*
X9644047Y-112569009D02*
X9310714Y-112569009D01*
X10263095Y-112188057D02*
X10310714Y-112140438D01*
X10310714Y-112140438D02*
X10405952Y-112092819D01*
X10405952Y-112092819D02*
X10644047Y-112092819D01*
X10644047Y-112092819D02*
X10739285Y-112140438D01*
X10739285Y-112140438D02*
X10786904Y-112188057D01*
X10786904Y-112188057D02*
X10834523Y-112283295D01*
X10834523Y-112283295D02*
X10834523Y-112378533D01*
X10834523Y-112378533D02*
X10786904Y-112521390D01*
X10786904Y-112521390D02*
X10215476Y-113092819D01*
X10215476Y-113092819D02*
X10834523Y-113092819D01*
X11215476Y-112188057D02*
X11263095Y-112140438D01*
X11263095Y-112140438D02*
X11358333Y-112092819D01*
X11358333Y-112092819D02*
X11596428Y-112092819D01*
X11596428Y-112092819D02*
X11691666Y-112140438D01*
X11691666Y-112140438D02*
X11739285Y-112188057D01*
X11739285Y-112188057D02*
X11786904Y-112283295D01*
X11786904Y-112283295D02*
X11786904Y-112378533D01*
X11786904Y-112378533D02*
X11739285Y-112521390D01*
X11739285Y-112521390D02*
X11167857Y-113092819D01*
X11167857Y-113092819D02*
X11786904Y-113092819D01*
X32380952Y-23259580D02*
X32333333Y-23307200D01*
X32333333Y-23307200D02*
X32190476Y-23354819D01*
X32190476Y-23354819D02*
X32095238Y-23354819D01*
X32095238Y-23354819D02*
X31952381Y-23307200D01*
X31952381Y-23307200D02*
X31857143Y-23211961D01*
X31857143Y-23211961D02*
X31809524Y-23116723D01*
X31809524Y-23116723D02*
X31761905Y-22926247D01*
X31761905Y-22926247D02*
X31761905Y-22783390D01*
X31761905Y-22783390D02*
X31809524Y-22592914D01*
X31809524Y-22592914D02*
X31857143Y-22497676D01*
X31857143Y-22497676D02*
X31952381Y-22402438D01*
X31952381Y-22402438D02*
X32095238Y-22354819D01*
X32095238Y-22354819D02*
X32190476Y-22354819D01*
X32190476Y-22354819D02*
X32333333Y-22402438D01*
X32333333Y-22402438D02*
X32380952Y-22450057D01*
X33238095Y-22688152D02*
X33238095Y-23354819D01*
X33000000Y-22307200D02*
X32761905Y-23021485D01*
X32761905Y-23021485D02*
X33380952Y-23021485D01*
X33952381Y-22354819D02*
X34047619Y-22354819D01*
X34047619Y-22354819D02*
X34142857Y-22402438D01*
X34142857Y-22402438D02*
X34190476Y-22450057D01*
X34190476Y-22450057D02*
X34238095Y-22545295D01*
X34238095Y-22545295D02*
X34285714Y-22735771D01*
X34285714Y-22735771D02*
X34285714Y-22973866D01*
X34285714Y-22973866D02*
X34238095Y-23164342D01*
X34238095Y-23164342D02*
X34190476Y-23259580D01*
X34190476Y-23259580D02*
X34142857Y-23307200D01*
X34142857Y-23307200D02*
X34047619Y-23354819D01*
X34047619Y-23354819D02*
X33952381Y-23354819D01*
X33952381Y-23354819D02*
X33857143Y-23307200D01*
X33857143Y-23307200D02*
X33809524Y-23259580D01*
X33809524Y-23259580D02*
X33761905Y-23164342D01*
X33761905Y-23164342D02*
X33714286Y-22973866D01*
X33714286Y-22973866D02*
X33714286Y-22735771D01*
X33714286Y-22735771D02*
X33761905Y-22545295D01*
X33761905Y-22545295D02*
X33809524Y-22450057D01*
X33809524Y-22450057D02*
X33857143Y-22402438D01*
X33857143Y-22402438D02*
X33952381Y-22354819D01*
X34666667Y-22450057D02*
X34714286Y-22402438D01*
X34714286Y-22402438D02*
X34809524Y-22354819D01*
X34809524Y-22354819D02*
X35047619Y-22354819D01*
X35047619Y-22354819D02*
X35142857Y-22402438D01*
X35142857Y-22402438D02*
X35190476Y-22450057D01*
X35190476Y-22450057D02*
X35238095Y-22545295D01*
X35238095Y-22545295D02*
X35238095Y-22640533D01*
X35238095Y-22640533D02*
X35190476Y-22783390D01*
X35190476Y-22783390D02*
X34619048Y-23354819D01*
X34619048Y-23354819D02*
X35238095Y-23354819D01*
X64865476Y-44795200D02*
X65008333Y-44842819D01*
X65008333Y-44842819D02*
X65246428Y-44842819D01*
X65246428Y-44842819D02*
X65341666Y-44795200D01*
X65341666Y-44795200D02*
X65389285Y-44747580D01*
X65389285Y-44747580D02*
X65436904Y-44652342D01*
X65436904Y-44652342D02*
X65436904Y-44557104D01*
X65436904Y-44557104D02*
X65389285Y-44461866D01*
X65389285Y-44461866D02*
X65341666Y-44414247D01*
X65341666Y-44414247D02*
X65246428Y-44366628D01*
X65246428Y-44366628D02*
X65055952Y-44319009D01*
X65055952Y-44319009D02*
X64960714Y-44271390D01*
X64960714Y-44271390D02*
X64913095Y-44223771D01*
X64913095Y-44223771D02*
X64865476Y-44128533D01*
X64865476Y-44128533D02*
X64865476Y-44033295D01*
X64865476Y-44033295D02*
X64913095Y-43938057D01*
X64913095Y-43938057D02*
X64960714Y-43890438D01*
X64960714Y-43890438D02*
X65055952Y-43842819D01*
X65055952Y-43842819D02*
X65294047Y-43842819D01*
X65294047Y-43842819D02*
X65436904Y-43890438D01*
X65770238Y-43842819D02*
X66008333Y-44842819D01*
X66008333Y-44842819D02*
X66198809Y-44128533D01*
X66198809Y-44128533D02*
X66389285Y-44842819D01*
X66389285Y-44842819D02*
X66627381Y-43842819D01*
X67532142Y-44842819D02*
X66960714Y-44842819D01*
X67246428Y-44842819D02*
X67246428Y-43842819D01*
X67246428Y-43842819D02*
X67151190Y-43985676D01*
X67151190Y-43985676D02*
X67055952Y-44080914D01*
X67055952Y-44080914D02*
X66960714Y-44128533D01*
X68151190Y-43842819D02*
X68246428Y-43842819D01*
X68246428Y-43842819D02*
X68341666Y-43890438D01*
X68341666Y-43890438D02*
X68389285Y-43938057D01*
X68389285Y-43938057D02*
X68436904Y-44033295D01*
X68436904Y-44033295D02*
X68484523Y-44223771D01*
X68484523Y-44223771D02*
X68484523Y-44461866D01*
X68484523Y-44461866D02*
X68436904Y-44652342D01*
X68436904Y-44652342D02*
X68389285Y-44747580D01*
X68389285Y-44747580D02*
X68341666Y-44795200D01*
X68341666Y-44795200D02*
X68246428Y-44842819D01*
X68246428Y-44842819D02*
X68151190Y-44842819D01*
X68151190Y-44842819D02*
X68055952Y-44795200D01*
X68055952Y-44795200D02*
X68008333Y-44747580D01*
X68008333Y-44747580D02*
X67960714Y-44652342D01*
X67960714Y-44652342D02*
X67913095Y-44461866D01*
X67913095Y-44461866D02*
X67913095Y-44223771D01*
X67913095Y-44223771D02*
X67960714Y-44033295D01*
X67960714Y-44033295D02*
X68008333Y-43938057D01*
X68008333Y-43938057D02*
X68055952Y-43890438D01*
X68055952Y-43890438D02*
X68151190Y-43842819D01*
X26765476Y-101945200D02*
X26908333Y-101992819D01*
X26908333Y-101992819D02*
X27146428Y-101992819D01*
X27146428Y-101992819D02*
X27241666Y-101945200D01*
X27241666Y-101945200D02*
X27289285Y-101897580D01*
X27289285Y-101897580D02*
X27336904Y-101802342D01*
X27336904Y-101802342D02*
X27336904Y-101707104D01*
X27336904Y-101707104D02*
X27289285Y-101611866D01*
X27289285Y-101611866D02*
X27241666Y-101564247D01*
X27241666Y-101564247D02*
X27146428Y-101516628D01*
X27146428Y-101516628D02*
X26955952Y-101469009D01*
X26955952Y-101469009D02*
X26860714Y-101421390D01*
X26860714Y-101421390D02*
X26813095Y-101373771D01*
X26813095Y-101373771D02*
X26765476Y-101278533D01*
X26765476Y-101278533D02*
X26765476Y-101183295D01*
X26765476Y-101183295D02*
X26813095Y-101088057D01*
X26813095Y-101088057D02*
X26860714Y-101040438D01*
X26860714Y-101040438D02*
X26955952Y-100992819D01*
X26955952Y-100992819D02*
X27194047Y-100992819D01*
X27194047Y-100992819D02*
X27336904Y-101040438D01*
X27670238Y-100992819D02*
X27908333Y-101992819D01*
X27908333Y-101992819D02*
X28098809Y-101278533D01*
X28098809Y-101278533D02*
X28289285Y-101992819D01*
X28289285Y-101992819D02*
X28527381Y-100992819D01*
X28860714Y-101088057D02*
X28908333Y-101040438D01*
X28908333Y-101040438D02*
X29003571Y-100992819D01*
X29003571Y-100992819D02*
X29241666Y-100992819D01*
X29241666Y-100992819D02*
X29336904Y-101040438D01*
X29336904Y-101040438D02*
X29384523Y-101088057D01*
X29384523Y-101088057D02*
X29432142Y-101183295D01*
X29432142Y-101183295D02*
X29432142Y-101278533D01*
X29432142Y-101278533D02*
X29384523Y-101421390D01*
X29384523Y-101421390D02*
X28813095Y-101992819D01*
X28813095Y-101992819D02*
X29432142Y-101992819D01*
X29765476Y-100992819D02*
X30384523Y-100992819D01*
X30384523Y-100992819D02*
X30051190Y-101373771D01*
X30051190Y-101373771D02*
X30194047Y-101373771D01*
X30194047Y-101373771D02*
X30289285Y-101421390D01*
X30289285Y-101421390D02*
X30336904Y-101469009D01*
X30336904Y-101469009D02*
X30384523Y-101564247D01*
X30384523Y-101564247D02*
X30384523Y-101802342D01*
X30384523Y-101802342D02*
X30336904Y-101897580D01*
X30336904Y-101897580D02*
X30289285Y-101945200D01*
X30289285Y-101945200D02*
X30194047Y-101992819D01*
X30194047Y-101992819D02*
X29908333Y-101992819D01*
X29908333Y-101992819D02*
X29813095Y-101945200D01*
X29813095Y-101945200D02*
X29765476Y-101897580D01*
X84082142Y-94041819D02*
X83748809Y-93565628D01*
X83510714Y-94041819D02*
X83510714Y-93041819D01*
X83510714Y-93041819D02*
X83891666Y-93041819D01*
X83891666Y-93041819D02*
X83986904Y-93089438D01*
X83986904Y-93089438D02*
X84034523Y-93137057D01*
X84034523Y-93137057D02*
X84082142Y-93232295D01*
X84082142Y-93232295D02*
X84082142Y-93375152D01*
X84082142Y-93375152D02*
X84034523Y-93470390D01*
X84034523Y-93470390D02*
X83986904Y-93518009D01*
X83986904Y-93518009D02*
X83891666Y-93565628D01*
X83891666Y-93565628D02*
X83510714Y-93565628D01*
X85034523Y-93089438D02*
X84939285Y-93041819D01*
X84939285Y-93041819D02*
X84796428Y-93041819D01*
X84796428Y-93041819D02*
X84653571Y-93089438D01*
X84653571Y-93089438D02*
X84558333Y-93184676D01*
X84558333Y-93184676D02*
X84510714Y-93279914D01*
X84510714Y-93279914D02*
X84463095Y-93470390D01*
X84463095Y-93470390D02*
X84463095Y-93613247D01*
X84463095Y-93613247D02*
X84510714Y-93803723D01*
X84510714Y-93803723D02*
X84558333Y-93898961D01*
X84558333Y-93898961D02*
X84653571Y-93994200D01*
X84653571Y-93994200D02*
X84796428Y-94041819D01*
X84796428Y-94041819D02*
X84891666Y-94041819D01*
X84891666Y-94041819D02*
X85034523Y-93994200D01*
X85034523Y-93994200D02*
X85082142Y-93946580D01*
X85082142Y-93946580D02*
X85082142Y-93613247D01*
X85082142Y-93613247D02*
X84891666Y-93613247D01*
X85844047Y-93518009D02*
X85986904Y-93565628D01*
X85986904Y-93565628D02*
X86034523Y-93613247D01*
X86034523Y-93613247D02*
X86082142Y-93708485D01*
X86082142Y-93708485D02*
X86082142Y-93851342D01*
X86082142Y-93851342D02*
X86034523Y-93946580D01*
X86034523Y-93946580D02*
X85986904Y-93994200D01*
X85986904Y-93994200D02*
X85891666Y-94041819D01*
X85891666Y-94041819D02*
X85510714Y-94041819D01*
X85510714Y-94041819D02*
X85510714Y-93041819D01*
X85510714Y-93041819D02*
X85844047Y-93041819D01*
X85844047Y-93041819D02*
X85939285Y-93089438D01*
X85939285Y-93089438D02*
X85986904Y-93137057D01*
X85986904Y-93137057D02*
X86034523Y-93232295D01*
X86034523Y-93232295D02*
X86034523Y-93327533D01*
X86034523Y-93327533D02*
X85986904Y-93422771D01*
X85986904Y-93422771D02*
X85939285Y-93470390D01*
X85939285Y-93470390D02*
X85844047Y-93518009D01*
X85844047Y-93518009D02*
X85510714Y-93518009D01*
X86463095Y-93137057D02*
X86510714Y-93089438D01*
X86510714Y-93089438D02*
X86605952Y-93041819D01*
X86605952Y-93041819D02*
X86844047Y-93041819D01*
X86844047Y-93041819D02*
X86939285Y-93089438D01*
X86939285Y-93089438D02*
X86986904Y-93137057D01*
X86986904Y-93137057D02*
X87034523Y-93232295D01*
X87034523Y-93232295D02*
X87034523Y-93327533D01*
X87034523Y-93327533D02*
X86986904Y-93470390D01*
X86986904Y-93470390D02*
X86415476Y-94041819D01*
X86415476Y-94041819D02*
X87034523Y-94041819D01*
X87986904Y-94041819D02*
X87415476Y-94041819D01*
X87701190Y-94041819D02*
X87701190Y-93041819D01*
X87701190Y-93041819D02*
X87605952Y-93184676D01*
X87605952Y-93184676D02*
X87510714Y-93279914D01*
X87510714Y-93279914D02*
X87415476Y-93327533D01*
X65032142Y-74992819D02*
X64698809Y-74516628D01*
X64460714Y-74992819D02*
X64460714Y-73992819D01*
X64460714Y-73992819D02*
X64841666Y-73992819D01*
X64841666Y-73992819D02*
X64936904Y-74040438D01*
X64936904Y-74040438D02*
X64984523Y-74088057D01*
X64984523Y-74088057D02*
X65032142Y-74183295D01*
X65032142Y-74183295D02*
X65032142Y-74326152D01*
X65032142Y-74326152D02*
X64984523Y-74421390D01*
X64984523Y-74421390D02*
X64936904Y-74469009D01*
X64936904Y-74469009D02*
X64841666Y-74516628D01*
X64841666Y-74516628D02*
X64460714Y-74516628D01*
X65984523Y-74040438D02*
X65889285Y-73992819D01*
X65889285Y-73992819D02*
X65746428Y-73992819D01*
X65746428Y-73992819D02*
X65603571Y-74040438D01*
X65603571Y-74040438D02*
X65508333Y-74135676D01*
X65508333Y-74135676D02*
X65460714Y-74230914D01*
X65460714Y-74230914D02*
X65413095Y-74421390D01*
X65413095Y-74421390D02*
X65413095Y-74564247D01*
X65413095Y-74564247D02*
X65460714Y-74754723D01*
X65460714Y-74754723D02*
X65508333Y-74849961D01*
X65508333Y-74849961D02*
X65603571Y-74945200D01*
X65603571Y-74945200D02*
X65746428Y-74992819D01*
X65746428Y-74992819D02*
X65841666Y-74992819D01*
X65841666Y-74992819D02*
X65984523Y-74945200D01*
X65984523Y-74945200D02*
X66032142Y-74897580D01*
X66032142Y-74897580D02*
X66032142Y-74564247D01*
X66032142Y-74564247D02*
X65841666Y-74564247D01*
X66794047Y-74469009D02*
X66936904Y-74516628D01*
X66936904Y-74516628D02*
X66984523Y-74564247D01*
X66984523Y-74564247D02*
X67032142Y-74659485D01*
X67032142Y-74659485D02*
X67032142Y-74802342D01*
X67032142Y-74802342D02*
X66984523Y-74897580D01*
X66984523Y-74897580D02*
X66936904Y-74945200D01*
X66936904Y-74945200D02*
X66841666Y-74992819D01*
X66841666Y-74992819D02*
X66460714Y-74992819D01*
X66460714Y-74992819D02*
X66460714Y-73992819D01*
X66460714Y-73992819D02*
X66794047Y-73992819D01*
X66794047Y-73992819D02*
X66889285Y-74040438D01*
X66889285Y-74040438D02*
X66936904Y-74088057D01*
X66936904Y-74088057D02*
X66984523Y-74183295D01*
X66984523Y-74183295D02*
X66984523Y-74278533D01*
X66984523Y-74278533D02*
X66936904Y-74373771D01*
X66936904Y-74373771D02*
X66889285Y-74421390D01*
X66889285Y-74421390D02*
X66794047Y-74469009D01*
X66794047Y-74469009D02*
X66460714Y-74469009D01*
X67984523Y-74992819D02*
X67413095Y-74992819D01*
X67698809Y-74992819D02*
X67698809Y-73992819D01*
X67698809Y-73992819D02*
X67603571Y-74135676D01*
X67603571Y-74135676D02*
X67508333Y-74230914D01*
X67508333Y-74230914D02*
X67413095Y-74278533D01*
X68889285Y-73992819D02*
X68413095Y-73992819D01*
X68413095Y-73992819D02*
X68365476Y-74469009D01*
X68365476Y-74469009D02*
X68413095Y-74421390D01*
X68413095Y-74421390D02*
X68508333Y-74373771D01*
X68508333Y-74373771D02*
X68746428Y-74373771D01*
X68746428Y-74373771D02*
X68841666Y-74421390D01*
X68841666Y-74421390D02*
X68889285Y-74469009D01*
X68889285Y-74469009D02*
X68936904Y-74564247D01*
X68936904Y-74564247D02*
X68936904Y-74802342D01*
X68936904Y-74802342D02*
X68889285Y-74897580D01*
X68889285Y-74897580D02*
X68841666Y-74945200D01*
X68841666Y-74945200D02*
X68746428Y-74992819D01*
X68746428Y-74992819D02*
X68508333Y-74992819D01*
X68508333Y-74992819D02*
X68413095Y-74945200D01*
X68413095Y-74945200D02*
X68365476Y-74897580D01*
X56148214Y-15004819D02*
X56148214Y-15814342D01*
X56148214Y-15814342D02*
X56195833Y-15909580D01*
X56195833Y-15909580D02*
X56243452Y-15957200D01*
X56243452Y-15957200D02*
X56338690Y-16004819D01*
X56338690Y-16004819D02*
X56529166Y-16004819D01*
X56529166Y-16004819D02*
X56624404Y-15957200D01*
X56624404Y-15957200D02*
X56672023Y-15909580D01*
X56672023Y-15909580D02*
X56719642Y-15814342D01*
X56719642Y-15814342D02*
X56719642Y-15004819D01*
X57624404Y-15338152D02*
X57624404Y-16004819D01*
X57386309Y-14957200D02*
X57148214Y-15671485D01*
X57148214Y-15671485D02*
X57767261Y-15671485D01*
X58338690Y-15004819D02*
X58433928Y-15004819D01*
X58433928Y-15004819D02*
X58529166Y-15052438D01*
X58529166Y-15052438D02*
X58576785Y-15100057D01*
X58576785Y-15100057D02*
X58624404Y-15195295D01*
X58624404Y-15195295D02*
X58672023Y-15385771D01*
X58672023Y-15385771D02*
X58672023Y-15623866D01*
X58672023Y-15623866D02*
X58624404Y-15814342D01*
X58624404Y-15814342D02*
X58576785Y-15909580D01*
X58576785Y-15909580D02*
X58529166Y-15957200D01*
X58529166Y-15957200D02*
X58433928Y-16004819D01*
X58433928Y-16004819D02*
X58338690Y-16004819D01*
X58338690Y-16004819D02*
X58243452Y-15957200D01*
X58243452Y-15957200D02*
X58195833Y-15909580D01*
X58195833Y-15909580D02*
X58148214Y-15814342D01*
X58148214Y-15814342D02*
X58100595Y-15623866D01*
X58100595Y-15623866D02*
X58100595Y-15385771D01*
X58100595Y-15385771D02*
X58148214Y-15195295D01*
X58148214Y-15195295D02*
X58195833Y-15100057D01*
X58195833Y-15100057D02*
X58243452Y-15052438D01*
X58243452Y-15052438D02*
X58338690Y-15004819D01*
X59005357Y-15004819D02*
X59624404Y-15004819D01*
X59624404Y-15004819D02*
X59291071Y-15385771D01*
X59291071Y-15385771D02*
X59433928Y-15385771D01*
X59433928Y-15385771D02*
X59529166Y-15433390D01*
X59529166Y-15433390D02*
X59576785Y-15481009D01*
X59576785Y-15481009D02*
X59624404Y-15576247D01*
X59624404Y-15576247D02*
X59624404Y-15814342D01*
X59624404Y-15814342D02*
X59576785Y-15909580D01*
X59576785Y-15909580D02*
X59529166Y-15957200D01*
X59529166Y-15957200D02*
X59433928Y-16004819D01*
X59433928Y-16004819D02*
X59148214Y-16004819D01*
X59148214Y-16004819D02*
X59052976Y-15957200D01*
X59052976Y-15957200D02*
X59005357Y-15909580D01*
X83915476Y-82894200D02*
X84058333Y-82941819D01*
X84058333Y-82941819D02*
X84296428Y-82941819D01*
X84296428Y-82941819D02*
X84391666Y-82894200D01*
X84391666Y-82894200D02*
X84439285Y-82846580D01*
X84439285Y-82846580D02*
X84486904Y-82751342D01*
X84486904Y-82751342D02*
X84486904Y-82656104D01*
X84486904Y-82656104D02*
X84439285Y-82560866D01*
X84439285Y-82560866D02*
X84391666Y-82513247D01*
X84391666Y-82513247D02*
X84296428Y-82465628D01*
X84296428Y-82465628D02*
X84105952Y-82418009D01*
X84105952Y-82418009D02*
X84010714Y-82370390D01*
X84010714Y-82370390D02*
X83963095Y-82322771D01*
X83963095Y-82322771D02*
X83915476Y-82227533D01*
X83915476Y-82227533D02*
X83915476Y-82132295D01*
X83915476Y-82132295D02*
X83963095Y-82037057D01*
X83963095Y-82037057D02*
X84010714Y-81989438D01*
X84010714Y-81989438D02*
X84105952Y-81941819D01*
X84105952Y-81941819D02*
X84344047Y-81941819D01*
X84344047Y-81941819D02*
X84486904Y-81989438D01*
X84820238Y-81941819D02*
X85058333Y-82941819D01*
X85058333Y-82941819D02*
X85248809Y-82227533D01*
X85248809Y-82227533D02*
X85439285Y-82941819D01*
X85439285Y-82941819D02*
X85677381Y-81941819D01*
X86010714Y-82037057D02*
X86058333Y-81989438D01*
X86058333Y-81989438D02*
X86153571Y-81941819D01*
X86153571Y-81941819D02*
X86391666Y-81941819D01*
X86391666Y-81941819D02*
X86486904Y-81989438D01*
X86486904Y-81989438D02*
X86534523Y-82037057D01*
X86534523Y-82037057D02*
X86582142Y-82132295D01*
X86582142Y-82132295D02*
X86582142Y-82227533D01*
X86582142Y-82227533D02*
X86534523Y-82370390D01*
X86534523Y-82370390D02*
X85963095Y-82941819D01*
X85963095Y-82941819D02*
X86582142Y-82941819D01*
X87534523Y-82941819D02*
X86963095Y-82941819D01*
X87248809Y-82941819D02*
X87248809Y-81941819D01*
X87248809Y-81941819D02*
X87153571Y-82084676D01*
X87153571Y-82084676D02*
X87058333Y-82179914D01*
X87058333Y-82179914D02*
X86963095Y-82227533D01*
X99714285Y21545180D02*
X99714285Y20830895D01*
X99714285Y20830895D02*
X99666666Y20688038D01*
X99666666Y20688038D02*
X99571428Y20592800D01*
X99571428Y20592800D02*
X99428571Y20545180D01*
X99428571Y20545180D02*
X99333333Y20545180D01*
X100095238Y21545180D02*
X100714285Y21545180D01*
X100714285Y21545180D02*
X100380952Y21164228D01*
X100380952Y21164228D02*
X100523809Y21164228D01*
X100523809Y21164228D02*
X100619047Y21116609D01*
X100619047Y21116609D02*
X100666666Y21068990D01*
X100666666Y21068990D02*
X100714285Y20973752D01*
X100714285Y20973752D02*
X100714285Y20735657D01*
X100714285Y20735657D02*
X100666666Y20640419D01*
X100666666Y20640419D02*
X100619047Y20592800D01*
X100619047Y20592800D02*
X100523809Y20545180D01*
X100523809Y20545180D02*
X100238095Y20545180D01*
X100238095Y20545180D02*
X100142857Y20592800D01*
X100142857Y20592800D02*
X100095238Y20640419D01*
X101333333Y21545180D02*
X101428571Y21545180D01*
X101428571Y21545180D02*
X101523809Y21497561D01*
X101523809Y21497561D02*
X101571428Y21449942D01*
X101571428Y21449942D02*
X101619047Y21354704D01*
X101619047Y21354704D02*
X101666666Y21164228D01*
X101666666Y21164228D02*
X101666666Y20926133D01*
X101666666Y20926133D02*
X101619047Y20735657D01*
X101619047Y20735657D02*
X101571428Y20640419D01*
X101571428Y20640419D02*
X101523809Y20592800D01*
X101523809Y20592800D02*
X101428571Y20545180D01*
X101428571Y20545180D02*
X101333333Y20545180D01*
X101333333Y20545180D02*
X101238095Y20592800D01*
X101238095Y20592800D02*
X101190476Y20640419D01*
X101190476Y20640419D02*
X101142857Y20735657D01*
X101142857Y20735657D02*
X101095238Y20926133D01*
X101095238Y20926133D02*
X101095238Y21164228D01*
X101095238Y21164228D02*
X101142857Y21354704D01*
X101142857Y21354704D02*
X101190476Y21449942D01*
X101190476Y21449942D02*
X101238095Y21497561D01*
X101238095Y21497561D02*
X101333333Y21545180D01*
X102000000Y21545180D02*
X102619047Y21545180D01*
X102619047Y21545180D02*
X102285714Y21164228D01*
X102285714Y21164228D02*
X102428571Y21164228D01*
X102428571Y21164228D02*
X102523809Y21116609D01*
X102523809Y21116609D02*
X102571428Y21068990D01*
X102571428Y21068990D02*
X102619047Y20973752D01*
X102619047Y20973752D02*
X102619047Y20735657D01*
X102619047Y20735657D02*
X102571428Y20640419D01*
X102571428Y20640419D02*
X102523809Y20592800D01*
X102523809Y20592800D02*
X102428571Y20545180D01*
X102428571Y20545180D02*
X102142857Y20545180D01*
X102142857Y20545180D02*
X102047619Y20592800D01*
X102047619Y20592800D02*
X102000000Y20640419D01*
X36880952Y-17159580D02*
X36833333Y-17207200D01*
X36833333Y-17207200D02*
X36690476Y-17254819D01*
X36690476Y-17254819D02*
X36595238Y-17254819D01*
X36595238Y-17254819D02*
X36452381Y-17207200D01*
X36452381Y-17207200D02*
X36357143Y-17111961D01*
X36357143Y-17111961D02*
X36309524Y-17016723D01*
X36309524Y-17016723D02*
X36261905Y-16826247D01*
X36261905Y-16826247D02*
X36261905Y-16683390D01*
X36261905Y-16683390D02*
X36309524Y-16492914D01*
X36309524Y-16492914D02*
X36357143Y-16397676D01*
X36357143Y-16397676D02*
X36452381Y-16302438D01*
X36452381Y-16302438D02*
X36595238Y-16254819D01*
X36595238Y-16254819D02*
X36690476Y-16254819D01*
X36690476Y-16254819D02*
X36833333Y-16302438D01*
X36833333Y-16302438D02*
X36880952Y-16350057D01*
X37738095Y-16588152D02*
X37738095Y-17254819D01*
X37500000Y-16207200D02*
X37261905Y-16921485D01*
X37261905Y-16921485D02*
X37880952Y-16921485D01*
X38452381Y-16254819D02*
X38547619Y-16254819D01*
X38547619Y-16254819D02*
X38642857Y-16302438D01*
X38642857Y-16302438D02*
X38690476Y-16350057D01*
X38690476Y-16350057D02*
X38738095Y-16445295D01*
X38738095Y-16445295D02*
X38785714Y-16635771D01*
X38785714Y-16635771D02*
X38785714Y-16873866D01*
X38785714Y-16873866D02*
X38738095Y-17064342D01*
X38738095Y-17064342D02*
X38690476Y-17159580D01*
X38690476Y-17159580D02*
X38642857Y-17207200D01*
X38642857Y-17207200D02*
X38547619Y-17254819D01*
X38547619Y-17254819D02*
X38452381Y-17254819D01*
X38452381Y-17254819D02*
X38357143Y-17207200D01*
X38357143Y-17207200D02*
X38309524Y-17159580D01*
X38309524Y-17159580D02*
X38261905Y-17064342D01*
X38261905Y-17064342D02*
X38214286Y-16873866D01*
X38214286Y-16873866D02*
X38214286Y-16635771D01*
X38214286Y-16635771D02*
X38261905Y-16445295D01*
X38261905Y-16445295D02*
X38309524Y-16350057D01*
X38309524Y-16350057D02*
X38357143Y-16302438D01*
X38357143Y-16302438D02*
X38452381Y-16254819D01*
X39642857Y-16588152D02*
X39642857Y-17254819D01*
X39404762Y-16207200D02*
X39166667Y-16921485D01*
X39166667Y-16921485D02*
X39785714Y-16921485D01*
X83915476Y-63845200D02*
X84058333Y-63892819D01*
X84058333Y-63892819D02*
X84296428Y-63892819D01*
X84296428Y-63892819D02*
X84391666Y-63845200D01*
X84391666Y-63845200D02*
X84439285Y-63797580D01*
X84439285Y-63797580D02*
X84486904Y-63702342D01*
X84486904Y-63702342D02*
X84486904Y-63607104D01*
X84486904Y-63607104D02*
X84439285Y-63511866D01*
X84439285Y-63511866D02*
X84391666Y-63464247D01*
X84391666Y-63464247D02*
X84296428Y-63416628D01*
X84296428Y-63416628D02*
X84105952Y-63369009D01*
X84105952Y-63369009D02*
X84010714Y-63321390D01*
X84010714Y-63321390D02*
X83963095Y-63273771D01*
X83963095Y-63273771D02*
X83915476Y-63178533D01*
X83915476Y-63178533D02*
X83915476Y-63083295D01*
X83915476Y-63083295D02*
X83963095Y-62988057D01*
X83963095Y-62988057D02*
X84010714Y-62940438D01*
X84010714Y-62940438D02*
X84105952Y-62892819D01*
X84105952Y-62892819D02*
X84344047Y-62892819D01*
X84344047Y-62892819D02*
X84486904Y-62940438D01*
X84820238Y-62892819D02*
X85058333Y-63892819D01*
X85058333Y-63892819D02*
X85248809Y-63178533D01*
X85248809Y-63178533D02*
X85439285Y-63892819D01*
X85439285Y-63892819D02*
X85677381Y-62892819D01*
X86582142Y-63892819D02*
X86010714Y-63892819D01*
X86296428Y-63892819D02*
X86296428Y-62892819D01*
X86296428Y-62892819D02*
X86201190Y-63035676D01*
X86201190Y-63035676D02*
X86105952Y-63130914D01*
X86105952Y-63130914D02*
X86010714Y-63178533D01*
X87439285Y-62892819D02*
X87248809Y-62892819D01*
X87248809Y-62892819D02*
X87153571Y-62940438D01*
X87153571Y-62940438D02*
X87105952Y-62988057D01*
X87105952Y-62988057D02*
X87010714Y-63130914D01*
X87010714Y-63130914D02*
X86963095Y-63321390D01*
X86963095Y-63321390D02*
X86963095Y-63702342D01*
X86963095Y-63702342D02*
X87010714Y-63797580D01*
X87010714Y-63797580D02*
X87058333Y-63845200D01*
X87058333Y-63845200D02*
X87153571Y-63892819D01*
X87153571Y-63892819D02*
X87344047Y-63892819D01*
X87344047Y-63892819D02*
X87439285Y-63845200D01*
X87439285Y-63845200D02*
X87486904Y-63797580D01*
X87486904Y-63797580D02*
X87534523Y-63702342D01*
X87534523Y-63702342D02*
X87534523Y-63464247D01*
X87534523Y-63464247D02*
X87486904Y-63369009D01*
X87486904Y-63369009D02*
X87439285Y-63321390D01*
X87439285Y-63321390D02*
X87344047Y-63273771D01*
X87344047Y-63273771D02*
X87153571Y-63273771D01*
X87153571Y-63273771D02*
X87058333Y-63321390D01*
X87058333Y-63321390D02*
X87010714Y-63369009D01*
X87010714Y-63369009D02*
X86963095Y-63464247D01*
X26932142Y-113092819D02*
X26598809Y-112616628D01*
X26360714Y-113092819D02*
X26360714Y-112092819D01*
X26360714Y-112092819D02*
X26741666Y-112092819D01*
X26741666Y-112092819D02*
X26836904Y-112140438D01*
X26836904Y-112140438D02*
X26884523Y-112188057D01*
X26884523Y-112188057D02*
X26932142Y-112283295D01*
X26932142Y-112283295D02*
X26932142Y-112426152D01*
X26932142Y-112426152D02*
X26884523Y-112521390D01*
X26884523Y-112521390D02*
X26836904Y-112569009D01*
X26836904Y-112569009D02*
X26741666Y-112616628D01*
X26741666Y-112616628D02*
X26360714Y-112616628D01*
X27884523Y-112140438D02*
X27789285Y-112092819D01*
X27789285Y-112092819D02*
X27646428Y-112092819D01*
X27646428Y-112092819D02*
X27503571Y-112140438D01*
X27503571Y-112140438D02*
X27408333Y-112235676D01*
X27408333Y-112235676D02*
X27360714Y-112330914D01*
X27360714Y-112330914D02*
X27313095Y-112521390D01*
X27313095Y-112521390D02*
X27313095Y-112664247D01*
X27313095Y-112664247D02*
X27360714Y-112854723D01*
X27360714Y-112854723D02*
X27408333Y-112949961D01*
X27408333Y-112949961D02*
X27503571Y-113045200D01*
X27503571Y-113045200D02*
X27646428Y-113092819D01*
X27646428Y-113092819D02*
X27741666Y-113092819D01*
X27741666Y-113092819D02*
X27884523Y-113045200D01*
X27884523Y-113045200D02*
X27932142Y-112997580D01*
X27932142Y-112997580D02*
X27932142Y-112664247D01*
X27932142Y-112664247D02*
X27741666Y-112664247D01*
X28694047Y-112569009D02*
X28836904Y-112616628D01*
X28836904Y-112616628D02*
X28884523Y-112664247D01*
X28884523Y-112664247D02*
X28932142Y-112759485D01*
X28932142Y-112759485D02*
X28932142Y-112902342D01*
X28932142Y-112902342D02*
X28884523Y-112997580D01*
X28884523Y-112997580D02*
X28836904Y-113045200D01*
X28836904Y-113045200D02*
X28741666Y-113092819D01*
X28741666Y-113092819D02*
X28360714Y-113092819D01*
X28360714Y-113092819D02*
X28360714Y-112092819D01*
X28360714Y-112092819D02*
X28694047Y-112092819D01*
X28694047Y-112092819D02*
X28789285Y-112140438D01*
X28789285Y-112140438D02*
X28836904Y-112188057D01*
X28836904Y-112188057D02*
X28884523Y-112283295D01*
X28884523Y-112283295D02*
X28884523Y-112378533D01*
X28884523Y-112378533D02*
X28836904Y-112473771D01*
X28836904Y-112473771D02*
X28789285Y-112521390D01*
X28789285Y-112521390D02*
X28694047Y-112569009D01*
X28694047Y-112569009D02*
X28360714Y-112569009D01*
X29313095Y-112188057D02*
X29360714Y-112140438D01*
X29360714Y-112140438D02*
X29455952Y-112092819D01*
X29455952Y-112092819D02*
X29694047Y-112092819D01*
X29694047Y-112092819D02*
X29789285Y-112140438D01*
X29789285Y-112140438D02*
X29836904Y-112188057D01*
X29836904Y-112188057D02*
X29884523Y-112283295D01*
X29884523Y-112283295D02*
X29884523Y-112378533D01*
X29884523Y-112378533D02*
X29836904Y-112521390D01*
X29836904Y-112521390D02*
X29265476Y-113092819D01*
X29265476Y-113092819D02*
X29884523Y-113092819D01*
X30217857Y-112092819D02*
X30836904Y-112092819D01*
X30836904Y-112092819D02*
X30503571Y-112473771D01*
X30503571Y-112473771D02*
X30646428Y-112473771D01*
X30646428Y-112473771D02*
X30741666Y-112521390D01*
X30741666Y-112521390D02*
X30789285Y-112569009D01*
X30789285Y-112569009D02*
X30836904Y-112664247D01*
X30836904Y-112664247D02*
X30836904Y-112902342D01*
X30836904Y-112902342D02*
X30789285Y-112997580D01*
X30789285Y-112997580D02*
X30741666Y-113045200D01*
X30741666Y-113045200D02*
X30646428Y-113092819D01*
X30646428Y-113092819D02*
X30360714Y-113092819D01*
X30360714Y-113092819D02*
X30265476Y-113045200D01*
X30265476Y-113045200D02*
X30217857Y-112997580D01*
X90964285Y6545180D02*
X90964285Y5830895D01*
X90964285Y5830895D02*
X90916666Y5688038D01*
X90916666Y5688038D02*
X90821428Y5592800D01*
X90821428Y5592800D02*
X90678571Y5545180D01*
X90678571Y5545180D02*
X90583333Y5545180D01*
X91345238Y6545180D02*
X91964285Y6545180D01*
X91964285Y6545180D02*
X91630952Y6164228D01*
X91630952Y6164228D02*
X91773809Y6164228D01*
X91773809Y6164228D02*
X91869047Y6116609D01*
X91869047Y6116609D02*
X91916666Y6068990D01*
X91916666Y6068990D02*
X91964285Y5973752D01*
X91964285Y5973752D02*
X91964285Y5735657D01*
X91964285Y5735657D02*
X91916666Y5640419D01*
X91916666Y5640419D02*
X91869047Y5592800D01*
X91869047Y5592800D02*
X91773809Y5545180D01*
X91773809Y5545180D02*
X91488095Y5545180D01*
X91488095Y5545180D02*
X91392857Y5592800D01*
X91392857Y5592800D02*
X91345238Y5640419D01*
X92583333Y6545180D02*
X92678571Y6545180D01*
X92678571Y6545180D02*
X92773809Y6497561D01*
X92773809Y6497561D02*
X92821428Y6449942D01*
X92821428Y6449942D02*
X92869047Y6354704D01*
X92869047Y6354704D02*
X92916666Y6164228D01*
X92916666Y6164228D02*
X92916666Y5926133D01*
X92916666Y5926133D02*
X92869047Y5735657D01*
X92869047Y5735657D02*
X92821428Y5640419D01*
X92821428Y5640419D02*
X92773809Y5592800D01*
X92773809Y5592800D02*
X92678571Y5545180D01*
X92678571Y5545180D02*
X92583333Y5545180D01*
X92583333Y5545180D02*
X92488095Y5592800D01*
X92488095Y5592800D02*
X92440476Y5640419D01*
X92440476Y5640419D02*
X92392857Y5735657D01*
X92392857Y5735657D02*
X92345238Y5926133D01*
X92345238Y5926133D02*
X92345238Y6164228D01*
X92345238Y6164228D02*
X92392857Y6354704D01*
X92392857Y6354704D02*
X92440476Y6449942D01*
X92440476Y6449942D02*
X92488095Y6497561D01*
X92488095Y6497561D02*
X92583333Y6545180D01*
X93869047Y5545180D02*
X93297619Y5545180D01*
X93583333Y5545180D02*
X93583333Y6545180D01*
X93583333Y6545180D02*
X93488095Y6402323D01*
X93488095Y6402323D02*
X93392857Y6307085D01*
X93392857Y6307085D02*
X93297619Y6259466D01*
X84082142Y-74992819D02*
X83748809Y-74516628D01*
X83510714Y-74992819D02*
X83510714Y-73992819D01*
X83510714Y-73992819D02*
X83891666Y-73992819D01*
X83891666Y-73992819D02*
X83986904Y-74040438D01*
X83986904Y-74040438D02*
X84034523Y-74088057D01*
X84034523Y-74088057D02*
X84082142Y-74183295D01*
X84082142Y-74183295D02*
X84082142Y-74326152D01*
X84082142Y-74326152D02*
X84034523Y-74421390D01*
X84034523Y-74421390D02*
X83986904Y-74469009D01*
X83986904Y-74469009D02*
X83891666Y-74516628D01*
X83891666Y-74516628D02*
X83510714Y-74516628D01*
X85034523Y-74040438D02*
X84939285Y-73992819D01*
X84939285Y-73992819D02*
X84796428Y-73992819D01*
X84796428Y-73992819D02*
X84653571Y-74040438D01*
X84653571Y-74040438D02*
X84558333Y-74135676D01*
X84558333Y-74135676D02*
X84510714Y-74230914D01*
X84510714Y-74230914D02*
X84463095Y-74421390D01*
X84463095Y-74421390D02*
X84463095Y-74564247D01*
X84463095Y-74564247D02*
X84510714Y-74754723D01*
X84510714Y-74754723D02*
X84558333Y-74849961D01*
X84558333Y-74849961D02*
X84653571Y-74945200D01*
X84653571Y-74945200D02*
X84796428Y-74992819D01*
X84796428Y-74992819D02*
X84891666Y-74992819D01*
X84891666Y-74992819D02*
X85034523Y-74945200D01*
X85034523Y-74945200D02*
X85082142Y-74897580D01*
X85082142Y-74897580D02*
X85082142Y-74564247D01*
X85082142Y-74564247D02*
X84891666Y-74564247D01*
X85844047Y-74469009D02*
X85986904Y-74516628D01*
X85986904Y-74516628D02*
X86034523Y-74564247D01*
X86034523Y-74564247D02*
X86082142Y-74659485D01*
X86082142Y-74659485D02*
X86082142Y-74802342D01*
X86082142Y-74802342D02*
X86034523Y-74897580D01*
X86034523Y-74897580D02*
X85986904Y-74945200D01*
X85986904Y-74945200D02*
X85891666Y-74992819D01*
X85891666Y-74992819D02*
X85510714Y-74992819D01*
X85510714Y-74992819D02*
X85510714Y-73992819D01*
X85510714Y-73992819D02*
X85844047Y-73992819D01*
X85844047Y-73992819D02*
X85939285Y-74040438D01*
X85939285Y-74040438D02*
X85986904Y-74088057D01*
X85986904Y-74088057D02*
X86034523Y-74183295D01*
X86034523Y-74183295D02*
X86034523Y-74278533D01*
X86034523Y-74278533D02*
X85986904Y-74373771D01*
X85986904Y-74373771D02*
X85939285Y-74421390D01*
X85939285Y-74421390D02*
X85844047Y-74469009D01*
X85844047Y-74469009D02*
X85510714Y-74469009D01*
X87034523Y-74992819D02*
X86463095Y-74992819D01*
X86748809Y-74992819D02*
X86748809Y-73992819D01*
X86748809Y-73992819D02*
X86653571Y-74135676D01*
X86653571Y-74135676D02*
X86558333Y-74230914D01*
X86558333Y-74230914D02*
X86463095Y-74278533D01*
X87891666Y-73992819D02*
X87701190Y-73992819D01*
X87701190Y-73992819D02*
X87605952Y-74040438D01*
X87605952Y-74040438D02*
X87558333Y-74088057D01*
X87558333Y-74088057D02*
X87463095Y-74230914D01*
X87463095Y-74230914D02*
X87415476Y-74421390D01*
X87415476Y-74421390D02*
X87415476Y-74802342D01*
X87415476Y-74802342D02*
X87463095Y-74897580D01*
X87463095Y-74897580D02*
X87510714Y-74945200D01*
X87510714Y-74945200D02*
X87605952Y-74992819D01*
X87605952Y-74992819D02*
X87796428Y-74992819D01*
X87796428Y-74992819D02*
X87891666Y-74945200D01*
X87891666Y-74945200D02*
X87939285Y-74897580D01*
X87939285Y-74897580D02*
X87986904Y-74802342D01*
X87986904Y-74802342D02*
X87986904Y-74564247D01*
X87986904Y-74564247D02*
X87939285Y-74469009D01*
X87939285Y-74469009D02*
X87891666Y-74421390D01*
X87891666Y-74421390D02*
X87796428Y-74373771D01*
X87796428Y-74373771D02*
X87605952Y-74373771D01*
X87605952Y-74373771D02*
X87510714Y-74421390D01*
X87510714Y-74421390D02*
X87463095Y-74469009D01*
X87463095Y-74469009D02*
X87415476Y-74564247D01*
X38880952Y-26304819D02*
X38547619Y-25828628D01*
X38309524Y-26304819D02*
X38309524Y-25304819D01*
X38309524Y-25304819D02*
X38690476Y-25304819D01*
X38690476Y-25304819D02*
X38785714Y-25352438D01*
X38785714Y-25352438D02*
X38833333Y-25400057D01*
X38833333Y-25400057D02*
X38880952Y-25495295D01*
X38880952Y-25495295D02*
X38880952Y-25638152D01*
X38880952Y-25638152D02*
X38833333Y-25733390D01*
X38833333Y-25733390D02*
X38785714Y-25781009D01*
X38785714Y-25781009D02*
X38690476Y-25828628D01*
X38690476Y-25828628D02*
X38309524Y-25828628D01*
X39738095Y-25638152D02*
X39738095Y-26304819D01*
X39500000Y-25257200D02*
X39261905Y-25971485D01*
X39261905Y-25971485D02*
X39880952Y-25971485D01*
X40452381Y-25304819D02*
X40547619Y-25304819D01*
X40547619Y-25304819D02*
X40642857Y-25352438D01*
X40642857Y-25352438D02*
X40690476Y-25400057D01*
X40690476Y-25400057D02*
X40738095Y-25495295D01*
X40738095Y-25495295D02*
X40785714Y-25685771D01*
X40785714Y-25685771D02*
X40785714Y-25923866D01*
X40785714Y-25923866D02*
X40738095Y-26114342D01*
X40738095Y-26114342D02*
X40690476Y-26209580D01*
X40690476Y-26209580D02*
X40642857Y-26257200D01*
X40642857Y-26257200D02*
X40547619Y-26304819D01*
X40547619Y-26304819D02*
X40452381Y-26304819D01*
X40452381Y-26304819D02*
X40357143Y-26257200D01*
X40357143Y-26257200D02*
X40309524Y-26209580D01*
X40309524Y-26209580D02*
X40261905Y-26114342D01*
X40261905Y-26114342D02*
X40214286Y-25923866D01*
X40214286Y-25923866D02*
X40214286Y-25685771D01*
X40214286Y-25685771D02*
X40261905Y-25495295D01*
X40261905Y-25495295D02*
X40309524Y-25400057D01*
X40309524Y-25400057D02*
X40357143Y-25352438D01*
X40357143Y-25352438D02*
X40452381Y-25304819D01*
X41642857Y-25638152D02*
X41642857Y-26304819D01*
X41404762Y-25257200D02*
X41166667Y-25971485D01*
X41166667Y-25971485D02*
X41785714Y-25971485D01*
X27408333Y-55942819D02*
X27075000Y-55466628D01*
X26836905Y-55942819D02*
X26836905Y-54942819D01*
X26836905Y-54942819D02*
X27217857Y-54942819D01*
X27217857Y-54942819D02*
X27313095Y-54990438D01*
X27313095Y-54990438D02*
X27360714Y-55038057D01*
X27360714Y-55038057D02*
X27408333Y-55133295D01*
X27408333Y-55133295D02*
X27408333Y-55276152D01*
X27408333Y-55276152D02*
X27360714Y-55371390D01*
X27360714Y-55371390D02*
X27313095Y-55419009D01*
X27313095Y-55419009D02*
X27217857Y-55466628D01*
X27217857Y-55466628D02*
X26836905Y-55466628D01*
X28360714Y-54990438D02*
X28265476Y-54942819D01*
X28265476Y-54942819D02*
X28122619Y-54942819D01*
X28122619Y-54942819D02*
X27979762Y-54990438D01*
X27979762Y-54990438D02*
X27884524Y-55085676D01*
X27884524Y-55085676D02*
X27836905Y-55180914D01*
X27836905Y-55180914D02*
X27789286Y-55371390D01*
X27789286Y-55371390D02*
X27789286Y-55514247D01*
X27789286Y-55514247D02*
X27836905Y-55704723D01*
X27836905Y-55704723D02*
X27884524Y-55799961D01*
X27884524Y-55799961D02*
X27979762Y-55895200D01*
X27979762Y-55895200D02*
X28122619Y-55942819D01*
X28122619Y-55942819D02*
X28217857Y-55942819D01*
X28217857Y-55942819D02*
X28360714Y-55895200D01*
X28360714Y-55895200D02*
X28408333Y-55847580D01*
X28408333Y-55847580D02*
X28408333Y-55514247D01*
X28408333Y-55514247D02*
X28217857Y-55514247D01*
X29170238Y-55419009D02*
X29313095Y-55466628D01*
X29313095Y-55466628D02*
X29360714Y-55514247D01*
X29360714Y-55514247D02*
X29408333Y-55609485D01*
X29408333Y-55609485D02*
X29408333Y-55752342D01*
X29408333Y-55752342D02*
X29360714Y-55847580D01*
X29360714Y-55847580D02*
X29313095Y-55895200D01*
X29313095Y-55895200D02*
X29217857Y-55942819D01*
X29217857Y-55942819D02*
X28836905Y-55942819D01*
X28836905Y-55942819D02*
X28836905Y-54942819D01*
X28836905Y-54942819D02*
X29170238Y-54942819D01*
X29170238Y-54942819D02*
X29265476Y-54990438D01*
X29265476Y-54990438D02*
X29313095Y-55038057D01*
X29313095Y-55038057D02*
X29360714Y-55133295D01*
X29360714Y-55133295D02*
X29360714Y-55228533D01*
X29360714Y-55228533D02*
X29313095Y-55323771D01*
X29313095Y-55323771D02*
X29265476Y-55371390D01*
X29265476Y-55371390D02*
X29170238Y-55419009D01*
X29170238Y-55419009D02*
X28836905Y-55419009D01*
X29979762Y-55371390D02*
X29884524Y-55323771D01*
X29884524Y-55323771D02*
X29836905Y-55276152D01*
X29836905Y-55276152D02*
X29789286Y-55180914D01*
X29789286Y-55180914D02*
X29789286Y-55133295D01*
X29789286Y-55133295D02*
X29836905Y-55038057D01*
X29836905Y-55038057D02*
X29884524Y-54990438D01*
X29884524Y-54990438D02*
X29979762Y-54942819D01*
X29979762Y-54942819D02*
X30170238Y-54942819D01*
X30170238Y-54942819D02*
X30265476Y-54990438D01*
X30265476Y-54990438D02*
X30313095Y-55038057D01*
X30313095Y-55038057D02*
X30360714Y-55133295D01*
X30360714Y-55133295D02*
X30360714Y-55180914D01*
X30360714Y-55180914D02*
X30313095Y-55276152D01*
X30313095Y-55276152D02*
X30265476Y-55323771D01*
X30265476Y-55323771D02*
X30170238Y-55371390D01*
X30170238Y-55371390D02*
X29979762Y-55371390D01*
X29979762Y-55371390D02*
X29884524Y-55419009D01*
X29884524Y-55419009D02*
X29836905Y-55466628D01*
X29836905Y-55466628D02*
X29789286Y-55561866D01*
X29789286Y-55561866D02*
X29789286Y-55752342D01*
X29789286Y-55752342D02*
X29836905Y-55847580D01*
X29836905Y-55847580D02*
X29884524Y-55895200D01*
X29884524Y-55895200D02*
X29979762Y-55942819D01*
X29979762Y-55942819D02*
X30170238Y-55942819D01*
X30170238Y-55942819D02*
X30265476Y-55895200D01*
X30265476Y-55895200D02*
X30313095Y-55847580D01*
X30313095Y-55847580D02*
X30360714Y-55752342D01*
X30360714Y-55752342D02*
X30360714Y-55561866D01*
X30360714Y-55561866D02*
X30313095Y-55466628D01*
X30313095Y-55466628D02*
X30265476Y-55419009D01*
X30265476Y-55419009D02*
X30170238Y-55371390D01*
X101488095Y39745180D02*
X101488095Y40745180D01*
X101488095Y40268990D02*
X102059523Y40268990D01*
X102059523Y39745180D02*
X102059523Y40745180D01*
X102488095Y40649942D02*
X102535714Y40697561D01*
X102535714Y40697561D02*
X102630952Y40745180D01*
X102630952Y40745180D02*
X102869047Y40745180D01*
X102869047Y40745180D02*
X102964285Y40697561D01*
X102964285Y40697561D02*
X103011904Y40649942D01*
X103011904Y40649942D02*
X103059523Y40554704D01*
X103059523Y40554704D02*
X103059523Y40459466D01*
X103059523Y40459466D02*
X103011904Y40316609D01*
X103011904Y40316609D02*
X102440476Y39745180D01*
X102440476Y39745180D02*
X103059523Y39745180D01*
X37285714Y-11054819D02*
X37285714Y-11864342D01*
X37285714Y-11864342D02*
X37333333Y-11959580D01*
X37333333Y-11959580D02*
X37380952Y-12007200D01*
X37380952Y-12007200D02*
X37476190Y-12054819D01*
X37476190Y-12054819D02*
X37666666Y-12054819D01*
X37666666Y-12054819D02*
X37761904Y-12007200D01*
X37761904Y-12007200D02*
X37809523Y-11959580D01*
X37809523Y-11959580D02*
X37857142Y-11864342D01*
X37857142Y-11864342D02*
X37857142Y-11054819D01*
X38761904Y-11388152D02*
X38761904Y-12054819D01*
X38523809Y-11007200D02*
X38285714Y-11721485D01*
X38285714Y-11721485D02*
X38904761Y-11721485D01*
X39476190Y-11054819D02*
X39571428Y-11054819D01*
X39571428Y-11054819D02*
X39666666Y-11102438D01*
X39666666Y-11102438D02*
X39714285Y-11150057D01*
X39714285Y-11150057D02*
X39761904Y-11245295D01*
X39761904Y-11245295D02*
X39809523Y-11435771D01*
X39809523Y-11435771D02*
X39809523Y-11673866D01*
X39809523Y-11673866D02*
X39761904Y-11864342D01*
X39761904Y-11864342D02*
X39714285Y-11959580D01*
X39714285Y-11959580D02*
X39666666Y-12007200D01*
X39666666Y-12007200D02*
X39571428Y-12054819D01*
X39571428Y-12054819D02*
X39476190Y-12054819D01*
X39476190Y-12054819D02*
X39380952Y-12007200D01*
X39380952Y-12007200D02*
X39333333Y-11959580D01*
X39333333Y-11959580D02*
X39285714Y-11864342D01*
X39285714Y-11864342D02*
X39238095Y-11673866D01*
X39238095Y-11673866D02*
X39238095Y-11435771D01*
X39238095Y-11435771D02*
X39285714Y-11245295D01*
X39285714Y-11245295D02*
X39333333Y-11150057D01*
X39333333Y-11150057D02*
X39380952Y-11102438D01*
X39380952Y-11102438D02*
X39476190Y-11054819D01*
X40666666Y-11388152D02*
X40666666Y-12054819D01*
X40428571Y-11007200D02*
X40190476Y-11721485D01*
X40190476Y-11721485D02*
X40809523Y-11721485D01*
X83915476Y-44795200D02*
X84058333Y-44842819D01*
X84058333Y-44842819D02*
X84296428Y-44842819D01*
X84296428Y-44842819D02*
X84391666Y-44795200D01*
X84391666Y-44795200D02*
X84439285Y-44747580D01*
X84439285Y-44747580D02*
X84486904Y-44652342D01*
X84486904Y-44652342D02*
X84486904Y-44557104D01*
X84486904Y-44557104D02*
X84439285Y-44461866D01*
X84439285Y-44461866D02*
X84391666Y-44414247D01*
X84391666Y-44414247D02*
X84296428Y-44366628D01*
X84296428Y-44366628D02*
X84105952Y-44319009D01*
X84105952Y-44319009D02*
X84010714Y-44271390D01*
X84010714Y-44271390D02*
X83963095Y-44223771D01*
X83963095Y-44223771D02*
X83915476Y-44128533D01*
X83915476Y-44128533D02*
X83915476Y-44033295D01*
X83915476Y-44033295D02*
X83963095Y-43938057D01*
X83963095Y-43938057D02*
X84010714Y-43890438D01*
X84010714Y-43890438D02*
X84105952Y-43842819D01*
X84105952Y-43842819D02*
X84344047Y-43842819D01*
X84344047Y-43842819D02*
X84486904Y-43890438D01*
X84820238Y-43842819D02*
X85058333Y-44842819D01*
X85058333Y-44842819D02*
X85248809Y-44128533D01*
X85248809Y-44128533D02*
X85439285Y-44842819D01*
X85439285Y-44842819D02*
X85677381Y-43842819D01*
X86582142Y-44842819D02*
X86010714Y-44842819D01*
X86296428Y-44842819D02*
X86296428Y-43842819D01*
X86296428Y-43842819D02*
X86201190Y-43985676D01*
X86201190Y-43985676D02*
X86105952Y-44080914D01*
X86105952Y-44080914D02*
X86010714Y-44128533D01*
X87534523Y-44842819D02*
X86963095Y-44842819D01*
X87248809Y-44842819D02*
X87248809Y-43842819D01*
X87248809Y-43842819D02*
X87153571Y-43985676D01*
X87153571Y-43985676D02*
X87058333Y-44080914D01*
X87058333Y-44080914D02*
X86963095Y-44128533D01*
X20964285Y-5124819D02*
X20964285Y-5839104D01*
X20964285Y-5839104D02*
X20916666Y-5981961D01*
X20916666Y-5981961D02*
X20821428Y-6077200D01*
X20821428Y-6077200D02*
X20678571Y-6124819D01*
X20678571Y-6124819D02*
X20583333Y-6124819D01*
X21869047Y-5458152D02*
X21869047Y-6124819D01*
X21630952Y-5077200D02*
X21392857Y-5791485D01*
X21392857Y-5791485D02*
X22011904Y-5791485D01*
X22583333Y-5124819D02*
X22678571Y-5124819D01*
X22678571Y-5124819D02*
X22773809Y-5172438D01*
X22773809Y-5172438D02*
X22821428Y-5220057D01*
X22821428Y-5220057D02*
X22869047Y-5315295D01*
X22869047Y-5315295D02*
X22916666Y-5505771D01*
X22916666Y-5505771D02*
X22916666Y-5743866D01*
X22916666Y-5743866D02*
X22869047Y-5934342D01*
X22869047Y-5934342D02*
X22821428Y-6029580D01*
X22821428Y-6029580D02*
X22773809Y-6077200D01*
X22773809Y-6077200D02*
X22678571Y-6124819D01*
X22678571Y-6124819D02*
X22583333Y-6124819D01*
X22583333Y-6124819D02*
X22488095Y-6077200D01*
X22488095Y-6077200D02*
X22440476Y-6029580D01*
X22440476Y-6029580D02*
X22392857Y-5934342D01*
X22392857Y-5934342D02*
X22345238Y-5743866D01*
X22345238Y-5743866D02*
X22345238Y-5505771D01*
X22345238Y-5505771D02*
X22392857Y-5315295D01*
X22392857Y-5315295D02*
X22440476Y-5220057D01*
X22440476Y-5220057D02*
X22488095Y-5172438D01*
X22488095Y-5172438D02*
X22583333Y-5124819D01*
X23535714Y-5124819D02*
X23630952Y-5124819D01*
X23630952Y-5124819D02*
X23726190Y-5172438D01*
X23726190Y-5172438D02*
X23773809Y-5220057D01*
X23773809Y-5220057D02*
X23821428Y-5315295D01*
X23821428Y-5315295D02*
X23869047Y-5505771D01*
X23869047Y-5505771D02*
X23869047Y-5743866D01*
X23869047Y-5743866D02*
X23821428Y-5934342D01*
X23821428Y-5934342D02*
X23773809Y-6029580D01*
X23773809Y-6029580D02*
X23726190Y-6077200D01*
X23726190Y-6077200D02*
X23630952Y-6124819D01*
X23630952Y-6124819D02*
X23535714Y-6124819D01*
X23535714Y-6124819D02*
X23440476Y-6077200D01*
X23440476Y-6077200D02*
X23392857Y-6029580D01*
X23392857Y-6029580D02*
X23345238Y-5934342D01*
X23345238Y-5934342D02*
X23297619Y-5743866D01*
X23297619Y-5743866D02*
X23297619Y-5505771D01*
X23297619Y-5505771D02*
X23345238Y-5315295D01*
X23345238Y-5315295D02*
X23392857Y-5220057D01*
X23392857Y-5220057D02*
X23440476Y-5172438D01*
X23440476Y-5172438D02*
X23535714Y-5124819D01*
X45982142Y-74992819D02*
X45648809Y-74516628D01*
X45410714Y-74992819D02*
X45410714Y-73992819D01*
X45410714Y-73992819D02*
X45791666Y-73992819D01*
X45791666Y-73992819D02*
X45886904Y-74040438D01*
X45886904Y-74040438D02*
X45934523Y-74088057D01*
X45934523Y-74088057D02*
X45982142Y-74183295D01*
X45982142Y-74183295D02*
X45982142Y-74326152D01*
X45982142Y-74326152D02*
X45934523Y-74421390D01*
X45934523Y-74421390D02*
X45886904Y-74469009D01*
X45886904Y-74469009D02*
X45791666Y-74516628D01*
X45791666Y-74516628D02*
X45410714Y-74516628D01*
X46934523Y-74040438D02*
X46839285Y-73992819D01*
X46839285Y-73992819D02*
X46696428Y-73992819D01*
X46696428Y-73992819D02*
X46553571Y-74040438D01*
X46553571Y-74040438D02*
X46458333Y-74135676D01*
X46458333Y-74135676D02*
X46410714Y-74230914D01*
X46410714Y-74230914D02*
X46363095Y-74421390D01*
X46363095Y-74421390D02*
X46363095Y-74564247D01*
X46363095Y-74564247D02*
X46410714Y-74754723D01*
X46410714Y-74754723D02*
X46458333Y-74849961D01*
X46458333Y-74849961D02*
X46553571Y-74945200D01*
X46553571Y-74945200D02*
X46696428Y-74992819D01*
X46696428Y-74992819D02*
X46791666Y-74992819D01*
X46791666Y-74992819D02*
X46934523Y-74945200D01*
X46934523Y-74945200D02*
X46982142Y-74897580D01*
X46982142Y-74897580D02*
X46982142Y-74564247D01*
X46982142Y-74564247D02*
X46791666Y-74564247D01*
X47744047Y-74469009D02*
X47886904Y-74516628D01*
X47886904Y-74516628D02*
X47934523Y-74564247D01*
X47934523Y-74564247D02*
X47982142Y-74659485D01*
X47982142Y-74659485D02*
X47982142Y-74802342D01*
X47982142Y-74802342D02*
X47934523Y-74897580D01*
X47934523Y-74897580D02*
X47886904Y-74945200D01*
X47886904Y-74945200D02*
X47791666Y-74992819D01*
X47791666Y-74992819D02*
X47410714Y-74992819D01*
X47410714Y-74992819D02*
X47410714Y-73992819D01*
X47410714Y-73992819D02*
X47744047Y-73992819D01*
X47744047Y-73992819D02*
X47839285Y-74040438D01*
X47839285Y-74040438D02*
X47886904Y-74088057D01*
X47886904Y-74088057D02*
X47934523Y-74183295D01*
X47934523Y-74183295D02*
X47934523Y-74278533D01*
X47934523Y-74278533D02*
X47886904Y-74373771D01*
X47886904Y-74373771D02*
X47839285Y-74421390D01*
X47839285Y-74421390D02*
X47744047Y-74469009D01*
X47744047Y-74469009D02*
X47410714Y-74469009D01*
X48934523Y-74992819D02*
X48363095Y-74992819D01*
X48648809Y-74992819D02*
X48648809Y-73992819D01*
X48648809Y-73992819D02*
X48553571Y-74135676D01*
X48553571Y-74135676D02*
X48458333Y-74230914D01*
X48458333Y-74230914D02*
X48363095Y-74278533D01*
X49791666Y-74326152D02*
X49791666Y-74992819D01*
X49553571Y-73945200D02*
X49315476Y-74659485D01*
X49315476Y-74659485D02*
X49934523Y-74659485D01*
X47880952Y-13159580D02*
X47833333Y-13207200D01*
X47833333Y-13207200D02*
X47690476Y-13254819D01*
X47690476Y-13254819D02*
X47595238Y-13254819D01*
X47595238Y-13254819D02*
X47452381Y-13207200D01*
X47452381Y-13207200D02*
X47357143Y-13111961D01*
X47357143Y-13111961D02*
X47309524Y-13016723D01*
X47309524Y-13016723D02*
X47261905Y-12826247D01*
X47261905Y-12826247D02*
X47261905Y-12683390D01*
X47261905Y-12683390D02*
X47309524Y-12492914D01*
X47309524Y-12492914D02*
X47357143Y-12397676D01*
X47357143Y-12397676D02*
X47452381Y-12302438D01*
X47452381Y-12302438D02*
X47595238Y-12254819D01*
X47595238Y-12254819D02*
X47690476Y-12254819D01*
X47690476Y-12254819D02*
X47833333Y-12302438D01*
X47833333Y-12302438D02*
X47880952Y-12350057D01*
X48738095Y-12588152D02*
X48738095Y-13254819D01*
X48500000Y-12207200D02*
X48261905Y-12921485D01*
X48261905Y-12921485D02*
X48880952Y-12921485D01*
X49452381Y-12254819D02*
X49547619Y-12254819D01*
X49547619Y-12254819D02*
X49642857Y-12302438D01*
X49642857Y-12302438D02*
X49690476Y-12350057D01*
X49690476Y-12350057D02*
X49738095Y-12445295D01*
X49738095Y-12445295D02*
X49785714Y-12635771D01*
X49785714Y-12635771D02*
X49785714Y-12873866D01*
X49785714Y-12873866D02*
X49738095Y-13064342D01*
X49738095Y-13064342D02*
X49690476Y-13159580D01*
X49690476Y-13159580D02*
X49642857Y-13207200D01*
X49642857Y-13207200D02*
X49547619Y-13254819D01*
X49547619Y-13254819D02*
X49452381Y-13254819D01*
X49452381Y-13254819D02*
X49357143Y-13207200D01*
X49357143Y-13207200D02*
X49309524Y-13159580D01*
X49309524Y-13159580D02*
X49261905Y-13064342D01*
X49261905Y-13064342D02*
X49214286Y-12873866D01*
X49214286Y-12873866D02*
X49214286Y-12635771D01*
X49214286Y-12635771D02*
X49261905Y-12445295D01*
X49261905Y-12445295D02*
X49309524Y-12350057D01*
X49309524Y-12350057D02*
X49357143Y-12302438D01*
X49357143Y-12302438D02*
X49452381Y-12254819D01*
X50690476Y-12254819D02*
X50214286Y-12254819D01*
X50214286Y-12254819D02*
X50166667Y-12731009D01*
X50166667Y-12731009D02*
X50214286Y-12683390D01*
X50214286Y-12683390D02*
X50309524Y-12635771D01*
X50309524Y-12635771D02*
X50547619Y-12635771D01*
X50547619Y-12635771D02*
X50642857Y-12683390D01*
X50642857Y-12683390D02*
X50690476Y-12731009D01*
X50690476Y-12731009D02*
X50738095Y-12826247D01*
X50738095Y-12826247D02*
X50738095Y-13064342D01*
X50738095Y-13064342D02*
X50690476Y-13159580D01*
X50690476Y-13159580D02*
X50642857Y-13207200D01*
X50642857Y-13207200D02*
X50547619Y-13254819D01*
X50547619Y-13254819D02*
X50309524Y-13254819D01*
X50309524Y-13254819D02*
X50214286Y-13207200D01*
X50214286Y-13207200D02*
X50166667Y-13159580D01*
X65341667Y-25744200D02*
X65484524Y-25791819D01*
X65484524Y-25791819D02*
X65722619Y-25791819D01*
X65722619Y-25791819D02*
X65817857Y-25744200D01*
X65817857Y-25744200D02*
X65865476Y-25696580D01*
X65865476Y-25696580D02*
X65913095Y-25601342D01*
X65913095Y-25601342D02*
X65913095Y-25506104D01*
X65913095Y-25506104D02*
X65865476Y-25410866D01*
X65865476Y-25410866D02*
X65817857Y-25363247D01*
X65817857Y-25363247D02*
X65722619Y-25315628D01*
X65722619Y-25315628D02*
X65532143Y-25268009D01*
X65532143Y-25268009D02*
X65436905Y-25220390D01*
X65436905Y-25220390D02*
X65389286Y-25172771D01*
X65389286Y-25172771D02*
X65341667Y-25077533D01*
X65341667Y-25077533D02*
X65341667Y-24982295D01*
X65341667Y-24982295D02*
X65389286Y-24887057D01*
X65389286Y-24887057D02*
X65436905Y-24839438D01*
X65436905Y-24839438D02*
X65532143Y-24791819D01*
X65532143Y-24791819D02*
X65770238Y-24791819D01*
X65770238Y-24791819D02*
X65913095Y-24839438D01*
X66246429Y-24791819D02*
X66484524Y-25791819D01*
X66484524Y-25791819D02*
X66675000Y-25077533D01*
X66675000Y-25077533D02*
X66865476Y-25791819D01*
X66865476Y-25791819D02*
X67103572Y-24791819D01*
X67960714Y-24791819D02*
X67484524Y-24791819D01*
X67484524Y-24791819D02*
X67436905Y-25268009D01*
X67436905Y-25268009D02*
X67484524Y-25220390D01*
X67484524Y-25220390D02*
X67579762Y-25172771D01*
X67579762Y-25172771D02*
X67817857Y-25172771D01*
X67817857Y-25172771D02*
X67913095Y-25220390D01*
X67913095Y-25220390D02*
X67960714Y-25268009D01*
X67960714Y-25268009D02*
X68008333Y-25363247D01*
X68008333Y-25363247D02*
X68008333Y-25601342D01*
X68008333Y-25601342D02*
X67960714Y-25696580D01*
X67960714Y-25696580D02*
X67913095Y-25744200D01*
X67913095Y-25744200D02*
X67817857Y-25791819D01*
X67817857Y-25791819D02*
X67579762Y-25791819D01*
X67579762Y-25791819D02*
X67484524Y-25744200D01*
X67484524Y-25744200D02*
X67436905Y-25696580D01*
X45815476Y-101945200D02*
X45958333Y-101992819D01*
X45958333Y-101992819D02*
X46196428Y-101992819D01*
X46196428Y-101992819D02*
X46291666Y-101945200D01*
X46291666Y-101945200D02*
X46339285Y-101897580D01*
X46339285Y-101897580D02*
X46386904Y-101802342D01*
X46386904Y-101802342D02*
X46386904Y-101707104D01*
X46386904Y-101707104D02*
X46339285Y-101611866D01*
X46339285Y-101611866D02*
X46291666Y-101564247D01*
X46291666Y-101564247D02*
X46196428Y-101516628D01*
X46196428Y-101516628D02*
X46005952Y-101469009D01*
X46005952Y-101469009D02*
X45910714Y-101421390D01*
X45910714Y-101421390D02*
X45863095Y-101373771D01*
X45863095Y-101373771D02*
X45815476Y-101278533D01*
X45815476Y-101278533D02*
X45815476Y-101183295D01*
X45815476Y-101183295D02*
X45863095Y-101088057D01*
X45863095Y-101088057D02*
X45910714Y-101040438D01*
X45910714Y-101040438D02*
X46005952Y-100992819D01*
X46005952Y-100992819D02*
X46244047Y-100992819D01*
X46244047Y-100992819D02*
X46386904Y-101040438D01*
X46720238Y-100992819D02*
X46958333Y-101992819D01*
X46958333Y-101992819D02*
X47148809Y-101278533D01*
X47148809Y-101278533D02*
X47339285Y-101992819D01*
X47339285Y-101992819D02*
X47577381Y-100992819D01*
X47910714Y-101088057D02*
X47958333Y-101040438D01*
X47958333Y-101040438D02*
X48053571Y-100992819D01*
X48053571Y-100992819D02*
X48291666Y-100992819D01*
X48291666Y-100992819D02*
X48386904Y-101040438D01*
X48386904Y-101040438D02*
X48434523Y-101088057D01*
X48434523Y-101088057D02*
X48482142Y-101183295D01*
X48482142Y-101183295D02*
X48482142Y-101278533D01*
X48482142Y-101278533D02*
X48434523Y-101421390D01*
X48434523Y-101421390D02*
X47863095Y-101992819D01*
X47863095Y-101992819D02*
X48482142Y-101992819D01*
X49339285Y-101326152D02*
X49339285Y-101992819D01*
X49101190Y-100945200D02*
X48863095Y-101659485D01*
X48863095Y-101659485D02*
X49482142Y-101659485D01*
X42880952Y-11054819D02*
X42404762Y-11054819D01*
X42404762Y-11054819D02*
X42404762Y-10054819D01*
X43642857Y-10388152D02*
X43642857Y-11054819D01*
X43404762Y-10007200D02*
X43166667Y-10721485D01*
X43166667Y-10721485D02*
X43785714Y-10721485D01*
X44357143Y-10054819D02*
X44452381Y-10054819D01*
X44452381Y-10054819D02*
X44547619Y-10102438D01*
X44547619Y-10102438D02*
X44595238Y-10150057D01*
X44595238Y-10150057D02*
X44642857Y-10245295D01*
X44642857Y-10245295D02*
X44690476Y-10435771D01*
X44690476Y-10435771D02*
X44690476Y-10673866D01*
X44690476Y-10673866D02*
X44642857Y-10864342D01*
X44642857Y-10864342D02*
X44595238Y-10959580D01*
X44595238Y-10959580D02*
X44547619Y-11007200D01*
X44547619Y-11007200D02*
X44452381Y-11054819D01*
X44452381Y-11054819D02*
X44357143Y-11054819D01*
X44357143Y-11054819D02*
X44261905Y-11007200D01*
X44261905Y-11007200D02*
X44214286Y-10959580D01*
X44214286Y-10959580D02*
X44166667Y-10864342D01*
X44166667Y-10864342D02*
X44119048Y-10673866D01*
X44119048Y-10673866D02*
X44119048Y-10435771D01*
X44119048Y-10435771D02*
X44166667Y-10245295D01*
X44166667Y-10245295D02*
X44214286Y-10150057D01*
X44214286Y-10150057D02*
X44261905Y-10102438D01*
X44261905Y-10102438D02*
X44357143Y-10054819D01*
X45642857Y-11054819D02*
X45071429Y-11054819D01*
X45357143Y-11054819D02*
X45357143Y-10054819D01*
X45357143Y-10054819D02*
X45261905Y-10197676D01*
X45261905Y-10197676D02*
X45166667Y-10292914D01*
X45166667Y-10292914D02*
X45071429Y-10340533D01*
X46458333Y-55942819D02*
X46125000Y-55466628D01*
X45886905Y-55942819D02*
X45886905Y-54942819D01*
X45886905Y-54942819D02*
X46267857Y-54942819D01*
X46267857Y-54942819D02*
X46363095Y-54990438D01*
X46363095Y-54990438D02*
X46410714Y-55038057D01*
X46410714Y-55038057D02*
X46458333Y-55133295D01*
X46458333Y-55133295D02*
X46458333Y-55276152D01*
X46458333Y-55276152D02*
X46410714Y-55371390D01*
X46410714Y-55371390D02*
X46363095Y-55419009D01*
X46363095Y-55419009D02*
X46267857Y-55466628D01*
X46267857Y-55466628D02*
X45886905Y-55466628D01*
X47410714Y-54990438D02*
X47315476Y-54942819D01*
X47315476Y-54942819D02*
X47172619Y-54942819D01*
X47172619Y-54942819D02*
X47029762Y-54990438D01*
X47029762Y-54990438D02*
X46934524Y-55085676D01*
X46934524Y-55085676D02*
X46886905Y-55180914D01*
X46886905Y-55180914D02*
X46839286Y-55371390D01*
X46839286Y-55371390D02*
X46839286Y-55514247D01*
X46839286Y-55514247D02*
X46886905Y-55704723D01*
X46886905Y-55704723D02*
X46934524Y-55799961D01*
X46934524Y-55799961D02*
X47029762Y-55895200D01*
X47029762Y-55895200D02*
X47172619Y-55942819D01*
X47172619Y-55942819D02*
X47267857Y-55942819D01*
X47267857Y-55942819D02*
X47410714Y-55895200D01*
X47410714Y-55895200D02*
X47458333Y-55847580D01*
X47458333Y-55847580D02*
X47458333Y-55514247D01*
X47458333Y-55514247D02*
X47267857Y-55514247D01*
X48220238Y-55419009D02*
X48363095Y-55466628D01*
X48363095Y-55466628D02*
X48410714Y-55514247D01*
X48410714Y-55514247D02*
X48458333Y-55609485D01*
X48458333Y-55609485D02*
X48458333Y-55752342D01*
X48458333Y-55752342D02*
X48410714Y-55847580D01*
X48410714Y-55847580D02*
X48363095Y-55895200D01*
X48363095Y-55895200D02*
X48267857Y-55942819D01*
X48267857Y-55942819D02*
X47886905Y-55942819D01*
X47886905Y-55942819D02*
X47886905Y-54942819D01*
X47886905Y-54942819D02*
X48220238Y-54942819D01*
X48220238Y-54942819D02*
X48315476Y-54990438D01*
X48315476Y-54990438D02*
X48363095Y-55038057D01*
X48363095Y-55038057D02*
X48410714Y-55133295D01*
X48410714Y-55133295D02*
X48410714Y-55228533D01*
X48410714Y-55228533D02*
X48363095Y-55323771D01*
X48363095Y-55323771D02*
X48315476Y-55371390D01*
X48315476Y-55371390D02*
X48220238Y-55419009D01*
X48220238Y-55419009D02*
X47886905Y-55419009D01*
X48934524Y-55942819D02*
X49125000Y-55942819D01*
X49125000Y-55942819D02*
X49220238Y-55895200D01*
X49220238Y-55895200D02*
X49267857Y-55847580D01*
X49267857Y-55847580D02*
X49363095Y-55704723D01*
X49363095Y-55704723D02*
X49410714Y-55514247D01*
X49410714Y-55514247D02*
X49410714Y-55133295D01*
X49410714Y-55133295D02*
X49363095Y-55038057D01*
X49363095Y-55038057D02*
X49315476Y-54990438D01*
X49315476Y-54990438D02*
X49220238Y-54942819D01*
X49220238Y-54942819D02*
X49029762Y-54942819D01*
X49029762Y-54942819D02*
X48934524Y-54990438D01*
X48934524Y-54990438D02*
X48886905Y-55038057D01*
X48886905Y-55038057D02*
X48839286Y-55133295D01*
X48839286Y-55133295D02*
X48839286Y-55371390D01*
X48839286Y-55371390D02*
X48886905Y-55466628D01*
X48886905Y-55466628D02*
X48934524Y-55514247D01*
X48934524Y-55514247D02*
X49029762Y-55561866D01*
X49029762Y-55561866D02*
X49220238Y-55561866D01*
X49220238Y-55561866D02*
X49315476Y-55514247D01*
X49315476Y-55514247D02*
X49363095Y-55466628D01*
X49363095Y-55466628D02*
X49410714Y-55371390D01*
X81750952Y4945180D02*
X81417619Y5421371D01*
X81179524Y4945180D02*
X81179524Y5945180D01*
X81179524Y5945180D02*
X81560476Y5945180D01*
X81560476Y5945180D02*
X81655714Y5897561D01*
X81655714Y5897561D02*
X81703333Y5849942D01*
X81703333Y5849942D02*
X81750952Y5754704D01*
X81750952Y5754704D02*
X81750952Y5611847D01*
X81750952Y5611847D02*
X81703333Y5516609D01*
X81703333Y5516609D02*
X81655714Y5468990D01*
X81655714Y5468990D02*
X81560476Y5421371D01*
X81560476Y5421371D02*
X81179524Y5421371D01*
X82608095Y5611847D02*
X82608095Y4945180D01*
X82370000Y5992800D02*
X82131905Y5278514D01*
X82131905Y5278514D02*
X82750952Y5278514D01*
X83322381Y5945180D02*
X83417619Y5945180D01*
X83417619Y5945180D02*
X83512857Y5897561D01*
X83512857Y5897561D02*
X83560476Y5849942D01*
X83560476Y5849942D02*
X83608095Y5754704D01*
X83608095Y5754704D02*
X83655714Y5564228D01*
X83655714Y5564228D02*
X83655714Y5326133D01*
X83655714Y5326133D02*
X83608095Y5135657D01*
X83608095Y5135657D02*
X83560476Y5040419D01*
X83560476Y5040419D02*
X83512857Y4992800D01*
X83512857Y4992800D02*
X83417619Y4945180D01*
X83417619Y4945180D02*
X83322381Y4945180D01*
X83322381Y4945180D02*
X83227143Y4992800D01*
X83227143Y4992800D02*
X83179524Y5040419D01*
X83179524Y5040419D02*
X83131905Y5135657D01*
X83131905Y5135657D02*
X83084286Y5326133D01*
X83084286Y5326133D02*
X83084286Y5564228D01*
X83084286Y5564228D02*
X83131905Y5754704D01*
X83131905Y5754704D02*
X83179524Y5849942D01*
X83179524Y5849942D02*
X83227143Y5897561D01*
X83227143Y5897561D02*
X83322381Y5945180D01*
X84608095Y4945180D02*
X84036667Y4945180D01*
X84322381Y4945180D02*
X84322381Y5945180D01*
X84322381Y5945180D02*
X84227143Y5802323D01*
X84227143Y5802323D02*
X84131905Y5707085D01*
X84131905Y5707085D02*
X84036667Y5659466D01*
X26932142Y-94041819D02*
X26598809Y-93565628D01*
X26360714Y-94041819D02*
X26360714Y-93041819D01*
X26360714Y-93041819D02*
X26741666Y-93041819D01*
X26741666Y-93041819D02*
X26836904Y-93089438D01*
X26836904Y-93089438D02*
X26884523Y-93137057D01*
X26884523Y-93137057D02*
X26932142Y-93232295D01*
X26932142Y-93232295D02*
X26932142Y-93375152D01*
X26932142Y-93375152D02*
X26884523Y-93470390D01*
X26884523Y-93470390D02*
X26836904Y-93518009D01*
X26836904Y-93518009D02*
X26741666Y-93565628D01*
X26741666Y-93565628D02*
X26360714Y-93565628D01*
X27884523Y-93089438D02*
X27789285Y-93041819D01*
X27789285Y-93041819D02*
X27646428Y-93041819D01*
X27646428Y-93041819D02*
X27503571Y-93089438D01*
X27503571Y-93089438D02*
X27408333Y-93184676D01*
X27408333Y-93184676D02*
X27360714Y-93279914D01*
X27360714Y-93279914D02*
X27313095Y-93470390D01*
X27313095Y-93470390D02*
X27313095Y-93613247D01*
X27313095Y-93613247D02*
X27360714Y-93803723D01*
X27360714Y-93803723D02*
X27408333Y-93898961D01*
X27408333Y-93898961D02*
X27503571Y-93994200D01*
X27503571Y-93994200D02*
X27646428Y-94041819D01*
X27646428Y-94041819D02*
X27741666Y-94041819D01*
X27741666Y-94041819D02*
X27884523Y-93994200D01*
X27884523Y-93994200D02*
X27932142Y-93946580D01*
X27932142Y-93946580D02*
X27932142Y-93613247D01*
X27932142Y-93613247D02*
X27741666Y-93613247D01*
X28694047Y-93518009D02*
X28836904Y-93565628D01*
X28836904Y-93565628D02*
X28884523Y-93613247D01*
X28884523Y-93613247D02*
X28932142Y-93708485D01*
X28932142Y-93708485D02*
X28932142Y-93851342D01*
X28932142Y-93851342D02*
X28884523Y-93946580D01*
X28884523Y-93946580D02*
X28836904Y-93994200D01*
X28836904Y-93994200D02*
X28741666Y-94041819D01*
X28741666Y-94041819D02*
X28360714Y-94041819D01*
X28360714Y-94041819D02*
X28360714Y-93041819D01*
X28360714Y-93041819D02*
X28694047Y-93041819D01*
X28694047Y-93041819D02*
X28789285Y-93089438D01*
X28789285Y-93089438D02*
X28836904Y-93137057D01*
X28836904Y-93137057D02*
X28884523Y-93232295D01*
X28884523Y-93232295D02*
X28884523Y-93327533D01*
X28884523Y-93327533D02*
X28836904Y-93422771D01*
X28836904Y-93422771D02*
X28789285Y-93470390D01*
X28789285Y-93470390D02*
X28694047Y-93518009D01*
X28694047Y-93518009D02*
X28360714Y-93518009D01*
X29884523Y-94041819D02*
X29313095Y-94041819D01*
X29598809Y-94041819D02*
X29598809Y-93041819D01*
X29598809Y-93041819D02*
X29503571Y-93184676D01*
X29503571Y-93184676D02*
X29408333Y-93279914D01*
X29408333Y-93279914D02*
X29313095Y-93327533D01*
X30455952Y-93470390D02*
X30360714Y-93422771D01*
X30360714Y-93422771D02*
X30313095Y-93375152D01*
X30313095Y-93375152D02*
X30265476Y-93279914D01*
X30265476Y-93279914D02*
X30265476Y-93232295D01*
X30265476Y-93232295D02*
X30313095Y-93137057D01*
X30313095Y-93137057D02*
X30360714Y-93089438D01*
X30360714Y-93089438D02*
X30455952Y-93041819D01*
X30455952Y-93041819D02*
X30646428Y-93041819D01*
X30646428Y-93041819D02*
X30741666Y-93089438D01*
X30741666Y-93089438D02*
X30789285Y-93137057D01*
X30789285Y-93137057D02*
X30836904Y-93232295D01*
X30836904Y-93232295D02*
X30836904Y-93279914D01*
X30836904Y-93279914D02*
X30789285Y-93375152D01*
X30789285Y-93375152D02*
X30741666Y-93422771D01*
X30741666Y-93422771D02*
X30646428Y-93470390D01*
X30646428Y-93470390D02*
X30455952Y-93470390D01*
X30455952Y-93470390D02*
X30360714Y-93518009D01*
X30360714Y-93518009D02*
X30313095Y-93565628D01*
X30313095Y-93565628D02*
X30265476Y-93660866D01*
X30265476Y-93660866D02*
X30265476Y-93851342D01*
X30265476Y-93851342D02*
X30313095Y-93946580D01*
X30313095Y-93946580D02*
X30360714Y-93994200D01*
X30360714Y-93994200D02*
X30455952Y-94041819D01*
X30455952Y-94041819D02*
X30646428Y-94041819D01*
X30646428Y-94041819D02*
X30741666Y-93994200D01*
X30741666Y-93994200D02*
X30789285Y-93946580D01*
X30789285Y-93946580D02*
X30836904Y-93851342D01*
X30836904Y-93851342D02*
X30836904Y-93660866D01*
X30836904Y-93660866D02*
X30789285Y-93565628D01*
X30789285Y-93565628D02*
X30741666Y-93518009D01*
X30741666Y-93518009D02*
X30646428Y-93470390D01*
X84558333Y-36891819D02*
X84225000Y-36415628D01*
X83986905Y-36891819D02*
X83986905Y-35891819D01*
X83986905Y-35891819D02*
X84367857Y-35891819D01*
X84367857Y-35891819D02*
X84463095Y-35939438D01*
X84463095Y-35939438D02*
X84510714Y-35987057D01*
X84510714Y-35987057D02*
X84558333Y-36082295D01*
X84558333Y-36082295D02*
X84558333Y-36225152D01*
X84558333Y-36225152D02*
X84510714Y-36320390D01*
X84510714Y-36320390D02*
X84463095Y-36368009D01*
X84463095Y-36368009D02*
X84367857Y-36415628D01*
X84367857Y-36415628D02*
X83986905Y-36415628D01*
X85510714Y-35939438D02*
X85415476Y-35891819D01*
X85415476Y-35891819D02*
X85272619Y-35891819D01*
X85272619Y-35891819D02*
X85129762Y-35939438D01*
X85129762Y-35939438D02*
X85034524Y-36034676D01*
X85034524Y-36034676D02*
X84986905Y-36129914D01*
X84986905Y-36129914D02*
X84939286Y-36320390D01*
X84939286Y-36320390D02*
X84939286Y-36463247D01*
X84939286Y-36463247D02*
X84986905Y-36653723D01*
X84986905Y-36653723D02*
X85034524Y-36748961D01*
X85034524Y-36748961D02*
X85129762Y-36844200D01*
X85129762Y-36844200D02*
X85272619Y-36891819D01*
X85272619Y-36891819D02*
X85367857Y-36891819D01*
X85367857Y-36891819D02*
X85510714Y-36844200D01*
X85510714Y-36844200D02*
X85558333Y-36796580D01*
X85558333Y-36796580D02*
X85558333Y-36463247D01*
X85558333Y-36463247D02*
X85367857Y-36463247D01*
X86320238Y-36368009D02*
X86463095Y-36415628D01*
X86463095Y-36415628D02*
X86510714Y-36463247D01*
X86510714Y-36463247D02*
X86558333Y-36558485D01*
X86558333Y-36558485D02*
X86558333Y-36701342D01*
X86558333Y-36701342D02*
X86510714Y-36796580D01*
X86510714Y-36796580D02*
X86463095Y-36844200D01*
X86463095Y-36844200D02*
X86367857Y-36891819D01*
X86367857Y-36891819D02*
X85986905Y-36891819D01*
X85986905Y-36891819D02*
X85986905Y-35891819D01*
X85986905Y-35891819D02*
X86320238Y-35891819D01*
X86320238Y-35891819D02*
X86415476Y-35939438D01*
X86415476Y-35939438D02*
X86463095Y-35987057D01*
X86463095Y-35987057D02*
X86510714Y-36082295D01*
X86510714Y-36082295D02*
X86510714Y-36177533D01*
X86510714Y-36177533D02*
X86463095Y-36272771D01*
X86463095Y-36272771D02*
X86415476Y-36320390D01*
X86415476Y-36320390D02*
X86320238Y-36368009D01*
X86320238Y-36368009D02*
X85986905Y-36368009D01*
X87415476Y-35891819D02*
X87225000Y-35891819D01*
X87225000Y-35891819D02*
X87129762Y-35939438D01*
X87129762Y-35939438D02*
X87082143Y-35987057D01*
X87082143Y-35987057D02*
X86986905Y-36129914D01*
X86986905Y-36129914D02*
X86939286Y-36320390D01*
X86939286Y-36320390D02*
X86939286Y-36701342D01*
X86939286Y-36701342D02*
X86986905Y-36796580D01*
X86986905Y-36796580D02*
X87034524Y-36844200D01*
X87034524Y-36844200D02*
X87129762Y-36891819D01*
X87129762Y-36891819D02*
X87320238Y-36891819D01*
X87320238Y-36891819D02*
X87415476Y-36844200D01*
X87415476Y-36844200D02*
X87463095Y-36796580D01*
X87463095Y-36796580D02*
X87510714Y-36701342D01*
X87510714Y-36701342D02*
X87510714Y-36463247D01*
X87510714Y-36463247D02*
X87463095Y-36368009D01*
X87463095Y-36368009D02*
X87415476Y-36320390D01*
X87415476Y-36320390D02*
X87320238Y-36272771D01*
X87320238Y-36272771D02*
X87129762Y-36272771D01*
X87129762Y-36272771D02*
X87034524Y-36320390D01*
X87034524Y-36320390D02*
X86986905Y-36368009D01*
X86986905Y-36368009D02*
X86939286Y-36463247D01*
X52380952Y32445180D02*
X52047619Y32921371D01*
X51809524Y32445180D02*
X51809524Y33445180D01*
X51809524Y33445180D02*
X52190476Y33445180D01*
X52190476Y33445180D02*
X52285714Y33397561D01*
X52285714Y33397561D02*
X52333333Y33349942D01*
X52333333Y33349942D02*
X52380952Y33254704D01*
X52380952Y33254704D02*
X52380952Y33111847D01*
X52380952Y33111847D02*
X52333333Y33016609D01*
X52333333Y33016609D02*
X52285714Y32968990D01*
X52285714Y32968990D02*
X52190476Y32921371D01*
X52190476Y32921371D02*
X51809524Y32921371D01*
X53238095Y33111847D02*
X53238095Y32445180D01*
X53000000Y33492800D02*
X52761905Y32778514D01*
X52761905Y32778514D02*
X53380952Y32778514D01*
X53952381Y33445180D02*
X54047619Y33445180D01*
X54047619Y33445180D02*
X54142857Y33397561D01*
X54142857Y33397561D02*
X54190476Y33349942D01*
X54190476Y33349942D02*
X54238095Y33254704D01*
X54238095Y33254704D02*
X54285714Y33064228D01*
X54285714Y33064228D02*
X54285714Y32826133D01*
X54285714Y32826133D02*
X54238095Y32635657D01*
X54238095Y32635657D02*
X54190476Y32540419D01*
X54190476Y32540419D02*
X54142857Y32492800D01*
X54142857Y32492800D02*
X54047619Y32445180D01*
X54047619Y32445180D02*
X53952381Y32445180D01*
X53952381Y32445180D02*
X53857143Y32492800D01*
X53857143Y32492800D02*
X53809524Y32540419D01*
X53809524Y32540419D02*
X53761905Y32635657D01*
X53761905Y32635657D02*
X53714286Y32826133D01*
X53714286Y32826133D02*
X53714286Y33064228D01*
X53714286Y33064228D02*
X53761905Y33254704D01*
X53761905Y33254704D02*
X53809524Y33349942D01*
X53809524Y33349942D02*
X53857143Y33397561D01*
X53857143Y33397561D02*
X53952381Y33445180D01*
X54619048Y33445180D02*
X55238095Y33445180D01*
X55238095Y33445180D02*
X54904762Y33064228D01*
X54904762Y33064228D02*
X55047619Y33064228D01*
X55047619Y33064228D02*
X55142857Y33016609D01*
X55142857Y33016609D02*
X55190476Y32968990D01*
X55190476Y32968990D02*
X55238095Y32873752D01*
X55238095Y32873752D02*
X55238095Y32635657D01*
X55238095Y32635657D02*
X55190476Y32540419D01*
X55190476Y32540419D02*
X55142857Y32492800D01*
X55142857Y32492800D02*
X55047619Y32445180D01*
X55047619Y32445180D02*
X54761905Y32445180D01*
X54761905Y32445180D02*
X54666667Y32492800D01*
X54666667Y32492800D02*
X54619048Y32540419D01*
X29380952Y-27459580D02*
X29333333Y-27507200D01*
X29333333Y-27507200D02*
X29190476Y-27554819D01*
X29190476Y-27554819D02*
X29095238Y-27554819D01*
X29095238Y-27554819D02*
X28952381Y-27507200D01*
X28952381Y-27507200D02*
X28857143Y-27411961D01*
X28857143Y-27411961D02*
X28809524Y-27316723D01*
X28809524Y-27316723D02*
X28761905Y-27126247D01*
X28761905Y-27126247D02*
X28761905Y-26983390D01*
X28761905Y-26983390D02*
X28809524Y-26792914D01*
X28809524Y-26792914D02*
X28857143Y-26697676D01*
X28857143Y-26697676D02*
X28952381Y-26602438D01*
X28952381Y-26602438D02*
X29095238Y-26554819D01*
X29095238Y-26554819D02*
X29190476Y-26554819D01*
X29190476Y-26554819D02*
X29333333Y-26602438D01*
X29333333Y-26602438D02*
X29380952Y-26650057D01*
X30238095Y-26888152D02*
X30238095Y-27554819D01*
X30000000Y-26507200D02*
X29761905Y-27221485D01*
X29761905Y-27221485D02*
X30380952Y-27221485D01*
X30952381Y-26554819D02*
X31047619Y-26554819D01*
X31047619Y-26554819D02*
X31142857Y-26602438D01*
X31142857Y-26602438D02*
X31190476Y-26650057D01*
X31190476Y-26650057D02*
X31238095Y-26745295D01*
X31238095Y-26745295D02*
X31285714Y-26935771D01*
X31285714Y-26935771D02*
X31285714Y-27173866D01*
X31285714Y-27173866D02*
X31238095Y-27364342D01*
X31238095Y-27364342D02*
X31190476Y-27459580D01*
X31190476Y-27459580D02*
X31142857Y-27507200D01*
X31142857Y-27507200D02*
X31047619Y-27554819D01*
X31047619Y-27554819D02*
X30952381Y-27554819D01*
X30952381Y-27554819D02*
X30857143Y-27507200D01*
X30857143Y-27507200D02*
X30809524Y-27459580D01*
X30809524Y-27459580D02*
X30761905Y-27364342D01*
X30761905Y-27364342D02*
X30714286Y-27173866D01*
X30714286Y-27173866D02*
X30714286Y-26935771D01*
X30714286Y-26935771D02*
X30761905Y-26745295D01*
X30761905Y-26745295D02*
X30809524Y-26650057D01*
X30809524Y-26650057D02*
X30857143Y-26602438D01*
X30857143Y-26602438D02*
X30952381Y-26554819D01*
X31619048Y-26554819D02*
X32238095Y-26554819D01*
X32238095Y-26554819D02*
X31904762Y-26935771D01*
X31904762Y-26935771D02*
X32047619Y-26935771D01*
X32047619Y-26935771D02*
X32142857Y-26983390D01*
X32142857Y-26983390D02*
X32190476Y-27031009D01*
X32190476Y-27031009D02*
X32238095Y-27126247D01*
X32238095Y-27126247D02*
X32238095Y-27364342D01*
X32238095Y-27364342D02*
X32190476Y-27459580D01*
X32190476Y-27459580D02*
X32142857Y-27507200D01*
X32142857Y-27507200D02*
X32047619Y-27554819D01*
X32047619Y-27554819D02*
X31761905Y-27554819D01*
X31761905Y-27554819D02*
X31666667Y-27507200D01*
X31666667Y-27507200D02*
X31619048Y-27459580D01*
X26932142Y-74992819D02*
X26598809Y-74516628D01*
X26360714Y-74992819D02*
X26360714Y-73992819D01*
X26360714Y-73992819D02*
X26741666Y-73992819D01*
X26741666Y-73992819D02*
X26836904Y-74040438D01*
X26836904Y-74040438D02*
X26884523Y-74088057D01*
X26884523Y-74088057D02*
X26932142Y-74183295D01*
X26932142Y-74183295D02*
X26932142Y-74326152D01*
X26932142Y-74326152D02*
X26884523Y-74421390D01*
X26884523Y-74421390D02*
X26836904Y-74469009D01*
X26836904Y-74469009D02*
X26741666Y-74516628D01*
X26741666Y-74516628D02*
X26360714Y-74516628D01*
X27884523Y-74040438D02*
X27789285Y-73992819D01*
X27789285Y-73992819D02*
X27646428Y-73992819D01*
X27646428Y-73992819D02*
X27503571Y-74040438D01*
X27503571Y-74040438D02*
X27408333Y-74135676D01*
X27408333Y-74135676D02*
X27360714Y-74230914D01*
X27360714Y-74230914D02*
X27313095Y-74421390D01*
X27313095Y-74421390D02*
X27313095Y-74564247D01*
X27313095Y-74564247D02*
X27360714Y-74754723D01*
X27360714Y-74754723D02*
X27408333Y-74849961D01*
X27408333Y-74849961D02*
X27503571Y-74945200D01*
X27503571Y-74945200D02*
X27646428Y-74992819D01*
X27646428Y-74992819D02*
X27741666Y-74992819D01*
X27741666Y-74992819D02*
X27884523Y-74945200D01*
X27884523Y-74945200D02*
X27932142Y-74897580D01*
X27932142Y-74897580D02*
X27932142Y-74564247D01*
X27932142Y-74564247D02*
X27741666Y-74564247D01*
X28694047Y-74469009D02*
X28836904Y-74516628D01*
X28836904Y-74516628D02*
X28884523Y-74564247D01*
X28884523Y-74564247D02*
X28932142Y-74659485D01*
X28932142Y-74659485D02*
X28932142Y-74802342D01*
X28932142Y-74802342D02*
X28884523Y-74897580D01*
X28884523Y-74897580D02*
X28836904Y-74945200D01*
X28836904Y-74945200D02*
X28741666Y-74992819D01*
X28741666Y-74992819D02*
X28360714Y-74992819D01*
X28360714Y-74992819D02*
X28360714Y-73992819D01*
X28360714Y-73992819D02*
X28694047Y-73992819D01*
X28694047Y-73992819D02*
X28789285Y-74040438D01*
X28789285Y-74040438D02*
X28836904Y-74088057D01*
X28836904Y-74088057D02*
X28884523Y-74183295D01*
X28884523Y-74183295D02*
X28884523Y-74278533D01*
X28884523Y-74278533D02*
X28836904Y-74373771D01*
X28836904Y-74373771D02*
X28789285Y-74421390D01*
X28789285Y-74421390D02*
X28694047Y-74469009D01*
X28694047Y-74469009D02*
X28360714Y-74469009D01*
X29884523Y-74992819D02*
X29313095Y-74992819D01*
X29598809Y-74992819D02*
X29598809Y-73992819D01*
X29598809Y-73992819D02*
X29503571Y-74135676D01*
X29503571Y-74135676D02*
X29408333Y-74230914D01*
X29408333Y-74230914D02*
X29313095Y-74278533D01*
X30217857Y-73992819D02*
X30836904Y-73992819D01*
X30836904Y-73992819D02*
X30503571Y-74373771D01*
X30503571Y-74373771D02*
X30646428Y-74373771D01*
X30646428Y-74373771D02*
X30741666Y-74421390D01*
X30741666Y-74421390D02*
X30789285Y-74469009D01*
X30789285Y-74469009D02*
X30836904Y-74564247D01*
X30836904Y-74564247D02*
X30836904Y-74802342D01*
X30836904Y-74802342D02*
X30789285Y-74897580D01*
X30789285Y-74897580D02*
X30741666Y-74945200D01*
X30741666Y-74945200D02*
X30646428Y-74992819D01*
X30646428Y-74992819D02*
X30360714Y-74992819D01*
X30360714Y-74992819D02*
X30265476Y-74945200D01*
X30265476Y-74945200D02*
X30217857Y-74897580D01*
X84082142Y-55942819D02*
X83748809Y-55466628D01*
X83510714Y-55942819D02*
X83510714Y-54942819D01*
X83510714Y-54942819D02*
X83891666Y-54942819D01*
X83891666Y-54942819D02*
X83986904Y-54990438D01*
X83986904Y-54990438D02*
X84034523Y-55038057D01*
X84034523Y-55038057D02*
X84082142Y-55133295D01*
X84082142Y-55133295D02*
X84082142Y-55276152D01*
X84082142Y-55276152D02*
X84034523Y-55371390D01*
X84034523Y-55371390D02*
X83986904Y-55419009D01*
X83986904Y-55419009D02*
X83891666Y-55466628D01*
X83891666Y-55466628D02*
X83510714Y-55466628D01*
X85034523Y-54990438D02*
X84939285Y-54942819D01*
X84939285Y-54942819D02*
X84796428Y-54942819D01*
X84796428Y-54942819D02*
X84653571Y-54990438D01*
X84653571Y-54990438D02*
X84558333Y-55085676D01*
X84558333Y-55085676D02*
X84510714Y-55180914D01*
X84510714Y-55180914D02*
X84463095Y-55371390D01*
X84463095Y-55371390D02*
X84463095Y-55514247D01*
X84463095Y-55514247D02*
X84510714Y-55704723D01*
X84510714Y-55704723D02*
X84558333Y-55799961D01*
X84558333Y-55799961D02*
X84653571Y-55895200D01*
X84653571Y-55895200D02*
X84796428Y-55942819D01*
X84796428Y-55942819D02*
X84891666Y-55942819D01*
X84891666Y-55942819D02*
X85034523Y-55895200D01*
X85034523Y-55895200D02*
X85082142Y-55847580D01*
X85082142Y-55847580D02*
X85082142Y-55514247D01*
X85082142Y-55514247D02*
X84891666Y-55514247D01*
X85844047Y-55419009D02*
X85986904Y-55466628D01*
X85986904Y-55466628D02*
X86034523Y-55514247D01*
X86034523Y-55514247D02*
X86082142Y-55609485D01*
X86082142Y-55609485D02*
X86082142Y-55752342D01*
X86082142Y-55752342D02*
X86034523Y-55847580D01*
X86034523Y-55847580D02*
X85986904Y-55895200D01*
X85986904Y-55895200D02*
X85891666Y-55942819D01*
X85891666Y-55942819D02*
X85510714Y-55942819D01*
X85510714Y-55942819D02*
X85510714Y-54942819D01*
X85510714Y-54942819D02*
X85844047Y-54942819D01*
X85844047Y-54942819D02*
X85939285Y-54990438D01*
X85939285Y-54990438D02*
X85986904Y-55038057D01*
X85986904Y-55038057D02*
X86034523Y-55133295D01*
X86034523Y-55133295D02*
X86034523Y-55228533D01*
X86034523Y-55228533D02*
X85986904Y-55323771D01*
X85986904Y-55323771D02*
X85939285Y-55371390D01*
X85939285Y-55371390D02*
X85844047Y-55419009D01*
X85844047Y-55419009D02*
X85510714Y-55419009D01*
X87034523Y-55942819D02*
X86463095Y-55942819D01*
X86748809Y-55942819D02*
X86748809Y-54942819D01*
X86748809Y-54942819D02*
X86653571Y-55085676D01*
X86653571Y-55085676D02*
X86558333Y-55180914D01*
X86558333Y-55180914D02*
X86463095Y-55228533D01*
X87986904Y-55942819D02*
X87415476Y-55942819D01*
X87701190Y-55942819D02*
X87701190Y-54942819D01*
X87701190Y-54942819D02*
X87605952Y-55085676D01*
X87605952Y-55085676D02*
X87510714Y-55180914D01*
X87510714Y-55180914D02*
X87415476Y-55228533D01*
X45815476Y-82894200D02*
X45958333Y-82941819D01*
X45958333Y-82941819D02*
X46196428Y-82941819D01*
X46196428Y-82941819D02*
X46291666Y-82894200D01*
X46291666Y-82894200D02*
X46339285Y-82846580D01*
X46339285Y-82846580D02*
X46386904Y-82751342D01*
X46386904Y-82751342D02*
X46386904Y-82656104D01*
X46386904Y-82656104D02*
X46339285Y-82560866D01*
X46339285Y-82560866D02*
X46291666Y-82513247D01*
X46291666Y-82513247D02*
X46196428Y-82465628D01*
X46196428Y-82465628D02*
X46005952Y-82418009D01*
X46005952Y-82418009D02*
X45910714Y-82370390D01*
X45910714Y-82370390D02*
X45863095Y-82322771D01*
X45863095Y-82322771D02*
X45815476Y-82227533D01*
X45815476Y-82227533D02*
X45815476Y-82132295D01*
X45815476Y-82132295D02*
X45863095Y-82037057D01*
X45863095Y-82037057D02*
X45910714Y-81989438D01*
X45910714Y-81989438D02*
X46005952Y-81941819D01*
X46005952Y-81941819D02*
X46244047Y-81941819D01*
X46244047Y-81941819D02*
X46386904Y-81989438D01*
X46720238Y-81941819D02*
X46958333Y-82941819D01*
X46958333Y-82941819D02*
X47148809Y-82227533D01*
X47148809Y-82227533D02*
X47339285Y-82941819D01*
X47339285Y-82941819D02*
X47577381Y-81941819D01*
X48482142Y-82941819D02*
X47910714Y-82941819D01*
X48196428Y-82941819D02*
X48196428Y-81941819D01*
X48196428Y-81941819D02*
X48101190Y-82084676D01*
X48101190Y-82084676D02*
X48005952Y-82179914D01*
X48005952Y-82179914D02*
X47910714Y-82227533D01*
X48958333Y-82941819D02*
X49148809Y-82941819D01*
X49148809Y-82941819D02*
X49244047Y-82894200D01*
X49244047Y-82894200D02*
X49291666Y-82846580D01*
X49291666Y-82846580D02*
X49386904Y-82703723D01*
X49386904Y-82703723D02*
X49434523Y-82513247D01*
X49434523Y-82513247D02*
X49434523Y-82132295D01*
X49434523Y-82132295D02*
X49386904Y-82037057D01*
X49386904Y-82037057D02*
X49339285Y-81989438D01*
X49339285Y-81989438D02*
X49244047Y-81941819D01*
X49244047Y-81941819D02*
X49053571Y-81941819D01*
X49053571Y-81941819D02*
X48958333Y-81989438D01*
X48958333Y-81989438D02*
X48910714Y-82037057D01*
X48910714Y-82037057D02*
X48863095Y-82132295D01*
X48863095Y-82132295D02*
X48863095Y-82370390D01*
X48863095Y-82370390D02*
X48910714Y-82465628D01*
X48910714Y-82465628D02*
X48958333Y-82513247D01*
X48958333Y-82513247D02*
X49053571Y-82560866D01*
X49053571Y-82560866D02*
X49244047Y-82560866D01*
X49244047Y-82560866D02*
X49339285Y-82513247D01*
X49339285Y-82513247D02*
X49386904Y-82465628D01*
X49386904Y-82465628D02*
X49434523Y-82370390D01*
X64865476Y-101945200D02*
X65008333Y-101992819D01*
X65008333Y-101992819D02*
X65246428Y-101992819D01*
X65246428Y-101992819D02*
X65341666Y-101945200D01*
X65341666Y-101945200D02*
X65389285Y-101897580D01*
X65389285Y-101897580D02*
X65436904Y-101802342D01*
X65436904Y-101802342D02*
X65436904Y-101707104D01*
X65436904Y-101707104D02*
X65389285Y-101611866D01*
X65389285Y-101611866D02*
X65341666Y-101564247D01*
X65341666Y-101564247D02*
X65246428Y-101516628D01*
X65246428Y-101516628D02*
X65055952Y-101469009D01*
X65055952Y-101469009D02*
X64960714Y-101421390D01*
X64960714Y-101421390D02*
X64913095Y-101373771D01*
X64913095Y-101373771D02*
X64865476Y-101278533D01*
X64865476Y-101278533D02*
X64865476Y-101183295D01*
X64865476Y-101183295D02*
X64913095Y-101088057D01*
X64913095Y-101088057D02*
X64960714Y-101040438D01*
X64960714Y-101040438D02*
X65055952Y-100992819D01*
X65055952Y-100992819D02*
X65294047Y-100992819D01*
X65294047Y-100992819D02*
X65436904Y-101040438D01*
X65770238Y-100992819D02*
X66008333Y-101992819D01*
X66008333Y-101992819D02*
X66198809Y-101278533D01*
X66198809Y-101278533D02*
X66389285Y-101992819D01*
X66389285Y-101992819D02*
X66627381Y-100992819D01*
X66960714Y-101088057D02*
X67008333Y-101040438D01*
X67008333Y-101040438D02*
X67103571Y-100992819D01*
X67103571Y-100992819D02*
X67341666Y-100992819D01*
X67341666Y-100992819D02*
X67436904Y-101040438D01*
X67436904Y-101040438D02*
X67484523Y-101088057D01*
X67484523Y-101088057D02*
X67532142Y-101183295D01*
X67532142Y-101183295D02*
X67532142Y-101278533D01*
X67532142Y-101278533D02*
X67484523Y-101421390D01*
X67484523Y-101421390D02*
X66913095Y-101992819D01*
X66913095Y-101992819D02*
X67532142Y-101992819D01*
X68436904Y-100992819D02*
X67960714Y-100992819D01*
X67960714Y-100992819D02*
X67913095Y-101469009D01*
X67913095Y-101469009D02*
X67960714Y-101421390D01*
X67960714Y-101421390D02*
X68055952Y-101373771D01*
X68055952Y-101373771D02*
X68294047Y-101373771D01*
X68294047Y-101373771D02*
X68389285Y-101421390D01*
X68389285Y-101421390D02*
X68436904Y-101469009D01*
X68436904Y-101469009D02*
X68484523Y-101564247D01*
X68484523Y-101564247D02*
X68484523Y-101802342D01*
X68484523Y-101802342D02*
X68436904Y-101897580D01*
X68436904Y-101897580D02*
X68389285Y-101945200D01*
X68389285Y-101945200D02*
X68294047Y-101992819D01*
X68294047Y-101992819D02*
X68055952Y-101992819D01*
X68055952Y-101992819D02*
X67960714Y-101945200D01*
X67960714Y-101945200D02*
X67913095Y-101897580D01*
X8191667Y-44795200D02*
X8334524Y-44842819D01*
X8334524Y-44842819D02*
X8572619Y-44842819D01*
X8572619Y-44842819D02*
X8667857Y-44795200D01*
X8667857Y-44795200D02*
X8715476Y-44747580D01*
X8715476Y-44747580D02*
X8763095Y-44652342D01*
X8763095Y-44652342D02*
X8763095Y-44557104D01*
X8763095Y-44557104D02*
X8715476Y-44461866D01*
X8715476Y-44461866D02*
X8667857Y-44414247D01*
X8667857Y-44414247D02*
X8572619Y-44366628D01*
X8572619Y-44366628D02*
X8382143Y-44319009D01*
X8382143Y-44319009D02*
X8286905Y-44271390D01*
X8286905Y-44271390D02*
X8239286Y-44223771D01*
X8239286Y-44223771D02*
X8191667Y-44128533D01*
X8191667Y-44128533D02*
X8191667Y-44033295D01*
X8191667Y-44033295D02*
X8239286Y-43938057D01*
X8239286Y-43938057D02*
X8286905Y-43890438D01*
X8286905Y-43890438D02*
X8382143Y-43842819D01*
X8382143Y-43842819D02*
X8620238Y-43842819D01*
X8620238Y-43842819D02*
X8763095Y-43890438D01*
X9096429Y-43842819D02*
X9334524Y-44842819D01*
X9334524Y-44842819D02*
X9525000Y-44128533D01*
X9525000Y-44128533D02*
X9715476Y-44842819D01*
X9715476Y-44842819D02*
X9953572Y-43842819D01*
X10239286Y-43842819D02*
X10905952Y-43842819D01*
X10905952Y-43842819D02*
X10477381Y-44842819D01*
X-761904Y-115254819D02*
X-761904Y-114254819D01*
X-761904Y-114731009D02*
X-190476Y-114731009D01*
X-190476Y-115254819D02*
X-190476Y-114254819D01*
X190476Y-114254819D02*
X809523Y-114254819D01*
X809523Y-114254819D02*
X476190Y-114635771D01*
X476190Y-114635771D02*
X619047Y-114635771D01*
X619047Y-114635771D02*
X714285Y-114683390D01*
X714285Y-114683390D02*
X761904Y-114731009D01*
X761904Y-114731009D02*
X809523Y-114826247D01*
X809523Y-114826247D02*
X809523Y-115064342D01*
X809523Y-115064342D02*
X761904Y-115159580D01*
X761904Y-115159580D02*
X714285Y-115207200D01*
X714285Y-115207200D02*
X619047Y-115254819D01*
X619047Y-115254819D02*
X333333Y-115254819D01*
X333333Y-115254819D02*
X238095Y-115207200D01*
X238095Y-115207200D02*
X190476Y-115159580D01*
X65032142Y-113092819D02*
X64698809Y-112616628D01*
X64460714Y-113092819D02*
X64460714Y-112092819D01*
X64460714Y-112092819D02*
X64841666Y-112092819D01*
X64841666Y-112092819D02*
X64936904Y-112140438D01*
X64936904Y-112140438D02*
X64984523Y-112188057D01*
X64984523Y-112188057D02*
X65032142Y-112283295D01*
X65032142Y-112283295D02*
X65032142Y-112426152D01*
X65032142Y-112426152D02*
X64984523Y-112521390D01*
X64984523Y-112521390D02*
X64936904Y-112569009D01*
X64936904Y-112569009D02*
X64841666Y-112616628D01*
X64841666Y-112616628D02*
X64460714Y-112616628D01*
X65984523Y-112140438D02*
X65889285Y-112092819D01*
X65889285Y-112092819D02*
X65746428Y-112092819D01*
X65746428Y-112092819D02*
X65603571Y-112140438D01*
X65603571Y-112140438D02*
X65508333Y-112235676D01*
X65508333Y-112235676D02*
X65460714Y-112330914D01*
X65460714Y-112330914D02*
X65413095Y-112521390D01*
X65413095Y-112521390D02*
X65413095Y-112664247D01*
X65413095Y-112664247D02*
X65460714Y-112854723D01*
X65460714Y-112854723D02*
X65508333Y-112949961D01*
X65508333Y-112949961D02*
X65603571Y-113045200D01*
X65603571Y-113045200D02*
X65746428Y-113092819D01*
X65746428Y-113092819D02*
X65841666Y-113092819D01*
X65841666Y-113092819D02*
X65984523Y-113045200D01*
X65984523Y-113045200D02*
X66032142Y-112997580D01*
X66032142Y-112997580D02*
X66032142Y-112664247D01*
X66032142Y-112664247D02*
X65841666Y-112664247D01*
X66794047Y-112569009D02*
X66936904Y-112616628D01*
X66936904Y-112616628D02*
X66984523Y-112664247D01*
X66984523Y-112664247D02*
X67032142Y-112759485D01*
X67032142Y-112759485D02*
X67032142Y-112902342D01*
X67032142Y-112902342D02*
X66984523Y-112997580D01*
X66984523Y-112997580D02*
X66936904Y-113045200D01*
X66936904Y-113045200D02*
X66841666Y-113092819D01*
X66841666Y-113092819D02*
X66460714Y-113092819D01*
X66460714Y-113092819D02*
X66460714Y-112092819D01*
X66460714Y-112092819D02*
X66794047Y-112092819D01*
X66794047Y-112092819D02*
X66889285Y-112140438D01*
X66889285Y-112140438D02*
X66936904Y-112188057D01*
X66936904Y-112188057D02*
X66984523Y-112283295D01*
X66984523Y-112283295D02*
X66984523Y-112378533D01*
X66984523Y-112378533D02*
X66936904Y-112473771D01*
X66936904Y-112473771D02*
X66889285Y-112521390D01*
X66889285Y-112521390D02*
X66794047Y-112569009D01*
X66794047Y-112569009D02*
X66460714Y-112569009D01*
X67413095Y-112188057D02*
X67460714Y-112140438D01*
X67460714Y-112140438D02*
X67555952Y-112092819D01*
X67555952Y-112092819D02*
X67794047Y-112092819D01*
X67794047Y-112092819D02*
X67889285Y-112140438D01*
X67889285Y-112140438D02*
X67936904Y-112188057D01*
X67936904Y-112188057D02*
X67984523Y-112283295D01*
X67984523Y-112283295D02*
X67984523Y-112378533D01*
X67984523Y-112378533D02*
X67936904Y-112521390D01*
X67936904Y-112521390D02*
X67365476Y-113092819D01*
X67365476Y-113092819D02*
X67984523Y-113092819D01*
X68889285Y-112092819D02*
X68413095Y-112092819D01*
X68413095Y-112092819D02*
X68365476Y-112569009D01*
X68365476Y-112569009D02*
X68413095Y-112521390D01*
X68413095Y-112521390D02*
X68508333Y-112473771D01*
X68508333Y-112473771D02*
X68746428Y-112473771D01*
X68746428Y-112473771D02*
X68841666Y-112521390D01*
X68841666Y-112521390D02*
X68889285Y-112569009D01*
X68889285Y-112569009D02*
X68936904Y-112664247D01*
X68936904Y-112664247D02*
X68936904Y-112902342D01*
X68936904Y-112902342D02*
X68889285Y-112997580D01*
X68889285Y-112997580D02*
X68841666Y-113045200D01*
X68841666Y-113045200D02*
X68746428Y-113092819D01*
X68746428Y-113092819D02*
X68508333Y-113092819D01*
X68508333Y-113092819D02*
X68413095Y-113045200D01*
X68413095Y-113045200D02*
X68365476Y-112997580D01*
X40880952Y-19254819D02*
X40547619Y-18778628D01*
X40309524Y-19254819D02*
X40309524Y-18254819D01*
X40309524Y-18254819D02*
X40690476Y-18254819D01*
X40690476Y-18254819D02*
X40785714Y-18302438D01*
X40785714Y-18302438D02*
X40833333Y-18350057D01*
X40833333Y-18350057D02*
X40880952Y-18445295D01*
X40880952Y-18445295D02*
X40880952Y-18588152D01*
X40880952Y-18588152D02*
X40833333Y-18683390D01*
X40833333Y-18683390D02*
X40785714Y-18731009D01*
X40785714Y-18731009D02*
X40690476Y-18778628D01*
X40690476Y-18778628D02*
X40309524Y-18778628D01*
X41738095Y-18588152D02*
X41738095Y-19254819D01*
X41500000Y-18207200D02*
X41261905Y-18921485D01*
X41261905Y-18921485D02*
X41880952Y-18921485D01*
X42452381Y-18254819D02*
X42547619Y-18254819D01*
X42547619Y-18254819D02*
X42642857Y-18302438D01*
X42642857Y-18302438D02*
X42690476Y-18350057D01*
X42690476Y-18350057D02*
X42738095Y-18445295D01*
X42738095Y-18445295D02*
X42785714Y-18635771D01*
X42785714Y-18635771D02*
X42785714Y-18873866D01*
X42785714Y-18873866D02*
X42738095Y-19064342D01*
X42738095Y-19064342D02*
X42690476Y-19159580D01*
X42690476Y-19159580D02*
X42642857Y-19207200D01*
X42642857Y-19207200D02*
X42547619Y-19254819D01*
X42547619Y-19254819D02*
X42452381Y-19254819D01*
X42452381Y-19254819D02*
X42357143Y-19207200D01*
X42357143Y-19207200D02*
X42309524Y-19159580D01*
X42309524Y-19159580D02*
X42261905Y-19064342D01*
X42261905Y-19064342D02*
X42214286Y-18873866D01*
X42214286Y-18873866D02*
X42214286Y-18635771D01*
X42214286Y-18635771D02*
X42261905Y-18445295D01*
X42261905Y-18445295D02*
X42309524Y-18350057D01*
X42309524Y-18350057D02*
X42357143Y-18302438D01*
X42357143Y-18302438D02*
X42452381Y-18254819D01*
X43642857Y-18254819D02*
X43452381Y-18254819D01*
X43452381Y-18254819D02*
X43357143Y-18302438D01*
X43357143Y-18302438D02*
X43309524Y-18350057D01*
X43309524Y-18350057D02*
X43214286Y-18492914D01*
X43214286Y-18492914D02*
X43166667Y-18683390D01*
X43166667Y-18683390D02*
X43166667Y-19064342D01*
X43166667Y-19064342D02*
X43214286Y-19159580D01*
X43214286Y-19159580D02*
X43261905Y-19207200D01*
X43261905Y-19207200D02*
X43357143Y-19254819D01*
X43357143Y-19254819D02*
X43547619Y-19254819D01*
X43547619Y-19254819D02*
X43642857Y-19207200D01*
X43642857Y-19207200D02*
X43690476Y-19159580D01*
X43690476Y-19159580D02*
X43738095Y-19064342D01*
X43738095Y-19064342D02*
X43738095Y-18826247D01*
X43738095Y-18826247D02*
X43690476Y-18731009D01*
X43690476Y-18731009D02*
X43642857Y-18683390D01*
X43642857Y-18683390D02*
X43547619Y-18635771D01*
X43547619Y-18635771D02*
X43357143Y-18635771D01*
X43357143Y-18635771D02*
X43261905Y-18683390D01*
X43261905Y-18683390D02*
X43214286Y-18731009D01*
X43214286Y-18731009D02*
X43166667Y-18826247D01*
X7715476Y-101945200D02*
X7858333Y-101992819D01*
X7858333Y-101992819D02*
X8096428Y-101992819D01*
X8096428Y-101992819D02*
X8191666Y-101945200D01*
X8191666Y-101945200D02*
X8239285Y-101897580D01*
X8239285Y-101897580D02*
X8286904Y-101802342D01*
X8286904Y-101802342D02*
X8286904Y-101707104D01*
X8286904Y-101707104D02*
X8239285Y-101611866D01*
X8239285Y-101611866D02*
X8191666Y-101564247D01*
X8191666Y-101564247D02*
X8096428Y-101516628D01*
X8096428Y-101516628D02*
X7905952Y-101469009D01*
X7905952Y-101469009D02*
X7810714Y-101421390D01*
X7810714Y-101421390D02*
X7763095Y-101373771D01*
X7763095Y-101373771D02*
X7715476Y-101278533D01*
X7715476Y-101278533D02*
X7715476Y-101183295D01*
X7715476Y-101183295D02*
X7763095Y-101088057D01*
X7763095Y-101088057D02*
X7810714Y-101040438D01*
X7810714Y-101040438D02*
X7905952Y-100992819D01*
X7905952Y-100992819D02*
X8144047Y-100992819D01*
X8144047Y-100992819D02*
X8286904Y-101040438D01*
X8620238Y-100992819D02*
X8858333Y-101992819D01*
X8858333Y-101992819D02*
X9048809Y-101278533D01*
X9048809Y-101278533D02*
X9239285Y-101992819D01*
X9239285Y-101992819D02*
X9477381Y-100992819D01*
X9810714Y-101088057D02*
X9858333Y-101040438D01*
X9858333Y-101040438D02*
X9953571Y-100992819D01*
X9953571Y-100992819D02*
X10191666Y-100992819D01*
X10191666Y-100992819D02*
X10286904Y-101040438D01*
X10286904Y-101040438D02*
X10334523Y-101088057D01*
X10334523Y-101088057D02*
X10382142Y-101183295D01*
X10382142Y-101183295D02*
X10382142Y-101278533D01*
X10382142Y-101278533D02*
X10334523Y-101421390D01*
X10334523Y-101421390D02*
X9763095Y-101992819D01*
X9763095Y-101992819D02*
X10382142Y-101992819D01*
X10763095Y-101088057D02*
X10810714Y-101040438D01*
X10810714Y-101040438D02*
X10905952Y-100992819D01*
X10905952Y-100992819D02*
X11144047Y-100992819D01*
X11144047Y-100992819D02*
X11239285Y-101040438D01*
X11239285Y-101040438D02*
X11286904Y-101088057D01*
X11286904Y-101088057D02*
X11334523Y-101183295D01*
X11334523Y-101183295D02*
X11334523Y-101278533D01*
X11334523Y-101278533D02*
X11286904Y-101421390D01*
X11286904Y-101421390D02*
X10715476Y-101992819D01*
X10715476Y-101992819D02*
X11334523Y-101992819D01*
X8191667Y-1932200D02*
X8334524Y-1979819D01*
X8334524Y-1979819D02*
X8572619Y-1979819D01*
X8572619Y-1979819D02*
X8667857Y-1932200D01*
X8667857Y-1932200D02*
X8715476Y-1884580D01*
X8715476Y-1884580D02*
X8763095Y-1789342D01*
X8763095Y-1789342D02*
X8763095Y-1694104D01*
X8763095Y-1694104D02*
X8715476Y-1598866D01*
X8715476Y-1598866D02*
X8667857Y-1551247D01*
X8667857Y-1551247D02*
X8572619Y-1503628D01*
X8572619Y-1503628D02*
X8382143Y-1456009D01*
X8382143Y-1456009D02*
X8286905Y-1408390D01*
X8286905Y-1408390D02*
X8239286Y-1360771D01*
X8239286Y-1360771D02*
X8191667Y-1265533D01*
X8191667Y-1265533D02*
X8191667Y-1170295D01*
X8191667Y-1170295D02*
X8239286Y-1075057D01*
X8239286Y-1075057D02*
X8286905Y-1027438D01*
X8286905Y-1027438D02*
X8382143Y-979819D01*
X8382143Y-979819D02*
X8620238Y-979819D01*
X8620238Y-979819D02*
X8763095Y-1027438D01*
X9096429Y-979819D02*
X9334524Y-1979819D01*
X9334524Y-1979819D02*
X9525000Y-1265533D01*
X9525000Y-1265533D02*
X9715476Y-1979819D01*
X9715476Y-1979819D02*
X9953572Y-979819D01*
X10858333Y-1979819D02*
X10286905Y-1979819D01*
X10572619Y-1979819D02*
X10572619Y-979819D01*
X10572619Y-979819D02*
X10477381Y-1122676D01*
X10477381Y-1122676D02*
X10382143Y-1217914D01*
X10382143Y-1217914D02*
X10286905Y-1265533D01*
X-761904Y39745180D02*
X-761904Y40745180D01*
X-761904Y40268990D02*
X-190476Y40268990D01*
X-190476Y39745180D02*
X-190476Y40745180D01*
X809523Y39745180D02*
X238095Y39745180D01*
X523809Y39745180D02*
X523809Y40745180D01*
X523809Y40745180D02*
X428571Y40602323D01*
X428571Y40602323D02*
X333333Y40507085D01*
X333333Y40507085D02*
X238095Y40459466D01*
X64865476Y-63845200D02*
X65008333Y-63892819D01*
X65008333Y-63892819D02*
X65246428Y-63892819D01*
X65246428Y-63892819D02*
X65341666Y-63845200D01*
X65341666Y-63845200D02*
X65389285Y-63797580D01*
X65389285Y-63797580D02*
X65436904Y-63702342D01*
X65436904Y-63702342D02*
X65436904Y-63607104D01*
X65436904Y-63607104D02*
X65389285Y-63511866D01*
X65389285Y-63511866D02*
X65341666Y-63464247D01*
X65341666Y-63464247D02*
X65246428Y-63416628D01*
X65246428Y-63416628D02*
X65055952Y-63369009D01*
X65055952Y-63369009D02*
X64960714Y-63321390D01*
X64960714Y-63321390D02*
X64913095Y-63273771D01*
X64913095Y-63273771D02*
X64865476Y-63178533D01*
X64865476Y-63178533D02*
X64865476Y-63083295D01*
X64865476Y-63083295D02*
X64913095Y-62988057D01*
X64913095Y-62988057D02*
X64960714Y-62940438D01*
X64960714Y-62940438D02*
X65055952Y-62892819D01*
X65055952Y-62892819D02*
X65294047Y-62892819D01*
X65294047Y-62892819D02*
X65436904Y-62940438D01*
X65770238Y-62892819D02*
X66008333Y-63892819D01*
X66008333Y-63892819D02*
X66198809Y-63178533D01*
X66198809Y-63178533D02*
X66389285Y-63892819D01*
X66389285Y-63892819D02*
X66627381Y-62892819D01*
X67532142Y-63892819D02*
X66960714Y-63892819D01*
X67246428Y-63892819D02*
X67246428Y-62892819D01*
X67246428Y-62892819D02*
X67151190Y-63035676D01*
X67151190Y-63035676D02*
X67055952Y-63130914D01*
X67055952Y-63130914D02*
X66960714Y-63178533D01*
X68436904Y-62892819D02*
X67960714Y-62892819D01*
X67960714Y-62892819D02*
X67913095Y-63369009D01*
X67913095Y-63369009D02*
X67960714Y-63321390D01*
X67960714Y-63321390D02*
X68055952Y-63273771D01*
X68055952Y-63273771D02*
X68294047Y-63273771D01*
X68294047Y-63273771D02*
X68389285Y-63321390D01*
X68389285Y-63321390D02*
X68436904Y-63369009D01*
X68436904Y-63369009D02*
X68484523Y-63464247D01*
X68484523Y-63464247D02*
X68484523Y-63702342D01*
X68484523Y-63702342D02*
X68436904Y-63797580D01*
X68436904Y-63797580D02*
X68389285Y-63845200D01*
X68389285Y-63845200D02*
X68294047Y-63892819D01*
X68294047Y-63892819D02*
X68055952Y-63892819D01*
X68055952Y-63892819D02*
X67960714Y-63845200D01*
X67960714Y-63845200D02*
X67913095Y-63797580D01*
X49839285Y30945180D02*
X49839285Y30230895D01*
X49839285Y30230895D02*
X49791666Y30088038D01*
X49791666Y30088038D02*
X49696428Y29992800D01*
X49696428Y29992800D02*
X49553571Y29945180D01*
X49553571Y29945180D02*
X49458333Y29945180D01*
X50744047Y30611847D02*
X50744047Y29945180D01*
X50505952Y30992800D02*
X50267857Y30278514D01*
X50267857Y30278514D02*
X50886904Y30278514D01*
X51458333Y30945180D02*
X51553571Y30945180D01*
X51553571Y30945180D02*
X51648809Y30897561D01*
X51648809Y30897561D02*
X51696428Y30849942D01*
X51696428Y30849942D02*
X51744047Y30754704D01*
X51744047Y30754704D02*
X51791666Y30564228D01*
X51791666Y30564228D02*
X51791666Y30326133D01*
X51791666Y30326133D02*
X51744047Y30135657D01*
X51744047Y30135657D02*
X51696428Y30040419D01*
X51696428Y30040419D02*
X51648809Y29992800D01*
X51648809Y29992800D02*
X51553571Y29945180D01*
X51553571Y29945180D02*
X51458333Y29945180D01*
X51458333Y29945180D02*
X51363095Y29992800D01*
X51363095Y29992800D02*
X51315476Y30040419D01*
X51315476Y30040419D02*
X51267857Y30135657D01*
X51267857Y30135657D02*
X51220238Y30326133D01*
X51220238Y30326133D02*
X51220238Y30564228D01*
X51220238Y30564228D02*
X51267857Y30754704D01*
X51267857Y30754704D02*
X51315476Y30849942D01*
X51315476Y30849942D02*
X51363095Y30897561D01*
X51363095Y30897561D02*
X51458333Y30945180D01*
X52172619Y30849942D02*
X52220238Y30897561D01*
X52220238Y30897561D02*
X52315476Y30945180D01*
X52315476Y30945180D02*
X52553571Y30945180D01*
X52553571Y30945180D02*
X52648809Y30897561D01*
X52648809Y30897561D02*
X52696428Y30849942D01*
X52696428Y30849942D02*
X52744047Y30754704D01*
X52744047Y30754704D02*
X52744047Y30659466D01*
X52744047Y30659466D02*
X52696428Y30516609D01*
X52696428Y30516609D02*
X52125000Y29945180D01*
X52125000Y29945180D02*
X52744047Y29945180D01*
X93714285Y21545180D02*
X93714285Y20830895D01*
X93714285Y20830895D02*
X93666666Y20688038D01*
X93666666Y20688038D02*
X93571428Y20592800D01*
X93571428Y20592800D02*
X93428571Y20545180D01*
X93428571Y20545180D02*
X93333333Y20545180D01*
X94095238Y21545180D02*
X94714285Y21545180D01*
X94714285Y21545180D02*
X94380952Y21164228D01*
X94380952Y21164228D02*
X94523809Y21164228D01*
X94523809Y21164228D02*
X94619047Y21116609D01*
X94619047Y21116609D02*
X94666666Y21068990D01*
X94666666Y21068990D02*
X94714285Y20973752D01*
X94714285Y20973752D02*
X94714285Y20735657D01*
X94714285Y20735657D02*
X94666666Y20640419D01*
X94666666Y20640419D02*
X94619047Y20592800D01*
X94619047Y20592800D02*
X94523809Y20545180D01*
X94523809Y20545180D02*
X94238095Y20545180D01*
X94238095Y20545180D02*
X94142857Y20592800D01*
X94142857Y20592800D02*
X94095238Y20640419D01*
X95333333Y21545180D02*
X95428571Y21545180D01*
X95428571Y21545180D02*
X95523809Y21497561D01*
X95523809Y21497561D02*
X95571428Y21449942D01*
X95571428Y21449942D02*
X95619047Y21354704D01*
X95619047Y21354704D02*
X95666666Y21164228D01*
X95666666Y21164228D02*
X95666666Y20926133D01*
X95666666Y20926133D02*
X95619047Y20735657D01*
X95619047Y20735657D02*
X95571428Y20640419D01*
X95571428Y20640419D02*
X95523809Y20592800D01*
X95523809Y20592800D02*
X95428571Y20545180D01*
X95428571Y20545180D02*
X95333333Y20545180D01*
X95333333Y20545180D02*
X95238095Y20592800D01*
X95238095Y20592800D02*
X95190476Y20640419D01*
X95190476Y20640419D02*
X95142857Y20735657D01*
X95142857Y20735657D02*
X95095238Y20926133D01*
X95095238Y20926133D02*
X95095238Y21164228D01*
X95095238Y21164228D02*
X95142857Y21354704D01*
X95142857Y21354704D02*
X95190476Y21449942D01*
X95190476Y21449942D02*
X95238095Y21497561D01*
X95238095Y21497561D02*
X95333333Y21545180D01*
X96047619Y21449942D02*
X96095238Y21497561D01*
X96095238Y21497561D02*
X96190476Y21545180D01*
X96190476Y21545180D02*
X96428571Y21545180D01*
X96428571Y21545180D02*
X96523809Y21497561D01*
X96523809Y21497561D02*
X96571428Y21449942D01*
X96571428Y21449942D02*
X96619047Y21354704D01*
X96619047Y21354704D02*
X96619047Y21259466D01*
X96619047Y21259466D02*
X96571428Y21116609D01*
X96571428Y21116609D02*
X96000000Y20545180D01*
X96000000Y20545180D02*
X96619047Y20545180D01*
X27241667Y-25744200D02*
X27384524Y-25791819D01*
X27384524Y-25791819D02*
X27622619Y-25791819D01*
X27622619Y-25791819D02*
X27717857Y-25744200D01*
X27717857Y-25744200D02*
X27765476Y-25696580D01*
X27765476Y-25696580D02*
X27813095Y-25601342D01*
X27813095Y-25601342D02*
X27813095Y-25506104D01*
X27813095Y-25506104D02*
X27765476Y-25410866D01*
X27765476Y-25410866D02*
X27717857Y-25363247D01*
X27717857Y-25363247D02*
X27622619Y-25315628D01*
X27622619Y-25315628D02*
X27432143Y-25268009D01*
X27432143Y-25268009D02*
X27336905Y-25220390D01*
X27336905Y-25220390D02*
X27289286Y-25172771D01*
X27289286Y-25172771D02*
X27241667Y-25077533D01*
X27241667Y-25077533D02*
X27241667Y-24982295D01*
X27241667Y-24982295D02*
X27289286Y-24887057D01*
X27289286Y-24887057D02*
X27336905Y-24839438D01*
X27336905Y-24839438D02*
X27432143Y-24791819D01*
X27432143Y-24791819D02*
X27670238Y-24791819D01*
X27670238Y-24791819D02*
X27813095Y-24839438D01*
X28146429Y-24791819D02*
X28384524Y-25791819D01*
X28384524Y-25791819D02*
X28575000Y-25077533D01*
X28575000Y-25077533D02*
X28765476Y-25791819D01*
X28765476Y-25791819D02*
X29003572Y-24791819D01*
X29289286Y-24791819D02*
X29908333Y-24791819D01*
X29908333Y-24791819D02*
X29575000Y-25172771D01*
X29575000Y-25172771D02*
X29717857Y-25172771D01*
X29717857Y-25172771D02*
X29813095Y-25220390D01*
X29813095Y-25220390D02*
X29860714Y-25268009D01*
X29860714Y-25268009D02*
X29908333Y-25363247D01*
X29908333Y-25363247D02*
X29908333Y-25601342D01*
X29908333Y-25601342D02*
X29860714Y-25696580D01*
X29860714Y-25696580D02*
X29813095Y-25744200D01*
X29813095Y-25744200D02*
X29717857Y-25791819D01*
X29717857Y-25791819D02*
X29432143Y-25791819D01*
X29432143Y-25791819D02*
X29336905Y-25744200D01*
X29336905Y-25744200D02*
X29289286Y-25696580D01*
X7715476Y-82894200D02*
X7858333Y-82941819D01*
X7858333Y-82941819D02*
X8096428Y-82941819D01*
X8096428Y-82941819D02*
X8191666Y-82894200D01*
X8191666Y-82894200D02*
X8239285Y-82846580D01*
X8239285Y-82846580D02*
X8286904Y-82751342D01*
X8286904Y-82751342D02*
X8286904Y-82656104D01*
X8286904Y-82656104D02*
X8239285Y-82560866D01*
X8239285Y-82560866D02*
X8191666Y-82513247D01*
X8191666Y-82513247D02*
X8096428Y-82465628D01*
X8096428Y-82465628D02*
X7905952Y-82418009D01*
X7905952Y-82418009D02*
X7810714Y-82370390D01*
X7810714Y-82370390D02*
X7763095Y-82322771D01*
X7763095Y-82322771D02*
X7715476Y-82227533D01*
X7715476Y-82227533D02*
X7715476Y-82132295D01*
X7715476Y-82132295D02*
X7763095Y-82037057D01*
X7763095Y-82037057D02*
X7810714Y-81989438D01*
X7810714Y-81989438D02*
X7905952Y-81941819D01*
X7905952Y-81941819D02*
X8144047Y-81941819D01*
X8144047Y-81941819D02*
X8286904Y-81989438D01*
X8620238Y-81941819D02*
X8858333Y-82941819D01*
X8858333Y-82941819D02*
X9048809Y-82227533D01*
X9048809Y-82227533D02*
X9239285Y-82941819D01*
X9239285Y-82941819D02*
X9477381Y-81941819D01*
X10382142Y-82941819D02*
X9810714Y-82941819D01*
X10096428Y-82941819D02*
X10096428Y-81941819D01*
X10096428Y-81941819D02*
X10001190Y-82084676D01*
X10001190Y-82084676D02*
X9905952Y-82179914D01*
X9905952Y-82179914D02*
X9810714Y-82227533D01*
X10715476Y-81941819D02*
X11382142Y-81941819D01*
X11382142Y-81941819D02*
X10953571Y-82941819D01*
X27408333Y-36891819D02*
X27075000Y-36415628D01*
X26836905Y-36891819D02*
X26836905Y-35891819D01*
X26836905Y-35891819D02*
X27217857Y-35891819D01*
X27217857Y-35891819D02*
X27313095Y-35939438D01*
X27313095Y-35939438D02*
X27360714Y-35987057D01*
X27360714Y-35987057D02*
X27408333Y-36082295D01*
X27408333Y-36082295D02*
X27408333Y-36225152D01*
X27408333Y-36225152D02*
X27360714Y-36320390D01*
X27360714Y-36320390D02*
X27313095Y-36368009D01*
X27313095Y-36368009D02*
X27217857Y-36415628D01*
X27217857Y-36415628D02*
X26836905Y-36415628D01*
X28360714Y-35939438D02*
X28265476Y-35891819D01*
X28265476Y-35891819D02*
X28122619Y-35891819D01*
X28122619Y-35891819D02*
X27979762Y-35939438D01*
X27979762Y-35939438D02*
X27884524Y-36034676D01*
X27884524Y-36034676D02*
X27836905Y-36129914D01*
X27836905Y-36129914D02*
X27789286Y-36320390D01*
X27789286Y-36320390D02*
X27789286Y-36463247D01*
X27789286Y-36463247D02*
X27836905Y-36653723D01*
X27836905Y-36653723D02*
X27884524Y-36748961D01*
X27884524Y-36748961D02*
X27979762Y-36844200D01*
X27979762Y-36844200D02*
X28122619Y-36891819D01*
X28122619Y-36891819D02*
X28217857Y-36891819D01*
X28217857Y-36891819D02*
X28360714Y-36844200D01*
X28360714Y-36844200D02*
X28408333Y-36796580D01*
X28408333Y-36796580D02*
X28408333Y-36463247D01*
X28408333Y-36463247D02*
X28217857Y-36463247D01*
X29170238Y-36368009D02*
X29313095Y-36415628D01*
X29313095Y-36415628D02*
X29360714Y-36463247D01*
X29360714Y-36463247D02*
X29408333Y-36558485D01*
X29408333Y-36558485D02*
X29408333Y-36701342D01*
X29408333Y-36701342D02*
X29360714Y-36796580D01*
X29360714Y-36796580D02*
X29313095Y-36844200D01*
X29313095Y-36844200D02*
X29217857Y-36891819D01*
X29217857Y-36891819D02*
X28836905Y-36891819D01*
X28836905Y-36891819D02*
X28836905Y-35891819D01*
X28836905Y-35891819D02*
X29170238Y-35891819D01*
X29170238Y-35891819D02*
X29265476Y-35939438D01*
X29265476Y-35939438D02*
X29313095Y-35987057D01*
X29313095Y-35987057D02*
X29360714Y-36082295D01*
X29360714Y-36082295D02*
X29360714Y-36177533D01*
X29360714Y-36177533D02*
X29313095Y-36272771D01*
X29313095Y-36272771D02*
X29265476Y-36320390D01*
X29265476Y-36320390D02*
X29170238Y-36368009D01*
X29170238Y-36368009D02*
X28836905Y-36368009D01*
X29741667Y-35891819D02*
X30360714Y-35891819D01*
X30360714Y-35891819D02*
X30027381Y-36272771D01*
X30027381Y-36272771D02*
X30170238Y-36272771D01*
X30170238Y-36272771D02*
X30265476Y-36320390D01*
X30265476Y-36320390D02*
X30313095Y-36368009D01*
X30313095Y-36368009D02*
X30360714Y-36463247D01*
X30360714Y-36463247D02*
X30360714Y-36701342D01*
X30360714Y-36701342D02*
X30313095Y-36796580D01*
X30313095Y-36796580D02*
X30265476Y-36844200D01*
X30265476Y-36844200D02*
X30170238Y-36891819D01*
X30170238Y-36891819D02*
X29884524Y-36891819D01*
X29884524Y-36891819D02*
X29789286Y-36844200D01*
X29789286Y-36844200D02*
X29741667Y-36796580D01*
X46458333Y-36891819D02*
X46125000Y-36415628D01*
X45886905Y-36891819D02*
X45886905Y-35891819D01*
X45886905Y-35891819D02*
X46267857Y-35891819D01*
X46267857Y-35891819D02*
X46363095Y-35939438D01*
X46363095Y-35939438D02*
X46410714Y-35987057D01*
X46410714Y-35987057D02*
X46458333Y-36082295D01*
X46458333Y-36082295D02*
X46458333Y-36225152D01*
X46458333Y-36225152D02*
X46410714Y-36320390D01*
X46410714Y-36320390D02*
X46363095Y-36368009D01*
X46363095Y-36368009D02*
X46267857Y-36415628D01*
X46267857Y-36415628D02*
X45886905Y-36415628D01*
X47410714Y-35939438D02*
X47315476Y-35891819D01*
X47315476Y-35891819D02*
X47172619Y-35891819D01*
X47172619Y-35891819D02*
X47029762Y-35939438D01*
X47029762Y-35939438D02*
X46934524Y-36034676D01*
X46934524Y-36034676D02*
X46886905Y-36129914D01*
X46886905Y-36129914D02*
X46839286Y-36320390D01*
X46839286Y-36320390D02*
X46839286Y-36463247D01*
X46839286Y-36463247D02*
X46886905Y-36653723D01*
X46886905Y-36653723D02*
X46934524Y-36748961D01*
X46934524Y-36748961D02*
X47029762Y-36844200D01*
X47029762Y-36844200D02*
X47172619Y-36891819D01*
X47172619Y-36891819D02*
X47267857Y-36891819D01*
X47267857Y-36891819D02*
X47410714Y-36844200D01*
X47410714Y-36844200D02*
X47458333Y-36796580D01*
X47458333Y-36796580D02*
X47458333Y-36463247D01*
X47458333Y-36463247D02*
X47267857Y-36463247D01*
X48220238Y-36368009D02*
X48363095Y-36415628D01*
X48363095Y-36415628D02*
X48410714Y-36463247D01*
X48410714Y-36463247D02*
X48458333Y-36558485D01*
X48458333Y-36558485D02*
X48458333Y-36701342D01*
X48458333Y-36701342D02*
X48410714Y-36796580D01*
X48410714Y-36796580D02*
X48363095Y-36844200D01*
X48363095Y-36844200D02*
X48267857Y-36891819D01*
X48267857Y-36891819D02*
X47886905Y-36891819D01*
X47886905Y-36891819D02*
X47886905Y-35891819D01*
X47886905Y-35891819D02*
X48220238Y-35891819D01*
X48220238Y-35891819D02*
X48315476Y-35939438D01*
X48315476Y-35939438D02*
X48363095Y-35987057D01*
X48363095Y-35987057D02*
X48410714Y-36082295D01*
X48410714Y-36082295D02*
X48410714Y-36177533D01*
X48410714Y-36177533D02*
X48363095Y-36272771D01*
X48363095Y-36272771D02*
X48315476Y-36320390D01*
X48315476Y-36320390D02*
X48220238Y-36368009D01*
X48220238Y-36368009D02*
X47886905Y-36368009D01*
X49315476Y-36225152D02*
X49315476Y-36891819D01*
X49077381Y-35844200D02*
X48839286Y-36558485D01*
X48839286Y-36558485D02*
X49458333Y-36558485D01*
X65508333Y-36891819D02*
X65175000Y-36415628D01*
X64936905Y-36891819D02*
X64936905Y-35891819D01*
X64936905Y-35891819D02*
X65317857Y-35891819D01*
X65317857Y-35891819D02*
X65413095Y-35939438D01*
X65413095Y-35939438D02*
X65460714Y-35987057D01*
X65460714Y-35987057D02*
X65508333Y-36082295D01*
X65508333Y-36082295D02*
X65508333Y-36225152D01*
X65508333Y-36225152D02*
X65460714Y-36320390D01*
X65460714Y-36320390D02*
X65413095Y-36368009D01*
X65413095Y-36368009D02*
X65317857Y-36415628D01*
X65317857Y-36415628D02*
X64936905Y-36415628D01*
X66460714Y-35939438D02*
X66365476Y-35891819D01*
X66365476Y-35891819D02*
X66222619Y-35891819D01*
X66222619Y-35891819D02*
X66079762Y-35939438D01*
X66079762Y-35939438D02*
X65984524Y-36034676D01*
X65984524Y-36034676D02*
X65936905Y-36129914D01*
X65936905Y-36129914D02*
X65889286Y-36320390D01*
X65889286Y-36320390D02*
X65889286Y-36463247D01*
X65889286Y-36463247D02*
X65936905Y-36653723D01*
X65936905Y-36653723D02*
X65984524Y-36748961D01*
X65984524Y-36748961D02*
X66079762Y-36844200D01*
X66079762Y-36844200D02*
X66222619Y-36891819D01*
X66222619Y-36891819D02*
X66317857Y-36891819D01*
X66317857Y-36891819D02*
X66460714Y-36844200D01*
X66460714Y-36844200D02*
X66508333Y-36796580D01*
X66508333Y-36796580D02*
X66508333Y-36463247D01*
X66508333Y-36463247D02*
X66317857Y-36463247D01*
X67270238Y-36368009D02*
X67413095Y-36415628D01*
X67413095Y-36415628D02*
X67460714Y-36463247D01*
X67460714Y-36463247D02*
X67508333Y-36558485D01*
X67508333Y-36558485D02*
X67508333Y-36701342D01*
X67508333Y-36701342D02*
X67460714Y-36796580D01*
X67460714Y-36796580D02*
X67413095Y-36844200D01*
X67413095Y-36844200D02*
X67317857Y-36891819D01*
X67317857Y-36891819D02*
X66936905Y-36891819D01*
X66936905Y-36891819D02*
X66936905Y-35891819D01*
X66936905Y-35891819D02*
X67270238Y-35891819D01*
X67270238Y-35891819D02*
X67365476Y-35939438D01*
X67365476Y-35939438D02*
X67413095Y-35987057D01*
X67413095Y-35987057D02*
X67460714Y-36082295D01*
X67460714Y-36082295D02*
X67460714Y-36177533D01*
X67460714Y-36177533D02*
X67413095Y-36272771D01*
X67413095Y-36272771D02*
X67365476Y-36320390D01*
X67365476Y-36320390D02*
X67270238Y-36368009D01*
X67270238Y-36368009D02*
X66936905Y-36368009D01*
X68413095Y-35891819D02*
X67936905Y-35891819D01*
X67936905Y-35891819D02*
X67889286Y-36368009D01*
X67889286Y-36368009D02*
X67936905Y-36320390D01*
X67936905Y-36320390D02*
X68032143Y-36272771D01*
X68032143Y-36272771D02*
X68270238Y-36272771D01*
X68270238Y-36272771D02*
X68365476Y-36320390D01*
X68365476Y-36320390D02*
X68413095Y-36368009D01*
X68413095Y-36368009D02*
X68460714Y-36463247D01*
X68460714Y-36463247D02*
X68460714Y-36701342D01*
X68460714Y-36701342D02*
X68413095Y-36796580D01*
X68413095Y-36796580D02*
X68365476Y-36844200D01*
X68365476Y-36844200D02*
X68270238Y-36891819D01*
X68270238Y-36891819D02*
X68032143Y-36891819D01*
X68032143Y-36891819D02*
X67936905Y-36844200D01*
X67936905Y-36844200D02*
X67889286Y-36796580D01*
X96964285Y31545180D02*
X96964285Y30830895D01*
X96964285Y30830895D02*
X96916666Y30688038D01*
X96916666Y30688038D02*
X96821428Y30592800D01*
X96821428Y30592800D02*
X96678571Y30545180D01*
X96678571Y30545180D02*
X96583333Y30545180D01*
X97392857Y31449942D02*
X97440476Y31497561D01*
X97440476Y31497561D02*
X97535714Y31545180D01*
X97535714Y31545180D02*
X97773809Y31545180D01*
X97773809Y31545180D02*
X97869047Y31497561D01*
X97869047Y31497561D02*
X97916666Y31449942D01*
X97916666Y31449942D02*
X97964285Y31354704D01*
X97964285Y31354704D02*
X97964285Y31259466D01*
X97964285Y31259466D02*
X97916666Y31116609D01*
X97916666Y31116609D02*
X97345238Y30545180D01*
X97345238Y30545180D02*
X97964285Y30545180D01*
X98583333Y31545180D02*
X98678571Y31545180D01*
X98678571Y31545180D02*
X98773809Y31497561D01*
X98773809Y31497561D02*
X98821428Y31449942D01*
X98821428Y31449942D02*
X98869047Y31354704D01*
X98869047Y31354704D02*
X98916666Y31164228D01*
X98916666Y31164228D02*
X98916666Y30926133D01*
X98916666Y30926133D02*
X98869047Y30735657D01*
X98869047Y30735657D02*
X98821428Y30640419D01*
X98821428Y30640419D02*
X98773809Y30592800D01*
X98773809Y30592800D02*
X98678571Y30545180D01*
X98678571Y30545180D02*
X98583333Y30545180D01*
X98583333Y30545180D02*
X98488095Y30592800D01*
X98488095Y30592800D02*
X98440476Y30640419D01*
X98440476Y30640419D02*
X98392857Y30735657D01*
X98392857Y30735657D02*
X98345238Y30926133D01*
X98345238Y30926133D02*
X98345238Y31164228D01*
X98345238Y31164228D02*
X98392857Y31354704D01*
X98392857Y31354704D02*
X98440476Y31449942D01*
X98440476Y31449942D02*
X98488095Y31497561D01*
X98488095Y31497561D02*
X98583333Y31545180D01*
X99869047Y30545180D02*
X99297619Y30545180D01*
X99583333Y30545180D02*
X99583333Y31545180D01*
X99583333Y31545180D02*
X99488095Y31402323D01*
X99488095Y31402323D02*
X99392857Y31307085D01*
X99392857Y31307085D02*
X99297619Y31259466D01*
X26765476Y-82894200D02*
X26908333Y-82941819D01*
X26908333Y-82941819D02*
X27146428Y-82941819D01*
X27146428Y-82941819D02*
X27241666Y-82894200D01*
X27241666Y-82894200D02*
X27289285Y-82846580D01*
X27289285Y-82846580D02*
X27336904Y-82751342D01*
X27336904Y-82751342D02*
X27336904Y-82656104D01*
X27336904Y-82656104D02*
X27289285Y-82560866D01*
X27289285Y-82560866D02*
X27241666Y-82513247D01*
X27241666Y-82513247D02*
X27146428Y-82465628D01*
X27146428Y-82465628D02*
X26955952Y-82418009D01*
X26955952Y-82418009D02*
X26860714Y-82370390D01*
X26860714Y-82370390D02*
X26813095Y-82322771D01*
X26813095Y-82322771D02*
X26765476Y-82227533D01*
X26765476Y-82227533D02*
X26765476Y-82132295D01*
X26765476Y-82132295D02*
X26813095Y-82037057D01*
X26813095Y-82037057D02*
X26860714Y-81989438D01*
X26860714Y-81989438D02*
X26955952Y-81941819D01*
X26955952Y-81941819D02*
X27194047Y-81941819D01*
X27194047Y-81941819D02*
X27336904Y-81989438D01*
X27670238Y-81941819D02*
X27908333Y-82941819D01*
X27908333Y-82941819D02*
X28098809Y-82227533D01*
X28098809Y-82227533D02*
X28289285Y-82941819D01*
X28289285Y-82941819D02*
X28527381Y-81941819D01*
X29432142Y-82941819D02*
X28860714Y-82941819D01*
X29146428Y-82941819D02*
X29146428Y-81941819D01*
X29146428Y-81941819D02*
X29051190Y-82084676D01*
X29051190Y-82084676D02*
X28955952Y-82179914D01*
X28955952Y-82179914D02*
X28860714Y-82227533D01*
X30003571Y-82370390D02*
X29908333Y-82322771D01*
X29908333Y-82322771D02*
X29860714Y-82275152D01*
X29860714Y-82275152D02*
X29813095Y-82179914D01*
X29813095Y-82179914D02*
X29813095Y-82132295D01*
X29813095Y-82132295D02*
X29860714Y-82037057D01*
X29860714Y-82037057D02*
X29908333Y-81989438D01*
X29908333Y-81989438D02*
X30003571Y-81941819D01*
X30003571Y-81941819D02*
X30194047Y-81941819D01*
X30194047Y-81941819D02*
X30289285Y-81989438D01*
X30289285Y-81989438D02*
X30336904Y-82037057D01*
X30336904Y-82037057D02*
X30384523Y-82132295D01*
X30384523Y-82132295D02*
X30384523Y-82179914D01*
X30384523Y-82179914D02*
X30336904Y-82275152D01*
X30336904Y-82275152D02*
X30289285Y-82322771D01*
X30289285Y-82322771D02*
X30194047Y-82370390D01*
X30194047Y-82370390D02*
X30003571Y-82370390D01*
X30003571Y-82370390D02*
X29908333Y-82418009D01*
X29908333Y-82418009D02*
X29860714Y-82465628D01*
X29860714Y-82465628D02*
X29813095Y-82560866D01*
X29813095Y-82560866D02*
X29813095Y-82751342D01*
X29813095Y-82751342D02*
X29860714Y-82846580D01*
X29860714Y-82846580D02*
X29908333Y-82894200D01*
X29908333Y-82894200D02*
X30003571Y-82941819D01*
X30003571Y-82941819D02*
X30194047Y-82941819D01*
X30194047Y-82941819D02*
X30289285Y-82894200D01*
X30289285Y-82894200D02*
X30336904Y-82846580D01*
X30336904Y-82846580D02*
X30384523Y-82751342D01*
X30384523Y-82751342D02*
X30384523Y-82560866D01*
X30384523Y-82560866D02*
X30336904Y-82465628D01*
X30336904Y-82465628D02*
X30289285Y-82418009D01*
X30289285Y-82418009D02*
X30194047Y-82370390D01*
X44809524Y-8654819D02*
X44809524Y-7654819D01*
X44809524Y-7654819D02*
X45047619Y-7654819D01*
X45047619Y-7654819D02*
X45190476Y-7702438D01*
X45190476Y-7702438D02*
X45285714Y-7797676D01*
X45285714Y-7797676D02*
X45333333Y-7892914D01*
X45333333Y-7892914D02*
X45380952Y-8083390D01*
X45380952Y-8083390D02*
X45380952Y-8226247D01*
X45380952Y-8226247D02*
X45333333Y-8416723D01*
X45333333Y-8416723D02*
X45285714Y-8511961D01*
X45285714Y-8511961D02*
X45190476Y-8607200D01*
X45190476Y-8607200D02*
X45047619Y-8654819D01*
X45047619Y-8654819D02*
X44809524Y-8654819D01*
X46238095Y-7988152D02*
X46238095Y-8654819D01*
X46000000Y-7607200D02*
X45761905Y-8321485D01*
X45761905Y-8321485D02*
X46380952Y-8321485D01*
X46952381Y-7654819D02*
X47047619Y-7654819D01*
X47047619Y-7654819D02*
X47142857Y-7702438D01*
X47142857Y-7702438D02*
X47190476Y-7750057D01*
X47190476Y-7750057D02*
X47238095Y-7845295D01*
X47238095Y-7845295D02*
X47285714Y-8035771D01*
X47285714Y-8035771D02*
X47285714Y-8273866D01*
X47285714Y-8273866D02*
X47238095Y-8464342D01*
X47238095Y-8464342D02*
X47190476Y-8559580D01*
X47190476Y-8559580D02*
X47142857Y-8607200D01*
X47142857Y-8607200D02*
X47047619Y-8654819D01*
X47047619Y-8654819D02*
X46952381Y-8654819D01*
X46952381Y-8654819D02*
X46857143Y-8607200D01*
X46857143Y-8607200D02*
X46809524Y-8559580D01*
X46809524Y-8559580D02*
X46761905Y-8464342D01*
X46761905Y-8464342D02*
X46714286Y-8273866D01*
X46714286Y-8273866D02*
X46714286Y-8035771D01*
X46714286Y-8035771D02*
X46761905Y-7845295D01*
X46761905Y-7845295D02*
X46809524Y-7750057D01*
X46809524Y-7750057D02*
X46857143Y-7702438D01*
X46857143Y-7702438D02*
X46952381Y-7654819D01*
X48238095Y-8654819D02*
X47666667Y-8654819D01*
X47952381Y-8654819D02*
X47952381Y-7654819D01*
X47952381Y-7654819D02*
X47857143Y-7797676D01*
X47857143Y-7797676D02*
X47761905Y-7892914D01*
X47761905Y-7892914D02*
X47666667Y-7940533D01*
X29285714Y-8954819D02*
X29285714Y-9764342D01*
X29285714Y-9764342D02*
X29333333Y-9859580D01*
X29333333Y-9859580D02*
X29380952Y-9907200D01*
X29380952Y-9907200D02*
X29476190Y-9954819D01*
X29476190Y-9954819D02*
X29666666Y-9954819D01*
X29666666Y-9954819D02*
X29761904Y-9907200D01*
X29761904Y-9907200D02*
X29809523Y-9859580D01*
X29809523Y-9859580D02*
X29857142Y-9764342D01*
X29857142Y-9764342D02*
X29857142Y-8954819D01*
X30761904Y-9288152D02*
X30761904Y-9954819D01*
X30523809Y-8907200D02*
X30285714Y-9621485D01*
X30285714Y-9621485D02*
X30904761Y-9621485D01*
X31476190Y-8954819D02*
X31571428Y-8954819D01*
X31571428Y-8954819D02*
X31666666Y-9002438D01*
X31666666Y-9002438D02*
X31714285Y-9050057D01*
X31714285Y-9050057D02*
X31761904Y-9145295D01*
X31761904Y-9145295D02*
X31809523Y-9335771D01*
X31809523Y-9335771D02*
X31809523Y-9573866D01*
X31809523Y-9573866D02*
X31761904Y-9764342D01*
X31761904Y-9764342D02*
X31714285Y-9859580D01*
X31714285Y-9859580D02*
X31666666Y-9907200D01*
X31666666Y-9907200D02*
X31571428Y-9954819D01*
X31571428Y-9954819D02*
X31476190Y-9954819D01*
X31476190Y-9954819D02*
X31380952Y-9907200D01*
X31380952Y-9907200D02*
X31333333Y-9859580D01*
X31333333Y-9859580D02*
X31285714Y-9764342D01*
X31285714Y-9764342D02*
X31238095Y-9573866D01*
X31238095Y-9573866D02*
X31238095Y-9335771D01*
X31238095Y-9335771D02*
X31285714Y-9145295D01*
X31285714Y-9145295D02*
X31333333Y-9050057D01*
X31333333Y-9050057D02*
X31380952Y-9002438D01*
X31380952Y-9002438D02*
X31476190Y-8954819D01*
X32190476Y-9050057D02*
X32238095Y-9002438D01*
X32238095Y-9002438D02*
X32333333Y-8954819D01*
X32333333Y-8954819D02*
X32571428Y-8954819D01*
X32571428Y-8954819D02*
X32666666Y-9002438D01*
X32666666Y-9002438D02*
X32714285Y-9050057D01*
X32714285Y-9050057D02*
X32761904Y-9145295D01*
X32761904Y-9145295D02*
X32761904Y-9240533D01*
X32761904Y-9240533D02*
X32714285Y-9383390D01*
X32714285Y-9383390D02*
X32142857Y-9954819D01*
X32142857Y-9954819D02*
X32761904Y-9954819D01*
X46291667Y-44795200D02*
X46434524Y-44842819D01*
X46434524Y-44842819D02*
X46672619Y-44842819D01*
X46672619Y-44842819D02*
X46767857Y-44795200D01*
X46767857Y-44795200D02*
X46815476Y-44747580D01*
X46815476Y-44747580D02*
X46863095Y-44652342D01*
X46863095Y-44652342D02*
X46863095Y-44557104D01*
X46863095Y-44557104D02*
X46815476Y-44461866D01*
X46815476Y-44461866D02*
X46767857Y-44414247D01*
X46767857Y-44414247D02*
X46672619Y-44366628D01*
X46672619Y-44366628D02*
X46482143Y-44319009D01*
X46482143Y-44319009D02*
X46386905Y-44271390D01*
X46386905Y-44271390D02*
X46339286Y-44223771D01*
X46339286Y-44223771D02*
X46291667Y-44128533D01*
X46291667Y-44128533D02*
X46291667Y-44033295D01*
X46291667Y-44033295D02*
X46339286Y-43938057D01*
X46339286Y-43938057D02*
X46386905Y-43890438D01*
X46386905Y-43890438D02*
X46482143Y-43842819D01*
X46482143Y-43842819D02*
X46720238Y-43842819D01*
X46720238Y-43842819D02*
X46863095Y-43890438D01*
X47196429Y-43842819D02*
X47434524Y-44842819D01*
X47434524Y-44842819D02*
X47625000Y-44128533D01*
X47625000Y-44128533D02*
X47815476Y-44842819D01*
X47815476Y-44842819D02*
X48053572Y-43842819D01*
X48482143Y-44842819D02*
X48672619Y-44842819D01*
X48672619Y-44842819D02*
X48767857Y-44795200D01*
X48767857Y-44795200D02*
X48815476Y-44747580D01*
X48815476Y-44747580D02*
X48910714Y-44604723D01*
X48910714Y-44604723D02*
X48958333Y-44414247D01*
X48958333Y-44414247D02*
X48958333Y-44033295D01*
X48958333Y-44033295D02*
X48910714Y-43938057D01*
X48910714Y-43938057D02*
X48863095Y-43890438D01*
X48863095Y-43890438D02*
X48767857Y-43842819D01*
X48767857Y-43842819D02*
X48577381Y-43842819D01*
X48577381Y-43842819D02*
X48482143Y-43890438D01*
X48482143Y-43890438D02*
X48434524Y-43938057D01*
X48434524Y-43938057D02*
X48386905Y-44033295D01*
X48386905Y-44033295D02*
X48386905Y-44271390D01*
X48386905Y-44271390D02*
X48434524Y-44366628D01*
X48434524Y-44366628D02*
X48482143Y-44414247D01*
X48482143Y-44414247D02*
X48577381Y-44461866D01*
X48577381Y-44461866D02*
X48767857Y-44461866D01*
X48767857Y-44461866D02*
X48863095Y-44414247D01*
X48863095Y-44414247D02*
X48910714Y-44366628D01*
X48910714Y-44366628D02*
X48958333Y-44271390D01*
X27241667Y-44795200D02*
X27384524Y-44842819D01*
X27384524Y-44842819D02*
X27622619Y-44842819D01*
X27622619Y-44842819D02*
X27717857Y-44795200D01*
X27717857Y-44795200D02*
X27765476Y-44747580D01*
X27765476Y-44747580D02*
X27813095Y-44652342D01*
X27813095Y-44652342D02*
X27813095Y-44557104D01*
X27813095Y-44557104D02*
X27765476Y-44461866D01*
X27765476Y-44461866D02*
X27717857Y-44414247D01*
X27717857Y-44414247D02*
X27622619Y-44366628D01*
X27622619Y-44366628D02*
X27432143Y-44319009D01*
X27432143Y-44319009D02*
X27336905Y-44271390D01*
X27336905Y-44271390D02*
X27289286Y-44223771D01*
X27289286Y-44223771D02*
X27241667Y-44128533D01*
X27241667Y-44128533D02*
X27241667Y-44033295D01*
X27241667Y-44033295D02*
X27289286Y-43938057D01*
X27289286Y-43938057D02*
X27336905Y-43890438D01*
X27336905Y-43890438D02*
X27432143Y-43842819D01*
X27432143Y-43842819D02*
X27670238Y-43842819D01*
X27670238Y-43842819D02*
X27813095Y-43890438D01*
X28146429Y-43842819D02*
X28384524Y-44842819D01*
X28384524Y-44842819D02*
X28575000Y-44128533D01*
X28575000Y-44128533D02*
X28765476Y-44842819D01*
X28765476Y-44842819D02*
X29003572Y-43842819D01*
X29527381Y-44271390D02*
X29432143Y-44223771D01*
X29432143Y-44223771D02*
X29384524Y-44176152D01*
X29384524Y-44176152D02*
X29336905Y-44080914D01*
X29336905Y-44080914D02*
X29336905Y-44033295D01*
X29336905Y-44033295D02*
X29384524Y-43938057D01*
X29384524Y-43938057D02*
X29432143Y-43890438D01*
X29432143Y-43890438D02*
X29527381Y-43842819D01*
X29527381Y-43842819D02*
X29717857Y-43842819D01*
X29717857Y-43842819D02*
X29813095Y-43890438D01*
X29813095Y-43890438D02*
X29860714Y-43938057D01*
X29860714Y-43938057D02*
X29908333Y-44033295D01*
X29908333Y-44033295D02*
X29908333Y-44080914D01*
X29908333Y-44080914D02*
X29860714Y-44176152D01*
X29860714Y-44176152D02*
X29813095Y-44223771D01*
X29813095Y-44223771D02*
X29717857Y-44271390D01*
X29717857Y-44271390D02*
X29527381Y-44271390D01*
X29527381Y-44271390D02*
X29432143Y-44319009D01*
X29432143Y-44319009D02*
X29384524Y-44366628D01*
X29384524Y-44366628D02*
X29336905Y-44461866D01*
X29336905Y-44461866D02*
X29336905Y-44652342D01*
X29336905Y-44652342D02*
X29384524Y-44747580D01*
X29384524Y-44747580D02*
X29432143Y-44795200D01*
X29432143Y-44795200D02*
X29527381Y-44842819D01*
X29527381Y-44842819D02*
X29717857Y-44842819D01*
X29717857Y-44842819D02*
X29813095Y-44795200D01*
X29813095Y-44795200D02*
X29860714Y-44747580D01*
X29860714Y-44747580D02*
X29908333Y-44652342D01*
X29908333Y-44652342D02*
X29908333Y-44461866D01*
X29908333Y-44461866D02*
X29860714Y-44366628D01*
X29860714Y-44366628D02*
X29813095Y-44319009D01*
X29813095Y-44319009D02*
X29717857Y-44271390D01*
X40880952Y-17254819D02*
X40547619Y-16778628D01*
X40309524Y-17254819D02*
X40309524Y-16254819D01*
X40309524Y-16254819D02*
X40690476Y-16254819D01*
X40690476Y-16254819D02*
X40785714Y-16302438D01*
X40785714Y-16302438D02*
X40833333Y-16350057D01*
X40833333Y-16350057D02*
X40880952Y-16445295D01*
X40880952Y-16445295D02*
X40880952Y-16588152D01*
X40880952Y-16588152D02*
X40833333Y-16683390D01*
X40833333Y-16683390D02*
X40785714Y-16731009D01*
X40785714Y-16731009D02*
X40690476Y-16778628D01*
X40690476Y-16778628D02*
X40309524Y-16778628D01*
X41738095Y-16588152D02*
X41738095Y-17254819D01*
X41500000Y-16207200D02*
X41261905Y-16921485D01*
X41261905Y-16921485D02*
X41880952Y-16921485D01*
X42452381Y-16254819D02*
X42547619Y-16254819D01*
X42547619Y-16254819D02*
X42642857Y-16302438D01*
X42642857Y-16302438D02*
X42690476Y-16350057D01*
X42690476Y-16350057D02*
X42738095Y-16445295D01*
X42738095Y-16445295D02*
X42785714Y-16635771D01*
X42785714Y-16635771D02*
X42785714Y-16873866D01*
X42785714Y-16873866D02*
X42738095Y-17064342D01*
X42738095Y-17064342D02*
X42690476Y-17159580D01*
X42690476Y-17159580D02*
X42642857Y-17207200D01*
X42642857Y-17207200D02*
X42547619Y-17254819D01*
X42547619Y-17254819D02*
X42452381Y-17254819D01*
X42452381Y-17254819D02*
X42357143Y-17207200D01*
X42357143Y-17207200D02*
X42309524Y-17159580D01*
X42309524Y-17159580D02*
X42261905Y-17064342D01*
X42261905Y-17064342D02*
X42214286Y-16873866D01*
X42214286Y-16873866D02*
X42214286Y-16635771D01*
X42214286Y-16635771D02*
X42261905Y-16445295D01*
X42261905Y-16445295D02*
X42309524Y-16350057D01*
X42309524Y-16350057D02*
X42357143Y-16302438D01*
X42357143Y-16302438D02*
X42452381Y-16254819D01*
X43690476Y-16254819D02*
X43214286Y-16254819D01*
X43214286Y-16254819D02*
X43166667Y-16731009D01*
X43166667Y-16731009D02*
X43214286Y-16683390D01*
X43214286Y-16683390D02*
X43309524Y-16635771D01*
X43309524Y-16635771D02*
X43547619Y-16635771D01*
X43547619Y-16635771D02*
X43642857Y-16683390D01*
X43642857Y-16683390D02*
X43690476Y-16731009D01*
X43690476Y-16731009D02*
X43738095Y-16826247D01*
X43738095Y-16826247D02*
X43738095Y-17064342D01*
X43738095Y-17064342D02*
X43690476Y-17159580D01*
X43690476Y-17159580D02*
X43642857Y-17207200D01*
X43642857Y-17207200D02*
X43547619Y-17254819D01*
X43547619Y-17254819D02*
X43309524Y-17254819D01*
X43309524Y-17254819D02*
X43214286Y-17207200D01*
X43214286Y-17207200D02*
X43166667Y-17159580D01*
X26765476Y-63845200D02*
X26908333Y-63892819D01*
X26908333Y-63892819D02*
X27146428Y-63892819D01*
X27146428Y-63892819D02*
X27241666Y-63845200D01*
X27241666Y-63845200D02*
X27289285Y-63797580D01*
X27289285Y-63797580D02*
X27336904Y-63702342D01*
X27336904Y-63702342D02*
X27336904Y-63607104D01*
X27336904Y-63607104D02*
X27289285Y-63511866D01*
X27289285Y-63511866D02*
X27241666Y-63464247D01*
X27241666Y-63464247D02*
X27146428Y-63416628D01*
X27146428Y-63416628D02*
X26955952Y-63369009D01*
X26955952Y-63369009D02*
X26860714Y-63321390D01*
X26860714Y-63321390D02*
X26813095Y-63273771D01*
X26813095Y-63273771D02*
X26765476Y-63178533D01*
X26765476Y-63178533D02*
X26765476Y-63083295D01*
X26765476Y-63083295D02*
X26813095Y-62988057D01*
X26813095Y-62988057D02*
X26860714Y-62940438D01*
X26860714Y-62940438D02*
X26955952Y-62892819D01*
X26955952Y-62892819D02*
X27194047Y-62892819D01*
X27194047Y-62892819D02*
X27336904Y-62940438D01*
X27670238Y-62892819D02*
X27908333Y-63892819D01*
X27908333Y-63892819D02*
X28098809Y-63178533D01*
X28098809Y-63178533D02*
X28289285Y-63892819D01*
X28289285Y-63892819D02*
X28527381Y-62892819D01*
X29432142Y-63892819D02*
X28860714Y-63892819D01*
X29146428Y-63892819D02*
X29146428Y-62892819D01*
X29146428Y-62892819D02*
X29051190Y-63035676D01*
X29051190Y-63035676D02*
X28955952Y-63130914D01*
X28955952Y-63130914D02*
X28860714Y-63178533D01*
X29765476Y-62892819D02*
X30384523Y-62892819D01*
X30384523Y-62892819D02*
X30051190Y-63273771D01*
X30051190Y-63273771D02*
X30194047Y-63273771D01*
X30194047Y-63273771D02*
X30289285Y-63321390D01*
X30289285Y-63321390D02*
X30336904Y-63369009D01*
X30336904Y-63369009D02*
X30384523Y-63464247D01*
X30384523Y-63464247D02*
X30384523Y-63702342D01*
X30384523Y-63702342D02*
X30336904Y-63797580D01*
X30336904Y-63797580D02*
X30289285Y-63845200D01*
X30289285Y-63845200D02*
X30194047Y-63892819D01*
X30194047Y-63892819D02*
X29908333Y-63892819D01*
X29908333Y-63892819D02*
X29813095Y-63845200D01*
X29813095Y-63845200D02*
X29765476Y-63797580D01*
X84391667Y-25744200D02*
X84534524Y-25791819D01*
X84534524Y-25791819D02*
X84772619Y-25791819D01*
X84772619Y-25791819D02*
X84867857Y-25744200D01*
X84867857Y-25744200D02*
X84915476Y-25696580D01*
X84915476Y-25696580D02*
X84963095Y-25601342D01*
X84963095Y-25601342D02*
X84963095Y-25506104D01*
X84963095Y-25506104D02*
X84915476Y-25410866D01*
X84915476Y-25410866D02*
X84867857Y-25363247D01*
X84867857Y-25363247D02*
X84772619Y-25315628D01*
X84772619Y-25315628D02*
X84582143Y-25268009D01*
X84582143Y-25268009D02*
X84486905Y-25220390D01*
X84486905Y-25220390D02*
X84439286Y-25172771D01*
X84439286Y-25172771D02*
X84391667Y-25077533D01*
X84391667Y-25077533D02*
X84391667Y-24982295D01*
X84391667Y-24982295D02*
X84439286Y-24887057D01*
X84439286Y-24887057D02*
X84486905Y-24839438D01*
X84486905Y-24839438D02*
X84582143Y-24791819D01*
X84582143Y-24791819D02*
X84820238Y-24791819D01*
X84820238Y-24791819D02*
X84963095Y-24839438D01*
X85296429Y-24791819D02*
X85534524Y-25791819D01*
X85534524Y-25791819D02*
X85725000Y-25077533D01*
X85725000Y-25077533D02*
X85915476Y-25791819D01*
X85915476Y-25791819D02*
X86153572Y-24791819D01*
X86963095Y-24791819D02*
X86772619Y-24791819D01*
X86772619Y-24791819D02*
X86677381Y-24839438D01*
X86677381Y-24839438D02*
X86629762Y-24887057D01*
X86629762Y-24887057D02*
X86534524Y-25029914D01*
X86534524Y-25029914D02*
X86486905Y-25220390D01*
X86486905Y-25220390D02*
X86486905Y-25601342D01*
X86486905Y-25601342D02*
X86534524Y-25696580D01*
X86534524Y-25696580D02*
X86582143Y-25744200D01*
X86582143Y-25744200D02*
X86677381Y-25791819D01*
X86677381Y-25791819D02*
X86867857Y-25791819D01*
X86867857Y-25791819D02*
X86963095Y-25744200D01*
X86963095Y-25744200D02*
X87010714Y-25696580D01*
X87010714Y-25696580D02*
X87058333Y-25601342D01*
X87058333Y-25601342D02*
X87058333Y-25363247D01*
X87058333Y-25363247D02*
X87010714Y-25268009D01*
X87010714Y-25268009D02*
X86963095Y-25220390D01*
X86963095Y-25220390D02*
X86867857Y-25172771D01*
X86867857Y-25172771D02*
X86677381Y-25172771D01*
X86677381Y-25172771D02*
X86582143Y-25220390D01*
X86582143Y-25220390D02*
X86534524Y-25268009D01*
X86534524Y-25268009D02*
X86486905Y-25363247D01*
X7882142Y-94041819D02*
X7548809Y-93565628D01*
X7310714Y-94041819D02*
X7310714Y-93041819D01*
X7310714Y-93041819D02*
X7691666Y-93041819D01*
X7691666Y-93041819D02*
X7786904Y-93089438D01*
X7786904Y-93089438D02*
X7834523Y-93137057D01*
X7834523Y-93137057D02*
X7882142Y-93232295D01*
X7882142Y-93232295D02*
X7882142Y-93375152D01*
X7882142Y-93375152D02*
X7834523Y-93470390D01*
X7834523Y-93470390D02*
X7786904Y-93518009D01*
X7786904Y-93518009D02*
X7691666Y-93565628D01*
X7691666Y-93565628D02*
X7310714Y-93565628D01*
X8834523Y-93089438D02*
X8739285Y-93041819D01*
X8739285Y-93041819D02*
X8596428Y-93041819D01*
X8596428Y-93041819D02*
X8453571Y-93089438D01*
X8453571Y-93089438D02*
X8358333Y-93184676D01*
X8358333Y-93184676D02*
X8310714Y-93279914D01*
X8310714Y-93279914D02*
X8263095Y-93470390D01*
X8263095Y-93470390D02*
X8263095Y-93613247D01*
X8263095Y-93613247D02*
X8310714Y-93803723D01*
X8310714Y-93803723D02*
X8358333Y-93898961D01*
X8358333Y-93898961D02*
X8453571Y-93994200D01*
X8453571Y-93994200D02*
X8596428Y-94041819D01*
X8596428Y-94041819D02*
X8691666Y-94041819D01*
X8691666Y-94041819D02*
X8834523Y-93994200D01*
X8834523Y-93994200D02*
X8882142Y-93946580D01*
X8882142Y-93946580D02*
X8882142Y-93613247D01*
X8882142Y-93613247D02*
X8691666Y-93613247D01*
X9644047Y-93518009D02*
X9786904Y-93565628D01*
X9786904Y-93565628D02*
X9834523Y-93613247D01*
X9834523Y-93613247D02*
X9882142Y-93708485D01*
X9882142Y-93708485D02*
X9882142Y-93851342D01*
X9882142Y-93851342D02*
X9834523Y-93946580D01*
X9834523Y-93946580D02*
X9786904Y-93994200D01*
X9786904Y-93994200D02*
X9691666Y-94041819D01*
X9691666Y-94041819D02*
X9310714Y-94041819D01*
X9310714Y-94041819D02*
X9310714Y-93041819D01*
X9310714Y-93041819D02*
X9644047Y-93041819D01*
X9644047Y-93041819D02*
X9739285Y-93089438D01*
X9739285Y-93089438D02*
X9786904Y-93137057D01*
X9786904Y-93137057D02*
X9834523Y-93232295D01*
X9834523Y-93232295D02*
X9834523Y-93327533D01*
X9834523Y-93327533D02*
X9786904Y-93422771D01*
X9786904Y-93422771D02*
X9739285Y-93470390D01*
X9739285Y-93470390D02*
X9644047Y-93518009D01*
X9644047Y-93518009D02*
X9310714Y-93518009D01*
X10834523Y-94041819D02*
X10263095Y-94041819D01*
X10548809Y-94041819D02*
X10548809Y-93041819D01*
X10548809Y-93041819D02*
X10453571Y-93184676D01*
X10453571Y-93184676D02*
X10358333Y-93279914D01*
X10358333Y-93279914D02*
X10263095Y-93327533D01*
X11167857Y-93041819D02*
X11834523Y-93041819D01*
X11834523Y-93041819D02*
X11405952Y-94041819D01*
X45982142Y-113092819D02*
X45648809Y-112616628D01*
X45410714Y-113092819D02*
X45410714Y-112092819D01*
X45410714Y-112092819D02*
X45791666Y-112092819D01*
X45791666Y-112092819D02*
X45886904Y-112140438D01*
X45886904Y-112140438D02*
X45934523Y-112188057D01*
X45934523Y-112188057D02*
X45982142Y-112283295D01*
X45982142Y-112283295D02*
X45982142Y-112426152D01*
X45982142Y-112426152D02*
X45934523Y-112521390D01*
X45934523Y-112521390D02*
X45886904Y-112569009D01*
X45886904Y-112569009D02*
X45791666Y-112616628D01*
X45791666Y-112616628D02*
X45410714Y-112616628D01*
X46934523Y-112140438D02*
X46839285Y-112092819D01*
X46839285Y-112092819D02*
X46696428Y-112092819D01*
X46696428Y-112092819D02*
X46553571Y-112140438D01*
X46553571Y-112140438D02*
X46458333Y-112235676D01*
X46458333Y-112235676D02*
X46410714Y-112330914D01*
X46410714Y-112330914D02*
X46363095Y-112521390D01*
X46363095Y-112521390D02*
X46363095Y-112664247D01*
X46363095Y-112664247D02*
X46410714Y-112854723D01*
X46410714Y-112854723D02*
X46458333Y-112949961D01*
X46458333Y-112949961D02*
X46553571Y-113045200D01*
X46553571Y-113045200D02*
X46696428Y-113092819D01*
X46696428Y-113092819D02*
X46791666Y-113092819D01*
X46791666Y-113092819D02*
X46934523Y-113045200D01*
X46934523Y-113045200D02*
X46982142Y-112997580D01*
X46982142Y-112997580D02*
X46982142Y-112664247D01*
X46982142Y-112664247D02*
X46791666Y-112664247D01*
X47744047Y-112569009D02*
X47886904Y-112616628D01*
X47886904Y-112616628D02*
X47934523Y-112664247D01*
X47934523Y-112664247D02*
X47982142Y-112759485D01*
X47982142Y-112759485D02*
X47982142Y-112902342D01*
X47982142Y-112902342D02*
X47934523Y-112997580D01*
X47934523Y-112997580D02*
X47886904Y-113045200D01*
X47886904Y-113045200D02*
X47791666Y-113092819D01*
X47791666Y-113092819D02*
X47410714Y-113092819D01*
X47410714Y-113092819D02*
X47410714Y-112092819D01*
X47410714Y-112092819D02*
X47744047Y-112092819D01*
X47744047Y-112092819D02*
X47839285Y-112140438D01*
X47839285Y-112140438D02*
X47886904Y-112188057D01*
X47886904Y-112188057D02*
X47934523Y-112283295D01*
X47934523Y-112283295D02*
X47934523Y-112378533D01*
X47934523Y-112378533D02*
X47886904Y-112473771D01*
X47886904Y-112473771D02*
X47839285Y-112521390D01*
X47839285Y-112521390D02*
X47744047Y-112569009D01*
X47744047Y-112569009D02*
X47410714Y-112569009D01*
X48363095Y-112188057D02*
X48410714Y-112140438D01*
X48410714Y-112140438D02*
X48505952Y-112092819D01*
X48505952Y-112092819D02*
X48744047Y-112092819D01*
X48744047Y-112092819D02*
X48839285Y-112140438D01*
X48839285Y-112140438D02*
X48886904Y-112188057D01*
X48886904Y-112188057D02*
X48934523Y-112283295D01*
X48934523Y-112283295D02*
X48934523Y-112378533D01*
X48934523Y-112378533D02*
X48886904Y-112521390D01*
X48886904Y-112521390D02*
X48315476Y-113092819D01*
X48315476Y-113092819D02*
X48934523Y-113092819D01*
X49791666Y-112426152D02*
X49791666Y-113092819D01*
X49553571Y-112045200D02*
X49315476Y-112759485D01*
X49315476Y-112759485D02*
X49934523Y-112759485D01*
X20964285Y-14454819D02*
X20964285Y-15169104D01*
X20964285Y-15169104D02*
X20916666Y-15311961D01*
X20916666Y-15311961D02*
X20821428Y-15407200D01*
X20821428Y-15407200D02*
X20678571Y-15454819D01*
X20678571Y-15454819D02*
X20583333Y-15454819D01*
X21869047Y-14788152D02*
X21869047Y-15454819D01*
X21630952Y-14407200D02*
X21392857Y-15121485D01*
X21392857Y-15121485D02*
X22011904Y-15121485D01*
X22583333Y-14454819D02*
X22678571Y-14454819D01*
X22678571Y-14454819D02*
X22773809Y-14502438D01*
X22773809Y-14502438D02*
X22821428Y-14550057D01*
X22821428Y-14550057D02*
X22869047Y-14645295D01*
X22869047Y-14645295D02*
X22916666Y-14835771D01*
X22916666Y-14835771D02*
X22916666Y-15073866D01*
X22916666Y-15073866D02*
X22869047Y-15264342D01*
X22869047Y-15264342D02*
X22821428Y-15359580D01*
X22821428Y-15359580D02*
X22773809Y-15407200D01*
X22773809Y-15407200D02*
X22678571Y-15454819D01*
X22678571Y-15454819D02*
X22583333Y-15454819D01*
X22583333Y-15454819D02*
X22488095Y-15407200D01*
X22488095Y-15407200D02*
X22440476Y-15359580D01*
X22440476Y-15359580D02*
X22392857Y-15264342D01*
X22392857Y-15264342D02*
X22345238Y-15073866D01*
X22345238Y-15073866D02*
X22345238Y-14835771D01*
X22345238Y-14835771D02*
X22392857Y-14645295D01*
X22392857Y-14645295D02*
X22440476Y-14550057D01*
X22440476Y-14550057D02*
X22488095Y-14502438D01*
X22488095Y-14502438D02*
X22583333Y-14454819D01*
X23869047Y-15454819D02*
X23297619Y-15454819D01*
X23583333Y-15454819D02*
X23583333Y-14454819D01*
X23583333Y-14454819D02*
X23488095Y-14597676D01*
X23488095Y-14597676D02*
X23392857Y-14692914D01*
X23392857Y-14692914D02*
X23297619Y-14740533D01*
X7882142Y-74992819D02*
X7548809Y-74516628D01*
X7310714Y-74992819D02*
X7310714Y-73992819D01*
X7310714Y-73992819D02*
X7691666Y-73992819D01*
X7691666Y-73992819D02*
X7786904Y-74040438D01*
X7786904Y-74040438D02*
X7834523Y-74088057D01*
X7834523Y-74088057D02*
X7882142Y-74183295D01*
X7882142Y-74183295D02*
X7882142Y-74326152D01*
X7882142Y-74326152D02*
X7834523Y-74421390D01*
X7834523Y-74421390D02*
X7786904Y-74469009D01*
X7786904Y-74469009D02*
X7691666Y-74516628D01*
X7691666Y-74516628D02*
X7310714Y-74516628D01*
X8834523Y-74040438D02*
X8739285Y-73992819D01*
X8739285Y-73992819D02*
X8596428Y-73992819D01*
X8596428Y-73992819D02*
X8453571Y-74040438D01*
X8453571Y-74040438D02*
X8358333Y-74135676D01*
X8358333Y-74135676D02*
X8310714Y-74230914D01*
X8310714Y-74230914D02*
X8263095Y-74421390D01*
X8263095Y-74421390D02*
X8263095Y-74564247D01*
X8263095Y-74564247D02*
X8310714Y-74754723D01*
X8310714Y-74754723D02*
X8358333Y-74849961D01*
X8358333Y-74849961D02*
X8453571Y-74945200D01*
X8453571Y-74945200D02*
X8596428Y-74992819D01*
X8596428Y-74992819D02*
X8691666Y-74992819D01*
X8691666Y-74992819D02*
X8834523Y-74945200D01*
X8834523Y-74945200D02*
X8882142Y-74897580D01*
X8882142Y-74897580D02*
X8882142Y-74564247D01*
X8882142Y-74564247D02*
X8691666Y-74564247D01*
X9644047Y-74469009D02*
X9786904Y-74516628D01*
X9786904Y-74516628D02*
X9834523Y-74564247D01*
X9834523Y-74564247D02*
X9882142Y-74659485D01*
X9882142Y-74659485D02*
X9882142Y-74802342D01*
X9882142Y-74802342D02*
X9834523Y-74897580D01*
X9834523Y-74897580D02*
X9786904Y-74945200D01*
X9786904Y-74945200D02*
X9691666Y-74992819D01*
X9691666Y-74992819D02*
X9310714Y-74992819D01*
X9310714Y-74992819D02*
X9310714Y-73992819D01*
X9310714Y-73992819D02*
X9644047Y-73992819D01*
X9644047Y-73992819D02*
X9739285Y-74040438D01*
X9739285Y-74040438D02*
X9786904Y-74088057D01*
X9786904Y-74088057D02*
X9834523Y-74183295D01*
X9834523Y-74183295D02*
X9834523Y-74278533D01*
X9834523Y-74278533D02*
X9786904Y-74373771D01*
X9786904Y-74373771D02*
X9739285Y-74421390D01*
X9739285Y-74421390D02*
X9644047Y-74469009D01*
X9644047Y-74469009D02*
X9310714Y-74469009D01*
X10834523Y-74992819D02*
X10263095Y-74992819D01*
X10548809Y-74992819D02*
X10548809Y-73992819D01*
X10548809Y-73992819D02*
X10453571Y-74135676D01*
X10453571Y-74135676D02*
X10358333Y-74230914D01*
X10358333Y-74230914D02*
X10263095Y-74278533D01*
X11215476Y-74088057D02*
X11263095Y-74040438D01*
X11263095Y-74040438D02*
X11358333Y-73992819D01*
X11358333Y-73992819D02*
X11596428Y-73992819D01*
X11596428Y-73992819D02*
X11691666Y-74040438D01*
X11691666Y-74040438D02*
X11739285Y-74088057D01*
X11739285Y-74088057D02*
X11786904Y-74183295D01*
X11786904Y-74183295D02*
X11786904Y-74278533D01*
X11786904Y-74278533D02*
X11739285Y-74421390D01*
X11739285Y-74421390D02*
X11167857Y-74992819D01*
X11167857Y-74992819D02*
X11786904Y-74992819D01*
X65032142Y-55942819D02*
X64698809Y-55466628D01*
X64460714Y-55942819D02*
X64460714Y-54942819D01*
X64460714Y-54942819D02*
X64841666Y-54942819D01*
X64841666Y-54942819D02*
X64936904Y-54990438D01*
X64936904Y-54990438D02*
X64984523Y-55038057D01*
X64984523Y-55038057D02*
X65032142Y-55133295D01*
X65032142Y-55133295D02*
X65032142Y-55276152D01*
X65032142Y-55276152D02*
X64984523Y-55371390D01*
X64984523Y-55371390D02*
X64936904Y-55419009D01*
X64936904Y-55419009D02*
X64841666Y-55466628D01*
X64841666Y-55466628D02*
X64460714Y-55466628D01*
X65984523Y-54990438D02*
X65889285Y-54942819D01*
X65889285Y-54942819D02*
X65746428Y-54942819D01*
X65746428Y-54942819D02*
X65603571Y-54990438D01*
X65603571Y-54990438D02*
X65508333Y-55085676D01*
X65508333Y-55085676D02*
X65460714Y-55180914D01*
X65460714Y-55180914D02*
X65413095Y-55371390D01*
X65413095Y-55371390D02*
X65413095Y-55514247D01*
X65413095Y-55514247D02*
X65460714Y-55704723D01*
X65460714Y-55704723D02*
X65508333Y-55799961D01*
X65508333Y-55799961D02*
X65603571Y-55895200D01*
X65603571Y-55895200D02*
X65746428Y-55942819D01*
X65746428Y-55942819D02*
X65841666Y-55942819D01*
X65841666Y-55942819D02*
X65984523Y-55895200D01*
X65984523Y-55895200D02*
X66032142Y-55847580D01*
X66032142Y-55847580D02*
X66032142Y-55514247D01*
X66032142Y-55514247D02*
X65841666Y-55514247D01*
X66794047Y-55419009D02*
X66936904Y-55466628D01*
X66936904Y-55466628D02*
X66984523Y-55514247D01*
X66984523Y-55514247D02*
X67032142Y-55609485D01*
X67032142Y-55609485D02*
X67032142Y-55752342D01*
X67032142Y-55752342D02*
X66984523Y-55847580D01*
X66984523Y-55847580D02*
X66936904Y-55895200D01*
X66936904Y-55895200D02*
X66841666Y-55942819D01*
X66841666Y-55942819D02*
X66460714Y-55942819D01*
X66460714Y-55942819D02*
X66460714Y-54942819D01*
X66460714Y-54942819D02*
X66794047Y-54942819D01*
X66794047Y-54942819D02*
X66889285Y-54990438D01*
X66889285Y-54990438D02*
X66936904Y-55038057D01*
X66936904Y-55038057D02*
X66984523Y-55133295D01*
X66984523Y-55133295D02*
X66984523Y-55228533D01*
X66984523Y-55228533D02*
X66936904Y-55323771D01*
X66936904Y-55323771D02*
X66889285Y-55371390D01*
X66889285Y-55371390D02*
X66794047Y-55419009D01*
X66794047Y-55419009D02*
X66460714Y-55419009D01*
X67984523Y-55942819D02*
X67413095Y-55942819D01*
X67698809Y-55942819D02*
X67698809Y-54942819D01*
X67698809Y-54942819D02*
X67603571Y-55085676D01*
X67603571Y-55085676D02*
X67508333Y-55180914D01*
X67508333Y-55180914D02*
X67413095Y-55228533D01*
X68603571Y-54942819D02*
X68698809Y-54942819D01*
X68698809Y-54942819D02*
X68794047Y-54990438D01*
X68794047Y-54990438D02*
X68841666Y-55038057D01*
X68841666Y-55038057D02*
X68889285Y-55133295D01*
X68889285Y-55133295D02*
X68936904Y-55323771D01*
X68936904Y-55323771D02*
X68936904Y-55561866D01*
X68936904Y-55561866D02*
X68889285Y-55752342D01*
X68889285Y-55752342D02*
X68841666Y-55847580D01*
X68841666Y-55847580D02*
X68794047Y-55895200D01*
X68794047Y-55895200D02*
X68698809Y-55942819D01*
X68698809Y-55942819D02*
X68603571Y-55942819D01*
X68603571Y-55942819D02*
X68508333Y-55895200D01*
X68508333Y-55895200D02*
X68460714Y-55847580D01*
X68460714Y-55847580D02*
X68413095Y-55752342D01*
X68413095Y-55752342D02*
X68365476Y-55561866D01*
X68365476Y-55561866D02*
X68365476Y-55323771D01*
X68365476Y-55323771D02*
X68413095Y-55133295D01*
X68413095Y-55133295D02*
X68460714Y-55038057D01*
X68460714Y-55038057D02*
X68508333Y-54990438D01*
X68508333Y-54990438D02*
X68603571Y-54942819D01*
X45982142Y-94041819D02*
X45648809Y-93565628D01*
X45410714Y-94041819D02*
X45410714Y-93041819D01*
X45410714Y-93041819D02*
X45791666Y-93041819D01*
X45791666Y-93041819D02*
X45886904Y-93089438D01*
X45886904Y-93089438D02*
X45934523Y-93137057D01*
X45934523Y-93137057D02*
X45982142Y-93232295D01*
X45982142Y-93232295D02*
X45982142Y-93375152D01*
X45982142Y-93375152D02*
X45934523Y-93470390D01*
X45934523Y-93470390D02*
X45886904Y-93518009D01*
X45886904Y-93518009D02*
X45791666Y-93565628D01*
X45791666Y-93565628D02*
X45410714Y-93565628D01*
X46934523Y-93089438D02*
X46839285Y-93041819D01*
X46839285Y-93041819D02*
X46696428Y-93041819D01*
X46696428Y-93041819D02*
X46553571Y-93089438D01*
X46553571Y-93089438D02*
X46458333Y-93184676D01*
X46458333Y-93184676D02*
X46410714Y-93279914D01*
X46410714Y-93279914D02*
X46363095Y-93470390D01*
X46363095Y-93470390D02*
X46363095Y-93613247D01*
X46363095Y-93613247D02*
X46410714Y-93803723D01*
X46410714Y-93803723D02*
X46458333Y-93898961D01*
X46458333Y-93898961D02*
X46553571Y-93994200D01*
X46553571Y-93994200D02*
X46696428Y-94041819D01*
X46696428Y-94041819D02*
X46791666Y-94041819D01*
X46791666Y-94041819D02*
X46934523Y-93994200D01*
X46934523Y-93994200D02*
X46982142Y-93946580D01*
X46982142Y-93946580D02*
X46982142Y-93613247D01*
X46982142Y-93613247D02*
X46791666Y-93613247D01*
X47744047Y-93518009D02*
X47886904Y-93565628D01*
X47886904Y-93565628D02*
X47934523Y-93613247D01*
X47934523Y-93613247D02*
X47982142Y-93708485D01*
X47982142Y-93708485D02*
X47982142Y-93851342D01*
X47982142Y-93851342D02*
X47934523Y-93946580D01*
X47934523Y-93946580D02*
X47886904Y-93994200D01*
X47886904Y-93994200D02*
X47791666Y-94041819D01*
X47791666Y-94041819D02*
X47410714Y-94041819D01*
X47410714Y-94041819D02*
X47410714Y-93041819D01*
X47410714Y-93041819D02*
X47744047Y-93041819D01*
X47744047Y-93041819D02*
X47839285Y-93089438D01*
X47839285Y-93089438D02*
X47886904Y-93137057D01*
X47886904Y-93137057D02*
X47934523Y-93232295D01*
X47934523Y-93232295D02*
X47934523Y-93327533D01*
X47934523Y-93327533D02*
X47886904Y-93422771D01*
X47886904Y-93422771D02*
X47839285Y-93470390D01*
X47839285Y-93470390D02*
X47744047Y-93518009D01*
X47744047Y-93518009D02*
X47410714Y-93518009D01*
X48934523Y-94041819D02*
X48363095Y-94041819D01*
X48648809Y-94041819D02*
X48648809Y-93041819D01*
X48648809Y-93041819D02*
X48553571Y-93184676D01*
X48553571Y-93184676D02*
X48458333Y-93279914D01*
X48458333Y-93279914D02*
X48363095Y-93327533D01*
X49410714Y-94041819D02*
X49601190Y-94041819D01*
X49601190Y-94041819D02*
X49696428Y-93994200D01*
X49696428Y-93994200D02*
X49744047Y-93946580D01*
X49744047Y-93946580D02*
X49839285Y-93803723D01*
X49839285Y-93803723D02*
X49886904Y-93613247D01*
X49886904Y-93613247D02*
X49886904Y-93232295D01*
X49886904Y-93232295D02*
X49839285Y-93137057D01*
X49839285Y-93137057D02*
X49791666Y-93089438D01*
X49791666Y-93089438D02*
X49696428Y-93041819D01*
X49696428Y-93041819D02*
X49505952Y-93041819D01*
X49505952Y-93041819D02*
X49410714Y-93089438D01*
X49410714Y-93089438D02*
X49363095Y-93137057D01*
X49363095Y-93137057D02*
X49315476Y-93232295D01*
X49315476Y-93232295D02*
X49315476Y-93470390D01*
X49315476Y-93470390D02*
X49363095Y-93565628D01*
X49363095Y-93565628D02*
X49410714Y-93613247D01*
X49410714Y-93613247D02*
X49505952Y-93660866D01*
X49505952Y-93660866D02*
X49696428Y-93660866D01*
X49696428Y-93660866D02*
X49791666Y-93613247D01*
X49791666Y-93613247D02*
X49839285Y-93565628D01*
X49839285Y-93565628D02*
X49886904Y-93470390D01*
X46291667Y-25744200D02*
X46434524Y-25791819D01*
X46434524Y-25791819D02*
X46672619Y-25791819D01*
X46672619Y-25791819D02*
X46767857Y-25744200D01*
X46767857Y-25744200D02*
X46815476Y-25696580D01*
X46815476Y-25696580D02*
X46863095Y-25601342D01*
X46863095Y-25601342D02*
X46863095Y-25506104D01*
X46863095Y-25506104D02*
X46815476Y-25410866D01*
X46815476Y-25410866D02*
X46767857Y-25363247D01*
X46767857Y-25363247D02*
X46672619Y-25315628D01*
X46672619Y-25315628D02*
X46482143Y-25268009D01*
X46482143Y-25268009D02*
X46386905Y-25220390D01*
X46386905Y-25220390D02*
X46339286Y-25172771D01*
X46339286Y-25172771D02*
X46291667Y-25077533D01*
X46291667Y-25077533D02*
X46291667Y-24982295D01*
X46291667Y-24982295D02*
X46339286Y-24887057D01*
X46339286Y-24887057D02*
X46386905Y-24839438D01*
X46386905Y-24839438D02*
X46482143Y-24791819D01*
X46482143Y-24791819D02*
X46720238Y-24791819D01*
X46720238Y-24791819D02*
X46863095Y-24839438D01*
X47196429Y-24791819D02*
X47434524Y-25791819D01*
X47434524Y-25791819D02*
X47625000Y-25077533D01*
X47625000Y-25077533D02*
X47815476Y-25791819D01*
X47815476Y-25791819D02*
X48053572Y-24791819D01*
X48863095Y-25125152D02*
X48863095Y-25791819D01*
X48625000Y-24744200D02*
X48386905Y-25458485D01*
X48386905Y-25458485D02*
X49005952Y-25458485D01*
X7715476Y-63845200D02*
X7858333Y-63892819D01*
X7858333Y-63892819D02*
X8096428Y-63892819D01*
X8096428Y-63892819D02*
X8191666Y-63845200D01*
X8191666Y-63845200D02*
X8239285Y-63797580D01*
X8239285Y-63797580D02*
X8286904Y-63702342D01*
X8286904Y-63702342D02*
X8286904Y-63607104D01*
X8286904Y-63607104D02*
X8239285Y-63511866D01*
X8239285Y-63511866D02*
X8191666Y-63464247D01*
X8191666Y-63464247D02*
X8096428Y-63416628D01*
X8096428Y-63416628D02*
X7905952Y-63369009D01*
X7905952Y-63369009D02*
X7810714Y-63321390D01*
X7810714Y-63321390D02*
X7763095Y-63273771D01*
X7763095Y-63273771D02*
X7715476Y-63178533D01*
X7715476Y-63178533D02*
X7715476Y-63083295D01*
X7715476Y-63083295D02*
X7763095Y-62988057D01*
X7763095Y-62988057D02*
X7810714Y-62940438D01*
X7810714Y-62940438D02*
X7905952Y-62892819D01*
X7905952Y-62892819D02*
X8144047Y-62892819D01*
X8144047Y-62892819D02*
X8286904Y-62940438D01*
X8620238Y-62892819D02*
X8858333Y-63892819D01*
X8858333Y-63892819D02*
X9048809Y-63178533D01*
X9048809Y-63178533D02*
X9239285Y-63892819D01*
X9239285Y-63892819D02*
X9477381Y-62892819D01*
X10382142Y-63892819D02*
X9810714Y-63892819D01*
X10096428Y-63892819D02*
X10096428Y-62892819D01*
X10096428Y-62892819D02*
X10001190Y-63035676D01*
X10001190Y-63035676D02*
X9905952Y-63130914D01*
X9905952Y-63130914D02*
X9810714Y-63178533D01*
X10763095Y-62988057D02*
X10810714Y-62940438D01*
X10810714Y-62940438D02*
X10905952Y-62892819D01*
X10905952Y-62892819D02*
X11144047Y-62892819D01*
X11144047Y-62892819D02*
X11239285Y-62940438D01*
X11239285Y-62940438D02*
X11286904Y-62988057D01*
X11286904Y-62988057D02*
X11334523Y-63083295D01*
X11334523Y-63083295D02*
X11334523Y-63178533D01*
X11334523Y-63178533D02*
X11286904Y-63321390D01*
X11286904Y-63321390D02*
X10715476Y-63892819D01*
X10715476Y-63892819D02*
X11334523Y-63892819D01*
X65032142Y-94041819D02*
X64698809Y-93565628D01*
X64460714Y-94041819D02*
X64460714Y-93041819D01*
X64460714Y-93041819D02*
X64841666Y-93041819D01*
X64841666Y-93041819D02*
X64936904Y-93089438D01*
X64936904Y-93089438D02*
X64984523Y-93137057D01*
X64984523Y-93137057D02*
X65032142Y-93232295D01*
X65032142Y-93232295D02*
X65032142Y-93375152D01*
X65032142Y-93375152D02*
X64984523Y-93470390D01*
X64984523Y-93470390D02*
X64936904Y-93518009D01*
X64936904Y-93518009D02*
X64841666Y-93565628D01*
X64841666Y-93565628D02*
X64460714Y-93565628D01*
X65984523Y-93089438D02*
X65889285Y-93041819D01*
X65889285Y-93041819D02*
X65746428Y-93041819D01*
X65746428Y-93041819D02*
X65603571Y-93089438D01*
X65603571Y-93089438D02*
X65508333Y-93184676D01*
X65508333Y-93184676D02*
X65460714Y-93279914D01*
X65460714Y-93279914D02*
X65413095Y-93470390D01*
X65413095Y-93470390D02*
X65413095Y-93613247D01*
X65413095Y-93613247D02*
X65460714Y-93803723D01*
X65460714Y-93803723D02*
X65508333Y-93898961D01*
X65508333Y-93898961D02*
X65603571Y-93994200D01*
X65603571Y-93994200D02*
X65746428Y-94041819D01*
X65746428Y-94041819D02*
X65841666Y-94041819D01*
X65841666Y-94041819D02*
X65984523Y-93994200D01*
X65984523Y-93994200D02*
X66032142Y-93946580D01*
X66032142Y-93946580D02*
X66032142Y-93613247D01*
X66032142Y-93613247D02*
X65841666Y-93613247D01*
X66794047Y-93518009D02*
X66936904Y-93565628D01*
X66936904Y-93565628D02*
X66984523Y-93613247D01*
X66984523Y-93613247D02*
X67032142Y-93708485D01*
X67032142Y-93708485D02*
X67032142Y-93851342D01*
X67032142Y-93851342D02*
X66984523Y-93946580D01*
X66984523Y-93946580D02*
X66936904Y-93994200D01*
X66936904Y-93994200D02*
X66841666Y-94041819D01*
X66841666Y-94041819D02*
X66460714Y-94041819D01*
X66460714Y-94041819D02*
X66460714Y-93041819D01*
X66460714Y-93041819D02*
X66794047Y-93041819D01*
X66794047Y-93041819D02*
X66889285Y-93089438D01*
X66889285Y-93089438D02*
X66936904Y-93137057D01*
X66936904Y-93137057D02*
X66984523Y-93232295D01*
X66984523Y-93232295D02*
X66984523Y-93327533D01*
X66984523Y-93327533D02*
X66936904Y-93422771D01*
X66936904Y-93422771D02*
X66889285Y-93470390D01*
X66889285Y-93470390D02*
X66794047Y-93518009D01*
X66794047Y-93518009D02*
X66460714Y-93518009D01*
X67413095Y-93137057D02*
X67460714Y-93089438D01*
X67460714Y-93089438D02*
X67555952Y-93041819D01*
X67555952Y-93041819D02*
X67794047Y-93041819D01*
X67794047Y-93041819D02*
X67889285Y-93089438D01*
X67889285Y-93089438D02*
X67936904Y-93137057D01*
X67936904Y-93137057D02*
X67984523Y-93232295D01*
X67984523Y-93232295D02*
X67984523Y-93327533D01*
X67984523Y-93327533D02*
X67936904Y-93470390D01*
X67936904Y-93470390D02*
X67365476Y-94041819D01*
X67365476Y-94041819D02*
X67984523Y-94041819D01*
X68603571Y-93041819D02*
X68698809Y-93041819D01*
X68698809Y-93041819D02*
X68794047Y-93089438D01*
X68794047Y-93089438D02*
X68841666Y-93137057D01*
X68841666Y-93137057D02*
X68889285Y-93232295D01*
X68889285Y-93232295D02*
X68936904Y-93422771D01*
X68936904Y-93422771D02*
X68936904Y-93660866D01*
X68936904Y-93660866D02*
X68889285Y-93851342D01*
X68889285Y-93851342D02*
X68841666Y-93946580D01*
X68841666Y-93946580D02*
X68794047Y-93994200D01*
X68794047Y-93994200D02*
X68698809Y-94041819D01*
X68698809Y-94041819D02*
X68603571Y-94041819D01*
X68603571Y-94041819D02*
X68508333Y-93994200D01*
X68508333Y-93994200D02*
X68460714Y-93946580D01*
X68460714Y-93946580D02*
X68413095Y-93851342D01*
X68413095Y-93851342D02*
X68365476Y-93660866D01*
X68365476Y-93660866D02*
X68365476Y-93422771D01*
X68365476Y-93422771D02*
X68413095Y-93232295D01*
X68413095Y-93232295D02*
X68460714Y-93137057D01*
X68460714Y-93137057D02*
X68508333Y-93089438D01*
X68508333Y-93089438D02*
X68603571Y-93041819D01*
X5714286Y17592800D02*
X5857143Y17545180D01*
X5857143Y17545180D02*
X6095238Y17545180D01*
X6095238Y17545180D02*
X6190476Y17592800D01*
X6190476Y17592800D02*
X6238095Y17640419D01*
X6238095Y17640419D02*
X6285714Y17735657D01*
X6285714Y17735657D02*
X6285714Y17830895D01*
X6285714Y17830895D02*
X6238095Y17926133D01*
X6238095Y17926133D02*
X6190476Y17973752D01*
X6190476Y17973752D02*
X6095238Y18021371D01*
X6095238Y18021371D02*
X5904762Y18068990D01*
X5904762Y18068990D02*
X5809524Y18116609D01*
X5809524Y18116609D02*
X5761905Y18164228D01*
X5761905Y18164228D02*
X5714286Y18259466D01*
X5714286Y18259466D02*
X5714286Y18354704D01*
X5714286Y18354704D02*
X5761905Y18449942D01*
X5761905Y18449942D02*
X5809524Y18497561D01*
X5809524Y18497561D02*
X5904762Y18545180D01*
X5904762Y18545180D02*
X6142857Y18545180D01*
X6142857Y18545180D02*
X6285714Y18497561D01*
X6619048Y18545180D02*
X6857143Y17545180D01*
X6857143Y17545180D02*
X7047619Y18259466D01*
X7047619Y18259466D02*
X7238095Y17545180D01*
X7238095Y17545180D02*
X7476191Y18545180D01*
X8285714Y18211847D02*
X8285714Y17545180D01*
X8047619Y18592800D02*
X7809524Y17878514D01*
X7809524Y17878514D02*
X8428571Y17878514D01*
X9000000Y18545180D02*
X9095238Y18545180D01*
X9095238Y18545180D02*
X9190476Y18497561D01*
X9190476Y18497561D02*
X9238095Y18449942D01*
X9238095Y18449942D02*
X9285714Y18354704D01*
X9285714Y18354704D02*
X9333333Y18164228D01*
X9333333Y18164228D02*
X9333333Y17926133D01*
X9333333Y17926133D02*
X9285714Y17735657D01*
X9285714Y17735657D02*
X9238095Y17640419D01*
X9238095Y17640419D02*
X9190476Y17592800D01*
X9190476Y17592800D02*
X9095238Y17545180D01*
X9095238Y17545180D02*
X9000000Y17545180D01*
X9000000Y17545180D02*
X8904762Y17592800D01*
X8904762Y17592800D02*
X8857143Y17640419D01*
X8857143Y17640419D02*
X8809524Y17735657D01*
X8809524Y17735657D02*
X8761905Y17926133D01*
X8761905Y17926133D02*
X8761905Y18164228D01*
X8761905Y18164228D02*
X8809524Y18354704D01*
X8809524Y18354704D02*
X8857143Y18449942D01*
X8857143Y18449942D02*
X8904762Y18497561D01*
X8904762Y18497561D02*
X9000000Y18545180D01*
X10285714Y17545180D02*
X9714286Y17545180D01*
X10000000Y17545180D02*
X10000000Y18545180D01*
X10000000Y18545180D02*
X9904762Y18402323D01*
X9904762Y18402323D02*
X9809524Y18307085D01*
X9809524Y18307085D02*
X9714286Y18259466D01*
X64865476Y-82894200D02*
X65008333Y-82941819D01*
X65008333Y-82941819D02*
X65246428Y-82941819D01*
X65246428Y-82941819D02*
X65341666Y-82894200D01*
X65341666Y-82894200D02*
X65389285Y-82846580D01*
X65389285Y-82846580D02*
X65436904Y-82751342D01*
X65436904Y-82751342D02*
X65436904Y-82656104D01*
X65436904Y-82656104D02*
X65389285Y-82560866D01*
X65389285Y-82560866D02*
X65341666Y-82513247D01*
X65341666Y-82513247D02*
X65246428Y-82465628D01*
X65246428Y-82465628D02*
X65055952Y-82418009D01*
X65055952Y-82418009D02*
X64960714Y-82370390D01*
X64960714Y-82370390D02*
X64913095Y-82322771D01*
X64913095Y-82322771D02*
X64865476Y-82227533D01*
X64865476Y-82227533D02*
X64865476Y-82132295D01*
X64865476Y-82132295D02*
X64913095Y-82037057D01*
X64913095Y-82037057D02*
X64960714Y-81989438D01*
X64960714Y-81989438D02*
X65055952Y-81941819D01*
X65055952Y-81941819D02*
X65294047Y-81941819D01*
X65294047Y-81941819D02*
X65436904Y-81989438D01*
X65770238Y-81941819D02*
X66008333Y-82941819D01*
X66008333Y-82941819D02*
X66198809Y-82227533D01*
X66198809Y-82227533D02*
X66389285Y-82941819D01*
X66389285Y-82941819D02*
X66627381Y-81941819D01*
X66960714Y-82037057D02*
X67008333Y-81989438D01*
X67008333Y-81989438D02*
X67103571Y-81941819D01*
X67103571Y-81941819D02*
X67341666Y-81941819D01*
X67341666Y-81941819D02*
X67436904Y-81989438D01*
X67436904Y-81989438D02*
X67484523Y-82037057D01*
X67484523Y-82037057D02*
X67532142Y-82132295D01*
X67532142Y-82132295D02*
X67532142Y-82227533D01*
X67532142Y-82227533D02*
X67484523Y-82370390D01*
X67484523Y-82370390D02*
X66913095Y-82941819D01*
X66913095Y-82941819D02*
X67532142Y-82941819D01*
X68151190Y-81941819D02*
X68246428Y-81941819D01*
X68246428Y-81941819D02*
X68341666Y-81989438D01*
X68341666Y-81989438D02*
X68389285Y-82037057D01*
X68389285Y-82037057D02*
X68436904Y-82132295D01*
X68436904Y-82132295D02*
X68484523Y-82322771D01*
X68484523Y-82322771D02*
X68484523Y-82560866D01*
X68484523Y-82560866D02*
X68436904Y-82751342D01*
X68436904Y-82751342D02*
X68389285Y-82846580D01*
X68389285Y-82846580D02*
X68341666Y-82894200D01*
X68341666Y-82894200D02*
X68246428Y-82941819D01*
X68246428Y-82941819D02*
X68151190Y-82941819D01*
X68151190Y-82941819D02*
X68055952Y-82894200D01*
X68055952Y-82894200D02*
X68008333Y-82846580D01*
X68008333Y-82846580D02*
X67960714Y-82751342D01*
X67960714Y-82751342D02*
X67913095Y-82560866D01*
X67913095Y-82560866D02*
X67913095Y-82322771D01*
X67913095Y-82322771D02*
X67960714Y-82132295D01*
X67960714Y-82132295D02*
X68008333Y-82037057D01*
X68008333Y-82037057D02*
X68055952Y-81989438D01*
X68055952Y-81989438D02*
X68151190Y-81941819D01*
X47380952Y32445180D02*
X47047619Y32921371D01*
X46809524Y32445180D02*
X46809524Y33445180D01*
X46809524Y33445180D02*
X47190476Y33445180D01*
X47190476Y33445180D02*
X47285714Y33397561D01*
X47285714Y33397561D02*
X47333333Y33349942D01*
X47333333Y33349942D02*
X47380952Y33254704D01*
X47380952Y33254704D02*
X47380952Y33111847D01*
X47380952Y33111847D02*
X47333333Y33016609D01*
X47333333Y33016609D02*
X47285714Y32968990D01*
X47285714Y32968990D02*
X47190476Y32921371D01*
X47190476Y32921371D02*
X46809524Y32921371D01*
X48238095Y33111847D02*
X48238095Y32445180D01*
X48000000Y33492800D02*
X47761905Y32778514D01*
X47761905Y32778514D02*
X48380952Y32778514D01*
X48952381Y33445180D02*
X49047619Y33445180D01*
X49047619Y33445180D02*
X49142857Y33397561D01*
X49142857Y33397561D02*
X49190476Y33349942D01*
X49190476Y33349942D02*
X49238095Y33254704D01*
X49238095Y33254704D02*
X49285714Y33064228D01*
X49285714Y33064228D02*
X49285714Y32826133D01*
X49285714Y32826133D02*
X49238095Y32635657D01*
X49238095Y32635657D02*
X49190476Y32540419D01*
X49190476Y32540419D02*
X49142857Y32492800D01*
X49142857Y32492800D02*
X49047619Y32445180D01*
X49047619Y32445180D02*
X48952381Y32445180D01*
X48952381Y32445180D02*
X48857143Y32492800D01*
X48857143Y32492800D02*
X48809524Y32540419D01*
X48809524Y32540419D02*
X48761905Y32635657D01*
X48761905Y32635657D02*
X48714286Y32826133D01*
X48714286Y32826133D02*
X48714286Y33064228D01*
X48714286Y33064228D02*
X48761905Y33254704D01*
X48761905Y33254704D02*
X48809524Y33349942D01*
X48809524Y33349942D02*
X48857143Y33397561D01*
X48857143Y33397561D02*
X48952381Y33445180D01*
X49666667Y33349942D02*
X49714286Y33397561D01*
X49714286Y33397561D02*
X49809524Y33445180D01*
X49809524Y33445180D02*
X50047619Y33445180D01*
X50047619Y33445180D02*
X50142857Y33397561D01*
X50142857Y33397561D02*
X50190476Y33349942D01*
X50190476Y33349942D02*
X50238095Y33254704D01*
X50238095Y33254704D02*
X50238095Y33159466D01*
X50238095Y33159466D02*
X50190476Y33016609D01*
X50190476Y33016609D02*
X49619048Y32445180D01*
X49619048Y32445180D02*
X50238095Y32445180D01*
X8191667Y-25744200D02*
X8334524Y-25791819D01*
X8334524Y-25791819D02*
X8572619Y-25791819D01*
X8572619Y-25791819D02*
X8667857Y-25744200D01*
X8667857Y-25744200D02*
X8715476Y-25696580D01*
X8715476Y-25696580D02*
X8763095Y-25601342D01*
X8763095Y-25601342D02*
X8763095Y-25506104D01*
X8763095Y-25506104D02*
X8715476Y-25410866D01*
X8715476Y-25410866D02*
X8667857Y-25363247D01*
X8667857Y-25363247D02*
X8572619Y-25315628D01*
X8572619Y-25315628D02*
X8382143Y-25268009D01*
X8382143Y-25268009D02*
X8286905Y-25220390D01*
X8286905Y-25220390D02*
X8239286Y-25172771D01*
X8239286Y-25172771D02*
X8191667Y-25077533D01*
X8191667Y-25077533D02*
X8191667Y-24982295D01*
X8191667Y-24982295D02*
X8239286Y-24887057D01*
X8239286Y-24887057D02*
X8286905Y-24839438D01*
X8286905Y-24839438D02*
X8382143Y-24791819D01*
X8382143Y-24791819D02*
X8620238Y-24791819D01*
X8620238Y-24791819D02*
X8763095Y-24839438D01*
X9096429Y-24791819D02*
X9334524Y-25791819D01*
X9334524Y-25791819D02*
X9525000Y-25077533D01*
X9525000Y-25077533D02*
X9715476Y-25791819D01*
X9715476Y-25791819D02*
X9953572Y-24791819D01*
X10286905Y-24887057D02*
X10334524Y-24839438D01*
X10334524Y-24839438D02*
X10429762Y-24791819D01*
X10429762Y-24791819D02*
X10667857Y-24791819D01*
X10667857Y-24791819D02*
X10763095Y-24839438D01*
X10763095Y-24839438D02*
X10810714Y-24887057D01*
X10810714Y-24887057D02*
X10858333Y-24982295D01*
X10858333Y-24982295D02*
X10858333Y-25077533D01*
X10858333Y-25077533D02*
X10810714Y-25220390D01*
X10810714Y-25220390D02*
X10239286Y-25791819D01*
X10239286Y-25791819D02*
X10858333Y-25791819D01*
D11*
X92250000Y25460000D03*
X92250000Y28000000D03*
X92250000Y30540000D03*
X80645000Y-109538000D03*
X85725000Y-109538000D03*
X90805000Y-109538000D03*
X81915000Y-106998000D03*
X88265000Y-104458000D03*
X42545000Y-71438000D03*
X47625000Y-71438000D03*
X52705000Y-71438000D03*
X43815000Y-68898000D03*
X50165000Y-66358000D03*
X99250000Y-5000000D03*
X102750000Y-5000000D03*
X102250000Y-119000000D03*
X61595000Y-52388000D03*
X66675000Y-52388000D03*
X71755000Y-52388000D03*
X62865000Y-49848000D03*
X69215000Y-47308000D03*
X23495000Y-109538000D03*
X28575000Y-109538000D03*
X33655000Y-109538000D03*
X24765000Y-106998000D03*
X31115000Y-104458000D03*
X80645000Y-90487000D03*
X85725000Y-90487000D03*
X90805000Y-90487000D03*
X81915000Y-87947000D03*
X88265000Y-85407000D03*
X101000000Y14190000D03*
X101000000Y16730000D03*
X101000000Y19270000D03*
X101000000Y21810000D03*
X80645000Y-71438000D03*
X85725000Y-71438000D03*
X90805000Y-71438000D03*
X81915000Y-68898000D03*
X88265000Y-66358000D03*
X92250000Y460000D03*
X92250000Y3000000D03*
X92250000Y5540000D03*
X102250000Y36000000D03*
X80645000Y-52388000D03*
X85725000Y-52388000D03*
X90805000Y-52388000D03*
X81915000Y-49848000D03*
X88265000Y-47308000D03*
X22250000Y-8000000D03*
X22250000Y-10540000D03*
X61595000Y-33337000D03*
X66675000Y-33337000D03*
X71755000Y-33337000D03*
X62865000Y-30797000D03*
X69215000Y-28257000D03*
X42545000Y-109538000D03*
X47625000Y-109538000D03*
X52705000Y-109538000D03*
X43815000Y-106998000D03*
X50165000Y-104458000D03*
X42545000Y-90487000D03*
X47625000Y-90487000D03*
X52705000Y-90487000D03*
X43815000Y-87947000D03*
X50165000Y-85407000D03*
X61595000Y-109538000D03*
X66675000Y-109538000D03*
X71755000Y-109538000D03*
X62865000Y-106998000D03*
X69215000Y-104458000D03*
X4445000Y-52388000D03*
X9525000Y-52388000D03*
X14605000Y-52388000D03*
X5715000Y-49848000D03*
X12065000Y-47308000D03*
X0Y-119000000D03*
X4445000Y-109538000D03*
X9525000Y-109538000D03*
X14605000Y-109538000D03*
X5715000Y-106998000D03*
X12065000Y-104458000D03*
X4445000Y-9525000D03*
X9525000Y-9525000D03*
X14605000Y-9525000D03*
X5715000Y-6985000D03*
X12065000Y-4445000D03*
X0Y36000000D03*
X61595000Y-71438000D03*
X66675000Y-71438000D03*
X71755000Y-71438000D03*
X62865000Y-68898000D03*
X69215000Y-66358000D03*
D12*
X46805000Y39000000D03*
X46805000Y35200000D03*
X55445000Y39000000D03*
X55445000Y35200000D03*
D11*
X95000000Y14190000D03*
X95000000Y16730000D03*
X95000000Y19270000D03*
X95000000Y21810000D03*
X23495000Y-33337000D03*
X28575000Y-33337000D03*
X33655000Y-33337000D03*
X24765000Y-30797000D03*
X31115000Y-28257000D03*
X4445000Y-90487000D03*
X9525000Y-90487000D03*
X14605000Y-90487000D03*
X5715000Y-87947000D03*
X12065000Y-85407000D03*
X98250000Y25460000D03*
X98250000Y28000000D03*
X98250000Y30540000D03*
X23495000Y-90487000D03*
X28575000Y-90487000D03*
X33655000Y-90487000D03*
X24765000Y-87947000D03*
X31115000Y-85407000D03*
X42545000Y-52388000D03*
X47625000Y-52388000D03*
X52705000Y-52388000D03*
X43815000Y-49848000D03*
X50165000Y-47308000D03*
X23495000Y-52388000D03*
X28575000Y-52388000D03*
X33655000Y-52388000D03*
X24765000Y-49848000D03*
X31115000Y-47308000D03*
X23495000Y-71438000D03*
X28575000Y-71438000D03*
X33655000Y-71438000D03*
X24765000Y-68898000D03*
X31115000Y-66358000D03*
X80645000Y-33337000D03*
X85725000Y-33337000D03*
X90805000Y-33337000D03*
X81915000Y-30797000D03*
X88265000Y-28257000D03*
X22250000Y-21810000D03*
X22250000Y-19270000D03*
X22250000Y-16730000D03*
X22250000Y-14190000D03*
X42545000Y-33337000D03*
X47625000Y-33337000D03*
X52705000Y-33337000D03*
X43815000Y-30797000D03*
X50165000Y-28257000D03*
X4445000Y-71438000D03*
X9525000Y-71438000D03*
X14605000Y-71438000D03*
X5715000Y-68898000D03*
X12065000Y-66358000D03*
X5500000Y2500000D03*
X10500000Y2500000D03*
X8000000Y2500000D03*
X5500000Y17500000D03*
X10500000Y17500000D03*
X61595000Y-90487000D03*
X66675000Y-90487000D03*
X71755000Y-90487000D03*
X62865000Y-87947000D03*
X69215000Y-85407000D03*
X4445000Y-33337000D03*
X9525000Y-33337000D03*
X14605000Y-33337000D03*
X5715000Y-30797000D03*
X12065000Y-28257000D03*
X36075000Y-77938000D03*
X28455000Y-77938000D03*
X55125000Y-77938000D03*
X47505000Y-77938000D03*
X93225000Y-77938000D03*
X85605000Y-77938000D03*
X55125000Y-58888000D03*
X47505000Y-58888000D03*
X17025000Y-16025000D03*
X9405000Y-16025000D03*
X74175000Y-58888000D03*
X66555000Y-58888000D03*
X74175000Y-39837000D03*
X66555000Y-39837000D03*
X55125000Y-39837000D03*
X47505000Y-39837000D03*
X93225000Y-39837000D03*
X85605000Y-39837000D03*
X17025000Y-39837000D03*
X9405000Y-39837000D03*
X36075000Y-116038000D03*
X28455000Y-116038000D03*
X36075000Y-39837000D03*
X28455000Y-39837000D03*
X55125000Y-96987000D03*
X47505000Y-96987000D03*
X55125000Y-116038000D03*
X47505000Y-116038000D03*
X74175000Y-77938000D03*
X66555000Y-77938000D03*
X74175000Y-116038000D03*
X66555000Y-116038000D03*
X36075000Y-96987000D03*
X28455000Y-96987000D03*
X17025000Y-77938000D03*
X9405000Y-77938000D03*
X36075000Y-58888000D03*
X28455000Y-58888000D03*
X93225000Y-96987000D03*
X85605000Y-96987000D03*
X93225000Y-116038000D03*
X85605000Y-116038000D03*
X93225000Y-58888000D03*
X85605000Y-58888000D03*
X17025000Y-58888000D03*
X9405000Y-58888000D03*
X17025000Y-116038000D03*
X9405000Y-116038000D03*
X17025000Y-96987000D03*
X9405000Y-96987000D03*
X74175000Y-96987000D03*
X66555000Y-96987000D03*
M02*
