%TF.GenerationSoftware,KiCad,Pcbnew,9.0.7*%
%TF.CreationDate,2026-03-01T07:38:40-05:00*%
%TF.ProjectId,Macropad,4d616372-6f70-4616-942e-6b696361645f,rev?*%
%TF.SameCoordinates,Original*%
%TF.FileFunction,Paste,Top*%
%TF.FilePolarity,Positive*%
%FSLAX46Y46*%
G04 Gerber Fmt 4.6, Leading zero omitted, Abs format (unit mm)*
G04 Created by KiCad (PCBNEW 9.0.7) date 2026-03-01 07:38:40*
%MOMM*%
%LPD*%
G01*
G04 APERTURE LIST*
G04 Aperture macros list*
%AMRoundRect*
0 Rectangle with rounded corners*
0 $1 Rounding radius*
0 $2 $3 $4 $5 $6 $7 $8 $9 X,Y pos of 4 corners*
0 Add a 4 corners polygon primitive as box body*
4,1,4,$2,$3,$4,$5,$6,$7,$8,$9,$2,$3,0*
0 Add four circle primitives for the rounded corners*
1,1,$1+$1,$2,$3*
1,1,$1+$1,$4,$5*
1,1,$1+$1,$6,$7*
1,1,$1+$1,$8,$9*
0 Add four rect primitives between the rounded corners*
20,1,$1+$1,$2,$3,$4,$5,0*
20,1,$1+$1,$4,$5,$6,$7,0*
20,1,$1+$1,$6,$7,$8,$9,0*
20,1,$1+$1,$8,$9,$2,$3,0*%
G04 Aperture macros list end*
%ADD10RoundRect,0.160000X-0.390000X-0.240000X0.390000X-0.240000X0.390000X0.240000X-0.390000X0.240000X0*%
%ADD11RoundRect,0.200000X-0.200000X-0.275000X0.200000X-0.275000X0.200000X0.275000X-0.200000X0.275000X0*%
%ADD12RoundRect,0.150000X-0.512500X-0.150000X0.512500X-0.150000X0.512500X0.150000X-0.512500X0.150000X0*%
%ADD13RoundRect,0.250000X-1.000000X-1.250000X1.000000X-1.250000X1.000000X1.250000X-1.000000X1.250000X0*%
%ADD14RoundRect,0.243750X-0.243750X-0.456250X0.243750X-0.456250X0.243750X0.456250X-0.243750X0.456250X0*%
%ADD15RoundRect,0.200000X0.275000X-0.200000X0.275000X0.200000X-0.275000X0.200000X-0.275000X-0.200000X0*%
%ADD16RoundRect,0.175000X-0.175000X-0.425000X0.175000X-0.425000X0.175000X0.425000X-0.175000X0.425000X0*%
%ADD17RoundRect,0.190000X0.190000X0.410000X-0.190000X0.410000X-0.190000X-0.410000X0.190000X-0.410000X0*%
%ADD18RoundRect,0.200000X0.200000X0.400000X-0.200000X0.400000X-0.200000X-0.400000X0.200000X-0.400000X0*%
%ADD19RoundRect,0.175000X0.175000X0.425000X-0.175000X0.425000X-0.175000X-0.425000X0.175000X-0.425000X0*%
%ADD20RoundRect,0.190000X-0.190000X-0.410000X0.190000X-0.410000X0.190000X0.410000X-0.190000X0.410000X0*%
%ADD21RoundRect,0.200000X-0.200000X-0.400000X0.200000X-0.400000X0.200000X0.400000X-0.200000X0.400000X0*%
%ADD22O,1.100000X1.700000*%
%ADD23RoundRect,0.240000X-0.360000X-0.460000X0.360000X-0.460000X0.360000X0.460000X-0.360000X0.460000X0*%
%ADD24RoundRect,0.375000X-0.625000X-0.375000X0.625000X-0.375000X0.625000X0.375000X-0.625000X0.375000X0*%
%ADD25RoundRect,0.500000X-0.500000X-1.400000X0.500000X-1.400000X0.500000X1.400000X-0.500000X1.400000X0*%
%ADD26R,1.500000X0.900000*%
%ADD27C,0.350000*%
%ADD28O,0.600000X1.200000*%
G04 APERTURE END LIST*
D10*
%TO.C,RGB1*%
X7975000Y-14675000D03*
X11075000Y-14675000D03*
X11075000Y-16375000D03*
X7975000Y-16375000D03*
%TD*%
%TO.C,RGB2*%
X7975000Y-38487000D03*
X11075000Y-38487000D03*
X11075000Y-40187000D03*
X7975000Y-40187000D03*
%TD*%
%TO.C,RGB26*%
X84175000Y-114688000D03*
X87275000Y-114688000D03*
X87275000Y-116388000D03*
X84175000Y-116388000D03*
%TD*%
%TO.C,RGB7*%
X7975000Y-57538000D03*
X11075000Y-57538000D03*
X11075000Y-59238000D03*
X7975000Y-59238000D03*
%TD*%
%TO.C,RGB22*%
X7975000Y-114688000D03*
X11075000Y-114688000D03*
X11075000Y-116388000D03*
X7975000Y-116388000D03*
%TD*%
D11*
%TO.C,C402*%
X32675000Y-25000000D03*
X34325000Y-25000000D03*
%TD*%
D10*
%TO.C,RGB21*%
X84175000Y-95637000D03*
X87275000Y-95637000D03*
X87275000Y-97337000D03*
X84175000Y-97337000D03*
%TD*%
%TO.C,RGB15*%
X65125000Y-76588000D03*
X68225000Y-76588000D03*
X68225000Y-78288000D03*
X65125000Y-78288000D03*
%TD*%
D12*
%TO.C,U403*%
X56725000Y-17000000D03*
X56725000Y-17950000D03*
X56725000Y-18900000D03*
X59000000Y-18900000D03*
X59000000Y-17000000D03*
%TD*%
D11*
%TO.C,C404*%
X37175000Y-18000000D03*
X38825000Y-18000000D03*
%TD*%
D10*
%TO.C,RGB23*%
X27025000Y-114688000D03*
X30125000Y-114688000D03*
X30125000Y-116388000D03*
X27025000Y-116388000D03*
%TD*%
%TO.C,RGB16*%
X84175000Y-76588000D03*
X87275000Y-76588000D03*
X87275000Y-78288000D03*
X84175000Y-78288000D03*
%TD*%
D11*
%TO.C,R404*%
X39175000Y-27050000D03*
X40825000Y-27050000D03*
%TD*%
D10*
%TO.C,RGB8*%
X27025000Y-57538000D03*
X30125000Y-57538000D03*
X30125000Y-59238000D03*
X27025000Y-59238000D03*
%TD*%
D12*
%TO.C,U404*%
X37862500Y-13050000D03*
X37862500Y-14000000D03*
X37862500Y-14950000D03*
X40137500Y-14950000D03*
X40137500Y-14000000D03*
X40137500Y-13050000D03*
%TD*%
D10*
%TO.C,RGB14*%
X46075000Y-76588000D03*
X49175000Y-76588000D03*
X49175000Y-78288000D03*
X46075000Y-78288000D03*
%TD*%
D11*
%TO.C,C405*%
X48175000Y-14000000D03*
X49825000Y-14000000D03*
%TD*%
D13*
%TO.C,L401*%
X42000000Y-14000000D03*
X46000000Y-14000000D03*
%TD*%
D10*
%TO.C,RGB9*%
X46075000Y-57538000D03*
X49175000Y-57538000D03*
X49175000Y-59238000D03*
X46075000Y-59238000D03*
%TD*%
D14*
%TO.C,R401*%
X78122500Y3000000D03*
X79997500Y3000000D03*
%TD*%
D10*
%TO.C,RGB18*%
X27025000Y-95637000D03*
X30125000Y-95637000D03*
X30125000Y-97337000D03*
X27025000Y-97337000D03*
%TD*%
%TO.C,RGB6*%
X84175000Y-38487000D03*
X87275000Y-38487000D03*
X87275000Y-40187000D03*
X84175000Y-40187000D03*
%TD*%
D15*
%TO.C,R403*%
X52675000Y31500000D03*
X54325000Y31500000D03*
%TD*%
D11*
%TO.C,C403*%
X29675000Y-25000000D03*
X31325000Y-25000000D03*
%TD*%
D10*
%TO.C,RGB13*%
X27025000Y-76588000D03*
X30125000Y-76588000D03*
X30125000Y-78288000D03*
X27025000Y-78288000D03*
%TD*%
%TO.C,RGB11*%
X84175000Y-57538000D03*
X87275000Y-57538000D03*
X87275000Y-59238000D03*
X84175000Y-59238000D03*
%TD*%
%TO.C,RGB25*%
X65125000Y-114688000D03*
X68225000Y-114688000D03*
X68225000Y-116388000D03*
X65125000Y-116388000D03*
%TD*%
D11*
%TO.C,R406*%
X41175000Y-20000000D03*
X42825000Y-20000000D03*
%TD*%
D16*
%TO.C,J402*%
X50625000Y39080000D03*
D17*
X52645000Y39080000D03*
D18*
X53875000Y39080000D03*
D19*
X51625000Y39080000D03*
D20*
X49605000Y39080000D03*
D21*
X48375000Y39080000D03*
D22*
X46805000Y39000000D03*
X46805000Y35200000D03*
X55445000Y39000000D03*
X55445000Y35200000D03*
%TD*%
D10*
%TO.C,RGB3*%
X27025000Y-38487000D03*
X30125000Y-38487000D03*
X30125000Y-40187000D03*
X27025000Y-40187000D03*
%TD*%
%TO.C,RGB4*%
X46075000Y-38487000D03*
X49175000Y-38487000D03*
X49175000Y-40187000D03*
X46075000Y-40187000D03*
%TD*%
%TO.C,RGB5*%
X65125000Y-38487000D03*
X68225000Y-38487000D03*
X68225000Y-40187000D03*
X65125000Y-40187000D03*
%TD*%
D23*
%TO.C,D401*%
X44850000Y-10000000D03*
X48150000Y-10000000D03*
%TD*%
D24*
%TO.C,U402*%
X27850000Y-11700000D03*
X27850000Y-14000000D03*
D25*
X34150000Y-14000000D03*
D24*
X27850000Y-16300000D03*
%TD*%
D11*
%TO.C,R405*%
X41175000Y-18000000D03*
X42825000Y-18000000D03*
%TD*%
D10*
%TO.C,RGB17*%
X7975000Y-95637000D03*
X11075000Y-95637000D03*
X11075000Y-97337000D03*
X7975000Y-97337000D03*
%TD*%
%TO.C,RGB24*%
X46075000Y-114688000D03*
X49175000Y-114688000D03*
X49175000Y-116388000D03*
X46075000Y-116388000D03*
%TD*%
%TO.C,RGB12*%
X7975000Y-76588000D03*
X11075000Y-76588000D03*
X11075000Y-78288000D03*
X7975000Y-78288000D03*
%TD*%
%TO.C,RGB10*%
X65125000Y-57538000D03*
X68225000Y-57538000D03*
X68225000Y-59238000D03*
X65125000Y-59238000D03*
%TD*%
%TO.C,RGB19*%
X46075000Y-95637000D03*
X49175000Y-95637000D03*
X49175000Y-97337000D03*
X46075000Y-97337000D03*
%TD*%
%TO.C,RGB20*%
X65125000Y-95637000D03*
X68225000Y-95637000D03*
X68225000Y-97337000D03*
X65125000Y-97337000D03*
%TD*%
D26*
%TO.C,U901*%
X66500000Y28260000D03*
X66500000Y26990000D03*
X66500000Y25720000D03*
X66500000Y24450000D03*
X66500000Y23180000D03*
X66500000Y21910000D03*
X66500000Y20640000D03*
X66500000Y19370000D03*
X66500000Y18100000D03*
X66500000Y16830000D03*
X66500000Y15560000D03*
X66500000Y14290000D03*
X66500000Y13020000D03*
X66500000Y11750000D03*
X68265000Y10500000D03*
X69535000Y10500000D03*
X70805000Y10500000D03*
X72075000Y10500000D03*
X73345000Y10500000D03*
X74615000Y10500000D03*
X75885000Y10500000D03*
X77155000Y10500000D03*
X78425000Y10500000D03*
X79695000Y10500000D03*
X80965000Y10500000D03*
X82235000Y10500000D03*
X84000000Y11750000D03*
X84000000Y13020000D03*
X84000000Y14290000D03*
X84000000Y15560000D03*
X84000000Y16830000D03*
X84000000Y18100000D03*
X84000000Y19370000D03*
X84000000Y20640000D03*
X84000000Y21910000D03*
X84000000Y23180000D03*
X84000000Y24450000D03*
X84000000Y25720000D03*
X84000000Y26990000D03*
X84000000Y28260000D03*
%TD*%
D15*
%TO.C,R402*%
X47675000Y31500000D03*
X49325000Y31500000D03*
%TD*%
D27*
X92250000Y25460000D03*
X92250000Y28000000D03*
X92250000Y30540000D03*
X80645000Y-109538000D03*
X85725000Y-109538000D03*
X90805000Y-109538000D03*
X81915000Y-106998000D03*
X88265000Y-104458000D03*
X42545000Y-71438000D03*
X47625000Y-71438000D03*
X52705000Y-71438000D03*
X43815000Y-68898000D03*
X50165000Y-66358000D03*
X99250000Y-5000000D03*
X102750000Y-5000000D03*
X102250000Y-119000000D03*
X61595000Y-52388000D03*
X66675000Y-52388000D03*
X71755000Y-52388000D03*
X62865000Y-49848000D03*
X69215000Y-47308000D03*
X23495000Y-109538000D03*
X28575000Y-109538000D03*
X33655000Y-109538000D03*
X24765000Y-106998000D03*
X31115000Y-104458000D03*
X80645000Y-90487000D03*
X85725000Y-90487000D03*
X90805000Y-90487000D03*
X81915000Y-87947000D03*
X88265000Y-85407000D03*
X101000000Y14190000D03*
X101000000Y16730000D03*
X101000000Y19270000D03*
X101000000Y21810000D03*
X80645000Y-71438000D03*
X85725000Y-71438000D03*
X90805000Y-71438000D03*
X81915000Y-68898000D03*
X88265000Y-66358000D03*
X92250000Y460000D03*
X92250000Y3000000D03*
X92250000Y5540000D03*
X102250000Y36000000D03*
X80645000Y-52388000D03*
X85725000Y-52388000D03*
X90805000Y-52388000D03*
X81915000Y-49848000D03*
X88265000Y-47308000D03*
X22250000Y-8000000D03*
X22250000Y-10540000D03*
X61595000Y-33337000D03*
X66675000Y-33337000D03*
X71755000Y-33337000D03*
X62865000Y-30797000D03*
X69215000Y-28257000D03*
X42545000Y-109538000D03*
X47625000Y-109538000D03*
X52705000Y-109538000D03*
X43815000Y-106998000D03*
X50165000Y-104458000D03*
X42545000Y-90487000D03*
X47625000Y-90487000D03*
X52705000Y-90487000D03*
X43815000Y-87947000D03*
X50165000Y-85407000D03*
X61595000Y-109538000D03*
X66675000Y-109538000D03*
X71755000Y-109538000D03*
X62865000Y-106998000D03*
X69215000Y-104458000D03*
X4445000Y-52388000D03*
X9525000Y-52388000D03*
X14605000Y-52388000D03*
X5715000Y-49848000D03*
X12065000Y-47308000D03*
X0Y-119000000D03*
X4445000Y-109538000D03*
X9525000Y-109538000D03*
X14605000Y-109538000D03*
X5715000Y-106998000D03*
X12065000Y-104458000D03*
X4445000Y-9525000D03*
X9525000Y-9525000D03*
X14605000Y-9525000D03*
X5715000Y-6985000D03*
X12065000Y-4445000D03*
X0Y36000000D03*
X61595000Y-71438000D03*
X66675000Y-71438000D03*
X71755000Y-71438000D03*
X62865000Y-68898000D03*
X69215000Y-66358000D03*
D28*
X46805000Y39000000D03*
X46805000Y35200000D03*
X55445000Y39000000D03*
X55445000Y35200000D03*
D27*
X95000000Y14190000D03*
X95000000Y16730000D03*
X95000000Y19270000D03*
X95000000Y21810000D03*
X23495000Y-33337000D03*
X28575000Y-33337000D03*
X33655000Y-33337000D03*
X24765000Y-30797000D03*
X31115000Y-28257000D03*
X4445000Y-90487000D03*
X9525000Y-90487000D03*
X14605000Y-90487000D03*
X5715000Y-87947000D03*
X12065000Y-85407000D03*
X98250000Y25460000D03*
X98250000Y28000000D03*
X98250000Y30540000D03*
X23495000Y-90487000D03*
X28575000Y-90487000D03*
X33655000Y-90487000D03*
X24765000Y-87947000D03*
X31115000Y-85407000D03*
X42545000Y-52388000D03*
X47625000Y-52388000D03*
X52705000Y-52388000D03*
X43815000Y-49848000D03*
X50165000Y-47308000D03*
X23495000Y-52388000D03*
X28575000Y-52388000D03*
X33655000Y-52388000D03*
X24765000Y-49848000D03*
X31115000Y-47308000D03*
X23495000Y-71438000D03*
X28575000Y-71438000D03*
X33655000Y-71438000D03*
X24765000Y-68898000D03*
X31115000Y-66358000D03*
X80645000Y-33337000D03*
X85725000Y-33337000D03*
X90805000Y-33337000D03*
X81915000Y-30797000D03*
X88265000Y-28257000D03*
X22250000Y-21810000D03*
X22250000Y-19270000D03*
X22250000Y-16730000D03*
X22250000Y-14190000D03*
X42545000Y-33337000D03*
X47625000Y-33337000D03*
X52705000Y-33337000D03*
X43815000Y-30797000D03*
X50165000Y-28257000D03*
X4445000Y-71438000D03*
X9525000Y-71438000D03*
X14605000Y-71438000D03*
X5715000Y-68898000D03*
X12065000Y-66358000D03*
X5500000Y2500000D03*
X10500000Y2500000D03*
X8000000Y2500000D03*
X5500000Y17500000D03*
X10500000Y17500000D03*
X61595000Y-90487000D03*
X66675000Y-90487000D03*
X71755000Y-90487000D03*
X62865000Y-87947000D03*
X69215000Y-85407000D03*
X4445000Y-33337000D03*
X9525000Y-33337000D03*
X14605000Y-33337000D03*
X5715000Y-30797000D03*
X12065000Y-28257000D03*
X36075000Y-77938000D03*
X28455000Y-77938000D03*
X55125000Y-77938000D03*
X47505000Y-77938000D03*
X93225000Y-77938000D03*
X85605000Y-77938000D03*
X55125000Y-58888000D03*
X47505000Y-58888000D03*
X17025000Y-16025000D03*
X9405000Y-16025000D03*
X74175000Y-58888000D03*
X66555000Y-58888000D03*
X74175000Y-39837000D03*
X66555000Y-39837000D03*
X55125000Y-39837000D03*
X47505000Y-39837000D03*
X93225000Y-39837000D03*
X85605000Y-39837000D03*
X17025000Y-39837000D03*
X9405000Y-39837000D03*
X36075000Y-116038000D03*
X28455000Y-116038000D03*
X36075000Y-39837000D03*
X28455000Y-39837000D03*
X55125000Y-96987000D03*
X47505000Y-96987000D03*
X55125000Y-116038000D03*
X47505000Y-116038000D03*
X74175000Y-77938000D03*
X66555000Y-77938000D03*
X74175000Y-116038000D03*
X66555000Y-116038000D03*
X36075000Y-96987000D03*
X28455000Y-96987000D03*
X17025000Y-77938000D03*
X9405000Y-77938000D03*
X36075000Y-58888000D03*
X28455000Y-58888000D03*
X93225000Y-96987000D03*
X85605000Y-96987000D03*
X93225000Y-116038000D03*
X85605000Y-116038000D03*
X93225000Y-58888000D03*
X85605000Y-58888000D03*
X17025000Y-58888000D03*
X9405000Y-58888000D03*
X17025000Y-116038000D03*
X9405000Y-116038000D03*
X17025000Y-96987000D03*
X9405000Y-96987000D03*
X74175000Y-96987000D03*
X66555000Y-96987000D03*
M02*
