M48
; DRILL file {KiCad 9.0.7} date 2026-03-01T07:38:41-0500
; FORMAT={-:-/ absolute / metric / decimal}
; #@! TF.CreationDate,2026-03-01T07:38:41-05:00
; #@! TF.GenerationSoftware,Kicad,Pcbnew,9.0.7
; #@! TF.FileFunction,Plated,1,2,PTH
FMAT,2
METRIC
; #@! TA.AperFunction,Plated,PTH,ViaDrill
T1C0.400
; #@! TA.AperFunction,Plated,PTH,ComponentDrill
T2C0.600
; #@! TA.AperFunction,Plated,PTH,ComponentDrill
T3C0.800
; #@! TA.AperFunction,Plated,PTH,ComponentDrill
T4C1.000
; #@! TA.AperFunction,Plated,PTH,ComponentDrill
T5C3.000
%
G90
G05
T1
X12.5Y-31.92
X18.0Y-31.92
X50.625Y37.58
X51.625Y36.58
X66.5Y28.26
X66.5Y26.99
X66.5Y25.72
X70.25Y11.57
X72.075Y12.0
X73.345Y12.0
X74.615Y12.0
X75.885Y12.0
X77.155Y12.0
X80.25Y29.35
X80.25Y26.81
X80.25Y24.27
T3
X9.405Y-16.025
X9.405Y-39.837
X9.405Y-58.888
X9.405Y-77.938
X9.405Y-96.987
X9.405Y-116.038
X17.025Y-16.025
X17.025Y-39.837
X17.025Y-58.888
X17.025Y-77.938
X17.025Y-96.987
X17.025Y-116.038
X28.455Y-39.837
X28.455Y-58.888
X28.455Y-77.938
X28.455Y-96.987
X28.455Y-116.038
X36.075Y-39.837
X36.075Y-58.888
X36.075Y-77.938
X36.075Y-96.987
X36.075Y-116.038
X47.505Y-39.837
X47.505Y-58.888
X47.505Y-77.938
X47.505Y-96.987
X47.505Y-116.038
X55.125Y-39.837
X55.125Y-58.888
X55.125Y-77.938
X55.125Y-96.987
X55.125Y-116.038
X66.555Y-39.837
X66.555Y-58.888
X66.555Y-77.938
X66.555Y-96.987
X66.555Y-116.038
X74.175Y-39.837
X74.175Y-58.888
X74.175Y-77.938
X74.175Y-96.987
X74.175Y-116.038
X85.605Y-39.837
X85.605Y-58.888
X85.605Y-77.938
X85.605Y-96.987
X85.605Y-116.038
X93.225Y-39.837
X93.225Y-58.888
X93.225Y-77.938
X93.225Y-96.987
X93.225Y-116.038
X99.25Y-5.0
X102.75Y-5.0
T4
X5.5Y17.5
X5.5Y2.5
X8.0Y2.5
X10.5Y17.5
X10.5Y2.5
X22.25Y-8.0
X22.25Y-10.54
X22.25Y-14.19
X22.25Y-16.73
X22.25Y-19.27
X22.25Y-21.81
X92.25Y30.54
X92.25Y28.0
X92.25Y25.46
X92.25Y5.54
X92.25Y3.0
X92.25Y0.46
X95.0Y21.81
X95.0Y19.27
X95.0Y16.73
X95.0Y14.19
X98.25Y30.54
X98.25Y28.0
X98.25Y25.46
X101.0Y21.81
X101.0Y19.27
X101.0Y16.73
X101.0Y14.19
T5
X5.715Y-6.985
X5.715Y-30.797
X5.715Y-49.848
X5.715Y-68.898
X5.715Y-87.947
X5.715Y-106.998
X12.065Y-4.445
X12.065Y-28.257
X12.065Y-47.308
X12.065Y-66.358
X12.065Y-85.407
X12.065Y-104.458
X24.765Y-30.797
X24.765Y-49.848
X24.765Y-68.898
X24.765Y-87.947
X24.765Y-106.998
X31.115Y-28.257
X31.115Y-47.308
X31.115Y-66.358
X31.115Y-85.407
X31.115Y-104.458
X43.815Y-30.797
X43.815Y-49.848
X43.815Y-68.898
X43.815Y-87.947
X43.815Y-106.998
X50.165Y-28.257
X50.165Y-47.308
X50.165Y-66.358
X50.165Y-85.407
X50.165Y-104.458
X62.865Y-30.797
X62.865Y-49.848
X62.865Y-68.898
X62.865Y-87.947
X62.865Y-106.998
X69.215Y-28.257
X69.215Y-47.308
X69.215Y-66.358
X69.215Y-85.407
X69.215Y-104.458
X81.915Y-30.797
X81.915Y-49.848
X81.915Y-68.898
X81.915Y-87.947
X81.915Y-106.998
X88.265Y-28.257
X88.265Y-47.308
X88.265Y-66.358
X88.265Y-85.407
X88.265Y-104.458
T2
X46.805Y39.3G85X46.805Y38.7
G05
X46.805Y35.5G85X46.805Y34.9
G05
X55.445Y39.3G85X55.445Y38.7
G05
X55.445Y35.5G85X55.445Y34.9
G05
M30
