<?xml version="1.0" standalone="no"?>
 <!DOCTYPE svg PUBLIC "-//W3C//DTD SVG 1.1//EN" 
 "http://www.w3.org/Graphics/SVG/1.1/DTD/svg11.dtd"> 
<svg
  xmlns:svg="http://www.w3.org/2000/svg"
  xmlns="http://www.w3.org/2000/svg"
  xmlns:xlink="http://www.w3.org/1999/xlink"
  version="1.1"
  width="297.0022mm" height="210.0072mm" viewBox="0.0000 0.0000 297.0022 210.0072">
<title>SVG Image created as Macropad-NPTH-drl_map.svg date 2026/03/01 07:38:41 </title>
  <desc>Image generated by PCBNEW </desc>
<g style="fill:#000000; fill-opacity:1.0000;stroke:#000000; stroke-opacity:1.0000;
stroke-linecap:round; stroke-linejoin:round;"
 transform="translate(0 0) scale(1 1)">
<path style="fill:none; 
stroke:#000000; stroke-width:0.0702; stroke-opacity:1; 
stroke-linecap:round; stroke-linejoin:round;fill:none"
d="M 109.0810,5.0351
187.9212,5.0351
187.9212,120.9692
109.0810,120.9692
Z" /> 
</g>
<g style="fill:none; 
stroke:#000000; stroke-width:0.1229; stroke-opacity:1; 
stroke-linecap:round; stroke-linejoin:round;">
<path d="M115.1002 39.9074
L116.3294 41.1366
" />
<path d="M116.3294 39.9074
L115.1002 41.1366
" />
<path d="M115.1002 56.6321
L116.3294 57.8612
" />
<path d="M116.3294 56.6321
L115.1002 57.8612
" />
<path d="M115.1002 70.0128
L116.3294 71.2419
" />
<path d="M116.3294 70.0128
L115.1002 71.2419
" />
<path d="M115.1002 83.3928
L116.3294 84.6219
" />
<path d="M116.3294 83.3928
L115.1002 84.6219
" />
<path d="M115.1002 96.7721
L116.3294 98.0012
" />
<path d="M116.3294 96.7721
L115.1002 98.0012
" />
<path d="M115.1002 110.1528
L116.3294 111.3820
" />
<path d="M116.3294 110.1528
L115.1002 111.3820
" />
<path d="M122.2362 39.9074
L123.4654 41.1366
" />
<path d="M123.4654 39.9074
L122.2362 41.1366
" />
<path d="M122.2362 56.6321
L123.4654 57.8612
" />
<path d="M123.4654 56.6321
L122.2362 57.8612
" />
<path d="M122.2362 70.0128
L123.4654 71.2419
" />
<path d="M123.4654 70.0128
L122.2362 71.2419
" />
<path d="M122.2362 83.3928
L123.4654 84.6219
" />
<path d="M123.4654 83.3928
L122.2362 84.6219
" />
<path d="M122.2362 96.7721
L123.4654 98.0012
" />
<path d="M123.4654 96.7721
L122.2362 98.0012
" />
<path d="M122.2362 110.1528
L123.4654 111.3820
" />
<path d="M123.4654 110.1528
L122.2362 111.3820
" />
<path d="M128.4803 56.6321
L129.7094 57.8612
" />
<path d="M129.7094 56.6321
L128.4803 57.8612
" />
<path d="M128.4803 70.0128
L129.7094 71.2419
" />
<path d="M129.7094 70.0128
L128.4803 71.2419
" />
<path d="M128.4803 83.3928
L129.7094 84.6219
" />
<path d="M129.7094 83.3928
L128.4803 84.6219
" />
<path d="M128.4803 96.7721
L129.7094 98.0012
" />
<path d="M129.7094 96.7721
L128.4803 98.0012
" />
<path d="M128.4803 110.1528
L129.7094 111.3820
" />
<path d="M129.7094 110.1528
L128.4803 111.3820
" />
<path d="M135.6163 56.6321
L136.8454 57.8612
" />
<path d="M136.8454 56.6321
L135.6163 57.8612
" />
<path d="M135.6163 70.0128
L136.8454 71.2419
" />
<path d="M136.8454 70.0128
L135.6163 71.2419
" />
<path d="M135.6163 83.3928
L136.8454 84.6219
" />
<path d="M136.8454 83.3928
L135.6163 84.6219
" />
<path d="M135.6163 96.7721
L136.8454 98.0012
" />
<path d="M136.8454 96.7721
L135.6163 98.0012
" />
<path d="M135.6163 110.1528
L136.8454 111.3820
" />
<path d="M136.8454 110.1528
L135.6163 111.3820
" />
<path d="M141.8603 56.6321
L143.0894 57.8612
" />
<path d="M143.0894 56.6321
L141.8603 57.8612
" />
<path d="M141.8603 70.0128
L143.0894 71.2419
" />
<path d="M143.0894 70.0128
L141.8603 71.2419
" />
<path d="M141.8603 83.3928
L143.0894 84.6219
" />
<path d="M143.0894 83.3928
L141.8603 84.6219
" />
<path d="M141.8603 96.7721
L143.0894 98.0012
" />
<path d="M143.0894 96.7721
L141.8603 98.0012
" />
<path d="M141.8603 110.1528
L143.0894 111.3820
" />
<path d="M143.0894 110.1528
L141.8603 111.3820
" />
<path d="M148.9963 56.6321
L150.2254 57.8612
" />
<path d="M150.2254 56.6321
L148.9963 57.8612
" />
<path d="M148.9963 70.0128
L150.2254 71.2419
" />
<path d="M150.2254 70.0128
L148.9963 71.2419
" />
<path d="M148.9963 83.3928
L150.2254 84.6219
" />
<path d="M150.2254 83.3928
L148.9963 84.6219
" />
<path d="M148.9963 96.7721
L150.2254 98.0012
" />
<path d="M150.2254 96.7721
L148.9963 98.0012
" />
<path d="M148.9963 110.1528
L150.2254 111.3820
" />
<path d="M150.2254 110.1528
L148.9963 111.3820
" />
<path d="M155.2403 56.6321
L156.4694 57.8612
" />
<path d="M156.4694 56.6321
L155.2403 57.8612
" />
<path d="M155.2403 70.0128
L156.4694 71.2419
" />
<path d="M156.4694 70.0128
L155.2403 71.2419
" />
<path d="M155.2403 83.3928
L156.4694 84.6219
" />
<path d="M156.4694 83.3928
L155.2403 84.6219
" />
<path d="M155.2403 96.7721
L156.4694 98.0012
" />
<path d="M156.4694 96.7721
L155.2403 98.0012
" />
<path d="M155.2403 110.1528
L156.4694 111.3820
" />
<path d="M156.4694 110.1528
L155.2403 111.3820
" />
<path d="M162.3763 56.6321
L163.6054 57.8612
" />
<path d="M163.6054 56.6321
L162.3763 57.8612
" />
<path d="M162.3763 70.0128
L163.6054 71.2419
" />
<path d="M163.6054 70.0128
L162.3763 71.2419
" />
<path d="M162.3763 83.3928
L163.6054 84.6219
" />
<path d="M163.6054 83.3928
L162.3763 84.6219
" />
<path d="M162.3763 96.7721
L163.6054 98.0012
" />
<path d="M163.6054 96.7721
L162.3763 98.0012
" />
<path d="M162.3763 110.1528
L163.6054 111.3820
" />
<path d="M163.6054 110.1528
L162.3763 111.3820
" />
<path d="M168.6203 56.6321
L169.8494 57.8612
" />
<path d="M169.8494 56.6321
L168.6203 57.8612
" />
<path d="M168.6203 70.0128
L169.8494 71.2419
" />
<path d="M169.8494 70.0128
L168.6203 71.2419
" />
<path d="M168.6203 83.3928
L169.8494 84.6219
" />
<path d="M169.8494 83.3928
L168.6203 84.6219
" />
<path d="M168.6203 96.7721
L169.8494 98.0012
" />
<path d="M169.8494 96.7721
L168.6203 98.0012
" />
<path d="M168.6203 110.1528
L169.8494 111.3820
" />
<path d="M169.8494 110.1528
L168.6203 111.3820
" />
<path d="M175.7563 56.6321
L176.9854 57.8612
" />
<path d="M176.9854 56.6321
L175.7563 57.8612
" />
<path d="M175.7563 70.0128
L176.9854 71.2419
" />
<path d="M176.9854 70.0128
L175.7563 71.2419
" />
<path d="M175.7563 83.3928
L176.9854 84.6219
" />
<path d="M176.9854 83.3928
L175.7563 84.6219
" />
<path d="M175.7563 96.7721
L176.9854 98.0012
" />
<path d="M176.9854 96.7721
L175.7563 98.0012
" />
<path d="M175.7563 110.1528
L176.9854 111.3820
" />
<path d="M176.9854 110.1528
L175.7563 111.3820
" />
</g>
<g style="fill:none; 
stroke:#000000; stroke-width:0.2248; stroke-opacity:1; 
stroke-linecap:round; stroke-linejoin:round;">
<circle cx="112.5928" cy="8.5469" r="1.1238" /> 
<circle cx="112.5928" cy="117.4131" r="1.1238" /> 
<circle cx="184.4094" cy="8.5469" r="1.1238" /> 
<circle cx="184.4094" cy="117.4131" r="1.1238" /> 
</g>
<g style="fill:none; 
stroke:#000000; stroke-width:0.2809; stroke-opacity:1; 
stroke-linecap:round; stroke-linejoin:round;">
<path d="M119.2828 39.1173
L119.2828 41.9267
" />
<path d="M117.8781 40.5220
L120.6875 40.5220
" />
<path d="M119.2828 55.8419
L119.2828 58.6514
" />
<path d="M117.8781 57.2466
L120.6875 57.2466
" />
<path d="M119.2828 69.2226
L119.2828 72.0321
" />
<path d="M117.8781 70.6274
L120.6875 70.6274
" />
<path d="M119.2828 82.6026
L119.2828 85.4121
" />
<path d="M117.8781 84.0074
L120.6875 84.0074
" />
<path d="M119.2828 95.9819
L119.2828 98.7914
" />
<path d="M117.8781 97.3867
L120.6875 97.3867
" />
<path d="M119.2828 109.3627
L119.2828 112.1721
" />
<path d="M117.8781 110.7674
L120.6875 110.7674
" />
<path d="M132.6628 55.8419
L132.6628 58.6514
" />
<path d="M131.2581 57.2466
L134.0675 57.2466
" />
<path d="M132.6628 69.2226
L132.6628 72.0321
" />
<path d="M131.2581 70.6274
L134.0675 70.6274
" />
<path d="M132.6628 82.6026
L132.6628 85.4121
" />
<path d="M131.2581 84.0074
L134.0675 84.0074
" />
<path d="M132.6628 95.9819
L132.6628 98.7914
" />
<path d="M131.2581 97.3867
L134.0675 97.3867
" />
<path d="M132.6628 109.3627
L132.6628 112.1721
" />
<path d="M131.2581 110.7674
L134.0675 110.7674
" />
<path d="M146.0428 55.8419
L146.0428 58.6514
" />
<path d="M144.6381 57.2466
L147.4476 57.2466
" />
<path d="M146.0428 69.2226
L146.0428 72.0321
" />
<path d="M144.6381 70.6274
L147.4476 70.6274
" />
<path d="M146.0428 82.6026
L146.0428 85.4121
" />
<path d="M144.6381 84.0074
L147.4476 84.0074
" />
<path d="M146.0428 95.9819
L146.0428 98.7914
" />
<path d="M144.6381 97.3867
L147.4476 97.3867
" />
<path d="M146.0428 109.3627
L146.0428 112.1721
" />
<path d="M144.6381 110.7674
L147.4476 110.7674
" />
<path d="M159.4228 55.8419
L159.4228 58.6514
" />
<path d="M158.0181 57.2466
L160.8276 57.2466
" />
<path d="M159.4228 69.2226
L159.4228 72.0321
" />
<path d="M158.0181 70.6274
L160.8276 70.6274
" />
<path d="M159.4228 82.6026
L159.4228 85.4121
" />
<path d="M158.0181 84.0074
L160.8276 84.0074
" />
<path d="M159.4228 95.9819
L159.4228 98.7914
" />
<path d="M158.0181 97.3867
L160.8276 97.3867
" />
<path d="M159.4228 109.3627
L159.4228 112.1721
" />
<path d="M158.0181 110.7674
L160.8276 110.7674
" />
<path d="M172.8028 55.8419
L172.8028 58.6514
" />
<path d="M171.3981 57.2466
L174.2076 57.2466
" />
<path d="M172.8028 69.2226
L172.8028 72.0321
" />
<path d="M171.3981 70.6274
L174.2076 70.6274
" />
<path d="M172.8028 82.6026
L172.8028 85.4121
" />
<path d="M171.3981 84.0074
L174.2076 84.0074
" />
<path d="M172.8028 95.9819
L172.8028 98.7914
" />
<path d="M171.3981 97.3867
L174.2076 97.3867
" />
<path d="M172.8028 109.3627
L172.8028 112.1721
" />
<path d="M171.3981 110.7674
L174.2076 110.7674
" />
</g>
<g style="fill:none; 
stroke:#000000; stroke-width:0.1405; stroke-opacity:1; 
stroke-linecap:round; stroke-linejoin:round;">
<text x="110.4506" y="123.2519"
textLength="10.4418" font-size="1.8730" lengthAdjust="spacingAndGlyphs"
text-anchor="start" opacity="0" stroke-opacity="0">Drill Map:</text>
<g class="stroked-text"><desc>Drill Map:</desc>
<path d="M110.8775 123.1921
L110.8775 121.7873
" />
<path d="M110.8775 121.7873
L111.2119 121.7873
" />
<path d="M111.2119 121.7873
L111.4126 121.8542
" />
<path d="M111.4126 121.8542
L111.5464 121.9880
" />
<path d="M111.5464 121.9880
L111.6133 122.1218
" />
<path d="M111.6133 122.1218
L111.6802 122.3894
" />
<path d="M111.6802 122.3894
L111.6802 122.5900
" />
<path d="M111.6802 122.5900
L111.6133 122.8576
" />
<path d="M111.6133 122.8576
L111.5464 122.9914
" />
<path d="M111.5464 122.9914
L111.4126 123.1252
" />
<path d="M111.4126 123.1252
L111.2119 123.1921
" />
<path d="M111.2119 123.1921
L110.8775 123.1921
" />
<path d="M112.2822 123.1921
L112.2822 122.2556
" />
<path d="M112.2822 122.5231
L112.3491 122.3894
" />
<path d="M112.3491 122.3894
L112.4160 122.3225
" />
<path d="M112.4160 122.3225
L112.5498 122.2556
" />
<path d="M112.5498 122.2556
L112.6836 122.2556
" />
<path d="M113.1518 123.1921
L113.1518 122.2556
" />
<path d="M113.1518 121.7873
L113.0849 121.8542
" />
<path d="M113.0849 121.8542
L113.1518 121.9211
" />
<path d="M113.1518 121.9211
L113.2187 121.8542
" />
<path d="M113.2187 121.8542
L113.1518 121.7873
" />
<path d="M113.1518 121.7873
L113.1518 121.9211
" />
<path d="M114.0214 123.1921
L113.8876 123.1252
" />
<path d="M113.8876 123.1252
L113.8207 122.9914
" />
<path d="M113.8207 122.9914
L113.8207 121.7873
" />
<path d="M114.7572 123.1921
L114.6234 123.1252
" />
<path d="M114.6234 123.1252
L114.5565 122.9914
" />
<path d="M114.5565 122.9914
L114.5565 121.7873
" />
<path d="M116.3626 123.1921
L116.3626 121.7873
" />
<path d="M116.3626 121.7873
L116.8308 122.7907
" />
<path d="M116.8308 122.7907
L117.2991 121.7873
" />
<path d="M117.2991 121.7873
L117.2991 123.1921
" />
<path d="M118.5700 123.1921
L118.5700 122.4563
" />
<path d="M118.5700 122.4563
L118.5031 122.3225
" />
<path d="M118.5031 122.3225
L118.3693 122.2556
" />
<path d="M118.3693 122.2556
L118.1018 122.2556
" />
<path d="M118.1018 122.2556
L117.9680 122.3225
" />
<path d="M118.5700 123.1252
L118.4362 123.1921
" />
<path d="M118.4362 123.1921
L118.1018 123.1921
" />
<path d="M118.1018 123.1921
L117.9680 123.1252
" />
<path d="M117.9680 123.1252
L117.9011 122.9914
" />
<path d="M117.9011 122.9914
L117.9011 122.8576
" />
<path d="M117.9011 122.8576
L117.9680 122.7238
" />
<path d="M117.9680 122.7238
L118.1018 122.6569
" />
<path d="M118.1018 122.6569
L118.4362 122.6569
" />
<path d="M118.4362 122.6569
L118.5700 122.5900
" />
<path d="M119.2389 122.2556
L119.2389 123.6603
" />
<path d="M119.2389 122.3225
L119.3727 122.2556
" />
<path d="M119.3727 122.2556
L119.6403 122.2556
" />
<path d="M119.6403 122.2556
L119.7741 122.3225
" />
<path d="M119.7741 122.3225
L119.8410 122.3894
" />
<path d="M119.8410 122.3894
L119.9079 122.5231
" />
<path d="M119.9079 122.5231
L119.9079 122.9245
" />
<path d="M119.9079 122.9245
L119.8410 123.0583
" />
<path d="M119.8410 123.0583
L119.7741 123.1252
" />
<path d="M119.7741 123.1252
L119.6403 123.1921
" />
<path d="M119.6403 123.1921
L119.3727 123.1921
" />
<path d="M119.3727 123.1921
L119.2389 123.1252
" />
<path d="M120.5099 123.0583
L120.5768 123.1252
" />
<path d="M120.5768 123.1252
L120.5099 123.1921
" />
<path d="M120.5099 123.1921
L120.4430 123.1252
" />
<path d="M120.4430 123.1252
L120.5099 123.0583
" />
<path d="M120.5099 123.0583
L120.5099 123.1921
" />
<path d="M120.5099 122.3225
L120.5768 122.3894
" />
<path d="M120.5768 122.3894
L120.5099 122.4563
" />
<path d="M120.5099 122.4563
L120.4430 122.3894
" />
<path d="M120.4430 122.3894
L120.5099 122.3225
" />
<path d="M120.5099 122.3225
L120.5099 122.4563
" />
</g></g>
<g style="fill:none; 
stroke:#000000; stroke-width:0.1229; stroke-opacity:1; 
stroke-linecap:round; stroke-linejoin:round;">
<path d="M107.8167 124.8849
L109.0459 126.1140
" />
<path d="M109.0459 124.8849
L107.8167 126.1140
" />
</g>
<g style="fill:none; 
stroke:#000000; stroke-width:0.1405; stroke-opacity:1; 
stroke-linecap:round; stroke-linejoin:round;">
<text x="110.4506" y="126.2018"
textLength="48.1687" font-size="1.8730" lengthAdjust="spacingAndGlyphs"
text-anchor="start" opacity="0" stroke-opacity="0">1.750mm / 0.0689" (52 holes) (not plated)</text>
<g class="stroked-text"><desc>1.750mm / 0.0689" (52 holes) (not plated)</desc>
<path d="M111.6133 126.1420
L110.8106 126.1420
" />
<path d="M111.2119 126.1420
L111.2119 124.7373
" />
<path d="M111.2119 124.7373
L111.0782 124.9379
" />
<path d="M111.0782 124.9379
L110.9444 125.0717
" />
<path d="M110.9444 125.0717
L110.8106 125.1386
" />
<path d="M112.2153 126.0082
L112.2822 126.0751
" />
<path d="M112.2822 126.0751
L112.2153 126.1420
" />
<path d="M112.2153 126.1420
L112.1484 126.0751
" />
<path d="M112.1484 126.0751
L112.2153 126.0082
" />
<path d="M112.2153 126.0082
L112.2153 126.1420
" />
<path d="M112.7504 124.7373
L113.6869 124.7373
" />
<path d="M113.6869 124.7373
L113.0849 126.1420
" />
<path d="M114.8910 124.7373
L114.2221 124.7373
" />
<path d="M114.2221 124.7373
L114.1552 125.4062
" />
<path d="M114.1552 125.4062
L114.2221 125.3393
" />
<path d="M114.2221 125.3393
L114.3558 125.2724
" />
<path d="M114.3558 125.2724
L114.6903 125.2724
" />
<path d="M114.6903 125.2724
L114.8241 125.3393
" />
<path d="M114.8241 125.3393
L114.8910 125.4062
" />
<path d="M114.8910 125.4062
L114.9579 125.5400
" />
<path d="M114.9579 125.5400
L114.9579 125.8744
" />
<path d="M114.9579 125.8744
L114.8910 126.0082
" />
<path d="M114.8910 126.0082
L114.8241 126.0751
" />
<path d="M114.8241 126.0751
L114.6903 126.1420
" />
<path d="M114.6903 126.1420
L114.3558 126.1420
" />
<path d="M114.3558 126.1420
L114.2221 126.0751
" />
<path d="M114.2221 126.0751
L114.1552 126.0082
" />
<path d="M115.8275 124.7373
L115.9612 124.7373
" />
<path d="M115.9612 124.7373
L116.0950 124.8042
" />
<path d="M116.0950 124.8042
L116.1619 124.8710
" />
<path d="M116.1619 124.8710
L116.2288 125.0048
" />
<path d="M116.2288 125.0048
L116.2957 125.2724
" />
<path d="M116.2957 125.2724
L116.2957 125.6069
" />
<path d="M116.2957 125.6069
L116.2288 125.8744
" />
<path d="M116.2288 125.8744
L116.1619 126.0082
" />
<path d="M116.1619 126.0082
L116.0950 126.0751
" />
<path d="M116.0950 126.0751
L115.9612 126.1420
" />
<path d="M115.9612 126.1420
L115.8275 126.1420
" />
<path d="M115.8275 126.1420
L115.6937 126.0751
" />
<path d="M115.6937 126.0751
L115.6268 126.0082
" />
<path d="M115.6268 126.0082
L115.5599 125.8744
" />
<path d="M115.5599 125.8744
L115.4930 125.6069
" />
<path d="M115.4930 125.6069
L115.4930 125.2724
" />
<path d="M115.4930 125.2724
L115.5599 125.0048
" />
<path d="M115.5599 125.0048
L115.6268 124.8710
" />
<path d="M115.6268 124.8710
L115.6937 124.8042
" />
<path d="M115.6937 124.8042
L115.8275 124.7373
" />
<path d="M116.8977 126.1420
L116.8977 125.2055
" />
<path d="M116.8977 125.3393
L116.9646 125.2724
" />
<path d="M116.9646 125.2724
L117.0984 125.2055
" />
<path d="M117.0984 125.2055
L117.2991 125.2055
" />
<path d="M117.2991 125.2055
L117.4329 125.2724
" />
<path d="M117.4329 125.2724
L117.4998 125.4062
" />
<path d="M117.4998 125.4062
L117.4998 126.1420
" />
<path d="M117.4998 125.4062
L117.5666 125.2724
" />
<path d="M117.5666 125.2724
L117.7004 125.2055
" />
<path d="M117.7004 125.2055
L117.9011 125.2055
" />
<path d="M117.9011 125.2055
L118.0349 125.2724
" />
<path d="M118.0349 125.2724
L118.1018 125.4062
" />
<path d="M118.1018 125.4062
L118.1018 126.1420
" />
<path d="M118.7707 126.1420
L118.7707 125.2055
" />
<path d="M118.7707 125.3393
L118.8376 125.2724
" />
<path d="M118.8376 125.2724
L118.9714 125.2055
" />
<path d="M118.9714 125.2055
L119.1720 125.2055
" />
<path d="M119.1720 125.2055
L119.3058 125.2724
" />
<path d="M119.3058 125.2724
L119.3727 125.4062
" />
<path d="M119.3727 125.4062
L119.3727 126.1420
" />
<path d="M119.3727 125.4062
L119.4396 125.2724
" />
<path d="M119.4396 125.2724
L119.5734 125.2055
" />
<path d="M119.5734 125.2055
L119.7741 125.2055
" />
<path d="M119.7741 125.2055
L119.9079 125.2724
" />
<path d="M119.9079 125.2724
L119.9747 125.4062
" />
<path d="M119.9747 125.4062
L119.9747 126.1420
" />
<path d="M122.7173 124.6704
L121.5133 126.4764
" />
<path d="M124.5234 124.7373
L124.6572 124.7373
" />
<path d="M124.6572 124.7373
L124.7909 124.8042
" />
<path d="M124.7909 124.8042
L124.8578 124.8710
" />
<path d="M124.8578 124.8710
L124.9247 125.0048
" />
<path d="M124.9247 125.0048
L124.9916 125.2724
" />
<path d="M124.9916 125.2724
L124.9916 125.6069
" />
<path d="M124.9916 125.6069
L124.9247 125.8744
" />
<path d="M124.9247 125.8744
L124.8578 126.0082
" />
<path d="M124.8578 126.0082
L124.7909 126.0751
" />
<path d="M124.7909 126.0751
L124.6572 126.1420
" />
<path d="M124.6572 126.1420
L124.5234 126.1420
" />
<path d="M124.5234 126.1420
L124.3896 126.0751
" />
<path d="M124.3896 126.0751
L124.3227 126.0082
" />
<path d="M124.3227 126.0082
L124.2558 125.8744
" />
<path d="M124.2558 125.8744
L124.1889 125.6069
" />
<path d="M124.1889 125.6069
L124.1889 125.2724
" />
<path d="M124.1889 125.2724
L124.2558 125.0048
" />
<path d="M124.2558 125.0048
L124.3227 124.8710
" />
<path d="M124.3227 124.8710
L124.3896 124.8042
" />
<path d="M124.3896 124.8042
L124.5234 124.7373
" />
<path d="M125.5936 126.0082
L125.6605 126.0751
" />
<path d="M125.6605 126.0751
L125.5936 126.1420
" />
<path d="M125.5936 126.1420
L125.5268 126.0751
" />
<path d="M125.5268 126.0751
L125.5936 126.0082
" />
<path d="M125.5936 126.0082
L125.5936 126.1420
" />
<path d="M126.5301 124.7373
L126.6639 124.7373
" />
<path d="M126.6639 124.7373
L126.7977 124.8042
" />
<path d="M126.7977 124.8042
L126.8646 124.8710
" />
<path d="M126.8646 124.8710
L126.9315 125.0048
" />
<path d="M126.9315 125.0048
L126.9984 125.2724
" />
<path d="M126.9984 125.2724
L126.9984 125.6069
" />
<path d="M126.9984 125.6069
L126.9315 125.8744
" />
<path d="M126.9315 125.8744
L126.8646 126.0082
" />
<path d="M126.8646 126.0082
L126.7977 126.0751
" />
<path d="M126.7977 126.0751
L126.6639 126.1420
" />
<path d="M126.6639 126.1420
L126.5301 126.1420
" />
<path d="M126.5301 126.1420
L126.3963 126.0751
" />
<path d="M126.3963 126.0751
L126.3295 126.0082
" />
<path d="M126.3295 126.0082
L126.2626 125.8744
" />
<path d="M126.2626 125.8744
L126.1957 125.6069
" />
<path d="M126.1957 125.6069
L126.1957 125.2724
" />
<path d="M126.1957 125.2724
L126.2626 125.0048
" />
<path d="M126.2626 125.0048
L126.3295 124.8710
" />
<path d="M126.3295 124.8710
L126.3963 124.8042
" />
<path d="M126.3963 124.8042
L126.5301 124.7373
" />
<path d="M128.2024 124.7373
L127.9349 124.7373
" />
<path d="M127.9349 124.7373
L127.8011 124.8042
" />
<path d="M127.8011 124.8042
L127.7342 124.8710
" />
<path d="M127.7342 124.8710
L127.6004 125.0717
" />
<path d="M127.6004 125.0717
L127.5335 125.3393
" />
<path d="M127.5335 125.3393
L127.5335 125.8744
" />
<path d="M127.5335 125.8744
L127.6004 126.0082
" />
<path d="M127.6004 126.0082
L127.6673 126.0751
" />
<path d="M127.6673 126.0751
L127.8011 126.1420
" />
<path d="M127.8011 126.1420
L128.0686 126.1420
" />
<path d="M128.0686 126.1420
L128.2024 126.0751
" />
<path d="M128.2024 126.0751
L128.2693 126.0082
" />
<path d="M128.2693 126.0082
L128.3362 125.8744
" />
<path d="M128.3362 125.8744
L128.3362 125.5400
" />
<path d="M128.3362 125.5400
L128.2693 125.4062
" />
<path d="M128.2693 125.4062
L128.2024 125.3393
" />
<path d="M128.2024 125.3393
L128.0686 125.2724
" />
<path d="M128.0686 125.2724
L127.8011 125.2724
" />
<path d="M127.8011 125.2724
L127.6673 125.3393
" />
<path d="M127.6673 125.3393
L127.6004 125.4062
" />
<path d="M127.6004 125.4062
L127.5335 125.5400
" />
<path d="M129.1389 125.3393
L129.0051 125.2724
" />
<path d="M129.0051 125.2724
L128.9382 125.2055
" />
<path d="M128.9382 125.2055
L128.8713 125.0717
" />
<path d="M128.8713 125.0717
L128.8713 125.0048
" />
<path d="M128.8713 125.0048
L128.9382 124.8710
" />
<path d="M128.9382 124.8710
L129.0051 124.8042
" />
<path d="M129.0051 124.8042
L129.1389 124.7373
" />
<path d="M129.1389 124.7373
L129.4065 124.7373
" />
<path d="M129.4065 124.7373
L129.5403 124.8042
" />
<path d="M129.5403 124.8042
L129.6071 124.8710
" />
<path d="M129.6071 124.8710
L129.6740 125.0048
" />
<path d="M129.6740 125.0048
L129.6740 125.0717
" />
<path d="M129.6740 125.0717
L129.6071 125.2055
" />
<path d="M129.6071 125.2055
L129.5403 125.2724
" />
<path d="M129.5403 125.2724
L129.4065 125.3393
" />
<path d="M129.4065 125.3393
L129.1389 125.3393
" />
<path d="M129.1389 125.3393
L129.0051 125.4062
" />
<path d="M129.0051 125.4062
L128.9382 125.4731
" />
<path d="M128.9382 125.4731
L128.8713 125.6069
" />
<path d="M128.8713 125.6069
L128.8713 125.8744
" />
<path d="M128.8713 125.8744
L128.9382 126.0082
" />
<path d="M128.9382 126.0082
L129.0051 126.0751
" />
<path d="M129.0051 126.0751
L129.1389 126.1420
" />
<path d="M129.1389 126.1420
L129.4065 126.1420
" />
<path d="M129.4065 126.1420
L129.5403 126.0751
" />
<path d="M129.5403 126.0751
L129.6071 126.0082
" />
<path d="M129.6071 126.0082
L129.6740 125.8744
" />
<path d="M129.6740 125.8744
L129.6740 125.6069
" />
<path d="M129.6740 125.6069
L129.6071 125.4731
" />
<path d="M129.6071 125.4731
L129.5403 125.4062
" />
<path d="M129.5403 125.4062
L129.4065 125.3393
" />
<path d="M130.3430 126.1420
L130.6105 126.1420
" />
<path d="M130.6105 126.1420
L130.7443 126.0751
" />
<path d="M130.7443 126.0751
L130.8112 126.0082
" />
<path d="M130.8112 126.0082
L130.9450 125.8075
" />
<path d="M130.9450 125.8075
L131.0119 125.5400
" />
<path d="M131.0119 125.5400
L131.0119 125.0048
" />
<path d="M131.0119 125.0048
L130.9450 124.8710
" />
<path d="M130.9450 124.8710
L130.8781 124.8042
" />
<path d="M130.8781 124.8042
L130.7443 124.7373
" />
<path d="M130.7443 124.7373
L130.4767 124.7373
" />
<path d="M130.4767 124.7373
L130.3430 124.8042
" />
<path d="M130.3430 124.8042
L130.2761 124.8710
" />
<path d="M130.2761 124.8710
L130.2092 125.0048
" />
<path d="M130.2092 125.0048
L130.2092 125.3393
" />
<path d="M130.2092 125.3393
L130.2761 125.4731
" />
<path d="M130.2761 125.4731
L130.3430 125.5400
" />
<path d="M130.3430 125.5400
L130.4767 125.6069
" />
<path d="M130.4767 125.6069
L130.7443 125.6069
" />
<path d="M130.7443 125.6069
L130.8781 125.5400
" />
<path d="M130.8781 125.5400
L130.9450 125.4731
" />
<path d="M130.9450 125.4731
L131.0119 125.3393
" />
<path d="M131.5470 124.7373
L131.5470 125.0048
" />
<path d="M132.0821 124.7373
L132.0821 125.0048
" />
<path d="M134.1558 126.6771
L134.0889 126.6102
" />
<path d="M134.0889 126.6102
L133.9551 126.4096
" />
<path d="M133.9551 126.4096
L133.8882 126.2758
" />
<path d="M133.8882 126.2758
L133.8213 126.0751
" />
<path d="M133.8213 126.0751
L133.7544 125.7406
" />
<path d="M133.7544 125.7406
L133.7544 125.4731
" />
<path d="M133.7544 125.4731
L133.8213 125.1386
" />
<path d="M133.8213 125.1386
L133.8882 124.9379
" />
<path d="M133.8882 124.9379
L133.9551 124.8042
" />
<path d="M133.9551 124.8042
L134.0889 124.6035
" />
<path d="M134.0889 124.6035
L134.1558 124.5366
" />
<path d="M135.3598 124.7373
L134.6909 124.7373
" />
<path d="M134.6909 124.7373
L134.6240 125.4062
" />
<path d="M134.6240 125.4062
L134.6909 125.3393
" />
<path d="M134.6909 125.3393
L134.8247 125.2724
" />
<path d="M134.8247 125.2724
L135.1592 125.2724
" />
<path d="M135.1592 125.2724
L135.2929 125.3393
" />
<path d="M135.2929 125.3393
L135.3598 125.4062
" />
<path d="M135.3598 125.4062
L135.4267 125.5400
" />
<path d="M135.4267 125.5400
L135.4267 125.8744
" />
<path d="M135.4267 125.8744
L135.3598 126.0082
" />
<path d="M135.3598 126.0082
L135.2929 126.0751
" />
<path d="M135.2929 126.0751
L135.1592 126.1420
" />
<path d="M135.1592 126.1420
L134.8247 126.1420
" />
<path d="M134.8247 126.1420
L134.6909 126.0751
" />
<path d="M134.6909 126.0751
L134.6240 126.0082
" />
<path d="M135.9619 124.8710
L136.0288 124.8042
" />
<path d="M136.0288 124.8042
L136.1625 124.7373
" />
<path d="M136.1625 124.7373
L136.4970 124.7373
" />
<path d="M136.4970 124.7373
L136.6308 124.8042
" />
<path d="M136.6308 124.8042
L136.6977 124.8710
" />
<path d="M136.6977 124.8710
L136.7646 125.0048
" />
<path d="M136.7646 125.0048
L136.7646 125.1386
" />
<path d="M136.7646 125.1386
L136.6977 125.3393
" />
<path d="M136.6977 125.3393
L135.8950 126.1420
" />
<path d="M135.8950 126.1420
L136.7646 126.1420
" />
<path d="M138.4369 126.1420
L138.4369 124.7373
" />
<path d="M139.0389 126.1420
L139.0389 125.4062
" />
<path d="M139.0389 125.4062
L138.9720 125.2724
" />
<path d="M138.9720 125.2724
L138.8382 125.2055
" />
<path d="M138.8382 125.2055
L138.6375 125.2055
" />
<path d="M138.6375 125.2055
L138.5037 125.2724
" />
<path d="M138.5037 125.2724
L138.4369 125.3393
" />
<path d="M139.9085 126.1420
L139.7747 126.0751
" />
<path d="M139.7747 126.0751
L139.7078 126.0082
" />
<path d="M139.7078 126.0082
L139.6409 125.8744
" />
<path d="M139.6409 125.8744
L139.6409 125.4731
" />
<path d="M139.6409 125.4731
L139.7078 125.3393
" />
<path d="M139.7078 125.3393
L139.7747 125.2724
" />
<path d="M139.7747 125.2724
L139.9085 125.2055
" />
<path d="M139.9085 125.2055
L140.1091 125.2055
" />
<path d="M140.1091 125.2055
L140.2429 125.2724
" />
<path d="M140.2429 125.2724
L140.3098 125.3393
" />
<path d="M140.3098 125.3393
L140.3767 125.4731
" />
<path d="M140.3767 125.4731
L140.3767 125.8744
" />
<path d="M140.3767 125.8744
L140.3098 126.0082
" />
<path d="M140.3098 126.0082
L140.2429 126.0751
" />
<path d="M140.2429 126.0751
L140.1091 126.1420
" />
<path d="M140.1091 126.1420
L139.9085 126.1420
" />
<path d="M141.1794 126.1420
L141.0456 126.0751
" />
<path d="M141.0456 126.0751
L140.9787 125.9413
" />
<path d="M140.9787 125.9413
L140.9787 124.7373
" />
<path d="M142.2497 126.0751
L142.1159 126.1420
" />
<path d="M142.1159 126.1420
L141.8483 126.1420
" />
<path d="M141.8483 126.1420
L141.7145 126.0751
" />
<path d="M141.7145 126.0751
L141.6477 125.9413
" />
<path d="M141.6477 125.9413
L141.6477 125.4062
" />
<path d="M141.6477 125.4062
L141.7145 125.2724
" />
<path d="M141.7145 125.2724
L141.8483 125.2055
" />
<path d="M141.8483 125.2055
L142.1159 125.2055
" />
<path d="M142.1159 125.2055
L142.2497 125.2724
" />
<path d="M142.2497 125.2724
L142.3166 125.4062
" />
<path d="M142.3166 125.4062
L142.3166 125.5400
" />
<path d="M142.3166 125.5400
L141.6477 125.6737
" />
<path d="M142.8517 126.0751
L142.9855 126.1420
" />
<path d="M142.9855 126.1420
L143.2531 126.1420
" />
<path d="M143.2531 126.1420
L143.3868 126.0751
" />
<path d="M143.3868 126.0751
L143.4537 125.9413
" />
<path d="M143.4537 125.9413
L143.4537 125.8744
" />
<path d="M143.4537 125.8744
L143.3868 125.7406
" />
<path d="M143.3868 125.7406
L143.2531 125.6737
" />
<path d="M143.2531 125.6737
L143.0524 125.6737
" />
<path d="M143.0524 125.6737
L142.9186 125.6069
" />
<path d="M142.9186 125.6069
L142.8517 125.4731
" />
<path d="M142.8517 125.4731
L142.8517 125.4062
" />
<path d="M142.8517 125.4062
L142.9186 125.2724
" />
<path d="M142.9186 125.2724
L143.0524 125.2055
" />
<path d="M143.0524 125.2055
L143.2531 125.2055
" />
<path d="M143.2531 125.2055
L143.3868 125.2724
" />
<path d="M143.9220 126.6771
L143.9889 126.6102
" />
<path d="M143.9889 126.6102
L144.1226 126.4096
" />
<path d="M144.1226 126.4096
L144.1895 126.2758
" />
<path d="M144.1895 126.2758
L144.2564 126.0751
" />
<path d="M144.2564 126.0751
L144.3233 125.7406
" />
<path d="M144.3233 125.7406
L144.3233 125.4731
" />
<path d="M144.3233 125.4731
L144.2564 125.1386
" />
<path d="M144.2564 125.1386
L144.1895 124.9379
" />
<path d="M144.1895 124.9379
L144.1226 124.8042
" />
<path d="M144.1226 124.8042
L143.9889 124.6035
" />
<path d="M143.9889 124.6035
L143.9220 124.5366
" />
<path d="M146.4639 126.6771
L146.3970 126.6102
" />
<path d="M146.3970 126.6102
L146.2632 126.4096
" />
<path d="M146.2632 126.4096
L146.1963 126.2758
" />
<path d="M146.1963 126.2758
L146.1294 126.0751
" />
<path d="M146.1294 126.0751
L146.0625 125.7406
" />
<path d="M146.0625 125.7406
L146.0625 125.4731
" />
<path d="M146.0625 125.4731
L146.1294 125.1386
" />
<path d="M146.1294 125.1386
L146.1963 124.9379
" />
<path d="M146.1963 124.9379
L146.2632 124.8042
" />
<path d="M146.2632 124.8042
L146.3970 124.6035
" />
<path d="M146.3970 124.6035
L146.4639 124.5366
" />
<path d="M146.9990 125.2055
L146.9990 126.1420
" />
<path d="M146.9990 125.3393
L147.0659 125.2724
" />
<path d="M147.0659 125.2724
L147.1997 125.2055
" />
<path d="M147.1997 125.2055
L147.4003 125.2055
" />
<path d="M147.4003 125.2055
L147.5341 125.2724
" />
<path d="M147.5341 125.2724
L147.6010 125.4062
" />
<path d="M147.6010 125.4062
L147.6010 126.1420
" />
<path d="M148.4706 126.1420
L148.3368 126.0751
" />
<path d="M148.3368 126.0751
L148.2699 126.0082
" />
<path d="M148.2699 126.0082
L148.2030 125.8744
" />
<path d="M148.2030 125.8744
L148.2030 125.4731
" />
<path d="M148.2030 125.4731
L148.2699 125.3393
" />
<path d="M148.2699 125.3393
L148.3368 125.2724
" />
<path d="M148.3368 125.2724
L148.4706 125.2055
" />
<path d="M148.4706 125.2055
L148.6713 125.2055
" />
<path d="M148.6713 125.2055
L148.8051 125.2724
" />
<path d="M148.8051 125.2724
L148.8720 125.3393
" />
<path d="M148.8720 125.3393
L148.9388 125.4731
" />
<path d="M148.9388 125.4731
L148.9388 125.8744
" />
<path d="M148.9388 125.8744
L148.8720 126.0082
" />
<path d="M148.8720 126.0082
L148.8051 126.0751
" />
<path d="M148.8051 126.0751
L148.6713 126.1420
" />
<path d="M148.6713 126.1420
L148.4706 126.1420
" />
<path d="M149.3402 125.2055
L149.8753 125.2055
" />
<path d="M149.5409 124.7373
L149.5409 125.9413
" />
<path d="M149.5409 125.9413
L149.6078 126.0751
" />
<path d="M149.6078 126.0751
L149.7415 126.1420
" />
<path d="M149.7415 126.1420
L149.8753 126.1420
" />
<path d="M151.4138 125.2055
L151.4138 126.6102
" />
<path d="M151.4138 125.2724
L151.5476 125.2055
" />
<path d="M151.5476 125.2055
L151.8152 125.2055
" />
<path d="M151.8152 125.2055
L151.9490 125.2724
" />
<path d="M151.9490 125.2724
L152.0159 125.3393
" />
<path d="M152.0159 125.3393
L152.0828 125.4731
" />
<path d="M152.0828 125.4731
L152.0828 125.8744
" />
<path d="M152.0828 125.8744
L152.0159 126.0082
" />
<path d="M152.0159 126.0082
L151.9490 126.0751
" />
<path d="M151.9490 126.0751
L151.8152 126.1420
" />
<path d="M151.8152 126.1420
L151.5476 126.1420
" />
<path d="M151.5476 126.1420
L151.4138 126.0751
" />
<path d="M152.8855 126.1420
L152.7517 126.0751
" />
<path d="M152.7517 126.0751
L152.6848 125.9413
" />
<path d="M152.6848 125.9413
L152.6848 124.7373
" />
<path d="M154.0226 126.1420
L154.0226 125.4062
" />
<path d="M154.0226 125.4062
L153.9557 125.2724
" />
<path d="M153.9557 125.2724
L153.8219 125.2055
" />
<path d="M153.8219 125.2055
L153.5544 125.2055
" />
<path d="M153.5544 125.2055
L153.4206 125.2724
" />
<path d="M154.0226 126.0751
L153.8888 126.1420
" />
<path d="M153.8888 126.1420
L153.5544 126.1420
" />
<path d="M153.5544 126.1420
L153.4206 126.0751
" />
<path d="M153.4206 126.0751
L153.3537 125.9413
" />
<path d="M153.3537 125.9413
L153.3537 125.8075
" />
<path d="M153.3537 125.8075
L153.4206 125.6737
" />
<path d="M153.4206 125.6737
L153.5544 125.6069
" />
<path d="M153.5544 125.6069
L153.8888 125.6069
" />
<path d="M153.8888 125.6069
L154.0226 125.5400
" />
<path d="M154.4909 125.2055
L155.0260 125.2055
" />
<path d="M154.6915 124.7373
L154.6915 125.9413
" />
<path d="M154.6915 125.9413
L154.7584 126.0751
" />
<path d="M154.7584 126.0751
L154.8922 126.1420
" />
<path d="M154.8922 126.1420
L155.0260 126.1420
" />
<path d="M156.0294 126.0751
L155.8956 126.1420
" />
<path d="M155.8956 126.1420
L155.6280 126.1420
" />
<path d="M155.6280 126.1420
L155.4942 126.0751
" />
<path d="M155.4942 126.0751
L155.4273 125.9413
" />
<path d="M155.4273 125.9413
L155.4273 125.4062
" />
<path d="M155.4273 125.4062
L155.4942 125.2724
" />
<path d="M155.4942 125.2724
L155.6280 125.2055
" />
<path d="M155.6280 125.2055
L155.8956 125.2055
" />
<path d="M155.8956 125.2055
L156.0294 125.2724
" />
<path d="M156.0294 125.2724
L156.0963 125.4062
" />
<path d="M156.0963 125.4062
L156.0963 125.5400
" />
<path d="M156.0963 125.5400
L155.4273 125.6737
" />
<path d="M157.3003 126.1420
L157.3003 124.7373
" />
<path d="M157.3003 126.0751
L157.1665 126.1420
" />
<path d="M157.1665 126.1420
L156.8990 126.1420
" />
<path d="M156.8990 126.1420
L156.7652 126.0751
" />
<path d="M156.7652 126.0751
L156.6983 126.0082
" />
<path d="M156.6983 126.0082
L156.6314 125.8744
" />
<path d="M156.6314 125.8744
L156.6314 125.4731
" />
<path d="M156.6314 125.4731
L156.6983 125.3393
" />
<path d="M156.6983 125.3393
L156.7652 125.2724
" />
<path d="M156.7652 125.2724
L156.8990 125.2055
" />
<path d="M156.8990 125.2055
L157.1665 125.2055
" />
<path d="M157.1665 125.2055
L157.3003 125.2724
" />
<path d="M157.8354 126.6771
L157.9023 126.6102
" />
<path d="M157.9023 126.6102
L158.0361 126.4096
" />
<path d="M158.0361 126.4096
L158.1030 126.2758
" />
<path d="M158.1030 126.2758
L158.1699 126.0751
" />
<path d="M158.1699 126.0751
L158.2368 125.7406
" />
<path d="M158.2368 125.7406
L158.2368 125.4731
" />
<path d="M158.2368 125.4731
L158.1699 125.1386
" />
<path d="M158.1699 125.1386
L158.1030 124.9379
" />
<path d="M158.1030 124.9379
L158.0361 124.8042
" />
<path d="M158.0361 124.8042
L157.9023 124.6035
" />
<path d="M157.9023 124.6035
L157.8354 124.5366
" />
</g><circle cx="108.3435" cy="127.8690" r="0.7024" /> 
<text x="110.4506" y="128.5714"
textLength="46.8309" font-size="1.8730" lengthAdjust="spacingAndGlyphs"
text-anchor="start" opacity="0" stroke-opacity="0">3.200mm / 0.1260" (4 holes) (not plated)</text>
<g class="stroked-text"><desc>3.200mm / 0.1260" (4 holes) (not plated)</desc>
<path d="M110.7437 127.1069
L111.6133 127.1069
" />
<path d="M111.6133 127.1069
L111.1450 127.6420
" />
<path d="M111.1450 127.6420
L111.3457 127.6420
" />
<path d="M111.3457 127.6420
L111.4795 127.7089
" />
<path d="M111.4795 127.7089
L111.5464 127.7758
" />
<path d="M111.5464 127.7758
L111.6133 127.9096
" />
<path d="M111.6133 127.9096
L111.6133 128.2440
" />
<path d="M111.6133 128.2440
L111.5464 128.3778
" />
<path d="M111.5464 128.3778
L111.4795 128.4447
" />
<path d="M111.4795 128.4447
L111.3457 128.5116
" />
<path d="M111.3457 128.5116
L110.9444 128.5116
" />
<path d="M110.9444 128.5116
L110.8106 128.4447
" />
<path d="M110.8106 128.4447
L110.7437 128.3778
" />
<path d="M112.2153 128.3778
L112.2822 128.4447
" />
<path d="M112.2822 128.4447
L112.2153 128.5116
" />
<path d="M112.2153 128.5116
L112.1484 128.4447
" />
<path d="M112.1484 128.4447
L112.2153 128.3778
" />
<path d="M112.2153 128.3778
L112.2153 128.5116
" />
<path d="M112.8173 127.2407
L112.8842 127.1738
" />
<path d="M112.8842 127.1738
L113.0180 127.1069
" />
<path d="M113.0180 127.1069
L113.3525 127.1069
" />
<path d="M113.3525 127.1069
L113.4863 127.1738
" />
<path d="M113.4863 127.1738
L113.5531 127.2407
" />
<path d="M113.5531 127.2407
L113.6200 127.3744
" />
<path d="M113.6200 127.3744
L113.6200 127.5082
" />
<path d="M113.6200 127.5082
L113.5531 127.7089
" />
<path d="M113.5531 127.7089
L112.7504 128.5116
" />
<path d="M112.7504 128.5116
L113.6200 128.5116
" />
<path d="M114.4896 127.1069
L114.6234 127.1069
" />
<path d="M114.6234 127.1069
L114.7572 127.1738
" />
<path d="M114.7572 127.1738
L114.8241 127.2407
" />
<path d="M114.8241 127.2407
L114.8910 127.3744
" />
<path d="M114.8910 127.3744
L114.9579 127.6420
" />
<path d="M114.9579 127.6420
L114.9579 127.9765
" />
<path d="M114.9579 127.9765
L114.8910 128.2440
" />
<path d="M114.8910 128.2440
L114.8241 128.3778
" />
<path d="M114.8241 128.3778
L114.7572 128.4447
" />
<path d="M114.7572 128.4447
L114.6234 128.5116
" />
<path d="M114.6234 128.5116
L114.4896 128.5116
" />
<path d="M114.4896 128.5116
L114.3558 128.4447
" />
<path d="M114.3558 128.4447
L114.2890 128.3778
" />
<path d="M114.2890 128.3778
L114.2221 128.2440
" />
<path d="M114.2221 128.2440
L114.1552 127.9765
" />
<path d="M114.1552 127.9765
L114.1552 127.6420
" />
<path d="M114.1552 127.6420
L114.2221 127.3744
" />
<path d="M114.2221 127.3744
L114.2890 127.2407
" />
<path d="M114.2890 127.2407
L114.3558 127.1738
" />
<path d="M114.3558 127.1738
L114.4896 127.1069
" />
<path d="M115.8275 127.1069
L115.9612 127.1069
" />
<path d="M115.9612 127.1069
L116.0950 127.1738
" />
<path d="M116.0950 127.1738
L116.1619 127.2407
" />
<path d="M116.1619 127.2407
L116.2288 127.3744
" />
<path d="M116.2288 127.3744
L116.2957 127.6420
" />
<path d="M116.2957 127.6420
L116.2957 127.9765
" />
<path d="M116.2957 127.9765
L116.2288 128.2440
" />
<path d="M116.2288 128.2440
L116.1619 128.3778
" />
<path d="M116.1619 128.3778
L116.0950 128.4447
" />
<path d="M116.0950 128.4447
L115.9612 128.5116
" />
<path d="M115.9612 128.5116
L115.8275 128.5116
" />
<path d="M115.8275 128.5116
L115.6937 128.4447
" />
<path d="M115.6937 128.4447
L115.6268 128.3778
" />
<path d="M115.6268 128.3778
L115.5599 128.2440
" />
<path d="M115.5599 128.2440
L115.4930 127.9765
" />
<path d="M115.4930 127.9765
L115.4930 127.6420
" />
<path d="M115.4930 127.6420
L115.5599 127.3744
" />
<path d="M115.5599 127.3744
L115.6268 127.2407
" />
<path d="M115.6268 127.2407
L115.6937 127.1738
" />
<path d="M115.6937 127.1738
L115.8275 127.1069
" />
<path d="M116.8977 128.5116
L116.8977 127.5751
" />
<path d="M116.8977 127.7089
L116.9646 127.6420
" />
<path d="M116.9646 127.6420
L117.0984 127.5751
" />
<path d="M117.0984 127.5751
L117.2991 127.5751
" />
<path d="M117.2991 127.5751
L117.4329 127.6420
" />
<path d="M117.4329 127.6420
L117.4998 127.7758
" />
<path d="M117.4998 127.7758
L117.4998 128.5116
" />
<path d="M117.4998 127.7758
L117.5666 127.6420
" />
<path d="M117.5666 127.6420
L117.7004 127.5751
" />
<path d="M117.7004 127.5751
L117.9011 127.5751
" />
<path d="M117.9011 127.5751
L118.0349 127.6420
" />
<path d="M118.0349 127.6420
L118.1018 127.7758
" />
<path d="M118.1018 127.7758
L118.1018 128.5116
" />
<path d="M118.7707 128.5116
L118.7707 127.5751
" />
<path d="M118.7707 127.7089
L118.8376 127.6420
" />
<path d="M118.8376 127.6420
L118.9714 127.5751
" />
<path d="M118.9714 127.5751
L119.1720 127.5751
" />
<path d="M119.1720 127.5751
L119.3058 127.6420
" />
<path d="M119.3058 127.6420
L119.3727 127.7758
" />
<path d="M119.3727 127.7758
L119.3727 128.5116
" />
<path d="M119.3727 127.7758
L119.4396 127.6420
" />
<path d="M119.4396 127.6420
L119.5734 127.5751
" />
<path d="M119.5734 127.5751
L119.7741 127.5751
" />
<path d="M119.7741 127.5751
L119.9079 127.6420
" />
<path d="M119.9079 127.6420
L119.9747 127.7758
" />
<path d="M119.9747 127.7758
L119.9747 128.5116
" />
<path d="M122.7173 127.0400
L121.5133 128.8461
" />
<path d="M124.5234 127.1069
L124.6572 127.1069
" />
<path d="M124.6572 127.1069
L124.7909 127.1738
" />
<path d="M124.7909 127.1738
L124.8578 127.2407
" />
<path d="M124.8578 127.2407
L124.9247 127.3744
" />
<path d="M124.9247 127.3744
L124.9916 127.6420
" />
<path d="M124.9916 127.6420
L124.9916 127.9765
" />
<path d="M124.9916 127.9765
L124.9247 128.2440
" />
<path d="M124.9247 128.2440
L124.8578 128.3778
" />
<path d="M124.8578 128.3778
L124.7909 128.4447
" />
<path d="M124.7909 128.4447
L124.6572 128.5116
" />
<path d="M124.6572 128.5116
L124.5234 128.5116
" />
<path d="M124.5234 128.5116
L124.3896 128.4447
" />
<path d="M124.3896 128.4447
L124.3227 128.3778
" />
<path d="M124.3227 128.3778
L124.2558 128.2440
" />
<path d="M124.2558 128.2440
L124.1889 127.9765
" />
<path d="M124.1889 127.9765
L124.1889 127.6420
" />
<path d="M124.1889 127.6420
L124.2558 127.3744
" />
<path d="M124.2558 127.3744
L124.3227 127.2407
" />
<path d="M124.3227 127.2407
L124.3896 127.1738
" />
<path d="M124.3896 127.1738
L124.5234 127.1069
" />
<path d="M125.5936 128.3778
L125.6605 128.4447
" />
<path d="M125.6605 128.4447
L125.5936 128.5116
" />
<path d="M125.5936 128.5116
L125.5268 128.4447
" />
<path d="M125.5268 128.4447
L125.5936 128.3778
" />
<path d="M125.5936 128.3778
L125.5936 128.5116
" />
<path d="M126.9984 128.5116
L126.1957 128.5116
" />
<path d="M126.5970 128.5116
L126.5970 127.1069
" />
<path d="M126.5970 127.1069
L126.4632 127.3075
" />
<path d="M126.4632 127.3075
L126.3295 127.4413
" />
<path d="M126.3295 127.4413
L126.1957 127.5082
" />
<path d="M127.5335 127.2407
L127.6004 127.1738
" />
<path d="M127.6004 127.1738
L127.7342 127.1069
" />
<path d="M127.7342 127.1069
L128.0686 127.1069
" />
<path d="M128.0686 127.1069
L128.2024 127.1738
" />
<path d="M128.2024 127.1738
L128.2693 127.2407
" />
<path d="M128.2693 127.2407
L128.3362 127.3744
" />
<path d="M128.3362 127.3744
L128.3362 127.5082
" />
<path d="M128.3362 127.5082
L128.2693 127.7089
" />
<path d="M128.2693 127.7089
L127.4666 128.5116
" />
<path d="M127.4666 128.5116
L128.3362 128.5116
" />
<path d="M129.5403 127.1069
L129.2727 127.1069
" />
<path d="M129.2727 127.1069
L129.1389 127.1738
" />
<path d="M129.1389 127.1738
L129.0720 127.2407
" />
<path d="M129.0720 127.2407
L128.9382 127.4413
" />
<path d="M128.9382 127.4413
L128.8713 127.7089
" />
<path d="M128.8713 127.7089
L128.8713 128.2440
" />
<path d="M128.8713 128.2440
L128.9382 128.3778
" />
<path d="M128.9382 128.3778
L129.0051 128.4447
" />
<path d="M129.0051 128.4447
L129.1389 128.5116
" />
<path d="M129.1389 128.5116
L129.4065 128.5116
" />
<path d="M129.4065 128.5116
L129.5403 128.4447
" />
<path d="M129.5403 128.4447
L129.6071 128.3778
" />
<path d="M129.6071 128.3778
L129.6740 128.2440
" />
<path d="M129.6740 128.2440
L129.6740 127.9096
" />
<path d="M129.6740 127.9096
L129.6071 127.7758
" />
<path d="M129.6071 127.7758
L129.5403 127.7089
" />
<path d="M129.5403 127.7089
L129.4065 127.6420
" />
<path d="M129.4065 127.6420
L129.1389 127.6420
" />
<path d="M129.1389 127.6420
L129.0051 127.7089
" />
<path d="M129.0051 127.7089
L128.9382 127.7758
" />
<path d="M128.9382 127.7758
L128.8713 127.9096
" />
<path d="M130.5436 127.1069
L130.6774 127.1069
" />
<path d="M130.6774 127.1069
L130.8112 127.1738
" />
<path d="M130.8112 127.1738
L130.8781 127.2407
" />
<path d="M130.8781 127.2407
L130.9450 127.3744
" />
<path d="M130.9450 127.3744
L131.0119 127.6420
" />
<path d="M131.0119 127.6420
L131.0119 127.9765
" />
<path d="M131.0119 127.9765
L130.9450 128.2440
" />
<path d="M130.9450 128.2440
L130.8781 128.3778
" />
<path d="M130.8781 128.3778
L130.8112 128.4447
" />
<path d="M130.8112 128.4447
L130.6774 128.5116
" />
<path d="M130.6774 128.5116
L130.5436 128.5116
" />
<path d="M130.5436 128.5116
L130.4099 128.4447
" />
<path d="M130.4099 128.4447
L130.3430 128.3778
" />
<path d="M130.3430 128.3778
L130.2761 128.2440
" />
<path d="M130.2761 128.2440
L130.2092 127.9765
" />
<path d="M130.2092 127.9765
L130.2092 127.6420
" />
<path d="M130.2092 127.6420
L130.2761 127.3744
" />
<path d="M130.2761 127.3744
L130.3430 127.2407
" />
<path d="M130.3430 127.2407
L130.4099 127.1738
" />
<path d="M130.4099 127.1738
L130.5436 127.1069
" />
<path d="M131.5470 127.1069
L131.5470 127.3744
" />
<path d="M132.0821 127.1069
L132.0821 127.3744
" />
<path d="M134.1558 129.0467
L134.0889 128.9798
" />
<path d="M134.0889 128.9798
L133.9551 128.7792
" />
<path d="M133.9551 128.7792
L133.8882 128.6454
" />
<path d="M133.8882 128.6454
L133.8213 128.4447
" />
<path d="M133.8213 128.4447
L133.7544 128.1102
" />
<path d="M133.7544 128.1102
L133.7544 127.8427
" />
<path d="M133.7544 127.8427
L133.8213 127.5082
" />
<path d="M133.8213 127.5082
L133.8882 127.3075
" />
<path d="M133.8882 127.3075
L133.9551 127.1738
" />
<path d="M133.9551 127.1738
L134.0889 126.9731
" />
<path d="M134.0889 126.9731
L134.1558 126.9062
" />
<path d="M135.2929 127.5751
L135.2929 128.5116
" />
<path d="M134.9585 127.0400
L134.6240 128.0434
" />
<path d="M134.6240 128.0434
L135.4936 128.0434
" />
<path d="M137.0990 128.5116
L137.0990 127.1069
" />
<path d="M137.7010 128.5116
L137.7010 127.7758
" />
<path d="M137.7010 127.7758
L137.6342 127.6420
" />
<path d="M137.6342 127.6420
L137.5004 127.5751
" />
<path d="M137.5004 127.5751
L137.2997 127.5751
" />
<path d="M137.2997 127.5751
L137.1659 127.6420
" />
<path d="M137.1659 127.6420
L137.0990 127.7089
" />
<path d="M138.5706 128.5116
L138.4369 128.4447
" />
<path d="M138.4369 128.4447
L138.3700 128.3778
" />
<path d="M138.3700 128.3778
L138.3031 128.2440
" />
<path d="M138.3031 128.2440
L138.3031 127.8427
" />
<path d="M138.3031 127.8427
L138.3700 127.7089
" />
<path d="M138.3700 127.7089
L138.4369 127.6420
" />
<path d="M138.4369 127.6420
L138.5706 127.5751
" />
<path d="M138.5706 127.5751
L138.7713 127.5751
" />
<path d="M138.7713 127.5751
L138.9051 127.6420
" />
<path d="M138.9051 127.6420
L138.9720 127.7089
" />
<path d="M138.9720 127.7089
L139.0389 127.8427
" />
<path d="M139.0389 127.8427
L139.0389 128.2440
" />
<path d="M139.0389 128.2440
L138.9720 128.3778
" />
<path d="M138.9720 128.3778
L138.9051 128.4447
" />
<path d="M138.9051 128.4447
L138.7713 128.5116
" />
<path d="M138.7713 128.5116
L138.5706 128.5116
" />
<path d="M139.8416 128.5116
L139.7078 128.4447
" />
<path d="M139.7078 128.4447
L139.6409 128.3109
" />
<path d="M139.6409 128.3109
L139.6409 127.1069
" />
<path d="M140.9118 128.4447
L140.7781 128.5116
" />
<path d="M140.7781 128.5116
L140.5105 128.5116
" />
<path d="M140.5105 128.5116
L140.3767 128.4447
" />
<path d="M140.3767 128.4447
L140.3098 128.3109
" />
<path d="M140.3098 128.3109
L140.3098 127.7758
" />
<path d="M140.3098 127.7758
L140.3767 127.6420
" />
<path d="M140.3767 127.6420
L140.5105 127.5751
" />
<path d="M140.5105 127.5751
L140.7781 127.5751
" />
<path d="M140.7781 127.5751
L140.9118 127.6420
" />
<path d="M140.9118 127.6420
L140.9787 127.7758
" />
<path d="M140.9787 127.7758
L140.9787 127.9096
" />
<path d="M140.9787 127.9096
L140.3098 128.0434
" />
<path d="M141.5139 128.4447
L141.6477 128.5116
" />
<path d="M141.6477 128.5116
L141.9152 128.5116
" />
<path d="M141.9152 128.5116
L142.0490 128.4447
" />
<path d="M142.0490 128.4447
L142.1159 128.3109
" />
<path d="M142.1159 128.3109
L142.1159 128.2440
" />
<path d="M142.1159 128.2440
L142.0490 128.1102
" />
<path d="M142.0490 128.1102
L141.9152 128.0434
" />
<path d="M141.9152 128.0434
L141.7145 128.0434
" />
<path d="M141.7145 128.0434
L141.5808 127.9765
" />
<path d="M141.5808 127.9765
L141.5139 127.8427
" />
<path d="M141.5139 127.8427
L141.5139 127.7758
" />
<path d="M141.5139 127.7758
L141.5808 127.6420
" />
<path d="M141.5808 127.6420
L141.7145 127.5751
" />
<path d="M141.7145 127.5751
L141.9152 127.5751
" />
<path d="M141.9152 127.5751
L142.0490 127.6420
" />
<path d="M142.5841 129.0467
L142.6510 128.9798
" />
<path d="M142.6510 128.9798
L142.7848 128.7792
" />
<path d="M142.7848 128.7792
L142.8517 128.6454
" />
<path d="M142.8517 128.6454
L142.9186 128.4447
" />
<path d="M142.9186 128.4447
L142.9855 128.1102
" />
<path d="M142.9855 128.1102
L142.9855 127.8427
" />
<path d="M142.9855 127.8427
L142.9186 127.5082
" />
<path d="M142.9186 127.5082
L142.8517 127.3075
" />
<path d="M142.8517 127.3075
L142.7848 127.1738
" />
<path d="M142.7848 127.1738
L142.6510 126.9731
" />
<path d="M142.6510 126.9731
L142.5841 126.9062
" />
<path d="M145.1260 129.0467
L145.0591 128.9798
" />
<path d="M145.0591 128.9798
L144.9253 128.7792
" />
<path d="M144.9253 128.7792
L144.8585 128.6454
" />
<path d="M144.8585 128.6454
L144.7916 128.4447
" />
<path d="M144.7916 128.4447
L144.7247 128.1102
" />
<path d="M144.7247 128.1102
L144.7247 127.8427
" />
<path d="M144.7247 127.8427
L144.7916 127.5082
" />
<path d="M144.7916 127.5082
L144.8585 127.3075
" />
<path d="M144.8585 127.3075
L144.9253 127.1738
" />
<path d="M144.9253 127.1738
L145.0591 126.9731
" />
<path d="M145.0591 126.9731
L145.1260 126.9062
" />
<path d="M145.6612 127.5751
L145.6612 128.5116
" />
<path d="M145.6612 127.7089
L145.7280 127.6420
" />
<path d="M145.7280 127.6420
L145.8618 127.5751
" />
<path d="M145.8618 127.5751
L146.0625 127.5751
" />
<path d="M146.0625 127.5751
L146.1963 127.6420
" />
<path d="M146.1963 127.6420
L146.2632 127.7758
" />
<path d="M146.2632 127.7758
L146.2632 128.5116
" />
<path d="M147.1328 128.5116
L146.9990 128.4447
" />
<path d="M146.9990 128.4447
L146.9321 128.3778
" />
<path d="M146.9321 128.3778
L146.8652 128.2440
" />
<path d="M146.8652 128.2440
L146.8652 127.8427
" />
<path d="M146.8652 127.8427
L146.9321 127.7089
" />
<path d="M146.9321 127.7089
L146.9990 127.6420
" />
<path d="M146.9990 127.6420
L147.1328 127.5751
" />
<path d="M147.1328 127.5751
L147.3334 127.5751
" />
<path d="M147.3334 127.5751
L147.4672 127.6420
" />
<path d="M147.4672 127.6420
L147.5341 127.7089
" />
<path d="M147.5341 127.7089
L147.6010 127.8427
" />
<path d="M147.6010 127.8427
L147.6010 128.2440
" />
<path d="M147.6010 128.2440
L147.5341 128.3778
" />
<path d="M147.5341 128.3778
L147.4672 128.4447
" />
<path d="M147.4672 128.4447
L147.3334 128.5116
" />
<path d="M147.3334 128.5116
L147.1328 128.5116
" />
<path d="M148.0024 127.5751
L148.5375 127.5751
" />
<path d="M148.2030 127.1069
L148.2030 128.3109
" />
<path d="M148.2030 128.3109
L148.2699 128.4447
" />
<path d="M148.2699 128.4447
L148.4037 128.5116
" />
<path d="M148.4037 128.5116
L148.5375 128.5116
" />
<path d="M150.0760 127.5751
L150.0760 128.9798
" />
<path d="M150.0760 127.6420
L150.2098 127.5751
" />
<path d="M150.2098 127.5751
L150.4774 127.5751
" />
<path d="M150.4774 127.5751
L150.6111 127.6420
" />
<path d="M150.6111 127.6420
L150.6780 127.7089
" />
<path d="M150.6780 127.7089
L150.7449 127.8427
" />
<path d="M150.7449 127.8427
L150.7449 128.2440
" />
<path d="M150.7449 128.2440
L150.6780 128.3778
" />
<path d="M150.6780 128.3778
L150.6111 128.4447
" />
<path d="M150.6111 128.4447
L150.4774 128.5116
" />
<path d="M150.4774 128.5116
L150.2098 128.5116
" />
<path d="M150.2098 128.5116
L150.0760 128.4447
" />
<path d="M151.5476 128.5116
L151.4138 128.4447
" />
<path d="M151.4138 128.4447
L151.3469 128.3109
" />
<path d="M151.3469 128.3109
L151.3469 127.1069
" />
<path d="M152.6848 128.5116
L152.6848 127.7758
" />
<path d="M152.6848 127.7758
L152.6179 127.6420
" />
<path d="M152.6179 127.6420
L152.4841 127.5751
" />
<path d="M152.4841 127.5751
L152.2165 127.5751
" />
<path d="M152.2165 127.5751
L152.0828 127.6420
" />
<path d="M152.6848 128.4447
L152.5510 128.5116
" />
<path d="M152.5510 128.5116
L152.2165 128.5116
" />
<path d="M152.2165 128.5116
L152.0828 128.4447
" />
<path d="M152.0828 128.4447
L152.0159 128.3109
" />
<path d="M152.0159 128.3109
L152.0159 128.1771
" />
<path d="M152.0159 128.1771
L152.0828 128.0434
" />
<path d="M152.0828 128.0434
L152.2165 127.9765
" />
<path d="M152.2165 127.9765
L152.5510 127.9765
" />
<path d="M152.5510 127.9765
L152.6848 127.9096
" />
<path d="M153.1530 127.5751
L153.6882 127.5751
" />
<path d="M153.3537 127.1069
L153.3537 128.3109
" />
<path d="M153.3537 128.3109
L153.4206 128.4447
" />
<path d="M153.4206 128.4447
L153.5544 128.5116
" />
<path d="M153.5544 128.5116
L153.6882 128.5116
" />
<path d="M154.6915 128.4447
L154.5577 128.5116
" />
<path d="M154.5577 128.5116
L154.2902 128.5116
" />
<path d="M154.2902 128.5116
L154.1564 128.4447
" />
<path d="M154.1564 128.4447
L154.0895 128.3109
" />
<path d="M154.0895 128.3109
L154.0895 127.7758
" />
<path d="M154.0895 127.7758
L154.1564 127.6420
" />
<path d="M154.1564 127.6420
L154.2902 127.5751
" />
<path d="M154.2902 127.5751
L154.5577 127.5751
" />
<path d="M154.5577 127.5751
L154.6915 127.6420
" />
<path d="M154.6915 127.6420
L154.7584 127.7758
" />
<path d="M154.7584 127.7758
L154.7584 127.9096
" />
<path d="M154.7584 127.9096
L154.0895 128.0434
" />
<path d="M155.9625 128.5116
L155.9625 127.1069
" />
<path d="M155.9625 128.4447
L155.8287 128.5116
" />
<path d="M155.8287 128.5116
L155.5611 128.5116
" />
<path d="M155.5611 128.5116
L155.4273 128.4447
" />
<path d="M155.4273 128.4447
L155.3604 128.3778
" />
<path d="M155.3604 128.3778
L155.2936 128.2440
" />
<path d="M155.2936 128.2440
L155.2936 127.8427
" />
<path d="M155.2936 127.8427
L155.3604 127.7089
" />
<path d="M155.3604 127.7089
L155.4273 127.6420
" />
<path d="M155.4273 127.6420
L155.5611 127.5751
" />
<path d="M155.5611 127.5751
L155.8287 127.5751
" />
<path d="M155.8287 127.5751
L155.9625 127.6420
" />
<path d="M156.4976 129.0467
L156.5645 128.9798
" />
<path d="M156.5645 128.9798
L156.6983 128.7792
" />
<path d="M156.6983 128.7792
L156.7652 128.6454
" />
<path d="M156.7652 128.6454
L156.8321 128.4447
" />
<path d="M156.8321 128.4447
L156.8990 128.1102
" />
<path d="M156.8990 128.1102
L156.8990 127.8427
" />
<path d="M156.8990 127.8427
L156.8321 127.5082
" />
<path d="M156.8321 127.5082
L156.7652 127.3075
" />
<path d="M156.7652 127.3075
L156.6983 127.1738
" />
<path d="M156.6983 127.1738
L156.5645 126.9731
" />
<path d="M156.5645 126.9731
L156.4976 126.9062
" />
</g><path d="M108.3435 129.7119
L108.3435 131.1166
" />
<path d="M107.6412 130.4142
L109.0459 130.4142
" />
<text x="110.4506" y="131.1166"
textLength="48.1687" font-size="1.8730" lengthAdjust="spacingAndGlyphs"
text-anchor="start" opacity="0" stroke-opacity="0">4.000mm / 0.1575" (26 holes) (not plated)</text>
<g class="stroked-text"><desc>4.000mm / 0.1575" (26 holes) (not plated)</desc>
<path d="M111.4795 130.1203
L111.4795 131.0568
" />
<path d="M111.1450 129.5852
L110.8106 130.5886
" />
<path d="M110.8106 130.5886
L111.6802 130.5886
" />
<path d="M112.2153 130.9230
L112.2822 130.9899
" />
<path d="M112.2822 130.9899
L112.2153 131.0568
" />
<path d="M112.2153 131.0568
L112.1484 130.9899
" />
<path d="M112.1484 130.9899
L112.2153 130.9230
" />
<path d="M112.2153 130.9230
L112.2153 131.0568
" />
<path d="M113.1518 129.6521
L113.2856 129.6521
" />
<path d="M113.2856 129.6521
L113.4194 129.7190
" />
<path d="M113.4194 129.7190
L113.4863 129.7859
" />
<path d="M113.4863 129.7859
L113.5531 129.9196
" />
<path d="M113.5531 129.9196
L113.6200 130.1872
" />
<path d="M113.6200 130.1872
L113.6200 130.5217
" />
<path d="M113.6200 130.5217
L113.5531 130.7892
" />
<path d="M113.5531 130.7892
L113.4863 130.9230
" />
<path d="M113.4863 130.9230
L113.4194 130.9899
" />
<path d="M113.4194 130.9899
L113.2856 131.0568
" />
<path d="M113.2856 131.0568
L113.1518 131.0568
" />
<path d="M113.1518 131.0568
L113.0180 130.9899
" />
<path d="M113.0180 130.9899
L112.9511 130.9230
" />
<path d="M112.9511 130.9230
L112.8842 130.7892
" />
<path d="M112.8842 130.7892
L112.8173 130.5217
" />
<path d="M112.8173 130.5217
L112.8173 130.1872
" />
<path d="M112.8173 130.1872
L112.8842 129.9196
" />
<path d="M112.8842 129.9196
L112.9511 129.7859
" />
<path d="M112.9511 129.7859
L113.0180 129.7190
" />
<path d="M113.0180 129.7190
L113.1518 129.6521
" />
<path d="M114.4896 129.6521
L114.6234 129.6521
" />
<path d="M114.6234 129.6521
L114.7572 129.7190
" />
<path d="M114.7572 129.7190
L114.8241 129.7859
" />
<path d="M114.8241 129.7859
L114.8910 129.9196
" />
<path d="M114.8910 129.9196
L114.9579 130.1872
" />
<path d="M114.9579 130.1872
L114.9579 130.5217
" />
<path d="M114.9579 130.5217
L114.8910 130.7892
" />
<path d="M114.8910 130.7892
L114.8241 130.9230
" />
<path d="M114.8241 130.9230
L114.7572 130.9899
" />
<path d="M114.7572 130.9899
L114.6234 131.0568
" />
<path d="M114.6234 131.0568
L114.4896 131.0568
" />
<path d="M114.4896 131.0568
L114.3558 130.9899
" />
<path d="M114.3558 130.9899
L114.2890 130.9230
" />
<path d="M114.2890 130.9230
L114.2221 130.7892
" />
<path d="M114.2221 130.7892
L114.1552 130.5217
" />
<path d="M114.1552 130.5217
L114.1552 130.1872
" />
<path d="M114.1552 130.1872
L114.2221 129.9196
" />
<path d="M114.2221 129.9196
L114.2890 129.7859
" />
<path d="M114.2890 129.7859
L114.3558 129.7190
" />
<path d="M114.3558 129.7190
L114.4896 129.6521
" />
<path d="M115.8275 129.6521
L115.9612 129.6521
" />
<path d="M115.9612 129.6521
L116.0950 129.7190
" />
<path d="M116.0950 129.7190
L116.1619 129.7859
" />
<path d="M116.1619 129.7859
L116.2288 129.9196
" />
<path d="M116.2288 129.9196
L116.2957 130.1872
" />
<path d="M116.2957 130.1872
L116.2957 130.5217
" />
<path d="M116.2957 130.5217
L116.2288 130.7892
" />
<path d="M116.2288 130.7892
L116.1619 130.9230
" />
<path d="M116.1619 130.9230
L116.0950 130.9899
" />
<path d="M116.0950 130.9899
L115.9612 131.0568
" />
<path d="M115.9612 131.0568
L115.8275 131.0568
" />
<path d="M115.8275 131.0568
L115.6937 130.9899
" />
<path d="M115.6937 130.9899
L115.6268 130.9230
" />
<path d="M115.6268 130.9230
L115.5599 130.7892
" />
<path d="M115.5599 130.7892
L115.4930 130.5217
" />
<path d="M115.4930 130.5217
L115.4930 130.1872
" />
<path d="M115.4930 130.1872
L115.5599 129.9196
" />
<path d="M115.5599 129.9196
L115.6268 129.7859
" />
<path d="M115.6268 129.7859
L115.6937 129.7190
" />
<path d="M115.6937 129.7190
L115.8275 129.6521
" />
<path d="M116.8977 131.0568
L116.8977 130.1203
" />
<path d="M116.8977 130.2541
L116.9646 130.1872
" />
<path d="M116.9646 130.1872
L117.0984 130.1203
" />
<path d="M117.0984 130.1203
L117.2991 130.1203
" />
<path d="M117.2991 130.1203
L117.4329 130.1872
" />
<path d="M117.4329 130.1872
L117.4998 130.3210
" />
<path d="M117.4998 130.3210
L117.4998 131.0568
" />
<path d="M117.4998 130.3210
L117.5666 130.1872
" />
<path d="M117.5666 130.1872
L117.7004 130.1203
" />
<path d="M117.7004 130.1203
L117.9011 130.1203
" />
<path d="M117.9011 130.1203
L118.0349 130.1872
" />
<path d="M118.0349 130.1872
L118.1018 130.3210
" />
<path d="M118.1018 130.3210
L118.1018 131.0568
" />
<path d="M118.7707 131.0568
L118.7707 130.1203
" />
<path d="M118.7707 130.2541
L118.8376 130.1872
" />
<path d="M118.8376 130.1872
L118.9714 130.1203
" />
<path d="M118.9714 130.1203
L119.1720 130.1203
" />
<path d="M119.1720 130.1203
L119.3058 130.1872
" />
<path d="M119.3058 130.1872
L119.3727 130.3210
" />
<path d="M119.3727 130.3210
L119.3727 131.0568
" />
<path d="M119.3727 130.3210
L119.4396 130.1872
" />
<path d="M119.4396 130.1872
L119.5734 130.1203
" />
<path d="M119.5734 130.1203
L119.7741 130.1203
" />
<path d="M119.7741 130.1203
L119.9079 130.1872
" />
<path d="M119.9079 130.1872
L119.9747 130.3210
" />
<path d="M119.9747 130.3210
L119.9747 131.0568
" />
<path d="M122.7173 129.5852
L121.5133 131.3913
" />
<path d="M124.5234 129.6521
L124.6572 129.6521
" />
<path d="M124.6572 129.6521
L124.7909 129.7190
" />
<path d="M124.7909 129.7190
L124.8578 129.7859
" />
<path d="M124.8578 129.7859
L124.9247 129.9196
" />
<path d="M124.9247 129.9196
L124.9916 130.1872
" />
<path d="M124.9916 130.1872
L124.9916 130.5217
" />
<path d="M124.9916 130.5217
L124.9247 130.7892
" />
<path d="M124.9247 130.7892
L124.8578 130.9230
" />
<path d="M124.8578 130.9230
L124.7909 130.9899
" />
<path d="M124.7909 130.9899
L124.6572 131.0568
" />
<path d="M124.6572 131.0568
L124.5234 131.0568
" />
<path d="M124.5234 131.0568
L124.3896 130.9899
" />
<path d="M124.3896 130.9899
L124.3227 130.9230
" />
<path d="M124.3227 130.9230
L124.2558 130.7892
" />
<path d="M124.2558 130.7892
L124.1889 130.5217
" />
<path d="M124.1889 130.5217
L124.1889 130.1872
" />
<path d="M124.1889 130.1872
L124.2558 129.9196
" />
<path d="M124.2558 129.9196
L124.3227 129.7859
" />
<path d="M124.3227 129.7859
L124.3896 129.7190
" />
<path d="M124.3896 129.7190
L124.5234 129.6521
" />
<path d="M125.5936 130.9230
L125.6605 130.9899
" />
<path d="M125.6605 130.9899
L125.5936 131.0568
" />
<path d="M125.5936 131.0568
L125.5268 130.9899
" />
<path d="M125.5268 130.9899
L125.5936 130.9230
" />
<path d="M125.5936 130.9230
L125.5936 131.0568
" />
<path d="M126.9984 131.0568
L126.1957 131.0568
" />
<path d="M126.5970 131.0568
L126.5970 129.6521
" />
<path d="M126.5970 129.6521
L126.4632 129.8527
" />
<path d="M126.4632 129.8527
L126.3295 129.9865
" />
<path d="M126.3295 129.9865
L126.1957 130.0534
" />
<path d="M128.2693 129.6521
L127.6004 129.6521
" />
<path d="M127.6004 129.6521
L127.5335 130.3210
" />
<path d="M127.5335 130.3210
L127.6004 130.2541
" />
<path d="M127.6004 130.2541
L127.7342 130.1872
" />
<path d="M127.7342 130.1872
L128.0686 130.1872
" />
<path d="M128.0686 130.1872
L128.2024 130.2541
" />
<path d="M128.2024 130.2541
L128.2693 130.3210
" />
<path d="M128.2693 130.3210
L128.3362 130.4548
" />
<path d="M128.3362 130.4548
L128.3362 130.7892
" />
<path d="M128.3362 130.7892
L128.2693 130.9230
" />
<path d="M128.2693 130.9230
L128.2024 130.9899
" />
<path d="M128.2024 130.9899
L128.0686 131.0568
" />
<path d="M128.0686 131.0568
L127.7342 131.0568
" />
<path d="M127.7342 131.0568
L127.6004 130.9899
" />
<path d="M127.6004 130.9899
L127.5335 130.9230
" />
<path d="M128.8044 129.6521
L129.7409 129.6521
" />
<path d="M129.7409 129.6521
L129.1389 131.0568
" />
<path d="M130.9450 129.6521
L130.2761 129.6521
" />
<path d="M130.2761 129.6521
L130.2092 130.3210
" />
<path d="M130.2092 130.3210
L130.2761 130.2541
" />
<path d="M130.2761 130.2541
L130.4099 130.1872
" />
<path d="M130.4099 130.1872
L130.7443 130.1872
" />
<path d="M130.7443 130.1872
L130.8781 130.2541
" />
<path d="M130.8781 130.2541
L130.9450 130.3210
" />
<path d="M130.9450 130.3210
L131.0119 130.4548
" />
<path d="M131.0119 130.4548
L131.0119 130.7892
" />
<path d="M131.0119 130.7892
L130.9450 130.9230
" />
<path d="M130.9450 130.9230
L130.8781 130.9899
" />
<path d="M130.8781 130.9899
L130.7443 131.0568
" />
<path d="M130.7443 131.0568
L130.4099 131.0568
" />
<path d="M130.4099 131.0568
L130.2761 130.9899
" />
<path d="M130.2761 130.9899
L130.2092 130.9230
" />
<path d="M131.5470 129.6521
L131.5470 129.9196
" />
<path d="M132.0821 129.6521
L132.0821 129.9196
" />
<path d="M134.1558 131.5919
L134.0889 131.5250
" />
<path d="M134.0889 131.5250
L133.9551 131.3244
" />
<path d="M133.9551 131.3244
L133.8882 131.1906
" />
<path d="M133.8882 131.1906
L133.8213 130.9899
" />
<path d="M133.8213 130.9899
L133.7544 130.6554
" />
<path d="M133.7544 130.6554
L133.7544 130.3879
" />
<path d="M133.7544 130.3879
L133.8213 130.0534
" />
<path d="M133.8213 130.0534
L133.8882 129.8527
" />
<path d="M133.8882 129.8527
L133.9551 129.7190
" />
<path d="M133.9551 129.7190
L134.0889 129.5183
" />
<path d="M134.0889 129.5183
L134.1558 129.4514
" />
<path d="M134.6240 129.7859
L134.6909 129.7190
" />
<path d="M134.6909 129.7190
L134.8247 129.6521
" />
<path d="M134.8247 129.6521
L135.1592 129.6521
" />
<path d="M135.1592 129.6521
L135.2929 129.7190
" />
<path d="M135.2929 129.7190
L135.3598 129.7859
" />
<path d="M135.3598 129.7859
L135.4267 129.9196
" />
<path d="M135.4267 129.9196
L135.4267 130.0534
" />
<path d="M135.4267 130.0534
L135.3598 130.2541
" />
<path d="M135.3598 130.2541
L134.5571 131.0568
" />
<path d="M134.5571 131.0568
L135.4267 131.0568
" />
<path d="M136.6308 129.6521
L136.3632 129.6521
" />
<path d="M136.3632 129.6521
L136.2294 129.7190
" />
<path d="M136.2294 129.7190
L136.1625 129.7859
" />
<path d="M136.1625 129.7859
L136.0288 129.9865
" />
<path d="M136.0288 129.9865
L135.9619 130.2541
" />
<path d="M135.9619 130.2541
L135.9619 130.7892
" />
<path d="M135.9619 130.7892
L136.0288 130.9230
" />
<path d="M136.0288 130.9230
L136.0956 130.9899
" />
<path d="M136.0956 130.9899
L136.2294 131.0568
" />
<path d="M136.2294 131.0568
L136.4970 131.0568
" />
<path d="M136.4970 131.0568
L136.6308 130.9899
" />
<path d="M136.6308 130.9899
L136.6977 130.9230
" />
<path d="M136.6977 130.9230
L136.7646 130.7892
" />
<path d="M136.7646 130.7892
L136.7646 130.4548
" />
<path d="M136.7646 130.4548
L136.6977 130.3210
" />
<path d="M136.6977 130.3210
L136.6308 130.2541
" />
<path d="M136.6308 130.2541
L136.4970 130.1872
" />
<path d="M136.4970 130.1872
L136.2294 130.1872
" />
<path d="M136.2294 130.1872
L136.0956 130.2541
" />
<path d="M136.0956 130.2541
L136.0288 130.3210
" />
<path d="M136.0288 130.3210
L135.9619 130.4548
" />
<path d="M138.4369 131.0568
L138.4369 129.6521
" />
<path d="M139.0389 131.0568
L139.0389 130.3210
" />
<path d="M139.0389 130.3210
L138.9720 130.1872
" />
<path d="M138.9720 130.1872
L138.8382 130.1203
" />
<path d="M138.8382 130.1203
L138.6375 130.1203
" />
<path d="M138.6375 130.1203
L138.5037 130.1872
" />
<path d="M138.5037 130.1872
L138.4369 130.2541
" />
<path d="M139.9085 131.0568
L139.7747 130.9899
" />
<path d="M139.7747 130.9899
L139.7078 130.9230
" />
<path d="M139.7078 130.9230
L139.6409 130.7892
" />
<path d="M139.6409 130.7892
L139.6409 130.3879
" />
<path d="M139.6409 130.3879
L139.7078 130.2541
" />
<path d="M139.7078 130.2541
L139.7747 130.1872
" />
<path d="M139.7747 130.1872
L139.9085 130.1203
" />
<path d="M139.9085 130.1203
L140.1091 130.1203
" />
<path d="M140.1091 130.1203
L140.2429 130.1872
" />
<path d="M140.2429 130.1872
L140.3098 130.2541
" />
<path d="M140.3098 130.2541
L140.3767 130.3879
" />
<path d="M140.3767 130.3879
L140.3767 130.7892
" />
<path d="M140.3767 130.7892
L140.3098 130.9230
" />
<path d="M140.3098 130.9230
L140.2429 130.9899
" />
<path d="M140.2429 130.9899
L140.1091 131.0568
" />
<path d="M140.1091 131.0568
L139.9085 131.0568
" />
<path d="M141.1794 131.0568
L141.0456 130.9899
" />
<path d="M141.0456 130.9899
L140.9787 130.8561
" />
<path d="M140.9787 130.8561
L140.9787 129.6521
" />
<path d="M142.2497 130.9899
L142.1159 131.0568
" />
<path d="M142.1159 131.0568
L141.8483 131.0568
" />
<path d="M141.8483 131.0568
L141.7145 130.9899
" />
<path d="M141.7145 130.9899
L141.6477 130.8561
" />
<path d="M141.6477 130.8561
L141.6477 130.3210
" />
<path d="M141.6477 130.3210
L141.7145 130.1872
" />
<path d="M141.7145 130.1872
L141.8483 130.1203
" />
<path d="M141.8483 130.1203
L142.1159 130.1203
" />
<path d="M142.1159 130.1203
L142.2497 130.1872
" />
<path d="M142.2497 130.1872
L142.3166 130.3210
" />
<path d="M142.3166 130.3210
L142.3166 130.4548
" />
<path d="M142.3166 130.4548
L141.6477 130.5886
" />
<path d="M142.8517 130.9899
L142.9855 131.0568
" />
<path d="M142.9855 131.0568
L143.2531 131.0568
" />
<path d="M143.2531 131.0568
L143.3868 130.9899
" />
<path d="M143.3868 130.9899
L143.4537 130.8561
" />
<path d="M143.4537 130.8561
L143.4537 130.7892
" />
<path d="M143.4537 130.7892
L143.3868 130.6554
" />
<path d="M143.3868 130.6554
L143.2531 130.5886
" />
<path d="M143.2531 130.5886
L143.0524 130.5886
" />
<path d="M143.0524 130.5886
L142.9186 130.5217
" />
<path d="M142.9186 130.5217
L142.8517 130.3879
" />
<path d="M142.8517 130.3879
L142.8517 130.3210
" />
<path d="M142.8517 130.3210
L142.9186 130.1872
" />
<path d="M142.9186 130.1872
L143.0524 130.1203
" />
<path d="M143.0524 130.1203
L143.2531 130.1203
" />
<path d="M143.2531 130.1203
L143.3868 130.1872
" />
<path d="M143.9220 131.5919
L143.9889 131.5250
" />
<path d="M143.9889 131.5250
L144.1226 131.3244
" />
<path d="M144.1226 131.3244
L144.1895 131.1906
" />
<path d="M144.1895 131.1906
L144.2564 130.9899
" />
<path d="M144.2564 130.9899
L144.3233 130.6554
" />
<path d="M144.3233 130.6554
L144.3233 130.3879
" />
<path d="M144.3233 130.3879
L144.2564 130.0534
" />
<path d="M144.2564 130.0534
L144.1895 129.8527
" />
<path d="M144.1895 129.8527
L144.1226 129.7190
" />
<path d="M144.1226 129.7190
L143.9889 129.5183
" />
<path d="M143.9889 129.5183
L143.9220 129.4514
" />
<path d="M146.4639 131.5919
L146.3970 131.5250
" />
<path d="M146.3970 131.5250
L146.2632 131.3244
" />
<path d="M146.2632 131.3244
L146.1963 131.1906
" />
<path d="M146.1963 131.1906
L146.1294 130.9899
" />
<path d="M146.1294 130.9899
L146.0625 130.6554
" />
<path d="M146.0625 130.6554
L146.0625 130.3879
" />
<path d="M146.0625 130.3879
L146.1294 130.0534
" />
<path d="M146.1294 130.0534
L146.1963 129.8527
" />
<path d="M146.1963 129.8527
L146.2632 129.7190
" />
<path d="M146.2632 129.7190
L146.3970 129.5183
" />
<path d="M146.3970 129.5183
L146.4639 129.4514
" />
<path d="M146.9990 130.1203
L146.9990 131.0568
" />
<path d="M146.9990 130.2541
L147.0659 130.1872
" />
<path d="M147.0659 130.1872
L147.1997 130.1203
" />
<path d="M147.1997 130.1203
L147.4003 130.1203
" />
<path d="M147.4003 130.1203
L147.5341 130.1872
" />
<path d="M147.5341 130.1872
L147.6010 130.3210
" />
<path d="M147.6010 130.3210
L147.6010 131.0568
" />
<path d="M148.4706 131.0568
L148.3368 130.9899
" />
<path d="M148.3368 130.9899
L148.2699 130.9230
" />
<path d="M148.2699 130.9230
L148.2030 130.7892
" />
<path d="M148.2030 130.7892
L148.2030 130.3879
" />
<path d="M148.2030 130.3879
L148.2699 130.2541
" />
<path d="M148.2699 130.2541
L148.3368 130.1872
" />
<path d="M148.3368 130.1872
L148.4706 130.1203
" />
<path d="M148.4706 130.1203
L148.6713 130.1203
" />
<path d="M148.6713 130.1203
L148.8051 130.1872
" />
<path d="M148.8051 130.1872
L148.8720 130.2541
" />
<path d="M148.8720 130.2541
L148.9388 130.3879
" />
<path d="M148.9388 130.3879
L148.9388 130.7892
" />
<path d="M148.9388 130.7892
L148.8720 130.9230
" />
<path d="M148.8720 130.9230
L148.8051 130.9899
" />
<path d="M148.8051 130.9899
L148.6713 131.0568
" />
<path d="M148.6713 131.0568
L148.4706 131.0568
" />
<path d="M149.3402 130.1203
L149.8753 130.1203
" />
<path d="M149.5409 129.6521
L149.5409 130.8561
" />
<path d="M149.5409 130.8561
L149.6078 130.9899
" />
<path d="M149.6078 130.9899
L149.7415 131.0568
" />
<path d="M149.7415 131.0568
L149.8753 131.0568
" />
<path d="M151.4138 130.1203
L151.4138 131.5250
" />
<path d="M151.4138 130.1872
L151.5476 130.1203
" />
<path d="M151.5476 130.1203
L151.8152 130.1203
" />
<path d="M151.8152 130.1203
L151.9490 130.1872
" />
<path d="M151.9490 130.1872
L152.0159 130.2541
" />
<path d="M152.0159 130.2541
L152.0828 130.3879
" />
<path d="M152.0828 130.3879
L152.0828 130.7892
" />
<path d="M152.0828 130.7892
L152.0159 130.9230
" />
<path d="M152.0159 130.9230
L151.9490 130.9899
" />
<path d="M151.9490 130.9899
L151.8152 131.0568
" />
<path d="M151.8152 131.0568
L151.5476 131.0568
" />
<path d="M151.5476 131.0568
L151.4138 130.9899
" />
<path d="M152.8855 131.0568
L152.7517 130.9899
" />
<path d="M152.7517 130.9899
L152.6848 130.8561
" />
<path d="M152.6848 130.8561
L152.6848 129.6521
" />
<path d="M154.0226 131.0568
L154.0226 130.3210
" />
<path d="M154.0226 130.3210
L153.9557 130.1872
" />
<path d="M153.9557 130.1872
L153.8219 130.1203
" />
<path d="M153.8219 130.1203
L153.5544 130.1203
" />
<path d="M153.5544 130.1203
L153.4206 130.1872
" />
<path d="M154.0226 130.9899
L153.8888 131.0568
" />
<path d="M153.8888 131.0568
L153.5544 131.0568
" />
<path d="M153.5544 131.0568
L153.4206 130.9899
" />
<path d="M153.4206 130.9899
L153.3537 130.8561
" />
<path d="M153.3537 130.8561
L153.3537 130.7223
" />
<path d="M153.3537 130.7223
L153.4206 130.5886
" />
<path d="M153.4206 130.5886
L153.5544 130.5217
" />
<path d="M153.5544 130.5217
L153.8888 130.5217
" />
<path d="M153.8888 130.5217
L154.0226 130.4548
" />
<path d="M154.4909 130.1203
L155.0260 130.1203
" />
<path d="M154.6915 129.6521
L154.6915 130.8561
" />
<path d="M154.6915 130.8561
L154.7584 130.9899
" />
<path d="M154.7584 130.9899
L154.8922 131.0568
" />
<path d="M154.8922 131.0568
L155.0260 131.0568
" />
<path d="M156.0294 130.9899
L155.8956 131.0568
" />
<path d="M155.8956 131.0568
L155.6280 131.0568
" />
<path d="M155.6280 131.0568
L155.4942 130.9899
" />
<path d="M155.4942 130.9899
L155.4273 130.8561
" />
<path d="M155.4273 130.8561
L155.4273 130.3210
" />
<path d="M155.4273 130.3210
L155.4942 130.1872
" />
<path d="M155.4942 130.1872
L155.6280 130.1203
" />
<path d="M155.6280 130.1203
L155.8956 130.1203
" />
<path d="M155.8956 130.1203
L156.0294 130.1872
" />
<path d="M156.0294 130.1872
L156.0963 130.3210
" />
<path d="M156.0963 130.3210
L156.0963 130.4548
" />
<path d="M156.0963 130.4548
L155.4273 130.5886
" />
<path d="M157.3003 131.0568
L157.3003 129.6521
" />
<path d="M157.3003 130.9899
L157.1665 131.0568
" />
<path d="M157.1665 131.0568
L156.8990 131.0568
" />
<path d="M156.8990 131.0568
L156.7652 130.9899
" />
<path d="M156.7652 130.9899
L156.6983 130.9230
" />
<path d="M156.6983 130.9230
L156.6314 130.7892
" />
<path d="M156.6314 130.7892
L156.6314 130.3879
" />
<path d="M156.6314 130.3879
L156.6983 130.2541
" />
<path d="M156.6983 130.2541
L156.7652 130.1872
" />
<path d="M156.7652 130.1872
L156.8990 130.1203
" />
<path d="M156.8990 130.1203
L157.1665 130.1203
" />
<path d="M157.1665 130.1203
L157.3003 130.1872
" />
<path d="M157.8354 131.5919
L157.9023 131.5250
" />
<path d="M157.9023 131.5250
L158.0361 131.3244
" />
<path d="M158.0361 131.3244
L158.1030 131.1906
" />
<path d="M158.1030 131.1906
L158.1699 130.9899
" />
<path d="M158.1699 130.9899
L158.2368 130.6554
" />
<path d="M158.2368 130.6554
L158.2368 130.3879
" />
<path d="M158.2368 130.3879
L158.1699 130.0534
" />
<path d="M158.1699 130.0534
L158.1030 129.8527
" />
<path d="M158.1030 129.8527
L158.0361 129.7190
" />
<path d="M158.0361 129.7190
L157.9023 129.5183
" />
<path d="M157.9023 129.5183
L157.8354 129.4514
" />
</g></g> 
</svg>
