%TF.GenerationSoftware,KiCad,Pcbnew,9.0.7*%
%TF.CreationDate,2026-02-27T02:53:56-05:00*%
%TF.ProjectId,Macropad,4d616372-6f70-4616-942e-6b696361645f,rev?*%
%TF.SameCoordinates,Original*%
%TF.FileFunction,Legend,Top*%
%TF.FilePolarity,Positive*%
%FSLAX46Y46*%
G04 Gerber Fmt 4.6, Leading zero omitted, Abs format (unit mm)*
G04 Created by KiCad (PCBNEW 9.0.7) date 2026-02-27 02:53:56*
%MOMM*%
%LPD*%
G01*
G04 APERTURE LIST*
%ADD10C,0.150000*%
%ADD11C,1.700000*%
%ADD12C,4.000000*%
%ADD13C,1.750000*%
%ADD14R,1.600000X1.600000*%
%ADD15O,1.600000X1.600000*%
%ADD16R,1.700000X1.700000*%
%ADD17C,1.600000*%
%ADD18R,1.800000X1.800000*%
%ADD19C,1.800000*%
G04 APERTURE END LIST*
D10*
X8191667Y-1932200D02*
X8334524Y-1979819D01*
X8334524Y-1979819D02*
X8572619Y-1979819D01*
X8572619Y-1979819D02*
X8667857Y-1932200D01*
X8667857Y-1932200D02*
X8715476Y-1884580D01*
X8715476Y-1884580D02*
X8763095Y-1789342D01*
X8763095Y-1789342D02*
X8763095Y-1694104D01*
X8763095Y-1694104D02*
X8715476Y-1598866D01*
X8715476Y-1598866D02*
X8667857Y-1551247D01*
X8667857Y-1551247D02*
X8572619Y-1503628D01*
X8572619Y-1503628D02*
X8382143Y-1456009D01*
X8382143Y-1456009D02*
X8286905Y-1408390D01*
X8286905Y-1408390D02*
X8239286Y-1360771D01*
X8239286Y-1360771D02*
X8191667Y-1265533D01*
X8191667Y-1265533D02*
X8191667Y-1170295D01*
X8191667Y-1170295D02*
X8239286Y-1075057D01*
X8239286Y-1075057D02*
X8286905Y-1027438D01*
X8286905Y-1027438D02*
X8382143Y-979819D01*
X8382143Y-979819D02*
X8620238Y-979819D01*
X8620238Y-979819D02*
X8763095Y-1027438D01*
X9096429Y-979819D02*
X9334524Y-1979819D01*
X9334524Y-1979819D02*
X9525000Y-1265533D01*
X9525000Y-1265533D02*
X9715476Y-1979819D01*
X9715476Y-1979819D02*
X9953572Y-979819D01*
X10858333Y-1979819D02*
X10286905Y-1979819D01*
X10572619Y-1979819D02*
X10572619Y-979819D01*
X10572619Y-979819D02*
X10477381Y-1122676D01*
X10477381Y-1122676D02*
X10382143Y-1217914D01*
X10382143Y-1217914D02*
X10286905Y-1265533D01*
X8191667Y-25744200D02*
X8334524Y-25791819D01*
X8334524Y-25791819D02*
X8572619Y-25791819D01*
X8572619Y-25791819D02*
X8667857Y-25744200D01*
X8667857Y-25744200D02*
X8715476Y-25696580D01*
X8715476Y-25696580D02*
X8763095Y-25601342D01*
X8763095Y-25601342D02*
X8763095Y-25506104D01*
X8763095Y-25506104D02*
X8715476Y-25410866D01*
X8715476Y-25410866D02*
X8667857Y-25363247D01*
X8667857Y-25363247D02*
X8572619Y-25315628D01*
X8572619Y-25315628D02*
X8382143Y-25268009D01*
X8382143Y-25268009D02*
X8286905Y-25220390D01*
X8286905Y-25220390D02*
X8239286Y-25172771D01*
X8239286Y-25172771D02*
X8191667Y-25077533D01*
X8191667Y-25077533D02*
X8191667Y-24982295D01*
X8191667Y-24982295D02*
X8239286Y-24887057D01*
X8239286Y-24887057D02*
X8286905Y-24839438D01*
X8286905Y-24839438D02*
X8382143Y-24791819D01*
X8382143Y-24791819D02*
X8620238Y-24791819D01*
X8620238Y-24791819D02*
X8763095Y-24839438D01*
X9096429Y-24791819D02*
X9334524Y-25791819D01*
X9334524Y-25791819D02*
X9525000Y-25077533D01*
X9525000Y-25077533D02*
X9715476Y-25791819D01*
X9715476Y-25791819D02*
X9953572Y-24791819D01*
X10286905Y-24887057D02*
X10334524Y-24839438D01*
X10334524Y-24839438D02*
X10429762Y-24791819D01*
X10429762Y-24791819D02*
X10667857Y-24791819D01*
X10667857Y-24791819D02*
X10763095Y-24839438D01*
X10763095Y-24839438D02*
X10810714Y-24887057D01*
X10810714Y-24887057D02*
X10858333Y-24982295D01*
X10858333Y-24982295D02*
X10858333Y-25077533D01*
X10858333Y-25077533D02*
X10810714Y-25220390D01*
X10810714Y-25220390D02*
X10239286Y-25791819D01*
X10239286Y-25791819D02*
X10858333Y-25791819D01*
X27241667Y-25744200D02*
X27384524Y-25791819D01*
X27384524Y-25791819D02*
X27622619Y-25791819D01*
X27622619Y-25791819D02*
X27717857Y-25744200D01*
X27717857Y-25744200D02*
X27765476Y-25696580D01*
X27765476Y-25696580D02*
X27813095Y-25601342D01*
X27813095Y-25601342D02*
X27813095Y-25506104D01*
X27813095Y-25506104D02*
X27765476Y-25410866D01*
X27765476Y-25410866D02*
X27717857Y-25363247D01*
X27717857Y-25363247D02*
X27622619Y-25315628D01*
X27622619Y-25315628D02*
X27432143Y-25268009D01*
X27432143Y-25268009D02*
X27336905Y-25220390D01*
X27336905Y-25220390D02*
X27289286Y-25172771D01*
X27289286Y-25172771D02*
X27241667Y-25077533D01*
X27241667Y-25077533D02*
X27241667Y-24982295D01*
X27241667Y-24982295D02*
X27289286Y-24887057D01*
X27289286Y-24887057D02*
X27336905Y-24839438D01*
X27336905Y-24839438D02*
X27432143Y-24791819D01*
X27432143Y-24791819D02*
X27670238Y-24791819D01*
X27670238Y-24791819D02*
X27813095Y-24839438D01*
X28146429Y-24791819D02*
X28384524Y-25791819D01*
X28384524Y-25791819D02*
X28575000Y-25077533D01*
X28575000Y-25077533D02*
X28765476Y-25791819D01*
X28765476Y-25791819D02*
X29003572Y-24791819D01*
X29289286Y-24791819D02*
X29908333Y-24791819D01*
X29908333Y-24791819D02*
X29575000Y-25172771D01*
X29575000Y-25172771D02*
X29717857Y-25172771D01*
X29717857Y-25172771D02*
X29813095Y-25220390D01*
X29813095Y-25220390D02*
X29860714Y-25268009D01*
X29860714Y-25268009D02*
X29908333Y-25363247D01*
X29908333Y-25363247D02*
X29908333Y-25601342D01*
X29908333Y-25601342D02*
X29860714Y-25696580D01*
X29860714Y-25696580D02*
X29813095Y-25744200D01*
X29813095Y-25744200D02*
X29717857Y-25791819D01*
X29717857Y-25791819D02*
X29432143Y-25791819D01*
X29432143Y-25791819D02*
X29336905Y-25744200D01*
X29336905Y-25744200D02*
X29289286Y-25696580D01*
X46291667Y-25744200D02*
X46434524Y-25791819D01*
X46434524Y-25791819D02*
X46672619Y-25791819D01*
X46672619Y-25791819D02*
X46767857Y-25744200D01*
X46767857Y-25744200D02*
X46815476Y-25696580D01*
X46815476Y-25696580D02*
X46863095Y-25601342D01*
X46863095Y-25601342D02*
X46863095Y-25506104D01*
X46863095Y-25506104D02*
X46815476Y-25410866D01*
X46815476Y-25410866D02*
X46767857Y-25363247D01*
X46767857Y-25363247D02*
X46672619Y-25315628D01*
X46672619Y-25315628D02*
X46482143Y-25268009D01*
X46482143Y-25268009D02*
X46386905Y-25220390D01*
X46386905Y-25220390D02*
X46339286Y-25172771D01*
X46339286Y-25172771D02*
X46291667Y-25077533D01*
X46291667Y-25077533D02*
X46291667Y-24982295D01*
X46291667Y-24982295D02*
X46339286Y-24887057D01*
X46339286Y-24887057D02*
X46386905Y-24839438D01*
X46386905Y-24839438D02*
X46482143Y-24791819D01*
X46482143Y-24791819D02*
X46720238Y-24791819D01*
X46720238Y-24791819D02*
X46863095Y-24839438D01*
X47196429Y-24791819D02*
X47434524Y-25791819D01*
X47434524Y-25791819D02*
X47625000Y-25077533D01*
X47625000Y-25077533D02*
X47815476Y-25791819D01*
X47815476Y-25791819D02*
X48053572Y-24791819D01*
X48863095Y-25125152D02*
X48863095Y-25791819D01*
X48625000Y-24744200D02*
X48386905Y-25458485D01*
X48386905Y-25458485D02*
X49005952Y-25458485D01*
X65341667Y-25744200D02*
X65484524Y-25791819D01*
X65484524Y-25791819D02*
X65722619Y-25791819D01*
X65722619Y-25791819D02*
X65817857Y-25744200D01*
X65817857Y-25744200D02*
X65865476Y-25696580D01*
X65865476Y-25696580D02*
X65913095Y-25601342D01*
X65913095Y-25601342D02*
X65913095Y-25506104D01*
X65913095Y-25506104D02*
X65865476Y-25410866D01*
X65865476Y-25410866D02*
X65817857Y-25363247D01*
X65817857Y-25363247D02*
X65722619Y-25315628D01*
X65722619Y-25315628D02*
X65532143Y-25268009D01*
X65532143Y-25268009D02*
X65436905Y-25220390D01*
X65436905Y-25220390D02*
X65389286Y-25172771D01*
X65389286Y-25172771D02*
X65341667Y-25077533D01*
X65341667Y-25077533D02*
X65341667Y-24982295D01*
X65341667Y-24982295D02*
X65389286Y-24887057D01*
X65389286Y-24887057D02*
X65436905Y-24839438D01*
X65436905Y-24839438D02*
X65532143Y-24791819D01*
X65532143Y-24791819D02*
X65770238Y-24791819D01*
X65770238Y-24791819D02*
X65913095Y-24839438D01*
X66246429Y-24791819D02*
X66484524Y-25791819D01*
X66484524Y-25791819D02*
X66675000Y-25077533D01*
X66675000Y-25077533D02*
X66865476Y-25791819D01*
X66865476Y-25791819D02*
X67103572Y-24791819D01*
X67960714Y-24791819D02*
X67484524Y-24791819D01*
X67484524Y-24791819D02*
X67436905Y-25268009D01*
X67436905Y-25268009D02*
X67484524Y-25220390D01*
X67484524Y-25220390D02*
X67579762Y-25172771D01*
X67579762Y-25172771D02*
X67817857Y-25172771D01*
X67817857Y-25172771D02*
X67913095Y-25220390D01*
X67913095Y-25220390D02*
X67960714Y-25268009D01*
X67960714Y-25268009D02*
X68008333Y-25363247D01*
X68008333Y-25363247D02*
X68008333Y-25601342D01*
X68008333Y-25601342D02*
X67960714Y-25696580D01*
X67960714Y-25696580D02*
X67913095Y-25744200D01*
X67913095Y-25744200D02*
X67817857Y-25791819D01*
X67817857Y-25791819D02*
X67579762Y-25791819D01*
X67579762Y-25791819D02*
X67484524Y-25744200D01*
X67484524Y-25744200D02*
X67436905Y-25696580D01*
X84391667Y-25744200D02*
X84534524Y-25791819D01*
X84534524Y-25791819D02*
X84772619Y-25791819D01*
X84772619Y-25791819D02*
X84867857Y-25744200D01*
X84867857Y-25744200D02*
X84915476Y-25696580D01*
X84915476Y-25696580D02*
X84963095Y-25601342D01*
X84963095Y-25601342D02*
X84963095Y-25506104D01*
X84963095Y-25506104D02*
X84915476Y-25410866D01*
X84915476Y-25410866D02*
X84867857Y-25363247D01*
X84867857Y-25363247D02*
X84772619Y-25315628D01*
X84772619Y-25315628D02*
X84582143Y-25268009D01*
X84582143Y-25268009D02*
X84486905Y-25220390D01*
X84486905Y-25220390D02*
X84439286Y-25172771D01*
X84439286Y-25172771D02*
X84391667Y-25077533D01*
X84391667Y-25077533D02*
X84391667Y-24982295D01*
X84391667Y-24982295D02*
X84439286Y-24887057D01*
X84439286Y-24887057D02*
X84486905Y-24839438D01*
X84486905Y-24839438D02*
X84582143Y-24791819D01*
X84582143Y-24791819D02*
X84820238Y-24791819D01*
X84820238Y-24791819D02*
X84963095Y-24839438D01*
X85296429Y-24791819D02*
X85534524Y-25791819D01*
X85534524Y-25791819D02*
X85725000Y-25077533D01*
X85725000Y-25077533D02*
X85915476Y-25791819D01*
X85915476Y-25791819D02*
X86153572Y-24791819D01*
X86963095Y-24791819D02*
X86772619Y-24791819D01*
X86772619Y-24791819D02*
X86677381Y-24839438D01*
X86677381Y-24839438D02*
X86629762Y-24887057D01*
X86629762Y-24887057D02*
X86534524Y-25029914D01*
X86534524Y-25029914D02*
X86486905Y-25220390D01*
X86486905Y-25220390D02*
X86486905Y-25601342D01*
X86486905Y-25601342D02*
X86534524Y-25696580D01*
X86534524Y-25696580D02*
X86582143Y-25744200D01*
X86582143Y-25744200D02*
X86677381Y-25791819D01*
X86677381Y-25791819D02*
X86867857Y-25791819D01*
X86867857Y-25791819D02*
X86963095Y-25744200D01*
X86963095Y-25744200D02*
X87010714Y-25696580D01*
X87010714Y-25696580D02*
X87058333Y-25601342D01*
X87058333Y-25601342D02*
X87058333Y-25363247D01*
X87058333Y-25363247D02*
X87010714Y-25268009D01*
X87010714Y-25268009D02*
X86963095Y-25220390D01*
X86963095Y-25220390D02*
X86867857Y-25172771D01*
X86867857Y-25172771D02*
X86677381Y-25172771D01*
X86677381Y-25172771D02*
X86582143Y-25220390D01*
X86582143Y-25220390D02*
X86534524Y-25268009D01*
X86534524Y-25268009D02*
X86486905Y-25363247D01*
X8191667Y-44795200D02*
X8334524Y-44842819D01*
X8334524Y-44842819D02*
X8572619Y-44842819D01*
X8572619Y-44842819D02*
X8667857Y-44795200D01*
X8667857Y-44795200D02*
X8715476Y-44747580D01*
X8715476Y-44747580D02*
X8763095Y-44652342D01*
X8763095Y-44652342D02*
X8763095Y-44557104D01*
X8763095Y-44557104D02*
X8715476Y-44461866D01*
X8715476Y-44461866D02*
X8667857Y-44414247D01*
X8667857Y-44414247D02*
X8572619Y-44366628D01*
X8572619Y-44366628D02*
X8382143Y-44319009D01*
X8382143Y-44319009D02*
X8286905Y-44271390D01*
X8286905Y-44271390D02*
X8239286Y-44223771D01*
X8239286Y-44223771D02*
X8191667Y-44128533D01*
X8191667Y-44128533D02*
X8191667Y-44033295D01*
X8191667Y-44033295D02*
X8239286Y-43938057D01*
X8239286Y-43938057D02*
X8286905Y-43890438D01*
X8286905Y-43890438D02*
X8382143Y-43842819D01*
X8382143Y-43842819D02*
X8620238Y-43842819D01*
X8620238Y-43842819D02*
X8763095Y-43890438D01*
X9096429Y-43842819D02*
X9334524Y-44842819D01*
X9334524Y-44842819D02*
X9525000Y-44128533D01*
X9525000Y-44128533D02*
X9715476Y-44842819D01*
X9715476Y-44842819D02*
X9953572Y-43842819D01*
X10239286Y-43842819D02*
X10905952Y-43842819D01*
X10905952Y-43842819D02*
X10477381Y-44842819D01*
X27241667Y-44795200D02*
X27384524Y-44842819D01*
X27384524Y-44842819D02*
X27622619Y-44842819D01*
X27622619Y-44842819D02*
X27717857Y-44795200D01*
X27717857Y-44795200D02*
X27765476Y-44747580D01*
X27765476Y-44747580D02*
X27813095Y-44652342D01*
X27813095Y-44652342D02*
X27813095Y-44557104D01*
X27813095Y-44557104D02*
X27765476Y-44461866D01*
X27765476Y-44461866D02*
X27717857Y-44414247D01*
X27717857Y-44414247D02*
X27622619Y-44366628D01*
X27622619Y-44366628D02*
X27432143Y-44319009D01*
X27432143Y-44319009D02*
X27336905Y-44271390D01*
X27336905Y-44271390D02*
X27289286Y-44223771D01*
X27289286Y-44223771D02*
X27241667Y-44128533D01*
X27241667Y-44128533D02*
X27241667Y-44033295D01*
X27241667Y-44033295D02*
X27289286Y-43938057D01*
X27289286Y-43938057D02*
X27336905Y-43890438D01*
X27336905Y-43890438D02*
X27432143Y-43842819D01*
X27432143Y-43842819D02*
X27670238Y-43842819D01*
X27670238Y-43842819D02*
X27813095Y-43890438D01*
X28146429Y-43842819D02*
X28384524Y-44842819D01*
X28384524Y-44842819D02*
X28575000Y-44128533D01*
X28575000Y-44128533D02*
X28765476Y-44842819D01*
X28765476Y-44842819D02*
X29003572Y-43842819D01*
X29527381Y-44271390D02*
X29432143Y-44223771D01*
X29432143Y-44223771D02*
X29384524Y-44176152D01*
X29384524Y-44176152D02*
X29336905Y-44080914D01*
X29336905Y-44080914D02*
X29336905Y-44033295D01*
X29336905Y-44033295D02*
X29384524Y-43938057D01*
X29384524Y-43938057D02*
X29432143Y-43890438D01*
X29432143Y-43890438D02*
X29527381Y-43842819D01*
X29527381Y-43842819D02*
X29717857Y-43842819D01*
X29717857Y-43842819D02*
X29813095Y-43890438D01*
X29813095Y-43890438D02*
X29860714Y-43938057D01*
X29860714Y-43938057D02*
X29908333Y-44033295D01*
X29908333Y-44033295D02*
X29908333Y-44080914D01*
X29908333Y-44080914D02*
X29860714Y-44176152D01*
X29860714Y-44176152D02*
X29813095Y-44223771D01*
X29813095Y-44223771D02*
X29717857Y-44271390D01*
X29717857Y-44271390D02*
X29527381Y-44271390D01*
X29527381Y-44271390D02*
X29432143Y-44319009D01*
X29432143Y-44319009D02*
X29384524Y-44366628D01*
X29384524Y-44366628D02*
X29336905Y-44461866D01*
X29336905Y-44461866D02*
X29336905Y-44652342D01*
X29336905Y-44652342D02*
X29384524Y-44747580D01*
X29384524Y-44747580D02*
X29432143Y-44795200D01*
X29432143Y-44795200D02*
X29527381Y-44842819D01*
X29527381Y-44842819D02*
X29717857Y-44842819D01*
X29717857Y-44842819D02*
X29813095Y-44795200D01*
X29813095Y-44795200D02*
X29860714Y-44747580D01*
X29860714Y-44747580D02*
X29908333Y-44652342D01*
X29908333Y-44652342D02*
X29908333Y-44461866D01*
X29908333Y-44461866D02*
X29860714Y-44366628D01*
X29860714Y-44366628D02*
X29813095Y-44319009D01*
X29813095Y-44319009D02*
X29717857Y-44271390D01*
X46291667Y-44795200D02*
X46434524Y-44842819D01*
X46434524Y-44842819D02*
X46672619Y-44842819D01*
X46672619Y-44842819D02*
X46767857Y-44795200D01*
X46767857Y-44795200D02*
X46815476Y-44747580D01*
X46815476Y-44747580D02*
X46863095Y-44652342D01*
X46863095Y-44652342D02*
X46863095Y-44557104D01*
X46863095Y-44557104D02*
X46815476Y-44461866D01*
X46815476Y-44461866D02*
X46767857Y-44414247D01*
X46767857Y-44414247D02*
X46672619Y-44366628D01*
X46672619Y-44366628D02*
X46482143Y-44319009D01*
X46482143Y-44319009D02*
X46386905Y-44271390D01*
X46386905Y-44271390D02*
X46339286Y-44223771D01*
X46339286Y-44223771D02*
X46291667Y-44128533D01*
X46291667Y-44128533D02*
X46291667Y-44033295D01*
X46291667Y-44033295D02*
X46339286Y-43938057D01*
X46339286Y-43938057D02*
X46386905Y-43890438D01*
X46386905Y-43890438D02*
X46482143Y-43842819D01*
X46482143Y-43842819D02*
X46720238Y-43842819D01*
X46720238Y-43842819D02*
X46863095Y-43890438D01*
X47196429Y-43842819D02*
X47434524Y-44842819D01*
X47434524Y-44842819D02*
X47625000Y-44128533D01*
X47625000Y-44128533D02*
X47815476Y-44842819D01*
X47815476Y-44842819D02*
X48053572Y-43842819D01*
X48482143Y-44842819D02*
X48672619Y-44842819D01*
X48672619Y-44842819D02*
X48767857Y-44795200D01*
X48767857Y-44795200D02*
X48815476Y-44747580D01*
X48815476Y-44747580D02*
X48910714Y-44604723D01*
X48910714Y-44604723D02*
X48958333Y-44414247D01*
X48958333Y-44414247D02*
X48958333Y-44033295D01*
X48958333Y-44033295D02*
X48910714Y-43938057D01*
X48910714Y-43938057D02*
X48863095Y-43890438D01*
X48863095Y-43890438D02*
X48767857Y-43842819D01*
X48767857Y-43842819D02*
X48577381Y-43842819D01*
X48577381Y-43842819D02*
X48482143Y-43890438D01*
X48482143Y-43890438D02*
X48434524Y-43938057D01*
X48434524Y-43938057D02*
X48386905Y-44033295D01*
X48386905Y-44033295D02*
X48386905Y-44271390D01*
X48386905Y-44271390D02*
X48434524Y-44366628D01*
X48434524Y-44366628D02*
X48482143Y-44414247D01*
X48482143Y-44414247D02*
X48577381Y-44461866D01*
X48577381Y-44461866D02*
X48767857Y-44461866D01*
X48767857Y-44461866D02*
X48863095Y-44414247D01*
X48863095Y-44414247D02*
X48910714Y-44366628D01*
X48910714Y-44366628D02*
X48958333Y-44271390D01*
X64865476Y-44795200D02*
X65008333Y-44842819D01*
X65008333Y-44842819D02*
X65246428Y-44842819D01*
X65246428Y-44842819D02*
X65341666Y-44795200D01*
X65341666Y-44795200D02*
X65389285Y-44747580D01*
X65389285Y-44747580D02*
X65436904Y-44652342D01*
X65436904Y-44652342D02*
X65436904Y-44557104D01*
X65436904Y-44557104D02*
X65389285Y-44461866D01*
X65389285Y-44461866D02*
X65341666Y-44414247D01*
X65341666Y-44414247D02*
X65246428Y-44366628D01*
X65246428Y-44366628D02*
X65055952Y-44319009D01*
X65055952Y-44319009D02*
X64960714Y-44271390D01*
X64960714Y-44271390D02*
X64913095Y-44223771D01*
X64913095Y-44223771D02*
X64865476Y-44128533D01*
X64865476Y-44128533D02*
X64865476Y-44033295D01*
X64865476Y-44033295D02*
X64913095Y-43938057D01*
X64913095Y-43938057D02*
X64960714Y-43890438D01*
X64960714Y-43890438D02*
X65055952Y-43842819D01*
X65055952Y-43842819D02*
X65294047Y-43842819D01*
X65294047Y-43842819D02*
X65436904Y-43890438D01*
X65770238Y-43842819D02*
X66008333Y-44842819D01*
X66008333Y-44842819D02*
X66198809Y-44128533D01*
X66198809Y-44128533D02*
X66389285Y-44842819D01*
X66389285Y-44842819D02*
X66627381Y-43842819D01*
X67532142Y-44842819D02*
X66960714Y-44842819D01*
X67246428Y-44842819D02*
X67246428Y-43842819D01*
X67246428Y-43842819D02*
X67151190Y-43985676D01*
X67151190Y-43985676D02*
X67055952Y-44080914D01*
X67055952Y-44080914D02*
X66960714Y-44128533D01*
X68151190Y-43842819D02*
X68246428Y-43842819D01*
X68246428Y-43842819D02*
X68341666Y-43890438D01*
X68341666Y-43890438D02*
X68389285Y-43938057D01*
X68389285Y-43938057D02*
X68436904Y-44033295D01*
X68436904Y-44033295D02*
X68484523Y-44223771D01*
X68484523Y-44223771D02*
X68484523Y-44461866D01*
X68484523Y-44461866D02*
X68436904Y-44652342D01*
X68436904Y-44652342D02*
X68389285Y-44747580D01*
X68389285Y-44747580D02*
X68341666Y-44795200D01*
X68341666Y-44795200D02*
X68246428Y-44842819D01*
X68246428Y-44842819D02*
X68151190Y-44842819D01*
X68151190Y-44842819D02*
X68055952Y-44795200D01*
X68055952Y-44795200D02*
X68008333Y-44747580D01*
X68008333Y-44747580D02*
X67960714Y-44652342D01*
X67960714Y-44652342D02*
X67913095Y-44461866D01*
X67913095Y-44461866D02*
X67913095Y-44223771D01*
X67913095Y-44223771D02*
X67960714Y-44033295D01*
X67960714Y-44033295D02*
X68008333Y-43938057D01*
X68008333Y-43938057D02*
X68055952Y-43890438D01*
X68055952Y-43890438D02*
X68151190Y-43842819D01*
X83915476Y-44795200D02*
X84058333Y-44842819D01*
X84058333Y-44842819D02*
X84296428Y-44842819D01*
X84296428Y-44842819D02*
X84391666Y-44795200D01*
X84391666Y-44795200D02*
X84439285Y-44747580D01*
X84439285Y-44747580D02*
X84486904Y-44652342D01*
X84486904Y-44652342D02*
X84486904Y-44557104D01*
X84486904Y-44557104D02*
X84439285Y-44461866D01*
X84439285Y-44461866D02*
X84391666Y-44414247D01*
X84391666Y-44414247D02*
X84296428Y-44366628D01*
X84296428Y-44366628D02*
X84105952Y-44319009D01*
X84105952Y-44319009D02*
X84010714Y-44271390D01*
X84010714Y-44271390D02*
X83963095Y-44223771D01*
X83963095Y-44223771D02*
X83915476Y-44128533D01*
X83915476Y-44128533D02*
X83915476Y-44033295D01*
X83915476Y-44033295D02*
X83963095Y-43938057D01*
X83963095Y-43938057D02*
X84010714Y-43890438D01*
X84010714Y-43890438D02*
X84105952Y-43842819D01*
X84105952Y-43842819D02*
X84344047Y-43842819D01*
X84344047Y-43842819D02*
X84486904Y-43890438D01*
X84820238Y-43842819D02*
X85058333Y-44842819D01*
X85058333Y-44842819D02*
X85248809Y-44128533D01*
X85248809Y-44128533D02*
X85439285Y-44842819D01*
X85439285Y-44842819D02*
X85677381Y-43842819D01*
X86582142Y-44842819D02*
X86010714Y-44842819D01*
X86296428Y-44842819D02*
X86296428Y-43842819D01*
X86296428Y-43842819D02*
X86201190Y-43985676D01*
X86201190Y-43985676D02*
X86105952Y-44080914D01*
X86105952Y-44080914D02*
X86010714Y-44128533D01*
X87534523Y-44842819D02*
X86963095Y-44842819D01*
X87248809Y-44842819D02*
X87248809Y-43842819D01*
X87248809Y-43842819D02*
X87153571Y-43985676D01*
X87153571Y-43985676D02*
X87058333Y-44080914D01*
X87058333Y-44080914D02*
X86963095Y-44128533D01*
X7715476Y-63845200D02*
X7858333Y-63892819D01*
X7858333Y-63892819D02*
X8096428Y-63892819D01*
X8096428Y-63892819D02*
X8191666Y-63845200D01*
X8191666Y-63845200D02*
X8239285Y-63797580D01*
X8239285Y-63797580D02*
X8286904Y-63702342D01*
X8286904Y-63702342D02*
X8286904Y-63607104D01*
X8286904Y-63607104D02*
X8239285Y-63511866D01*
X8239285Y-63511866D02*
X8191666Y-63464247D01*
X8191666Y-63464247D02*
X8096428Y-63416628D01*
X8096428Y-63416628D02*
X7905952Y-63369009D01*
X7905952Y-63369009D02*
X7810714Y-63321390D01*
X7810714Y-63321390D02*
X7763095Y-63273771D01*
X7763095Y-63273771D02*
X7715476Y-63178533D01*
X7715476Y-63178533D02*
X7715476Y-63083295D01*
X7715476Y-63083295D02*
X7763095Y-62988057D01*
X7763095Y-62988057D02*
X7810714Y-62940438D01*
X7810714Y-62940438D02*
X7905952Y-62892819D01*
X7905952Y-62892819D02*
X8144047Y-62892819D01*
X8144047Y-62892819D02*
X8286904Y-62940438D01*
X8620238Y-62892819D02*
X8858333Y-63892819D01*
X8858333Y-63892819D02*
X9048809Y-63178533D01*
X9048809Y-63178533D02*
X9239285Y-63892819D01*
X9239285Y-63892819D02*
X9477381Y-62892819D01*
X10382142Y-63892819D02*
X9810714Y-63892819D01*
X10096428Y-63892819D02*
X10096428Y-62892819D01*
X10096428Y-62892819D02*
X10001190Y-63035676D01*
X10001190Y-63035676D02*
X9905952Y-63130914D01*
X9905952Y-63130914D02*
X9810714Y-63178533D01*
X10763095Y-62988057D02*
X10810714Y-62940438D01*
X10810714Y-62940438D02*
X10905952Y-62892819D01*
X10905952Y-62892819D02*
X11144047Y-62892819D01*
X11144047Y-62892819D02*
X11239285Y-62940438D01*
X11239285Y-62940438D02*
X11286904Y-62988057D01*
X11286904Y-62988057D02*
X11334523Y-63083295D01*
X11334523Y-63083295D02*
X11334523Y-63178533D01*
X11334523Y-63178533D02*
X11286904Y-63321390D01*
X11286904Y-63321390D02*
X10715476Y-63892819D01*
X10715476Y-63892819D02*
X11334523Y-63892819D01*
X26765476Y-63845200D02*
X26908333Y-63892819D01*
X26908333Y-63892819D02*
X27146428Y-63892819D01*
X27146428Y-63892819D02*
X27241666Y-63845200D01*
X27241666Y-63845200D02*
X27289285Y-63797580D01*
X27289285Y-63797580D02*
X27336904Y-63702342D01*
X27336904Y-63702342D02*
X27336904Y-63607104D01*
X27336904Y-63607104D02*
X27289285Y-63511866D01*
X27289285Y-63511866D02*
X27241666Y-63464247D01*
X27241666Y-63464247D02*
X27146428Y-63416628D01*
X27146428Y-63416628D02*
X26955952Y-63369009D01*
X26955952Y-63369009D02*
X26860714Y-63321390D01*
X26860714Y-63321390D02*
X26813095Y-63273771D01*
X26813095Y-63273771D02*
X26765476Y-63178533D01*
X26765476Y-63178533D02*
X26765476Y-63083295D01*
X26765476Y-63083295D02*
X26813095Y-62988057D01*
X26813095Y-62988057D02*
X26860714Y-62940438D01*
X26860714Y-62940438D02*
X26955952Y-62892819D01*
X26955952Y-62892819D02*
X27194047Y-62892819D01*
X27194047Y-62892819D02*
X27336904Y-62940438D01*
X27670238Y-62892819D02*
X27908333Y-63892819D01*
X27908333Y-63892819D02*
X28098809Y-63178533D01*
X28098809Y-63178533D02*
X28289285Y-63892819D01*
X28289285Y-63892819D02*
X28527381Y-62892819D01*
X29432142Y-63892819D02*
X28860714Y-63892819D01*
X29146428Y-63892819D02*
X29146428Y-62892819D01*
X29146428Y-62892819D02*
X29051190Y-63035676D01*
X29051190Y-63035676D02*
X28955952Y-63130914D01*
X28955952Y-63130914D02*
X28860714Y-63178533D01*
X29765476Y-62892819D02*
X30384523Y-62892819D01*
X30384523Y-62892819D02*
X30051190Y-63273771D01*
X30051190Y-63273771D02*
X30194047Y-63273771D01*
X30194047Y-63273771D02*
X30289285Y-63321390D01*
X30289285Y-63321390D02*
X30336904Y-63369009D01*
X30336904Y-63369009D02*
X30384523Y-63464247D01*
X30384523Y-63464247D02*
X30384523Y-63702342D01*
X30384523Y-63702342D02*
X30336904Y-63797580D01*
X30336904Y-63797580D02*
X30289285Y-63845200D01*
X30289285Y-63845200D02*
X30194047Y-63892819D01*
X30194047Y-63892819D02*
X29908333Y-63892819D01*
X29908333Y-63892819D02*
X29813095Y-63845200D01*
X29813095Y-63845200D02*
X29765476Y-63797580D01*
X45815476Y-63845200D02*
X45958333Y-63892819D01*
X45958333Y-63892819D02*
X46196428Y-63892819D01*
X46196428Y-63892819D02*
X46291666Y-63845200D01*
X46291666Y-63845200D02*
X46339285Y-63797580D01*
X46339285Y-63797580D02*
X46386904Y-63702342D01*
X46386904Y-63702342D02*
X46386904Y-63607104D01*
X46386904Y-63607104D02*
X46339285Y-63511866D01*
X46339285Y-63511866D02*
X46291666Y-63464247D01*
X46291666Y-63464247D02*
X46196428Y-63416628D01*
X46196428Y-63416628D02*
X46005952Y-63369009D01*
X46005952Y-63369009D02*
X45910714Y-63321390D01*
X45910714Y-63321390D02*
X45863095Y-63273771D01*
X45863095Y-63273771D02*
X45815476Y-63178533D01*
X45815476Y-63178533D02*
X45815476Y-63083295D01*
X45815476Y-63083295D02*
X45863095Y-62988057D01*
X45863095Y-62988057D02*
X45910714Y-62940438D01*
X45910714Y-62940438D02*
X46005952Y-62892819D01*
X46005952Y-62892819D02*
X46244047Y-62892819D01*
X46244047Y-62892819D02*
X46386904Y-62940438D01*
X46720238Y-62892819D02*
X46958333Y-63892819D01*
X46958333Y-63892819D02*
X47148809Y-63178533D01*
X47148809Y-63178533D02*
X47339285Y-63892819D01*
X47339285Y-63892819D02*
X47577381Y-62892819D01*
X48482142Y-63892819D02*
X47910714Y-63892819D01*
X48196428Y-63892819D02*
X48196428Y-62892819D01*
X48196428Y-62892819D02*
X48101190Y-63035676D01*
X48101190Y-63035676D02*
X48005952Y-63130914D01*
X48005952Y-63130914D02*
X47910714Y-63178533D01*
X49339285Y-63226152D02*
X49339285Y-63892819D01*
X49101190Y-62845200D02*
X48863095Y-63559485D01*
X48863095Y-63559485D02*
X49482142Y-63559485D01*
X64865476Y-63845200D02*
X65008333Y-63892819D01*
X65008333Y-63892819D02*
X65246428Y-63892819D01*
X65246428Y-63892819D02*
X65341666Y-63845200D01*
X65341666Y-63845200D02*
X65389285Y-63797580D01*
X65389285Y-63797580D02*
X65436904Y-63702342D01*
X65436904Y-63702342D02*
X65436904Y-63607104D01*
X65436904Y-63607104D02*
X65389285Y-63511866D01*
X65389285Y-63511866D02*
X65341666Y-63464247D01*
X65341666Y-63464247D02*
X65246428Y-63416628D01*
X65246428Y-63416628D02*
X65055952Y-63369009D01*
X65055952Y-63369009D02*
X64960714Y-63321390D01*
X64960714Y-63321390D02*
X64913095Y-63273771D01*
X64913095Y-63273771D02*
X64865476Y-63178533D01*
X64865476Y-63178533D02*
X64865476Y-63083295D01*
X64865476Y-63083295D02*
X64913095Y-62988057D01*
X64913095Y-62988057D02*
X64960714Y-62940438D01*
X64960714Y-62940438D02*
X65055952Y-62892819D01*
X65055952Y-62892819D02*
X65294047Y-62892819D01*
X65294047Y-62892819D02*
X65436904Y-62940438D01*
X65770238Y-62892819D02*
X66008333Y-63892819D01*
X66008333Y-63892819D02*
X66198809Y-63178533D01*
X66198809Y-63178533D02*
X66389285Y-63892819D01*
X66389285Y-63892819D02*
X66627381Y-62892819D01*
X67532142Y-63892819D02*
X66960714Y-63892819D01*
X67246428Y-63892819D02*
X67246428Y-62892819D01*
X67246428Y-62892819D02*
X67151190Y-63035676D01*
X67151190Y-63035676D02*
X67055952Y-63130914D01*
X67055952Y-63130914D02*
X66960714Y-63178533D01*
X68436904Y-62892819D02*
X67960714Y-62892819D01*
X67960714Y-62892819D02*
X67913095Y-63369009D01*
X67913095Y-63369009D02*
X67960714Y-63321390D01*
X67960714Y-63321390D02*
X68055952Y-63273771D01*
X68055952Y-63273771D02*
X68294047Y-63273771D01*
X68294047Y-63273771D02*
X68389285Y-63321390D01*
X68389285Y-63321390D02*
X68436904Y-63369009D01*
X68436904Y-63369009D02*
X68484523Y-63464247D01*
X68484523Y-63464247D02*
X68484523Y-63702342D01*
X68484523Y-63702342D02*
X68436904Y-63797580D01*
X68436904Y-63797580D02*
X68389285Y-63845200D01*
X68389285Y-63845200D02*
X68294047Y-63892819D01*
X68294047Y-63892819D02*
X68055952Y-63892819D01*
X68055952Y-63892819D02*
X67960714Y-63845200D01*
X67960714Y-63845200D02*
X67913095Y-63797580D01*
X83915476Y-63845200D02*
X84058333Y-63892819D01*
X84058333Y-63892819D02*
X84296428Y-63892819D01*
X84296428Y-63892819D02*
X84391666Y-63845200D01*
X84391666Y-63845200D02*
X84439285Y-63797580D01*
X84439285Y-63797580D02*
X84486904Y-63702342D01*
X84486904Y-63702342D02*
X84486904Y-63607104D01*
X84486904Y-63607104D02*
X84439285Y-63511866D01*
X84439285Y-63511866D02*
X84391666Y-63464247D01*
X84391666Y-63464247D02*
X84296428Y-63416628D01*
X84296428Y-63416628D02*
X84105952Y-63369009D01*
X84105952Y-63369009D02*
X84010714Y-63321390D01*
X84010714Y-63321390D02*
X83963095Y-63273771D01*
X83963095Y-63273771D02*
X83915476Y-63178533D01*
X83915476Y-63178533D02*
X83915476Y-63083295D01*
X83915476Y-63083295D02*
X83963095Y-62988057D01*
X83963095Y-62988057D02*
X84010714Y-62940438D01*
X84010714Y-62940438D02*
X84105952Y-62892819D01*
X84105952Y-62892819D02*
X84344047Y-62892819D01*
X84344047Y-62892819D02*
X84486904Y-62940438D01*
X84820238Y-62892819D02*
X85058333Y-63892819D01*
X85058333Y-63892819D02*
X85248809Y-63178533D01*
X85248809Y-63178533D02*
X85439285Y-63892819D01*
X85439285Y-63892819D02*
X85677381Y-62892819D01*
X86582142Y-63892819D02*
X86010714Y-63892819D01*
X86296428Y-63892819D02*
X86296428Y-62892819D01*
X86296428Y-62892819D02*
X86201190Y-63035676D01*
X86201190Y-63035676D02*
X86105952Y-63130914D01*
X86105952Y-63130914D02*
X86010714Y-63178533D01*
X87439285Y-62892819D02*
X87248809Y-62892819D01*
X87248809Y-62892819D02*
X87153571Y-62940438D01*
X87153571Y-62940438D02*
X87105952Y-62988057D01*
X87105952Y-62988057D02*
X87010714Y-63130914D01*
X87010714Y-63130914D02*
X86963095Y-63321390D01*
X86963095Y-63321390D02*
X86963095Y-63702342D01*
X86963095Y-63702342D02*
X87010714Y-63797580D01*
X87010714Y-63797580D02*
X87058333Y-63845200D01*
X87058333Y-63845200D02*
X87153571Y-63892819D01*
X87153571Y-63892819D02*
X87344047Y-63892819D01*
X87344047Y-63892819D02*
X87439285Y-63845200D01*
X87439285Y-63845200D02*
X87486904Y-63797580D01*
X87486904Y-63797580D02*
X87534523Y-63702342D01*
X87534523Y-63702342D02*
X87534523Y-63464247D01*
X87534523Y-63464247D02*
X87486904Y-63369009D01*
X87486904Y-63369009D02*
X87439285Y-63321390D01*
X87439285Y-63321390D02*
X87344047Y-63273771D01*
X87344047Y-63273771D02*
X87153571Y-63273771D01*
X87153571Y-63273771D02*
X87058333Y-63321390D01*
X87058333Y-63321390D02*
X87010714Y-63369009D01*
X87010714Y-63369009D02*
X86963095Y-63464247D01*
X7715476Y-82894200D02*
X7858333Y-82941819D01*
X7858333Y-82941819D02*
X8096428Y-82941819D01*
X8096428Y-82941819D02*
X8191666Y-82894200D01*
X8191666Y-82894200D02*
X8239285Y-82846580D01*
X8239285Y-82846580D02*
X8286904Y-82751342D01*
X8286904Y-82751342D02*
X8286904Y-82656104D01*
X8286904Y-82656104D02*
X8239285Y-82560866D01*
X8239285Y-82560866D02*
X8191666Y-82513247D01*
X8191666Y-82513247D02*
X8096428Y-82465628D01*
X8096428Y-82465628D02*
X7905952Y-82418009D01*
X7905952Y-82418009D02*
X7810714Y-82370390D01*
X7810714Y-82370390D02*
X7763095Y-82322771D01*
X7763095Y-82322771D02*
X7715476Y-82227533D01*
X7715476Y-82227533D02*
X7715476Y-82132295D01*
X7715476Y-82132295D02*
X7763095Y-82037057D01*
X7763095Y-82037057D02*
X7810714Y-81989438D01*
X7810714Y-81989438D02*
X7905952Y-81941819D01*
X7905952Y-81941819D02*
X8144047Y-81941819D01*
X8144047Y-81941819D02*
X8286904Y-81989438D01*
X8620238Y-81941819D02*
X8858333Y-82941819D01*
X8858333Y-82941819D02*
X9048809Y-82227533D01*
X9048809Y-82227533D02*
X9239285Y-82941819D01*
X9239285Y-82941819D02*
X9477381Y-81941819D01*
X10382142Y-82941819D02*
X9810714Y-82941819D01*
X10096428Y-82941819D02*
X10096428Y-81941819D01*
X10096428Y-81941819D02*
X10001190Y-82084676D01*
X10001190Y-82084676D02*
X9905952Y-82179914D01*
X9905952Y-82179914D02*
X9810714Y-82227533D01*
X10715476Y-81941819D02*
X11382142Y-81941819D01*
X11382142Y-81941819D02*
X10953571Y-82941819D01*
X26765476Y-82894200D02*
X26908333Y-82941819D01*
X26908333Y-82941819D02*
X27146428Y-82941819D01*
X27146428Y-82941819D02*
X27241666Y-82894200D01*
X27241666Y-82894200D02*
X27289285Y-82846580D01*
X27289285Y-82846580D02*
X27336904Y-82751342D01*
X27336904Y-82751342D02*
X27336904Y-82656104D01*
X27336904Y-82656104D02*
X27289285Y-82560866D01*
X27289285Y-82560866D02*
X27241666Y-82513247D01*
X27241666Y-82513247D02*
X27146428Y-82465628D01*
X27146428Y-82465628D02*
X26955952Y-82418009D01*
X26955952Y-82418009D02*
X26860714Y-82370390D01*
X26860714Y-82370390D02*
X26813095Y-82322771D01*
X26813095Y-82322771D02*
X26765476Y-82227533D01*
X26765476Y-82227533D02*
X26765476Y-82132295D01*
X26765476Y-82132295D02*
X26813095Y-82037057D01*
X26813095Y-82037057D02*
X26860714Y-81989438D01*
X26860714Y-81989438D02*
X26955952Y-81941819D01*
X26955952Y-81941819D02*
X27194047Y-81941819D01*
X27194047Y-81941819D02*
X27336904Y-81989438D01*
X27670238Y-81941819D02*
X27908333Y-82941819D01*
X27908333Y-82941819D02*
X28098809Y-82227533D01*
X28098809Y-82227533D02*
X28289285Y-82941819D01*
X28289285Y-82941819D02*
X28527381Y-81941819D01*
X29432142Y-82941819D02*
X28860714Y-82941819D01*
X29146428Y-82941819D02*
X29146428Y-81941819D01*
X29146428Y-81941819D02*
X29051190Y-82084676D01*
X29051190Y-82084676D02*
X28955952Y-82179914D01*
X28955952Y-82179914D02*
X28860714Y-82227533D01*
X30003571Y-82370390D02*
X29908333Y-82322771D01*
X29908333Y-82322771D02*
X29860714Y-82275152D01*
X29860714Y-82275152D02*
X29813095Y-82179914D01*
X29813095Y-82179914D02*
X29813095Y-82132295D01*
X29813095Y-82132295D02*
X29860714Y-82037057D01*
X29860714Y-82037057D02*
X29908333Y-81989438D01*
X29908333Y-81989438D02*
X30003571Y-81941819D01*
X30003571Y-81941819D02*
X30194047Y-81941819D01*
X30194047Y-81941819D02*
X30289285Y-81989438D01*
X30289285Y-81989438D02*
X30336904Y-82037057D01*
X30336904Y-82037057D02*
X30384523Y-82132295D01*
X30384523Y-82132295D02*
X30384523Y-82179914D01*
X30384523Y-82179914D02*
X30336904Y-82275152D01*
X30336904Y-82275152D02*
X30289285Y-82322771D01*
X30289285Y-82322771D02*
X30194047Y-82370390D01*
X30194047Y-82370390D02*
X30003571Y-82370390D01*
X30003571Y-82370390D02*
X29908333Y-82418009D01*
X29908333Y-82418009D02*
X29860714Y-82465628D01*
X29860714Y-82465628D02*
X29813095Y-82560866D01*
X29813095Y-82560866D02*
X29813095Y-82751342D01*
X29813095Y-82751342D02*
X29860714Y-82846580D01*
X29860714Y-82846580D02*
X29908333Y-82894200D01*
X29908333Y-82894200D02*
X30003571Y-82941819D01*
X30003571Y-82941819D02*
X30194047Y-82941819D01*
X30194047Y-82941819D02*
X30289285Y-82894200D01*
X30289285Y-82894200D02*
X30336904Y-82846580D01*
X30336904Y-82846580D02*
X30384523Y-82751342D01*
X30384523Y-82751342D02*
X30384523Y-82560866D01*
X30384523Y-82560866D02*
X30336904Y-82465628D01*
X30336904Y-82465628D02*
X30289285Y-82418009D01*
X30289285Y-82418009D02*
X30194047Y-82370390D01*
X45815476Y-82894200D02*
X45958333Y-82941819D01*
X45958333Y-82941819D02*
X46196428Y-82941819D01*
X46196428Y-82941819D02*
X46291666Y-82894200D01*
X46291666Y-82894200D02*
X46339285Y-82846580D01*
X46339285Y-82846580D02*
X46386904Y-82751342D01*
X46386904Y-82751342D02*
X46386904Y-82656104D01*
X46386904Y-82656104D02*
X46339285Y-82560866D01*
X46339285Y-82560866D02*
X46291666Y-82513247D01*
X46291666Y-82513247D02*
X46196428Y-82465628D01*
X46196428Y-82465628D02*
X46005952Y-82418009D01*
X46005952Y-82418009D02*
X45910714Y-82370390D01*
X45910714Y-82370390D02*
X45863095Y-82322771D01*
X45863095Y-82322771D02*
X45815476Y-82227533D01*
X45815476Y-82227533D02*
X45815476Y-82132295D01*
X45815476Y-82132295D02*
X45863095Y-82037057D01*
X45863095Y-82037057D02*
X45910714Y-81989438D01*
X45910714Y-81989438D02*
X46005952Y-81941819D01*
X46005952Y-81941819D02*
X46244047Y-81941819D01*
X46244047Y-81941819D02*
X46386904Y-81989438D01*
X46720238Y-81941819D02*
X46958333Y-82941819D01*
X46958333Y-82941819D02*
X47148809Y-82227533D01*
X47148809Y-82227533D02*
X47339285Y-82941819D01*
X47339285Y-82941819D02*
X47577381Y-81941819D01*
X48482142Y-82941819D02*
X47910714Y-82941819D01*
X48196428Y-82941819D02*
X48196428Y-81941819D01*
X48196428Y-81941819D02*
X48101190Y-82084676D01*
X48101190Y-82084676D02*
X48005952Y-82179914D01*
X48005952Y-82179914D02*
X47910714Y-82227533D01*
X48958333Y-82941819D02*
X49148809Y-82941819D01*
X49148809Y-82941819D02*
X49244047Y-82894200D01*
X49244047Y-82894200D02*
X49291666Y-82846580D01*
X49291666Y-82846580D02*
X49386904Y-82703723D01*
X49386904Y-82703723D02*
X49434523Y-82513247D01*
X49434523Y-82513247D02*
X49434523Y-82132295D01*
X49434523Y-82132295D02*
X49386904Y-82037057D01*
X49386904Y-82037057D02*
X49339285Y-81989438D01*
X49339285Y-81989438D02*
X49244047Y-81941819D01*
X49244047Y-81941819D02*
X49053571Y-81941819D01*
X49053571Y-81941819D02*
X48958333Y-81989438D01*
X48958333Y-81989438D02*
X48910714Y-82037057D01*
X48910714Y-82037057D02*
X48863095Y-82132295D01*
X48863095Y-82132295D02*
X48863095Y-82370390D01*
X48863095Y-82370390D02*
X48910714Y-82465628D01*
X48910714Y-82465628D02*
X48958333Y-82513247D01*
X48958333Y-82513247D02*
X49053571Y-82560866D01*
X49053571Y-82560866D02*
X49244047Y-82560866D01*
X49244047Y-82560866D02*
X49339285Y-82513247D01*
X49339285Y-82513247D02*
X49386904Y-82465628D01*
X49386904Y-82465628D02*
X49434523Y-82370390D01*
X64865476Y-82894200D02*
X65008333Y-82941819D01*
X65008333Y-82941819D02*
X65246428Y-82941819D01*
X65246428Y-82941819D02*
X65341666Y-82894200D01*
X65341666Y-82894200D02*
X65389285Y-82846580D01*
X65389285Y-82846580D02*
X65436904Y-82751342D01*
X65436904Y-82751342D02*
X65436904Y-82656104D01*
X65436904Y-82656104D02*
X65389285Y-82560866D01*
X65389285Y-82560866D02*
X65341666Y-82513247D01*
X65341666Y-82513247D02*
X65246428Y-82465628D01*
X65246428Y-82465628D02*
X65055952Y-82418009D01*
X65055952Y-82418009D02*
X64960714Y-82370390D01*
X64960714Y-82370390D02*
X64913095Y-82322771D01*
X64913095Y-82322771D02*
X64865476Y-82227533D01*
X64865476Y-82227533D02*
X64865476Y-82132295D01*
X64865476Y-82132295D02*
X64913095Y-82037057D01*
X64913095Y-82037057D02*
X64960714Y-81989438D01*
X64960714Y-81989438D02*
X65055952Y-81941819D01*
X65055952Y-81941819D02*
X65294047Y-81941819D01*
X65294047Y-81941819D02*
X65436904Y-81989438D01*
X65770238Y-81941819D02*
X66008333Y-82941819D01*
X66008333Y-82941819D02*
X66198809Y-82227533D01*
X66198809Y-82227533D02*
X66389285Y-82941819D01*
X66389285Y-82941819D02*
X66627381Y-81941819D01*
X66960714Y-82037057D02*
X67008333Y-81989438D01*
X67008333Y-81989438D02*
X67103571Y-81941819D01*
X67103571Y-81941819D02*
X67341666Y-81941819D01*
X67341666Y-81941819D02*
X67436904Y-81989438D01*
X67436904Y-81989438D02*
X67484523Y-82037057D01*
X67484523Y-82037057D02*
X67532142Y-82132295D01*
X67532142Y-82132295D02*
X67532142Y-82227533D01*
X67532142Y-82227533D02*
X67484523Y-82370390D01*
X67484523Y-82370390D02*
X66913095Y-82941819D01*
X66913095Y-82941819D02*
X67532142Y-82941819D01*
X68151190Y-81941819D02*
X68246428Y-81941819D01*
X68246428Y-81941819D02*
X68341666Y-81989438D01*
X68341666Y-81989438D02*
X68389285Y-82037057D01*
X68389285Y-82037057D02*
X68436904Y-82132295D01*
X68436904Y-82132295D02*
X68484523Y-82322771D01*
X68484523Y-82322771D02*
X68484523Y-82560866D01*
X68484523Y-82560866D02*
X68436904Y-82751342D01*
X68436904Y-82751342D02*
X68389285Y-82846580D01*
X68389285Y-82846580D02*
X68341666Y-82894200D01*
X68341666Y-82894200D02*
X68246428Y-82941819D01*
X68246428Y-82941819D02*
X68151190Y-82941819D01*
X68151190Y-82941819D02*
X68055952Y-82894200D01*
X68055952Y-82894200D02*
X68008333Y-82846580D01*
X68008333Y-82846580D02*
X67960714Y-82751342D01*
X67960714Y-82751342D02*
X67913095Y-82560866D01*
X67913095Y-82560866D02*
X67913095Y-82322771D01*
X67913095Y-82322771D02*
X67960714Y-82132295D01*
X67960714Y-82132295D02*
X68008333Y-82037057D01*
X68008333Y-82037057D02*
X68055952Y-81989438D01*
X68055952Y-81989438D02*
X68151190Y-81941819D01*
X83915476Y-82894200D02*
X84058333Y-82941819D01*
X84058333Y-82941819D02*
X84296428Y-82941819D01*
X84296428Y-82941819D02*
X84391666Y-82894200D01*
X84391666Y-82894200D02*
X84439285Y-82846580D01*
X84439285Y-82846580D02*
X84486904Y-82751342D01*
X84486904Y-82751342D02*
X84486904Y-82656104D01*
X84486904Y-82656104D02*
X84439285Y-82560866D01*
X84439285Y-82560866D02*
X84391666Y-82513247D01*
X84391666Y-82513247D02*
X84296428Y-82465628D01*
X84296428Y-82465628D02*
X84105952Y-82418009D01*
X84105952Y-82418009D02*
X84010714Y-82370390D01*
X84010714Y-82370390D02*
X83963095Y-82322771D01*
X83963095Y-82322771D02*
X83915476Y-82227533D01*
X83915476Y-82227533D02*
X83915476Y-82132295D01*
X83915476Y-82132295D02*
X83963095Y-82037057D01*
X83963095Y-82037057D02*
X84010714Y-81989438D01*
X84010714Y-81989438D02*
X84105952Y-81941819D01*
X84105952Y-81941819D02*
X84344047Y-81941819D01*
X84344047Y-81941819D02*
X84486904Y-81989438D01*
X84820238Y-81941819D02*
X85058333Y-82941819D01*
X85058333Y-82941819D02*
X85248809Y-82227533D01*
X85248809Y-82227533D02*
X85439285Y-82941819D01*
X85439285Y-82941819D02*
X85677381Y-81941819D01*
X86010714Y-82037057D02*
X86058333Y-81989438D01*
X86058333Y-81989438D02*
X86153571Y-81941819D01*
X86153571Y-81941819D02*
X86391666Y-81941819D01*
X86391666Y-81941819D02*
X86486904Y-81989438D01*
X86486904Y-81989438D02*
X86534523Y-82037057D01*
X86534523Y-82037057D02*
X86582142Y-82132295D01*
X86582142Y-82132295D02*
X86582142Y-82227533D01*
X86582142Y-82227533D02*
X86534523Y-82370390D01*
X86534523Y-82370390D02*
X85963095Y-82941819D01*
X85963095Y-82941819D02*
X86582142Y-82941819D01*
X87534523Y-82941819D02*
X86963095Y-82941819D01*
X87248809Y-82941819D02*
X87248809Y-81941819D01*
X87248809Y-81941819D02*
X87153571Y-82084676D01*
X87153571Y-82084676D02*
X87058333Y-82179914D01*
X87058333Y-82179914D02*
X86963095Y-82227533D01*
X7715476Y-101945200D02*
X7858333Y-101992819D01*
X7858333Y-101992819D02*
X8096428Y-101992819D01*
X8096428Y-101992819D02*
X8191666Y-101945200D01*
X8191666Y-101945200D02*
X8239285Y-101897580D01*
X8239285Y-101897580D02*
X8286904Y-101802342D01*
X8286904Y-101802342D02*
X8286904Y-101707104D01*
X8286904Y-101707104D02*
X8239285Y-101611866D01*
X8239285Y-101611866D02*
X8191666Y-101564247D01*
X8191666Y-101564247D02*
X8096428Y-101516628D01*
X8096428Y-101516628D02*
X7905952Y-101469009D01*
X7905952Y-101469009D02*
X7810714Y-101421390D01*
X7810714Y-101421390D02*
X7763095Y-101373771D01*
X7763095Y-101373771D02*
X7715476Y-101278533D01*
X7715476Y-101278533D02*
X7715476Y-101183295D01*
X7715476Y-101183295D02*
X7763095Y-101088057D01*
X7763095Y-101088057D02*
X7810714Y-101040438D01*
X7810714Y-101040438D02*
X7905952Y-100992819D01*
X7905952Y-100992819D02*
X8144047Y-100992819D01*
X8144047Y-100992819D02*
X8286904Y-101040438D01*
X8620238Y-100992819D02*
X8858333Y-101992819D01*
X8858333Y-101992819D02*
X9048809Y-101278533D01*
X9048809Y-101278533D02*
X9239285Y-101992819D01*
X9239285Y-101992819D02*
X9477381Y-100992819D01*
X9810714Y-101088057D02*
X9858333Y-101040438D01*
X9858333Y-101040438D02*
X9953571Y-100992819D01*
X9953571Y-100992819D02*
X10191666Y-100992819D01*
X10191666Y-100992819D02*
X10286904Y-101040438D01*
X10286904Y-101040438D02*
X10334523Y-101088057D01*
X10334523Y-101088057D02*
X10382142Y-101183295D01*
X10382142Y-101183295D02*
X10382142Y-101278533D01*
X10382142Y-101278533D02*
X10334523Y-101421390D01*
X10334523Y-101421390D02*
X9763095Y-101992819D01*
X9763095Y-101992819D02*
X10382142Y-101992819D01*
X10763095Y-101088057D02*
X10810714Y-101040438D01*
X10810714Y-101040438D02*
X10905952Y-100992819D01*
X10905952Y-100992819D02*
X11144047Y-100992819D01*
X11144047Y-100992819D02*
X11239285Y-101040438D01*
X11239285Y-101040438D02*
X11286904Y-101088057D01*
X11286904Y-101088057D02*
X11334523Y-101183295D01*
X11334523Y-101183295D02*
X11334523Y-101278533D01*
X11334523Y-101278533D02*
X11286904Y-101421390D01*
X11286904Y-101421390D02*
X10715476Y-101992819D01*
X10715476Y-101992819D02*
X11334523Y-101992819D01*
X26765476Y-101945200D02*
X26908333Y-101992819D01*
X26908333Y-101992819D02*
X27146428Y-101992819D01*
X27146428Y-101992819D02*
X27241666Y-101945200D01*
X27241666Y-101945200D02*
X27289285Y-101897580D01*
X27289285Y-101897580D02*
X27336904Y-101802342D01*
X27336904Y-101802342D02*
X27336904Y-101707104D01*
X27336904Y-101707104D02*
X27289285Y-101611866D01*
X27289285Y-101611866D02*
X27241666Y-101564247D01*
X27241666Y-101564247D02*
X27146428Y-101516628D01*
X27146428Y-101516628D02*
X26955952Y-101469009D01*
X26955952Y-101469009D02*
X26860714Y-101421390D01*
X26860714Y-101421390D02*
X26813095Y-101373771D01*
X26813095Y-101373771D02*
X26765476Y-101278533D01*
X26765476Y-101278533D02*
X26765476Y-101183295D01*
X26765476Y-101183295D02*
X26813095Y-101088057D01*
X26813095Y-101088057D02*
X26860714Y-101040438D01*
X26860714Y-101040438D02*
X26955952Y-100992819D01*
X26955952Y-100992819D02*
X27194047Y-100992819D01*
X27194047Y-100992819D02*
X27336904Y-101040438D01*
X27670238Y-100992819D02*
X27908333Y-101992819D01*
X27908333Y-101992819D02*
X28098809Y-101278533D01*
X28098809Y-101278533D02*
X28289285Y-101992819D01*
X28289285Y-101992819D02*
X28527381Y-100992819D01*
X28860714Y-101088057D02*
X28908333Y-101040438D01*
X28908333Y-101040438D02*
X29003571Y-100992819D01*
X29003571Y-100992819D02*
X29241666Y-100992819D01*
X29241666Y-100992819D02*
X29336904Y-101040438D01*
X29336904Y-101040438D02*
X29384523Y-101088057D01*
X29384523Y-101088057D02*
X29432142Y-101183295D01*
X29432142Y-101183295D02*
X29432142Y-101278533D01*
X29432142Y-101278533D02*
X29384523Y-101421390D01*
X29384523Y-101421390D02*
X28813095Y-101992819D01*
X28813095Y-101992819D02*
X29432142Y-101992819D01*
X29765476Y-100992819D02*
X30384523Y-100992819D01*
X30384523Y-100992819D02*
X30051190Y-101373771D01*
X30051190Y-101373771D02*
X30194047Y-101373771D01*
X30194047Y-101373771D02*
X30289285Y-101421390D01*
X30289285Y-101421390D02*
X30336904Y-101469009D01*
X30336904Y-101469009D02*
X30384523Y-101564247D01*
X30384523Y-101564247D02*
X30384523Y-101802342D01*
X30384523Y-101802342D02*
X30336904Y-101897580D01*
X30336904Y-101897580D02*
X30289285Y-101945200D01*
X30289285Y-101945200D02*
X30194047Y-101992819D01*
X30194047Y-101992819D02*
X29908333Y-101992819D01*
X29908333Y-101992819D02*
X29813095Y-101945200D01*
X29813095Y-101945200D02*
X29765476Y-101897580D01*
X45815476Y-101945200D02*
X45958333Y-101992819D01*
X45958333Y-101992819D02*
X46196428Y-101992819D01*
X46196428Y-101992819D02*
X46291666Y-101945200D01*
X46291666Y-101945200D02*
X46339285Y-101897580D01*
X46339285Y-101897580D02*
X46386904Y-101802342D01*
X46386904Y-101802342D02*
X46386904Y-101707104D01*
X46386904Y-101707104D02*
X46339285Y-101611866D01*
X46339285Y-101611866D02*
X46291666Y-101564247D01*
X46291666Y-101564247D02*
X46196428Y-101516628D01*
X46196428Y-101516628D02*
X46005952Y-101469009D01*
X46005952Y-101469009D02*
X45910714Y-101421390D01*
X45910714Y-101421390D02*
X45863095Y-101373771D01*
X45863095Y-101373771D02*
X45815476Y-101278533D01*
X45815476Y-101278533D02*
X45815476Y-101183295D01*
X45815476Y-101183295D02*
X45863095Y-101088057D01*
X45863095Y-101088057D02*
X45910714Y-101040438D01*
X45910714Y-101040438D02*
X46005952Y-100992819D01*
X46005952Y-100992819D02*
X46244047Y-100992819D01*
X46244047Y-100992819D02*
X46386904Y-101040438D01*
X46720238Y-100992819D02*
X46958333Y-101992819D01*
X46958333Y-101992819D02*
X47148809Y-101278533D01*
X47148809Y-101278533D02*
X47339285Y-101992819D01*
X47339285Y-101992819D02*
X47577381Y-100992819D01*
X47910714Y-101088057D02*
X47958333Y-101040438D01*
X47958333Y-101040438D02*
X48053571Y-100992819D01*
X48053571Y-100992819D02*
X48291666Y-100992819D01*
X48291666Y-100992819D02*
X48386904Y-101040438D01*
X48386904Y-101040438D02*
X48434523Y-101088057D01*
X48434523Y-101088057D02*
X48482142Y-101183295D01*
X48482142Y-101183295D02*
X48482142Y-101278533D01*
X48482142Y-101278533D02*
X48434523Y-101421390D01*
X48434523Y-101421390D02*
X47863095Y-101992819D01*
X47863095Y-101992819D02*
X48482142Y-101992819D01*
X49339285Y-101326152D02*
X49339285Y-101992819D01*
X49101190Y-100945200D02*
X48863095Y-101659485D01*
X48863095Y-101659485D02*
X49482142Y-101659485D01*
X64865476Y-101945200D02*
X65008333Y-101992819D01*
X65008333Y-101992819D02*
X65246428Y-101992819D01*
X65246428Y-101992819D02*
X65341666Y-101945200D01*
X65341666Y-101945200D02*
X65389285Y-101897580D01*
X65389285Y-101897580D02*
X65436904Y-101802342D01*
X65436904Y-101802342D02*
X65436904Y-101707104D01*
X65436904Y-101707104D02*
X65389285Y-101611866D01*
X65389285Y-101611866D02*
X65341666Y-101564247D01*
X65341666Y-101564247D02*
X65246428Y-101516628D01*
X65246428Y-101516628D02*
X65055952Y-101469009D01*
X65055952Y-101469009D02*
X64960714Y-101421390D01*
X64960714Y-101421390D02*
X64913095Y-101373771D01*
X64913095Y-101373771D02*
X64865476Y-101278533D01*
X64865476Y-101278533D02*
X64865476Y-101183295D01*
X64865476Y-101183295D02*
X64913095Y-101088057D01*
X64913095Y-101088057D02*
X64960714Y-101040438D01*
X64960714Y-101040438D02*
X65055952Y-100992819D01*
X65055952Y-100992819D02*
X65294047Y-100992819D01*
X65294047Y-100992819D02*
X65436904Y-101040438D01*
X65770238Y-100992819D02*
X66008333Y-101992819D01*
X66008333Y-101992819D02*
X66198809Y-101278533D01*
X66198809Y-101278533D02*
X66389285Y-101992819D01*
X66389285Y-101992819D02*
X66627381Y-100992819D01*
X66960714Y-101088057D02*
X67008333Y-101040438D01*
X67008333Y-101040438D02*
X67103571Y-100992819D01*
X67103571Y-100992819D02*
X67341666Y-100992819D01*
X67341666Y-100992819D02*
X67436904Y-101040438D01*
X67436904Y-101040438D02*
X67484523Y-101088057D01*
X67484523Y-101088057D02*
X67532142Y-101183295D01*
X67532142Y-101183295D02*
X67532142Y-101278533D01*
X67532142Y-101278533D02*
X67484523Y-101421390D01*
X67484523Y-101421390D02*
X66913095Y-101992819D01*
X66913095Y-101992819D02*
X67532142Y-101992819D01*
X68436904Y-100992819D02*
X67960714Y-100992819D01*
X67960714Y-100992819D02*
X67913095Y-101469009D01*
X67913095Y-101469009D02*
X67960714Y-101421390D01*
X67960714Y-101421390D02*
X68055952Y-101373771D01*
X68055952Y-101373771D02*
X68294047Y-101373771D01*
X68294047Y-101373771D02*
X68389285Y-101421390D01*
X68389285Y-101421390D02*
X68436904Y-101469009D01*
X68436904Y-101469009D02*
X68484523Y-101564247D01*
X68484523Y-101564247D02*
X68484523Y-101802342D01*
X68484523Y-101802342D02*
X68436904Y-101897580D01*
X68436904Y-101897580D02*
X68389285Y-101945200D01*
X68389285Y-101945200D02*
X68294047Y-101992819D01*
X68294047Y-101992819D02*
X68055952Y-101992819D01*
X68055952Y-101992819D02*
X67960714Y-101945200D01*
X67960714Y-101945200D02*
X67913095Y-101897580D01*
X83915476Y-101945200D02*
X84058333Y-101992819D01*
X84058333Y-101992819D02*
X84296428Y-101992819D01*
X84296428Y-101992819D02*
X84391666Y-101945200D01*
X84391666Y-101945200D02*
X84439285Y-101897580D01*
X84439285Y-101897580D02*
X84486904Y-101802342D01*
X84486904Y-101802342D02*
X84486904Y-101707104D01*
X84486904Y-101707104D02*
X84439285Y-101611866D01*
X84439285Y-101611866D02*
X84391666Y-101564247D01*
X84391666Y-101564247D02*
X84296428Y-101516628D01*
X84296428Y-101516628D02*
X84105952Y-101469009D01*
X84105952Y-101469009D02*
X84010714Y-101421390D01*
X84010714Y-101421390D02*
X83963095Y-101373771D01*
X83963095Y-101373771D02*
X83915476Y-101278533D01*
X83915476Y-101278533D02*
X83915476Y-101183295D01*
X83915476Y-101183295D02*
X83963095Y-101088057D01*
X83963095Y-101088057D02*
X84010714Y-101040438D01*
X84010714Y-101040438D02*
X84105952Y-100992819D01*
X84105952Y-100992819D02*
X84344047Y-100992819D01*
X84344047Y-100992819D02*
X84486904Y-101040438D01*
X84820238Y-100992819D02*
X85058333Y-101992819D01*
X85058333Y-101992819D02*
X85248809Y-101278533D01*
X85248809Y-101278533D02*
X85439285Y-101992819D01*
X85439285Y-101992819D02*
X85677381Y-100992819D01*
X86010714Y-101088057D02*
X86058333Y-101040438D01*
X86058333Y-101040438D02*
X86153571Y-100992819D01*
X86153571Y-100992819D02*
X86391666Y-100992819D01*
X86391666Y-100992819D02*
X86486904Y-101040438D01*
X86486904Y-101040438D02*
X86534523Y-101088057D01*
X86534523Y-101088057D02*
X86582142Y-101183295D01*
X86582142Y-101183295D02*
X86582142Y-101278533D01*
X86582142Y-101278533D02*
X86534523Y-101421390D01*
X86534523Y-101421390D02*
X85963095Y-101992819D01*
X85963095Y-101992819D02*
X86582142Y-101992819D01*
X87439285Y-100992819D02*
X87248809Y-100992819D01*
X87248809Y-100992819D02*
X87153571Y-101040438D01*
X87153571Y-101040438D02*
X87105952Y-101088057D01*
X87105952Y-101088057D02*
X87010714Y-101230914D01*
X87010714Y-101230914D02*
X86963095Y-101421390D01*
X86963095Y-101421390D02*
X86963095Y-101802342D01*
X86963095Y-101802342D02*
X87010714Y-101897580D01*
X87010714Y-101897580D02*
X87058333Y-101945200D01*
X87058333Y-101945200D02*
X87153571Y-101992819D01*
X87153571Y-101992819D02*
X87344047Y-101992819D01*
X87344047Y-101992819D02*
X87439285Y-101945200D01*
X87439285Y-101945200D02*
X87486904Y-101897580D01*
X87486904Y-101897580D02*
X87534523Y-101802342D01*
X87534523Y-101802342D02*
X87534523Y-101564247D01*
X87534523Y-101564247D02*
X87486904Y-101469009D01*
X87486904Y-101469009D02*
X87439285Y-101421390D01*
X87439285Y-101421390D02*
X87344047Y-101373771D01*
X87344047Y-101373771D02*
X87153571Y-101373771D01*
X87153571Y-101373771D02*
X87058333Y-101421390D01*
X87058333Y-101421390D02*
X87010714Y-101469009D01*
X87010714Y-101469009D02*
X86963095Y-101564247D01*
X68964285Y26545180D02*
X68964285Y25830895D01*
X68964285Y25830895D02*
X68916666Y25688038D01*
X68916666Y25688038D02*
X68821428Y25592800D01*
X68821428Y25592800D02*
X68678571Y25545180D01*
X68678571Y25545180D02*
X68583333Y25545180D01*
X69964285Y25545180D02*
X69392857Y25545180D01*
X69678571Y25545180D02*
X69678571Y26545180D01*
X69678571Y26545180D02*
X69583333Y26402323D01*
X69583333Y26402323D02*
X69488095Y26307085D01*
X69488095Y26307085D02*
X69392857Y26259466D01*
X70583333Y26545180D02*
X70678571Y26545180D01*
X70678571Y26545180D02*
X70773809Y26497561D01*
X70773809Y26497561D02*
X70821428Y26449942D01*
X70821428Y26449942D02*
X70869047Y26354704D01*
X70869047Y26354704D02*
X70916666Y26164228D01*
X70916666Y26164228D02*
X70916666Y25926133D01*
X70916666Y25926133D02*
X70869047Y25735657D01*
X70869047Y25735657D02*
X70821428Y25640419D01*
X70821428Y25640419D02*
X70773809Y25592800D01*
X70773809Y25592800D02*
X70678571Y25545180D01*
X70678571Y25545180D02*
X70583333Y25545180D01*
X70583333Y25545180D02*
X70488095Y25592800D01*
X70488095Y25592800D02*
X70440476Y25640419D01*
X70440476Y25640419D02*
X70392857Y25735657D01*
X70392857Y25735657D02*
X70345238Y25926133D01*
X70345238Y25926133D02*
X70345238Y26164228D01*
X70345238Y26164228D02*
X70392857Y26354704D01*
X70392857Y26354704D02*
X70440476Y26449942D01*
X70440476Y26449942D02*
X70488095Y26497561D01*
X70488095Y26497561D02*
X70583333Y26545180D01*
X71869047Y25545180D02*
X71297619Y25545180D01*
X71583333Y25545180D02*
X71583333Y26545180D01*
X71583333Y26545180D02*
X71488095Y26402323D01*
X71488095Y26402323D02*
X71392857Y26307085D01*
X71392857Y26307085D02*
X71297619Y26259466D01*
X78964285Y26545180D02*
X78964285Y25830895D01*
X78964285Y25830895D02*
X78916666Y25688038D01*
X78916666Y25688038D02*
X78821428Y25592800D01*
X78821428Y25592800D02*
X78678571Y25545180D01*
X78678571Y25545180D02*
X78583333Y25545180D01*
X79964285Y25545180D02*
X79392857Y25545180D01*
X79678571Y25545180D02*
X79678571Y26545180D01*
X79678571Y26545180D02*
X79583333Y26402323D01*
X79583333Y26402323D02*
X79488095Y26307085D01*
X79488095Y26307085D02*
X79392857Y26259466D01*
X80583333Y26545180D02*
X80678571Y26545180D01*
X80678571Y26545180D02*
X80773809Y26497561D01*
X80773809Y26497561D02*
X80821428Y26449942D01*
X80821428Y26449942D02*
X80869047Y26354704D01*
X80869047Y26354704D02*
X80916666Y26164228D01*
X80916666Y26164228D02*
X80916666Y25926133D01*
X80916666Y25926133D02*
X80869047Y25735657D01*
X80869047Y25735657D02*
X80821428Y25640419D01*
X80821428Y25640419D02*
X80773809Y25592800D01*
X80773809Y25592800D02*
X80678571Y25545180D01*
X80678571Y25545180D02*
X80583333Y25545180D01*
X80583333Y25545180D02*
X80488095Y25592800D01*
X80488095Y25592800D02*
X80440476Y25640419D01*
X80440476Y25640419D02*
X80392857Y25735657D01*
X80392857Y25735657D02*
X80345238Y25926133D01*
X80345238Y25926133D02*
X80345238Y26164228D01*
X80345238Y26164228D02*
X80392857Y26354704D01*
X80392857Y26354704D02*
X80440476Y26449942D01*
X80440476Y26449942D02*
X80488095Y26497561D01*
X80488095Y26497561D02*
X80583333Y26545180D01*
X81297619Y26449942D02*
X81345238Y26497561D01*
X81345238Y26497561D02*
X81440476Y26545180D01*
X81440476Y26545180D02*
X81678571Y26545180D01*
X81678571Y26545180D02*
X81773809Y26497561D01*
X81773809Y26497561D02*
X81821428Y26449942D01*
X81821428Y26449942D02*
X81869047Y26354704D01*
X81869047Y26354704D02*
X81869047Y26259466D01*
X81869047Y26259466D02*
X81821428Y26116609D01*
X81821428Y26116609D02*
X81250000Y25545180D01*
X81250000Y25545180D02*
X81869047Y25545180D01*
X90964285Y26545180D02*
X90964285Y25830895D01*
X90964285Y25830895D02*
X90916666Y25688038D01*
X90916666Y25688038D02*
X90821428Y25592800D01*
X90821428Y25592800D02*
X90678571Y25545180D01*
X90678571Y25545180D02*
X90583333Y25545180D01*
X91392857Y26449942D02*
X91440476Y26497561D01*
X91440476Y26497561D02*
X91535714Y26545180D01*
X91535714Y26545180D02*
X91773809Y26545180D01*
X91773809Y26545180D02*
X91869047Y26497561D01*
X91869047Y26497561D02*
X91916666Y26449942D01*
X91916666Y26449942D02*
X91964285Y26354704D01*
X91964285Y26354704D02*
X91964285Y26259466D01*
X91964285Y26259466D02*
X91916666Y26116609D01*
X91916666Y26116609D02*
X91345238Y25545180D01*
X91345238Y25545180D02*
X91964285Y25545180D01*
X92583333Y26545180D02*
X92678571Y26545180D01*
X92678571Y26545180D02*
X92773809Y26497561D01*
X92773809Y26497561D02*
X92821428Y26449942D01*
X92821428Y26449942D02*
X92869047Y26354704D01*
X92869047Y26354704D02*
X92916666Y26164228D01*
X92916666Y26164228D02*
X92916666Y25926133D01*
X92916666Y25926133D02*
X92869047Y25735657D01*
X92869047Y25735657D02*
X92821428Y25640419D01*
X92821428Y25640419D02*
X92773809Y25592800D01*
X92773809Y25592800D02*
X92678571Y25545180D01*
X92678571Y25545180D02*
X92583333Y25545180D01*
X92583333Y25545180D02*
X92488095Y25592800D01*
X92488095Y25592800D02*
X92440476Y25640419D01*
X92440476Y25640419D02*
X92392857Y25735657D01*
X92392857Y25735657D02*
X92345238Y25926133D01*
X92345238Y25926133D02*
X92345238Y26164228D01*
X92345238Y26164228D02*
X92392857Y26354704D01*
X92392857Y26354704D02*
X92440476Y26449942D01*
X92440476Y26449942D02*
X92488095Y26497561D01*
X92488095Y26497561D02*
X92583333Y26545180D01*
X93869047Y25545180D02*
X93297619Y25545180D01*
X93583333Y25545180D02*
X93583333Y26545180D01*
X93583333Y26545180D02*
X93488095Y26402323D01*
X93488095Y26402323D02*
X93392857Y26307085D01*
X93392857Y26307085D02*
X93297619Y26259466D01*
X90964285Y16545180D02*
X90964285Y15830895D01*
X90964285Y15830895D02*
X90916666Y15688038D01*
X90916666Y15688038D02*
X90821428Y15592800D01*
X90821428Y15592800D02*
X90678571Y15545180D01*
X90678571Y15545180D02*
X90583333Y15545180D01*
X91392857Y16449942D02*
X91440476Y16497561D01*
X91440476Y16497561D02*
X91535714Y16545180D01*
X91535714Y16545180D02*
X91773809Y16545180D01*
X91773809Y16545180D02*
X91869047Y16497561D01*
X91869047Y16497561D02*
X91916666Y16449942D01*
X91916666Y16449942D02*
X91964285Y16354704D01*
X91964285Y16354704D02*
X91964285Y16259466D01*
X91964285Y16259466D02*
X91916666Y16116609D01*
X91916666Y16116609D02*
X91345238Y15545180D01*
X91345238Y15545180D02*
X91964285Y15545180D01*
X92583333Y16545180D02*
X92678571Y16545180D01*
X92678571Y16545180D02*
X92773809Y16497561D01*
X92773809Y16497561D02*
X92821428Y16449942D01*
X92821428Y16449942D02*
X92869047Y16354704D01*
X92869047Y16354704D02*
X92916666Y16164228D01*
X92916666Y16164228D02*
X92916666Y15926133D01*
X92916666Y15926133D02*
X92869047Y15735657D01*
X92869047Y15735657D02*
X92821428Y15640419D01*
X92821428Y15640419D02*
X92773809Y15592800D01*
X92773809Y15592800D02*
X92678571Y15545180D01*
X92678571Y15545180D02*
X92583333Y15545180D01*
X92583333Y15545180D02*
X92488095Y15592800D01*
X92488095Y15592800D02*
X92440476Y15640419D01*
X92440476Y15640419D02*
X92392857Y15735657D01*
X92392857Y15735657D02*
X92345238Y15926133D01*
X92345238Y15926133D02*
X92345238Y16164228D01*
X92345238Y16164228D02*
X92392857Y16354704D01*
X92392857Y16354704D02*
X92440476Y16449942D01*
X92440476Y16449942D02*
X92488095Y16497561D01*
X92488095Y16497561D02*
X92583333Y16545180D01*
X93297619Y16449942D02*
X93345238Y16497561D01*
X93345238Y16497561D02*
X93440476Y16545180D01*
X93440476Y16545180D02*
X93678571Y16545180D01*
X93678571Y16545180D02*
X93773809Y16497561D01*
X93773809Y16497561D02*
X93821428Y16449942D01*
X93821428Y16449942D02*
X93869047Y16354704D01*
X93869047Y16354704D02*
X93869047Y16259466D01*
X93869047Y16259466D02*
X93821428Y16116609D01*
X93821428Y16116609D02*
X93250000Y15545180D01*
X93250000Y15545180D02*
X93869047Y15545180D01*
X90964285Y6545180D02*
X90964285Y5830895D01*
X90964285Y5830895D02*
X90916666Y5688038D01*
X90916666Y5688038D02*
X90821428Y5592800D01*
X90821428Y5592800D02*
X90678571Y5545180D01*
X90678571Y5545180D02*
X90583333Y5545180D01*
X91345238Y6545180D02*
X91964285Y6545180D01*
X91964285Y6545180D02*
X91630952Y6164228D01*
X91630952Y6164228D02*
X91773809Y6164228D01*
X91773809Y6164228D02*
X91869047Y6116609D01*
X91869047Y6116609D02*
X91916666Y6068990D01*
X91916666Y6068990D02*
X91964285Y5973752D01*
X91964285Y5973752D02*
X91964285Y5735657D01*
X91964285Y5735657D02*
X91916666Y5640419D01*
X91916666Y5640419D02*
X91869047Y5592800D01*
X91869047Y5592800D02*
X91773809Y5545180D01*
X91773809Y5545180D02*
X91488095Y5545180D01*
X91488095Y5545180D02*
X91392857Y5592800D01*
X91392857Y5592800D02*
X91345238Y5640419D01*
X92583333Y6545180D02*
X92678571Y6545180D01*
X92678571Y6545180D02*
X92773809Y6497561D01*
X92773809Y6497561D02*
X92821428Y6449942D01*
X92821428Y6449942D02*
X92869047Y6354704D01*
X92869047Y6354704D02*
X92916666Y6164228D01*
X92916666Y6164228D02*
X92916666Y5926133D01*
X92916666Y5926133D02*
X92869047Y5735657D01*
X92869047Y5735657D02*
X92821428Y5640419D01*
X92821428Y5640419D02*
X92773809Y5592800D01*
X92773809Y5592800D02*
X92678571Y5545180D01*
X92678571Y5545180D02*
X92583333Y5545180D01*
X92583333Y5545180D02*
X92488095Y5592800D01*
X92488095Y5592800D02*
X92440476Y5640419D01*
X92440476Y5640419D02*
X92392857Y5735657D01*
X92392857Y5735657D02*
X92345238Y5926133D01*
X92345238Y5926133D02*
X92345238Y6164228D01*
X92345238Y6164228D02*
X92392857Y6354704D01*
X92392857Y6354704D02*
X92440476Y6449942D01*
X92440476Y6449942D02*
X92488095Y6497561D01*
X92488095Y6497561D02*
X92583333Y6545180D01*
X93869047Y5545180D02*
X93297619Y5545180D01*
X93583333Y5545180D02*
X93583333Y6545180D01*
X93583333Y6545180D02*
X93488095Y6402323D01*
X93488095Y6402323D02*
X93392857Y6307085D01*
X93392857Y6307085D02*
X93297619Y6259466D01*
X90964285Y-3454819D02*
X90964285Y-4169104D01*
X90964285Y-4169104D02*
X90916666Y-4311961D01*
X90916666Y-4311961D02*
X90821428Y-4407200D01*
X90821428Y-4407200D02*
X90678571Y-4454819D01*
X90678571Y-4454819D02*
X90583333Y-4454819D01*
X91345238Y-3454819D02*
X91964285Y-3454819D01*
X91964285Y-3454819D02*
X91630952Y-3835771D01*
X91630952Y-3835771D02*
X91773809Y-3835771D01*
X91773809Y-3835771D02*
X91869047Y-3883390D01*
X91869047Y-3883390D02*
X91916666Y-3931009D01*
X91916666Y-3931009D02*
X91964285Y-4026247D01*
X91964285Y-4026247D02*
X91964285Y-4264342D01*
X91964285Y-4264342D02*
X91916666Y-4359580D01*
X91916666Y-4359580D02*
X91869047Y-4407200D01*
X91869047Y-4407200D02*
X91773809Y-4454819D01*
X91773809Y-4454819D02*
X91488095Y-4454819D01*
X91488095Y-4454819D02*
X91392857Y-4407200D01*
X91392857Y-4407200D02*
X91345238Y-4359580D01*
X92583333Y-3454819D02*
X92678571Y-3454819D01*
X92678571Y-3454819D02*
X92773809Y-3502438D01*
X92773809Y-3502438D02*
X92821428Y-3550057D01*
X92821428Y-3550057D02*
X92869047Y-3645295D01*
X92869047Y-3645295D02*
X92916666Y-3835771D01*
X92916666Y-3835771D02*
X92916666Y-4073866D01*
X92916666Y-4073866D02*
X92869047Y-4264342D01*
X92869047Y-4264342D02*
X92821428Y-4359580D01*
X92821428Y-4359580D02*
X92773809Y-4407200D01*
X92773809Y-4407200D02*
X92678571Y-4454819D01*
X92678571Y-4454819D02*
X92583333Y-4454819D01*
X92583333Y-4454819D02*
X92488095Y-4407200D01*
X92488095Y-4407200D02*
X92440476Y-4359580D01*
X92440476Y-4359580D02*
X92392857Y-4264342D01*
X92392857Y-4264342D02*
X92345238Y-4073866D01*
X92345238Y-4073866D02*
X92345238Y-3835771D01*
X92345238Y-3835771D02*
X92392857Y-3645295D01*
X92392857Y-3645295D02*
X92440476Y-3550057D01*
X92440476Y-3550057D02*
X92488095Y-3502438D01*
X92488095Y-3502438D02*
X92583333Y-3454819D01*
X93297619Y-3550057D02*
X93345238Y-3502438D01*
X93345238Y-3502438D02*
X93440476Y-3454819D01*
X93440476Y-3454819D02*
X93678571Y-3454819D01*
X93678571Y-3454819D02*
X93773809Y-3502438D01*
X93773809Y-3502438D02*
X93821428Y-3550057D01*
X93821428Y-3550057D02*
X93869047Y-3645295D01*
X93869047Y-3645295D02*
X93869047Y-3740533D01*
X93869047Y-3740533D02*
X93821428Y-3883390D01*
X93821428Y-3883390D02*
X93250000Y-4454819D01*
X93250000Y-4454819D02*
X93869047Y-4454819D01*
X77940952Y4945180D02*
X77607619Y5421371D01*
X77369524Y4945180D02*
X77369524Y5945180D01*
X77369524Y5945180D02*
X77750476Y5945180D01*
X77750476Y5945180D02*
X77845714Y5897561D01*
X77845714Y5897561D02*
X77893333Y5849942D01*
X77893333Y5849942D02*
X77940952Y5754704D01*
X77940952Y5754704D02*
X77940952Y5611847D01*
X77940952Y5611847D02*
X77893333Y5516609D01*
X77893333Y5516609D02*
X77845714Y5468990D01*
X77845714Y5468990D02*
X77750476Y5421371D01*
X77750476Y5421371D02*
X77369524Y5421371D01*
X78798095Y5611847D02*
X78798095Y4945180D01*
X78560000Y5992800D02*
X78321905Y5278514D01*
X78321905Y5278514D02*
X78940952Y5278514D01*
X79512381Y5945180D02*
X79607619Y5945180D01*
X79607619Y5945180D02*
X79702857Y5897561D01*
X79702857Y5897561D02*
X79750476Y5849942D01*
X79750476Y5849942D02*
X79798095Y5754704D01*
X79798095Y5754704D02*
X79845714Y5564228D01*
X79845714Y5564228D02*
X79845714Y5326133D01*
X79845714Y5326133D02*
X79798095Y5135657D01*
X79798095Y5135657D02*
X79750476Y5040419D01*
X79750476Y5040419D02*
X79702857Y4992800D01*
X79702857Y4992800D02*
X79607619Y4945180D01*
X79607619Y4945180D02*
X79512381Y4945180D01*
X79512381Y4945180D02*
X79417143Y4992800D01*
X79417143Y4992800D02*
X79369524Y5040419D01*
X79369524Y5040419D02*
X79321905Y5135657D01*
X79321905Y5135657D02*
X79274286Y5326133D01*
X79274286Y5326133D02*
X79274286Y5564228D01*
X79274286Y5564228D02*
X79321905Y5754704D01*
X79321905Y5754704D02*
X79369524Y5849942D01*
X79369524Y5849942D02*
X79417143Y5897561D01*
X79417143Y5897561D02*
X79512381Y5945180D01*
X80798095Y4945180D02*
X80226667Y4945180D01*
X80512381Y4945180D02*
X80512381Y5945180D01*
X80512381Y5945180D02*
X80417143Y5802323D01*
X80417143Y5802323D02*
X80321905Y5707085D01*
X80321905Y5707085D02*
X80226667Y5659466D01*
X99880952Y-359580D02*
X99833333Y-407200D01*
X99833333Y-407200D02*
X99690476Y-454819D01*
X99690476Y-454819D02*
X99595238Y-454819D01*
X99595238Y-454819D02*
X99452381Y-407200D01*
X99452381Y-407200D02*
X99357143Y-311961D01*
X99357143Y-311961D02*
X99309524Y-216723D01*
X99309524Y-216723D02*
X99261905Y-26247D01*
X99261905Y-26247D02*
X99261905Y116609D01*
X99261905Y116609D02*
X99309524Y307085D01*
X99309524Y307085D02*
X99357143Y402323D01*
X99357143Y402323D02*
X99452381Y497561D01*
X99452381Y497561D02*
X99595238Y545180D01*
X99595238Y545180D02*
X99690476Y545180D01*
X99690476Y545180D02*
X99833333Y497561D01*
X99833333Y497561D02*
X99880952Y449942D01*
X100738095Y211847D02*
X100738095Y-454819D01*
X100500000Y592800D02*
X100261905Y-121485D01*
X100261905Y-121485D02*
X100880952Y-121485D01*
X101452381Y545180D02*
X101547619Y545180D01*
X101547619Y545180D02*
X101642857Y497561D01*
X101642857Y497561D02*
X101690476Y449942D01*
X101690476Y449942D02*
X101738095Y354704D01*
X101738095Y354704D02*
X101785714Y164228D01*
X101785714Y164228D02*
X101785714Y-73866D01*
X101785714Y-73866D02*
X101738095Y-264342D01*
X101738095Y-264342D02*
X101690476Y-359580D01*
X101690476Y-359580D02*
X101642857Y-407200D01*
X101642857Y-407200D02*
X101547619Y-454819D01*
X101547619Y-454819D02*
X101452381Y-454819D01*
X101452381Y-454819D02*
X101357143Y-407200D01*
X101357143Y-407200D02*
X101309524Y-359580D01*
X101309524Y-359580D02*
X101261905Y-264342D01*
X101261905Y-264342D02*
X101214286Y-73866D01*
X101214286Y-73866D02*
X101214286Y164228D01*
X101214286Y164228D02*
X101261905Y354704D01*
X101261905Y354704D02*
X101309524Y449942D01*
X101309524Y449942D02*
X101357143Y497561D01*
X101357143Y497561D02*
X101452381Y545180D01*
X102738095Y-454819D02*
X102166667Y-454819D01*
X102452381Y-454819D02*
X102452381Y545180D01*
X102452381Y545180D02*
X102357143Y402323D01*
X102357143Y402323D02*
X102261905Y307085D01*
X102261905Y307085D02*
X102166667Y259466D01*
X75964286Y-7407200D02*
X76107143Y-7454819D01*
X76107143Y-7454819D02*
X76345238Y-7454819D01*
X76345238Y-7454819D02*
X76440476Y-7407200D01*
X76440476Y-7407200D02*
X76488095Y-7359580D01*
X76488095Y-7359580D02*
X76535714Y-7264342D01*
X76535714Y-7264342D02*
X76535714Y-7169104D01*
X76535714Y-7169104D02*
X76488095Y-7073866D01*
X76488095Y-7073866D02*
X76440476Y-7026247D01*
X76440476Y-7026247D02*
X76345238Y-6978628D01*
X76345238Y-6978628D02*
X76154762Y-6931009D01*
X76154762Y-6931009D02*
X76059524Y-6883390D01*
X76059524Y-6883390D02*
X76011905Y-6835771D01*
X76011905Y-6835771D02*
X75964286Y-6740533D01*
X75964286Y-6740533D02*
X75964286Y-6645295D01*
X75964286Y-6645295D02*
X76011905Y-6550057D01*
X76011905Y-6550057D02*
X76059524Y-6502438D01*
X76059524Y-6502438D02*
X76154762Y-6454819D01*
X76154762Y-6454819D02*
X76392857Y-6454819D01*
X76392857Y-6454819D02*
X76535714Y-6502438D01*
X76869048Y-6454819D02*
X77107143Y-7454819D01*
X77107143Y-7454819D02*
X77297619Y-6740533D01*
X77297619Y-6740533D02*
X77488095Y-7454819D01*
X77488095Y-7454819D02*
X77726191Y-6454819D01*
X78535714Y-6788152D02*
X78535714Y-7454819D01*
X78297619Y-6407200D02*
X78059524Y-7121485D01*
X78059524Y-7121485D02*
X78678571Y-7121485D01*
X79250000Y-6454819D02*
X79345238Y-6454819D01*
X79345238Y-6454819D02*
X79440476Y-6502438D01*
X79440476Y-6502438D02*
X79488095Y-6550057D01*
X79488095Y-6550057D02*
X79535714Y-6645295D01*
X79535714Y-6645295D02*
X79583333Y-6835771D01*
X79583333Y-6835771D02*
X79583333Y-7073866D01*
X79583333Y-7073866D02*
X79535714Y-7264342D01*
X79535714Y-7264342D02*
X79488095Y-7359580D01*
X79488095Y-7359580D02*
X79440476Y-7407200D01*
X79440476Y-7407200D02*
X79345238Y-7454819D01*
X79345238Y-7454819D02*
X79250000Y-7454819D01*
X79250000Y-7454819D02*
X79154762Y-7407200D01*
X79154762Y-7407200D02*
X79107143Y-7359580D01*
X79107143Y-7359580D02*
X79059524Y-7264342D01*
X79059524Y-7264342D02*
X79011905Y-7073866D01*
X79011905Y-7073866D02*
X79011905Y-6835771D01*
X79011905Y-6835771D02*
X79059524Y-6645295D01*
X79059524Y-6645295D02*
X79107143Y-6550057D01*
X79107143Y-6550057D02*
X79154762Y-6502438D01*
X79154762Y-6502438D02*
X79250000Y-6454819D01*
X80535714Y-7454819D02*
X79964286Y-7454819D01*
X80250000Y-7454819D02*
X80250000Y-6454819D01*
X80250000Y-6454819D02*
X80154762Y-6597676D01*
X80154762Y-6597676D02*
X80059524Y-6692914D01*
X80059524Y-6692914D02*
X79964286Y-6740533D01*
%LPC*%
D11*
%TO.C,SW1*%
X5715000Y-6985000D03*
X12065000Y-4445000D03*
D12*
X9525000Y-9525000D03*
D13*
X4445000Y-9525000D03*
X14605000Y-9525000D03*
%TD*%
D14*
%TO.C,D1*%
X17025000Y-16025000D03*
D15*
X9405000Y-16025000D03*
%TD*%
D11*
%TO.C,SW2*%
X5715000Y-30797000D03*
X12065000Y-28257000D03*
D12*
X9525000Y-33337000D03*
D13*
X4445000Y-33337000D03*
X14605000Y-33337000D03*
%TD*%
D14*
%TO.C,D2*%
X17025000Y-39837000D03*
D15*
X9405000Y-39837000D03*
%TD*%
D11*
%TO.C,SW3*%
X24765000Y-30797000D03*
X31115000Y-28257000D03*
D12*
X28575000Y-33337000D03*
D13*
X23495000Y-33337000D03*
X33655000Y-33337000D03*
%TD*%
D14*
%TO.C,D3*%
X36075000Y-39837000D03*
D15*
X28455000Y-39837000D03*
%TD*%
D11*
%TO.C,SW4*%
X43815000Y-30797000D03*
X50165000Y-28257000D03*
D12*
X47625000Y-33337000D03*
D13*
X42545000Y-33337000D03*
X52705000Y-33337000D03*
%TD*%
D14*
%TO.C,D4*%
X55125000Y-39837000D03*
D15*
X47505000Y-39837000D03*
%TD*%
D11*
%TO.C,SW5*%
X62865000Y-30797000D03*
X69215000Y-28257000D03*
D12*
X66675000Y-33337000D03*
D13*
X61595000Y-33337000D03*
X71755000Y-33337000D03*
%TD*%
D14*
%TO.C,D5*%
X74175000Y-39837000D03*
D15*
X66555000Y-39837000D03*
%TD*%
D11*
%TO.C,SW6*%
X81915000Y-30797000D03*
X88265000Y-28257000D03*
D12*
X85725000Y-33337000D03*
D13*
X80645000Y-33337000D03*
X90805000Y-33337000D03*
%TD*%
D14*
%TO.C,D6*%
X93225000Y-39837000D03*
D15*
X85605000Y-39837000D03*
%TD*%
D11*
%TO.C,SW7*%
X5715000Y-49848000D03*
X12065000Y-47308000D03*
D12*
X9525000Y-52388000D03*
D13*
X4445000Y-52388000D03*
X14605000Y-52388000D03*
%TD*%
D14*
%TO.C,D7*%
X17025000Y-58888000D03*
D15*
X9405000Y-58888000D03*
%TD*%
D11*
%TO.C,SW8*%
X24765000Y-49848000D03*
X31115000Y-47308000D03*
D12*
X28575000Y-52388000D03*
D13*
X23495000Y-52388000D03*
X33655000Y-52388000D03*
%TD*%
D14*
%TO.C,D8*%
X36075000Y-58888000D03*
D15*
X28455000Y-58888000D03*
%TD*%
D11*
%TO.C,SW9*%
X43815000Y-49848000D03*
X50165000Y-47308000D03*
D12*
X47625000Y-52388000D03*
D13*
X42545000Y-52388000D03*
X52705000Y-52388000D03*
%TD*%
D14*
%TO.C,D9*%
X55125000Y-58888000D03*
D15*
X47505000Y-58888000D03*
%TD*%
D11*
%TO.C,SW10*%
X62865000Y-49848000D03*
X69215000Y-47308000D03*
D12*
X66675000Y-52388000D03*
D13*
X61595000Y-52388000D03*
X71755000Y-52388000D03*
%TD*%
D14*
%TO.C,D10*%
X74175000Y-58888000D03*
D15*
X66555000Y-58888000D03*
%TD*%
D11*
%TO.C,SW11*%
X81915000Y-49848000D03*
X88265000Y-47308000D03*
D12*
X85725000Y-52388000D03*
D13*
X80645000Y-52388000D03*
X90805000Y-52388000D03*
%TD*%
D14*
%TO.C,D11*%
X93225000Y-58888000D03*
D15*
X85605000Y-58888000D03*
%TD*%
D11*
%TO.C,SW12*%
X5715000Y-68898000D03*
X12065000Y-66358000D03*
D12*
X9525000Y-71438000D03*
D13*
X4445000Y-71438000D03*
X14605000Y-71438000D03*
%TD*%
D14*
%TO.C,D12*%
X17025000Y-77938000D03*
D15*
X9405000Y-77938000D03*
%TD*%
D11*
%TO.C,SW13*%
X24765000Y-68898000D03*
X31115000Y-66358000D03*
D12*
X28575000Y-71438000D03*
D13*
X23495000Y-71438000D03*
X33655000Y-71438000D03*
%TD*%
D14*
%TO.C,D13*%
X36075000Y-77938000D03*
D15*
X28455000Y-77938000D03*
%TD*%
D11*
%TO.C,SW14*%
X43815000Y-68898000D03*
X50165000Y-66358000D03*
D12*
X47625000Y-71438000D03*
D13*
X42545000Y-71438000D03*
X52705000Y-71438000D03*
%TD*%
D14*
%TO.C,D14*%
X55125000Y-77938000D03*
D15*
X47505000Y-77938000D03*
%TD*%
D11*
%TO.C,SW15*%
X62865000Y-68898000D03*
X69215000Y-66358000D03*
D12*
X66675000Y-71438000D03*
D13*
X61595000Y-71438000D03*
X71755000Y-71438000D03*
%TD*%
D14*
%TO.C,D15*%
X74175000Y-77938000D03*
D15*
X66555000Y-77938000D03*
%TD*%
D11*
%TO.C,SW16*%
X81915000Y-68898000D03*
X88265000Y-66358000D03*
D12*
X85725000Y-71438000D03*
D13*
X80645000Y-71438000D03*
X90805000Y-71438000D03*
%TD*%
D14*
%TO.C,D16*%
X93225000Y-77938000D03*
D15*
X85605000Y-77938000D03*
%TD*%
D11*
%TO.C,SW17*%
X5715000Y-87947000D03*
X12065000Y-85407000D03*
D12*
X9525000Y-90487000D03*
D13*
X4445000Y-90487000D03*
X14605000Y-90487000D03*
%TD*%
D14*
%TO.C,D17*%
X17025000Y-96987000D03*
D15*
X9405000Y-96987000D03*
%TD*%
D11*
%TO.C,SW18*%
X24765000Y-87947000D03*
X31115000Y-85407000D03*
D12*
X28575000Y-90487000D03*
D13*
X23495000Y-90487000D03*
X33655000Y-90487000D03*
%TD*%
D14*
%TO.C,D18*%
X36075000Y-96987000D03*
D15*
X28455000Y-96987000D03*
%TD*%
D11*
%TO.C,SW19*%
X43815000Y-87947000D03*
X50165000Y-85407000D03*
D12*
X47625000Y-90487000D03*
D13*
X42545000Y-90487000D03*
X52705000Y-90487000D03*
%TD*%
D14*
%TO.C,D19*%
X55125000Y-96987000D03*
D15*
X47505000Y-96987000D03*
%TD*%
D11*
%TO.C,SW20*%
X62865000Y-87947000D03*
X69215000Y-85407000D03*
D12*
X66675000Y-90487000D03*
D13*
X61595000Y-90487000D03*
X71755000Y-90487000D03*
%TD*%
D14*
%TO.C,D20*%
X74175000Y-96987000D03*
D15*
X66555000Y-96987000D03*
%TD*%
D11*
%TO.C,SW21*%
X81915000Y-87947000D03*
X88265000Y-85407000D03*
D12*
X85725000Y-90487000D03*
D13*
X80645000Y-90487000D03*
X90805000Y-90487000D03*
%TD*%
D14*
%TO.C,D21*%
X93225000Y-96987000D03*
D15*
X85605000Y-96987000D03*
%TD*%
D11*
%TO.C,SW22*%
X5715000Y-106998000D03*
X12065000Y-104458000D03*
D12*
X9525000Y-109538000D03*
D13*
X4445000Y-109538000D03*
X14605000Y-109538000D03*
%TD*%
D14*
%TO.C,D22*%
X17025000Y-116038000D03*
D15*
X9405000Y-116038000D03*
%TD*%
D11*
%TO.C,SW23*%
X24765000Y-106998000D03*
X31115000Y-104458000D03*
D12*
X28575000Y-109538000D03*
D13*
X23495000Y-109538000D03*
X33655000Y-109538000D03*
%TD*%
D14*
%TO.C,D23*%
X36075000Y-116038000D03*
D15*
X28455000Y-116038000D03*
%TD*%
D11*
%TO.C,SW24*%
X43815000Y-106998000D03*
X50165000Y-104458000D03*
D12*
X47625000Y-109538000D03*
D13*
X42545000Y-109538000D03*
X52705000Y-109538000D03*
%TD*%
D14*
%TO.C,D24*%
X55125000Y-116038000D03*
D15*
X47505000Y-116038000D03*
%TD*%
D11*
%TO.C,SW25*%
X62865000Y-106998000D03*
X69215000Y-104458000D03*
D12*
X66675000Y-109538000D03*
D13*
X61595000Y-109538000D03*
X71755000Y-109538000D03*
%TD*%
D14*
%TO.C,D25*%
X74175000Y-116038000D03*
D15*
X66555000Y-116038000D03*
%TD*%
D11*
%TO.C,SW26*%
X81915000Y-106998000D03*
X88265000Y-104458000D03*
D12*
X85725000Y-109538000D03*
D13*
X80645000Y-109538000D03*
X90805000Y-109538000D03*
%TD*%
D14*
%TO.C,D26*%
X93225000Y-116038000D03*
D15*
X85605000Y-116038000D03*
%TD*%
D16*
%TO.C,J101*%
X70250000Y9030000D03*
D11*
X70250000Y11570000D03*
X70250000Y14110000D03*
X70250000Y16650000D03*
X70250000Y19190000D03*
X70250000Y21730000D03*
X70250000Y24270000D03*
X70250000Y26810000D03*
X70250000Y29350000D03*
X70250000Y31890000D03*
X70250000Y34430000D03*
X70250000Y36970000D03*
%TD*%
D16*
%TO.C,J102*%
X80250000Y9030000D03*
D11*
X80250000Y11570000D03*
X80250000Y14110000D03*
X80250000Y16650000D03*
X80250000Y19190000D03*
X80250000Y21730000D03*
X80250000Y24270000D03*
X80250000Y26810000D03*
X80250000Y29350000D03*
X80250000Y31890000D03*
X80250000Y34430000D03*
X80250000Y36970000D03*
%TD*%
D16*
%TO.C,J201*%
X92250000Y20460000D03*
D11*
X92250000Y23000000D03*
X92250000Y25540000D03*
%TD*%
D16*
%TO.C,J202*%
X92250000Y10460000D03*
D11*
X92250000Y13000000D03*
X92250000Y15540000D03*
%TD*%
D16*
%TO.C,J301*%
X92250000Y460000D03*
D11*
X92250000Y3000000D03*
X92250000Y5540000D03*
%TD*%
D16*
%TO.C,J302*%
X92250000Y-10810000D03*
D11*
X92250000Y-8270000D03*
X92250000Y-5730000D03*
X92250000Y-3190000D03*
%TD*%
D17*
%TO.C,R401*%
X75250000Y3000000D03*
D15*
X82870000Y3000000D03*
%TD*%
D14*
%TO.C,C401*%
X99250000Y-5000000D03*
D17*
X102750000Y-5000000D03*
%TD*%
D18*
%TO.C,SW401*%
X75750000Y-22500000D03*
D19*
X80750000Y-22500000D03*
X78250000Y-22500000D03*
X75750000Y-7500000D03*
X80750000Y-7500000D03*
%TD*%
%LPD*%
M02*
