%TF.GenerationSoftware,KiCad,Pcbnew,9.0.7*%
%TF.CreationDate,2026-02-27T02:53:56-05:00*%
%TF.ProjectId,Macropad,4d616372-6f70-4616-942e-6b696361645f,rev?*%
%TF.SameCoordinates,Original*%
%TF.FileFunction,Legend,Bot*%
%TF.FilePolarity,Positive*%
%FSLAX46Y46*%
G04 Gerber Fmt 4.6, Leading zero omitted, Abs format (unit mm)*
G04 Created by KiCad (PCBNEW 9.0.7) date 2026-02-27 02:53:56*
%MOMM*%
%LPD*%
G01*
G04 APERTURE LIST*
%ADD10C,0.150000*%
%ADD11C,1.700000*%
%ADD12C,4.000000*%
%ADD13C,1.750000*%
%ADD14R,1.600000X1.600000*%
%ADD15O,1.600000X1.600000*%
%ADD16R,1.700000X1.700000*%
%ADD17C,1.600000*%
%ADD18R,1.800000X1.800000*%
%ADD19C,1.800000*%
G04 APERTURE END LIST*
D10*
X13953094Y-14359819D02*
X13953094Y-13359819D01*
X13953094Y-13359819D02*
X13714999Y-13359819D01*
X13714999Y-13359819D02*
X13572142Y-13407438D01*
X13572142Y-13407438D02*
X13476904Y-13502676D01*
X13476904Y-13502676D02*
X13429285Y-13597914D01*
X13429285Y-13597914D02*
X13381666Y-13788390D01*
X13381666Y-13788390D02*
X13381666Y-13931247D01*
X13381666Y-13931247D02*
X13429285Y-14121723D01*
X13429285Y-14121723D02*
X13476904Y-14216961D01*
X13476904Y-14216961D02*
X13572142Y-14312200D01*
X13572142Y-14312200D02*
X13714999Y-14359819D01*
X13714999Y-14359819D02*
X13953094Y-14359819D01*
X12429285Y-14359819D02*
X13000713Y-14359819D01*
X12714999Y-14359819D02*
X12714999Y-13359819D01*
X12714999Y-13359819D02*
X12810237Y-13502676D01*
X12810237Y-13502676D02*
X12905475Y-13597914D01*
X12905475Y-13597914D02*
X13000713Y-13645533D01*
X13953094Y-38171819D02*
X13953094Y-37171819D01*
X13953094Y-37171819D02*
X13714999Y-37171819D01*
X13714999Y-37171819D02*
X13572142Y-37219438D01*
X13572142Y-37219438D02*
X13476904Y-37314676D01*
X13476904Y-37314676D02*
X13429285Y-37409914D01*
X13429285Y-37409914D02*
X13381666Y-37600390D01*
X13381666Y-37600390D02*
X13381666Y-37743247D01*
X13381666Y-37743247D02*
X13429285Y-37933723D01*
X13429285Y-37933723D02*
X13476904Y-38028961D01*
X13476904Y-38028961D02*
X13572142Y-38124200D01*
X13572142Y-38124200D02*
X13714999Y-38171819D01*
X13714999Y-38171819D02*
X13953094Y-38171819D01*
X13000713Y-37267057D02*
X12953094Y-37219438D01*
X12953094Y-37219438D02*
X12857856Y-37171819D01*
X12857856Y-37171819D02*
X12619761Y-37171819D01*
X12619761Y-37171819D02*
X12524523Y-37219438D01*
X12524523Y-37219438D02*
X12476904Y-37267057D01*
X12476904Y-37267057D02*
X12429285Y-37362295D01*
X12429285Y-37362295D02*
X12429285Y-37457533D01*
X12429285Y-37457533D02*
X12476904Y-37600390D01*
X12476904Y-37600390D02*
X13048332Y-38171819D01*
X13048332Y-38171819D02*
X12429285Y-38171819D01*
X33003094Y-38171819D02*
X33003094Y-37171819D01*
X33003094Y-37171819D02*
X32764999Y-37171819D01*
X32764999Y-37171819D02*
X32622142Y-37219438D01*
X32622142Y-37219438D02*
X32526904Y-37314676D01*
X32526904Y-37314676D02*
X32479285Y-37409914D01*
X32479285Y-37409914D02*
X32431666Y-37600390D01*
X32431666Y-37600390D02*
X32431666Y-37743247D01*
X32431666Y-37743247D02*
X32479285Y-37933723D01*
X32479285Y-37933723D02*
X32526904Y-38028961D01*
X32526904Y-38028961D02*
X32622142Y-38124200D01*
X32622142Y-38124200D02*
X32764999Y-38171819D01*
X32764999Y-38171819D02*
X33003094Y-38171819D01*
X32098332Y-37171819D02*
X31479285Y-37171819D01*
X31479285Y-37171819D02*
X31812618Y-37552771D01*
X31812618Y-37552771D02*
X31669761Y-37552771D01*
X31669761Y-37552771D02*
X31574523Y-37600390D01*
X31574523Y-37600390D02*
X31526904Y-37648009D01*
X31526904Y-37648009D02*
X31479285Y-37743247D01*
X31479285Y-37743247D02*
X31479285Y-37981342D01*
X31479285Y-37981342D02*
X31526904Y-38076580D01*
X31526904Y-38076580D02*
X31574523Y-38124200D01*
X31574523Y-38124200D02*
X31669761Y-38171819D01*
X31669761Y-38171819D02*
X31955475Y-38171819D01*
X31955475Y-38171819D02*
X32050713Y-38124200D01*
X32050713Y-38124200D02*
X32098332Y-38076580D01*
X52053094Y-38171819D02*
X52053094Y-37171819D01*
X52053094Y-37171819D02*
X51814999Y-37171819D01*
X51814999Y-37171819D02*
X51672142Y-37219438D01*
X51672142Y-37219438D02*
X51576904Y-37314676D01*
X51576904Y-37314676D02*
X51529285Y-37409914D01*
X51529285Y-37409914D02*
X51481666Y-37600390D01*
X51481666Y-37600390D02*
X51481666Y-37743247D01*
X51481666Y-37743247D02*
X51529285Y-37933723D01*
X51529285Y-37933723D02*
X51576904Y-38028961D01*
X51576904Y-38028961D02*
X51672142Y-38124200D01*
X51672142Y-38124200D02*
X51814999Y-38171819D01*
X51814999Y-38171819D02*
X52053094Y-38171819D01*
X50624523Y-37505152D02*
X50624523Y-38171819D01*
X50862618Y-37124200D02*
X51100713Y-37838485D01*
X51100713Y-37838485D02*
X50481666Y-37838485D01*
X71103094Y-38171819D02*
X71103094Y-37171819D01*
X71103094Y-37171819D02*
X70864999Y-37171819D01*
X70864999Y-37171819D02*
X70722142Y-37219438D01*
X70722142Y-37219438D02*
X70626904Y-37314676D01*
X70626904Y-37314676D02*
X70579285Y-37409914D01*
X70579285Y-37409914D02*
X70531666Y-37600390D01*
X70531666Y-37600390D02*
X70531666Y-37743247D01*
X70531666Y-37743247D02*
X70579285Y-37933723D01*
X70579285Y-37933723D02*
X70626904Y-38028961D01*
X70626904Y-38028961D02*
X70722142Y-38124200D01*
X70722142Y-38124200D02*
X70864999Y-38171819D01*
X70864999Y-38171819D02*
X71103094Y-38171819D01*
X69626904Y-37171819D02*
X70103094Y-37171819D01*
X70103094Y-37171819D02*
X70150713Y-37648009D01*
X70150713Y-37648009D02*
X70103094Y-37600390D01*
X70103094Y-37600390D02*
X70007856Y-37552771D01*
X70007856Y-37552771D02*
X69769761Y-37552771D01*
X69769761Y-37552771D02*
X69674523Y-37600390D01*
X69674523Y-37600390D02*
X69626904Y-37648009D01*
X69626904Y-37648009D02*
X69579285Y-37743247D01*
X69579285Y-37743247D02*
X69579285Y-37981342D01*
X69579285Y-37981342D02*
X69626904Y-38076580D01*
X69626904Y-38076580D02*
X69674523Y-38124200D01*
X69674523Y-38124200D02*
X69769761Y-38171819D01*
X69769761Y-38171819D02*
X70007856Y-38171819D01*
X70007856Y-38171819D02*
X70103094Y-38124200D01*
X70103094Y-38124200D02*
X70150713Y-38076580D01*
X90153094Y-38171819D02*
X90153094Y-37171819D01*
X90153094Y-37171819D02*
X89914999Y-37171819D01*
X89914999Y-37171819D02*
X89772142Y-37219438D01*
X89772142Y-37219438D02*
X89676904Y-37314676D01*
X89676904Y-37314676D02*
X89629285Y-37409914D01*
X89629285Y-37409914D02*
X89581666Y-37600390D01*
X89581666Y-37600390D02*
X89581666Y-37743247D01*
X89581666Y-37743247D02*
X89629285Y-37933723D01*
X89629285Y-37933723D02*
X89676904Y-38028961D01*
X89676904Y-38028961D02*
X89772142Y-38124200D01*
X89772142Y-38124200D02*
X89914999Y-38171819D01*
X89914999Y-38171819D02*
X90153094Y-38171819D01*
X88724523Y-37171819D02*
X88914999Y-37171819D01*
X88914999Y-37171819D02*
X89010237Y-37219438D01*
X89010237Y-37219438D02*
X89057856Y-37267057D01*
X89057856Y-37267057D02*
X89153094Y-37409914D01*
X89153094Y-37409914D02*
X89200713Y-37600390D01*
X89200713Y-37600390D02*
X89200713Y-37981342D01*
X89200713Y-37981342D02*
X89153094Y-38076580D01*
X89153094Y-38076580D02*
X89105475Y-38124200D01*
X89105475Y-38124200D02*
X89010237Y-38171819D01*
X89010237Y-38171819D02*
X88819761Y-38171819D01*
X88819761Y-38171819D02*
X88724523Y-38124200D01*
X88724523Y-38124200D02*
X88676904Y-38076580D01*
X88676904Y-38076580D02*
X88629285Y-37981342D01*
X88629285Y-37981342D02*
X88629285Y-37743247D01*
X88629285Y-37743247D02*
X88676904Y-37648009D01*
X88676904Y-37648009D02*
X88724523Y-37600390D01*
X88724523Y-37600390D02*
X88819761Y-37552771D01*
X88819761Y-37552771D02*
X89010237Y-37552771D01*
X89010237Y-37552771D02*
X89105475Y-37600390D01*
X89105475Y-37600390D02*
X89153094Y-37648009D01*
X89153094Y-37648009D02*
X89200713Y-37743247D01*
X13953094Y-57222819D02*
X13953094Y-56222819D01*
X13953094Y-56222819D02*
X13714999Y-56222819D01*
X13714999Y-56222819D02*
X13572142Y-56270438D01*
X13572142Y-56270438D02*
X13476904Y-56365676D01*
X13476904Y-56365676D02*
X13429285Y-56460914D01*
X13429285Y-56460914D02*
X13381666Y-56651390D01*
X13381666Y-56651390D02*
X13381666Y-56794247D01*
X13381666Y-56794247D02*
X13429285Y-56984723D01*
X13429285Y-56984723D02*
X13476904Y-57079961D01*
X13476904Y-57079961D02*
X13572142Y-57175200D01*
X13572142Y-57175200D02*
X13714999Y-57222819D01*
X13714999Y-57222819D02*
X13953094Y-57222819D01*
X13048332Y-56222819D02*
X12381666Y-56222819D01*
X12381666Y-56222819D02*
X12810237Y-57222819D01*
X33003094Y-57222819D02*
X33003094Y-56222819D01*
X33003094Y-56222819D02*
X32764999Y-56222819D01*
X32764999Y-56222819D02*
X32622142Y-56270438D01*
X32622142Y-56270438D02*
X32526904Y-56365676D01*
X32526904Y-56365676D02*
X32479285Y-56460914D01*
X32479285Y-56460914D02*
X32431666Y-56651390D01*
X32431666Y-56651390D02*
X32431666Y-56794247D01*
X32431666Y-56794247D02*
X32479285Y-56984723D01*
X32479285Y-56984723D02*
X32526904Y-57079961D01*
X32526904Y-57079961D02*
X32622142Y-57175200D01*
X32622142Y-57175200D02*
X32764999Y-57222819D01*
X32764999Y-57222819D02*
X33003094Y-57222819D01*
X31860237Y-56651390D02*
X31955475Y-56603771D01*
X31955475Y-56603771D02*
X32003094Y-56556152D01*
X32003094Y-56556152D02*
X32050713Y-56460914D01*
X32050713Y-56460914D02*
X32050713Y-56413295D01*
X32050713Y-56413295D02*
X32003094Y-56318057D01*
X32003094Y-56318057D02*
X31955475Y-56270438D01*
X31955475Y-56270438D02*
X31860237Y-56222819D01*
X31860237Y-56222819D02*
X31669761Y-56222819D01*
X31669761Y-56222819D02*
X31574523Y-56270438D01*
X31574523Y-56270438D02*
X31526904Y-56318057D01*
X31526904Y-56318057D02*
X31479285Y-56413295D01*
X31479285Y-56413295D02*
X31479285Y-56460914D01*
X31479285Y-56460914D02*
X31526904Y-56556152D01*
X31526904Y-56556152D02*
X31574523Y-56603771D01*
X31574523Y-56603771D02*
X31669761Y-56651390D01*
X31669761Y-56651390D02*
X31860237Y-56651390D01*
X31860237Y-56651390D02*
X31955475Y-56699009D01*
X31955475Y-56699009D02*
X32003094Y-56746628D01*
X32003094Y-56746628D02*
X32050713Y-56841866D01*
X32050713Y-56841866D02*
X32050713Y-57032342D01*
X32050713Y-57032342D02*
X32003094Y-57127580D01*
X32003094Y-57127580D02*
X31955475Y-57175200D01*
X31955475Y-57175200D02*
X31860237Y-57222819D01*
X31860237Y-57222819D02*
X31669761Y-57222819D01*
X31669761Y-57222819D02*
X31574523Y-57175200D01*
X31574523Y-57175200D02*
X31526904Y-57127580D01*
X31526904Y-57127580D02*
X31479285Y-57032342D01*
X31479285Y-57032342D02*
X31479285Y-56841866D01*
X31479285Y-56841866D02*
X31526904Y-56746628D01*
X31526904Y-56746628D02*
X31574523Y-56699009D01*
X31574523Y-56699009D02*
X31669761Y-56651390D01*
X52053094Y-57222819D02*
X52053094Y-56222819D01*
X52053094Y-56222819D02*
X51814999Y-56222819D01*
X51814999Y-56222819D02*
X51672142Y-56270438D01*
X51672142Y-56270438D02*
X51576904Y-56365676D01*
X51576904Y-56365676D02*
X51529285Y-56460914D01*
X51529285Y-56460914D02*
X51481666Y-56651390D01*
X51481666Y-56651390D02*
X51481666Y-56794247D01*
X51481666Y-56794247D02*
X51529285Y-56984723D01*
X51529285Y-56984723D02*
X51576904Y-57079961D01*
X51576904Y-57079961D02*
X51672142Y-57175200D01*
X51672142Y-57175200D02*
X51814999Y-57222819D01*
X51814999Y-57222819D02*
X52053094Y-57222819D01*
X51005475Y-57222819D02*
X50814999Y-57222819D01*
X50814999Y-57222819D02*
X50719761Y-57175200D01*
X50719761Y-57175200D02*
X50672142Y-57127580D01*
X50672142Y-57127580D02*
X50576904Y-56984723D01*
X50576904Y-56984723D02*
X50529285Y-56794247D01*
X50529285Y-56794247D02*
X50529285Y-56413295D01*
X50529285Y-56413295D02*
X50576904Y-56318057D01*
X50576904Y-56318057D02*
X50624523Y-56270438D01*
X50624523Y-56270438D02*
X50719761Y-56222819D01*
X50719761Y-56222819D02*
X50910237Y-56222819D01*
X50910237Y-56222819D02*
X51005475Y-56270438D01*
X51005475Y-56270438D02*
X51053094Y-56318057D01*
X51053094Y-56318057D02*
X51100713Y-56413295D01*
X51100713Y-56413295D02*
X51100713Y-56651390D01*
X51100713Y-56651390D02*
X51053094Y-56746628D01*
X51053094Y-56746628D02*
X51005475Y-56794247D01*
X51005475Y-56794247D02*
X50910237Y-56841866D01*
X50910237Y-56841866D02*
X50719761Y-56841866D01*
X50719761Y-56841866D02*
X50624523Y-56794247D01*
X50624523Y-56794247D02*
X50576904Y-56746628D01*
X50576904Y-56746628D02*
X50529285Y-56651390D01*
X71579285Y-57222819D02*
X71579285Y-56222819D01*
X71579285Y-56222819D02*
X71341190Y-56222819D01*
X71341190Y-56222819D02*
X71198333Y-56270438D01*
X71198333Y-56270438D02*
X71103095Y-56365676D01*
X71103095Y-56365676D02*
X71055476Y-56460914D01*
X71055476Y-56460914D02*
X71007857Y-56651390D01*
X71007857Y-56651390D02*
X71007857Y-56794247D01*
X71007857Y-56794247D02*
X71055476Y-56984723D01*
X71055476Y-56984723D02*
X71103095Y-57079961D01*
X71103095Y-57079961D02*
X71198333Y-57175200D01*
X71198333Y-57175200D02*
X71341190Y-57222819D01*
X71341190Y-57222819D02*
X71579285Y-57222819D01*
X70055476Y-57222819D02*
X70626904Y-57222819D01*
X70341190Y-57222819D02*
X70341190Y-56222819D01*
X70341190Y-56222819D02*
X70436428Y-56365676D01*
X70436428Y-56365676D02*
X70531666Y-56460914D01*
X70531666Y-56460914D02*
X70626904Y-56508533D01*
X69436428Y-56222819D02*
X69341190Y-56222819D01*
X69341190Y-56222819D02*
X69245952Y-56270438D01*
X69245952Y-56270438D02*
X69198333Y-56318057D01*
X69198333Y-56318057D02*
X69150714Y-56413295D01*
X69150714Y-56413295D02*
X69103095Y-56603771D01*
X69103095Y-56603771D02*
X69103095Y-56841866D01*
X69103095Y-56841866D02*
X69150714Y-57032342D01*
X69150714Y-57032342D02*
X69198333Y-57127580D01*
X69198333Y-57127580D02*
X69245952Y-57175200D01*
X69245952Y-57175200D02*
X69341190Y-57222819D01*
X69341190Y-57222819D02*
X69436428Y-57222819D01*
X69436428Y-57222819D02*
X69531666Y-57175200D01*
X69531666Y-57175200D02*
X69579285Y-57127580D01*
X69579285Y-57127580D02*
X69626904Y-57032342D01*
X69626904Y-57032342D02*
X69674523Y-56841866D01*
X69674523Y-56841866D02*
X69674523Y-56603771D01*
X69674523Y-56603771D02*
X69626904Y-56413295D01*
X69626904Y-56413295D02*
X69579285Y-56318057D01*
X69579285Y-56318057D02*
X69531666Y-56270438D01*
X69531666Y-56270438D02*
X69436428Y-56222819D01*
X90629285Y-57222819D02*
X90629285Y-56222819D01*
X90629285Y-56222819D02*
X90391190Y-56222819D01*
X90391190Y-56222819D02*
X90248333Y-56270438D01*
X90248333Y-56270438D02*
X90153095Y-56365676D01*
X90153095Y-56365676D02*
X90105476Y-56460914D01*
X90105476Y-56460914D02*
X90057857Y-56651390D01*
X90057857Y-56651390D02*
X90057857Y-56794247D01*
X90057857Y-56794247D02*
X90105476Y-56984723D01*
X90105476Y-56984723D02*
X90153095Y-57079961D01*
X90153095Y-57079961D02*
X90248333Y-57175200D01*
X90248333Y-57175200D02*
X90391190Y-57222819D01*
X90391190Y-57222819D02*
X90629285Y-57222819D01*
X89105476Y-57222819D02*
X89676904Y-57222819D01*
X89391190Y-57222819D02*
X89391190Y-56222819D01*
X89391190Y-56222819D02*
X89486428Y-56365676D01*
X89486428Y-56365676D02*
X89581666Y-56460914D01*
X89581666Y-56460914D02*
X89676904Y-56508533D01*
X88153095Y-57222819D02*
X88724523Y-57222819D01*
X88438809Y-57222819D02*
X88438809Y-56222819D01*
X88438809Y-56222819D02*
X88534047Y-56365676D01*
X88534047Y-56365676D02*
X88629285Y-56460914D01*
X88629285Y-56460914D02*
X88724523Y-56508533D01*
X14429285Y-76272819D02*
X14429285Y-75272819D01*
X14429285Y-75272819D02*
X14191190Y-75272819D01*
X14191190Y-75272819D02*
X14048333Y-75320438D01*
X14048333Y-75320438D02*
X13953095Y-75415676D01*
X13953095Y-75415676D02*
X13905476Y-75510914D01*
X13905476Y-75510914D02*
X13857857Y-75701390D01*
X13857857Y-75701390D02*
X13857857Y-75844247D01*
X13857857Y-75844247D02*
X13905476Y-76034723D01*
X13905476Y-76034723D02*
X13953095Y-76129961D01*
X13953095Y-76129961D02*
X14048333Y-76225200D01*
X14048333Y-76225200D02*
X14191190Y-76272819D01*
X14191190Y-76272819D02*
X14429285Y-76272819D01*
X12905476Y-76272819D02*
X13476904Y-76272819D01*
X13191190Y-76272819D02*
X13191190Y-75272819D01*
X13191190Y-75272819D02*
X13286428Y-75415676D01*
X13286428Y-75415676D02*
X13381666Y-75510914D01*
X13381666Y-75510914D02*
X13476904Y-75558533D01*
X12524523Y-75368057D02*
X12476904Y-75320438D01*
X12476904Y-75320438D02*
X12381666Y-75272819D01*
X12381666Y-75272819D02*
X12143571Y-75272819D01*
X12143571Y-75272819D02*
X12048333Y-75320438D01*
X12048333Y-75320438D02*
X12000714Y-75368057D01*
X12000714Y-75368057D02*
X11953095Y-75463295D01*
X11953095Y-75463295D02*
X11953095Y-75558533D01*
X11953095Y-75558533D02*
X12000714Y-75701390D01*
X12000714Y-75701390D02*
X12572142Y-76272819D01*
X12572142Y-76272819D02*
X11953095Y-76272819D01*
X33479285Y-76272819D02*
X33479285Y-75272819D01*
X33479285Y-75272819D02*
X33241190Y-75272819D01*
X33241190Y-75272819D02*
X33098333Y-75320438D01*
X33098333Y-75320438D02*
X33003095Y-75415676D01*
X33003095Y-75415676D02*
X32955476Y-75510914D01*
X32955476Y-75510914D02*
X32907857Y-75701390D01*
X32907857Y-75701390D02*
X32907857Y-75844247D01*
X32907857Y-75844247D02*
X32955476Y-76034723D01*
X32955476Y-76034723D02*
X33003095Y-76129961D01*
X33003095Y-76129961D02*
X33098333Y-76225200D01*
X33098333Y-76225200D02*
X33241190Y-76272819D01*
X33241190Y-76272819D02*
X33479285Y-76272819D01*
X31955476Y-76272819D02*
X32526904Y-76272819D01*
X32241190Y-76272819D02*
X32241190Y-75272819D01*
X32241190Y-75272819D02*
X32336428Y-75415676D01*
X32336428Y-75415676D02*
X32431666Y-75510914D01*
X32431666Y-75510914D02*
X32526904Y-75558533D01*
X31622142Y-75272819D02*
X31003095Y-75272819D01*
X31003095Y-75272819D02*
X31336428Y-75653771D01*
X31336428Y-75653771D02*
X31193571Y-75653771D01*
X31193571Y-75653771D02*
X31098333Y-75701390D01*
X31098333Y-75701390D02*
X31050714Y-75749009D01*
X31050714Y-75749009D02*
X31003095Y-75844247D01*
X31003095Y-75844247D02*
X31003095Y-76082342D01*
X31003095Y-76082342D02*
X31050714Y-76177580D01*
X31050714Y-76177580D02*
X31098333Y-76225200D01*
X31098333Y-76225200D02*
X31193571Y-76272819D01*
X31193571Y-76272819D02*
X31479285Y-76272819D01*
X31479285Y-76272819D02*
X31574523Y-76225200D01*
X31574523Y-76225200D02*
X31622142Y-76177580D01*
X52529285Y-76272819D02*
X52529285Y-75272819D01*
X52529285Y-75272819D02*
X52291190Y-75272819D01*
X52291190Y-75272819D02*
X52148333Y-75320438D01*
X52148333Y-75320438D02*
X52053095Y-75415676D01*
X52053095Y-75415676D02*
X52005476Y-75510914D01*
X52005476Y-75510914D02*
X51957857Y-75701390D01*
X51957857Y-75701390D02*
X51957857Y-75844247D01*
X51957857Y-75844247D02*
X52005476Y-76034723D01*
X52005476Y-76034723D02*
X52053095Y-76129961D01*
X52053095Y-76129961D02*
X52148333Y-76225200D01*
X52148333Y-76225200D02*
X52291190Y-76272819D01*
X52291190Y-76272819D02*
X52529285Y-76272819D01*
X51005476Y-76272819D02*
X51576904Y-76272819D01*
X51291190Y-76272819D02*
X51291190Y-75272819D01*
X51291190Y-75272819D02*
X51386428Y-75415676D01*
X51386428Y-75415676D02*
X51481666Y-75510914D01*
X51481666Y-75510914D02*
X51576904Y-75558533D01*
X50148333Y-75606152D02*
X50148333Y-76272819D01*
X50386428Y-75225200D02*
X50624523Y-75939485D01*
X50624523Y-75939485D02*
X50005476Y-75939485D01*
X71579285Y-76272819D02*
X71579285Y-75272819D01*
X71579285Y-75272819D02*
X71341190Y-75272819D01*
X71341190Y-75272819D02*
X71198333Y-75320438D01*
X71198333Y-75320438D02*
X71103095Y-75415676D01*
X71103095Y-75415676D02*
X71055476Y-75510914D01*
X71055476Y-75510914D02*
X71007857Y-75701390D01*
X71007857Y-75701390D02*
X71007857Y-75844247D01*
X71007857Y-75844247D02*
X71055476Y-76034723D01*
X71055476Y-76034723D02*
X71103095Y-76129961D01*
X71103095Y-76129961D02*
X71198333Y-76225200D01*
X71198333Y-76225200D02*
X71341190Y-76272819D01*
X71341190Y-76272819D02*
X71579285Y-76272819D01*
X70055476Y-76272819D02*
X70626904Y-76272819D01*
X70341190Y-76272819D02*
X70341190Y-75272819D01*
X70341190Y-75272819D02*
X70436428Y-75415676D01*
X70436428Y-75415676D02*
X70531666Y-75510914D01*
X70531666Y-75510914D02*
X70626904Y-75558533D01*
X69150714Y-75272819D02*
X69626904Y-75272819D01*
X69626904Y-75272819D02*
X69674523Y-75749009D01*
X69674523Y-75749009D02*
X69626904Y-75701390D01*
X69626904Y-75701390D02*
X69531666Y-75653771D01*
X69531666Y-75653771D02*
X69293571Y-75653771D01*
X69293571Y-75653771D02*
X69198333Y-75701390D01*
X69198333Y-75701390D02*
X69150714Y-75749009D01*
X69150714Y-75749009D02*
X69103095Y-75844247D01*
X69103095Y-75844247D02*
X69103095Y-76082342D01*
X69103095Y-76082342D02*
X69150714Y-76177580D01*
X69150714Y-76177580D02*
X69198333Y-76225200D01*
X69198333Y-76225200D02*
X69293571Y-76272819D01*
X69293571Y-76272819D02*
X69531666Y-76272819D01*
X69531666Y-76272819D02*
X69626904Y-76225200D01*
X69626904Y-76225200D02*
X69674523Y-76177580D01*
X90629285Y-76272819D02*
X90629285Y-75272819D01*
X90629285Y-75272819D02*
X90391190Y-75272819D01*
X90391190Y-75272819D02*
X90248333Y-75320438D01*
X90248333Y-75320438D02*
X90153095Y-75415676D01*
X90153095Y-75415676D02*
X90105476Y-75510914D01*
X90105476Y-75510914D02*
X90057857Y-75701390D01*
X90057857Y-75701390D02*
X90057857Y-75844247D01*
X90057857Y-75844247D02*
X90105476Y-76034723D01*
X90105476Y-76034723D02*
X90153095Y-76129961D01*
X90153095Y-76129961D02*
X90248333Y-76225200D01*
X90248333Y-76225200D02*
X90391190Y-76272819D01*
X90391190Y-76272819D02*
X90629285Y-76272819D01*
X89105476Y-76272819D02*
X89676904Y-76272819D01*
X89391190Y-76272819D02*
X89391190Y-75272819D01*
X89391190Y-75272819D02*
X89486428Y-75415676D01*
X89486428Y-75415676D02*
X89581666Y-75510914D01*
X89581666Y-75510914D02*
X89676904Y-75558533D01*
X88248333Y-75272819D02*
X88438809Y-75272819D01*
X88438809Y-75272819D02*
X88534047Y-75320438D01*
X88534047Y-75320438D02*
X88581666Y-75368057D01*
X88581666Y-75368057D02*
X88676904Y-75510914D01*
X88676904Y-75510914D02*
X88724523Y-75701390D01*
X88724523Y-75701390D02*
X88724523Y-76082342D01*
X88724523Y-76082342D02*
X88676904Y-76177580D01*
X88676904Y-76177580D02*
X88629285Y-76225200D01*
X88629285Y-76225200D02*
X88534047Y-76272819D01*
X88534047Y-76272819D02*
X88343571Y-76272819D01*
X88343571Y-76272819D02*
X88248333Y-76225200D01*
X88248333Y-76225200D02*
X88200714Y-76177580D01*
X88200714Y-76177580D02*
X88153095Y-76082342D01*
X88153095Y-76082342D02*
X88153095Y-75844247D01*
X88153095Y-75844247D02*
X88200714Y-75749009D01*
X88200714Y-75749009D02*
X88248333Y-75701390D01*
X88248333Y-75701390D02*
X88343571Y-75653771D01*
X88343571Y-75653771D02*
X88534047Y-75653771D01*
X88534047Y-75653771D02*
X88629285Y-75701390D01*
X88629285Y-75701390D02*
X88676904Y-75749009D01*
X88676904Y-75749009D02*
X88724523Y-75844247D01*
X14429285Y-95321819D02*
X14429285Y-94321819D01*
X14429285Y-94321819D02*
X14191190Y-94321819D01*
X14191190Y-94321819D02*
X14048333Y-94369438D01*
X14048333Y-94369438D02*
X13953095Y-94464676D01*
X13953095Y-94464676D02*
X13905476Y-94559914D01*
X13905476Y-94559914D02*
X13857857Y-94750390D01*
X13857857Y-94750390D02*
X13857857Y-94893247D01*
X13857857Y-94893247D02*
X13905476Y-95083723D01*
X13905476Y-95083723D02*
X13953095Y-95178961D01*
X13953095Y-95178961D02*
X14048333Y-95274200D01*
X14048333Y-95274200D02*
X14191190Y-95321819D01*
X14191190Y-95321819D02*
X14429285Y-95321819D01*
X12905476Y-95321819D02*
X13476904Y-95321819D01*
X13191190Y-95321819D02*
X13191190Y-94321819D01*
X13191190Y-94321819D02*
X13286428Y-94464676D01*
X13286428Y-94464676D02*
X13381666Y-94559914D01*
X13381666Y-94559914D02*
X13476904Y-94607533D01*
X12572142Y-94321819D02*
X11905476Y-94321819D01*
X11905476Y-94321819D02*
X12334047Y-95321819D01*
X33479285Y-95321819D02*
X33479285Y-94321819D01*
X33479285Y-94321819D02*
X33241190Y-94321819D01*
X33241190Y-94321819D02*
X33098333Y-94369438D01*
X33098333Y-94369438D02*
X33003095Y-94464676D01*
X33003095Y-94464676D02*
X32955476Y-94559914D01*
X32955476Y-94559914D02*
X32907857Y-94750390D01*
X32907857Y-94750390D02*
X32907857Y-94893247D01*
X32907857Y-94893247D02*
X32955476Y-95083723D01*
X32955476Y-95083723D02*
X33003095Y-95178961D01*
X33003095Y-95178961D02*
X33098333Y-95274200D01*
X33098333Y-95274200D02*
X33241190Y-95321819D01*
X33241190Y-95321819D02*
X33479285Y-95321819D01*
X31955476Y-95321819D02*
X32526904Y-95321819D01*
X32241190Y-95321819D02*
X32241190Y-94321819D01*
X32241190Y-94321819D02*
X32336428Y-94464676D01*
X32336428Y-94464676D02*
X32431666Y-94559914D01*
X32431666Y-94559914D02*
X32526904Y-94607533D01*
X31384047Y-94750390D02*
X31479285Y-94702771D01*
X31479285Y-94702771D02*
X31526904Y-94655152D01*
X31526904Y-94655152D02*
X31574523Y-94559914D01*
X31574523Y-94559914D02*
X31574523Y-94512295D01*
X31574523Y-94512295D02*
X31526904Y-94417057D01*
X31526904Y-94417057D02*
X31479285Y-94369438D01*
X31479285Y-94369438D02*
X31384047Y-94321819D01*
X31384047Y-94321819D02*
X31193571Y-94321819D01*
X31193571Y-94321819D02*
X31098333Y-94369438D01*
X31098333Y-94369438D02*
X31050714Y-94417057D01*
X31050714Y-94417057D02*
X31003095Y-94512295D01*
X31003095Y-94512295D02*
X31003095Y-94559914D01*
X31003095Y-94559914D02*
X31050714Y-94655152D01*
X31050714Y-94655152D02*
X31098333Y-94702771D01*
X31098333Y-94702771D02*
X31193571Y-94750390D01*
X31193571Y-94750390D02*
X31384047Y-94750390D01*
X31384047Y-94750390D02*
X31479285Y-94798009D01*
X31479285Y-94798009D02*
X31526904Y-94845628D01*
X31526904Y-94845628D02*
X31574523Y-94940866D01*
X31574523Y-94940866D02*
X31574523Y-95131342D01*
X31574523Y-95131342D02*
X31526904Y-95226580D01*
X31526904Y-95226580D02*
X31479285Y-95274200D01*
X31479285Y-95274200D02*
X31384047Y-95321819D01*
X31384047Y-95321819D02*
X31193571Y-95321819D01*
X31193571Y-95321819D02*
X31098333Y-95274200D01*
X31098333Y-95274200D02*
X31050714Y-95226580D01*
X31050714Y-95226580D02*
X31003095Y-95131342D01*
X31003095Y-95131342D02*
X31003095Y-94940866D01*
X31003095Y-94940866D02*
X31050714Y-94845628D01*
X31050714Y-94845628D02*
X31098333Y-94798009D01*
X31098333Y-94798009D02*
X31193571Y-94750390D01*
X52529285Y-95321819D02*
X52529285Y-94321819D01*
X52529285Y-94321819D02*
X52291190Y-94321819D01*
X52291190Y-94321819D02*
X52148333Y-94369438D01*
X52148333Y-94369438D02*
X52053095Y-94464676D01*
X52053095Y-94464676D02*
X52005476Y-94559914D01*
X52005476Y-94559914D02*
X51957857Y-94750390D01*
X51957857Y-94750390D02*
X51957857Y-94893247D01*
X51957857Y-94893247D02*
X52005476Y-95083723D01*
X52005476Y-95083723D02*
X52053095Y-95178961D01*
X52053095Y-95178961D02*
X52148333Y-95274200D01*
X52148333Y-95274200D02*
X52291190Y-95321819D01*
X52291190Y-95321819D02*
X52529285Y-95321819D01*
X51005476Y-95321819D02*
X51576904Y-95321819D01*
X51291190Y-95321819D02*
X51291190Y-94321819D01*
X51291190Y-94321819D02*
X51386428Y-94464676D01*
X51386428Y-94464676D02*
X51481666Y-94559914D01*
X51481666Y-94559914D02*
X51576904Y-94607533D01*
X50529285Y-95321819D02*
X50338809Y-95321819D01*
X50338809Y-95321819D02*
X50243571Y-95274200D01*
X50243571Y-95274200D02*
X50195952Y-95226580D01*
X50195952Y-95226580D02*
X50100714Y-95083723D01*
X50100714Y-95083723D02*
X50053095Y-94893247D01*
X50053095Y-94893247D02*
X50053095Y-94512295D01*
X50053095Y-94512295D02*
X50100714Y-94417057D01*
X50100714Y-94417057D02*
X50148333Y-94369438D01*
X50148333Y-94369438D02*
X50243571Y-94321819D01*
X50243571Y-94321819D02*
X50434047Y-94321819D01*
X50434047Y-94321819D02*
X50529285Y-94369438D01*
X50529285Y-94369438D02*
X50576904Y-94417057D01*
X50576904Y-94417057D02*
X50624523Y-94512295D01*
X50624523Y-94512295D02*
X50624523Y-94750390D01*
X50624523Y-94750390D02*
X50576904Y-94845628D01*
X50576904Y-94845628D02*
X50529285Y-94893247D01*
X50529285Y-94893247D02*
X50434047Y-94940866D01*
X50434047Y-94940866D02*
X50243571Y-94940866D01*
X50243571Y-94940866D02*
X50148333Y-94893247D01*
X50148333Y-94893247D02*
X50100714Y-94845628D01*
X50100714Y-94845628D02*
X50053095Y-94750390D01*
X71579285Y-95321819D02*
X71579285Y-94321819D01*
X71579285Y-94321819D02*
X71341190Y-94321819D01*
X71341190Y-94321819D02*
X71198333Y-94369438D01*
X71198333Y-94369438D02*
X71103095Y-94464676D01*
X71103095Y-94464676D02*
X71055476Y-94559914D01*
X71055476Y-94559914D02*
X71007857Y-94750390D01*
X71007857Y-94750390D02*
X71007857Y-94893247D01*
X71007857Y-94893247D02*
X71055476Y-95083723D01*
X71055476Y-95083723D02*
X71103095Y-95178961D01*
X71103095Y-95178961D02*
X71198333Y-95274200D01*
X71198333Y-95274200D02*
X71341190Y-95321819D01*
X71341190Y-95321819D02*
X71579285Y-95321819D01*
X70626904Y-94417057D02*
X70579285Y-94369438D01*
X70579285Y-94369438D02*
X70484047Y-94321819D01*
X70484047Y-94321819D02*
X70245952Y-94321819D01*
X70245952Y-94321819D02*
X70150714Y-94369438D01*
X70150714Y-94369438D02*
X70103095Y-94417057D01*
X70103095Y-94417057D02*
X70055476Y-94512295D01*
X70055476Y-94512295D02*
X70055476Y-94607533D01*
X70055476Y-94607533D02*
X70103095Y-94750390D01*
X70103095Y-94750390D02*
X70674523Y-95321819D01*
X70674523Y-95321819D02*
X70055476Y-95321819D01*
X69436428Y-94321819D02*
X69341190Y-94321819D01*
X69341190Y-94321819D02*
X69245952Y-94369438D01*
X69245952Y-94369438D02*
X69198333Y-94417057D01*
X69198333Y-94417057D02*
X69150714Y-94512295D01*
X69150714Y-94512295D02*
X69103095Y-94702771D01*
X69103095Y-94702771D02*
X69103095Y-94940866D01*
X69103095Y-94940866D02*
X69150714Y-95131342D01*
X69150714Y-95131342D02*
X69198333Y-95226580D01*
X69198333Y-95226580D02*
X69245952Y-95274200D01*
X69245952Y-95274200D02*
X69341190Y-95321819D01*
X69341190Y-95321819D02*
X69436428Y-95321819D01*
X69436428Y-95321819D02*
X69531666Y-95274200D01*
X69531666Y-95274200D02*
X69579285Y-95226580D01*
X69579285Y-95226580D02*
X69626904Y-95131342D01*
X69626904Y-95131342D02*
X69674523Y-94940866D01*
X69674523Y-94940866D02*
X69674523Y-94702771D01*
X69674523Y-94702771D02*
X69626904Y-94512295D01*
X69626904Y-94512295D02*
X69579285Y-94417057D01*
X69579285Y-94417057D02*
X69531666Y-94369438D01*
X69531666Y-94369438D02*
X69436428Y-94321819D01*
X90629285Y-95321819D02*
X90629285Y-94321819D01*
X90629285Y-94321819D02*
X90391190Y-94321819D01*
X90391190Y-94321819D02*
X90248333Y-94369438D01*
X90248333Y-94369438D02*
X90153095Y-94464676D01*
X90153095Y-94464676D02*
X90105476Y-94559914D01*
X90105476Y-94559914D02*
X90057857Y-94750390D01*
X90057857Y-94750390D02*
X90057857Y-94893247D01*
X90057857Y-94893247D02*
X90105476Y-95083723D01*
X90105476Y-95083723D02*
X90153095Y-95178961D01*
X90153095Y-95178961D02*
X90248333Y-95274200D01*
X90248333Y-95274200D02*
X90391190Y-95321819D01*
X90391190Y-95321819D02*
X90629285Y-95321819D01*
X89676904Y-94417057D02*
X89629285Y-94369438D01*
X89629285Y-94369438D02*
X89534047Y-94321819D01*
X89534047Y-94321819D02*
X89295952Y-94321819D01*
X89295952Y-94321819D02*
X89200714Y-94369438D01*
X89200714Y-94369438D02*
X89153095Y-94417057D01*
X89153095Y-94417057D02*
X89105476Y-94512295D01*
X89105476Y-94512295D02*
X89105476Y-94607533D01*
X89105476Y-94607533D02*
X89153095Y-94750390D01*
X89153095Y-94750390D02*
X89724523Y-95321819D01*
X89724523Y-95321819D02*
X89105476Y-95321819D01*
X88153095Y-95321819D02*
X88724523Y-95321819D01*
X88438809Y-95321819D02*
X88438809Y-94321819D01*
X88438809Y-94321819D02*
X88534047Y-94464676D01*
X88534047Y-94464676D02*
X88629285Y-94559914D01*
X88629285Y-94559914D02*
X88724523Y-94607533D01*
X14429285Y-114372819D02*
X14429285Y-113372819D01*
X14429285Y-113372819D02*
X14191190Y-113372819D01*
X14191190Y-113372819D02*
X14048333Y-113420438D01*
X14048333Y-113420438D02*
X13953095Y-113515676D01*
X13953095Y-113515676D02*
X13905476Y-113610914D01*
X13905476Y-113610914D02*
X13857857Y-113801390D01*
X13857857Y-113801390D02*
X13857857Y-113944247D01*
X13857857Y-113944247D02*
X13905476Y-114134723D01*
X13905476Y-114134723D02*
X13953095Y-114229961D01*
X13953095Y-114229961D02*
X14048333Y-114325200D01*
X14048333Y-114325200D02*
X14191190Y-114372819D01*
X14191190Y-114372819D02*
X14429285Y-114372819D01*
X13476904Y-113468057D02*
X13429285Y-113420438D01*
X13429285Y-113420438D02*
X13334047Y-113372819D01*
X13334047Y-113372819D02*
X13095952Y-113372819D01*
X13095952Y-113372819D02*
X13000714Y-113420438D01*
X13000714Y-113420438D02*
X12953095Y-113468057D01*
X12953095Y-113468057D02*
X12905476Y-113563295D01*
X12905476Y-113563295D02*
X12905476Y-113658533D01*
X12905476Y-113658533D02*
X12953095Y-113801390D01*
X12953095Y-113801390D02*
X13524523Y-114372819D01*
X13524523Y-114372819D02*
X12905476Y-114372819D01*
X12524523Y-113468057D02*
X12476904Y-113420438D01*
X12476904Y-113420438D02*
X12381666Y-113372819D01*
X12381666Y-113372819D02*
X12143571Y-113372819D01*
X12143571Y-113372819D02*
X12048333Y-113420438D01*
X12048333Y-113420438D02*
X12000714Y-113468057D01*
X12000714Y-113468057D02*
X11953095Y-113563295D01*
X11953095Y-113563295D02*
X11953095Y-113658533D01*
X11953095Y-113658533D02*
X12000714Y-113801390D01*
X12000714Y-113801390D02*
X12572142Y-114372819D01*
X12572142Y-114372819D02*
X11953095Y-114372819D01*
X33479285Y-114372819D02*
X33479285Y-113372819D01*
X33479285Y-113372819D02*
X33241190Y-113372819D01*
X33241190Y-113372819D02*
X33098333Y-113420438D01*
X33098333Y-113420438D02*
X33003095Y-113515676D01*
X33003095Y-113515676D02*
X32955476Y-113610914D01*
X32955476Y-113610914D02*
X32907857Y-113801390D01*
X32907857Y-113801390D02*
X32907857Y-113944247D01*
X32907857Y-113944247D02*
X32955476Y-114134723D01*
X32955476Y-114134723D02*
X33003095Y-114229961D01*
X33003095Y-114229961D02*
X33098333Y-114325200D01*
X33098333Y-114325200D02*
X33241190Y-114372819D01*
X33241190Y-114372819D02*
X33479285Y-114372819D01*
X32526904Y-113468057D02*
X32479285Y-113420438D01*
X32479285Y-113420438D02*
X32384047Y-113372819D01*
X32384047Y-113372819D02*
X32145952Y-113372819D01*
X32145952Y-113372819D02*
X32050714Y-113420438D01*
X32050714Y-113420438D02*
X32003095Y-113468057D01*
X32003095Y-113468057D02*
X31955476Y-113563295D01*
X31955476Y-113563295D02*
X31955476Y-113658533D01*
X31955476Y-113658533D02*
X32003095Y-113801390D01*
X32003095Y-113801390D02*
X32574523Y-114372819D01*
X32574523Y-114372819D02*
X31955476Y-114372819D01*
X31622142Y-113372819D02*
X31003095Y-113372819D01*
X31003095Y-113372819D02*
X31336428Y-113753771D01*
X31336428Y-113753771D02*
X31193571Y-113753771D01*
X31193571Y-113753771D02*
X31098333Y-113801390D01*
X31098333Y-113801390D02*
X31050714Y-113849009D01*
X31050714Y-113849009D02*
X31003095Y-113944247D01*
X31003095Y-113944247D02*
X31003095Y-114182342D01*
X31003095Y-114182342D02*
X31050714Y-114277580D01*
X31050714Y-114277580D02*
X31098333Y-114325200D01*
X31098333Y-114325200D02*
X31193571Y-114372819D01*
X31193571Y-114372819D02*
X31479285Y-114372819D01*
X31479285Y-114372819D02*
X31574523Y-114325200D01*
X31574523Y-114325200D02*
X31622142Y-114277580D01*
X52529285Y-114372819D02*
X52529285Y-113372819D01*
X52529285Y-113372819D02*
X52291190Y-113372819D01*
X52291190Y-113372819D02*
X52148333Y-113420438D01*
X52148333Y-113420438D02*
X52053095Y-113515676D01*
X52053095Y-113515676D02*
X52005476Y-113610914D01*
X52005476Y-113610914D02*
X51957857Y-113801390D01*
X51957857Y-113801390D02*
X51957857Y-113944247D01*
X51957857Y-113944247D02*
X52005476Y-114134723D01*
X52005476Y-114134723D02*
X52053095Y-114229961D01*
X52053095Y-114229961D02*
X52148333Y-114325200D01*
X52148333Y-114325200D02*
X52291190Y-114372819D01*
X52291190Y-114372819D02*
X52529285Y-114372819D01*
X51576904Y-113468057D02*
X51529285Y-113420438D01*
X51529285Y-113420438D02*
X51434047Y-113372819D01*
X51434047Y-113372819D02*
X51195952Y-113372819D01*
X51195952Y-113372819D02*
X51100714Y-113420438D01*
X51100714Y-113420438D02*
X51053095Y-113468057D01*
X51053095Y-113468057D02*
X51005476Y-113563295D01*
X51005476Y-113563295D02*
X51005476Y-113658533D01*
X51005476Y-113658533D02*
X51053095Y-113801390D01*
X51053095Y-113801390D02*
X51624523Y-114372819D01*
X51624523Y-114372819D02*
X51005476Y-114372819D01*
X50148333Y-113706152D02*
X50148333Y-114372819D01*
X50386428Y-113325200D02*
X50624523Y-114039485D01*
X50624523Y-114039485D02*
X50005476Y-114039485D01*
X71579285Y-114372819D02*
X71579285Y-113372819D01*
X71579285Y-113372819D02*
X71341190Y-113372819D01*
X71341190Y-113372819D02*
X71198333Y-113420438D01*
X71198333Y-113420438D02*
X71103095Y-113515676D01*
X71103095Y-113515676D02*
X71055476Y-113610914D01*
X71055476Y-113610914D02*
X71007857Y-113801390D01*
X71007857Y-113801390D02*
X71007857Y-113944247D01*
X71007857Y-113944247D02*
X71055476Y-114134723D01*
X71055476Y-114134723D02*
X71103095Y-114229961D01*
X71103095Y-114229961D02*
X71198333Y-114325200D01*
X71198333Y-114325200D02*
X71341190Y-114372819D01*
X71341190Y-114372819D02*
X71579285Y-114372819D01*
X70626904Y-113468057D02*
X70579285Y-113420438D01*
X70579285Y-113420438D02*
X70484047Y-113372819D01*
X70484047Y-113372819D02*
X70245952Y-113372819D01*
X70245952Y-113372819D02*
X70150714Y-113420438D01*
X70150714Y-113420438D02*
X70103095Y-113468057D01*
X70103095Y-113468057D02*
X70055476Y-113563295D01*
X70055476Y-113563295D02*
X70055476Y-113658533D01*
X70055476Y-113658533D02*
X70103095Y-113801390D01*
X70103095Y-113801390D02*
X70674523Y-114372819D01*
X70674523Y-114372819D02*
X70055476Y-114372819D01*
X69150714Y-113372819D02*
X69626904Y-113372819D01*
X69626904Y-113372819D02*
X69674523Y-113849009D01*
X69674523Y-113849009D02*
X69626904Y-113801390D01*
X69626904Y-113801390D02*
X69531666Y-113753771D01*
X69531666Y-113753771D02*
X69293571Y-113753771D01*
X69293571Y-113753771D02*
X69198333Y-113801390D01*
X69198333Y-113801390D02*
X69150714Y-113849009D01*
X69150714Y-113849009D02*
X69103095Y-113944247D01*
X69103095Y-113944247D02*
X69103095Y-114182342D01*
X69103095Y-114182342D02*
X69150714Y-114277580D01*
X69150714Y-114277580D02*
X69198333Y-114325200D01*
X69198333Y-114325200D02*
X69293571Y-114372819D01*
X69293571Y-114372819D02*
X69531666Y-114372819D01*
X69531666Y-114372819D02*
X69626904Y-114325200D01*
X69626904Y-114325200D02*
X69674523Y-114277580D01*
X90629285Y-114372819D02*
X90629285Y-113372819D01*
X90629285Y-113372819D02*
X90391190Y-113372819D01*
X90391190Y-113372819D02*
X90248333Y-113420438D01*
X90248333Y-113420438D02*
X90153095Y-113515676D01*
X90153095Y-113515676D02*
X90105476Y-113610914D01*
X90105476Y-113610914D02*
X90057857Y-113801390D01*
X90057857Y-113801390D02*
X90057857Y-113944247D01*
X90057857Y-113944247D02*
X90105476Y-114134723D01*
X90105476Y-114134723D02*
X90153095Y-114229961D01*
X90153095Y-114229961D02*
X90248333Y-114325200D01*
X90248333Y-114325200D02*
X90391190Y-114372819D01*
X90391190Y-114372819D02*
X90629285Y-114372819D01*
X89676904Y-113468057D02*
X89629285Y-113420438D01*
X89629285Y-113420438D02*
X89534047Y-113372819D01*
X89534047Y-113372819D02*
X89295952Y-113372819D01*
X89295952Y-113372819D02*
X89200714Y-113420438D01*
X89200714Y-113420438D02*
X89153095Y-113468057D01*
X89153095Y-113468057D02*
X89105476Y-113563295D01*
X89105476Y-113563295D02*
X89105476Y-113658533D01*
X89105476Y-113658533D02*
X89153095Y-113801390D01*
X89153095Y-113801390D02*
X89724523Y-114372819D01*
X89724523Y-114372819D02*
X89105476Y-114372819D01*
X88248333Y-113372819D02*
X88438809Y-113372819D01*
X88438809Y-113372819D02*
X88534047Y-113420438D01*
X88534047Y-113420438D02*
X88581666Y-113468057D01*
X88581666Y-113468057D02*
X88676904Y-113610914D01*
X88676904Y-113610914D02*
X88724523Y-113801390D01*
X88724523Y-113801390D02*
X88724523Y-114182342D01*
X88724523Y-114182342D02*
X88676904Y-114277580D01*
X88676904Y-114277580D02*
X88629285Y-114325200D01*
X88629285Y-114325200D02*
X88534047Y-114372819D01*
X88534047Y-114372819D02*
X88343571Y-114372819D01*
X88343571Y-114372819D02*
X88248333Y-114325200D01*
X88248333Y-114325200D02*
X88200714Y-114277580D01*
X88200714Y-114277580D02*
X88153095Y-114182342D01*
X88153095Y-114182342D02*
X88153095Y-113944247D01*
X88153095Y-113944247D02*
X88200714Y-113849009D01*
X88200714Y-113849009D02*
X88248333Y-113801390D01*
X88248333Y-113801390D02*
X88343571Y-113753771D01*
X88343571Y-113753771D02*
X88534047Y-113753771D01*
X88534047Y-113753771D02*
X88629285Y-113801390D01*
X88629285Y-113801390D02*
X88676904Y-113849009D01*
X88676904Y-113849009D02*
X88724523Y-113944247D01*
%LPC*%
D11*
%TO.C,SW1*%
X5715000Y-6985000D03*
X12065000Y-4445000D03*
D12*
X9525000Y-9525000D03*
D13*
X4445000Y-9525000D03*
X14605000Y-9525000D03*
%TD*%
D14*
%TO.C,D1*%
X17025000Y-16025000D03*
D15*
X9405000Y-16025000D03*
%TD*%
D11*
%TO.C,SW2*%
X5715000Y-30797000D03*
X12065000Y-28257000D03*
D12*
X9525000Y-33337000D03*
D13*
X4445000Y-33337000D03*
X14605000Y-33337000D03*
%TD*%
D14*
%TO.C,D2*%
X17025000Y-39837000D03*
D15*
X9405000Y-39837000D03*
%TD*%
D11*
%TO.C,SW3*%
X24765000Y-30797000D03*
X31115000Y-28257000D03*
D12*
X28575000Y-33337000D03*
D13*
X23495000Y-33337000D03*
X33655000Y-33337000D03*
%TD*%
D14*
%TO.C,D3*%
X36075000Y-39837000D03*
D15*
X28455000Y-39837000D03*
%TD*%
D11*
%TO.C,SW4*%
X43815000Y-30797000D03*
X50165000Y-28257000D03*
D12*
X47625000Y-33337000D03*
D13*
X42545000Y-33337000D03*
X52705000Y-33337000D03*
%TD*%
D14*
%TO.C,D4*%
X55125000Y-39837000D03*
D15*
X47505000Y-39837000D03*
%TD*%
D11*
%TO.C,SW5*%
X62865000Y-30797000D03*
X69215000Y-28257000D03*
D12*
X66675000Y-33337000D03*
D13*
X61595000Y-33337000D03*
X71755000Y-33337000D03*
%TD*%
D14*
%TO.C,D5*%
X74175000Y-39837000D03*
D15*
X66555000Y-39837000D03*
%TD*%
D11*
%TO.C,SW6*%
X81915000Y-30797000D03*
X88265000Y-28257000D03*
D12*
X85725000Y-33337000D03*
D13*
X80645000Y-33337000D03*
X90805000Y-33337000D03*
%TD*%
D14*
%TO.C,D6*%
X93225000Y-39837000D03*
D15*
X85605000Y-39837000D03*
%TD*%
D11*
%TO.C,SW7*%
X5715000Y-49848000D03*
X12065000Y-47308000D03*
D12*
X9525000Y-52388000D03*
D13*
X4445000Y-52388000D03*
X14605000Y-52388000D03*
%TD*%
D14*
%TO.C,D7*%
X17025000Y-58888000D03*
D15*
X9405000Y-58888000D03*
%TD*%
D11*
%TO.C,SW8*%
X24765000Y-49848000D03*
X31115000Y-47308000D03*
D12*
X28575000Y-52388000D03*
D13*
X23495000Y-52388000D03*
X33655000Y-52388000D03*
%TD*%
D14*
%TO.C,D8*%
X36075000Y-58888000D03*
D15*
X28455000Y-58888000D03*
%TD*%
D11*
%TO.C,SW9*%
X43815000Y-49848000D03*
X50165000Y-47308000D03*
D12*
X47625000Y-52388000D03*
D13*
X42545000Y-52388000D03*
X52705000Y-52388000D03*
%TD*%
D14*
%TO.C,D9*%
X55125000Y-58888000D03*
D15*
X47505000Y-58888000D03*
%TD*%
D11*
%TO.C,SW10*%
X62865000Y-49848000D03*
X69215000Y-47308000D03*
D12*
X66675000Y-52388000D03*
D13*
X61595000Y-52388000D03*
X71755000Y-52388000D03*
%TD*%
D14*
%TO.C,D10*%
X74175000Y-58888000D03*
D15*
X66555000Y-58888000D03*
%TD*%
D11*
%TO.C,SW11*%
X81915000Y-49848000D03*
X88265000Y-47308000D03*
D12*
X85725000Y-52388000D03*
D13*
X80645000Y-52388000D03*
X90805000Y-52388000D03*
%TD*%
D14*
%TO.C,D11*%
X93225000Y-58888000D03*
D15*
X85605000Y-58888000D03*
%TD*%
D11*
%TO.C,SW12*%
X5715000Y-68898000D03*
X12065000Y-66358000D03*
D12*
X9525000Y-71438000D03*
D13*
X4445000Y-71438000D03*
X14605000Y-71438000D03*
%TD*%
D14*
%TO.C,D12*%
X17025000Y-77938000D03*
D15*
X9405000Y-77938000D03*
%TD*%
D11*
%TO.C,SW13*%
X24765000Y-68898000D03*
X31115000Y-66358000D03*
D12*
X28575000Y-71438000D03*
D13*
X23495000Y-71438000D03*
X33655000Y-71438000D03*
%TD*%
D14*
%TO.C,D13*%
X36075000Y-77938000D03*
D15*
X28455000Y-77938000D03*
%TD*%
D11*
%TO.C,SW14*%
X43815000Y-68898000D03*
X50165000Y-66358000D03*
D12*
X47625000Y-71438000D03*
D13*
X42545000Y-71438000D03*
X52705000Y-71438000D03*
%TD*%
D14*
%TO.C,D14*%
X55125000Y-77938000D03*
D15*
X47505000Y-77938000D03*
%TD*%
D11*
%TO.C,SW15*%
X62865000Y-68898000D03*
X69215000Y-66358000D03*
D12*
X66675000Y-71438000D03*
D13*
X61595000Y-71438000D03*
X71755000Y-71438000D03*
%TD*%
D14*
%TO.C,D15*%
X74175000Y-77938000D03*
D15*
X66555000Y-77938000D03*
%TD*%
D11*
%TO.C,SW16*%
X81915000Y-68898000D03*
X88265000Y-66358000D03*
D12*
X85725000Y-71438000D03*
D13*
X80645000Y-71438000D03*
X90805000Y-71438000D03*
%TD*%
D14*
%TO.C,D16*%
X93225000Y-77938000D03*
D15*
X85605000Y-77938000D03*
%TD*%
D11*
%TO.C,SW17*%
X5715000Y-87947000D03*
X12065000Y-85407000D03*
D12*
X9525000Y-90487000D03*
D13*
X4445000Y-90487000D03*
X14605000Y-90487000D03*
%TD*%
D14*
%TO.C,D17*%
X17025000Y-96987000D03*
D15*
X9405000Y-96987000D03*
%TD*%
D11*
%TO.C,SW18*%
X24765000Y-87947000D03*
X31115000Y-85407000D03*
D12*
X28575000Y-90487000D03*
D13*
X23495000Y-90487000D03*
X33655000Y-90487000D03*
%TD*%
D14*
%TO.C,D18*%
X36075000Y-96987000D03*
D15*
X28455000Y-96987000D03*
%TD*%
D11*
%TO.C,SW19*%
X43815000Y-87947000D03*
X50165000Y-85407000D03*
D12*
X47625000Y-90487000D03*
D13*
X42545000Y-90487000D03*
X52705000Y-90487000D03*
%TD*%
D14*
%TO.C,D19*%
X55125000Y-96987000D03*
D15*
X47505000Y-96987000D03*
%TD*%
D11*
%TO.C,SW20*%
X62865000Y-87947000D03*
X69215000Y-85407000D03*
D12*
X66675000Y-90487000D03*
D13*
X61595000Y-90487000D03*
X71755000Y-90487000D03*
%TD*%
D14*
%TO.C,D20*%
X74175000Y-96987000D03*
D15*
X66555000Y-96987000D03*
%TD*%
D11*
%TO.C,SW21*%
X81915000Y-87947000D03*
X88265000Y-85407000D03*
D12*
X85725000Y-90487000D03*
D13*
X80645000Y-90487000D03*
X90805000Y-90487000D03*
%TD*%
D14*
%TO.C,D21*%
X93225000Y-96987000D03*
D15*
X85605000Y-96987000D03*
%TD*%
D11*
%TO.C,SW22*%
X5715000Y-106998000D03*
X12065000Y-104458000D03*
D12*
X9525000Y-109538000D03*
D13*
X4445000Y-109538000D03*
X14605000Y-109538000D03*
%TD*%
D14*
%TO.C,D22*%
X17025000Y-116038000D03*
D15*
X9405000Y-116038000D03*
%TD*%
D11*
%TO.C,SW23*%
X24765000Y-106998000D03*
X31115000Y-104458000D03*
D12*
X28575000Y-109538000D03*
D13*
X23495000Y-109538000D03*
X33655000Y-109538000D03*
%TD*%
D14*
%TO.C,D23*%
X36075000Y-116038000D03*
D15*
X28455000Y-116038000D03*
%TD*%
D11*
%TO.C,SW24*%
X43815000Y-106998000D03*
X50165000Y-104458000D03*
D12*
X47625000Y-109538000D03*
D13*
X42545000Y-109538000D03*
X52705000Y-109538000D03*
%TD*%
D14*
%TO.C,D24*%
X55125000Y-116038000D03*
D15*
X47505000Y-116038000D03*
%TD*%
D11*
%TO.C,SW25*%
X62865000Y-106998000D03*
X69215000Y-104458000D03*
D12*
X66675000Y-109538000D03*
D13*
X61595000Y-109538000D03*
X71755000Y-109538000D03*
%TD*%
D14*
%TO.C,D25*%
X74175000Y-116038000D03*
D15*
X66555000Y-116038000D03*
%TD*%
D11*
%TO.C,SW26*%
X81915000Y-106998000D03*
X88265000Y-104458000D03*
D12*
X85725000Y-109538000D03*
D13*
X80645000Y-109538000D03*
X90805000Y-109538000D03*
%TD*%
D14*
%TO.C,D26*%
X93225000Y-116038000D03*
D15*
X85605000Y-116038000D03*
%TD*%
D16*
%TO.C,J101*%
X70250000Y9030000D03*
D11*
X70250000Y11570000D03*
X70250000Y14110000D03*
X70250000Y16650000D03*
X70250000Y19190000D03*
X70250000Y21730000D03*
X70250000Y24270000D03*
X70250000Y26810000D03*
X70250000Y29350000D03*
X70250000Y31890000D03*
X70250000Y34430000D03*
X70250000Y36970000D03*
%TD*%
D16*
%TO.C,J102*%
X80250000Y9030000D03*
D11*
X80250000Y11570000D03*
X80250000Y14110000D03*
X80250000Y16650000D03*
X80250000Y19190000D03*
X80250000Y21730000D03*
X80250000Y24270000D03*
X80250000Y26810000D03*
X80250000Y29350000D03*
X80250000Y31890000D03*
X80250000Y34430000D03*
X80250000Y36970000D03*
%TD*%
D16*
%TO.C,J201*%
X92250000Y20460000D03*
D11*
X92250000Y23000000D03*
X92250000Y25540000D03*
%TD*%
D16*
%TO.C,J202*%
X92250000Y10460000D03*
D11*
X92250000Y13000000D03*
X92250000Y15540000D03*
%TD*%
D16*
%TO.C,J301*%
X92250000Y460000D03*
D11*
X92250000Y3000000D03*
X92250000Y5540000D03*
%TD*%
D16*
%TO.C,J302*%
X92250000Y-10810000D03*
D11*
X92250000Y-8270000D03*
X92250000Y-5730000D03*
X92250000Y-3190000D03*
%TD*%
D17*
%TO.C,R401*%
X75250000Y3000000D03*
D15*
X82870000Y3000000D03*
%TD*%
D14*
%TO.C,C401*%
X99250000Y-5000000D03*
D17*
X102750000Y-5000000D03*
%TD*%
D18*
%TO.C,SW401*%
X75750000Y-22500000D03*
D19*
X80750000Y-22500000D03*
X78250000Y-22500000D03*
X75750000Y-7500000D03*
X80750000Y-7500000D03*
%TD*%
%LPD*%
M02*
