%TF.GenerationSoftware,KiCad,Pcbnew,9.0.7*%
%TF.CreationDate,2026-02-27T02:53:56-05:00*%
%TF.ProjectId,Macropad,4d616372-6f70-4616-942e-6b696361645f,rev?*%
%TF.SameCoordinates,Original*%
%TF.FileFunction,Soldermask,Bot*%
%TF.FilePolarity,Negative*%
%FSLAX46Y46*%
G04 Gerber Fmt 4.6, Leading zero omitted, Abs format (unit mm)*
G04 Created by KiCad (PCBNEW 9.0.7) date 2026-02-27 02:53:56*
%MOMM*%
%LPD*%
G01*
G04 APERTURE LIST*
%ADD10C,1.700000*%
%ADD11C,4.000000*%
%ADD12C,1.750000*%
%ADD13R,1.600000X1.600000*%
%ADD14O,1.600000X1.600000*%
%ADD15R,1.700000X1.700000*%
%ADD16C,1.600000*%
%ADD17R,1.800000X1.800000*%
%ADD18C,1.800000*%
G04 APERTURE END LIST*
D10*
%TO.C,SW1*%
X5715000Y-6985000D03*
X12065000Y-4445000D03*
D11*
X9525000Y-9525000D03*
D12*
X4445000Y-9525000D03*
X14605000Y-9525000D03*
%TD*%
D13*
%TO.C,D1*%
X17025000Y-16025000D03*
D14*
X9405000Y-16025000D03*
%TD*%
D10*
%TO.C,SW2*%
X5715000Y-30797000D03*
X12065000Y-28257000D03*
D11*
X9525000Y-33337000D03*
D12*
X4445000Y-33337000D03*
X14605000Y-33337000D03*
%TD*%
D13*
%TO.C,D2*%
X17025000Y-39837000D03*
D14*
X9405000Y-39837000D03*
%TD*%
D10*
%TO.C,SW3*%
X24765000Y-30797000D03*
X31115000Y-28257000D03*
D11*
X28575000Y-33337000D03*
D12*
X23495000Y-33337000D03*
X33655000Y-33337000D03*
%TD*%
D13*
%TO.C,D3*%
X36075000Y-39837000D03*
D14*
X28455000Y-39837000D03*
%TD*%
D10*
%TO.C,SW4*%
X43815000Y-30797000D03*
X50165000Y-28257000D03*
D11*
X47625000Y-33337000D03*
D12*
X42545000Y-33337000D03*
X52705000Y-33337000D03*
%TD*%
D13*
%TO.C,D4*%
X55125000Y-39837000D03*
D14*
X47505000Y-39837000D03*
%TD*%
D10*
%TO.C,SW5*%
X62865000Y-30797000D03*
X69215000Y-28257000D03*
D11*
X66675000Y-33337000D03*
D12*
X61595000Y-33337000D03*
X71755000Y-33337000D03*
%TD*%
D13*
%TO.C,D5*%
X74175000Y-39837000D03*
D14*
X66555000Y-39837000D03*
%TD*%
D10*
%TO.C,SW6*%
X81915000Y-30797000D03*
X88265000Y-28257000D03*
D11*
X85725000Y-33337000D03*
D12*
X80645000Y-33337000D03*
X90805000Y-33337000D03*
%TD*%
D13*
%TO.C,D6*%
X93225000Y-39837000D03*
D14*
X85605000Y-39837000D03*
%TD*%
D10*
%TO.C,SW7*%
X5715000Y-49848000D03*
X12065000Y-47308000D03*
D11*
X9525000Y-52388000D03*
D12*
X4445000Y-52388000D03*
X14605000Y-52388000D03*
%TD*%
D13*
%TO.C,D7*%
X17025000Y-58888000D03*
D14*
X9405000Y-58888000D03*
%TD*%
D10*
%TO.C,SW8*%
X24765000Y-49848000D03*
X31115000Y-47308000D03*
D11*
X28575000Y-52388000D03*
D12*
X23495000Y-52388000D03*
X33655000Y-52388000D03*
%TD*%
D13*
%TO.C,D8*%
X36075000Y-58888000D03*
D14*
X28455000Y-58888000D03*
%TD*%
D10*
%TO.C,SW9*%
X43815000Y-49848000D03*
X50165000Y-47308000D03*
D11*
X47625000Y-52388000D03*
D12*
X42545000Y-52388000D03*
X52705000Y-52388000D03*
%TD*%
D13*
%TO.C,D9*%
X55125000Y-58888000D03*
D14*
X47505000Y-58888000D03*
%TD*%
D10*
%TO.C,SW10*%
X62865000Y-49848000D03*
X69215000Y-47308000D03*
D11*
X66675000Y-52388000D03*
D12*
X61595000Y-52388000D03*
X71755000Y-52388000D03*
%TD*%
D13*
%TO.C,D10*%
X74175000Y-58888000D03*
D14*
X66555000Y-58888000D03*
%TD*%
D10*
%TO.C,SW11*%
X81915000Y-49848000D03*
X88265000Y-47308000D03*
D11*
X85725000Y-52388000D03*
D12*
X80645000Y-52388000D03*
X90805000Y-52388000D03*
%TD*%
D13*
%TO.C,D11*%
X93225000Y-58888000D03*
D14*
X85605000Y-58888000D03*
%TD*%
D10*
%TO.C,SW12*%
X5715000Y-68898000D03*
X12065000Y-66358000D03*
D11*
X9525000Y-71438000D03*
D12*
X4445000Y-71438000D03*
X14605000Y-71438000D03*
%TD*%
D13*
%TO.C,D12*%
X17025000Y-77938000D03*
D14*
X9405000Y-77938000D03*
%TD*%
D10*
%TO.C,SW13*%
X24765000Y-68898000D03*
X31115000Y-66358000D03*
D11*
X28575000Y-71438000D03*
D12*
X23495000Y-71438000D03*
X33655000Y-71438000D03*
%TD*%
D13*
%TO.C,D13*%
X36075000Y-77938000D03*
D14*
X28455000Y-77938000D03*
%TD*%
D10*
%TO.C,SW14*%
X43815000Y-68898000D03*
X50165000Y-66358000D03*
D11*
X47625000Y-71438000D03*
D12*
X42545000Y-71438000D03*
X52705000Y-71438000D03*
%TD*%
D13*
%TO.C,D14*%
X55125000Y-77938000D03*
D14*
X47505000Y-77938000D03*
%TD*%
D10*
%TO.C,SW15*%
X62865000Y-68898000D03*
X69215000Y-66358000D03*
D11*
X66675000Y-71438000D03*
D12*
X61595000Y-71438000D03*
X71755000Y-71438000D03*
%TD*%
D13*
%TO.C,D15*%
X74175000Y-77938000D03*
D14*
X66555000Y-77938000D03*
%TD*%
D10*
%TO.C,SW16*%
X81915000Y-68898000D03*
X88265000Y-66358000D03*
D11*
X85725000Y-71438000D03*
D12*
X80645000Y-71438000D03*
X90805000Y-71438000D03*
%TD*%
D13*
%TO.C,D16*%
X93225000Y-77938000D03*
D14*
X85605000Y-77938000D03*
%TD*%
D10*
%TO.C,SW17*%
X5715000Y-87947000D03*
X12065000Y-85407000D03*
D11*
X9525000Y-90487000D03*
D12*
X4445000Y-90487000D03*
X14605000Y-90487000D03*
%TD*%
D13*
%TO.C,D17*%
X17025000Y-96987000D03*
D14*
X9405000Y-96987000D03*
%TD*%
D10*
%TO.C,SW18*%
X24765000Y-87947000D03*
X31115000Y-85407000D03*
D11*
X28575000Y-90487000D03*
D12*
X23495000Y-90487000D03*
X33655000Y-90487000D03*
%TD*%
D13*
%TO.C,D18*%
X36075000Y-96987000D03*
D14*
X28455000Y-96987000D03*
%TD*%
D10*
%TO.C,SW19*%
X43815000Y-87947000D03*
X50165000Y-85407000D03*
D11*
X47625000Y-90487000D03*
D12*
X42545000Y-90487000D03*
X52705000Y-90487000D03*
%TD*%
D13*
%TO.C,D19*%
X55125000Y-96987000D03*
D14*
X47505000Y-96987000D03*
%TD*%
D10*
%TO.C,SW20*%
X62865000Y-87947000D03*
X69215000Y-85407000D03*
D11*
X66675000Y-90487000D03*
D12*
X61595000Y-90487000D03*
X71755000Y-90487000D03*
%TD*%
D13*
%TO.C,D20*%
X74175000Y-96987000D03*
D14*
X66555000Y-96987000D03*
%TD*%
D10*
%TO.C,SW21*%
X81915000Y-87947000D03*
X88265000Y-85407000D03*
D11*
X85725000Y-90487000D03*
D12*
X80645000Y-90487000D03*
X90805000Y-90487000D03*
%TD*%
D13*
%TO.C,D21*%
X93225000Y-96987000D03*
D14*
X85605000Y-96987000D03*
%TD*%
D10*
%TO.C,SW22*%
X5715000Y-106998000D03*
X12065000Y-104458000D03*
D11*
X9525000Y-109538000D03*
D12*
X4445000Y-109538000D03*
X14605000Y-109538000D03*
%TD*%
D13*
%TO.C,D22*%
X17025000Y-116038000D03*
D14*
X9405000Y-116038000D03*
%TD*%
D10*
%TO.C,SW23*%
X24765000Y-106998000D03*
X31115000Y-104458000D03*
D11*
X28575000Y-109538000D03*
D12*
X23495000Y-109538000D03*
X33655000Y-109538000D03*
%TD*%
D13*
%TO.C,D23*%
X36075000Y-116038000D03*
D14*
X28455000Y-116038000D03*
%TD*%
D10*
%TO.C,SW24*%
X43815000Y-106998000D03*
X50165000Y-104458000D03*
D11*
X47625000Y-109538000D03*
D12*
X42545000Y-109538000D03*
X52705000Y-109538000D03*
%TD*%
D13*
%TO.C,D24*%
X55125000Y-116038000D03*
D14*
X47505000Y-116038000D03*
%TD*%
D10*
%TO.C,SW25*%
X62865000Y-106998000D03*
X69215000Y-104458000D03*
D11*
X66675000Y-109538000D03*
D12*
X61595000Y-109538000D03*
X71755000Y-109538000D03*
%TD*%
D13*
%TO.C,D25*%
X74175000Y-116038000D03*
D14*
X66555000Y-116038000D03*
%TD*%
D10*
%TO.C,SW26*%
X81915000Y-106998000D03*
X88265000Y-104458000D03*
D11*
X85725000Y-109538000D03*
D12*
X80645000Y-109538000D03*
X90805000Y-109538000D03*
%TD*%
D13*
%TO.C,D26*%
X93225000Y-116038000D03*
D14*
X85605000Y-116038000D03*
%TD*%
D15*
%TO.C,J101*%
X70250000Y9030000D03*
D10*
X70250000Y11570000D03*
X70250000Y14110000D03*
X70250000Y16650000D03*
X70250000Y19190000D03*
X70250000Y21730000D03*
X70250000Y24270000D03*
X70250000Y26810000D03*
X70250000Y29350000D03*
X70250000Y31890000D03*
X70250000Y34430000D03*
X70250000Y36970000D03*
%TD*%
D15*
%TO.C,J102*%
X80250000Y9030000D03*
D10*
X80250000Y11570000D03*
X80250000Y14110000D03*
X80250000Y16650000D03*
X80250000Y19190000D03*
X80250000Y21730000D03*
X80250000Y24270000D03*
X80250000Y26810000D03*
X80250000Y29350000D03*
X80250000Y31890000D03*
X80250000Y34430000D03*
X80250000Y36970000D03*
%TD*%
D15*
%TO.C,J201*%
X92250000Y20460000D03*
D10*
X92250000Y23000000D03*
X92250000Y25540000D03*
%TD*%
D15*
%TO.C,J202*%
X92250000Y10460000D03*
D10*
X92250000Y13000000D03*
X92250000Y15540000D03*
%TD*%
D15*
%TO.C,J301*%
X92250000Y460000D03*
D10*
X92250000Y3000000D03*
X92250000Y5540000D03*
%TD*%
D15*
%TO.C,J302*%
X92250000Y-10810000D03*
D10*
X92250000Y-8270000D03*
X92250000Y-5730000D03*
X92250000Y-3190000D03*
%TD*%
D16*
%TO.C,R401*%
X75250000Y3000000D03*
D14*
X82870000Y3000000D03*
%TD*%
D13*
%TO.C,C401*%
X99250000Y-5000000D03*
D16*
X102750000Y-5000000D03*
%TD*%
D17*
%TO.C,SW401*%
X75750000Y-22500000D03*
D18*
X80750000Y-22500000D03*
X78250000Y-22500000D03*
X75750000Y-7500000D03*
X80750000Y-7500000D03*
%TD*%
M02*
