%TF.GenerationSoftware,KiCad,Pcbnew,9.0.7*%
%TF.CreationDate,2026-03-05T15:40:12-05:00*%
%TF.ProjectId,Macropad,4d616372-6f70-4616-942e-6b696361645f,rev?*%
%TF.SameCoordinates,Original*%
%TF.FileFunction,Soldermask,Top*%
%TF.FilePolarity,Negative*%
%FSLAX46Y46*%
G04 Gerber Fmt 4.6, Leading zero omitted, Abs format (unit mm)*
G04 Created by KiCad (PCBNEW 9.0.7) date 2026-03-05 15:40:12*
%MOMM*%
%LPD*%
G01*
G04 APERTURE LIST*
G04 Aperture macros list*
%AMRoundRect*
0 Rectangle with rounded corners*
0 $1 Rounding radius*
0 $2 $3 $4 $5 $6 $7 $8 $9 X,Y pos of 4 corners*
0 Add a 4 corners polygon primitive as box body*
4,1,4,$2,$3,$4,$5,$6,$7,$8,$9,$2,$3,0*
0 Add four circle primitives for the rounded corners*
1,1,$1+$1,$2,$3*
1,1,$1+$1,$4,$5*
1,1,$1+$1,$6,$7*
1,1,$1+$1,$8,$9*
0 Add four rect primitives between the rounded corners*
20,1,$1+$1,$2,$3,$4,$5,0*
20,1,$1+$1,$4,$5,$6,$7,0*
20,1,$1+$1,$6,$7,$8,$9,0*
20,1,$1+$1,$8,$9,$2,$3,0*%
G04 Aperture macros list end*
%ADD10RoundRect,0.200000X-0.200000X-0.275000X0.200000X-0.275000X0.200000X0.275000X-0.200000X0.275000X0*%
%ADD11RoundRect,0.200000X0.200000X0.275000X-0.200000X0.275000X-0.200000X-0.275000X0.200000X-0.275000X0*%
%ADD12RoundRect,0.160000X-0.390000X-0.240000X0.390000X-0.240000X0.390000X0.240000X-0.390000X0.240000X0*%
%ADD13R,1.700000X1.700000*%
%ADD14C,1.700000*%
%ADD15C,1.750000*%
%ADD16C,4.000000*%
%ADD17O,8.000000X3.600000*%
%ADD18R,1.600000X1.600000*%
%ADD19C,1.600000*%
%ADD20C,3.200000*%
%ADD21RoundRect,0.150000X-0.512500X-0.150000X0.512500X-0.150000X0.512500X0.150000X-0.512500X0.150000X0*%
%ADD22O,1.700000X1.700000*%
%ADD23RoundRect,0.250000X-1.000000X-1.250000X1.000000X-1.250000X1.000000X1.250000X-1.000000X1.250000X0*%
%ADD24RoundRect,0.200000X0.275000X-0.200000X0.275000X0.200000X-0.275000X0.200000X-0.275000X-0.200000X0*%
%ADD25RoundRect,0.243750X-0.243750X-0.456250X0.243750X-0.456250X0.243750X0.456250X-0.243750X0.456250X0*%
%ADD26RoundRect,0.175000X-0.175000X-0.425000X0.175000X-0.425000X0.175000X0.425000X-0.175000X0.425000X0*%
%ADD27RoundRect,0.075000X-0.075000X-0.525000X0.075000X-0.525000X0.075000X0.525000X-0.075000X0.525000X0*%
%ADD28RoundRect,0.190000X0.190000X0.410000X-0.190000X0.410000X-0.190000X-0.410000X0.190000X-0.410000X0*%
%ADD29RoundRect,0.200000X0.200000X0.400000X-0.200000X0.400000X-0.200000X-0.400000X0.200000X-0.400000X0*%
%ADD30RoundRect,0.175000X0.175000X0.425000X-0.175000X0.425000X-0.175000X-0.425000X0.175000X-0.425000X0*%
%ADD31RoundRect,0.190000X-0.190000X-0.410000X0.190000X-0.410000X0.190000X0.410000X-0.190000X0.410000X0*%
%ADD32RoundRect,0.200000X-0.200000X-0.400000X0.200000X-0.400000X0.200000X0.400000X-0.200000X0.400000X0*%
%ADD33O,1.100000X1.700000*%
%ADD34RoundRect,0.240000X-0.360000X-0.460000X0.360000X-0.460000X0.360000X0.460000X-0.360000X0.460000X0*%
%ADD35RoundRect,0.375000X-0.625000X-0.375000X0.625000X-0.375000X0.625000X0.375000X-0.625000X0.375000X0*%
%ADD36RoundRect,0.500000X-0.500000X-1.400000X0.500000X-1.400000X0.500000X1.400000X-0.500000X1.400000X0*%
%ADD37R,1.800000X1.800000*%
%ADD38C,1.800000*%
%ADD39R,1.500000X0.900000*%
%ADD40R,3.900000X3.900000*%
%ADD41O,1.600000X1.600000*%
G04 APERTURE END LIST*
D10*
%TO.C,C409*%
X98137500Y-12950000D03*
X99787500Y-12950000D03*
%TD*%
D11*
%TO.C,R409*%
X95500000Y24950000D03*
X93850000Y24950000D03*
%TD*%
D12*
%TO.C,RGB1*%
X7975000Y-14675000D03*
X11075000Y-14675000D03*
X11075000Y-16375000D03*
X7975000Y-16375000D03*
%TD*%
D13*
%TO.C,J202*%
X104000000Y19460000D03*
D14*
X104000000Y22000000D03*
X104000000Y24540000D03*
%TD*%
D15*
%TO.C,SW26*%
X80645000Y-109538000D03*
D16*
X85725000Y-109538000D03*
D15*
X90805000Y-109538000D03*
D17*
X81915000Y-106998000D03*
X88265000Y-104458000D03*
%TD*%
D15*
%TO.C,SW14*%
X42545000Y-71438000D03*
D16*
X47625000Y-71438000D03*
D15*
X52705000Y-71438000D03*
D17*
X43815000Y-68898000D03*
X50165000Y-66358000D03*
%TD*%
D18*
%TO.C,C401*%
X99250000Y-5000000D03*
D19*
X102750000Y-5000000D03*
%TD*%
D12*
%TO.C,RGB2*%
X7975000Y-38487000D03*
X11075000Y-38487000D03*
X11075000Y-40187000D03*
X7975000Y-40187000D03*
%TD*%
%TO.C,RGB26*%
X84175000Y-114688000D03*
X87275000Y-114688000D03*
X87275000Y-116388000D03*
X84175000Y-116388000D03*
%TD*%
D20*
%TO.C,H4*%
X102250000Y-119000000D03*
%TD*%
D12*
%TO.C,RGB7*%
X7975000Y-57538000D03*
X11075000Y-57538000D03*
X11075000Y-59238000D03*
X7975000Y-59238000D03*
%TD*%
%TO.C,RGB22*%
X7975000Y-114688000D03*
X11075000Y-114688000D03*
X11075000Y-116388000D03*
X7975000Y-116388000D03*
%TD*%
D10*
%TO.C,C406*%
X66500000Y26990000D03*
X68150000Y26990000D03*
%TD*%
%TO.C,C402*%
X92175000Y-24000000D03*
X93825000Y-24000000D03*
%TD*%
D15*
%TO.C,SW10*%
X61595000Y-52388000D03*
D16*
X66675000Y-52388000D03*
D15*
X71755000Y-52388000D03*
D17*
X62865000Y-49848000D03*
X69215000Y-47308000D03*
%TD*%
D15*
%TO.C,SW23*%
X23495000Y-109538000D03*
D16*
X28575000Y-109538000D03*
D15*
X33655000Y-109538000D03*
D17*
X24765000Y-106998000D03*
X31115000Y-104458000D03*
%TD*%
D12*
%TO.C,RGB21*%
X84175000Y-95637000D03*
X87275000Y-95637000D03*
X87275000Y-97337000D03*
X84175000Y-97337000D03*
%TD*%
%TO.C,RGB15*%
X65125000Y-76588000D03*
X68225000Y-76588000D03*
X68225000Y-78288000D03*
X65125000Y-78288000D03*
%TD*%
D21*
%TO.C,U403*%
X88862500Y-21050000D03*
X88862500Y-22000000D03*
X88862500Y-22950000D03*
X91137500Y-22950000D03*
X91137500Y-21050000D03*
%TD*%
D15*
%TO.C,SW21*%
X80645000Y-90487000D03*
D16*
X85725000Y-90487000D03*
D15*
X90805000Y-90487000D03*
D17*
X81915000Y-87947000D03*
X88265000Y-85407000D03*
%TD*%
D13*
%TO.C,J303*%
X38000000Y6500000D03*
D14*
X35460000Y6500000D03*
X32920000Y6500000D03*
X30380000Y6500000D03*
%TD*%
D10*
%TO.C,C404*%
X95175000Y-33000000D03*
X96825000Y-33000000D03*
%TD*%
D15*
%TO.C,SW16*%
X80645000Y-71438000D03*
D16*
X85725000Y-71438000D03*
D15*
X90805000Y-71438000D03*
D17*
X81915000Y-68898000D03*
X88265000Y-66358000D03*
%TD*%
D12*
%TO.C,RGB23*%
X27025000Y-114688000D03*
X30125000Y-114688000D03*
X30125000Y-116388000D03*
X27025000Y-116388000D03*
%TD*%
D13*
%TO.C,J301*%
X34540000Y38000000D03*
D14*
X32000000Y38000000D03*
X29460000Y38000000D03*
%TD*%
D12*
%TO.C,RGB16*%
X84175000Y-76588000D03*
X87275000Y-76588000D03*
X87275000Y-78288000D03*
X84175000Y-78288000D03*
%TD*%
D10*
%TO.C,R404*%
X96175000Y-22000000D03*
X97825000Y-22000000D03*
%TD*%
D12*
%TO.C,RGB8*%
X27025000Y-57538000D03*
X30125000Y-57538000D03*
X30125000Y-59238000D03*
X27025000Y-59238000D03*
%TD*%
D13*
%TO.C,JP403*%
X12000000Y35000000D03*
D22*
X9460000Y35000000D03*
%TD*%
D20*
%TO.C,H2*%
X102250000Y36000000D03*
%TD*%
D21*
%TO.C,U404*%
X95862500Y-11050000D03*
X95862500Y-12000000D03*
X95862500Y-12950000D03*
X98137500Y-12950000D03*
X98137500Y-12000000D03*
X98137500Y-11050000D03*
%TD*%
D15*
%TO.C,SW11*%
X80645000Y-52388000D03*
D16*
X85725000Y-52388000D03*
D15*
X90805000Y-52388000D03*
D17*
X81915000Y-49848000D03*
X88265000Y-47308000D03*
%TD*%
D13*
%TO.C,J400*%
X12000000Y38000000D03*
D22*
X14540000Y38000000D03*
%TD*%
D12*
%TO.C,RGB14*%
X46075000Y-76588000D03*
X49175000Y-76588000D03*
X49175000Y-78288000D03*
X46075000Y-78288000D03*
%TD*%
D10*
%TO.C,C405*%
X99175000Y-33000000D03*
X100825000Y-33000000D03*
%TD*%
D21*
%TO.C,Q501*%
X95562500Y24950000D03*
X95562500Y23050000D03*
X97437500Y24000000D03*
%TD*%
D15*
%TO.C,SW5*%
X61595000Y-33337000D03*
D16*
X66675000Y-33337000D03*
D15*
X71755000Y-33337000D03*
D17*
X62865000Y-30797000D03*
X69215000Y-28257000D03*
%TD*%
D15*
%TO.C,SW24*%
X42545000Y-109538000D03*
D16*
X47625000Y-109538000D03*
D15*
X52705000Y-109538000D03*
D17*
X43815000Y-106998000D03*
X50165000Y-104458000D03*
%TD*%
D23*
%TO.C,L401*%
X4000000Y38000000D03*
X8000000Y38000000D03*
%TD*%
D24*
%TO.C,F401*%
X14540000Y35675000D03*
X14540000Y37325000D03*
%TD*%
D12*
%TO.C,RGB9*%
X46075000Y-57538000D03*
X49175000Y-57538000D03*
X49175000Y-59238000D03*
X46075000Y-59238000D03*
%TD*%
D25*
%TO.C,R401*%
X78122500Y3000000D03*
X79997500Y3000000D03*
%TD*%
D12*
%TO.C,RGB18*%
X27025000Y-95637000D03*
X30125000Y-95637000D03*
X30125000Y-97337000D03*
X27025000Y-97337000D03*
%TD*%
%TO.C,RGB6*%
X84175000Y-38487000D03*
X87275000Y-38487000D03*
X87275000Y-40187000D03*
X84175000Y-40187000D03*
%TD*%
D24*
%TO.C,R403*%
X52675000Y31500000D03*
X54325000Y31500000D03*
%TD*%
D10*
%TO.C,C403*%
X93175000Y-27000000D03*
X94825000Y-27000000D03*
%TD*%
D12*
%TO.C,RGB13*%
X27025000Y-76588000D03*
X30125000Y-76588000D03*
X30125000Y-78288000D03*
X27025000Y-78288000D03*
%TD*%
%TO.C,RGB11*%
X84175000Y-57538000D03*
X87275000Y-57538000D03*
X87275000Y-59238000D03*
X84175000Y-59238000D03*
%TD*%
D15*
%TO.C,SW19*%
X42545000Y-90487000D03*
D16*
X47625000Y-90487000D03*
D15*
X52705000Y-90487000D03*
D17*
X43815000Y-87947000D03*
X50165000Y-85407000D03*
%TD*%
D15*
%TO.C,SW25*%
X61595000Y-109538000D03*
D16*
X66675000Y-109538000D03*
D15*
X71755000Y-109538000D03*
D17*
X62865000Y-106998000D03*
X69215000Y-104458000D03*
%TD*%
D15*
%TO.C,SW7*%
X4445000Y-52388000D03*
D16*
X9525000Y-52388000D03*
D15*
X14605000Y-52388000D03*
D17*
X5715000Y-49848000D03*
X12065000Y-47308000D03*
%TD*%
D20*
%TO.C,H3*%
X0Y-119000000D03*
%TD*%
D25*
%TO.C,R410*%
X101187500Y24540000D03*
X103062500Y24540000D03*
%TD*%
D12*
%TO.C,RGB25*%
X65125000Y-114688000D03*
X68225000Y-114688000D03*
X68225000Y-116388000D03*
X65125000Y-116388000D03*
%TD*%
D10*
%TO.C,R406*%
X95175000Y-39000000D03*
X96825000Y-39000000D03*
%TD*%
D15*
%TO.C,SW22*%
X4445000Y-109538000D03*
D16*
X9525000Y-109538000D03*
D15*
X14605000Y-109538000D03*
D17*
X5715000Y-106998000D03*
X12065000Y-104458000D03*
%TD*%
D15*
%TO.C,SW1*%
X4445000Y-9525000D03*
D16*
X9525000Y-9525000D03*
D15*
X14605000Y-9525000D03*
D17*
X5715000Y-6985000D03*
X12065000Y-4445000D03*
%TD*%
D20*
%TO.C,H1*%
X0Y36000000D03*
%TD*%
D15*
%TO.C,SW15*%
X61595000Y-71438000D03*
D16*
X66675000Y-71438000D03*
D15*
X71755000Y-71438000D03*
D17*
X62865000Y-68898000D03*
X69215000Y-66358000D03*
%TD*%
D26*
%TO.C,J402*%
X50625000Y39080000D03*
D27*
X51875000Y39080000D03*
X50375000Y39080000D03*
D28*
X52645000Y39080000D03*
D29*
X53875000Y39080000D03*
D30*
X51625000Y39080000D03*
D27*
X51875000Y39080000D03*
X50375000Y39080000D03*
D31*
X49605000Y39080000D03*
D32*
X48375000Y39080000D03*
D33*
X46805000Y39000000D03*
X46805000Y35200000D03*
X55445000Y39000000D03*
X55445000Y35200000D03*
%TD*%
D13*
%TO.C,J302*%
X48040000Y6500000D03*
D14*
X45500000Y6500000D03*
X42960000Y6500000D03*
X40420000Y6500000D03*
%TD*%
D15*
%TO.C,SW3*%
X23495000Y-33337000D03*
D16*
X28575000Y-33337000D03*
D15*
X33655000Y-33337000D03*
D17*
X24765000Y-30797000D03*
X31115000Y-28257000D03*
%TD*%
D15*
%TO.C,SW17*%
X4445000Y-90487000D03*
D16*
X9525000Y-90487000D03*
D15*
X14605000Y-90487000D03*
D17*
X5715000Y-87947000D03*
X12065000Y-85407000D03*
%TD*%
D10*
%TO.C,C408*%
X98650000Y-7000000D03*
X100300000Y-7000000D03*
%TD*%
D12*
%TO.C,RGB3*%
X27025000Y-38487000D03*
X30125000Y-38487000D03*
X30125000Y-40187000D03*
X27025000Y-40187000D03*
%TD*%
%TO.C,RGB4*%
X46075000Y-38487000D03*
X49175000Y-38487000D03*
X49175000Y-40187000D03*
X46075000Y-40187000D03*
%TD*%
%TO.C,RGB5*%
X65125000Y-38487000D03*
X68225000Y-38487000D03*
X68225000Y-40187000D03*
X65125000Y-40187000D03*
%TD*%
D13*
%TO.C,J304*%
X60660000Y6500000D03*
D14*
X58120000Y6500000D03*
X55580000Y6500000D03*
X53040000Y6500000D03*
X50500000Y6500000D03*
%TD*%
D13*
%TO.C,J201*%
X98250000Y25460000D03*
D14*
X98250000Y28000000D03*
X98250000Y30540000D03*
%TD*%
D15*
%TO.C,SW18*%
X23495000Y-90487000D03*
D16*
X28575000Y-90487000D03*
D15*
X33655000Y-90487000D03*
D17*
X24765000Y-87947000D03*
X31115000Y-85407000D03*
%TD*%
D34*
%TO.C,D401*%
X95350000Y-7000000D03*
X98650000Y-7000000D03*
%TD*%
D35*
%TO.C,U402*%
X96100000Y16300000D03*
X96100000Y14000000D03*
D36*
X102400000Y14000000D03*
D35*
X96100000Y11700000D03*
%TD*%
D15*
%TO.C,SW9*%
X42545000Y-52388000D03*
D16*
X47625000Y-52388000D03*
D15*
X52705000Y-52388000D03*
D17*
X43815000Y-49848000D03*
X50165000Y-47308000D03*
%TD*%
D15*
%TO.C,SW8*%
X23495000Y-52388000D03*
D16*
X28575000Y-52388000D03*
D15*
X33655000Y-52388000D03*
D17*
X24765000Y-49848000D03*
X31115000Y-47308000D03*
%TD*%
D10*
%TO.C,R405*%
X95175000Y-36000000D03*
X96825000Y-36000000D03*
%TD*%
D15*
%TO.C,SW13*%
X23495000Y-71438000D03*
D16*
X28575000Y-71438000D03*
D15*
X33655000Y-71438000D03*
D17*
X24765000Y-68898000D03*
X31115000Y-66358000D03*
%TD*%
D10*
%TO.C,R408*%
X91175000Y23000000D03*
X92825000Y23000000D03*
%TD*%
D15*
%TO.C,SW6*%
X80645000Y-33337000D03*
D16*
X85725000Y-33337000D03*
D15*
X90805000Y-33337000D03*
D17*
X81915000Y-30797000D03*
X88265000Y-28257000D03*
%TD*%
D12*
%TO.C,RGB17*%
X7975000Y-95637000D03*
X11075000Y-95637000D03*
X11075000Y-97337000D03*
X7975000Y-97337000D03*
%TD*%
%TO.C,RGB24*%
X46075000Y-114688000D03*
X49175000Y-114688000D03*
X49175000Y-116388000D03*
X46075000Y-116388000D03*
%TD*%
D10*
%TO.C,C407*%
X66500000Y25500000D03*
X68150000Y25500000D03*
%TD*%
D13*
%TO.C,J401*%
X25810000Y38000000D03*
D14*
X23270000Y38000000D03*
X20730000Y38000000D03*
X18190000Y38000000D03*
%TD*%
D12*
%TO.C,RGB12*%
X7975000Y-76588000D03*
X11075000Y-76588000D03*
X11075000Y-78288000D03*
X7975000Y-78288000D03*
%TD*%
D34*
%TO.C,D402*%
X52645000Y39080000D03*
X55945000Y39080000D03*
%TD*%
D12*
%TO.C,RGB10*%
X65125000Y-57538000D03*
X68225000Y-57538000D03*
X68225000Y-59238000D03*
X65125000Y-59238000D03*
%TD*%
%TO.C,RGB19*%
X46075000Y-95637000D03*
X49175000Y-95637000D03*
X49175000Y-97337000D03*
X46075000Y-97337000D03*
%TD*%
D15*
%TO.C,SW4*%
X42545000Y-33337000D03*
D16*
X47625000Y-33337000D03*
D15*
X52705000Y-33337000D03*
D17*
X43815000Y-30797000D03*
X50165000Y-28257000D03*
%TD*%
D15*
%TO.C,SW12*%
X4445000Y-71438000D03*
D16*
X9525000Y-71438000D03*
D15*
X14605000Y-71438000D03*
D17*
X5715000Y-68898000D03*
X12065000Y-66358000D03*
%TD*%
D12*
%TO.C,RGB20*%
X65125000Y-95637000D03*
X68225000Y-95637000D03*
X68225000Y-97337000D03*
X65125000Y-97337000D03*
%TD*%
D37*
%TO.C,SW401*%
X5500000Y2500000D03*
D38*
X10500000Y2500000D03*
X8000000Y2500000D03*
X5500000Y17500000D03*
X10500000Y17500000D03*
%TD*%
D15*
%TO.C,SW20*%
X61595000Y-90487000D03*
D16*
X66675000Y-90487000D03*
D15*
X71755000Y-90487000D03*
D17*
X62865000Y-87947000D03*
X69215000Y-85407000D03*
%TD*%
D39*
%TO.C,U901*%
X66500000Y28260000D03*
X66500000Y26990000D03*
X66500000Y25720000D03*
X66500000Y24450000D03*
X66500000Y23180000D03*
X66500000Y21910000D03*
X66500000Y20640000D03*
X66500000Y19370000D03*
X66500000Y18100000D03*
X66500000Y16830000D03*
X66500000Y15560000D03*
X66500000Y14290000D03*
X66500000Y13020000D03*
X66500000Y11750000D03*
X68265000Y10500000D03*
X69535000Y10500000D03*
X70805000Y10500000D03*
X72075000Y10500000D03*
X73345000Y10500000D03*
X74615000Y10500000D03*
X75885000Y10500000D03*
X77155000Y10500000D03*
X78425000Y10500000D03*
X79695000Y10500000D03*
X80965000Y10500000D03*
X82235000Y10500000D03*
X84000000Y11750000D03*
X84000000Y13020000D03*
X84000000Y14290000D03*
X84000000Y15560000D03*
X84000000Y16830000D03*
X84000000Y18100000D03*
X84000000Y19370000D03*
X84000000Y20640000D03*
X84000000Y21910000D03*
X84000000Y23180000D03*
X84000000Y24450000D03*
X84000000Y25720000D03*
X84000000Y26990000D03*
X84000000Y28260000D03*
D40*
X73750000Y20540000D03*
%TD*%
D24*
%TO.C,R402*%
X47675000Y31500000D03*
X49325000Y31500000D03*
%TD*%
D15*
%TO.C,SW2*%
X4445000Y-33337000D03*
D16*
X9525000Y-33337000D03*
D15*
X14605000Y-33337000D03*
D17*
X5715000Y-30797000D03*
X12065000Y-28257000D03*
%TD*%
D18*
%TO.C,D13*%
X36075000Y-77938000D03*
D41*
X28455000Y-77938000D03*
%TD*%
D18*
%TO.C,D14*%
X55125000Y-77938000D03*
D41*
X47505000Y-77938000D03*
%TD*%
D18*
%TO.C,D16*%
X93225000Y-77938000D03*
D41*
X85605000Y-77938000D03*
%TD*%
D18*
%TO.C,D9*%
X55125000Y-58888000D03*
D41*
X47505000Y-58888000D03*
%TD*%
D18*
%TO.C,D1*%
X17025000Y-16025000D03*
D41*
X9405000Y-16025000D03*
%TD*%
D18*
%TO.C,D10*%
X74175000Y-58888000D03*
D41*
X66555000Y-58888000D03*
%TD*%
D18*
%TO.C,D5*%
X74175000Y-39837000D03*
D41*
X66555000Y-39837000D03*
%TD*%
D18*
%TO.C,D4*%
X55125000Y-39837000D03*
D41*
X47505000Y-39837000D03*
%TD*%
D18*
%TO.C,D6*%
X93225000Y-39837000D03*
D41*
X85605000Y-39837000D03*
%TD*%
D18*
%TO.C,D2*%
X17025000Y-39837000D03*
D41*
X9405000Y-39837000D03*
%TD*%
D18*
%TO.C,D23*%
X36075000Y-116038000D03*
D41*
X28455000Y-116038000D03*
%TD*%
D18*
%TO.C,D3*%
X36075000Y-39837000D03*
D41*
X28455000Y-39837000D03*
%TD*%
D18*
%TO.C,D19*%
X55125000Y-96987000D03*
D41*
X47505000Y-96987000D03*
%TD*%
D18*
%TO.C,D24*%
X55125000Y-116038000D03*
D41*
X47505000Y-116038000D03*
%TD*%
D18*
%TO.C,D15*%
X74175000Y-77938000D03*
D41*
X66555000Y-77938000D03*
%TD*%
D18*
%TO.C,D25*%
X74175000Y-116038000D03*
D41*
X66555000Y-116038000D03*
%TD*%
D18*
%TO.C,D18*%
X36075000Y-96987000D03*
D41*
X28455000Y-96987000D03*
%TD*%
D18*
%TO.C,D12*%
X17025000Y-77938000D03*
D41*
X9405000Y-77938000D03*
%TD*%
D18*
%TO.C,D8*%
X36075000Y-58888000D03*
D41*
X28455000Y-58888000D03*
%TD*%
D18*
%TO.C,D21*%
X93225000Y-96987000D03*
D41*
X85605000Y-96987000D03*
%TD*%
D18*
%TO.C,D26*%
X93225000Y-116038000D03*
D41*
X85605000Y-116038000D03*
%TD*%
D18*
%TO.C,D11*%
X93225000Y-58888000D03*
D41*
X85605000Y-58888000D03*
%TD*%
D18*
%TO.C,D7*%
X17025000Y-58888000D03*
D41*
X9405000Y-58888000D03*
%TD*%
D18*
%TO.C,D22*%
X17025000Y-116038000D03*
D41*
X9405000Y-116038000D03*
%TD*%
D18*
%TO.C,D17*%
X17025000Y-96987000D03*
D41*
X9405000Y-96987000D03*
%TD*%
D18*
%TO.C,D20*%
X74175000Y-96987000D03*
D41*
X66555000Y-96987000D03*
%TD*%
M02*
