%TF.GenerationSoftware,KiCad,Pcbnew,9.0.7*%
%TF.CreationDate,2026-03-05T15:40:13-05:00*%
%TF.ProjectId,Macropad,4d616372-6f70-4616-942e-6b696361645f,rev?*%
%TF.SameCoordinates,Original*%
%TF.FileFunction,Drillmap*%
%TF.FilePolarity,Positive*%
%FSLAX45Y45*%
G04 Gerber Fmt 4.5, Leading zero omitted, Abs format (unit mm)*
G04 Created by KiCad (PCBNEW 9.0.7) date 2026-03-05 15:40:13*
%MOMM*%
%LPD*%
G01*
G04 APERTURE LIST*
%ADD10C,0.100000*%
%ADD11C,0.200000*%
%ADD12C,0.175000*%
%ADD13C,0.320000*%
%ADD14C,0.400000*%
G04 APERTURE END LIST*
D10*
X-500000Y4100000D02*
X10725000Y4100000D01*
X10725000Y-12200000D01*
X-500000Y-12200000D01*
X-500000Y4100000D01*
D11*
D12*
X357000Y-865000D02*
X532000Y-1040000D01*
X532000Y-865000D02*
X357000Y-1040000D01*
X357000Y-3246200D02*
X532000Y-3421200D01*
X532000Y-3246200D02*
X357000Y-3421200D01*
X357000Y-5151300D02*
X532000Y-5326300D01*
X532000Y-5151300D02*
X357000Y-5326300D01*
X357000Y-7056300D02*
X532000Y-7231300D01*
X532000Y-7056300D02*
X357000Y-7231300D01*
X357000Y-8961200D02*
X532000Y-9136200D01*
X532000Y-8961200D02*
X357000Y-9136200D01*
X357000Y-10866300D02*
X532000Y-11041300D01*
X532000Y-10866300D02*
X357000Y-11041300D01*
X1373000Y-865000D02*
X1548000Y-1040000D01*
X1548000Y-865000D02*
X1373000Y-1040000D01*
X1373000Y-3246200D02*
X1548000Y-3421200D01*
X1548000Y-3246200D02*
X1373000Y-3421200D01*
X1373000Y-5151300D02*
X1548000Y-5326300D01*
X1548000Y-5151300D02*
X1373000Y-5326300D01*
X1373000Y-7056300D02*
X1548000Y-7231300D01*
X1548000Y-7056300D02*
X1373000Y-7231300D01*
X1373000Y-8961200D02*
X1548000Y-9136200D01*
X1548000Y-8961200D02*
X1373000Y-9136200D01*
X1373000Y-10866300D02*
X1548000Y-11041300D01*
X1548000Y-10866300D02*
X1373000Y-11041300D01*
X2262000Y-3246200D02*
X2437000Y-3421200D01*
X2437000Y-3246200D02*
X2262000Y-3421200D01*
X2262000Y-5151300D02*
X2437000Y-5326300D01*
X2437000Y-5151300D02*
X2262000Y-5326300D01*
X2262000Y-7056300D02*
X2437000Y-7231300D01*
X2437000Y-7056300D02*
X2262000Y-7231300D01*
X2262000Y-8961200D02*
X2437000Y-9136200D01*
X2437000Y-8961200D02*
X2262000Y-9136200D01*
X2262000Y-10866300D02*
X2437000Y-11041300D01*
X2437000Y-10866300D02*
X2262000Y-11041300D01*
X3278000Y-3246200D02*
X3453000Y-3421200D01*
X3453000Y-3246200D02*
X3278000Y-3421200D01*
X3278000Y-5151300D02*
X3453000Y-5326300D01*
X3453000Y-5151300D02*
X3278000Y-5326300D01*
X3278000Y-7056300D02*
X3453000Y-7231300D01*
X3453000Y-7056300D02*
X3278000Y-7231300D01*
X3278000Y-8961200D02*
X3453000Y-9136200D01*
X3453000Y-8961200D02*
X3278000Y-9136200D01*
X3278000Y-10866300D02*
X3453000Y-11041300D01*
X3453000Y-10866300D02*
X3278000Y-11041300D01*
X4167000Y-3246200D02*
X4342000Y-3421200D01*
X4342000Y-3246200D02*
X4167000Y-3421200D01*
X4167000Y-5151300D02*
X4342000Y-5326300D01*
X4342000Y-5151300D02*
X4167000Y-5326300D01*
X4167000Y-7056300D02*
X4342000Y-7231300D01*
X4342000Y-7056300D02*
X4167000Y-7231300D01*
X4167000Y-8961200D02*
X4342000Y-9136200D01*
X4342000Y-8961200D02*
X4167000Y-9136200D01*
X4167000Y-10866300D02*
X4342000Y-11041300D01*
X4342000Y-10866300D02*
X4167000Y-11041300D01*
X5183000Y-3246200D02*
X5358000Y-3421200D01*
X5358000Y-3246200D02*
X5183000Y-3421200D01*
X5183000Y-5151300D02*
X5358000Y-5326300D01*
X5358000Y-5151300D02*
X5183000Y-5326300D01*
X5183000Y-7056300D02*
X5358000Y-7231300D01*
X5358000Y-7056300D02*
X5183000Y-7231300D01*
X5183000Y-8961200D02*
X5358000Y-9136200D01*
X5358000Y-8961200D02*
X5183000Y-9136200D01*
X5183000Y-10866300D02*
X5358000Y-11041300D01*
X5358000Y-10866300D02*
X5183000Y-11041300D01*
X6072000Y-3246200D02*
X6247000Y-3421200D01*
X6247000Y-3246200D02*
X6072000Y-3421200D01*
X6072000Y-5151300D02*
X6247000Y-5326300D01*
X6247000Y-5151300D02*
X6072000Y-5326300D01*
X6072000Y-7056300D02*
X6247000Y-7231300D01*
X6247000Y-7056300D02*
X6072000Y-7231300D01*
X6072000Y-8961200D02*
X6247000Y-9136200D01*
X6247000Y-8961200D02*
X6072000Y-9136200D01*
X6072000Y-10866300D02*
X6247000Y-11041300D01*
X6247000Y-10866300D02*
X6072000Y-11041300D01*
X7088000Y-3246200D02*
X7263000Y-3421200D01*
X7263000Y-3246200D02*
X7088000Y-3421200D01*
X7088000Y-5151300D02*
X7263000Y-5326300D01*
X7263000Y-5151300D02*
X7088000Y-5326300D01*
X7088000Y-7056300D02*
X7263000Y-7231300D01*
X7263000Y-7056300D02*
X7088000Y-7231300D01*
X7088000Y-8961200D02*
X7263000Y-9136200D01*
X7263000Y-8961200D02*
X7088000Y-9136200D01*
X7088000Y-10866300D02*
X7263000Y-11041300D01*
X7263000Y-10866300D02*
X7088000Y-11041300D01*
X7977000Y-3246200D02*
X8152000Y-3421200D01*
X8152000Y-3246200D02*
X7977000Y-3421200D01*
X7977000Y-5151300D02*
X8152000Y-5326300D01*
X8152000Y-5151300D02*
X7977000Y-5326300D01*
X7977000Y-7056300D02*
X8152000Y-7231300D01*
X8152000Y-7056300D02*
X7977000Y-7231300D01*
X7977000Y-8961200D02*
X8152000Y-9136200D01*
X8152000Y-8961200D02*
X7977000Y-9136200D01*
X7977000Y-10866300D02*
X8152000Y-11041300D01*
X8152000Y-10866300D02*
X7977000Y-11041300D01*
X8993000Y-3246200D02*
X9168000Y-3421200D01*
X9168000Y-3246200D02*
X8993000Y-3421200D01*
X8993000Y-5151300D02*
X9168000Y-5326300D01*
X9168000Y-5151300D02*
X8993000Y-5326300D01*
X8993000Y-7056300D02*
X9168000Y-7231300D01*
X9168000Y-7056300D02*
X8993000Y-7231300D01*
X8993000Y-8961200D02*
X9168000Y-9136200D01*
X9168000Y-8961200D02*
X8993000Y-9136200D01*
X8993000Y-10866300D02*
X9168000Y-11041300D01*
X9168000Y-10866300D02*
X8993000Y-11041300D01*
D13*
X160000Y3600000D02*
G75*
G02*
X-160000Y3600000I-160000J0D01*
G01*
X-160000Y3600000D02*
G75*
G02*
X160000Y3600000I160000J0D01*
G01*
X160000Y-11900000D02*
G75*
G02*
X-160000Y-11900000I-160000J0D01*
G01*
X-160000Y-11900000D02*
G75*
G02*
X160000Y-11900000I160000J0D01*
G01*
X10385000Y3600000D02*
G75*
G02*
X10065000Y3600000I-160000J0D01*
G01*
X10065000Y3600000D02*
G75*
G02*
X10385000Y3600000I160000J0D01*
G01*
X10385000Y-11900000D02*
G75*
G02*
X10065000Y-11900000I-160000J0D01*
G01*
X10065000Y-11900000D02*
G75*
G02*
X10385000Y-11900000I160000J0D01*
G01*
D14*
X952500Y-752500D02*
X952500Y-1152500D01*
X752500Y-952500D02*
X1152500Y-952500D01*
X952500Y-3133700D02*
X952500Y-3533700D01*
X752500Y-3333700D02*
X1152500Y-3333700D01*
X952500Y-5038800D02*
X952500Y-5438800D01*
X752500Y-5238800D02*
X1152500Y-5238800D01*
X952500Y-6943800D02*
X952500Y-7343800D01*
X752500Y-7143800D02*
X1152500Y-7143800D01*
X952500Y-8848700D02*
X952500Y-9248700D01*
X752500Y-9048700D02*
X1152500Y-9048700D01*
X952500Y-10753800D02*
X952500Y-11153800D01*
X752500Y-10953800D02*
X1152500Y-10953800D01*
X2857500Y-3133700D02*
X2857500Y-3533700D01*
X2657500Y-3333700D02*
X3057500Y-3333700D01*
X2857500Y-5038800D02*
X2857500Y-5438800D01*
X2657500Y-5238800D02*
X3057500Y-5238800D01*
X2857500Y-6943800D02*
X2857500Y-7343800D01*
X2657500Y-7143800D02*
X3057500Y-7143800D01*
X2857500Y-8848700D02*
X2857500Y-9248700D01*
X2657500Y-9048700D02*
X3057500Y-9048700D01*
X2857500Y-10753800D02*
X2857500Y-11153800D01*
X2657500Y-10953800D02*
X3057500Y-10953800D01*
X4762500Y-3133700D02*
X4762500Y-3533700D01*
X4562500Y-3333700D02*
X4962500Y-3333700D01*
X4762500Y-5038800D02*
X4762500Y-5438800D01*
X4562500Y-5238800D02*
X4962500Y-5238800D01*
X4762500Y-6943800D02*
X4762500Y-7343800D01*
X4562500Y-7143800D02*
X4962500Y-7143800D01*
X4762500Y-8848700D02*
X4762500Y-9248700D01*
X4562500Y-9048700D02*
X4962500Y-9048700D01*
X4762500Y-10753800D02*
X4762500Y-11153800D01*
X4562500Y-10953800D02*
X4962500Y-10953800D01*
X6667500Y-3133700D02*
X6667500Y-3533700D01*
X6467500Y-3333700D02*
X6867500Y-3333700D01*
X6667500Y-5038800D02*
X6667500Y-5438800D01*
X6467500Y-5238800D02*
X6867500Y-5238800D01*
X6667500Y-6943800D02*
X6667500Y-7343800D01*
X6467500Y-7143800D02*
X6867500Y-7143800D01*
X6667500Y-8848700D02*
X6667500Y-9248700D01*
X6467500Y-9048700D02*
X6867500Y-9048700D01*
X6667500Y-10753800D02*
X6667500Y-11153800D01*
X6467500Y-10953800D02*
X6867500Y-10953800D01*
X8572500Y-3133700D02*
X8572500Y-3533700D01*
X8372500Y-3333700D02*
X8772500Y-3333700D01*
X8572500Y-5038800D02*
X8572500Y-5438800D01*
X8372500Y-5238800D02*
X8772500Y-5238800D01*
X8572500Y-6943800D02*
X8572500Y-7343800D01*
X8372500Y-7143800D02*
X8772500Y-7143800D01*
X8572500Y-8848700D02*
X8572500Y-9248700D01*
X8372500Y-9048700D02*
X8772500Y-9048700D01*
X8572500Y-10753800D02*
X8572500Y-11153800D01*
X8372500Y-10953800D02*
X8772500Y-10953800D01*
D11*
X-244223Y-12516484D02*
X-244223Y-12316484D01*
X-244223Y-12316484D02*
X-196604Y-12316484D01*
X-196604Y-12316484D02*
X-168033Y-12326008D01*
X-168033Y-12326008D02*
X-148985Y-12345055D01*
X-148985Y-12345055D02*
X-139461Y-12364103D01*
X-139461Y-12364103D02*
X-129937Y-12402198D01*
X-129937Y-12402198D02*
X-129937Y-12430769D01*
X-129937Y-12430769D02*
X-139461Y-12468865D01*
X-139461Y-12468865D02*
X-148985Y-12487912D01*
X-148985Y-12487912D02*
X-168033Y-12506960D01*
X-168033Y-12506960D02*
X-196604Y-12516484D01*
X-196604Y-12516484D02*
X-244223Y-12516484D01*
X-44223Y-12516484D02*
X-44223Y-12383150D01*
X-44223Y-12421246D02*
X-34699Y-12402198D01*
X-34699Y-12402198D02*
X-25175Y-12392674D01*
X-25175Y-12392674D02*
X-6128Y-12383150D01*
X-6128Y-12383150D02*
X12920Y-12383150D01*
X79586Y-12516484D02*
X79586Y-12383150D01*
X79586Y-12316484D02*
X70063Y-12326008D01*
X70063Y-12326008D02*
X79586Y-12335531D01*
X79586Y-12335531D02*
X89110Y-12326008D01*
X89110Y-12326008D02*
X79586Y-12316484D01*
X79586Y-12316484D02*
X79586Y-12335531D01*
X203396Y-12516484D02*
X184348Y-12506960D01*
X184348Y-12506960D02*
X174824Y-12487912D01*
X174824Y-12487912D02*
X174824Y-12316484D01*
X308158Y-12516484D02*
X289110Y-12506960D01*
X289110Y-12506960D02*
X279586Y-12487912D01*
X279586Y-12487912D02*
X279586Y-12316484D01*
X536729Y-12516484D02*
X536729Y-12316484D01*
X536729Y-12316484D02*
X603396Y-12459341D01*
X603396Y-12459341D02*
X670063Y-12316484D01*
X670063Y-12316484D02*
X670063Y-12516484D01*
X851015Y-12516484D02*
X851015Y-12411722D01*
X851015Y-12411722D02*
X841491Y-12392674D01*
X841491Y-12392674D02*
X822443Y-12383150D01*
X822443Y-12383150D02*
X784348Y-12383150D01*
X784348Y-12383150D02*
X765301Y-12392674D01*
X851015Y-12506960D02*
X831967Y-12516484D01*
X831967Y-12516484D02*
X784348Y-12516484D01*
X784348Y-12516484D02*
X765301Y-12506960D01*
X765301Y-12506960D02*
X755777Y-12487912D01*
X755777Y-12487912D02*
X755777Y-12468865D01*
X755777Y-12468865D02*
X765301Y-12449817D01*
X765301Y-12449817D02*
X784348Y-12440293D01*
X784348Y-12440293D02*
X831967Y-12440293D01*
X831967Y-12440293D02*
X851015Y-12430769D01*
X946253Y-12383150D02*
X946253Y-12583150D01*
X946253Y-12392674D02*
X965301Y-12383150D01*
X965301Y-12383150D02*
X1003396Y-12383150D01*
X1003396Y-12383150D02*
X1022443Y-12392674D01*
X1022443Y-12392674D02*
X1031967Y-12402198D01*
X1031967Y-12402198D02*
X1041491Y-12421246D01*
X1041491Y-12421246D02*
X1041491Y-12478388D01*
X1041491Y-12478388D02*
X1031967Y-12497436D01*
X1031967Y-12497436D02*
X1022443Y-12506960D01*
X1022443Y-12506960D02*
X1003396Y-12516484D01*
X1003396Y-12516484D02*
X965301Y-12516484D01*
X965301Y-12516484D02*
X946253Y-12506960D01*
X1127205Y-12497436D02*
X1136729Y-12506960D01*
X1136729Y-12506960D02*
X1127205Y-12516484D01*
X1127205Y-12516484D02*
X1117682Y-12506960D01*
X1117682Y-12506960D02*
X1127205Y-12497436D01*
X1127205Y-12497436D02*
X1127205Y-12516484D01*
X1127205Y-12392674D02*
X1136729Y-12402198D01*
X1136729Y-12402198D02*
X1127205Y-12411722D01*
X1127205Y-12411722D02*
X1117682Y-12402198D01*
X1117682Y-12402198D02*
X1127205Y-12392674D01*
X1127205Y-12392674D02*
X1127205Y-12411722D01*
D12*
X-680000Y-12757500D02*
X-505000Y-12932500D01*
X-505000Y-12757500D02*
X-680000Y-12932500D01*
D11*
X-139461Y-12936484D02*
X-253747Y-12936484D01*
X-196604Y-12936484D02*
X-196604Y-12736484D01*
X-196604Y-12736484D02*
X-215652Y-12765055D01*
X-215652Y-12765055D02*
X-234699Y-12784103D01*
X-234699Y-12784103D02*
X-253747Y-12793627D01*
X-53747Y-12917436D02*
X-44223Y-12926960D01*
X-44223Y-12926960D02*
X-53747Y-12936484D01*
X-53747Y-12936484D02*
X-63271Y-12926960D01*
X-63271Y-12926960D02*
X-53747Y-12917436D01*
X-53747Y-12917436D02*
X-53747Y-12936484D01*
X22443Y-12736484D02*
X155777Y-12736484D01*
X155777Y-12736484D02*
X70063Y-12936484D01*
X327205Y-12736484D02*
X231967Y-12736484D01*
X231967Y-12736484D02*
X222443Y-12831722D01*
X222443Y-12831722D02*
X231967Y-12822198D01*
X231967Y-12822198D02*
X251015Y-12812674D01*
X251015Y-12812674D02*
X298634Y-12812674D01*
X298634Y-12812674D02*
X317682Y-12822198D01*
X317682Y-12822198D02*
X327205Y-12831722D01*
X327205Y-12831722D02*
X336729Y-12850769D01*
X336729Y-12850769D02*
X336729Y-12898388D01*
X336729Y-12898388D02*
X327205Y-12917436D01*
X327205Y-12917436D02*
X317682Y-12926960D01*
X317682Y-12926960D02*
X298634Y-12936484D01*
X298634Y-12936484D02*
X251015Y-12936484D01*
X251015Y-12936484D02*
X231967Y-12926960D01*
X231967Y-12926960D02*
X222443Y-12917436D01*
X460539Y-12736484D02*
X479586Y-12736484D01*
X479586Y-12736484D02*
X498634Y-12746008D01*
X498634Y-12746008D02*
X508158Y-12755531D01*
X508158Y-12755531D02*
X517682Y-12774579D01*
X517682Y-12774579D02*
X527205Y-12812674D01*
X527205Y-12812674D02*
X527205Y-12860293D01*
X527205Y-12860293D02*
X517682Y-12898388D01*
X517682Y-12898388D02*
X508158Y-12917436D01*
X508158Y-12917436D02*
X498634Y-12926960D01*
X498634Y-12926960D02*
X479586Y-12936484D01*
X479586Y-12936484D02*
X460539Y-12936484D01*
X460539Y-12936484D02*
X441491Y-12926960D01*
X441491Y-12926960D02*
X431967Y-12917436D01*
X431967Y-12917436D02*
X422443Y-12898388D01*
X422443Y-12898388D02*
X412920Y-12860293D01*
X412920Y-12860293D02*
X412920Y-12812674D01*
X412920Y-12812674D02*
X422443Y-12774579D01*
X422443Y-12774579D02*
X431967Y-12755531D01*
X431967Y-12755531D02*
X441491Y-12746008D01*
X441491Y-12746008D02*
X460539Y-12736484D01*
X612920Y-12936484D02*
X612920Y-12803150D01*
X612920Y-12822198D02*
X622444Y-12812674D01*
X622444Y-12812674D02*
X641491Y-12803150D01*
X641491Y-12803150D02*
X670063Y-12803150D01*
X670063Y-12803150D02*
X689110Y-12812674D01*
X689110Y-12812674D02*
X698634Y-12831722D01*
X698634Y-12831722D02*
X698634Y-12936484D01*
X698634Y-12831722D02*
X708158Y-12812674D01*
X708158Y-12812674D02*
X727205Y-12803150D01*
X727205Y-12803150D02*
X755777Y-12803150D01*
X755777Y-12803150D02*
X774824Y-12812674D01*
X774824Y-12812674D02*
X784348Y-12831722D01*
X784348Y-12831722D02*
X784348Y-12936484D01*
X879586Y-12936484D02*
X879586Y-12803150D01*
X879586Y-12822198D02*
X889110Y-12812674D01*
X889110Y-12812674D02*
X908158Y-12803150D01*
X908158Y-12803150D02*
X936729Y-12803150D01*
X936729Y-12803150D02*
X955777Y-12812674D01*
X955777Y-12812674D02*
X965301Y-12831722D01*
X965301Y-12831722D02*
X965301Y-12936484D01*
X965301Y-12831722D02*
X974824Y-12812674D01*
X974824Y-12812674D02*
X993872Y-12803150D01*
X993872Y-12803150D02*
X1022443Y-12803150D01*
X1022443Y-12803150D02*
X1041491Y-12812674D01*
X1041491Y-12812674D02*
X1051015Y-12831722D01*
X1051015Y-12831722D02*
X1051015Y-12936484D01*
X1441491Y-12726960D02*
X1270063Y-12984103D01*
X1698634Y-12736484D02*
X1717682Y-12736484D01*
X1717682Y-12736484D02*
X1736729Y-12746008D01*
X1736729Y-12746008D02*
X1746253Y-12755531D01*
X1746253Y-12755531D02*
X1755777Y-12774579D01*
X1755777Y-12774579D02*
X1765301Y-12812674D01*
X1765301Y-12812674D02*
X1765301Y-12860293D01*
X1765301Y-12860293D02*
X1755777Y-12898388D01*
X1755777Y-12898388D02*
X1746253Y-12917436D01*
X1746253Y-12917436D02*
X1736729Y-12926960D01*
X1736729Y-12926960D02*
X1717682Y-12936484D01*
X1717682Y-12936484D02*
X1698634Y-12936484D01*
X1698634Y-12936484D02*
X1679586Y-12926960D01*
X1679586Y-12926960D02*
X1670063Y-12917436D01*
X1670063Y-12917436D02*
X1660539Y-12898388D01*
X1660539Y-12898388D02*
X1651015Y-12860293D01*
X1651015Y-12860293D02*
X1651015Y-12812674D01*
X1651015Y-12812674D02*
X1660539Y-12774579D01*
X1660539Y-12774579D02*
X1670063Y-12755531D01*
X1670063Y-12755531D02*
X1679586Y-12746008D01*
X1679586Y-12746008D02*
X1698634Y-12736484D01*
X1851015Y-12917436D02*
X1860539Y-12926960D01*
X1860539Y-12926960D02*
X1851015Y-12936484D01*
X1851015Y-12936484D02*
X1841491Y-12926960D01*
X1841491Y-12926960D02*
X1851015Y-12917436D01*
X1851015Y-12917436D02*
X1851015Y-12936484D01*
X1984348Y-12736484D02*
X2003396Y-12736484D01*
X2003396Y-12736484D02*
X2022444Y-12746008D01*
X2022444Y-12746008D02*
X2031967Y-12755531D01*
X2031967Y-12755531D02*
X2041491Y-12774579D01*
X2041491Y-12774579D02*
X2051015Y-12812674D01*
X2051015Y-12812674D02*
X2051015Y-12860293D01*
X2051015Y-12860293D02*
X2041491Y-12898388D01*
X2041491Y-12898388D02*
X2031967Y-12917436D01*
X2031967Y-12917436D02*
X2022444Y-12926960D01*
X2022444Y-12926960D02*
X2003396Y-12936484D01*
X2003396Y-12936484D02*
X1984348Y-12936484D01*
X1984348Y-12936484D02*
X1965301Y-12926960D01*
X1965301Y-12926960D02*
X1955777Y-12917436D01*
X1955777Y-12917436D02*
X1946253Y-12898388D01*
X1946253Y-12898388D02*
X1936729Y-12860293D01*
X1936729Y-12860293D02*
X1936729Y-12812674D01*
X1936729Y-12812674D02*
X1946253Y-12774579D01*
X1946253Y-12774579D02*
X1955777Y-12755531D01*
X1955777Y-12755531D02*
X1965301Y-12746008D01*
X1965301Y-12746008D02*
X1984348Y-12736484D01*
X2222444Y-12736484D02*
X2184348Y-12736484D01*
X2184348Y-12736484D02*
X2165301Y-12746008D01*
X2165301Y-12746008D02*
X2155777Y-12755531D01*
X2155777Y-12755531D02*
X2136729Y-12784103D01*
X2136729Y-12784103D02*
X2127206Y-12822198D01*
X2127206Y-12822198D02*
X2127206Y-12898388D01*
X2127206Y-12898388D02*
X2136729Y-12917436D01*
X2136729Y-12917436D02*
X2146253Y-12926960D01*
X2146253Y-12926960D02*
X2165301Y-12936484D01*
X2165301Y-12936484D02*
X2203396Y-12936484D01*
X2203396Y-12936484D02*
X2222444Y-12926960D01*
X2222444Y-12926960D02*
X2231968Y-12917436D01*
X2231968Y-12917436D02*
X2241491Y-12898388D01*
X2241491Y-12898388D02*
X2241491Y-12850769D01*
X2241491Y-12850769D02*
X2231968Y-12831722D01*
X2231968Y-12831722D02*
X2222444Y-12822198D01*
X2222444Y-12822198D02*
X2203396Y-12812674D01*
X2203396Y-12812674D02*
X2165301Y-12812674D01*
X2165301Y-12812674D02*
X2146253Y-12822198D01*
X2146253Y-12822198D02*
X2136729Y-12831722D01*
X2136729Y-12831722D02*
X2127206Y-12850769D01*
X2355777Y-12822198D02*
X2336729Y-12812674D01*
X2336729Y-12812674D02*
X2327206Y-12803150D01*
X2327206Y-12803150D02*
X2317682Y-12784103D01*
X2317682Y-12784103D02*
X2317682Y-12774579D01*
X2317682Y-12774579D02*
X2327206Y-12755531D01*
X2327206Y-12755531D02*
X2336729Y-12746008D01*
X2336729Y-12746008D02*
X2355777Y-12736484D01*
X2355777Y-12736484D02*
X2393872Y-12736484D01*
X2393872Y-12736484D02*
X2412920Y-12746008D01*
X2412920Y-12746008D02*
X2422444Y-12755531D01*
X2422444Y-12755531D02*
X2431968Y-12774579D01*
X2431968Y-12774579D02*
X2431968Y-12784103D01*
X2431968Y-12784103D02*
X2422444Y-12803150D01*
X2422444Y-12803150D02*
X2412920Y-12812674D01*
X2412920Y-12812674D02*
X2393872Y-12822198D01*
X2393872Y-12822198D02*
X2355777Y-12822198D01*
X2355777Y-12822198D02*
X2336729Y-12831722D01*
X2336729Y-12831722D02*
X2327206Y-12841246D01*
X2327206Y-12841246D02*
X2317682Y-12860293D01*
X2317682Y-12860293D02*
X2317682Y-12898388D01*
X2317682Y-12898388D02*
X2327206Y-12917436D01*
X2327206Y-12917436D02*
X2336729Y-12926960D01*
X2336729Y-12926960D02*
X2355777Y-12936484D01*
X2355777Y-12936484D02*
X2393872Y-12936484D01*
X2393872Y-12936484D02*
X2412920Y-12926960D01*
X2412920Y-12926960D02*
X2422444Y-12917436D01*
X2422444Y-12917436D02*
X2431968Y-12898388D01*
X2431968Y-12898388D02*
X2431968Y-12860293D01*
X2431968Y-12860293D02*
X2422444Y-12841246D01*
X2422444Y-12841246D02*
X2412920Y-12831722D01*
X2412920Y-12831722D02*
X2393872Y-12822198D01*
X2527206Y-12936484D02*
X2565301Y-12936484D01*
X2565301Y-12936484D02*
X2584349Y-12926960D01*
X2584349Y-12926960D02*
X2593872Y-12917436D01*
X2593872Y-12917436D02*
X2612920Y-12888865D01*
X2612920Y-12888865D02*
X2622444Y-12850769D01*
X2622444Y-12850769D02*
X2622444Y-12774579D01*
X2622444Y-12774579D02*
X2612920Y-12755531D01*
X2612920Y-12755531D02*
X2603396Y-12746008D01*
X2603396Y-12746008D02*
X2584349Y-12736484D01*
X2584349Y-12736484D02*
X2546253Y-12736484D01*
X2546253Y-12736484D02*
X2527206Y-12746008D01*
X2527206Y-12746008D02*
X2517682Y-12755531D01*
X2517682Y-12755531D02*
X2508158Y-12774579D01*
X2508158Y-12774579D02*
X2508158Y-12822198D01*
X2508158Y-12822198D02*
X2517682Y-12841246D01*
X2517682Y-12841246D02*
X2527206Y-12850769D01*
X2527206Y-12850769D02*
X2546253Y-12860293D01*
X2546253Y-12860293D02*
X2584349Y-12860293D01*
X2584349Y-12860293D02*
X2603396Y-12850769D01*
X2603396Y-12850769D02*
X2612920Y-12841246D01*
X2612920Y-12841246D02*
X2622444Y-12822198D01*
X2698634Y-12736484D02*
X2698634Y-12774579D01*
X2774825Y-12736484D02*
X2774825Y-12774579D01*
X3070063Y-13012674D02*
X3060539Y-13003150D01*
X3060539Y-13003150D02*
X3041491Y-12974579D01*
X3041491Y-12974579D02*
X3031968Y-12955531D01*
X3031968Y-12955531D02*
X3022444Y-12926960D01*
X3022444Y-12926960D02*
X3012920Y-12879341D01*
X3012920Y-12879341D02*
X3012920Y-12841246D01*
X3012920Y-12841246D02*
X3022444Y-12793627D01*
X3022444Y-12793627D02*
X3031968Y-12765055D01*
X3031968Y-12765055D02*
X3041491Y-12746008D01*
X3041491Y-12746008D02*
X3060539Y-12717436D01*
X3060539Y-12717436D02*
X3070063Y-12707912D01*
X3241491Y-12736484D02*
X3146253Y-12736484D01*
X3146253Y-12736484D02*
X3136729Y-12831722D01*
X3136729Y-12831722D02*
X3146253Y-12822198D01*
X3146253Y-12822198D02*
X3165301Y-12812674D01*
X3165301Y-12812674D02*
X3212920Y-12812674D01*
X3212920Y-12812674D02*
X3231968Y-12822198D01*
X3231968Y-12822198D02*
X3241491Y-12831722D01*
X3241491Y-12831722D02*
X3251015Y-12850769D01*
X3251015Y-12850769D02*
X3251015Y-12898388D01*
X3251015Y-12898388D02*
X3241491Y-12917436D01*
X3241491Y-12917436D02*
X3231968Y-12926960D01*
X3231968Y-12926960D02*
X3212920Y-12936484D01*
X3212920Y-12936484D02*
X3165301Y-12936484D01*
X3165301Y-12936484D02*
X3146253Y-12926960D01*
X3146253Y-12926960D02*
X3136729Y-12917436D01*
X3327206Y-12755531D02*
X3336729Y-12746008D01*
X3336729Y-12746008D02*
X3355777Y-12736484D01*
X3355777Y-12736484D02*
X3403396Y-12736484D01*
X3403396Y-12736484D02*
X3422444Y-12746008D01*
X3422444Y-12746008D02*
X3431968Y-12755531D01*
X3431968Y-12755531D02*
X3441491Y-12774579D01*
X3441491Y-12774579D02*
X3441491Y-12793627D01*
X3441491Y-12793627D02*
X3431968Y-12822198D01*
X3431968Y-12822198D02*
X3317682Y-12936484D01*
X3317682Y-12936484D02*
X3441491Y-12936484D01*
X3679587Y-12936484D02*
X3679587Y-12736484D01*
X3765301Y-12936484D02*
X3765301Y-12831722D01*
X3765301Y-12831722D02*
X3755777Y-12812674D01*
X3755777Y-12812674D02*
X3736730Y-12803150D01*
X3736730Y-12803150D02*
X3708158Y-12803150D01*
X3708158Y-12803150D02*
X3689110Y-12812674D01*
X3689110Y-12812674D02*
X3679587Y-12822198D01*
X3889110Y-12936484D02*
X3870063Y-12926960D01*
X3870063Y-12926960D02*
X3860539Y-12917436D01*
X3860539Y-12917436D02*
X3851015Y-12898388D01*
X3851015Y-12898388D02*
X3851015Y-12841246D01*
X3851015Y-12841246D02*
X3860539Y-12822198D01*
X3860539Y-12822198D02*
X3870063Y-12812674D01*
X3870063Y-12812674D02*
X3889110Y-12803150D01*
X3889110Y-12803150D02*
X3917682Y-12803150D01*
X3917682Y-12803150D02*
X3936730Y-12812674D01*
X3936730Y-12812674D02*
X3946253Y-12822198D01*
X3946253Y-12822198D02*
X3955777Y-12841246D01*
X3955777Y-12841246D02*
X3955777Y-12898388D01*
X3955777Y-12898388D02*
X3946253Y-12917436D01*
X3946253Y-12917436D02*
X3936730Y-12926960D01*
X3936730Y-12926960D02*
X3917682Y-12936484D01*
X3917682Y-12936484D02*
X3889110Y-12936484D01*
X4070063Y-12936484D02*
X4051015Y-12926960D01*
X4051015Y-12926960D02*
X4041491Y-12907912D01*
X4041491Y-12907912D02*
X4041491Y-12736484D01*
X4222444Y-12926960D02*
X4203396Y-12936484D01*
X4203396Y-12936484D02*
X4165301Y-12936484D01*
X4165301Y-12936484D02*
X4146253Y-12926960D01*
X4146253Y-12926960D02*
X4136730Y-12907912D01*
X4136730Y-12907912D02*
X4136730Y-12831722D01*
X4136730Y-12831722D02*
X4146253Y-12812674D01*
X4146253Y-12812674D02*
X4165301Y-12803150D01*
X4165301Y-12803150D02*
X4203396Y-12803150D01*
X4203396Y-12803150D02*
X4222444Y-12812674D01*
X4222444Y-12812674D02*
X4231968Y-12831722D01*
X4231968Y-12831722D02*
X4231968Y-12850769D01*
X4231968Y-12850769D02*
X4136730Y-12869817D01*
X4308158Y-12926960D02*
X4327206Y-12936484D01*
X4327206Y-12936484D02*
X4365301Y-12936484D01*
X4365301Y-12936484D02*
X4384349Y-12926960D01*
X4384349Y-12926960D02*
X4393873Y-12907912D01*
X4393873Y-12907912D02*
X4393873Y-12898388D01*
X4393873Y-12898388D02*
X4384349Y-12879341D01*
X4384349Y-12879341D02*
X4365301Y-12869817D01*
X4365301Y-12869817D02*
X4336730Y-12869817D01*
X4336730Y-12869817D02*
X4317682Y-12860293D01*
X4317682Y-12860293D02*
X4308158Y-12841246D01*
X4308158Y-12841246D02*
X4308158Y-12831722D01*
X4308158Y-12831722D02*
X4317682Y-12812674D01*
X4317682Y-12812674D02*
X4336730Y-12803150D01*
X4336730Y-12803150D02*
X4365301Y-12803150D01*
X4365301Y-12803150D02*
X4384349Y-12812674D01*
X4460539Y-13012674D02*
X4470063Y-13003150D01*
X4470063Y-13003150D02*
X4489111Y-12974579D01*
X4489111Y-12974579D02*
X4498634Y-12955531D01*
X4498634Y-12955531D02*
X4508158Y-12926960D01*
X4508158Y-12926960D02*
X4517682Y-12879341D01*
X4517682Y-12879341D02*
X4517682Y-12841246D01*
X4517682Y-12841246D02*
X4508158Y-12793627D01*
X4508158Y-12793627D02*
X4498634Y-12765055D01*
X4498634Y-12765055D02*
X4489111Y-12746008D01*
X4489111Y-12746008D02*
X4470063Y-12717436D01*
X4470063Y-12717436D02*
X4460539Y-12707912D01*
X4822444Y-13012674D02*
X4812920Y-13003150D01*
X4812920Y-13003150D02*
X4793873Y-12974579D01*
X4793873Y-12974579D02*
X4784349Y-12955531D01*
X4784349Y-12955531D02*
X4774825Y-12926960D01*
X4774825Y-12926960D02*
X4765301Y-12879341D01*
X4765301Y-12879341D02*
X4765301Y-12841246D01*
X4765301Y-12841246D02*
X4774825Y-12793627D01*
X4774825Y-12793627D02*
X4784349Y-12765055D01*
X4784349Y-12765055D02*
X4793873Y-12746008D01*
X4793873Y-12746008D02*
X4812920Y-12717436D01*
X4812920Y-12717436D02*
X4822444Y-12707912D01*
X4898634Y-12803150D02*
X4898634Y-12936484D01*
X4898634Y-12822198D02*
X4908158Y-12812674D01*
X4908158Y-12812674D02*
X4927206Y-12803150D01*
X4927206Y-12803150D02*
X4955777Y-12803150D01*
X4955777Y-12803150D02*
X4974825Y-12812674D01*
X4974825Y-12812674D02*
X4984349Y-12831722D01*
X4984349Y-12831722D02*
X4984349Y-12936484D01*
X5108158Y-12936484D02*
X5089111Y-12926960D01*
X5089111Y-12926960D02*
X5079587Y-12917436D01*
X5079587Y-12917436D02*
X5070063Y-12898388D01*
X5070063Y-12898388D02*
X5070063Y-12841246D01*
X5070063Y-12841246D02*
X5079587Y-12822198D01*
X5079587Y-12822198D02*
X5089111Y-12812674D01*
X5089111Y-12812674D02*
X5108158Y-12803150D01*
X5108158Y-12803150D02*
X5136730Y-12803150D01*
X5136730Y-12803150D02*
X5155777Y-12812674D01*
X5155777Y-12812674D02*
X5165301Y-12822198D01*
X5165301Y-12822198D02*
X5174825Y-12841246D01*
X5174825Y-12841246D02*
X5174825Y-12898388D01*
X5174825Y-12898388D02*
X5165301Y-12917436D01*
X5165301Y-12917436D02*
X5155777Y-12926960D01*
X5155777Y-12926960D02*
X5136730Y-12936484D01*
X5136730Y-12936484D02*
X5108158Y-12936484D01*
X5231968Y-12803150D02*
X5308158Y-12803150D01*
X5260539Y-12736484D02*
X5260539Y-12907912D01*
X5260539Y-12907912D02*
X5270063Y-12926960D01*
X5270063Y-12926960D02*
X5289111Y-12936484D01*
X5289111Y-12936484D02*
X5308158Y-12936484D01*
X5527206Y-12803150D02*
X5527206Y-13003150D01*
X5527206Y-12812674D02*
X5546254Y-12803150D01*
X5546254Y-12803150D02*
X5584349Y-12803150D01*
X5584349Y-12803150D02*
X5603396Y-12812674D01*
X5603396Y-12812674D02*
X5612920Y-12822198D01*
X5612920Y-12822198D02*
X5622444Y-12841246D01*
X5622444Y-12841246D02*
X5622444Y-12898388D01*
X5622444Y-12898388D02*
X5612920Y-12917436D01*
X5612920Y-12917436D02*
X5603396Y-12926960D01*
X5603396Y-12926960D02*
X5584349Y-12936484D01*
X5584349Y-12936484D02*
X5546254Y-12936484D01*
X5546254Y-12936484D02*
X5527206Y-12926960D01*
X5736730Y-12936484D02*
X5717682Y-12926960D01*
X5717682Y-12926960D02*
X5708158Y-12907912D01*
X5708158Y-12907912D02*
X5708158Y-12736484D01*
X5898634Y-12936484D02*
X5898634Y-12831722D01*
X5898634Y-12831722D02*
X5889111Y-12812674D01*
X5889111Y-12812674D02*
X5870063Y-12803150D01*
X5870063Y-12803150D02*
X5831968Y-12803150D01*
X5831968Y-12803150D02*
X5812920Y-12812674D01*
X5898634Y-12926960D02*
X5879587Y-12936484D01*
X5879587Y-12936484D02*
X5831968Y-12936484D01*
X5831968Y-12936484D02*
X5812920Y-12926960D01*
X5812920Y-12926960D02*
X5803396Y-12907912D01*
X5803396Y-12907912D02*
X5803396Y-12888865D01*
X5803396Y-12888865D02*
X5812920Y-12869817D01*
X5812920Y-12869817D02*
X5831968Y-12860293D01*
X5831968Y-12860293D02*
X5879587Y-12860293D01*
X5879587Y-12860293D02*
X5898634Y-12850769D01*
X5965301Y-12803150D02*
X6041492Y-12803150D01*
X5993873Y-12736484D02*
X5993873Y-12907912D01*
X5993873Y-12907912D02*
X6003396Y-12926960D01*
X6003396Y-12926960D02*
X6022444Y-12936484D01*
X6022444Y-12936484D02*
X6041492Y-12936484D01*
X6184349Y-12926960D02*
X6165301Y-12936484D01*
X6165301Y-12936484D02*
X6127206Y-12936484D01*
X6127206Y-12936484D02*
X6108158Y-12926960D01*
X6108158Y-12926960D02*
X6098634Y-12907912D01*
X6098634Y-12907912D02*
X6098634Y-12831722D01*
X6098634Y-12831722D02*
X6108158Y-12812674D01*
X6108158Y-12812674D02*
X6127206Y-12803150D01*
X6127206Y-12803150D02*
X6165301Y-12803150D01*
X6165301Y-12803150D02*
X6184349Y-12812674D01*
X6184349Y-12812674D02*
X6193873Y-12831722D01*
X6193873Y-12831722D02*
X6193873Y-12850769D01*
X6193873Y-12850769D02*
X6098634Y-12869817D01*
X6365301Y-12936484D02*
X6365301Y-12736484D01*
X6365301Y-12926960D02*
X6346254Y-12936484D01*
X6346254Y-12936484D02*
X6308158Y-12936484D01*
X6308158Y-12936484D02*
X6289111Y-12926960D01*
X6289111Y-12926960D02*
X6279587Y-12917436D01*
X6279587Y-12917436D02*
X6270063Y-12898388D01*
X6270063Y-12898388D02*
X6270063Y-12841246D01*
X6270063Y-12841246D02*
X6279587Y-12822198D01*
X6279587Y-12822198D02*
X6289111Y-12812674D01*
X6289111Y-12812674D02*
X6308158Y-12803150D01*
X6308158Y-12803150D02*
X6346254Y-12803150D01*
X6346254Y-12803150D02*
X6365301Y-12812674D01*
X6441492Y-13012674D02*
X6451015Y-13003150D01*
X6451015Y-13003150D02*
X6470063Y-12974579D01*
X6470063Y-12974579D02*
X6479587Y-12955531D01*
X6479587Y-12955531D02*
X6489111Y-12926960D01*
X6489111Y-12926960D02*
X6498634Y-12879341D01*
X6498634Y-12879341D02*
X6498634Y-12841246D01*
X6498634Y-12841246D02*
X6489111Y-12793627D01*
X6489111Y-12793627D02*
X6479587Y-12765055D01*
X6479587Y-12765055D02*
X6470063Y-12746008D01*
X6470063Y-12746008D02*
X6451015Y-12717436D01*
X6451015Y-12717436D02*
X6441492Y-12707912D01*
X-505000Y-13140000D02*
G75*
G02*
X-705000Y-13140000I-100000J0D01*
G01*
X-705000Y-13140000D02*
G75*
G02*
X-505000Y-13140000I100000J0D01*
G01*
X-263271Y-13031484D02*
X-139461Y-13031484D01*
X-139461Y-13031484D02*
X-206128Y-13107674D01*
X-206128Y-13107674D02*
X-177556Y-13107674D01*
X-177556Y-13107674D02*
X-158509Y-13117198D01*
X-158509Y-13117198D02*
X-148985Y-13126722D01*
X-148985Y-13126722D02*
X-139461Y-13145769D01*
X-139461Y-13145769D02*
X-139461Y-13193388D01*
X-139461Y-13193388D02*
X-148985Y-13212436D01*
X-148985Y-13212436D02*
X-158509Y-13221960D01*
X-158509Y-13221960D02*
X-177556Y-13231484D01*
X-177556Y-13231484D02*
X-234699Y-13231484D01*
X-234699Y-13231484D02*
X-253747Y-13221960D01*
X-253747Y-13221960D02*
X-263271Y-13212436D01*
X-53747Y-13212436D02*
X-44223Y-13221960D01*
X-44223Y-13221960D02*
X-53747Y-13231484D01*
X-53747Y-13231484D02*
X-63271Y-13221960D01*
X-63271Y-13221960D02*
X-53747Y-13212436D01*
X-53747Y-13212436D02*
X-53747Y-13231484D01*
X31967Y-13050531D02*
X41491Y-13041008D01*
X41491Y-13041008D02*
X60539Y-13031484D01*
X60539Y-13031484D02*
X108158Y-13031484D01*
X108158Y-13031484D02*
X127205Y-13041008D01*
X127205Y-13041008D02*
X136729Y-13050531D01*
X136729Y-13050531D02*
X146253Y-13069579D01*
X146253Y-13069579D02*
X146253Y-13088627D01*
X146253Y-13088627D02*
X136729Y-13117198D01*
X136729Y-13117198D02*
X22443Y-13231484D01*
X22443Y-13231484D02*
X146253Y-13231484D01*
X270063Y-13031484D02*
X289110Y-13031484D01*
X289110Y-13031484D02*
X308158Y-13041008D01*
X308158Y-13041008D02*
X317682Y-13050531D01*
X317682Y-13050531D02*
X327205Y-13069579D01*
X327205Y-13069579D02*
X336729Y-13107674D01*
X336729Y-13107674D02*
X336729Y-13155293D01*
X336729Y-13155293D02*
X327205Y-13193388D01*
X327205Y-13193388D02*
X317682Y-13212436D01*
X317682Y-13212436D02*
X308158Y-13221960D01*
X308158Y-13221960D02*
X289110Y-13231484D01*
X289110Y-13231484D02*
X270063Y-13231484D01*
X270063Y-13231484D02*
X251015Y-13221960D01*
X251015Y-13221960D02*
X241491Y-13212436D01*
X241491Y-13212436D02*
X231967Y-13193388D01*
X231967Y-13193388D02*
X222443Y-13155293D01*
X222443Y-13155293D02*
X222443Y-13107674D01*
X222443Y-13107674D02*
X231967Y-13069579D01*
X231967Y-13069579D02*
X241491Y-13050531D01*
X241491Y-13050531D02*
X251015Y-13041008D01*
X251015Y-13041008D02*
X270063Y-13031484D01*
X460539Y-13031484D02*
X479586Y-13031484D01*
X479586Y-13031484D02*
X498634Y-13041008D01*
X498634Y-13041008D02*
X508158Y-13050531D01*
X508158Y-13050531D02*
X517682Y-13069579D01*
X517682Y-13069579D02*
X527205Y-13107674D01*
X527205Y-13107674D02*
X527205Y-13155293D01*
X527205Y-13155293D02*
X517682Y-13193388D01*
X517682Y-13193388D02*
X508158Y-13212436D01*
X508158Y-13212436D02*
X498634Y-13221960D01*
X498634Y-13221960D02*
X479586Y-13231484D01*
X479586Y-13231484D02*
X460539Y-13231484D01*
X460539Y-13231484D02*
X441491Y-13221960D01*
X441491Y-13221960D02*
X431967Y-13212436D01*
X431967Y-13212436D02*
X422443Y-13193388D01*
X422443Y-13193388D02*
X412920Y-13155293D01*
X412920Y-13155293D02*
X412920Y-13107674D01*
X412920Y-13107674D02*
X422443Y-13069579D01*
X422443Y-13069579D02*
X431967Y-13050531D01*
X431967Y-13050531D02*
X441491Y-13041008D01*
X441491Y-13041008D02*
X460539Y-13031484D01*
X612920Y-13231484D02*
X612920Y-13098150D01*
X612920Y-13117198D02*
X622444Y-13107674D01*
X622444Y-13107674D02*
X641491Y-13098150D01*
X641491Y-13098150D02*
X670063Y-13098150D01*
X670063Y-13098150D02*
X689110Y-13107674D01*
X689110Y-13107674D02*
X698634Y-13126722D01*
X698634Y-13126722D02*
X698634Y-13231484D01*
X698634Y-13126722D02*
X708158Y-13107674D01*
X708158Y-13107674D02*
X727205Y-13098150D01*
X727205Y-13098150D02*
X755777Y-13098150D01*
X755777Y-13098150D02*
X774824Y-13107674D01*
X774824Y-13107674D02*
X784348Y-13126722D01*
X784348Y-13126722D02*
X784348Y-13231484D01*
X879586Y-13231484D02*
X879586Y-13098150D01*
X879586Y-13117198D02*
X889110Y-13107674D01*
X889110Y-13107674D02*
X908158Y-13098150D01*
X908158Y-13098150D02*
X936729Y-13098150D01*
X936729Y-13098150D02*
X955777Y-13107674D01*
X955777Y-13107674D02*
X965301Y-13126722D01*
X965301Y-13126722D02*
X965301Y-13231484D01*
X965301Y-13126722D02*
X974824Y-13107674D01*
X974824Y-13107674D02*
X993872Y-13098150D01*
X993872Y-13098150D02*
X1022443Y-13098150D01*
X1022443Y-13098150D02*
X1041491Y-13107674D01*
X1041491Y-13107674D02*
X1051015Y-13126722D01*
X1051015Y-13126722D02*
X1051015Y-13231484D01*
X1441491Y-13021960D02*
X1270063Y-13279103D01*
X1698634Y-13031484D02*
X1717682Y-13031484D01*
X1717682Y-13031484D02*
X1736729Y-13041008D01*
X1736729Y-13041008D02*
X1746253Y-13050531D01*
X1746253Y-13050531D02*
X1755777Y-13069579D01*
X1755777Y-13069579D02*
X1765301Y-13107674D01*
X1765301Y-13107674D02*
X1765301Y-13155293D01*
X1765301Y-13155293D02*
X1755777Y-13193388D01*
X1755777Y-13193388D02*
X1746253Y-13212436D01*
X1746253Y-13212436D02*
X1736729Y-13221960D01*
X1736729Y-13221960D02*
X1717682Y-13231484D01*
X1717682Y-13231484D02*
X1698634Y-13231484D01*
X1698634Y-13231484D02*
X1679586Y-13221960D01*
X1679586Y-13221960D02*
X1670063Y-13212436D01*
X1670063Y-13212436D02*
X1660539Y-13193388D01*
X1660539Y-13193388D02*
X1651015Y-13155293D01*
X1651015Y-13155293D02*
X1651015Y-13107674D01*
X1651015Y-13107674D02*
X1660539Y-13069579D01*
X1660539Y-13069579D02*
X1670063Y-13050531D01*
X1670063Y-13050531D02*
X1679586Y-13041008D01*
X1679586Y-13041008D02*
X1698634Y-13031484D01*
X1851015Y-13212436D02*
X1860539Y-13221960D01*
X1860539Y-13221960D02*
X1851015Y-13231484D01*
X1851015Y-13231484D02*
X1841491Y-13221960D01*
X1841491Y-13221960D02*
X1851015Y-13212436D01*
X1851015Y-13212436D02*
X1851015Y-13231484D01*
X2051015Y-13231484D02*
X1936729Y-13231484D01*
X1993872Y-13231484D02*
X1993872Y-13031484D01*
X1993872Y-13031484D02*
X1974825Y-13060055D01*
X1974825Y-13060055D02*
X1955777Y-13079103D01*
X1955777Y-13079103D02*
X1936729Y-13088627D01*
X2127206Y-13050531D02*
X2136729Y-13041008D01*
X2136729Y-13041008D02*
X2155777Y-13031484D01*
X2155777Y-13031484D02*
X2203396Y-13031484D01*
X2203396Y-13031484D02*
X2222444Y-13041008D01*
X2222444Y-13041008D02*
X2231968Y-13050531D01*
X2231968Y-13050531D02*
X2241491Y-13069579D01*
X2241491Y-13069579D02*
X2241491Y-13088627D01*
X2241491Y-13088627D02*
X2231968Y-13117198D01*
X2231968Y-13117198D02*
X2117682Y-13231484D01*
X2117682Y-13231484D02*
X2241491Y-13231484D01*
X2412920Y-13031484D02*
X2374825Y-13031484D01*
X2374825Y-13031484D02*
X2355777Y-13041008D01*
X2355777Y-13041008D02*
X2346253Y-13050531D01*
X2346253Y-13050531D02*
X2327206Y-13079103D01*
X2327206Y-13079103D02*
X2317682Y-13117198D01*
X2317682Y-13117198D02*
X2317682Y-13193388D01*
X2317682Y-13193388D02*
X2327206Y-13212436D01*
X2327206Y-13212436D02*
X2336729Y-13221960D01*
X2336729Y-13221960D02*
X2355777Y-13231484D01*
X2355777Y-13231484D02*
X2393872Y-13231484D01*
X2393872Y-13231484D02*
X2412920Y-13221960D01*
X2412920Y-13221960D02*
X2422444Y-13212436D01*
X2422444Y-13212436D02*
X2431968Y-13193388D01*
X2431968Y-13193388D02*
X2431968Y-13145769D01*
X2431968Y-13145769D02*
X2422444Y-13126722D01*
X2422444Y-13126722D02*
X2412920Y-13117198D01*
X2412920Y-13117198D02*
X2393872Y-13107674D01*
X2393872Y-13107674D02*
X2355777Y-13107674D01*
X2355777Y-13107674D02*
X2336729Y-13117198D01*
X2336729Y-13117198D02*
X2327206Y-13126722D01*
X2327206Y-13126722D02*
X2317682Y-13145769D01*
X2555777Y-13031484D02*
X2574825Y-13031484D01*
X2574825Y-13031484D02*
X2593872Y-13041008D01*
X2593872Y-13041008D02*
X2603396Y-13050531D01*
X2603396Y-13050531D02*
X2612920Y-13069579D01*
X2612920Y-13069579D02*
X2622444Y-13107674D01*
X2622444Y-13107674D02*
X2622444Y-13155293D01*
X2622444Y-13155293D02*
X2612920Y-13193388D01*
X2612920Y-13193388D02*
X2603396Y-13212436D01*
X2603396Y-13212436D02*
X2593872Y-13221960D01*
X2593872Y-13221960D02*
X2574825Y-13231484D01*
X2574825Y-13231484D02*
X2555777Y-13231484D01*
X2555777Y-13231484D02*
X2536729Y-13221960D01*
X2536729Y-13221960D02*
X2527206Y-13212436D01*
X2527206Y-13212436D02*
X2517682Y-13193388D01*
X2517682Y-13193388D02*
X2508158Y-13155293D01*
X2508158Y-13155293D02*
X2508158Y-13107674D01*
X2508158Y-13107674D02*
X2517682Y-13069579D01*
X2517682Y-13069579D02*
X2527206Y-13050531D01*
X2527206Y-13050531D02*
X2536729Y-13041008D01*
X2536729Y-13041008D02*
X2555777Y-13031484D01*
X2698634Y-13031484D02*
X2698634Y-13069579D01*
X2774825Y-13031484D02*
X2774825Y-13069579D01*
X3070063Y-13307674D02*
X3060539Y-13298150D01*
X3060539Y-13298150D02*
X3041491Y-13269579D01*
X3041491Y-13269579D02*
X3031968Y-13250531D01*
X3031968Y-13250531D02*
X3022444Y-13221960D01*
X3022444Y-13221960D02*
X3012920Y-13174341D01*
X3012920Y-13174341D02*
X3012920Y-13136246D01*
X3012920Y-13136246D02*
X3022444Y-13088627D01*
X3022444Y-13088627D02*
X3031968Y-13060055D01*
X3031968Y-13060055D02*
X3041491Y-13041008D01*
X3041491Y-13041008D02*
X3060539Y-13012436D01*
X3060539Y-13012436D02*
X3070063Y-13002912D01*
X3231968Y-13098150D02*
X3231968Y-13231484D01*
X3184348Y-13021960D02*
X3136729Y-13164817D01*
X3136729Y-13164817D02*
X3260539Y-13164817D01*
X3489110Y-13231484D02*
X3489110Y-13031484D01*
X3574825Y-13231484D02*
X3574825Y-13126722D01*
X3574825Y-13126722D02*
X3565301Y-13107674D01*
X3565301Y-13107674D02*
X3546253Y-13098150D01*
X3546253Y-13098150D02*
X3517682Y-13098150D01*
X3517682Y-13098150D02*
X3498634Y-13107674D01*
X3498634Y-13107674D02*
X3489110Y-13117198D01*
X3698634Y-13231484D02*
X3679587Y-13221960D01*
X3679587Y-13221960D02*
X3670063Y-13212436D01*
X3670063Y-13212436D02*
X3660539Y-13193388D01*
X3660539Y-13193388D02*
X3660539Y-13136246D01*
X3660539Y-13136246D02*
X3670063Y-13117198D01*
X3670063Y-13117198D02*
X3679587Y-13107674D01*
X3679587Y-13107674D02*
X3698634Y-13098150D01*
X3698634Y-13098150D02*
X3727206Y-13098150D01*
X3727206Y-13098150D02*
X3746253Y-13107674D01*
X3746253Y-13107674D02*
X3755777Y-13117198D01*
X3755777Y-13117198D02*
X3765301Y-13136246D01*
X3765301Y-13136246D02*
X3765301Y-13193388D01*
X3765301Y-13193388D02*
X3755777Y-13212436D01*
X3755777Y-13212436D02*
X3746253Y-13221960D01*
X3746253Y-13221960D02*
X3727206Y-13231484D01*
X3727206Y-13231484D02*
X3698634Y-13231484D01*
X3879587Y-13231484D02*
X3860539Y-13221960D01*
X3860539Y-13221960D02*
X3851015Y-13202912D01*
X3851015Y-13202912D02*
X3851015Y-13031484D01*
X4031968Y-13221960D02*
X4012920Y-13231484D01*
X4012920Y-13231484D02*
X3974825Y-13231484D01*
X3974825Y-13231484D02*
X3955777Y-13221960D01*
X3955777Y-13221960D02*
X3946253Y-13202912D01*
X3946253Y-13202912D02*
X3946253Y-13126722D01*
X3946253Y-13126722D02*
X3955777Y-13107674D01*
X3955777Y-13107674D02*
X3974825Y-13098150D01*
X3974825Y-13098150D02*
X4012920Y-13098150D01*
X4012920Y-13098150D02*
X4031968Y-13107674D01*
X4031968Y-13107674D02*
X4041491Y-13126722D01*
X4041491Y-13126722D02*
X4041491Y-13145769D01*
X4041491Y-13145769D02*
X3946253Y-13164817D01*
X4117682Y-13221960D02*
X4136730Y-13231484D01*
X4136730Y-13231484D02*
X4174825Y-13231484D01*
X4174825Y-13231484D02*
X4193872Y-13221960D01*
X4193872Y-13221960D02*
X4203396Y-13202912D01*
X4203396Y-13202912D02*
X4203396Y-13193388D01*
X4203396Y-13193388D02*
X4193872Y-13174341D01*
X4193872Y-13174341D02*
X4174825Y-13164817D01*
X4174825Y-13164817D02*
X4146253Y-13164817D01*
X4146253Y-13164817D02*
X4127206Y-13155293D01*
X4127206Y-13155293D02*
X4117682Y-13136246D01*
X4117682Y-13136246D02*
X4117682Y-13126722D01*
X4117682Y-13126722D02*
X4127206Y-13107674D01*
X4127206Y-13107674D02*
X4146253Y-13098150D01*
X4146253Y-13098150D02*
X4174825Y-13098150D01*
X4174825Y-13098150D02*
X4193872Y-13107674D01*
X4270063Y-13307674D02*
X4279587Y-13298150D01*
X4279587Y-13298150D02*
X4298634Y-13269579D01*
X4298634Y-13269579D02*
X4308158Y-13250531D01*
X4308158Y-13250531D02*
X4317682Y-13221960D01*
X4317682Y-13221960D02*
X4327206Y-13174341D01*
X4327206Y-13174341D02*
X4327206Y-13136246D01*
X4327206Y-13136246D02*
X4317682Y-13088627D01*
X4317682Y-13088627D02*
X4308158Y-13060055D01*
X4308158Y-13060055D02*
X4298634Y-13041008D01*
X4298634Y-13041008D02*
X4279587Y-13012436D01*
X4279587Y-13012436D02*
X4270063Y-13002912D01*
X4631968Y-13307674D02*
X4622444Y-13298150D01*
X4622444Y-13298150D02*
X4603396Y-13269579D01*
X4603396Y-13269579D02*
X4593873Y-13250531D01*
X4593873Y-13250531D02*
X4584349Y-13221960D01*
X4584349Y-13221960D02*
X4574825Y-13174341D01*
X4574825Y-13174341D02*
X4574825Y-13136246D01*
X4574825Y-13136246D02*
X4584349Y-13088627D01*
X4584349Y-13088627D02*
X4593873Y-13060055D01*
X4593873Y-13060055D02*
X4603396Y-13041008D01*
X4603396Y-13041008D02*
X4622444Y-13012436D01*
X4622444Y-13012436D02*
X4631968Y-13002912D01*
X4708158Y-13098150D02*
X4708158Y-13231484D01*
X4708158Y-13117198D02*
X4717682Y-13107674D01*
X4717682Y-13107674D02*
X4736730Y-13098150D01*
X4736730Y-13098150D02*
X4765301Y-13098150D01*
X4765301Y-13098150D02*
X4784349Y-13107674D01*
X4784349Y-13107674D02*
X4793873Y-13126722D01*
X4793873Y-13126722D02*
X4793873Y-13231484D01*
X4917682Y-13231484D02*
X4898634Y-13221960D01*
X4898634Y-13221960D02*
X4889111Y-13212436D01*
X4889111Y-13212436D02*
X4879587Y-13193388D01*
X4879587Y-13193388D02*
X4879587Y-13136246D01*
X4879587Y-13136246D02*
X4889111Y-13117198D01*
X4889111Y-13117198D02*
X4898634Y-13107674D01*
X4898634Y-13107674D02*
X4917682Y-13098150D01*
X4917682Y-13098150D02*
X4946254Y-13098150D01*
X4946254Y-13098150D02*
X4965301Y-13107674D01*
X4965301Y-13107674D02*
X4974825Y-13117198D01*
X4974825Y-13117198D02*
X4984349Y-13136246D01*
X4984349Y-13136246D02*
X4984349Y-13193388D01*
X4984349Y-13193388D02*
X4974825Y-13212436D01*
X4974825Y-13212436D02*
X4965301Y-13221960D01*
X4965301Y-13221960D02*
X4946254Y-13231484D01*
X4946254Y-13231484D02*
X4917682Y-13231484D01*
X5041492Y-13098150D02*
X5117682Y-13098150D01*
X5070063Y-13031484D02*
X5070063Y-13202912D01*
X5070063Y-13202912D02*
X5079587Y-13221960D01*
X5079587Y-13221960D02*
X5098634Y-13231484D01*
X5098634Y-13231484D02*
X5117682Y-13231484D01*
X5336730Y-13098150D02*
X5336730Y-13298150D01*
X5336730Y-13107674D02*
X5355777Y-13098150D01*
X5355777Y-13098150D02*
X5393873Y-13098150D01*
X5393873Y-13098150D02*
X5412920Y-13107674D01*
X5412920Y-13107674D02*
X5422444Y-13117198D01*
X5422444Y-13117198D02*
X5431968Y-13136246D01*
X5431968Y-13136246D02*
X5431968Y-13193388D01*
X5431968Y-13193388D02*
X5422444Y-13212436D01*
X5422444Y-13212436D02*
X5412920Y-13221960D01*
X5412920Y-13221960D02*
X5393873Y-13231484D01*
X5393873Y-13231484D02*
X5355777Y-13231484D01*
X5355777Y-13231484D02*
X5336730Y-13221960D01*
X5546254Y-13231484D02*
X5527206Y-13221960D01*
X5527206Y-13221960D02*
X5517682Y-13202912D01*
X5517682Y-13202912D02*
X5517682Y-13031484D01*
X5708158Y-13231484D02*
X5708158Y-13126722D01*
X5708158Y-13126722D02*
X5698634Y-13107674D01*
X5698634Y-13107674D02*
X5679587Y-13098150D01*
X5679587Y-13098150D02*
X5641492Y-13098150D01*
X5641492Y-13098150D02*
X5622444Y-13107674D01*
X5708158Y-13221960D02*
X5689111Y-13231484D01*
X5689111Y-13231484D02*
X5641492Y-13231484D01*
X5641492Y-13231484D02*
X5622444Y-13221960D01*
X5622444Y-13221960D02*
X5612920Y-13202912D01*
X5612920Y-13202912D02*
X5612920Y-13183865D01*
X5612920Y-13183865D02*
X5622444Y-13164817D01*
X5622444Y-13164817D02*
X5641492Y-13155293D01*
X5641492Y-13155293D02*
X5689111Y-13155293D01*
X5689111Y-13155293D02*
X5708158Y-13145769D01*
X5774825Y-13098150D02*
X5851015Y-13098150D01*
X5803396Y-13031484D02*
X5803396Y-13202912D01*
X5803396Y-13202912D02*
X5812920Y-13221960D01*
X5812920Y-13221960D02*
X5831968Y-13231484D01*
X5831968Y-13231484D02*
X5851015Y-13231484D01*
X5993873Y-13221960D02*
X5974825Y-13231484D01*
X5974825Y-13231484D02*
X5936730Y-13231484D01*
X5936730Y-13231484D02*
X5917682Y-13221960D01*
X5917682Y-13221960D02*
X5908158Y-13202912D01*
X5908158Y-13202912D02*
X5908158Y-13126722D01*
X5908158Y-13126722D02*
X5917682Y-13107674D01*
X5917682Y-13107674D02*
X5936730Y-13098150D01*
X5936730Y-13098150D02*
X5974825Y-13098150D01*
X5974825Y-13098150D02*
X5993873Y-13107674D01*
X5993873Y-13107674D02*
X6003396Y-13126722D01*
X6003396Y-13126722D02*
X6003396Y-13145769D01*
X6003396Y-13145769D02*
X5908158Y-13164817D01*
X6174825Y-13231484D02*
X6174825Y-13031484D01*
X6174825Y-13221960D02*
X6155777Y-13231484D01*
X6155777Y-13231484D02*
X6117682Y-13231484D01*
X6117682Y-13231484D02*
X6098634Y-13221960D01*
X6098634Y-13221960D02*
X6089111Y-13212436D01*
X6089111Y-13212436D02*
X6079587Y-13193388D01*
X6079587Y-13193388D02*
X6079587Y-13136246D01*
X6079587Y-13136246D02*
X6089111Y-13117198D01*
X6089111Y-13117198D02*
X6098634Y-13107674D01*
X6098634Y-13107674D02*
X6117682Y-13098150D01*
X6117682Y-13098150D02*
X6155777Y-13098150D01*
X6155777Y-13098150D02*
X6174825Y-13107674D01*
X6251015Y-13307674D02*
X6260539Y-13298150D01*
X6260539Y-13298150D02*
X6279587Y-13269579D01*
X6279587Y-13269579D02*
X6289111Y-13250531D01*
X6289111Y-13250531D02*
X6298634Y-13221960D01*
X6298634Y-13221960D02*
X6308158Y-13174341D01*
X6308158Y-13174341D02*
X6308158Y-13136246D01*
X6308158Y-13136246D02*
X6298634Y-13088627D01*
X6298634Y-13088627D02*
X6289111Y-13060055D01*
X6289111Y-13060055D02*
X6279587Y-13041008D01*
X6279587Y-13041008D02*
X6260539Y-13012436D01*
X6260539Y-13012436D02*
X6251015Y-13002912D01*
X-605000Y-13360000D02*
X-605000Y-13560000D01*
X-705000Y-13460000D02*
X-505000Y-13460000D01*
X-158509Y-13418150D02*
X-158509Y-13551484D01*
X-206128Y-13341960D02*
X-253747Y-13484817D01*
X-253747Y-13484817D02*
X-129937Y-13484817D01*
X-53747Y-13532436D02*
X-44223Y-13541960D01*
X-44223Y-13541960D02*
X-53747Y-13551484D01*
X-53747Y-13551484D02*
X-63271Y-13541960D01*
X-63271Y-13541960D02*
X-53747Y-13532436D01*
X-53747Y-13532436D02*
X-53747Y-13551484D01*
X79586Y-13351484D02*
X98634Y-13351484D01*
X98634Y-13351484D02*
X117682Y-13361008D01*
X117682Y-13361008D02*
X127205Y-13370531D01*
X127205Y-13370531D02*
X136729Y-13389579D01*
X136729Y-13389579D02*
X146253Y-13427674D01*
X146253Y-13427674D02*
X146253Y-13475293D01*
X146253Y-13475293D02*
X136729Y-13513388D01*
X136729Y-13513388D02*
X127205Y-13532436D01*
X127205Y-13532436D02*
X117682Y-13541960D01*
X117682Y-13541960D02*
X98634Y-13551484D01*
X98634Y-13551484D02*
X79586Y-13551484D01*
X79586Y-13551484D02*
X60539Y-13541960D01*
X60539Y-13541960D02*
X51015Y-13532436D01*
X51015Y-13532436D02*
X41491Y-13513388D01*
X41491Y-13513388D02*
X31967Y-13475293D01*
X31967Y-13475293D02*
X31967Y-13427674D01*
X31967Y-13427674D02*
X41491Y-13389579D01*
X41491Y-13389579D02*
X51015Y-13370531D01*
X51015Y-13370531D02*
X60539Y-13361008D01*
X60539Y-13361008D02*
X79586Y-13351484D01*
X270063Y-13351484D02*
X289110Y-13351484D01*
X289110Y-13351484D02*
X308158Y-13361008D01*
X308158Y-13361008D02*
X317682Y-13370531D01*
X317682Y-13370531D02*
X327205Y-13389579D01*
X327205Y-13389579D02*
X336729Y-13427674D01*
X336729Y-13427674D02*
X336729Y-13475293D01*
X336729Y-13475293D02*
X327205Y-13513388D01*
X327205Y-13513388D02*
X317682Y-13532436D01*
X317682Y-13532436D02*
X308158Y-13541960D01*
X308158Y-13541960D02*
X289110Y-13551484D01*
X289110Y-13551484D02*
X270063Y-13551484D01*
X270063Y-13551484D02*
X251015Y-13541960D01*
X251015Y-13541960D02*
X241491Y-13532436D01*
X241491Y-13532436D02*
X231967Y-13513388D01*
X231967Y-13513388D02*
X222443Y-13475293D01*
X222443Y-13475293D02*
X222443Y-13427674D01*
X222443Y-13427674D02*
X231967Y-13389579D01*
X231967Y-13389579D02*
X241491Y-13370531D01*
X241491Y-13370531D02*
X251015Y-13361008D01*
X251015Y-13361008D02*
X270063Y-13351484D01*
X460539Y-13351484D02*
X479586Y-13351484D01*
X479586Y-13351484D02*
X498634Y-13361008D01*
X498634Y-13361008D02*
X508158Y-13370531D01*
X508158Y-13370531D02*
X517682Y-13389579D01*
X517682Y-13389579D02*
X527205Y-13427674D01*
X527205Y-13427674D02*
X527205Y-13475293D01*
X527205Y-13475293D02*
X517682Y-13513388D01*
X517682Y-13513388D02*
X508158Y-13532436D01*
X508158Y-13532436D02*
X498634Y-13541960D01*
X498634Y-13541960D02*
X479586Y-13551484D01*
X479586Y-13551484D02*
X460539Y-13551484D01*
X460539Y-13551484D02*
X441491Y-13541960D01*
X441491Y-13541960D02*
X431967Y-13532436D01*
X431967Y-13532436D02*
X422443Y-13513388D01*
X422443Y-13513388D02*
X412920Y-13475293D01*
X412920Y-13475293D02*
X412920Y-13427674D01*
X412920Y-13427674D02*
X422443Y-13389579D01*
X422443Y-13389579D02*
X431967Y-13370531D01*
X431967Y-13370531D02*
X441491Y-13361008D01*
X441491Y-13361008D02*
X460539Y-13351484D01*
X612920Y-13551484D02*
X612920Y-13418150D01*
X612920Y-13437198D02*
X622444Y-13427674D01*
X622444Y-13427674D02*
X641491Y-13418150D01*
X641491Y-13418150D02*
X670063Y-13418150D01*
X670063Y-13418150D02*
X689110Y-13427674D01*
X689110Y-13427674D02*
X698634Y-13446722D01*
X698634Y-13446722D02*
X698634Y-13551484D01*
X698634Y-13446722D02*
X708158Y-13427674D01*
X708158Y-13427674D02*
X727205Y-13418150D01*
X727205Y-13418150D02*
X755777Y-13418150D01*
X755777Y-13418150D02*
X774824Y-13427674D01*
X774824Y-13427674D02*
X784348Y-13446722D01*
X784348Y-13446722D02*
X784348Y-13551484D01*
X879586Y-13551484D02*
X879586Y-13418150D01*
X879586Y-13437198D02*
X889110Y-13427674D01*
X889110Y-13427674D02*
X908158Y-13418150D01*
X908158Y-13418150D02*
X936729Y-13418150D01*
X936729Y-13418150D02*
X955777Y-13427674D01*
X955777Y-13427674D02*
X965301Y-13446722D01*
X965301Y-13446722D02*
X965301Y-13551484D01*
X965301Y-13446722D02*
X974824Y-13427674D01*
X974824Y-13427674D02*
X993872Y-13418150D01*
X993872Y-13418150D02*
X1022443Y-13418150D01*
X1022443Y-13418150D02*
X1041491Y-13427674D01*
X1041491Y-13427674D02*
X1051015Y-13446722D01*
X1051015Y-13446722D02*
X1051015Y-13551484D01*
X1441491Y-13341960D02*
X1270063Y-13599103D01*
X1698634Y-13351484D02*
X1717682Y-13351484D01*
X1717682Y-13351484D02*
X1736729Y-13361008D01*
X1736729Y-13361008D02*
X1746253Y-13370531D01*
X1746253Y-13370531D02*
X1755777Y-13389579D01*
X1755777Y-13389579D02*
X1765301Y-13427674D01*
X1765301Y-13427674D02*
X1765301Y-13475293D01*
X1765301Y-13475293D02*
X1755777Y-13513388D01*
X1755777Y-13513388D02*
X1746253Y-13532436D01*
X1746253Y-13532436D02*
X1736729Y-13541960D01*
X1736729Y-13541960D02*
X1717682Y-13551484D01*
X1717682Y-13551484D02*
X1698634Y-13551484D01*
X1698634Y-13551484D02*
X1679586Y-13541960D01*
X1679586Y-13541960D02*
X1670063Y-13532436D01*
X1670063Y-13532436D02*
X1660539Y-13513388D01*
X1660539Y-13513388D02*
X1651015Y-13475293D01*
X1651015Y-13475293D02*
X1651015Y-13427674D01*
X1651015Y-13427674D02*
X1660539Y-13389579D01*
X1660539Y-13389579D02*
X1670063Y-13370531D01*
X1670063Y-13370531D02*
X1679586Y-13361008D01*
X1679586Y-13361008D02*
X1698634Y-13351484D01*
X1851015Y-13532436D02*
X1860539Y-13541960D01*
X1860539Y-13541960D02*
X1851015Y-13551484D01*
X1851015Y-13551484D02*
X1841491Y-13541960D01*
X1841491Y-13541960D02*
X1851015Y-13532436D01*
X1851015Y-13532436D02*
X1851015Y-13551484D01*
X2051015Y-13551484D02*
X1936729Y-13551484D01*
X1993872Y-13551484D02*
X1993872Y-13351484D01*
X1993872Y-13351484D02*
X1974825Y-13380055D01*
X1974825Y-13380055D02*
X1955777Y-13399103D01*
X1955777Y-13399103D02*
X1936729Y-13408627D01*
X2231968Y-13351484D02*
X2136729Y-13351484D01*
X2136729Y-13351484D02*
X2127206Y-13446722D01*
X2127206Y-13446722D02*
X2136729Y-13437198D01*
X2136729Y-13437198D02*
X2155777Y-13427674D01*
X2155777Y-13427674D02*
X2203396Y-13427674D01*
X2203396Y-13427674D02*
X2222444Y-13437198D01*
X2222444Y-13437198D02*
X2231968Y-13446722D01*
X2231968Y-13446722D02*
X2241491Y-13465769D01*
X2241491Y-13465769D02*
X2241491Y-13513388D01*
X2241491Y-13513388D02*
X2231968Y-13532436D01*
X2231968Y-13532436D02*
X2222444Y-13541960D01*
X2222444Y-13541960D02*
X2203396Y-13551484D01*
X2203396Y-13551484D02*
X2155777Y-13551484D01*
X2155777Y-13551484D02*
X2136729Y-13541960D01*
X2136729Y-13541960D02*
X2127206Y-13532436D01*
X2308158Y-13351484D02*
X2441491Y-13351484D01*
X2441491Y-13351484D02*
X2355777Y-13551484D01*
X2612920Y-13351484D02*
X2517682Y-13351484D01*
X2517682Y-13351484D02*
X2508158Y-13446722D01*
X2508158Y-13446722D02*
X2517682Y-13437198D01*
X2517682Y-13437198D02*
X2536729Y-13427674D01*
X2536729Y-13427674D02*
X2584349Y-13427674D01*
X2584349Y-13427674D02*
X2603396Y-13437198D01*
X2603396Y-13437198D02*
X2612920Y-13446722D01*
X2612920Y-13446722D02*
X2622444Y-13465769D01*
X2622444Y-13465769D02*
X2622444Y-13513388D01*
X2622444Y-13513388D02*
X2612920Y-13532436D01*
X2612920Y-13532436D02*
X2603396Y-13541960D01*
X2603396Y-13541960D02*
X2584349Y-13551484D01*
X2584349Y-13551484D02*
X2536729Y-13551484D01*
X2536729Y-13551484D02*
X2517682Y-13541960D01*
X2517682Y-13541960D02*
X2508158Y-13532436D01*
X2698634Y-13351484D02*
X2698634Y-13389579D01*
X2774825Y-13351484D02*
X2774825Y-13389579D01*
X3070063Y-13627674D02*
X3060539Y-13618150D01*
X3060539Y-13618150D02*
X3041491Y-13589579D01*
X3041491Y-13589579D02*
X3031968Y-13570531D01*
X3031968Y-13570531D02*
X3022444Y-13541960D01*
X3022444Y-13541960D02*
X3012920Y-13494341D01*
X3012920Y-13494341D02*
X3012920Y-13456246D01*
X3012920Y-13456246D02*
X3022444Y-13408627D01*
X3022444Y-13408627D02*
X3031968Y-13380055D01*
X3031968Y-13380055D02*
X3041491Y-13361008D01*
X3041491Y-13361008D02*
X3060539Y-13332436D01*
X3060539Y-13332436D02*
X3070063Y-13322912D01*
X3136729Y-13370531D02*
X3146253Y-13361008D01*
X3146253Y-13361008D02*
X3165301Y-13351484D01*
X3165301Y-13351484D02*
X3212920Y-13351484D01*
X3212920Y-13351484D02*
X3231968Y-13361008D01*
X3231968Y-13361008D02*
X3241491Y-13370531D01*
X3241491Y-13370531D02*
X3251015Y-13389579D01*
X3251015Y-13389579D02*
X3251015Y-13408627D01*
X3251015Y-13408627D02*
X3241491Y-13437198D01*
X3241491Y-13437198D02*
X3127206Y-13551484D01*
X3127206Y-13551484D02*
X3251015Y-13551484D01*
X3422444Y-13351484D02*
X3384348Y-13351484D01*
X3384348Y-13351484D02*
X3365301Y-13361008D01*
X3365301Y-13361008D02*
X3355777Y-13370531D01*
X3355777Y-13370531D02*
X3336729Y-13399103D01*
X3336729Y-13399103D02*
X3327206Y-13437198D01*
X3327206Y-13437198D02*
X3327206Y-13513388D01*
X3327206Y-13513388D02*
X3336729Y-13532436D01*
X3336729Y-13532436D02*
X3346253Y-13541960D01*
X3346253Y-13541960D02*
X3365301Y-13551484D01*
X3365301Y-13551484D02*
X3403396Y-13551484D01*
X3403396Y-13551484D02*
X3422444Y-13541960D01*
X3422444Y-13541960D02*
X3431968Y-13532436D01*
X3431968Y-13532436D02*
X3441491Y-13513388D01*
X3441491Y-13513388D02*
X3441491Y-13465769D01*
X3441491Y-13465769D02*
X3431968Y-13446722D01*
X3431968Y-13446722D02*
X3422444Y-13437198D01*
X3422444Y-13437198D02*
X3403396Y-13427674D01*
X3403396Y-13427674D02*
X3365301Y-13427674D01*
X3365301Y-13427674D02*
X3346253Y-13437198D01*
X3346253Y-13437198D02*
X3336729Y-13446722D01*
X3336729Y-13446722D02*
X3327206Y-13465769D01*
X3679587Y-13551484D02*
X3679587Y-13351484D01*
X3765301Y-13551484D02*
X3765301Y-13446722D01*
X3765301Y-13446722D02*
X3755777Y-13427674D01*
X3755777Y-13427674D02*
X3736730Y-13418150D01*
X3736730Y-13418150D02*
X3708158Y-13418150D01*
X3708158Y-13418150D02*
X3689110Y-13427674D01*
X3689110Y-13427674D02*
X3679587Y-13437198D01*
X3889110Y-13551484D02*
X3870063Y-13541960D01*
X3870063Y-13541960D02*
X3860539Y-13532436D01*
X3860539Y-13532436D02*
X3851015Y-13513388D01*
X3851015Y-13513388D02*
X3851015Y-13456246D01*
X3851015Y-13456246D02*
X3860539Y-13437198D01*
X3860539Y-13437198D02*
X3870063Y-13427674D01*
X3870063Y-13427674D02*
X3889110Y-13418150D01*
X3889110Y-13418150D02*
X3917682Y-13418150D01*
X3917682Y-13418150D02*
X3936730Y-13427674D01*
X3936730Y-13427674D02*
X3946253Y-13437198D01*
X3946253Y-13437198D02*
X3955777Y-13456246D01*
X3955777Y-13456246D02*
X3955777Y-13513388D01*
X3955777Y-13513388D02*
X3946253Y-13532436D01*
X3946253Y-13532436D02*
X3936730Y-13541960D01*
X3936730Y-13541960D02*
X3917682Y-13551484D01*
X3917682Y-13551484D02*
X3889110Y-13551484D01*
X4070063Y-13551484D02*
X4051015Y-13541960D01*
X4051015Y-13541960D02*
X4041491Y-13522912D01*
X4041491Y-13522912D02*
X4041491Y-13351484D01*
X4222444Y-13541960D02*
X4203396Y-13551484D01*
X4203396Y-13551484D02*
X4165301Y-13551484D01*
X4165301Y-13551484D02*
X4146253Y-13541960D01*
X4146253Y-13541960D02*
X4136730Y-13522912D01*
X4136730Y-13522912D02*
X4136730Y-13446722D01*
X4136730Y-13446722D02*
X4146253Y-13427674D01*
X4146253Y-13427674D02*
X4165301Y-13418150D01*
X4165301Y-13418150D02*
X4203396Y-13418150D01*
X4203396Y-13418150D02*
X4222444Y-13427674D01*
X4222444Y-13427674D02*
X4231968Y-13446722D01*
X4231968Y-13446722D02*
X4231968Y-13465769D01*
X4231968Y-13465769D02*
X4136730Y-13484817D01*
X4308158Y-13541960D02*
X4327206Y-13551484D01*
X4327206Y-13551484D02*
X4365301Y-13551484D01*
X4365301Y-13551484D02*
X4384349Y-13541960D01*
X4384349Y-13541960D02*
X4393873Y-13522912D01*
X4393873Y-13522912D02*
X4393873Y-13513388D01*
X4393873Y-13513388D02*
X4384349Y-13494341D01*
X4384349Y-13494341D02*
X4365301Y-13484817D01*
X4365301Y-13484817D02*
X4336730Y-13484817D01*
X4336730Y-13484817D02*
X4317682Y-13475293D01*
X4317682Y-13475293D02*
X4308158Y-13456246D01*
X4308158Y-13456246D02*
X4308158Y-13446722D01*
X4308158Y-13446722D02*
X4317682Y-13427674D01*
X4317682Y-13427674D02*
X4336730Y-13418150D01*
X4336730Y-13418150D02*
X4365301Y-13418150D01*
X4365301Y-13418150D02*
X4384349Y-13427674D01*
X4460539Y-13627674D02*
X4470063Y-13618150D01*
X4470063Y-13618150D02*
X4489111Y-13589579D01*
X4489111Y-13589579D02*
X4498634Y-13570531D01*
X4498634Y-13570531D02*
X4508158Y-13541960D01*
X4508158Y-13541960D02*
X4517682Y-13494341D01*
X4517682Y-13494341D02*
X4517682Y-13456246D01*
X4517682Y-13456246D02*
X4508158Y-13408627D01*
X4508158Y-13408627D02*
X4498634Y-13380055D01*
X4498634Y-13380055D02*
X4489111Y-13361008D01*
X4489111Y-13361008D02*
X4470063Y-13332436D01*
X4470063Y-13332436D02*
X4460539Y-13322912D01*
X4822444Y-13627674D02*
X4812920Y-13618150D01*
X4812920Y-13618150D02*
X4793873Y-13589579D01*
X4793873Y-13589579D02*
X4784349Y-13570531D01*
X4784349Y-13570531D02*
X4774825Y-13541960D01*
X4774825Y-13541960D02*
X4765301Y-13494341D01*
X4765301Y-13494341D02*
X4765301Y-13456246D01*
X4765301Y-13456246D02*
X4774825Y-13408627D01*
X4774825Y-13408627D02*
X4784349Y-13380055D01*
X4784349Y-13380055D02*
X4793873Y-13361008D01*
X4793873Y-13361008D02*
X4812920Y-13332436D01*
X4812920Y-13332436D02*
X4822444Y-13322912D01*
X4898634Y-13418150D02*
X4898634Y-13551484D01*
X4898634Y-13437198D02*
X4908158Y-13427674D01*
X4908158Y-13427674D02*
X4927206Y-13418150D01*
X4927206Y-13418150D02*
X4955777Y-13418150D01*
X4955777Y-13418150D02*
X4974825Y-13427674D01*
X4974825Y-13427674D02*
X4984349Y-13446722D01*
X4984349Y-13446722D02*
X4984349Y-13551484D01*
X5108158Y-13551484D02*
X5089111Y-13541960D01*
X5089111Y-13541960D02*
X5079587Y-13532436D01*
X5079587Y-13532436D02*
X5070063Y-13513388D01*
X5070063Y-13513388D02*
X5070063Y-13456246D01*
X5070063Y-13456246D02*
X5079587Y-13437198D01*
X5079587Y-13437198D02*
X5089111Y-13427674D01*
X5089111Y-13427674D02*
X5108158Y-13418150D01*
X5108158Y-13418150D02*
X5136730Y-13418150D01*
X5136730Y-13418150D02*
X5155777Y-13427674D01*
X5155777Y-13427674D02*
X5165301Y-13437198D01*
X5165301Y-13437198D02*
X5174825Y-13456246D01*
X5174825Y-13456246D02*
X5174825Y-13513388D01*
X5174825Y-13513388D02*
X5165301Y-13532436D01*
X5165301Y-13532436D02*
X5155777Y-13541960D01*
X5155777Y-13541960D02*
X5136730Y-13551484D01*
X5136730Y-13551484D02*
X5108158Y-13551484D01*
X5231968Y-13418150D02*
X5308158Y-13418150D01*
X5260539Y-13351484D02*
X5260539Y-13522912D01*
X5260539Y-13522912D02*
X5270063Y-13541960D01*
X5270063Y-13541960D02*
X5289111Y-13551484D01*
X5289111Y-13551484D02*
X5308158Y-13551484D01*
X5527206Y-13418150D02*
X5527206Y-13618150D01*
X5527206Y-13427674D02*
X5546254Y-13418150D01*
X5546254Y-13418150D02*
X5584349Y-13418150D01*
X5584349Y-13418150D02*
X5603396Y-13427674D01*
X5603396Y-13427674D02*
X5612920Y-13437198D01*
X5612920Y-13437198D02*
X5622444Y-13456246D01*
X5622444Y-13456246D02*
X5622444Y-13513388D01*
X5622444Y-13513388D02*
X5612920Y-13532436D01*
X5612920Y-13532436D02*
X5603396Y-13541960D01*
X5603396Y-13541960D02*
X5584349Y-13551484D01*
X5584349Y-13551484D02*
X5546254Y-13551484D01*
X5546254Y-13551484D02*
X5527206Y-13541960D01*
X5736730Y-13551484D02*
X5717682Y-13541960D01*
X5717682Y-13541960D02*
X5708158Y-13522912D01*
X5708158Y-13522912D02*
X5708158Y-13351484D01*
X5898634Y-13551484D02*
X5898634Y-13446722D01*
X5898634Y-13446722D02*
X5889111Y-13427674D01*
X5889111Y-13427674D02*
X5870063Y-13418150D01*
X5870063Y-13418150D02*
X5831968Y-13418150D01*
X5831968Y-13418150D02*
X5812920Y-13427674D01*
X5898634Y-13541960D02*
X5879587Y-13551484D01*
X5879587Y-13551484D02*
X5831968Y-13551484D01*
X5831968Y-13551484D02*
X5812920Y-13541960D01*
X5812920Y-13541960D02*
X5803396Y-13522912D01*
X5803396Y-13522912D02*
X5803396Y-13503865D01*
X5803396Y-13503865D02*
X5812920Y-13484817D01*
X5812920Y-13484817D02*
X5831968Y-13475293D01*
X5831968Y-13475293D02*
X5879587Y-13475293D01*
X5879587Y-13475293D02*
X5898634Y-13465769D01*
X5965301Y-13418150D02*
X6041492Y-13418150D01*
X5993873Y-13351484D02*
X5993873Y-13522912D01*
X5993873Y-13522912D02*
X6003396Y-13541960D01*
X6003396Y-13541960D02*
X6022444Y-13551484D01*
X6022444Y-13551484D02*
X6041492Y-13551484D01*
X6184349Y-13541960D02*
X6165301Y-13551484D01*
X6165301Y-13551484D02*
X6127206Y-13551484D01*
X6127206Y-13551484D02*
X6108158Y-13541960D01*
X6108158Y-13541960D02*
X6098634Y-13522912D01*
X6098634Y-13522912D02*
X6098634Y-13446722D01*
X6098634Y-13446722D02*
X6108158Y-13427674D01*
X6108158Y-13427674D02*
X6127206Y-13418150D01*
X6127206Y-13418150D02*
X6165301Y-13418150D01*
X6165301Y-13418150D02*
X6184349Y-13427674D01*
X6184349Y-13427674D02*
X6193873Y-13446722D01*
X6193873Y-13446722D02*
X6193873Y-13465769D01*
X6193873Y-13465769D02*
X6098634Y-13484817D01*
X6365301Y-13551484D02*
X6365301Y-13351484D01*
X6365301Y-13541960D02*
X6346254Y-13551484D01*
X6346254Y-13551484D02*
X6308158Y-13551484D01*
X6308158Y-13551484D02*
X6289111Y-13541960D01*
X6289111Y-13541960D02*
X6279587Y-13532436D01*
X6279587Y-13532436D02*
X6270063Y-13513388D01*
X6270063Y-13513388D02*
X6270063Y-13456246D01*
X6270063Y-13456246D02*
X6279587Y-13437198D01*
X6279587Y-13437198D02*
X6289111Y-13427674D01*
X6289111Y-13427674D02*
X6308158Y-13418150D01*
X6308158Y-13418150D02*
X6346254Y-13418150D01*
X6346254Y-13418150D02*
X6365301Y-13427674D01*
X6441492Y-13627674D02*
X6451015Y-13618150D01*
X6451015Y-13618150D02*
X6470063Y-13589579D01*
X6470063Y-13589579D02*
X6479587Y-13570531D01*
X6479587Y-13570531D02*
X6489111Y-13541960D01*
X6489111Y-13541960D02*
X6498634Y-13494341D01*
X6498634Y-13494341D02*
X6498634Y-13456246D01*
X6498634Y-13456246D02*
X6489111Y-13408627D01*
X6489111Y-13408627D02*
X6479587Y-13380055D01*
X6479587Y-13380055D02*
X6470063Y-13361008D01*
X6470063Y-13361008D02*
X6451015Y-13332436D01*
X6451015Y-13332436D02*
X6441492Y-13322912D01*
M02*
