%TF.GenerationSoftware,KiCad,Pcbnew,9.0.7*%
%TF.CreationDate,2026-03-05T15:40:13-05:00*%
%TF.ProjectId,Macropad,4d616372-6f70-4616-942e-6b696361645f,rev?*%
%TF.SameCoordinates,Original*%
%TF.FileFunction,Drillmap*%
%TF.FilePolarity,Positive*%
%FSLAX45Y45*%
G04 Gerber Fmt 4.5, Leading zero omitted, Abs format (unit mm)*
G04 Created by KiCad (PCBNEW 9.0.7) date 2026-03-05 15:40:13*
%MOMM*%
%LPD*%
G01*
G04 APERTURE LIST*
%ADD10C,0.100000*%
%ADD11C,0.200000*%
%ADD12C,0.300000*%
G04 APERTURE END LIST*
D10*
X-500000Y4100000D02*
X10725000Y4100000D01*
X10725000Y-12200000D01*
X-500000Y-12200000D01*
X-500000Y4100000D01*
D11*
D10*
X1230000Y-3172000D02*
X1270000Y-3212000D01*
X1270000Y-3172000D02*
X1230000Y-3212000D01*
X1780000Y-3172000D02*
X1820000Y-3212000D01*
X1820000Y-3172000D02*
X1780000Y-3212000D01*
X2205000Y-1399000D02*
X2245000Y-1439000D01*
X2245000Y-1399000D02*
X2205000Y-1439000D01*
X5042500Y3778000D02*
X5082500Y3738000D01*
X5082500Y3778000D02*
X5042500Y3738000D01*
X5142500Y3678000D02*
X5182500Y3638000D01*
X5182500Y3678000D02*
X5142500Y3638000D01*
X6630000Y2846000D02*
X6670000Y2806000D01*
X6670000Y2846000D02*
X6630000Y2806000D01*
X6630000Y2719000D02*
X6670000Y2679000D01*
X6670000Y2719000D02*
X6630000Y2679000D01*
X6630000Y2592000D02*
X6670000Y2552000D01*
X6670000Y2592000D02*
X6630000Y2552000D01*
X7005000Y1177000D02*
X7045000Y1137000D01*
X7045000Y1177000D02*
X7005000Y1137000D01*
X7187500Y1220000D02*
X7227500Y1180000D01*
X7227500Y1220000D02*
X7187500Y1180000D01*
X7314500Y1220000D02*
X7354500Y1180000D01*
X7354500Y1220000D02*
X7314500Y1180000D01*
X7441500Y1220000D02*
X7481500Y1180000D01*
X7481500Y1220000D02*
X7441500Y1180000D01*
X7568500Y1220000D02*
X7608500Y1180000D01*
X7608500Y1220000D02*
X7568500Y1180000D01*
X7695500Y1220000D02*
X7735500Y1180000D01*
X7735500Y1220000D02*
X7695500Y1180000D01*
X8005000Y2955000D02*
X8045000Y2915000D01*
X8045000Y2955000D02*
X8005000Y2915000D01*
X8005000Y2701000D02*
X8045000Y2661000D01*
X8045000Y2701000D02*
X8005000Y2661000D01*
X8005000Y2447000D02*
X8045000Y2407000D01*
X8045000Y2447000D02*
X8005000Y2407000D01*
X4710500Y3900000D02*
G75*
G02*
X4650500Y3900000I-30000J0D01*
G01*
X4650500Y3900000D02*
G75*
G02*
X4710500Y3900000I30000J0D01*
G01*
X4650500Y3930000D02*
X4650500Y3870000D01*
X4710500Y3870000D02*
G75*
G02*
X4650500Y3870000I-30000J0D01*
G01*
X4710500Y3870000D02*
X4710500Y3930000D01*
X4710500Y3930000D02*
G75*
G03*
X4650500Y3930000I-30000J0D01*
G01*
X4710500Y3520000D02*
G75*
G02*
X4650500Y3520000I-30000J0D01*
G01*
X4650500Y3520000D02*
G75*
G02*
X4710500Y3520000I30000J0D01*
G01*
X4650500Y3550000D02*
X4650500Y3490000D01*
X4710500Y3490000D02*
G75*
G02*
X4650500Y3490000I-30000J0D01*
G01*
X4710500Y3490000D02*
X4710500Y3550000D01*
X4710500Y3550000D02*
G75*
G03*
X4650500Y3550000I-30000J0D01*
G01*
X5574500Y3900000D02*
G75*
G02*
X5514500Y3900000I-30000J0D01*
G01*
X5514500Y3900000D02*
G75*
G02*
X5574500Y3900000I30000J0D01*
G01*
X5514500Y3930000D02*
X5514500Y3870000D01*
X5574500Y3870000D02*
G75*
G02*
X5514500Y3870000I-30000J0D01*
G01*
X5574500Y3870000D02*
X5574500Y3930000D01*
X5574500Y3930000D02*
G75*
G03*
X5514500Y3930000I-30000J0D01*
G01*
X5574500Y3520000D02*
G75*
G02*
X5514500Y3520000I-30000J0D01*
G01*
X5514500Y3520000D02*
G75*
G02*
X5574500Y3520000I30000J0D01*
G01*
X5514500Y3550000D02*
X5514500Y3490000D01*
X5574500Y3490000D02*
G75*
G02*
X5514500Y3490000I-30000J0D01*
G01*
X5574500Y3490000D02*
X5574500Y3550000D01*
X5574500Y3550000D02*
G75*
G03*
X5514500Y3550000I-30000J0D01*
G01*
X940500Y-1562500D02*
X940500Y-1642500D01*
X900500Y-1602500D02*
X980500Y-1602500D01*
X940500Y-3943700D02*
X940500Y-4023700D01*
X900500Y-3983700D02*
X980500Y-3983700D01*
X940500Y-5848800D02*
X940500Y-5928800D01*
X900500Y-5888800D02*
X980500Y-5888800D01*
X940500Y-7753800D02*
X940500Y-7833800D01*
X900500Y-7793800D02*
X980500Y-7793800D01*
X940500Y-9658700D02*
X940500Y-9738700D01*
X900500Y-9698700D02*
X980500Y-9698700D01*
X940500Y-11563800D02*
X940500Y-11643800D01*
X900500Y-11603800D02*
X980500Y-11603800D01*
X1702500Y-1562500D02*
X1702500Y-1642500D01*
X1662500Y-1602500D02*
X1742500Y-1602500D01*
X1702500Y-3943700D02*
X1702500Y-4023700D01*
X1662500Y-3983700D02*
X1742500Y-3983700D01*
X1702500Y-5848800D02*
X1702500Y-5928800D01*
X1662500Y-5888800D02*
X1742500Y-5888800D01*
X1702500Y-7753800D02*
X1702500Y-7833800D01*
X1662500Y-7793800D02*
X1742500Y-7793800D01*
X1702500Y-9658700D02*
X1702500Y-9738700D01*
X1662500Y-9698700D02*
X1742500Y-9698700D01*
X1702500Y-11563800D02*
X1702500Y-11643800D01*
X1662500Y-11603800D02*
X1742500Y-11603800D01*
X2845500Y-3943700D02*
X2845500Y-4023700D01*
X2805500Y-3983700D02*
X2885500Y-3983700D01*
X2845500Y-5848800D02*
X2845500Y-5928800D01*
X2805500Y-5888800D02*
X2885500Y-5888800D01*
X2845500Y-7753800D02*
X2845500Y-7833800D01*
X2805500Y-7793800D02*
X2885500Y-7793800D01*
X2845500Y-9658700D02*
X2845500Y-9738700D01*
X2805500Y-9698700D02*
X2885500Y-9698700D01*
X2845500Y-11563800D02*
X2845500Y-11643800D01*
X2805500Y-11603800D02*
X2885500Y-11603800D01*
X3607500Y-3943700D02*
X3607500Y-4023700D01*
X3567500Y-3983700D02*
X3647500Y-3983700D01*
X3607500Y-5848800D02*
X3607500Y-5928800D01*
X3567500Y-5888800D02*
X3647500Y-5888800D01*
X3607500Y-7753800D02*
X3607500Y-7833800D01*
X3567500Y-7793800D02*
X3647500Y-7793800D01*
X3607500Y-9658700D02*
X3607500Y-9738700D01*
X3567500Y-9698700D02*
X3647500Y-9698700D01*
X3607500Y-11563800D02*
X3607500Y-11643800D01*
X3567500Y-11603800D02*
X3647500Y-11603800D01*
X4750500Y-3943700D02*
X4750500Y-4023700D01*
X4710500Y-3983700D02*
X4790500Y-3983700D01*
X4750500Y-5848800D02*
X4750500Y-5928800D01*
X4710500Y-5888800D02*
X4790500Y-5888800D01*
X4750500Y-7753800D02*
X4750500Y-7833800D01*
X4710500Y-7793800D02*
X4790500Y-7793800D01*
X4750500Y-9658700D02*
X4750500Y-9738700D01*
X4710500Y-9698700D02*
X4790500Y-9698700D01*
X4750500Y-11563800D02*
X4750500Y-11643800D01*
X4710500Y-11603800D02*
X4790500Y-11603800D01*
X5512500Y-3943700D02*
X5512500Y-4023700D01*
X5472500Y-3983700D02*
X5552500Y-3983700D01*
X5512500Y-5848800D02*
X5512500Y-5928800D01*
X5472500Y-5888800D02*
X5552500Y-5888800D01*
X5512500Y-7753800D02*
X5512500Y-7833800D01*
X5472500Y-7793800D02*
X5552500Y-7793800D01*
X5512500Y-9658700D02*
X5512500Y-9738700D01*
X5472500Y-9698700D02*
X5552500Y-9698700D01*
X5512500Y-11563800D02*
X5512500Y-11643800D01*
X5472500Y-11603800D02*
X5552500Y-11603800D01*
X6655500Y-3943700D02*
X6655500Y-4023700D01*
X6615500Y-3983700D02*
X6695500Y-3983700D01*
X6655500Y-5848800D02*
X6655500Y-5928800D01*
X6615500Y-5888800D02*
X6695500Y-5888800D01*
X6655500Y-7753800D02*
X6655500Y-7833800D01*
X6615500Y-7793800D02*
X6695500Y-7793800D01*
X6655500Y-9658700D02*
X6655500Y-9738700D01*
X6615500Y-9698700D02*
X6695500Y-9698700D01*
X6655500Y-11563800D02*
X6655500Y-11643800D01*
X6615500Y-11603800D02*
X6695500Y-11603800D01*
X7417500Y-3943700D02*
X7417500Y-4023700D01*
X7377500Y-3983700D02*
X7457500Y-3983700D01*
X7417500Y-5848800D02*
X7417500Y-5928800D01*
X7377500Y-5888800D02*
X7457500Y-5888800D01*
X7417500Y-7753800D02*
X7417500Y-7833800D01*
X7377500Y-7793800D02*
X7457500Y-7793800D01*
X7417500Y-9658700D02*
X7417500Y-9738700D01*
X7377500Y-9698700D02*
X7457500Y-9698700D01*
X7417500Y-11563800D02*
X7417500Y-11643800D01*
X7377500Y-11603800D02*
X7457500Y-11603800D01*
X8560500Y-3943700D02*
X8560500Y-4023700D01*
X8520500Y-3983700D02*
X8600500Y-3983700D01*
X8560500Y-5848800D02*
X8560500Y-5928800D01*
X8520500Y-5888800D02*
X8600500Y-5888800D01*
X8560500Y-7753800D02*
X8560500Y-7833800D01*
X8520500Y-7793800D02*
X8600500Y-7793800D01*
X8560500Y-9658700D02*
X8560500Y-9738700D01*
X8520500Y-9698700D02*
X8600500Y-9698700D01*
X8560500Y-11563800D02*
X8560500Y-11643800D01*
X8520500Y-11603800D02*
X8600500Y-11603800D01*
X9322500Y-3943700D02*
X9322500Y-4023700D01*
X9282500Y-3983700D02*
X9362500Y-3983700D01*
X9322500Y-5848800D02*
X9322500Y-5928800D01*
X9282500Y-5888800D02*
X9362500Y-5888800D01*
X9322500Y-7753800D02*
X9322500Y-7833800D01*
X9282500Y-7793800D02*
X9362500Y-7793800D01*
X9322500Y-9658700D02*
X9322500Y-9738700D01*
X9282500Y-9698700D02*
X9362500Y-9698700D01*
X9322500Y-11563800D02*
X9322500Y-11643800D01*
X9282500Y-11603800D02*
X9362500Y-11603800D01*
X9925000Y-460000D02*
X9925000Y-540000D01*
X9885000Y-500000D02*
X9965000Y-500000D01*
X10275000Y-460000D02*
X10275000Y-540000D01*
X10235000Y-500000D02*
X10315000Y-500000D01*
X585356Y1714644D02*
X585356Y1785356D01*
X514644Y1785356D01*
X514644Y1714644D01*
X585356Y1714644D01*
X585356Y214644D02*
X585356Y285356D01*
X514644Y285356D01*
X514644Y214644D01*
X585356Y214644D01*
X835356Y214644D02*
X835356Y285356D01*
X764644Y285356D01*
X764644Y214644D01*
X835356Y214644D01*
X981356Y3464644D02*
X981356Y3535356D01*
X910644Y3535356D01*
X910644Y3464644D01*
X981356Y3464644D01*
X1085356Y1714644D02*
X1085356Y1785356D01*
X1014644Y1785356D01*
X1014644Y1714644D01*
X1085356Y1714644D01*
X1085356Y214644D02*
X1085356Y285356D01*
X1014644Y285356D01*
X1014644Y214644D01*
X1085356Y214644D01*
X1235356Y3764644D02*
X1235356Y3835356D01*
X1164644Y3835356D01*
X1164644Y3764644D01*
X1235356Y3764644D01*
X1235356Y3464644D02*
X1235356Y3535356D01*
X1164644Y3535356D01*
X1164644Y3464644D01*
X1235356Y3464644D01*
X1489356Y3764644D02*
X1489356Y3835356D01*
X1418644Y3835356D01*
X1418644Y3764644D01*
X1489356Y3764644D01*
X1854356Y3764644D02*
X1854356Y3835356D01*
X1783644Y3835356D01*
X1783644Y3764644D01*
X1854356Y3764644D01*
X2108356Y3764644D02*
X2108356Y3835356D01*
X2037644Y3835356D01*
X2037644Y3764644D01*
X2108356Y3764644D01*
X2362356Y3764644D02*
X2362356Y3835356D01*
X2291644Y3835356D01*
X2291644Y3764644D01*
X2362356Y3764644D01*
X2616356Y3764644D02*
X2616356Y3835356D01*
X2545644Y3835356D01*
X2545644Y3764644D01*
X2616356Y3764644D01*
X2981356Y3764644D02*
X2981356Y3835356D01*
X2910644Y3835356D01*
X2910644Y3764644D01*
X2981356Y3764644D01*
X3073356Y614644D02*
X3073356Y685356D01*
X3002644Y685356D01*
X3002644Y614644D01*
X3073356Y614644D01*
X3235356Y3764644D02*
X3235356Y3835356D01*
X3164644Y3835356D01*
X3164644Y3764644D01*
X3235356Y3764644D01*
X3327356Y614644D02*
X3327356Y685356D01*
X3256644Y685356D01*
X3256644Y614644D01*
X3327356Y614644D01*
X3489356Y3764644D02*
X3489356Y3835356D01*
X3418644Y3835356D01*
X3418644Y3764644D01*
X3489356Y3764644D01*
X3581356Y614644D02*
X3581356Y685356D01*
X3510644Y685356D01*
X3510644Y614644D01*
X3581356Y614644D01*
X3835356Y614644D02*
X3835356Y685356D01*
X3764644Y685356D01*
X3764644Y614644D01*
X3835356Y614644D01*
X4077356Y614644D02*
X4077356Y685356D01*
X4006644Y685356D01*
X4006644Y614644D01*
X4077356Y614644D01*
X4331356Y614644D02*
X4331356Y685356D01*
X4260644Y685356D01*
X4260644Y614644D01*
X4331356Y614644D01*
X4585356Y614644D02*
X4585356Y685356D01*
X4514644Y685356D01*
X4514644Y614644D01*
X4585356Y614644D01*
X4839356Y614644D02*
X4839356Y685356D01*
X4768644Y685356D01*
X4768644Y614644D01*
X4839356Y614644D01*
X5085356Y614644D02*
X5085356Y685356D01*
X5014644Y685356D01*
X5014644Y614644D01*
X5085356Y614644D01*
X5339356Y614644D02*
X5339356Y685356D01*
X5268644Y685356D01*
X5268644Y614644D01*
X5339356Y614644D01*
X5593356Y614644D02*
X5593356Y685356D01*
X5522644Y685356D01*
X5522644Y614644D01*
X5593356Y614644D01*
X5847356Y614644D02*
X5847356Y685356D01*
X5776644Y685356D01*
X5776644Y614644D01*
X5847356Y614644D01*
X6101356Y614644D02*
X6101356Y685356D01*
X6030644Y685356D01*
X6030644Y614644D01*
X6101356Y614644D01*
X9860356Y3018644D02*
X9860356Y3089356D01*
X9789644Y3089356D01*
X9789644Y3018644D01*
X9860356Y3018644D01*
X9860356Y2764644D02*
X9860356Y2835356D01*
X9789644Y2835356D01*
X9789644Y2764644D01*
X9860356Y2764644D01*
X9860356Y2510644D02*
X9860356Y2581356D01*
X9789644Y2581356D01*
X9789644Y2510644D01*
X9860356Y2510644D01*
X10435356Y2418644D02*
X10435356Y2489356D01*
X10364644Y2489356D01*
X10364644Y2418644D01*
X10435356Y2418644D01*
X10435356Y2164644D02*
X10435356Y2235356D01*
X10364644Y2235356D01*
X10364644Y2164644D01*
X10435356Y2164644D01*
X10435356Y1910644D02*
X10435356Y1981356D01*
X10364644Y1981356D01*
X10364644Y1910644D01*
X10435356Y1910644D01*
D12*
X571500Y-848500D02*
X721500Y-698500D01*
X571500Y-548500D01*
X421500Y-698500D01*
X571500Y-848500D01*
X571500Y-3229700D02*
X721500Y-3079700D01*
X571500Y-2929700D01*
X421500Y-3079700D01*
X571500Y-3229700D01*
X571500Y-5134800D02*
X721500Y-4984800D01*
X571500Y-4834800D01*
X421500Y-4984800D01*
X571500Y-5134800D01*
X571500Y-7039800D02*
X721500Y-6889800D01*
X571500Y-6739800D01*
X421500Y-6889800D01*
X571500Y-7039800D01*
X571500Y-8944700D02*
X721500Y-8794700D01*
X571500Y-8644700D01*
X421500Y-8794700D01*
X571500Y-8944700D01*
X571500Y-10849800D02*
X721500Y-10699800D01*
X571500Y-10549800D01*
X421500Y-10699800D01*
X571500Y-10849800D01*
X1206500Y-594500D02*
X1356500Y-444500D01*
X1206500Y-294500D01*
X1056500Y-444500D01*
X1206500Y-594500D01*
X1206500Y-2975700D02*
X1356500Y-2825700D01*
X1206500Y-2675700D01*
X1056500Y-2825700D01*
X1206500Y-2975700D01*
X1206500Y-4880800D02*
X1356500Y-4730800D01*
X1206500Y-4580800D01*
X1056500Y-4730800D01*
X1206500Y-4880800D01*
X1206500Y-6785800D02*
X1356500Y-6635800D01*
X1206500Y-6485800D01*
X1056500Y-6635800D01*
X1206500Y-6785800D01*
X1206500Y-8690700D02*
X1356500Y-8540700D01*
X1206500Y-8390700D01*
X1056500Y-8540700D01*
X1206500Y-8690700D01*
X1206500Y-10595800D02*
X1356500Y-10445800D01*
X1206500Y-10295800D01*
X1056500Y-10445800D01*
X1206500Y-10595800D01*
X2476500Y-3229700D02*
X2626500Y-3079700D01*
X2476500Y-2929700D01*
X2326500Y-3079700D01*
X2476500Y-3229700D01*
X2476500Y-5134800D02*
X2626500Y-4984800D01*
X2476500Y-4834800D01*
X2326500Y-4984800D01*
X2476500Y-5134800D01*
X2476500Y-7039800D02*
X2626500Y-6889800D01*
X2476500Y-6739800D01*
X2326500Y-6889800D01*
X2476500Y-7039800D01*
X2476500Y-8944700D02*
X2626500Y-8794700D01*
X2476500Y-8644700D01*
X2326500Y-8794700D01*
X2476500Y-8944700D01*
X2476500Y-10849800D02*
X2626500Y-10699800D01*
X2476500Y-10549800D01*
X2326500Y-10699800D01*
X2476500Y-10849800D01*
X3111500Y-2975700D02*
X3261500Y-2825700D01*
X3111500Y-2675700D01*
X2961500Y-2825700D01*
X3111500Y-2975700D01*
X3111500Y-4880800D02*
X3261500Y-4730800D01*
X3111500Y-4580800D01*
X2961500Y-4730800D01*
X3111500Y-4880800D01*
X3111500Y-6785800D02*
X3261500Y-6635800D01*
X3111500Y-6485800D01*
X2961500Y-6635800D01*
X3111500Y-6785800D01*
X3111500Y-8690700D02*
X3261500Y-8540700D01*
X3111500Y-8390700D01*
X2961500Y-8540700D01*
X3111500Y-8690700D01*
X3111500Y-10595800D02*
X3261500Y-10445800D01*
X3111500Y-10295800D01*
X2961500Y-10445800D01*
X3111500Y-10595800D01*
X4381500Y-3229700D02*
X4531500Y-3079700D01*
X4381500Y-2929700D01*
X4231500Y-3079700D01*
X4381500Y-3229700D01*
X4381500Y-5134800D02*
X4531500Y-4984800D01*
X4381500Y-4834800D01*
X4231500Y-4984800D01*
X4381500Y-5134800D01*
X4381500Y-7039800D02*
X4531500Y-6889800D01*
X4381500Y-6739800D01*
X4231500Y-6889800D01*
X4381500Y-7039800D01*
X4381500Y-8944700D02*
X4531500Y-8794700D01*
X4381500Y-8644700D01*
X4231500Y-8794700D01*
X4381500Y-8944700D01*
X4381500Y-10849800D02*
X4531500Y-10699800D01*
X4381500Y-10549800D01*
X4231500Y-10699800D01*
X4381500Y-10849800D01*
X5016500Y-2975700D02*
X5166500Y-2825700D01*
X5016500Y-2675700D01*
X4866500Y-2825700D01*
X5016500Y-2975700D01*
X5016500Y-4880800D02*
X5166500Y-4730800D01*
X5016500Y-4580800D01*
X4866500Y-4730800D01*
X5016500Y-4880800D01*
X5016500Y-6785800D02*
X5166500Y-6635800D01*
X5016500Y-6485800D01*
X4866500Y-6635800D01*
X5016500Y-6785800D01*
X5016500Y-8690700D02*
X5166500Y-8540700D01*
X5016500Y-8390700D01*
X4866500Y-8540700D01*
X5016500Y-8690700D01*
X5016500Y-10595800D02*
X5166500Y-10445800D01*
X5016500Y-10295800D01*
X4866500Y-10445800D01*
X5016500Y-10595800D01*
X6286500Y-3229700D02*
X6436500Y-3079700D01*
X6286500Y-2929700D01*
X6136500Y-3079700D01*
X6286500Y-3229700D01*
X6286500Y-5134800D02*
X6436500Y-4984800D01*
X6286500Y-4834800D01*
X6136500Y-4984800D01*
X6286500Y-5134800D01*
X6286500Y-7039800D02*
X6436500Y-6889800D01*
X6286500Y-6739800D01*
X6136500Y-6889800D01*
X6286500Y-7039800D01*
X6286500Y-8944700D02*
X6436500Y-8794700D01*
X6286500Y-8644700D01*
X6136500Y-8794700D01*
X6286500Y-8944700D01*
X6286500Y-10849800D02*
X6436500Y-10699800D01*
X6286500Y-10549800D01*
X6136500Y-10699800D01*
X6286500Y-10849800D01*
X6921500Y-2975700D02*
X7071500Y-2825700D01*
X6921500Y-2675700D01*
X6771500Y-2825700D01*
X6921500Y-2975700D01*
X6921500Y-4880800D02*
X7071500Y-4730800D01*
X6921500Y-4580800D01*
X6771500Y-4730800D01*
X6921500Y-4880800D01*
X6921500Y-6785800D02*
X7071500Y-6635800D01*
X6921500Y-6485800D01*
X6771500Y-6635800D01*
X6921500Y-6785800D01*
X6921500Y-8690700D02*
X7071500Y-8540700D01*
X6921500Y-8390700D01*
X6771500Y-8540700D01*
X6921500Y-8690700D01*
X6921500Y-10595800D02*
X7071500Y-10445800D01*
X6921500Y-10295800D01*
X6771500Y-10445800D01*
X6921500Y-10595800D01*
X8191500Y-3229700D02*
X8341500Y-3079700D01*
X8191500Y-2929700D01*
X8041500Y-3079700D01*
X8191500Y-3229700D01*
X8191500Y-5134800D02*
X8341500Y-4984800D01*
X8191500Y-4834800D01*
X8041500Y-4984800D01*
X8191500Y-5134800D01*
X8191500Y-7039800D02*
X8341500Y-6889800D01*
X8191500Y-6739800D01*
X8041500Y-6889800D01*
X8191500Y-7039800D01*
X8191500Y-8944700D02*
X8341500Y-8794700D01*
X8191500Y-8644700D01*
X8041500Y-8794700D01*
X8191500Y-8944700D01*
X8191500Y-10849800D02*
X8341500Y-10699800D01*
X8191500Y-10549800D01*
X8041500Y-10699800D01*
X8191500Y-10849800D01*
X8826500Y-2975700D02*
X8976500Y-2825700D01*
X8826500Y-2675700D01*
X8676500Y-2825700D01*
X8826500Y-2975700D01*
X8826500Y-4880800D02*
X8976500Y-4730800D01*
X8826500Y-4580800D01*
X8676500Y-4730800D01*
X8826500Y-4880800D01*
X8826500Y-6785800D02*
X8976500Y-6635800D01*
X8826500Y-6485800D01*
X8676500Y-6635800D01*
X8826500Y-6785800D01*
X8826500Y-8690700D02*
X8976500Y-8540700D01*
X8826500Y-8390700D01*
X8676500Y-8540700D01*
X8826500Y-8690700D01*
X8826500Y-10595800D02*
X8976500Y-10445800D01*
X8826500Y-10295800D01*
X8676500Y-10445800D01*
X8826500Y-10595800D01*
D11*
X-244223Y-12516484D02*
X-244223Y-12316484D01*
X-244223Y-12316484D02*
X-196604Y-12316484D01*
X-196604Y-12316484D02*
X-168033Y-12326008D01*
X-168033Y-12326008D02*
X-148985Y-12345055D01*
X-148985Y-12345055D02*
X-139461Y-12364103D01*
X-139461Y-12364103D02*
X-129937Y-12402198D01*
X-129937Y-12402198D02*
X-129937Y-12430769D01*
X-129937Y-12430769D02*
X-139461Y-12468865D01*
X-139461Y-12468865D02*
X-148985Y-12487912D01*
X-148985Y-12487912D02*
X-168033Y-12506960D01*
X-168033Y-12506960D02*
X-196604Y-12516484D01*
X-196604Y-12516484D02*
X-244223Y-12516484D01*
X-44223Y-12516484D02*
X-44223Y-12383150D01*
X-44223Y-12421246D02*
X-34699Y-12402198D01*
X-34699Y-12402198D02*
X-25175Y-12392674D01*
X-25175Y-12392674D02*
X-6128Y-12383150D01*
X-6128Y-12383150D02*
X12920Y-12383150D01*
X79586Y-12516484D02*
X79586Y-12383150D01*
X79586Y-12316484D02*
X70063Y-12326008D01*
X70063Y-12326008D02*
X79586Y-12335531D01*
X79586Y-12335531D02*
X89110Y-12326008D01*
X89110Y-12326008D02*
X79586Y-12316484D01*
X79586Y-12316484D02*
X79586Y-12335531D01*
X203396Y-12516484D02*
X184348Y-12506960D01*
X184348Y-12506960D02*
X174824Y-12487912D01*
X174824Y-12487912D02*
X174824Y-12316484D01*
X308158Y-12516484D02*
X289110Y-12506960D01*
X289110Y-12506960D02*
X279586Y-12487912D01*
X279586Y-12487912D02*
X279586Y-12316484D01*
X536729Y-12516484D02*
X536729Y-12316484D01*
X536729Y-12316484D02*
X603396Y-12459341D01*
X603396Y-12459341D02*
X670063Y-12316484D01*
X670063Y-12316484D02*
X670063Y-12516484D01*
X851015Y-12516484D02*
X851015Y-12411722D01*
X851015Y-12411722D02*
X841491Y-12392674D01*
X841491Y-12392674D02*
X822443Y-12383150D01*
X822443Y-12383150D02*
X784348Y-12383150D01*
X784348Y-12383150D02*
X765301Y-12392674D01*
X851015Y-12506960D02*
X831967Y-12516484D01*
X831967Y-12516484D02*
X784348Y-12516484D01*
X784348Y-12516484D02*
X765301Y-12506960D01*
X765301Y-12506960D02*
X755777Y-12487912D01*
X755777Y-12487912D02*
X755777Y-12468865D01*
X755777Y-12468865D02*
X765301Y-12449817D01*
X765301Y-12449817D02*
X784348Y-12440293D01*
X784348Y-12440293D02*
X831967Y-12440293D01*
X831967Y-12440293D02*
X851015Y-12430769D01*
X946253Y-12383150D02*
X946253Y-12583150D01*
X946253Y-12392674D02*
X965301Y-12383150D01*
X965301Y-12383150D02*
X1003396Y-12383150D01*
X1003396Y-12383150D02*
X1022443Y-12392674D01*
X1022443Y-12392674D02*
X1031967Y-12402198D01*
X1031967Y-12402198D02*
X1041491Y-12421246D01*
X1041491Y-12421246D02*
X1041491Y-12478388D01*
X1041491Y-12478388D02*
X1031967Y-12497436D01*
X1031967Y-12497436D02*
X1022443Y-12506960D01*
X1022443Y-12506960D02*
X1003396Y-12516484D01*
X1003396Y-12516484D02*
X965301Y-12516484D01*
X965301Y-12516484D02*
X946253Y-12506960D01*
X1127205Y-12497436D02*
X1136729Y-12506960D01*
X1136729Y-12506960D02*
X1127205Y-12516484D01*
X1127205Y-12516484D02*
X1117682Y-12506960D01*
X1117682Y-12506960D02*
X1127205Y-12497436D01*
X1127205Y-12497436D02*
X1127205Y-12516484D01*
X1127205Y-12392674D02*
X1136729Y-12402198D01*
X1136729Y-12402198D02*
X1127205Y-12411722D01*
X1127205Y-12411722D02*
X1117682Y-12402198D01*
X1117682Y-12402198D02*
X1127205Y-12392674D01*
X1127205Y-12392674D02*
X1127205Y-12411722D01*
D10*
X-545000Y-12825000D02*
X-505000Y-12865000D01*
X-505000Y-12825000D02*
X-545000Y-12865000D01*
D11*
X-206128Y-12736484D02*
X-187080Y-12736484D01*
X-187080Y-12736484D02*
X-168033Y-12746008D01*
X-168033Y-12746008D02*
X-158509Y-12755531D01*
X-158509Y-12755531D02*
X-148985Y-12774579D01*
X-148985Y-12774579D02*
X-139461Y-12812674D01*
X-139461Y-12812674D02*
X-139461Y-12860293D01*
X-139461Y-12860293D02*
X-148985Y-12898388D01*
X-148985Y-12898388D02*
X-158509Y-12917436D01*
X-158509Y-12917436D02*
X-168033Y-12926960D01*
X-168033Y-12926960D02*
X-187080Y-12936484D01*
X-187080Y-12936484D02*
X-206128Y-12936484D01*
X-206128Y-12936484D02*
X-225175Y-12926960D01*
X-225175Y-12926960D02*
X-234699Y-12917436D01*
X-234699Y-12917436D02*
X-244223Y-12898388D01*
X-244223Y-12898388D02*
X-253747Y-12860293D01*
X-253747Y-12860293D02*
X-253747Y-12812674D01*
X-253747Y-12812674D02*
X-244223Y-12774579D01*
X-244223Y-12774579D02*
X-234699Y-12755531D01*
X-234699Y-12755531D02*
X-225175Y-12746008D01*
X-225175Y-12746008D02*
X-206128Y-12736484D01*
X-53747Y-12917436D02*
X-44223Y-12926960D01*
X-44223Y-12926960D02*
X-53747Y-12936484D01*
X-53747Y-12936484D02*
X-63271Y-12926960D01*
X-63271Y-12926960D02*
X-53747Y-12917436D01*
X-53747Y-12917436D02*
X-53747Y-12936484D01*
X127205Y-12803150D02*
X127205Y-12936484D01*
X79586Y-12726960D02*
X31967Y-12869817D01*
X31967Y-12869817D02*
X155777Y-12869817D01*
X270063Y-12736484D02*
X289110Y-12736484D01*
X289110Y-12736484D02*
X308158Y-12746008D01*
X308158Y-12746008D02*
X317682Y-12755531D01*
X317682Y-12755531D02*
X327205Y-12774579D01*
X327205Y-12774579D02*
X336729Y-12812674D01*
X336729Y-12812674D02*
X336729Y-12860293D01*
X336729Y-12860293D02*
X327205Y-12898388D01*
X327205Y-12898388D02*
X317682Y-12917436D01*
X317682Y-12917436D02*
X308158Y-12926960D01*
X308158Y-12926960D02*
X289110Y-12936484D01*
X289110Y-12936484D02*
X270063Y-12936484D01*
X270063Y-12936484D02*
X251015Y-12926960D01*
X251015Y-12926960D02*
X241491Y-12917436D01*
X241491Y-12917436D02*
X231967Y-12898388D01*
X231967Y-12898388D02*
X222443Y-12860293D01*
X222443Y-12860293D02*
X222443Y-12812674D01*
X222443Y-12812674D02*
X231967Y-12774579D01*
X231967Y-12774579D02*
X241491Y-12755531D01*
X241491Y-12755531D02*
X251015Y-12746008D01*
X251015Y-12746008D02*
X270063Y-12736484D01*
X460539Y-12736484D02*
X479586Y-12736484D01*
X479586Y-12736484D02*
X498634Y-12746008D01*
X498634Y-12746008D02*
X508158Y-12755531D01*
X508158Y-12755531D02*
X517682Y-12774579D01*
X517682Y-12774579D02*
X527205Y-12812674D01*
X527205Y-12812674D02*
X527205Y-12860293D01*
X527205Y-12860293D02*
X517682Y-12898388D01*
X517682Y-12898388D02*
X508158Y-12917436D01*
X508158Y-12917436D02*
X498634Y-12926960D01*
X498634Y-12926960D02*
X479586Y-12936484D01*
X479586Y-12936484D02*
X460539Y-12936484D01*
X460539Y-12936484D02*
X441491Y-12926960D01*
X441491Y-12926960D02*
X431967Y-12917436D01*
X431967Y-12917436D02*
X422443Y-12898388D01*
X422443Y-12898388D02*
X412920Y-12860293D01*
X412920Y-12860293D02*
X412920Y-12812674D01*
X412920Y-12812674D02*
X422443Y-12774579D01*
X422443Y-12774579D02*
X431967Y-12755531D01*
X431967Y-12755531D02*
X441491Y-12746008D01*
X441491Y-12746008D02*
X460539Y-12736484D01*
X612920Y-12936484D02*
X612920Y-12803150D01*
X612920Y-12822198D02*
X622444Y-12812674D01*
X622444Y-12812674D02*
X641491Y-12803150D01*
X641491Y-12803150D02*
X670063Y-12803150D01*
X670063Y-12803150D02*
X689110Y-12812674D01*
X689110Y-12812674D02*
X698634Y-12831722D01*
X698634Y-12831722D02*
X698634Y-12936484D01*
X698634Y-12831722D02*
X708158Y-12812674D01*
X708158Y-12812674D02*
X727205Y-12803150D01*
X727205Y-12803150D02*
X755777Y-12803150D01*
X755777Y-12803150D02*
X774824Y-12812674D01*
X774824Y-12812674D02*
X784348Y-12831722D01*
X784348Y-12831722D02*
X784348Y-12936484D01*
X879586Y-12936484D02*
X879586Y-12803150D01*
X879586Y-12822198D02*
X889110Y-12812674D01*
X889110Y-12812674D02*
X908158Y-12803150D01*
X908158Y-12803150D02*
X936729Y-12803150D01*
X936729Y-12803150D02*
X955777Y-12812674D01*
X955777Y-12812674D02*
X965301Y-12831722D01*
X965301Y-12831722D02*
X965301Y-12936484D01*
X965301Y-12831722D02*
X974824Y-12812674D01*
X974824Y-12812674D02*
X993872Y-12803150D01*
X993872Y-12803150D02*
X1022443Y-12803150D01*
X1022443Y-12803150D02*
X1041491Y-12812674D01*
X1041491Y-12812674D02*
X1051015Y-12831722D01*
X1051015Y-12831722D02*
X1051015Y-12936484D01*
X1441491Y-12726960D02*
X1270063Y-12984103D01*
X1698634Y-12736484D02*
X1717682Y-12736484D01*
X1717682Y-12736484D02*
X1736729Y-12746008D01*
X1736729Y-12746008D02*
X1746253Y-12755531D01*
X1746253Y-12755531D02*
X1755777Y-12774579D01*
X1755777Y-12774579D02*
X1765301Y-12812674D01*
X1765301Y-12812674D02*
X1765301Y-12860293D01*
X1765301Y-12860293D02*
X1755777Y-12898388D01*
X1755777Y-12898388D02*
X1746253Y-12917436D01*
X1746253Y-12917436D02*
X1736729Y-12926960D01*
X1736729Y-12926960D02*
X1717682Y-12936484D01*
X1717682Y-12936484D02*
X1698634Y-12936484D01*
X1698634Y-12936484D02*
X1679586Y-12926960D01*
X1679586Y-12926960D02*
X1670063Y-12917436D01*
X1670063Y-12917436D02*
X1660539Y-12898388D01*
X1660539Y-12898388D02*
X1651015Y-12860293D01*
X1651015Y-12860293D02*
X1651015Y-12812674D01*
X1651015Y-12812674D02*
X1660539Y-12774579D01*
X1660539Y-12774579D02*
X1670063Y-12755531D01*
X1670063Y-12755531D02*
X1679586Y-12746008D01*
X1679586Y-12746008D02*
X1698634Y-12736484D01*
X1851015Y-12917436D02*
X1860539Y-12926960D01*
X1860539Y-12926960D02*
X1851015Y-12936484D01*
X1851015Y-12936484D02*
X1841491Y-12926960D01*
X1841491Y-12926960D02*
X1851015Y-12917436D01*
X1851015Y-12917436D02*
X1851015Y-12936484D01*
X1984348Y-12736484D02*
X2003396Y-12736484D01*
X2003396Y-12736484D02*
X2022444Y-12746008D01*
X2022444Y-12746008D02*
X2031967Y-12755531D01*
X2031967Y-12755531D02*
X2041491Y-12774579D01*
X2041491Y-12774579D02*
X2051015Y-12812674D01*
X2051015Y-12812674D02*
X2051015Y-12860293D01*
X2051015Y-12860293D02*
X2041491Y-12898388D01*
X2041491Y-12898388D02*
X2031967Y-12917436D01*
X2031967Y-12917436D02*
X2022444Y-12926960D01*
X2022444Y-12926960D02*
X2003396Y-12936484D01*
X2003396Y-12936484D02*
X1984348Y-12936484D01*
X1984348Y-12936484D02*
X1965301Y-12926960D01*
X1965301Y-12926960D02*
X1955777Y-12917436D01*
X1955777Y-12917436D02*
X1946253Y-12898388D01*
X1946253Y-12898388D02*
X1936729Y-12860293D01*
X1936729Y-12860293D02*
X1936729Y-12812674D01*
X1936729Y-12812674D02*
X1946253Y-12774579D01*
X1946253Y-12774579D02*
X1955777Y-12755531D01*
X1955777Y-12755531D02*
X1965301Y-12746008D01*
X1965301Y-12746008D02*
X1984348Y-12736484D01*
X2241491Y-12936484D02*
X2127206Y-12936484D01*
X2184348Y-12936484D02*
X2184348Y-12736484D01*
X2184348Y-12736484D02*
X2165301Y-12765055D01*
X2165301Y-12765055D02*
X2146253Y-12784103D01*
X2146253Y-12784103D02*
X2127206Y-12793627D01*
X2422444Y-12736484D02*
X2327206Y-12736484D01*
X2327206Y-12736484D02*
X2317682Y-12831722D01*
X2317682Y-12831722D02*
X2327206Y-12822198D01*
X2327206Y-12822198D02*
X2346253Y-12812674D01*
X2346253Y-12812674D02*
X2393872Y-12812674D01*
X2393872Y-12812674D02*
X2412920Y-12822198D01*
X2412920Y-12822198D02*
X2422444Y-12831722D01*
X2422444Y-12831722D02*
X2431968Y-12850769D01*
X2431968Y-12850769D02*
X2431968Y-12898388D01*
X2431968Y-12898388D02*
X2422444Y-12917436D01*
X2422444Y-12917436D02*
X2412920Y-12926960D01*
X2412920Y-12926960D02*
X2393872Y-12936484D01*
X2393872Y-12936484D02*
X2346253Y-12936484D01*
X2346253Y-12936484D02*
X2327206Y-12926960D01*
X2327206Y-12926960D02*
X2317682Y-12917436D01*
X2498634Y-12736484D02*
X2631968Y-12736484D01*
X2631968Y-12736484D02*
X2546253Y-12936484D01*
X2698634Y-12736484D02*
X2698634Y-12774579D01*
X2774825Y-12736484D02*
X2774825Y-12774579D01*
X3070063Y-13012674D02*
X3060539Y-13003150D01*
X3060539Y-13003150D02*
X3041491Y-12974579D01*
X3041491Y-12974579D02*
X3031968Y-12955531D01*
X3031968Y-12955531D02*
X3022444Y-12926960D01*
X3022444Y-12926960D02*
X3012920Y-12879341D01*
X3012920Y-12879341D02*
X3012920Y-12841246D01*
X3012920Y-12841246D02*
X3022444Y-12793627D01*
X3022444Y-12793627D02*
X3031968Y-12765055D01*
X3031968Y-12765055D02*
X3041491Y-12746008D01*
X3041491Y-12746008D02*
X3060539Y-12717436D01*
X3060539Y-12717436D02*
X3070063Y-12707912D01*
X3251015Y-12936484D02*
X3136729Y-12936484D01*
X3193872Y-12936484D02*
X3193872Y-12736484D01*
X3193872Y-12736484D02*
X3174825Y-12765055D01*
X3174825Y-12765055D02*
X3155777Y-12784103D01*
X3155777Y-12784103D02*
X3136729Y-12793627D01*
X3317682Y-12736484D02*
X3451015Y-12736484D01*
X3451015Y-12736484D02*
X3365301Y-12936484D01*
X3679587Y-12936484D02*
X3679587Y-12736484D01*
X3765301Y-12936484D02*
X3765301Y-12831722D01*
X3765301Y-12831722D02*
X3755777Y-12812674D01*
X3755777Y-12812674D02*
X3736730Y-12803150D01*
X3736730Y-12803150D02*
X3708158Y-12803150D01*
X3708158Y-12803150D02*
X3689110Y-12812674D01*
X3689110Y-12812674D02*
X3679587Y-12822198D01*
X3889110Y-12936484D02*
X3870063Y-12926960D01*
X3870063Y-12926960D02*
X3860539Y-12917436D01*
X3860539Y-12917436D02*
X3851015Y-12898388D01*
X3851015Y-12898388D02*
X3851015Y-12841246D01*
X3851015Y-12841246D02*
X3860539Y-12822198D01*
X3860539Y-12822198D02*
X3870063Y-12812674D01*
X3870063Y-12812674D02*
X3889110Y-12803150D01*
X3889110Y-12803150D02*
X3917682Y-12803150D01*
X3917682Y-12803150D02*
X3936730Y-12812674D01*
X3936730Y-12812674D02*
X3946253Y-12822198D01*
X3946253Y-12822198D02*
X3955777Y-12841246D01*
X3955777Y-12841246D02*
X3955777Y-12898388D01*
X3955777Y-12898388D02*
X3946253Y-12917436D01*
X3946253Y-12917436D02*
X3936730Y-12926960D01*
X3936730Y-12926960D02*
X3917682Y-12936484D01*
X3917682Y-12936484D02*
X3889110Y-12936484D01*
X4070063Y-12936484D02*
X4051015Y-12926960D01*
X4051015Y-12926960D02*
X4041491Y-12907912D01*
X4041491Y-12907912D02*
X4041491Y-12736484D01*
X4222444Y-12926960D02*
X4203396Y-12936484D01*
X4203396Y-12936484D02*
X4165301Y-12936484D01*
X4165301Y-12936484D02*
X4146253Y-12926960D01*
X4146253Y-12926960D02*
X4136730Y-12907912D01*
X4136730Y-12907912D02*
X4136730Y-12831722D01*
X4136730Y-12831722D02*
X4146253Y-12812674D01*
X4146253Y-12812674D02*
X4165301Y-12803150D01*
X4165301Y-12803150D02*
X4203396Y-12803150D01*
X4203396Y-12803150D02*
X4222444Y-12812674D01*
X4222444Y-12812674D02*
X4231968Y-12831722D01*
X4231968Y-12831722D02*
X4231968Y-12850769D01*
X4231968Y-12850769D02*
X4136730Y-12869817D01*
X4308158Y-12926960D02*
X4327206Y-12936484D01*
X4327206Y-12936484D02*
X4365301Y-12936484D01*
X4365301Y-12936484D02*
X4384349Y-12926960D01*
X4384349Y-12926960D02*
X4393873Y-12907912D01*
X4393873Y-12907912D02*
X4393873Y-12898388D01*
X4393873Y-12898388D02*
X4384349Y-12879341D01*
X4384349Y-12879341D02*
X4365301Y-12869817D01*
X4365301Y-12869817D02*
X4336730Y-12869817D01*
X4336730Y-12869817D02*
X4317682Y-12860293D01*
X4317682Y-12860293D02*
X4308158Y-12841246D01*
X4308158Y-12841246D02*
X4308158Y-12831722D01*
X4308158Y-12831722D02*
X4317682Y-12812674D01*
X4317682Y-12812674D02*
X4336730Y-12803150D01*
X4336730Y-12803150D02*
X4365301Y-12803150D01*
X4365301Y-12803150D02*
X4384349Y-12812674D01*
X4460539Y-13012674D02*
X4470063Y-13003150D01*
X4470063Y-13003150D02*
X4489111Y-12974579D01*
X4489111Y-12974579D02*
X4498634Y-12955531D01*
X4498634Y-12955531D02*
X4508158Y-12926960D01*
X4508158Y-12926960D02*
X4517682Y-12879341D01*
X4517682Y-12879341D02*
X4517682Y-12841246D01*
X4517682Y-12841246D02*
X4508158Y-12793627D01*
X4508158Y-12793627D02*
X4498634Y-12765055D01*
X4498634Y-12765055D02*
X4489111Y-12746008D01*
X4489111Y-12746008D02*
X4470063Y-12717436D01*
X4470063Y-12717436D02*
X4460539Y-12707912D01*
D10*
X-505000Y-13109000D02*
G75*
G02*
X-565000Y-13109000I-30000J0D01*
G01*
X-565000Y-13109000D02*
G75*
G02*
X-505000Y-13109000I30000J0D01*
G01*
D11*
X-206128Y-13000484D02*
X-187080Y-13000484D01*
X-187080Y-13000484D02*
X-168033Y-13010008D01*
X-168033Y-13010008D02*
X-158509Y-13019531D01*
X-158509Y-13019531D02*
X-148985Y-13038579D01*
X-148985Y-13038579D02*
X-139461Y-13076674D01*
X-139461Y-13076674D02*
X-139461Y-13124293D01*
X-139461Y-13124293D02*
X-148985Y-13162388D01*
X-148985Y-13162388D02*
X-158509Y-13181436D01*
X-158509Y-13181436D02*
X-168033Y-13190960D01*
X-168033Y-13190960D02*
X-187080Y-13200484D01*
X-187080Y-13200484D02*
X-206128Y-13200484D01*
X-206128Y-13200484D02*
X-225175Y-13190960D01*
X-225175Y-13190960D02*
X-234699Y-13181436D01*
X-234699Y-13181436D02*
X-244223Y-13162388D01*
X-244223Y-13162388D02*
X-253747Y-13124293D01*
X-253747Y-13124293D02*
X-253747Y-13076674D01*
X-253747Y-13076674D02*
X-244223Y-13038579D01*
X-244223Y-13038579D02*
X-234699Y-13019531D01*
X-234699Y-13019531D02*
X-225175Y-13010008D01*
X-225175Y-13010008D02*
X-206128Y-13000484D01*
X-53747Y-13181436D02*
X-44223Y-13190960D01*
X-44223Y-13190960D02*
X-53747Y-13200484D01*
X-53747Y-13200484D02*
X-63271Y-13190960D01*
X-63271Y-13190960D02*
X-53747Y-13181436D01*
X-53747Y-13181436D02*
X-53747Y-13200484D01*
X127205Y-13000484D02*
X89110Y-13000484D01*
X89110Y-13000484D02*
X70063Y-13010008D01*
X70063Y-13010008D02*
X60539Y-13019531D01*
X60539Y-13019531D02*
X41491Y-13048103D01*
X41491Y-13048103D02*
X31967Y-13086198D01*
X31967Y-13086198D02*
X31967Y-13162388D01*
X31967Y-13162388D02*
X41491Y-13181436D01*
X41491Y-13181436D02*
X51015Y-13190960D01*
X51015Y-13190960D02*
X70063Y-13200484D01*
X70063Y-13200484D02*
X108158Y-13200484D01*
X108158Y-13200484D02*
X127205Y-13190960D01*
X127205Y-13190960D02*
X136729Y-13181436D01*
X136729Y-13181436D02*
X146253Y-13162388D01*
X146253Y-13162388D02*
X146253Y-13114769D01*
X146253Y-13114769D02*
X136729Y-13095722D01*
X136729Y-13095722D02*
X127205Y-13086198D01*
X127205Y-13086198D02*
X108158Y-13076674D01*
X108158Y-13076674D02*
X70063Y-13076674D01*
X70063Y-13076674D02*
X51015Y-13086198D01*
X51015Y-13086198D02*
X41491Y-13095722D01*
X41491Y-13095722D02*
X31967Y-13114769D01*
X270063Y-13000484D02*
X289110Y-13000484D01*
X289110Y-13000484D02*
X308158Y-13010008D01*
X308158Y-13010008D02*
X317682Y-13019531D01*
X317682Y-13019531D02*
X327205Y-13038579D01*
X327205Y-13038579D02*
X336729Y-13076674D01*
X336729Y-13076674D02*
X336729Y-13124293D01*
X336729Y-13124293D02*
X327205Y-13162388D01*
X327205Y-13162388D02*
X317682Y-13181436D01*
X317682Y-13181436D02*
X308158Y-13190960D01*
X308158Y-13190960D02*
X289110Y-13200484D01*
X289110Y-13200484D02*
X270063Y-13200484D01*
X270063Y-13200484D02*
X251015Y-13190960D01*
X251015Y-13190960D02*
X241491Y-13181436D01*
X241491Y-13181436D02*
X231967Y-13162388D01*
X231967Y-13162388D02*
X222443Y-13124293D01*
X222443Y-13124293D02*
X222443Y-13076674D01*
X222443Y-13076674D02*
X231967Y-13038579D01*
X231967Y-13038579D02*
X241491Y-13019531D01*
X241491Y-13019531D02*
X251015Y-13010008D01*
X251015Y-13010008D02*
X270063Y-13000484D01*
X460539Y-13000484D02*
X479586Y-13000484D01*
X479586Y-13000484D02*
X498634Y-13010008D01*
X498634Y-13010008D02*
X508158Y-13019531D01*
X508158Y-13019531D02*
X517682Y-13038579D01*
X517682Y-13038579D02*
X527205Y-13076674D01*
X527205Y-13076674D02*
X527205Y-13124293D01*
X527205Y-13124293D02*
X517682Y-13162388D01*
X517682Y-13162388D02*
X508158Y-13181436D01*
X508158Y-13181436D02*
X498634Y-13190960D01*
X498634Y-13190960D02*
X479586Y-13200484D01*
X479586Y-13200484D02*
X460539Y-13200484D01*
X460539Y-13200484D02*
X441491Y-13190960D01*
X441491Y-13190960D02*
X431967Y-13181436D01*
X431967Y-13181436D02*
X422443Y-13162388D01*
X422443Y-13162388D02*
X412920Y-13124293D01*
X412920Y-13124293D02*
X412920Y-13076674D01*
X412920Y-13076674D02*
X422443Y-13038579D01*
X422443Y-13038579D02*
X431967Y-13019531D01*
X431967Y-13019531D02*
X441491Y-13010008D01*
X441491Y-13010008D02*
X460539Y-13000484D01*
X612920Y-13200484D02*
X612920Y-13067150D01*
X612920Y-13086198D02*
X622444Y-13076674D01*
X622444Y-13076674D02*
X641491Y-13067150D01*
X641491Y-13067150D02*
X670063Y-13067150D01*
X670063Y-13067150D02*
X689110Y-13076674D01*
X689110Y-13076674D02*
X698634Y-13095722D01*
X698634Y-13095722D02*
X698634Y-13200484D01*
X698634Y-13095722D02*
X708158Y-13076674D01*
X708158Y-13076674D02*
X727205Y-13067150D01*
X727205Y-13067150D02*
X755777Y-13067150D01*
X755777Y-13067150D02*
X774824Y-13076674D01*
X774824Y-13076674D02*
X784348Y-13095722D01*
X784348Y-13095722D02*
X784348Y-13200484D01*
X879586Y-13200484D02*
X879586Y-13067150D01*
X879586Y-13086198D02*
X889110Y-13076674D01*
X889110Y-13076674D02*
X908158Y-13067150D01*
X908158Y-13067150D02*
X936729Y-13067150D01*
X936729Y-13067150D02*
X955777Y-13076674D01*
X955777Y-13076674D02*
X965301Y-13095722D01*
X965301Y-13095722D02*
X965301Y-13200484D01*
X965301Y-13095722D02*
X974824Y-13076674D01*
X974824Y-13076674D02*
X993872Y-13067150D01*
X993872Y-13067150D02*
X1022443Y-13067150D01*
X1022443Y-13067150D02*
X1041491Y-13076674D01*
X1041491Y-13076674D02*
X1051015Y-13095722D01*
X1051015Y-13095722D02*
X1051015Y-13200484D01*
X1441491Y-12990960D02*
X1270063Y-13248103D01*
X1698634Y-13000484D02*
X1717682Y-13000484D01*
X1717682Y-13000484D02*
X1736729Y-13010008D01*
X1736729Y-13010008D02*
X1746253Y-13019531D01*
X1746253Y-13019531D02*
X1755777Y-13038579D01*
X1755777Y-13038579D02*
X1765301Y-13076674D01*
X1765301Y-13076674D02*
X1765301Y-13124293D01*
X1765301Y-13124293D02*
X1755777Y-13162388D01*
X1755777Y-13162388D02*
X1746253Y-13181436D01*
X1746253Y-13181436D02*
X1736729Y-13190960D01*
X1736729Y-13190960D02*
X1717682Y-13200484D01*
X1717682Y-13200484D02*
X1698634Y-13200484D01*
X1698634Y-13200484D02*
X1679586Y-13190960D01*
X1679586Y-13190960D02*
X1670063Y-13181436D01*
X1670063Y-13181436D02*
X1660539Y-13162388D01*
X1660539Y-13162388D02*
X1651015Y-13124293D01*
X1651015Y-13124293D02*
X1651015Y-13076674D01*
X1651015Y-13076674D02*
X1660539Y-13038579D01*
X1660539Y-13038579D02*
X1670063Y-13019531D01*
X1670063Y-13019531D02*
X1679586Y-13010008D01*
X1679586Y-13010008D02*
X1698634Y-13000484D01*
X1851015Y-13181436D02*
X1860539Y-13190960D01*
X1860539Y-13190960D02*
X1851015Y-13200484D01*
X1851015Y-13200484D02*
X1841491Y-13190960D01*
X1841491Y-13190960D02*
X1851015Y-13181436D01*
X1851015Y-13181436D02*
X1851015Y-13200484D01*
X1984348Y-13000484D02*
X2003396Y-13000484D01*
X2003396Y-13000484D02*
X2022444Y-13010008D01*
X2022444Y-13010008D02*
X2031967Y-13019531D01*
X2031967Y-13019531D02*
X2041491Y-13038579D01*
X2041491Y-13038579D02*
X2051015Y-13076674D01*
X2051015Y-13076674D02*
X2051015Y-13124293D01*
X2051015Y-13124293D02*
X2041491Y-13162388D01*
X2041491Y-13162388D02*
X2031967Y-13181436D01*
X2031967Y-13181436D02*
X2022444Y-13190960D01*
X2022444Y-13190960D02*
X2003396Y-13200484D01*
X2003396Y-13200484D02*
X1984348Y-13200484D01*
X1984348Y-13200484D02*
X1965301Y-13190960D01*
X1965301Y-13190960D02*
X1955777Y-13181436D01*
X1955777Y-13181436D02*
X1946253Y-13162388D01*
X1946253Y-13162388D02*
X1936729Y-13124293D01*
X1936729Y-13124293D02*
X1936729Y-13076674D01*
X1936729Y-13076674D02*
X1946253Y-13038579D01*
X1946253Y-13038579D02*
X1955777Y-13019531D01*
X1955777Y-13019531D02*
X1965301Y-13010008D01*
X1965301Y-13010008D02*
X1984348Y-13000484D01*
X2127206Y-13019531D02*
X2136729Y-13010008D01*
X2136729Y-13010008D02*
X2155777Y-13000484D01*
X2155777Y-13000484D02*
X2203396Y-13000484D01*
X2203396Y-13000484D02*
X2222444Y-13010008D01*
X2222444Y-13010008D02*
X2231968Y-13019531D01*
X2231968Y-13019531D02*
X2241491Y-13038579D01*
X2241491Y-13038579D02*
X2241491Y-13057627D01*
X2241491Y-13057627D02*
X2231968Y-13086198D01*
X2231968Y-13086198D02*
X2117682Y-13200484D01*
X2117682Y-13200484D02*
X2241491Y-13200484D01*
X2308158Y-13000484D02*
X2431968Y-13000484D01*
X2431968Y-13000484D02*
X2365301Y-13076674D01*
X2365301Y-13076674D02*
X2393872Y-13076674D01*
X2393872Y-13076674D02*
X2412920Y-13086198D01*
X2412920Y-13086198D02*
X2422444Y-13095722D01*
X2422444Y-13095722D02*
X2431968Y-13114769D01*
X2431968Y-13114769D02*
X2431968Y-13162388D01*
X2431968Y-13162388D02*
X2422444Y-13181436D01*
X2422444Y-13181436D02*
X2412920Y-13190960D01*
X2412920Y-13190960D02*
X2393872Y-13200484D01*
X2393872Y-13200484D02*
X2336729Y-13200484D01*
X2336729Y-13200484D02*
X2317682Y-13190960D01*
X2317682Y-13190960D02*
X2308158Y-13181436D01*
X2603396Y-13000484D02*
X2565301Y-13000484D01*
X2565301Y-13000484D02*
X2546253Y-13010008D01*
X2546253Y-13010008D02*
X2536729Y-13019531D01*
X2536729Y-13019531D02*
X2517682Y-13048103D01*
X2517682Y-13048103D02*
X2508158Y-13086198D01*
X2508158Y-13086198D02*
X2508158Y-13162388D01*
X2508158Y-13162388D02*
X2517682Y-13181436D01*
X2517682Y-13181436D02*
X2527206Y-13190960D01*
X2527206Y-13190960D02*
X2546253Y-13200484D01*
X2546253Y-13200484D02*
X2584349Y-13200484D01*
X2584349Y-13200484D02*
X2603396Y-13190960D01*
X2603396Y-13190960D02*
X2612920Y-13181436D01*
X2612920Y-13181436D02*
X2622444Y-13162388D01*
X2622444Y-13162388D02*
X2622444Y-13114769D01*
X2622444Y-13114769D02*
X2612920Y-13095722D01*
X2612920Y-13095722D02*
X2603396Y-13086198D01*
X2603396Y-13086198D02*
X2584349Y-13076674D01*
X2584349Y-13076674D02*
X2546253Y-13076674D01*
X2546253Y-13076674D02*
X2527206Y-13086198D01*
X2527206Y-13086198D02*
X2517682Y-13095722D01*
X2517682Y-13095722D02*
X2508158Y-13114769D01*
X2698634Y-13000484D02*
X2698634Y-13038579D01*
X2774825Y-13000484D02*
X2774825Y-13038579D01*
X3070063Y-13276674D02*
X3060539Y-13267150D01*
X3060539Y-13267150D02*
X3041491Y-13238579D01*
X3041491Y-13238579D02*
X3031968Y-13219531D01*
X3031968Y-13219531D02*
X3022444Y-13190960D01*
X3022444Y-13190960D02*
X3012920Y-13143341D01*
X3012920Y-13143341D02*
X3012920Y-13105246D01*
X3012920Y-13105246D02*
X3022444Y-13057627D01*
X3022444Y-13057627D02*
X3031968Y-13029055D01*
X3031968Y-13029055D02*
X3041491Y-13010008D01*
X3041491Y-13010008D02*
X3060539Y-12981436D01*
X3060539Y-12981436D02*
X3070063Y-12971912D01*
X3184348Y-13000484D02*
X3203396Y-13000484D01*
X3203396Y-13000484D02*
X3222444Y-13010008D01*
X3222444Y-13010008D02*
X3231968Y-13019531D01*
X3231968Y-13019531D02*
X3241491Y-13038579D01*
X3241491Y-13038579D02*
X3251015Y-13076674D01*
X3251015Y-13076674D02*
X3251015Y-13124293D01*
X3251015Y-13124293D02*
X3241491Y-13162388D01*
X3241491Y-13162388D02*
X3231968Y-13181436D01*
X3231968Y-13181436D02*
X3222444Y-13190960D01*
X3222444Y-13190960D02*
X3203396Y-13200484D01*
X3203396Y-13200484D02*
X3184348Y-13200484D01*
X3184348Y-13200484D02*
X3165301Y-13190960D01*
X3165301Y-13190960D02*
X3155777Y-13181436D01*
X3155777Y-13181436D02*
X3146253Y-13162388D01*
X3146253Y-13162388D02*
X3136729Y-13124293D01*
X3136729Y-13124293D02*
X3136729Y-13076674D01*
X3136729Y-13076674D02*
X3146253Y-13038579D01*
X3146253Y-13038579D02*
X3155777Y-13019531D01*
X3155777Y-13019531D02*
X3165301Y-13010008D01*
X3165301Y-13010008D02*
X3184348Y-13000484D01*
X3489110Y-13200484D02*
X3489110Y-13000484D01*
X3574825Y-13200484D02*
X3574825Y-13095722D01*
X3574825Y-13095722D02*
X3565301Y-13076674D01*
X3565301Y-13076674D02*
X3546253Y-13067150D01*
X3546253Y-13067150D02*
X3517682Y-13067150D01*
X3517682Y-13067150D02*
X3498634Y-13076674D01*
X3498634Y-13076674D02*
X3489110Y-13086198D01*
X3698634Y-13200484D02*
X3679587Y-13190960D01*
X3679587Y-13190960D02*
X3670063Y-13181436D01*
X3670063Y-13181436D02*
X3660539Y-13162388D01*
X3660539Y-13162388D02*
X3660539Y-13105246D01*
X3660539Y-13105246D02*
X3670063Y-13086198D01*
X3670063Y-13086198D02*
X3679587Y-13076674D01*
X3679587Y-13076674D02*
X3698634Y-13067150D01*
X3698634Y-13067150D02*
X3727206Y-13067150D01*
X3727206Y-13067150D02*
X3746253Y-13076674D01*
X3746253Y-13076674D02*
X3755777Y-13086198D01*
X3755777Y-13086198D02*
X3765301Y-13105246D01*
X3765301Y-13105246D02*
X3765301Y-13162388D01*
X3765301Y-13162388D02*
X3755777Y-13181436D01*
X3755777Y-13181436D02*
X3746253Y-13190960D01*
X3746253Y-13190960D02*
X3727206Y-13200484D01*
X3727206Y-13200484D02*
X3698634Y-13200484D01*
X3879587Y-13200484D02*
X3860539Y-13190960D01*
X3860539Y-13190960D02*
X3851015Y-13171912D01*
X3851015Y-13171912D02*
X3851015Y-13000484D01*
X4031968Y-13190960D02*
X4012920Y-13200484D01*
X4012920Y-13200484D02*
X3974825Y-13200484D01*
X3974825Y-13200484D02*
X3955777Y-13190960D01*
X3955777Y-13190960D02*
X3946253Y-13171912D01*
X3946253Y-13171912D02*
X3946253Y-13095722D01*
X3946253Y-13095722D02*
X3955777Y-13076674D01*
X3955777Y-13076674D02*
X3974825Y-13067150D01*
X3974825Y-13067150D02*
X4012920Y-13067150D01*
X4012920Y-13067150D02*
X4031968Y-13076674D01*
X4031968Y-13076674D02*
X4041491Y-13095722D01*
X4041491Y-13095722D02*
X4041491Y-13114769D01*
X4041491Y-13114769D02*
X3946253Y-13133817D01*
X4117682Y-13190960D02*
X4136730Y-13200484D01*
X4136730Y-13200484D02*
X4174825Y-13200484D01*
X4174825Y-13200484D02*
X4193872Y-13190960D01*
X4193872Y-13190960D02*
X4203396Y-13171912D01*
X4203396Y-13171912D02*
X4203396Y-13162388D01*
X4203396Y-13162388D02*
X4193872Y-13143341D01*
X4193872Y-13143341D02*
X4174825Y-13133817D01*
X4174825Y-13133817D02*
X4146253Y-13133817D01*
X4146253Y-13133817D02*
X4127206Y-13124293D01*
X4127206Y-13124293D02*
X4117682Y-13105246D01*
X4117682Y-13105246D02*
X4117682Y-13095722D01*
X4117682Y-13095722D02*
X4127206Y-13076674D01*
X4127206Y-13076674D02*
X4146253Y-13067150D01*
X4146253Y-13067150D02*
X4174825Y-13067150D01*
X4174825Y-13067150D02*
X4193872Y-13076674D01*
X4441492Y-13124293D02*
X4593873Y-13124293D01*
X4517682Y-13200484D02*
X4517682Y-13048103D01*
X4927206Y-13067150D02*
X4927206Y-13200484D01*
X4879587Y-12990960D02*
X4831968Y-13133817D01*
X4831968Y-13133817D02*
X4955777Y-13133817D01*
X5174825Y-13190960D02*
X5193873Y-13200484D01*
X5193873Y-13200484D02*
X5231968Y-13200484D01*
X5231968Y-13200484D02*
X5251016Y-13190960D01*
X5251016Y-13190960D02*
X5260539Y-13171912D01*
X5260539Y-13171912D02*
X5260539Y-13162388D01*
X5260539Y-13162388D02*
X5251016Y-13143341D01*
X5251016Y-13143341D02*
X5231968Y-13133817D01*
X5231968Y-13133817D02*
X5203396Y-13133817D01*
X5203396Y-13133817D02*
X5184349Y-13124293D01*
X5184349Y-13124293D02*
X5174825Y-13105246D01*
X5174825Y-13105246D02*
X5174825Y-13095722D01*
X5174825Y-13095722D02*
X5184349Y-13076674D01*
X5184349Y-13076674D02*
X5203396Y-13067150D01*
X5203396Y-13067150D02*
X5231968Y-13067150D01*
X5231968Y-13067150D02*
X5251016Y-13076674D01*
X5374825Y-13200484D02*
X5355777Y-13190960D01*
X5355777Y-13190960D02*
X5346254Y-13171912D01*
X5346254Y-13171912D02*
X5346254Y-13000484D01*
X5479587Y-13200484D02*
X5460539Y-13190960D01*
X5460539Y-13190960D02*
X5451016Y-13181436D01*
X5451016Y-13181436D02*
X5441492Y-13162388D01*
X5441492Y-13162388D02*
X5441492Y-13105246D01*
X5441492Y-13105246D02*
X5451016Y-13086198D01*
X5451016Y-13086198D02*
X5460539Y-13076674D01*
X5460539Y-13076674D02*
X5479587Y-13067150D01*
X5479587Y-13067150D02*
X5508158Y-13067150D01*
X5508158Y-13067150D02*
X5527206Y-13076674D01*
X5527206Y-13076674D02*
X5536730Y-13086198D01*
X5536730Y-13086198D02*
X5546254Y-13105246D01*
X5546254Y-13105246D02*
X5546254Y-13162388D01*
X5546254Y-13162388D02*
X5536730Y-13181436D01*
X5536730Y-13181436D02*
X5527206Y-13190960D01*
X5527206Y-13190960D02*
X5508158Y-13200484D01*
X5508158Y-13200484D02*
X5479587Y-13200484D01*
X5603396Y-13067150D02*
X5679587Y-13067150D01*
X5631968Y-13000484D02*
X5631968Y-13171912D01*
X5631968Y-13171912D02*
X5641492Y-13190960D01*
X5641492Y-13190960D02*
X5660539Y-13200484D01*
X5660539Y-13200484D02*
X5679587Y-13200484D01*
X5736730Y-13190960D02*
X5755777Y-13200484D01*
X5755777Y-13200484D02*
X5793873Y-13200484D01*
X5793873Y-13200484D02*
X5812920Y-13190960D01*
X5812920Y-13190960D02*
X5822444Y-13171912D01*
X5822444Y-13171912D02*
X5822444Y-13162388D01*
X5822444Y-13162388D02*
X5812920Y-13143341D01*
X5812920Y-13143341D02*
X5793873Y-13133817D01*
X5793873Y-13133817D02*
X5765301Y-13133817D01*
X5765301Y-13133817D02*
X5746254Y-13124293D01*
X5746254Y-13124293D02*
X5736730Y-13105246D01*
X5736730Y-13105246D02*
X5736730Y-13095722D01*
X5736730Y-13095722D02*
X5746254Y-13076674D01*
X5746254Y-13076674D02*
X5765301Y-13067150D01*
X5765301Y-13067150D02*
X5793873Y-13067150D01*
X5793873Y-13067150D02*
X5812920Y-13076674D01*
X5889111Y-13276674D02*
X5898635Y-13267150D01*
X5898635Y-13267150D02*
X5917682Y-13238579D01*
X5917682Y-13238579D02*
X5927206Y-13219531D01*
X5927206Y-13219531D02*
X5936730Y-13190960D01*
X5936730Y-13190960D02*
X5946254Y-13143341D01*
X5946254Y-13143341D02*
X5946254Y-13105246D01*
X5946254Y-13105246D02*
X5936730Y-13057627D01*
X5936730Y-13057627D02*
X5927206Y-13029055D01*
X5927206Y-13029055D02*
X5917682Y-13010008D01*
X5917682Y-13010008D02*
X5898635Y-12981436D01*
X5898635Y-12981436D02*
X5889111Y-12971912D01*
D10*
X-545000Y-13333000D02*
X-545000Y-13413000D01*
X-585000Y-13373000D02*
X-505000Y-13373000D01*
D11*
X-206128Y-13264484D02*
X-187080Y-13264484D01*
X-187080Y-13264484D02*
X-168033Y-13274008D01*
X-168033Y-13274008D02*
X-158509Y-13283531D01*
X-158509Y-13283531D02*
X-148985Y-13302579D01*
X-148985Y-13302579D02*
X-139461Y-13340674D01*
X-139461Y-13340674D02*
X-139461Y-13388293D01*
X-139461Y-13388293D02*
X-148985Y-13426388D01*
X-148985Y-13426388D02*
X-158509Y-13445436D01*
X-158509Y-13445436D02*
X-168033Y-13454960D01*
X-168033Y-13454960D02*
X-187080Y-13464484D01*
X-187080Y-13464484D02*
X-206128Y-13464484D01*
X-206128Y-13464484D02*
X-225175Y-13454960D01*
X-225175Y-13454960D02*
X-234699Y-13445436D01*
X-234699Y-13445436D02*
X-244223Y-13426388D01*
X-244223Y-13426388D02*
X-253747Y-13388293D01*
X-253747Y-13388293D02*
X-253747Y-13340674D01*
X-253747Y-13340674D02*
X-244223Y-13302579D01*
X-244223Y-13302579D02*
X-234699Y-13283531D01*
X-234699Y-13283531D02*
X-225175Y-13274008D01*
X-225175Y-13274008D02*
X-206128Y-13264484D01*
X-53747Y-13445436D02*
X-44223Y-13454960D01*
X-44223Y-13454960D02*
X-53747Y-13464484D01*
X-53747Y-13464484D02*
X-63271Y-13454960D01*
X-63271Y-13454960D02*
X-53747Y-13445436D01*
X-53747Y-13445436D02*
X-53747Y-13464484D01*
X70063Y-13350198D02*
X51015Y-13340674D01*
X51015Y-13340674D02*
X41491Y-13331150D01*
X41491Y-13331150D02*
X31967Y-13312103D01*
X31967Y-13312103D02*
X31967Y-13302579D01*
X31967Y-13302579D02*
X41491Y-13283531D01*
X41491Y-13283531D02*
X51015Y-13274008D01*
X51015Y-13274008D02*
X70063Y-13264484D01*
X70063Y-13264484D02*
X108158Y-13264484D01*
X108158Y-13264484D02*
X127205Y-13274008D01*
X127205Y-13274008D02*
X136729Y-13283531D01*
X136729Y-13283531D02*
X146253Y-13302579D01*
X146253Y-13302579D02*
X146253Y-13312103D01*
X146253Y-13312103D02*
X136729Y-13331150D01*
X136729Y-13331150D02*
X127205Y-13340674D01*
X127205Y-13340674D02*
X108158Y-13350198D01*
X108158Y-13350198D02*
X70063Y-13350198D01*
X70063Y-13350198D02*
X51015Y-13359722D01*
X51015Y-13359722D02*
X41491Y-13369246D01*
X41491Y-13369246D02*
X31967Y-13388293D01*
X31967Y-13388293D02*
X31967Y-13426388D01*
X31967Y-13426388D02*
X41491Y-13445436D01*
X41491Y-13445436D02*
X51015Y-13454960D01*
X51015Y-13454960D02*
X70063Y-13464484D01*
X70063Y-13464484D02*
X108158Y-13464484D01*
X108158Y-13464484D02*
X127205Y-13454960D01*
X127205Y-13454960D02*
X136729Y-13445436D01*
X136729Y-13445436D02*
X146253Y-13426388D01*
X146253Y-13426388D02*
X146253Y-13388293D01*
X146253Y-13388293D02*
X136729Y-13369246D01*
X136729Y-13369246D02*
X127205Y-13359722D01*
X127205Y-13359722D02*
X108158Y-13350198D01*
X270063Y-13264484D02*
X289110Y-13264484D01*
X289110Y-13264484D02*
X308158Y-13274008D01*
X308158Y-13274008D02*
X317682Y-13283531D01*
X317682Y-13283531D02*
X327205Y-13302579D01*
X327205Y-13302579D02*
X336729Y-13340674D01*
X336729Y-13340674D02*
X336729Y-13388293D01*
X336729Y-13388293D02*
X327205Y-13426388D01*
X327205Y-13426388D02*
X317682Y-13445436D01*
X317682Y-13445436D02*
X308158Y-13454960D01*
X308158Y-13454960D02*
X289110Y-13464484D01*
X289110Y-13464484D02*
X270063Y-13464484D01*
X270063Y-13464484D02*
X251015Y-13454960D01*
X251015Y-13454960D02*
X241491Y-13445436D01*
X241491Y-13445436D02*
X231967Y-13426388D01*
X231967Y-13426388D02*
X222443Y-13388293D01*
X222443Y-13388293D02*
X222443Y-13340674D01*
X222443Y-13340674D02*
X231967Y-13302579D01*
X231967Y-13302579D02*
X241491Y-13283531D01*
X241491Y-13283531D02*
X251015Y-13274008D01*
X251015Y-13274008D02*
X270063Y-13264484D01*
X460539Y-13264484D02*
X479586Y-13264484D01*
X479586Y-13264484D02*
X498634Y-13274008D01*
X498634Y-13274008D02*
X508158Y-13283531D01*
X508158Y-13283531D02*
X517682Y-13302579D01*
X517682Y-13302579D02*
X527205Y-13340674D01*
X527205Y-13340674D02*
X527205Y-13388293D01*
X527205Y-13388293D02*
X517682Y-13426388D01*
X517682Y-13426388D02*
X508158Y-13445436D01*
X508158Y-13445436D02*
X498634Y-13454960D01*
X498634Y-13454960D02*
X479586Y-13464484D01*
X479586Y-13464484D02*
X460539Y-13464484D01*
X460539Y-13464484D02*
X441491Y-13454960D01*
X441491Y-13454960D02*
X431967Y-13445436D01*
X431967Y-13445436D02*
X422443Y-13426388D01*
X422443Y-13426388D02*
X412920Y-13388293D01*
X412920Y-13388293D02*
X412920Y-13340674D01*
X412920Y-13340674D02*
X422443Y-13302579D01*
X422443Y-13302579D02*
X431967Y-13283531D01*
X431967Y-13283531D02*
X441491Y-13274008D01*
X441491Y-13274008D02*
X460539Y-13264484D01*
X612920Y-13464484D02*
X612920Y-13331150D01*
X612920Y-13350198D02*
X622444Y-13340674D01*
X622444Y-13340674D02*
X641491Y-13331150D01*
X641491Y-13331150D02*
X670063Y-13331150D01*
X670063Y-13331150D02*
X689110Y-13340674D01*
X689110Y-13340674D02*
X698634Y-13359722D01*
X698634Y-13359722D02*
X698634Y-13464484D01*
X698634Y-13359722D02*
X708158Y-13340674D01*
X708158Y-13340674D02*
X727205Y-13331150D01*
X727205Y-13331150D02*
X755777Y-13331150D01*
X755777Y-13331150D02*
X774824Y-13340674D01*
X774824Y-13340674D02*
X784348Y-13359722D01*
X784348Y-13359722D02*
X784348Y-13464484D01*
X879586Y-13464484D02*
X879586Y-13331150D01*
X879586Y-13350198D02*
X889110Y-13340674D01*
X889110Y-13340674D02*
X908158Y-13331150D01*
X908158Y-13331150D02*
X936729Y-13331150D01*
X936729Y-13331150D02*
X955777Y-13340674D01*
X955777Y-13340674D02*
X965301Y-13359722D01*
X965301Y-13359722D02*
X965301Y-13464484D01*
X965301Y-13359722D02*
X974824Y-13340674D01*
X974824Y-13340674D02*
X993872Y-13331150D01*
X993872Y-13331150D02*
X1022443Y-13331150D01*
X1022443Y-13331150D02*
X1041491Y-13340674D01*
X1041491Y-13340674D02*
X1051015Y-13359722D01*
X1051015Y-13359722D02*
X1051015Y-13464484D01*
X1441491Y-13254960D02*
X1270063Y-13512103D01*
X1698634Y-13264484D02*
X1717682Y-13264484D01*
X1717682Y-13264484D02*
X1736729Y-13274008D01*
X1736729Y-13274008D02*
X1746253Y-13283531D01*
X1746253Y-13283531D02*
X1755777Y-13302579D01*
X1755777Y-13302579D02*
X1765301Y-13340674D01*
X1765301Y-13340674D02*
X1765301Y-13388293D01*
X1765301Y-13388293D02*
X1755777Y-13426388D01*
X1755777Y-13426388D02*
X1746253Y-13445436D01*
X1746253Y-13445436D02*
X1736729Y-13454960D01*
X1736729Y-13454960D02*
X1717682Y-13464484D01*
X1717682Y-13464484D02*
X1698634Y-13464484D01*
X1698634Y-13464484D02*
X1679586Y-13454960D01*
X1679586Y-13454960D02*
X1670063Y-13445436D01*
X1670063Y-13445436D02*
X1660539Y-13426388D01*
X1660539Y-13426388D02*
X1651015Y-13388293D01*
X1651015Y-13388293D02*
X1651015Y-13340674D01*
X1651015Y-13340674D02*
X1660539Y-13302579D01*
X1660539Y-13302579D02*
X1670063Y-13283531D01*
X1670063Y-13283531D02*
X1679586Y-13274008D01*
X1679586Y-13274008D02*
X1698634Y-13264484D01*
X1851015Y-13445436D02*
X1860539Y-13454960D01*
X1860539Y-13454960D02*
X1851015Y-13464484D01*
X1851015Y-13464484D02*
X1841491Y-13454960D01*
X1841491Y-13454960D02*
X1851015Y-13445436D01*
X1851015Y-13445436D02*
X1851015Y-13464484D01*
X1984348Y-13264484D02*
X2003396Y-13264484D01*
X2003396Y-13264484D02*
X2022444Y-13274008D01*
X2022444Y-13274008D02*
X2031967Y-13283531D01*
X2031967Y-13283531D02*
X2041491Y-13302579D01*
X2041491Y-13302579D02*
X2051015Y-13340674D01*
X2051015Y-13340674D02*
X2051015Y-13388293D01*
X2051015Y-13388293D02*
X2041491Y-13426388D01*
X2041491Y-13426388D02*
X2031967Y-13445436D01*
X2031967Y-13445436D02*
X2022444Y-13454960D01*
X2022444Y-13454960D02*
X2003396Y-13464484D01*
X2003396Y-13464484D02*
X1984348Y-13464484D01*
X1984348Y-13464484D02*
X1965301Y-13454960D01*
X1965301Y-13454960D02*
X1955777Y-13445436D01*
X1955777Y-13445436D02*
X1946253Y-13426388D01*
X1946253Y-13426388D02*
X1936729Y-13388293D01*
X1936729Y-13388293D02*
X1936729Y-13340674D01*
X1936729Y-13340674D02*
X1946253Y-13302579D01*
X1946253Y-13302579D02*
X1955777Y-13283531D01*
X1955777Y-13283531D02*
X1965301Y-13274008D01*
X1965301Y-13274008D02*
X1984348Y-13264484D01*
X2117682Y-13264484D02*
X2241491Y-13264484D01*
X2241491Y-13264484D02*
X2174825Y-13340674D01*
X2174825Y-13340674D02*
X2203396Y-13340674D01*
X2203396Y-13340674D02*
X2222444Y-13350198D01*
X2222444Y-13350198D02*
X2231968Y-13359722D01*
X2231968Y-13359722D02*
X2241491Y-13378769D01*
X2241491Y-13378769D02*
X2241491Y-13426388D01*
X2241491Y-13426388D02*
X2231968Y-13445436D01*
X2231968Y-13445436D02*
X2222444Y-13454960D01*
X2222444Y-13454960D02*
X2203396Y-13464484D01*
X2203396Y-13464484D02*
X2146253Y-13464484D01*
X2146253Y-13464484D02*
X2127206Y-13454960D01*
X2127206Y-13454960D02*
X2117682Y-13445436D01*
X2431968Y-13464484D02*
X2317682Y-13464484D01*
X2374825Y-13464484D02*
X2374825Y-13264484D01*
X2374825Y-13264484D02*
X2355777Y-13293055D01*
X2355777Y-13293055D02*
X2336729Y-13312103D01*
X2336729Y-13312103D02*
X2317682Y-13321627D01*
X2612920Y-13264484D02*
X2517682Y-13264484D01*
X2517682Y-13264484D02*
X2508158Y-13359722D01*
X2508158Y-13359722D02*
X2517682Y-13350198D01*
X2517682Y-13350198D02*
X2536729Y-13340674D01*
X2536729Y-13340674D02*
X2584349Y-13340674D01*
X2584349Y-13340674D02*
X2603396Y-13350198D01*
X2603396Y-13350198D02*
X2612920Y-13359722D01*
X2612920Y-13359722D02*
X2622444Y-13378769D01*
X2622444Y-13378769D02*
X2622444Y-13426388D01*
X2622444Y-13426388D02*
X2612920Y-13445436D01*
X2612920Y-13445436D02*
X2603396Y-13454960D01*
X2603396Y-13454960D02*
X2584349Y-13464484D01*
X2584349Y-13464484D02*
X2536729Y-13464484D01*
X2536729Y-13464484D02*
X2517682Y-13454960D01*
X2517682Y-13454960D02*
X2508158Y-13445436D01*
X2698634Y-13264484D02*
X2698634Y-13302579D01*
X2774825Y-13264484D02*
X2774825Y-13302579D01*
X3070063Y-13540674D02*
X3060539Y-13531150D01*
X3060539Y-13531150D02*
X3041491Y-13502579D01*
X3041491Y-13502579D02*
X3031968Y-13483531D01*
X3031968Y-13483531D02*
X3022444Y-13454960D01*
X3022444Y-13454960D02*
X3012920Y-13407341D01*
X3012920Y-13407341D02*
X3012920Y-13369246D01*
X3012920Y-13369246D02*
X3022444Y-13321627D01*
X3022444Y-13321627D02*
X3031968Y-13293055D01*
X3031968Y-13293055D02*
X3041491Y-13274008D01*
X3041491Y-13274008D02*
X3060539Y-13245436D01*
X3060539Y-13245436D02*
X3070063Y-13235912D01*
X3241491Y-13264484D02*
X3146253Y-13264484D01*
X3146253Y-13264484D02*
X3136729Y-13359722D01*
X3136729Y-13359722D02*
X3146253Y-13350198D01*
X3146253Y-13350198D02*
X3165301Y-13340674D01*
X3165301Y-13340674D02*
X3212920Y-13340674D01*
X3212920Y-13340674D02*
X3231968Y-13350198D01*
X3231968Y-13350198D02*
X3241491Y-13359722D01*
X3241491Y-13359722D02*
X3251015Y-13378769D01*
X3251015Y-13378769D02*
X3251015Y-13426388D01*
X3251015Y-13426388D02*
X3241491Y-13445436D01*
X3241491Y-13445436D02*
X3231968Y-13454960D01*
X3231968Y-13454960D02*
X3212920Y-13464484D01*
X3212920Y-13464484D02*
X3165301Y-13464484D01*
X3165301Y-13464484D02*
X3146253Y-13454960D01*
X3146253Y-13454960D02*
X3136729Y-13445436D01*
X3422444Y-13331150D02*
X3422444Y-13464484D01*
X3374825Y-13254960D02*
X3327206Y-13397817D01*
X3327206Y-13397817D02*
X3451015Y-13397817D01*
X3679587Y-13464484D02*
X3679587Y-13264484D01*
X3765301Y-13464484D02*
X3765301Y-13359722D01*
X3765301Y-13359722D02*
X3755777Y-13340674D01*
X3755777Y-13340674D02*
X3736730Y-13331150D01*
X3736730Y-13331150D02*
X3708158Y-13331150D01*
X3708158Y-13331150D02*
X3689110Y-13340674D01*
X3689110Y-13340674D02*
X3679587Y-13350198D01*
X3889110Y-13464484D02*
X3870063Y-13454960D01*
X3870063Y-13454960D02*
X3860539Y-13445436D01*
X3860539Y-13445436D02*
X3851015Y-13426388D01*
X3851015Y-13426388D02*
X3851015Y-13369246D01*
X3851015Y-13369246D02*
X3860539Y-13350198D01*
X3860539Y-13350198D02*
X3870063Y-13340674D01*
X3870063Y-13340674D02*
X3889110Y-13331150D01*
X3889110Y-13331150D02*
X3917682Y-13331150D01*
X3917682Y-13331150D02*
X3936730Y-13340674D01*
X3936730Y-13340674D02*
X3946253Y-13350198D01*
X3946253Y-13350198D02*
X3955777Y-13369246D01*
X3955777Y-13369246D02*
X3955777Y-13426388D01*
X3955777Y-13426388D02*
X3946253Y-13445436D01*
X3946253Y-13445436D02*
X3936730Y-13454960D01*
X3936730Y-13454960D02*
X3917682Y-13464484D01*
X3917682Y-13464484D02*
X3889110Y-13464484D01*
X4070063Y-13464484D02*
X4051015Y-13454960D01*
X4051015Y-13454960D02*
X4041491Y-13435912D01*
X4041491Y-13435912D02*
X4041491Y-13264484D01*
X4222444Y-13454960D02*
X4203396Y-13464484D01*
X4203396Y-13464484D02*
X4165301Y-13464484D01*
X4165301Y-13464484D02*
X4146253Y-13454960D01*
X4146253Y-13454960D02*
X4136730Y-13435912D01*
X4136730Y-13435912D02*
X4136730Y-13359722D01*
X4136730Y-13359722D02*
X4146253Y-13340674D01*
X4146253Y-13340674D02*
X4165301Y-13331150D01*
X4165301Y-13331150D02*
X4203396Y-13331150D01*
X4203396Y-13331150D02*
X4222444Y-13340674D01*
X4222444Y-13340674D02*
X4231968Y-13359722D01*
X4231968Y-13359722D02*
X4231968Y-13378769D01*
X4231968Y-13378769D02*
X4136730Y-13397817D01*
X4308158Y-13454960D02*
X4327206Y-13464484D01*
X4327206Y-13464484D02*
X4365301Y-13464484D01*
X4365301Y-13464484D02*
X4384349Y-13454960D01*
X4384349Y-13454960D02*
X4393873Y-13435912D01*
X4393873Y-13435912D02*
X4393873Y-13426388D01*
X4393873Y-13426388D02*
X4384349Y-13407341D01*
X4384349Y-13407341D02*
X4365301Y-13397817D01*
X4365301Y-13397817D02*
X4336730Y-13397817D01*
X4336730Y-13397817D02*
X4317682Y-13388293D01*
X4317682Y-13388293D02*
X4308158Y-13369246D01*
X4308158Y-13369246D02*
X4308158Y-13359722D01*
X4308158Y-13359722D02*
X4317682Y-13340674D01*
X4317682Y-13340674D02*
X4336730Y-13331150D01*
X4336730Y-13331150D02*
X4365301Y-13331150D01*
X4365301Y-13331150D02*
X4384349Y-13340674D01*
X4460539Y-13540674D02*
X4470063Y-13531150D01*
X4470063Y-13531150D02*
X4489111Y-13502579D01*
X4489111Y-13502579D02*
X4498634Y-13483531D01*
X4498634Y-13483531D02*
X4508158Y-13454960D01*
X4508158Y-13454960D02*
X4517682Y-13407341D01*
X4517682Y-13407341D02*
X4517682Y-13369246D01*
X4517682Y-13369246D02*
X4508158Y-13321627D01*
X4508158Y-13321627D02*
X4498634Y-13293055D01*
X4498634Y-13293055D02*
X4489111Y-13274008D01*
X4489111Y-13274008D02*
X4470063Y-13245436D01*
X4470063Y-13245436D02*
X4460539Y-13235912D01*
D10*
X-519644Y-13672356D02*
X-519644Y-13601644D01*
X-590356Y-13601644D01*
X-590356Y-13672356D01*
X-519644Y-13672356D01*
D11*
X-139461Y-13728484D02*
X-253747Y-13728484D01*
X-196604Y-13728484D02*
X-196604Y-13528484D01*
X-196604Y-13528484D02*
X-215652Y-13557055D01*
X-215652Y-13557055D02*
X-234699Y-13576103D01*
X-234699Y-13576103D02*
X-253747Y-13585627D01*
X-53747Y-13709436D02*
X-44223Y-13718960D01*
X-44223Y-13718960D02*
X-53747Y-13728484D01*
X-53747Y-13728484D02*
X-63271Y-13718960D01*
X-63271Y-13718960D02*
X-53747Y-13709436D01*
X-53747Y-13709436D02*
X-53747Y-13728484D01*
X79586Y-13528484D02*
X98634Y-13528484D01*
X98634Y-13528484D02*
X117682Y-13538008D01*
X117682Y-13538008D02*
X127205Y-13547531D01*
X127205Y-13547531D02*
X136729Y-13566579D01*
X136729Y-13566579D02*
X146253Y-13604674D01*
X146253Y-13604674D02*
X146253Y-13652293D01*
X146253Y-13652293D02*
X136729Y-13690388D01*
X136729Y-13690388D02*
X127205Y-13709436D01*
X127205Y-13709436D02*
X117682Y-13718960D01*
X117682Y-13718960D02*
X98634Y-13728484D01*
X98634Y-13728484D02*
X79586Y-13728484D01*
X79586Y-13728484D02*
X60539Y-13718960D01*
X60539Y-13718960D02*
X51015Y-13709436D01*
X51015Y-13709436D02*
X41491Y-13690388D01*
X41491Y-13690388D02*
X31967Y-13652293D01*
X31967Y-13652293D02*
X31967Y-13604674D01*
X31967Y-13604674D02*
X41491Y-13566579D01*
X41491Y-13566579D02*
X51015Y-13547531D01*
X51015Y-13547531D02*
X60539Y-13538008D01*
X60539Y-13538008D02*
X79586Y-13528484D01*
X270063Y-13528484D02*
X289110Y-13528484D01*
X289110Y-13528484D02*
X308158Y-13538008D01*
X308158Y-13538008D02*
X317682Y-13547531D01*
X317682Y-13547531D02*
X327205Y-13566579D01*
X327205Y-13566579D02*
X336729Y-13604674D01*
X336729Y-13604674D02*
X336729Y-13652293D01*
X336729Y-13652293D02*
X327205Y-13690388D01*
X327205Y-13690388D02*
X317682Y-13709436D01*
X317682Y-13709436D02*
X308158Y-13718960D01*
X308158Y-13718960D02*
X289110Y-13728484D01*
X289110Y-13728484D02*
X270063Y-13728484D01*
X270063Y-13728484D02*
X251015Y-13718960D01*
X251015Y-13718960D02*
X241491Y-13709436D01*
X241491Y-13709436D02*
X231967Y-13690388D01*
X231967Y-13690388D02*
X222443Y-13652293D01*
X222443Y-13652293D02*
X222443Y-13604674D01*
X222443Y-13604674D02*
X231967Y-13566579D01*
X231967Y-13566579D02*
X241491Y-13547531D01*
X241491Y-13547531D02*
X251015Y-13538008D01*
X251015Y-13538008D02*
X270063Y-13528484D01*
X460539Y-13528484D02*
X479586Y-13528484D01*
X479586Y-13528484D02*
X498634Y-13538008D01*
X498634Y-13538008D02*
X508158Y-13547531D01*
X508158Y-13547531D02*
X517682Y-13566579D01*
X517682Y-13566579D02*
X527205Y-13604674D01*
X527205Y-13604674D02*
X527205Y-13652293D01*
X527205Y-13652293D02*
X517682Y-13690388D01*
X517682Y-13690388D02*
X508158Y-13709436D01*
X508158Y-13709436D02*
X498634Y-13718960D01*
X498634Y-13718960D02*
X479586Y-13728484D01*
X479586Y-13728484D02*
X460539Y-13728484D01*
X460539Y-13728484D02*
X441491Y-13718960D01*
X441491Y-13718960D02*
X431967Y-13709436D01*
X431967Y-13709436D02*
X422443Y-13690388D01*
X422443Y-13690388D02*
X412920Y-13652293D01*
X412920Y-13652293D02*
X412920Y-13604674D01*
X412920Y-13604674D02*
X422443Y-13566579D01*
X422443Y-13566579D02*
X431967Y-13547531D01*
X431967Y-13547531D02*
X441491Y-13538008D01*
X441491Y-13538008D02*
X460539Y-13528484D01*
X612920Y-13728484D02*
X612920Y-13595150D01*
X612920Y-13614198D02*
X622444Y-13604674D01*
X622444Y-13604674D02*
X641491Y-13595150D01*
X641491Y-13595150D02*
X670063Y-13595150D01*
X670063Y-13595150D02*
X689110Y-13604674D01*
X689110Y-13604674D02*
X698634Y-13623722D01*
X698634Y-13623722D02*
X698634Y-13728484D01*
X698634Y-13623722D02*
X708158Y-13604674D01*
X708158Y-13604674D02*
X727205Y-13595150D01*
X727205Y-13595150D02*
X755777Y-13595150D01*
X755777Y-13595150D02*
X774824Y-13604674D01*
X774824Y-13604674D02*
X784348Y-13623722D01*
X784348Y-13623722D02*
X784348Y-13728484D01*
X879586Y-13728484D02*
X879586Y-13595150D01*
X879586Y-13614198D02*
X889110Y-13604674D01*
X889110Y-13604674D02*
X908158Y-13595150D01*
X908158Y-13595150D02*
X936729Y-13595150D01*
X936729Y-13595150D02*
X955777Y-13604674D01*
X955777Y-13604674D02*
X965301Y-13623722D01*
X965301Y-13623722D02*
X965301Y-13728484D01*
X965301Y-13623722D02*
X974824Y-13604674D01*
X974824Y-13604674D02*
X993872Y-13595150D01*
X993872Y-13595150D02*
X1022443Y-13595150D01*
X1022443Y-13595150D02*
X1041491Y-13604674D01*
X1041491Y-13604674D02*
X1051015Y-13623722D01*
X1051015Y-13623722D02*
X1051015Y-13728484D01*
X1441491Y-13518960D02*
X1270063Y-13776103D01*
X1698634Y-13528484D02*
X1717682Y-13528484D01*
X1717682Y-13528484D02*
X1736729Y-13538008D01*
X1736729Y-13538008D02*
X1746253Y-13547531D01*
X1746253Y-13547531D02*
X1755777Y-13566579D01*
X1755777Y-13566579D02*
X1765301Y-13604674D01*
X1765301Y-13604674D02*
X1765301Y-13652293D01*
X1765301Y-13652293D02*
X1755777Y-13690388D01*
X1755777Y-13690388D02*
X1746253Y-13709436D01*
X1746253Y-13709436D02*
X1736729Y-13718960D01*
X1736729Y-13718960D02*
X1717682Y-13728484D01*
X1717682Y-13728484D02*
X1698634Y-13728484D01*
X1698634Y-13728484D02*
X1679586Y-13718960D01*
X1679586Y-13718960D02*
X1670063Y-13709436D01*
X1670063Y-13709436D02*
X1660539Y-13690388D01*
X1660539Y-13690388D02*
X1651015Y-13652293D01*
X1651015Y-13652293D02*
X1651015Y-13604674D01*
X1651015Y-13604674D02*
X1660539Y-13566579D01*
X1660539Y-13566579D02*
X1670063Y-13547531D01*
X1670063Y-13547531D02*
X1679586Y-13538008D01*
X1679586Y-13538008D02*
X1698634Y-13528484D01*
X1851015Y-13709436D02*
X1860539Y-13718960D01*
X1860539Y-13718960D02*
X1851015Y-13728484D01*
X1851015Y-13728484D02*
X1841491Y-13718960D01*
X1841491Y-13718960D02*
X1851015Y-13709436D01*
X1851015Y-13709436D02*
X1851015Y-13728484D01*
X1984348Y-13528484D02*
X2003396Y-13528484D01*
X2003396Y-13528484D02*
X2022444Y-13538008D01*
X2022444Y-13538008D02*
X2031967Y-13547531D01*
X2031967Y-13547531D02*
X2041491Y-13566579D01*
X2041491Y-13566579D02*
X2051015Y-13604674D01*
X2051015Y-13604674D02*
X2051015Y-13652293D01*
X2051015Y-13652293D02*
X2041491Y-13690388D01*
X2041491Y-13690388D02*
X2031967Y-13709436D01*
X2031967Y-13709436D02*
X2022444Y-13718960D01*
X2022444Y-13718960D02*
X2003396Y-13728484D01*
X2003396Y-13728484D02*
X1984348Y-13728484D01*
X1984348Y-13728484D02*
X1965301Y-13718960D01*
X1965301Y-13718960D02*
X1955777Y-13709436D01*
X1955777Y-13709436D02*
X1946253Y-13690388D01*
X1946253Y-13690388D02*
X1936729Y-13652293D01*
X1936729Y-13652293D02*
X1936729Y-13604674D01*
X1936729Y-13604674D02*
X1946253Y-13566579D01*
X1946253Y-13566579D02*
X1955777Y-13547531D01*
X1955777Y-13547531D02*
X1965301Y-13538008D01*
X1965301Y-13538008D02*
X1984348Y-13528484D01*
X2117682Y-13528484D02*
X2241491Y-13528484D01*
X2241491Y-13528484D02*
X2174825Y-13604674D01*
X2174825Y-13604674D02*
X2203396Y-13604674D01*
X2203396Y-13604674D02*
X2222444Y-13614198D01*
X2222444Y-13614198D02*
X2231968Y-13623722D01*
X2231968Y-13623722D02*
X2241491Y-13642769D01*
X2241491Y-13642769D02*
X2241491Y-13690388D01*
X2241491Y-13690388D02*
X2231968Y-13709436D01*
X2231968Y-13709436D02*
X2222444Y-13718960D01*
X2222444Y-13718960D02*
X2203396Y-13728484D01*
X2203396Y-13728484D02*
X2146253Y-13728484D01*
X2146253Y-13728484D02*
X2127206Y-13718960D01*
X2127206Y-13718960D02*
X2117682Y-13709436D01*
X2336729Y-13728484D02*
X2374825Y-13728484D01*
X2374825Y-13728484D02*
X2393872Y-13718960D01*
X2393872Y-13718960D02*
X2403396Y-13709436D01*
X2403396Y-13709436D02*
X2422444Y-13680865D01*
X2422444Y-13680865D02*
X2431968Y-13642769D01*
X2431968Y-13642769D02*
X2431968Y-13566579D01*
X2431968Y-13566579D02*
X2422444Y-13547531D01*
X2422444Y-13547531D02*
X2412920Y-13538008D01*
X2412920Y-13538008D02*
X2393872Y-13528484D01*
X2393872Y-13528484D02*
X2355777Y-13528484D01*
X2355777Y-13528484D02*
X2336729Y-13538008D01*
X2336729Y-13538008D02*
X2327206Y-13547531D01*
X2327206Y-13547531D02*
X2317682Y-13566579D01*
X2317682Y-13566579D02*
X2317682Y-13614198D01*
X2317682Y-13614198D02*
X2327206Y-13633246D01*
X2327206Y-13633246D02*
X2336729Y-13642769D01*
X2336729Y-13642769D02*
X2355777Y-13652293D01*
X2355777Y-13652293D02*
X2393872Y-13652293D01*
X2393872Y-13652293D02*
X2412920Y-13642769D01*
X2412920Y-13642769D02*
X2422444Y-13633246D01*
X2422444Y-13633246D02*
X2431968Y-13614198D01*
X2603396Y-13595150D02*
X2603396Y-13728484D01*
X2555777Y-13518960D02*
X2508158Y-13661817D01*
X2508158Y-13661817D02*
X2631968Y-13661817D01*
X2698634Y-13528484D02*
X2698634Y-13566579D01*
X2774825Y-13528484D02*
X2774825Y-13566579D01*
X3070063Y-13804674D02*
X3060539Y-13795150D01*
X3060539Y-13795150D02*
X3041491Y-13766579D01*
X3041491Y-13766579D02*
X3031968Y-13747531D01*
X3031968Y-13747531D02*
X3022444Y-13718960D01*
X3022444Y-13718960D02*
X3012920Y-13671341D01*
X3012920Y-13671341D02*
X3012920Y-13633246D01*
X3012920Y-13633246D02*
X3022444Y-13585627D01*
X3022444Y-13585627D02*
X3031968Y-13557055D01*
X3031968Y-13557055D02*
X3041491Y-13538008D01*
X3041491Y-13538008D02*
X3060539Y-13509436D01*
X3060539Y-13509436D02*
X3070063Y-13499912D01*
X3127206Y-13528484D02*
X3251015Y-13528484D01*
X3251015Y-13528484D02*
X3184348Y-13604674D01*
X3184348Y-13604674D02*
X3212920Y-13604674D01*
X3212920Y-13604674D02*
X3231968Y-13614198D01*
X3231968Y-13614198D02*
X3241491Y-13623722D01*
X3241491Y-13623722D02*
X3251015Y-13642769D01*
X3251015Y-13642769D02*
X3251015Y-13690388D01*
X3251015Y-13690388D02*
X3241491Y-13709436D01*
X3241491Y-13709436D02*
X3231968Y-13718960D01*
X3231968Y-13718960D02*
X3212920Y-13728484D01*
X3212920Y-13728484D02*
X3155777Y-13728484D01*
X3155777Y-13728484D02*
X3136729Y-13718960D01*
X3136729Y-13718960D02*
X3127206Y-13709436D01*
X3431968Y-13528484D02*
X3336729Y-13528484D01*
X3336729Y-13528484D02*
X3327206Y-13623722D01*
X3327206Y-13623722D02*
X3336729Y-13614198D01*
X3336729Y-13614198D02*
X3355777Y-13604674D01*
X3355777Y-13604674D02*
X3403396Y-13604674D01*
X3403396Y-13604674D02*
X3422444Y-13614198D01*
X3422444Y-13614198D02*
X3431968Y-13623722D01*
X3431968Y-13623722D02*
X3441491Y-13642769D01*
X3441491Y-13642769D02*
X3441491Y-13690388D01*
X3441491Y-13690388D02*
X3431968Y-13709436D01*
X3431968Y-13709436D02*
X3422444Y-13718960D01*
X3422444Y-13718960D02*
X3403396Y-13728484D01*
X3403396Y-13728484D02*
X3355777Y-13728484D01*
X3355777Y-13728484D02*
X3336729Y-13718960D01*
X3336729Y-13718960D02*
X3327206Y-13709436D01*
X3679587Y-13728484D02*
X3679587Y-13528484D01*
X3765301Y-13728484D02*
X3765301Y-13623722D01*
X3765301Y-13623722D02*
X3755777Y-13604674D01*
X3755777Y-13604674D02*
X3736730Y-13595150D01*
X3736730Y-13595150D02*
X3708158Y-13595150D01*
X3708158Y-13595150D02*
X3689110Y-13604674D01*
X3689110Y-13604674D02*
X3679587Y-13614198D01*
X3889110Y-13728484D02*
X3870063Y-13718960D01*
X3870063Y-13718960D02*
X3860539Y-13709436D01*
X3860539Y-13709436D02*
X3851015Y-13690388D01*
X3851015Y-13690388D02*
X3851015Y-13633246D01*
X3851015Y-13633246D02*
X3860539Y-13614198D01*
X3860539Y-13614198D02*
X3870063Y-13604674D01*
X3870063Y-13604674D02*
X3889110Y-13595150D01*
X3889110Y-13595150D02*
X3917682Y-13595150D01*
X3917682Y-13595150D02*
X3936730Y-13604674D01*
X3936730Y-13604674D02*
X3946253Y-13614198D01*
X3946253Y-13614198D02*
X3955777Y-13633246D01*
X3955777Y-13633246D02*
X3955777Y-13690388D01*
X3955777Y-13690388D02*
X3946253Y-13709436D01*
X3946253Y-13709436D02*
X3936730Y-13718960D01*
X3936730Y-13718960D02*
X3917682Y-13728484D01*
X3917682Y-13728484D02*
X3889110Y-13728484D01*
X4070063Y-13728484D02*
X4051015Y-13718960D01*
X4051015Y-13718960D02*
X4041491Y-13699912D01*
X4041491Y-13699912D02*
X4041491Y-13528484D01*
X4222444Y-13718960D02*
X4203396Y-13728484D01*
X4203396Y-13728484D02*
X4165301Y-13728484D01*
X4165301Y-13728484D02*
X4146253Y-13718960D01*
X4146253Y-13718960D02*
X4136730Y-13699912D01*
X4136730Y-13699912D02*
X4136730Y-13623722D01*
X4136730Y-13623722D02*
X4146253Y-13604674D01*
X4146253Y-13604674D02*
X4165301Y-13595150D01*
X4165301Y-13595150D02*
X4203396Y-13595150D01*
X4203396Y-13595150D02*
X4222444Y-13604674D01*
X4222444Y-13604674D02*
X4231968Y-13623722D01*
X4231968Y-13623722D02*
X4231968Y-13642769D01*
X4231968Y-13642769D02*
X4136730Y-13661817D01*
X4308158Y-13718960D02*
X4327206Y-13728484D01*
X4327206Y-13728484D02*
X4365301Y-13728484D01*
X4365301Y-13728484D02*
X4384349Y-13718960D01*
X4384349Y-13718960D02*
X4393873Y-13699912D01*
X4393873Y-13699912D02*
X4393873Y-13690388D01*
X4393873Y-13690388D02*
X4384349Y-13671341D01*
X4384349Y-13671341D02*
X4365301Y-13661817D01*
X4365301Y-13661817D02*
X4336730Y-13661817D01*
X4336730Y-13661817D02*
X4317682Y-13652293D01*
X4317682Y-13652293D02*
X4308158Y-13633246D01*
X4308158Y-13633246D02*
X4308158Y-13623722D01*
X4308158Y-13623722D02*
X4317682Y-13604674D01*
X4317682Y-13604674D02*
X4336730Y-13595150D01*
X4336730Y-13595150D02*
X4365301Y-13595150D01*
X4365301Y-13595150D02*
X4384349Y-13604674D01*
X4460539Y-13804674D02*
X4470063Y-13795150D01*
X4470063Y-13795150D02*
X4489111Y-13766579D01*
X4489111Y-13766579D02*
X4498634Y-13747531D01*
X4498634Y-13747531D02*
X4508158Y-13718960D01*
X4508158Y-13718960D02*
X4517682Y-13671341D01*
X4517682Y-13671341D02*
X4517682Y-13633246D01*
X4517682Y-13633246D02*
X4508158Y-13585627D01*
X4508158Y-13585627D02*
X4498634Y-13557055D01*
X4498634Y-13557055D02*
X4489111Y-13538008D01*
X4489111Y-13538008D02*
X4470063Y-13509436D01*
X4470063Y-13509436D02*
X4460539Y-13499912D01*
X-605000Y-14001000D02*
X-505000Y-13901000D01*
X-605000Y-13801000D01*
X-705000Y-13901000D01*
X-605000Y-14001000D01*
X-263271Y-13792484D02*
X-139461Y-13792484D01*
X-139461Y-13792484D02*
X-206128Y-13868674D01*
X-206128Y-13868674D02*
X-177556Y-13868674D01*
X-177556Y-13868674D02*
X-158509Y-13878198D01*
X-158509Y-13878198D02*
X-148985Y-13887722D01*
X-148985Y-13887722D02*
X-139461Y-13906769D01*
X-139461Y-13906769D02*
X-139461Y-13954388D01*
X-139461Y-13954388D02*
X-148985Y-13973436D01*
X-148985Y-13973436D02*
X-158509Y-13982960D01*
X-158509Y-13982960D02*
X-177556Y-13992484D01*
X-177556Y-13992484D02*
X-234699Y-13992484D01*
X-234699Y-13992484D02*
X-253747Y-13982960D01*
X-253747Y-13982960D02*
X-263271Y-13973436D01*
X-53747Y-13973436D02*
X-44223Y-13982960D01*
X-44223Y-13982960D02*
X-53747Y-13992484D01*
X-53747Y-13992484D02*
X-63271Y-13982960D01*
X-63271Y-13982960D02*
X-53747Y-13973436D01*
X-53747Y-13973436D02*
X-53747Y-13992484D01*
X79586Y-13792484D02*
X98634Y-13792484D01*
X98634Y-13792484D02*
X117682Y-13802008D01*
X117682Y-13802008D02*
X127205Y-13811531D01*
X127205Y-13811531D02*
X136729Y-13830579D01*
X136729Y-13830579D02*
X146253Y-13868674D01*
X146253Y-13868674D02*
X146253Y-13916293D01*
X146253Y-13916293D02*
X136729Y-13954388D01*
X136729Y-13954388D02*
X127205Y-13973436D01*
X127205Y-13973436D02*
X117682Y-13982960D01*
X117682Y-13982960D02*
X98634Y-13992484D01*
X98634Y-13992484D02*
X79586Y-13992484D01*
X79586Y-13992484D02*
X60539Y-13982960D01*
X60539Y-13982960D02*
X51015Y-13973436D01*
X51015Y-13973436D02*
X41491Y-13954388D01*
X41491Y-13954388D02*
X31967Y-13916293D01*
X31967Y-13916293D02*
X31967Y-13868674D01*
X31967Y-13868674D02*
X41491Y-13830579D01*
X41491Y-13830579D02*
X51015Y-13811531D01*
X51015Y-13811531D02*
X60539Y-13802008D01*
X60539Y-13802008D02*
X79586Y-13792484D01*
X270063Y-13792484D02*
X289110Y-13792484D01*
X289110Y-13792484D02*
X308158Y-13802008D01*
X308158Y-13802008D02*
X317682Y-13811531D01*
X317682Y-13811531D02*
X327205Y-13830579D01*
X327205Y-13830579D02*
X336729Y-13868674D01*
X336729Y-13868674D02*
X336729Y-13916293D01*
X336729Y-13916293D02*
X327205Y-13954388D01*
X327205Y-13954388D02*
X317682Y-13973436D01*
X317682Y-13973436D02*
X308158Y-13982960D01*
X308158Y-13982960D02*
X289110Y-13992484D01*
X289110Y-13992484D02*
X270063Y-13992484D01*
X270063Y-13992484D02*
X251015Y-13982960D01*
X251015Y-13982960D02*
X241491Y-13973436D01*
X241491Y-13973436D02*
X231967Y-13954388D01*
X231967Y-13954388D02*
X222443Y-13916293D01*
X222443Y-13916293D02*
X222443Y-13868674D01*
X222443Y-13868674D02*
X231967Y-13830579D01*
X231967Y-13830579D02*
X241491Y-13811531D01*
X241491Y-13811531D02*
X251015Y-13802008D01*
X251015Y-13802008D02*
X270063Y-13792484D01*
X460539Y-13792484D02*
X479586Y-13792484D01*
X479586Y-13792484D02*
X498634Y-13802008D01*
X498634Y-13802008D02*
X508158Y-13811531D01*
X508158Y-13811531D02*
X517682Y-13830579D01*
X517682Y-13830579D02*
X527205Y-13868674D01*
X527205Y-13868674D02*
X527205Y-13916293D01*
X527205Y-13916293D02*
X517682Y-13954388D01*
X517682Y-13954388D02*
X508158Y-13973436D01*
X508158Y-13973436D02*
X498634Y-13982960D01*
X498634Y-13982960D02*
X479586Y-13992484D01*
X479586Y-13992484D02*
X460539Y-13992484D01*
X460539Y-13992484D02*
X441491Y-13982960D01*
X441491Y-13982960D02*
X431967Y-13973436D01*
X431967Y-13973436D02*
X422443Y-13954388D01*
X422443Y-13954388D02*
X412920Y-13916293D01*
X412920Y-13916293D02*
X412920Y-13868674D01*
X412920Y-13868674D02*
X422443Y-13830579D01*
X422443Y-13830579D02*
X431967Y-13811531D01*
X431967Y-13811531D02*
X441491Y-13802008D01*
X441491Y-13802008D02*
X460539Y-13792484D01*
X612920Y-13992484D02*
X612920Y-13859150D01*
X612920Y-13878198D02*
X622444Y-13868674D01*
X622444Y-13868674D02*
X641491Y-13859150D01*
X641491Y-13859150D02*
X670063Y-13859150D01*
X670063Y-13859150D02*
X689110Y-13868674D01*
X689110Y-13868674D02*
X698634Y-13887722D01*
X698634Y-13887722D02*
X698634Y-13992484D01*
X698634Y-13887722D02*
X708158Y-13868674D01*
X708158Y-13868674D02*
X727205Y-13859150D01*
X727205Y-13859150D02*
X755777Y-13859150D01*
X755777Y-13859150D02*
X774824Y-13868674D01*
X774824Y-13868674D02*
X784348Y-13887722D01*
X784348Y-13887722D02*
X784348Y-13992484D01*
X879586Y-13992484D02*
X879586Y-13859150D01*
X879586Y-13878198D02*
X889110Y-13868674D01*
X889110Y-13868674D02*
X908158Y-13859150D01*
X908158Y-13859150D02*
X936729Y-13859150D01*
X936729Y-13859150D02*
X955777Y-13868674D01*
X955777Y-13868674D02*
X965301Y-13887722D01*
X965301Y-13887722D02*
X965301Y-13992484D01*
X965301Y-13887722D02*
X974824Y-13868674D01*
X974824Y-13868674D02*
X993872Y-13859150D01*
X993872Y-13859150D02*
X1022443Y-13859150D01*
X1022443Y-13859150D02*
X1041491Y-13868674D01*
X1041491Y-13868674D02*
X1051015Y-13887722D01*
X1051015Y-13887722D02*
X1051015Y-13992484D01*
X1441491Y-13782960D02*
X1270063Y-14040103D01*
X1698634Y-13792484D02*
X1717682Y-13792484D01*
X1717682Y-13792484D02*
X1736729Y-13802008D01*
X1736729Y-13802008D02*
X1746253Y-13811531D01*
X1746253Y-13811531D02*
X1755777Y-13830579D01*
X1755777Y-13830579D02*
X1765301Y-13868674D01*
X1765301Y-13868674D02*
X1765301Y-13916293D01*
X1765301Y-13916293D02*
X1755777Y-13954388D01*
X1755777Y-13954388D02*
X1746253Y-13973436D01*
X1746253Y-13973436D02*
X1736729Y-13982960D01*
X1736729Y-13982960D02*
X1717682Y-13992484D01*
X1717682Y-13992484D02*
X1698634Y-13992484D01*
X1698634Y-13992484D02*
X1679586Y-13982960D01*
X1679586Y-13982960D02*
X1670063Y-13973436D01*
X1670063Y-13973436D02*
X1660539Y-13954388D01*
X1660539Y-13954388D02*
X1651015Y-13916293D01*
X1651015Y-13916293D02*
X1651015Y-13868674D01*
X1651015Y-13868674D02*
X1660539Y-13830579D01*
X1660539Y-13830579D02*
X1670063Y-13811531D01*
X1670063Y-13811531D02*
X1679586Y-13802008D01*
X1679586Y-13802008D02*
X1698634Y-13792484D01*
X1851015Y-13973436D02*
X1860539Y-13982960D01*
X1860539Y-13982960D02*
X1851015Y-13992484D01*
X1851015Y-13992484D02*
X1841491Y-13982960D01*
X1841491Y-13982960D02*
X1851015Y-13973436D01*
X1851015Y-13973436D02*
X1851015Y-13992484D01*
X2051015Y-13992484D02*
X1936729Y-13992484D01*
X1993872Y-13992484D02*
X1993872Y-13792484D01*
X1993872Y-13792484D02*
X1974825Y-13821055D01*
X1974825Y-13821055D02*
X1955777Y-13840103D01*
X1955777Y-13840103D02*
X1936729Y-13849627D01*
X2241491Y-13992484D02*
X2127206Y-13992484D01*
X2184348Y-13992484D02*
X2184348Y-13792484D01*
X2184348Y-13792484D02*
X2165301Y-13821055D01*
X2165301Y-13821055D02*
X2146253Y-13840103D01*
X2146253Y-13840103D02*
X2127206Y-13849627D01*
X2355777Y-13878198D02*
X2336729Y-13868674D01*
X2336729Y-13868674D02*
X2327206Y-13859150D01*
X2327206Y-13859150D02*
X2317682Y-13840103D01*
X2317682Y-13840103D02*
X2317682Y-13830579D01*
X2317682Y-13830579D02*
X2327206Y-13811531D01*
X2327206Y-13811531D02*
X2336729Y-13802008D01*
X2336729Y-13802008D02*
X2355777Y-13792484D01*
X2355777Y-13792484D02*
X2393872Y-13792484D01*
X2393872Y-13792484D02*
X2412920Y-13802008D01*
X2412920Y-13802008D02*
X2422444Y-13811531D01*
X2422444Y-13811531D02*
X2431968Y-13830579D01*
X2431968Y-13830579D02*
X2431968Y-13840103D01*
X2431968Y-13840103D02*
X2422444Y-13859150D01*
X2422444Y-13859150D02*
X2412920Y-13868674D01*
X2412920Y-13868674D02*
X2393872Y-13878198D01*
X2393872Y-13878198D02*
X2355777Y-13878198D01*
X2355777Y-13878198D02*
X2336729Y-13887722D01*
X2336729Y-13887722D02*
X2327206Y-13897246D01*
X2327206Y-13897246D02*
X2317682Y-13916293D01*
X2317682Y-13916293D02*
X2317682Y-13954388D01*
X2317682Y-13954388D02*
X2327206Y-13973436D01*
X2327206Y-13973436D02*
X2336729Y-13982960D01*
X2336729Y-13982960D02*
X2355777Y-13992484D01*
X2355777Y-13992484D02*
X2393872Y-13992484D01*
X2393872Y-13992484D02*
X2412920Y-13982960D01*
X2412920Y-13982960D02*
X2422444Y-13973436D01*
X2422444Y-13973436D02*
X2431968Y-13954388D01*
X2431968Y-13954388D02*
X2431968Y-13916293D01*
X2431968Y-13916293D02*
X2422444Y-13897246D01*
X2422444Y-13897246D02*
X2412920Y-13887722D01*
X2412920Y-13887722D02*
X2393872Y-13878198D01*
X2622444Y-13992484D02*
X2508158Y-13992484D01*
X2565301Y-13992484D02*
X2565301Y-13792484D01*
X2565301Y-13792484D02*
X2546253Y-13821055D01*
X2546253Y-13821055D02*
X2527206Y-13840103D01*
X2527206Y-13840103D02*
X2508158Y-13849627D01*
X2698634Y-13792484D02*
X2698634Y-13830579D01*
X2774825Y-13792484D02*
X2774825Y-13830579D01*
X3070063Y-14068674D02*
X3060539Y-14059150D01*
X3060539Y-14059150D02*
X3041491Y-14030579D01*
X3041491Y-14030579D02*
X3031968Y-14011531D01*
X3031968Y-14011531D02*
X3022444Y-13982960D01*
X3022444Y-13982960D02*
X3012920Y-13935341D01*
X3012920Y-13935341D02*
X3012920Y-13897246D01*
X3012920Y-13897246D02*
X3022444Y-13849627D01*
X3022444Y-13849627D02*
X3031968Y-13821055D01*
X3031968Y-13821055D02*
X3041491Y-13802008D01*
X3041491Y-13802008D02*
X3060539Y-13773436D01*
X3060539Y-13773436D02*
X3070063Y-13763912D01*
X3241491Y-13792484D02*
X3146253Y-13792484D01*
X3146253Y-13792484D02*
X3136729Y-13887722D01*
X3136729Y-13887722D02*
X3146253Y-13878198D01*
X3146253Y-13878198D02*
X3165301Y-13868674D01*
X3165301Y-13868674D02*
X3212920Y-13868674D01*
X3212920Y-13868674D02*
X3231968Y-13878198D01*
X3231968Y-13878198D02*
X3241491Y-13887722D01*
X3241491Y-13887722D02*
X3251015Y-13906769D01*
X3251015Y-13906769D02*
X3251015Y-13954388D01*
X3251015Y-13954388D02*
X3241491Y-13973436D01*
X3241491Y-13973436D02*
X3231968Y-13982960D01*
X3231968Y-13982960D02*
X3212920Y-13992484D01*
X3212920Y-13992484D02*
X3165301Y-13992484D01*
X3165301Y-13992484D02*
X3146253Y-13982960D01*
X3146253Y-13982960D02*
X3136729Y-13973436D01*
X3327206Y-13811531D02*
X3336729Y-13802008D01*
X3336729Y-13802008D02*
X3355777Y-13792484D01*
X3355777Y-13792484D02*
X3403396Y-13792484D01*
X3403396Y-13792484D02*
X3422444Y-13802008D01*
X3422444Y-13802008D02*
X3431968Y-13811531D01*
X3431968Y-13811531D02*
X3441491Y-13830579D01*
X3441491Y-13830579D02*
X3441491Y-13849627D01*
X3441491Y-13849627D02*
X3431968Y-13878198D01*
X3431968Y-13878198D02*
X3317682Y-13992484D01*
X3317682Y-13992484D02*
X3441491Y-13992484D01*
X3679587Y-13992484D02*
X3679587Y-13792484D01*
X3765301Y-13992484D02*
X3765301Y-13887722D01*
X3765301Y-13887722D02*
X3755777Y-13868674D01*
X3755777Y-13868674D02*
X3736730Y-13859150D01*
X3736730Y-13859150D02*
X3708158Y-13859150D01*
X3708158Y-13859150D02*
X3689110Y-13868674D01*
X3689110Y-13868674D02*
X3679587Y-13878198D01*
X3889110Y-13992484D02*
X3870063Y-13982960D01*
X3870063Y-13982960D02*
X3860539Y-13973436D01*
X3860539Y-13973436D02*
X3851015Y-13954388D01*
X3851015Y-13954388D02*
X3851015Y-13897246D01*
X3851015Y-13897246D02*
X3860539Y-13878198D01*
X3860539Y-13878198D02*
X3870063Y-13868674D01*
X3870063Y-13868674D02*
X3889110Y-13859150D01*
X3889110Y-13859150D02*
X3917682Y-13859150D01*
X3917682Y-13859150D02*
X3936730Y-13868674D01*
X3936730Y-13868674D02*
X3946253Y-13878198D01*
X3946253Y-13878198D02*
X3955777Y-13897246D01*
X3955777Y-13897246D02*
X3955777Y-13954388D01*
X3955777Y-13954388D02*
X3946253Y-13973436D01*
X3946253Y-13973436D02*
X3936730Y-13982960D01*
X3936730Y-13982960D02*
X3917682Y-13992484D01*
X3917682Y-13992484D02*
X3889110Y-13992484D01*
X4070063Y-13992484D02*
X4051015Y-13982960D01*
X4051015Y-13982960D02*
X4041491Y-13963912D01*
X4041491Y-13963912D02*
X4041491Y-13792484D01*
X4222444Y-13982960D02*
X4203396Y-13992484D01*
X4203396Y-13992484D02*
X4165301Y-13992484D01*
X4165301Y-13992484D02*
X4146253Y-13982960D01*
X4146253Y-13982960D02*
X4136730Y-13963912D01*
X4136730Y-13963912D02*
X4136730Y-13887722D01*
X4136730Y-13887722D02*
X4146253Y-13868674D01*
X4146253Y-13868674D02*
X4165301Y-13859150D01*
X4165301Y-13859150D02*
X4203396Y-13859150D01*
X4203396Y-13859150D02*
X4222444Y-13868674D01*
X4222444Y-13868674D02*
X4231968Y-13887722D01*
X4231968Y-13887722D02*
X4231968Y-13906769D01*
X4231968Y-13906769D02*
X4136730Y-13925817D01*
X4308158Y-13982960D02*
X4327206Y-13992484D01*
X4327206Y-13992484D02*
X4365301Y-13992484D01*
X4365301Y-13992484D02*
X4384349Y-13982960D01*
X4384349Y-13982960D02*
X4393873Y-13963912D01*
X4393873Y-13963912D02*
X4393873Y-13954388D01*
X4393873Y-13954388D02*
X4384349Y-13935341D01*
X4384349Y-13935341D02*
X4365301Y-13925817D01*
X4365301Y-13925817D02*
X4336730Y-13925817D01*
X4336730Y-13925817D02*
X4317682Y-13916293D01*
X4317682Y-13916293D02*
X4308158Y-13897246D01*
X4308158Y-13897246D02*
X4308158Y-13887722D01*
X4308158Y-13887722D02*
X4317682Y-13868674D01*
X4317682Y-13868674D02*
X4336730Y-13859150D01*
X4336730Y-13859150D02*
X4365301Y-13859150D01*
X4365301Y-13859150D02*
X4384349Y-13868674D01*
X4460539Y-14068674D02*
X4470063Y-14059150D01*
X4470063Y-14059150D02*
X4489111Y-14030579D01*
X4489111Y-14030579D02*
X4498634Y-14011531D01*
X4498634Y-14011531D02*
X4508158Y-13982960D01*
X4508158Y-13982960D02*
X4517682Y-13935341D01*
X4517682Y-13935341D02*
X4517682Y-13897246D01*
X4517682Y-13897246D02*
X4508158Y-13849627D01*
X4508158Y-13849627D02*
X4498634Y-13821055D01*
X4498634Y-13821055D02*
X4489111Y-13802008D01*
X4489111Y-13802008D02*
X4470063Y-13773436D01*
X4470063Y-13773436D02*
X4460539Y-13763912D01*
M02*
