%TF.GenerationSoftware,KiCad,Pcbnew,9.0.7*%
%TF.CreationDate,2026-03-01T02:19:44-05:00*%
%TF.ProjectId,Macropad,4d616372-6f70-4616-942e-6b696361645f,rev?*%
%TF.SameCoordinates,Original*%
%TF.FileFunction,Copper,L2,Bot*%
%TF.FilePolarity,Positive*%
%FSLAX46Y46*%
G04 Gerber Fmt 4.6, Leading zero omitted, Abs format (unit mm)*
G04 Created by KiCad (PCBNEW 9.0.7) date 2026-03-01 02:19:44*
%MOMM*%
%LPD*%
G01*
G04 APERTURE LIST*
G04 Aperture macros list*
%AMRoundRect*
0 Rectangle with rounded corners*
0 $1 Rounding radius*
0 $2 $3 $4 $5 $6 $7 $8 $9 X,Y pos of 4 corners*
0 Add a 4 corners polygon primitive as box body*
4,1,4,$2,$3,$4,$5,$6,$7,$8,$9,$2,$3,0*
0 Add four circle primitives for the rounded corners*
1,1,$1+$1,$2,$3*
1,1,$1+$1,$4,$5*
1,1,$1+$1,$6,$7*
1,1,$1+$1,$8,$9*
0 Add four rect primitives between the rounded corners*
20,1,$1+$1,$2,$3,$4,$5,0*
20,1,$1+$1,$4,$5,$6,$7,0*
20,1,$1+$1,$6,$7,$8,$9,0*
20,1,$1+$1,$8,$9,$2,$3,0*%
G04 Aperture macros list end*
%TA.AperFunction,SMDPad,CuDef*%
%ADD10R,2.550000X2.500000*%
%TD*%
%TA.AperFunction,ComponentPad*%
%ADD11O,8.000000X3.600000*%
%TD*%
%TA.AperFunction,ComponentPad*%
%ADD12R,1.600000X1.600000*%
%TD*%
%TA.AperFunction,ComponentPad*%
%ADD13O,1.600000X1.600000*%
%TD*%
%TA.AperFunction,ComponentPad*%
%ADD14R,1.700000X1.700000*%
%TD*%
%TA.AperFunction,ComponentPad*%
%ADD15C,1.700000*%
%TD*%
%TA.AperFunction,ComponentPad*%
%ADD16O,1.700000X1.700000*%
%TD*%
%TA.AperFunction,ComponentPad*%
%ADD17O,1.100000X1.700000*%
%TD*%
%TA.AperFunction,ComponentPad*%
%ADD18C,1.600000*%
%TD*%
%TA.AperFunction,ComponentPad*%
%ADD19R,1.800000X1.800000*%
%TD*%
%TA.AperFunction,ComponentPad*%
%ADD20C,1.800000*%
%TD*%
%TA.AperFunction,SMDPad,CuDef*%
%ADD21RoundRect,0.200000X0.275000X-0.200000X0.275000X0.200000X-0.275000X0.200000X-0.275000X-0.200000X0*%
%TD*%
%TA.AperFunction,SMDPad,CuDef*%
%ADD22RoundRect,0.200000X-0.350000X-0.300000X0.350000X-0.300000X0.350000X0.300000X-0.350000X0.300000X0*%
%TD*%
%TA.AperFunction,ViaPad*%
%ADD23C,0.800000*%
%TD*%
%TA.AperFunction,Conductor*%
%ADD24C,0.300000*%
%TD*%
%TA.AperFunction,Conductor*%
%ADD25C,0.250000*%
%TD*%
G04 APERTURE END LIST*
D10*
%TO.P,SW1,1*%
%TO.N,ROW0*%
X1965000Y-6985000D03*
%TO.P,SW1,2*%
%TO.N,K1*%
X15815000Y-4445000D03*
D11*
%TO.P,SW1,1*%
%TO.N,ROW0*%
X5715000Y-6985000D03*
%TO.P,SW1,2*%
%TO.N,K1*%
X12065000Y-4445000D03*
%TD*%
D12*
%TO.P,D1,1*%
%TO.N,K1*%
X17025000Y-16025000D03*
D13*
%TO.P,D1,2*%
%TO.N,COL0*%
X9405000Y-16025000D03*
%TD*%
D10*
%TO.P,SW2,1*%
%TO.N,ROW1*%
X1965000Y-30797000D03*
%TO.P,SW2,2*%
%TO.N,K2*%
X15815000Y-28257000D03*
D11*
%TO.P,SW2,1*%
%TO.N,ROW1*%
X5715000Y-30797000D03*
%TO.P,SW2,2*%
%TO.N,K2*%
X12065000Y-28257000D03*
%TD*%
D12*
%TO.P,D2,1*%
%TO.N,K2*%
X17025000Y-39837000D03*
D13*
%TO.P,D2,2*%
%TO.N,COL0*%
X9405000Y-39837000D03*
%TD*%
D10*
%TO.P,SW3,1*%
%TO.N,ROW1*%
X21015000Y-30797000D03*
%TO.P,SW3,2*%
%TO.N,K3*%
X34865000Y-28257000D03*
D11*
%TO.P,SW3,1*%
%TO.N,ROW1*%
X24765000Y-30797000D03*
%TO.P,SW3,2*%
%TO.N,K3*%
X31115000Y-28257000D03*
%TD*%
D12*
%TO.P,D3,1*%
%TO.N,K3*%
X36075000Y-39837000D03*
D13*
%TO.P,D3,2*%
%TO.N,COL1*%
X28455000Y-39837000D03*
%TD*%
D10*
%TO.P,SW4,1*%
%TO.N,ROW1*%
X40065000Y-30797000D03*
%TO.P,SW4,2*%
%TO.N,K4*%
X53915000Y-28257000D03*
D11*
%TO.P,SW4,1*%
%TO.N,ROW1*%
X43815000Y-30797000D03*
%TO.P,SW4,2*%
%TO.N,K4*%
X50165000Y-28257000D03*
%TD*%
D12*
%TO.P,D4,1*%
%TO.N,K4*%
X55125000Y-39837000D03*
D13*
%TO.P,D4,2*%
%TO.N,COL2*%
X47505000Y-39837000D03*
%TD*%
D10*
%TO.P,SW5,1*%
%TO.N,ROW1*%
X59115000Y-30797000D03*
%TO.P,SW5,2*%
%TO.N,K5*%
X72965000Y-28257000D03*
D11*
%TO.P,SW5,1*%
%TO.N,ROW1*%
X62865000Y-30797000D03*
%TO.P,SW5,2*%
%TO.N,K5*%
X69215000Y-28257000D03*
%TD*%
D12*
%TO.P,D5,1*%
%TO.N,K5*%
X74175000Y-39837000D03*
D13*
%TO.P,D5,2*%
%TO.N,COL3*%
X66555000Y-39837000D03*
%TD*%
D10*
%TO.P,SW6,1*%
%TO.N,ROW1*%
X78165000Y-30797000D03*
%TO.P,SW6,2*%
%TO.N,K6*%
X92015000Y-28257000D03*
D11*
%TO.P,SW6,1*%
%TO.N,ROW1*%
X81915000Y-30797000D03*
%TO.P,SW6,2*%
%TO.N,K6*%
X88265000Y-28257000D03*
%TD*%
D12*
%TO.P,D6,1*%
%TO.N,K6*%
X93225000Y-39837000D03*
D13*
%TO.P,D6,2*%
%TO.N,COL4*%
X85605000Y-39837000D03*
%TD*%
D10*
%TO.P,SW7,1*%
%TO.N,ROW2*%
X1965000Y-49848000D03*
%TO.P,SW7,2*%
%TO.N,K7*%
X15815000Y-47308000D03*
D11*
%TO.P,SW7,1*%
%TO.N,ROW2*%
X5715000Y-49848000D03*
%TO.P,SW7,2*%
%TO.N,K7*%
X12065000Y-47308000D03*
%TD*%
D12*
%TO.P,D7,1*%
%TO.N,K7*%
X17025000Y-58888000D03*
D13*
%TO.P,D7,2*%
%TO.N,COL0*%
X9405000Y-58888000D03*
%TD*%
D10*
%TO.P,SW8,1*%
%TO.N,ROW2*%
X21015000Y-49848000D03*
%TO.P,SW8,2*%
%TO.N,K8*%
X34865000Y-47308000D03*
D11*
%TO.P,SW8,1*%
%TO.N,ROW2*%
X24765000Y-49848000D03*
%TO.P,SW8,2*%
%TO.N,K8*%
X31115000Y-47308000D03*
%TD*%
D12*
%TO.P,D8,1*%
%TO.N,K8*%
X36075000Y-58888000D03*
D13*
%TO.P,D8,2*%
%TO.N,COL1*%
X28455000Y-58888000D03*
%TD*%
D10*
%TO.P,SW9,1*%
%TO.N,ROW2*%
X40065000Y-49848000D03*
%TO.P,SW9,2*%
%TO.N,K9*%
X53915000Y-47308000D03*
D11*
%TO.P,SW9,1*%
%TO.N,ROW2*%
X43815000Y-49848000D03*
%TO.P,SW9,2*%
%TO.N,K9*%
X50165000Y-47308000D03*
%TD*%
D12*
%TO.P,D9,1*%
%TO.N,K9*%
X55125000Y-58888000D03*
D13*
%TO.P,D9,2*%
%TO.N,COL2*%
X47505000Y-58888000D03*
%TD*%
D10*
%TO.P,SW10,1*%
%TO.N,ROW2*%
X59115000Y-49848000D03*
%TO.P,SW10,2*%
%TO.N,K10*%
X72965000Y-47308000D03*
D11*
%TO.P,SW10,1*%
%TO.N,ROW2*%
X62865000Y-49848000D03*
%TO.P,SW10,2*%
%TO.N,K10*%
X69215000Y-47308000D03*
%TD*%
D12*
%TO.P,D10,1*%
%TO.N,K10*%
X74175000Y-58888000D03*
D13*
%TO.P,D10,2*%
%TO.N,COL3*%
X66555000Y-58888000D03*
%TD*%
D10*
%TO.P,SW11,1*%
%TO.N,ROW2*%
X78165000Y-49848000D03*
%TO.P,SW11,2*%
%TO.N,K11*%
X92015000Y-47308000D03*
D11*
%TO.P,SW11,1*%
%TO.N,ROW2*%
X81915000Y-49848000D03*
%TO.P,SW11,2*%
%TO.N,K11*%
X88265000Y-47308000D03*
%TD*%
D12*
%TO.P,D11,1*%
%TO.N,K11*%
X93225000Y-58888000D03*
D13*
%TO.P,D11,2*%
%TO.N,COL4*%
X85605000Y-58888000D03*
%TD*%
D10*
%TO.P,SW12,1*%
%TO.N,ROW3*%
X1965000Y-68898000D03*
%TO.P,SW12,2*%
%TO.N,K12*%
X15815000Y-66358000D03*
D11*
%TO.P,SW12,1*%
%TO.N,ROW3*%
X5715000Y-68898000D03*
%TO.P,SW12,2*%
%TO.N,K12*%
X12065000Y-66358000D03*
%TD*%
D12*
%TO.P,D12,1*%
%TO.N,K12*%
X17025000Y-77938000D03*
D13*
%TO.P,D12,2*%
%TO.N,COL0*%
X9405000Y-77938000D03*
%TD*%
D10*
%TO.P,SW13,1*%
%TO.N,ROW3*%
X21015000Y-68898000D03*
%TO.P,SW13,2*%
%TO.N,K13*%
X34865000Y-66358000D03*
D11*
%TO.P,SW13,1*%
%TO.N,ROW3*%
X24765000Y-68898000D03*
%TO.P,SW13,2*%
%TO.N,K13*%
X31115000Y-66358000D03*
%TD*%
D12*
%TO.P,D13,1*%
%TO.N,K13*%
X36075000Y-77938000D03*
D13*
%TO.P,D13,2*%
%TO.N,COL1*%
X28455000Y-77938000D03*
%TD*%
D10*
%TO.P,SW14,1*%
%TO.N,ROW3*%
X40065000Y-68898000D03*
%TO.P,SW14,2*%
%TO.N,K14*%
X53915000Y-66358000D03*
D11*
%TO.P,SW14,1*%
%TO.N,ROW3*%
X43815000Y-68898000D03*
%TO.P,SW14,2*%
%TO.N,K14*%
X50165000Y-66358000D03*
%TD*%
D12*
%TO.P,D14,1*%
%TO.N,K14*%
X55125000Y-77938000D03*
D13*
%TO.P,D14,2*%
%TO.N,COL2*%
X47505000Y-77938000D03*
%TD*%
D10*
%TO.P,SW15,1*%
%TO.N,ROW3*%
X59115000Y-68898000D03*
%TO.P,SW15,2*%
%TO.N,K15*%
X72965000Y-66358000D03*
D11*
%TO.P,SW15,1*%
%TO.N,ROW3*%
X62865000Y-68898000D03*
%TO.P,SW15,2*%
%TO.N,K15*%
X69215000Y-66358000D03*
%TD*%
D12*
%TO.P,D15,1*%
%TO.N,K15*%
X74175000Y-77938000D03*
D13*
%TO.P,D15,2*%
%TO.N,COL3*%
X66555000Y-77938000D03*
%TD*%
D10*
%TO.P,SW16,1*%
%TO.N,ROW3*%
X78165000Y-68898000D03*
%TO.P,SW16,2*%
%TO.N,K16*%
X92015000Y-66358000D03*
D11*
%TO.P,SW16,1*%
%TO.N,ROW3*%
X81915000Y-68898000D03*
%TO.P,SW16,2*%
%TO.N,K16*%
X88265000Y-66358000D03*
%TD*%
D12*
%TO.P,D16,1*%
%TO.N,K16*%
X93225000Y-77938000D03*
D13*
%TO.P,D16,2*%
%TO.N,COL4*%
X85605000Y-77938000D03*
%TD*%
D10*
%TO.P,SW17,1*%
%TO.N,ROW4*%
X1965000Y-87947000D03*
%TO.P,SW17,2*%
%TO.N,K17*%
X15815000Y-85407000D03*
D11*
%TO.P,SW17,1*%
%TO.N,ROW4*%
X5715000Y-87947000D03*
%TO.P,SW17,2*%
%TO.N,K17*%
X12065000Y-85407000D03*
%TD*%
D12*
%TO.P,D17,1*%
%TO.N,K17*%
X17025000Y-96987000D03*
D13*
%TO.P,D17,2*%
%TO.N,COL0*%
X9405000Y-96987000D03*
%TD*%
D10*
%TO.P,SW18,1*%
%TO.N,ROW4*%
X21015000Y-87947000D03*
%TO.P,SW18,2*%
%TO.N,K18*%
X34865000Y-85407000D03*
D11*
%TO.P,SW18,1*%
%TO.N,ROW4*%
X24765000Y-87947000D03*
%TO.P,SW18,2*%
%TO.N,K18*%
X31115000Y-85407000D03*
%TD*%
D12*
%TO.P,D18,1*%
%TO.N,K18*%
X36075000Y-96987000D03*
D13*
%TO.P,D18,2*%
%TO.N,COL1*%
X28455000Y-96987000D03*
%TD*%
D10*
%TO.P,SW19,1*%
%TO.N,ROW4*%
X40065000Y-87947000D03*
%TO.P,SW19,2*%
%TO.N,K19*%
X53915000Y-85407000D03*
D11*
%TO.P,SW19,1*%
%TO.N,ROW4*%
X43815000Y-87947000D03*
%TO.P,SW19,2*%
%TO.N,K19*%
X50165000Y-85407000D03*
%TD*%
D12*
%TO.P,D19,1*%
%TO.N,K19*%
X55125000Y-96987000D03*
D13*
%TO.P,D19,2*%
%TO.N,COL2*%
X47505000Y-96987000D03*
%TD*%
D10*
%TO.P,SW20,1*%
%TO.N,ROW4*%
X59115000Y-87947000D03*
%TO.P,SW20,2*%
%TO.N,K20*%
X72965000Y-85407000D03*
D11*
%TO.P,SW20,1*%
%TO.N,ROW4*%
X62865000Y-87947000D03*
%TO.P,SW20,2*%
%TO.N,K20*%
X69215000Y-85407000D03*
%TD*%
D12*
%TO.P,D20,1*%
%TO.N,K20*%
X74175000Y-96987000D03*
D13*
%TO.P,D20,2*%
%TO.N,COL3*%
X66555000Y-96987000D03*
%TD*%
D10*
%TO.P,SW21,1*%
%TO.N,ROW4*%
X78165000Y-87947000D03*
%TO.P,SW21,2*%
%TO.N,K21*%
X92015000Y-85407000D03*
D11*
%TO.P,SW21,1*%
%TO.N,ROW4*%
X81915000Y-87947000D03*
%TO.P,SW21,2*%
%TO.N,K21*%
X88265000Y-85407000D03*
%TD*%
D12*
%TO.P,D21,1*%
%TO.N,K21*%
X93225000Y-96987000D03*
D13*
%TO.P,D21,2*%
%TO.N,COL4*%
X85605000Y-96987000D03*
%TD*%
D10*
%TO.P,SW22,1*%
%TO.N,ROW5*%
X1965000Y-106998000D03*
%TO.P,SW22,2*%
%TO.N,K22*%
X15815000Y-104458000D03*
D11*
%TO.P,SW22,1*%
%TO.N,ROW5*%
X5715000Y-106998000D03*
%TO.P,SW22,2*%
%TO.N,K22*%
X12065000Y-104458000D03*
%TD*%
D12*
%TO.P,D22,1*%
%TO.N,K22*%
X17025000Y-116038000D03*
D13*
%TO.P,D22,2*%
%TO.N,COL0*%
X9405000Y-116038000D03*
%TD*%
D10*
%TO.P,SW23,1*%
%TO.N,ROW5*%
X21015000Y-106998000D03*
%TO.P,SW23,2*%
%TO.N,K23*%
X34865000Y-104458000D03*
D11*
%TO.P,SW23,1*%
%TO.N,ROW5*%
X24765000Y-106998000D03*
%TO.P,SW23,2*%
%TO.N,K23*%
X31115000Y-104458000D03*
%TD*%
D12*
%TO.P,D23,1*%
%TO.N,K23*%
X36075000Y-116038000D03*
D13*
%TO.P,D23,2*%
%TO.N,COL1*%
X28455000Y-116038000D03*
%TD*%
D10*
%TO.P,SW24,1*%
%TO.N,ROW5*%
X40065000Y-106998000D03*
%TO.P,SW24,2*%
%TO.N,K24*%
X53915000Y-104458000D03*
D11*
%TO.P,SW24,1*%
%TO.N,ROW5*%
X43815000Y-106998000D03*
%TO.P,SW24,2*%
%TO.N,K24*%
X50165000Y-104458000D03*
%TD*%
D12*
%TO.P,D24,1*%
%TO.N,K24*%
X55125000Y-116038000D03*
D13*
%TO.P,D24,2*%
%TO.N,COL2*%
X47505000Y-116038000D03*
%TD*%
D10*
%TO.P,SW25,1*%
%TO.N,ROW5*%
X59115000Y-106998000D03*
%TO.P,SW25,2*%
%TO.N,K25*%
X72965000Y-104458000D03*
D11*
%TO.P,SW25,1*%
%TO.N,ROW5*%
X62865000Y-106998000D03*
%TO.P,SW25,2*%
%TO.N,K25*%
X69215000Y-104458000D03*
%TD*%
D12*
%TO.P,D25,1*%
%TO.N,K25*%
X74175000Y-116038000D03*
D13*
%TO.P,D25,2*%
%TO.N,COL3*%
X66555000Y-116038000D03*
%TD*%
D10*
%TO.P,SW26,1*%
%TO.N,ROW5*%
X78165000Y-106998000D03*
%TO.P,SW26,2*%
%TO.N,K26*%
X92015000Y-104458000D03*
D11*
%TO.P,SW26,1*%
%TO.N,ROW5*%
X81915000Y-106998000D03*
%TO.P,SW26,2*%
%TO.N,K26*%
X88265000Y-104458000D03*
%TD*%
D12*
%TO.P,D26,1*%
%TO.N,K26*%
X93225000Y-116038000D03*
D13*
%TO.P,D26,2*%
%TO.N,COL4*%
X85605000Y-116038000D03*
%TD*%
D14*
%TO.P,J201,1*%
%TO.N,3V3*%
X98250000Y25460000D03*
D15*
%TO.P,J201,2*%
%TO.N,GND*%
X98250000Y28000000D03*
%TO.P,J201,3*%
%TO.N,IR_RX*%
X98250000Y30540000D03*
%TD*%
D14*
%TO.P,J202,1*%
%TO.N,5V*%
X92250000Y25460000D03*
D15*
%TO.P,J202,2*%
%TO.N,GND*%
X92250000Y28000000D03*
%TO.P,J202,3*%
%TO.N,IR_TX*%
X92250000Y30540000D03*
%TD*%
D14*
%TO.P,J301,1*%
%TO.N,5V*%
X92250000Y460000D03*
D15*
%TO.P,J301,2*%
%TO.N,LED_DIN*%
X92250000Y3000000D03*
%TO.P,J301,3*%
%TO.N,GND*%
X92250000Y5540000D03*
%TD*%
D14*
%TO.P,J302,1*%
%TO.N,3V3*%
X95000000Y14190000D03*
D15*
%TO.P,J302,2*%
%TO.N,GND*%
X95000000Y16730000D03*
%TO.P,J302,3*%
%TO.N,LCD_SDA*%
X95000000Y19270000D03*
%TO.P,J302,4*%
%TO.N,LCD_SCL*%
X95000000Y21810000D03*
%TD*%
D14*
%TO.P,J400,1*%
%TO.N,BAT+*%
X22250000Y-8000000D03*
D16*
%TO.P,J400,2*%
%TO.N,GND*%
X22250000Y-10540000D03*
%TD*%
D14*
%TO.P,J401,1*%
%TO.N,BAT+*%
X22250000Y-21810000D03*
D15*
%TO.P,J401,2*%
%TO.N,GND*%
X22250000Y-19270000D03*
%TO.P,J401,3*%
%TO.N,5V*%
X22250000Y-16730000D03*
%TO.P,J401,4*%
%TO.N,3V3*%
X22250000Y-14190000D03*
%TD*%
D17*
%TO.P,J402,S1*%
%TO.N,GND*%
X46805000Y39000000D03*
X46805000Y35200000D03*
X55445000Y39000000D03*
X55445000Y35200000D03*
%TD*%
D12*
%TO.P,C401,1*%
%TO.N,5V*%
X99250000Y-5000000D03*
D18*
%TO.P,C401,2*%
%TO.N,GND*%
X102750000Y-5000000D03*
%TD*%
D19*
%TO.P,SW401,A*%
%TO.N,ENC_A*%
X5500000Y2500000D03*
D20*
%TO.P,SW401,B*%
%TO.N,ENC_B*%
X10500000Y2500000D03*
%TO.P,SW401,C*%
%TO.N,GND*%
X8000000Y2500000D03*
%TO.P,SW401,S1*%
%TO.N,ENC_SW*%
X5500000Y17500000D03*
%TO.P,SW401,S2*%
%TO.N,GND*%
X10500000Y17500000D03*
%TD*%
D21*
%TO.P,R407,1*%
%TO.N,EN*%
X67500000Y26175000D03*
%TO.P,R407,2*%
%TO.N,3V3*%
X67500000Y27825000D03*
%TD*%
D22*
%TO.P,SW402,1*%
%TO.N,EN*%
X70300000Y30650000D03*
X73700000Y30650000D03*
%TO.P,SW402,2*%
%TO.N,GND*%
X70300000Y32350000D03*
X73700000Y32350000D03*
%TD*%
D23*
%TO.N,COL0*%
X72075000Y12000000D03*
%TO.N,COL1*%
X73345000Y12000000D03*
%TO.N,COL2*%
X74615000Y12000000D03*
%TO.N,COL3*%
X75885000Y12000000D03*
%TO.N,COL4*%
X77155000Y12000000D03*
%TO.N,3V3*%
X70250000Y11570000D03*
%TO.N,USB_CC1*%
X50625000Y37580000D03*
X18000000Y-31920000D03*
%TO.N,USB_CC2*%
X51625000Y36580000D03*
X12500000Y-31920000D03*
%TO.N,ENC_A*%
X80250000Y24270000D03*
%TO.N,ENC_B*%
X80250000Y26810000D03*
%TO.N,ENC_SW*%
X80250000Y29350000D03*
%TO.N,3V3*%
X66500000Y26990000D03*
%TO.N,GND*%
X66500000Y28260000D03*
%TO.N,EN*%
X66500000Y25720000D03*
%TD*%
D24*
%TO.N,K1*%
X12065000Y-4445000D02*
X17025000Y-4445000D01*
X17025000Y-4445000D02*
X17025000Y-16025000D01*
%TO.N,K2*%
X12065000Y-28258000D02*
X17025000Y-28258000D01*
X17025000Y-28258000D02*
X17025000Y-39837000D01*
%TO.N,K3*%
X31115000Y-28258000D02*
X36075000Y-28258000D01*
X36075000Y-28258000D02*
X36075000Y-39837000D01*
%TO.N,K4*%
X50165000Y-28258000D02*
X55125000Y-28258000D01*
X55125000Y-28258000D02*
X55125000Y-39837000D01*
%TO.N,K5*%
X69215000Y-28258000D02*
X74175000Y-28258000D01*
X74175000Y-28258000D02*
X74175000Y-39837000D01*
%TO.N,K6*%
X88265000Y-28258000D02*
X93225000Y-28258000D01*
X93225000Y-28258000D02*
X93225000Y-39837000D01*
%TO.N,K7*%
X12065000Y-47308000D02*
X17025000Y-47308000D01*
X17025000Y-47308000D02*
X17025000Y-58888000D01*
%TO.N,K8*%
X31115000Y-47308000D02*
X36075000Y-47308000D01*
X36075000Y-47308000D02*
X36075000Y-58888000D01*
%TO.N,K9*%
X50165000Y-47308000D02*
X55125000Y-47308000D01*
X55125000Y-47308000D02*
X55125000Y-58888000D01*
%TO.N,K10*%
X69215000Y-47308000D02*
X74175000Y-47308000D01*
X74175000Y-47308000D02*
X74175000Y-58888000D01*
%TO.N,K11*%
X88265000Y-47308000D02*
X93225000Y-47308000D01*
X93225000Y-47308000D02*
X93225000Y-58888000D01*
%TO.N,K12*%
X12065000Y-66358000D02*
X17025000Y-66358000D01*
X17025000Y-66358000D02*
X17025000Y-77938000D01*
%TO.N,K13*%
X31115000Y-66358000D02*
X36075000Y-66358000D01*
X36075000Y-66358000D02*
X36075000Y-77938000D01*
%TO.N,K14*%
X50165000Y-66358000D02*
X55125000Y-66358000D01*
X55125000Y-66358000D02*
X55125000Y-77938000D01*
%TO.N,K15*%
X69215000Y-66358000D02*
X74175000Y-66358000D01*
X74175000Y-66358000D02*
X74175000Y-77938000D01*
%TO.N,K16*%
X88265000Y-66358000D02*
X93225000Y-66358000D01*
X93225000Y-66358000D02*
X93225000Y-77938000D01*
%TO.N,K17*%
X12065000Y-85407000D02*
X17025000Y-85407000D01*
X17025000Y-85407000D02*
X17025000Y-96987000D01*
%TO.N,K18*%
X31115000Y-85407000D02*
X36075000Y-85407000D01*
X36075000Y-85407000D02*
X36075000Y-96987000D01*
%TO.N,K19*%
X50165000Y-85407000D02*
X55125000Y-85407000D01*
X55125000Y-85407000D02*
X55125000Y-96987000D01*
%TO.N,K20*%
X69215000Y-85407000D02*
X74175000Y-85407000D01*
X74175000Y-85407000D02*
X74175000Y-96987000D01*
%TO.N,K21*%
X88265000Y-85407000D02*
X93225000Y-85407000D01*
X93225000Y-85407000D02*
X93225000Y-96987000D01*
%TO.N,K22*%
X12065000Y-104458000D02*
X17025000Y-104458000D01*
X17025000Y-104458000D02*
X17025000Y-116038000D01*
%TO.N,K23*%
X31115000Y-104458000D02*
X36075000Y-104458000D01*
X36075000Y-104458000D02*
X36075000Y-116038000D01*
%TO.N,K24*%
X50165000Y-104458000D02*
X55125000Y-104458000D01*
X55125000Y-104458000D02*
X55125000Y-116038000D01*
%TO.N,K25*%
X69215000Y-104458000D02*
X74175000Y-104458000D01*
X74175000Y-104458000D02*
X74175000Y-116038000D01*
%TO.N,K26*%
X88265000Y-104458000D02*
X93225000Y-104458000D01*
X93225000Y-104458000D02*
X93225000Y-116038000D01*
%TO.N,COL0*%
X9405000Y-16025000D02*
X9405000Y-39837000D01*
X9405000Y-39837000D02*
X9405000Y-58888000D01*
X9405000Y-58888000D02*
X9405000Y-77938000D01*
X9405000Y-77938000D02*
X9405000Y-96987000D01*
X9405000Y-96987000D02*
X9405000Y-116038000D01*
X9405000Y-16025000D02*
X9405000Y35000000D01*
X9405000Y35000000D02*
X67850000Y35000000D01*
X67850000Y35000000D02*
X67850000Y29350000D01*
%TO.N,COL1*%
X28455000Y-39837000D02*
X28455000Y-58888000D01*
X28455000Y-58888000D02*
X28455000Y-77938000D01*
X28455000Y-77938000D02*
X28455000Y-96987000D01*
X28455000Y-96987000D02*
X28455000Y-116038000D01*
X28455000Y-39837000D02*
X28455000Y33000000D01*
X28455000Y33000000D02*
X69450000Y33000000D01*
X69450000Y33000000D02*
X69450000Y31890000D01*
%TO.N,COL2*%
X47505000Y-39837000D02*
X47505000Y-58888000D01*
X47505000Y-58888000D02*
X47505000Y-77938000D01*
X47505000Y-77938000D02*
X47505000Y-96987000D01*
X47505000Y-96987000D02*
X47505000Y-116038000D01*
X47505000Y-39837000D02*
X47505000Y31000000D01*
X47505000Y31000000D02*
X71050000Y31000000D01*
X71050000Y31000000D02*
X71050000Y34430000D01*
%TO.N,COL3*%
X66555000Y-39837000D02*
X66555000Y-58888000D01*
X66555000Y-58888000D02*
X66555000Y-77938000D01*
X66555000Y-77938000D02*
X66555000Y-96987000D01*
X66555000Y-96987000D02*
X66555000Y-116038000D01*
X66555000Y-39837000D02*
X66555000Y29000000D01*
X66555000Y29000000D02*
X72650000Y29000000D01*
X72650000Y29000000D02*
X72650000Y36970000D01*
%TO.N,COL4*%
X85605000Y-39837000D02*
X85605000Y-58888000D01*
X85605000Y-58888000D02*
X85605000Y-77938000D01*
X85605000Y-77938000D02*
X85605000Y-96987000D01*
X85605000Y-96987000D02*
X85605000Y-116038000D01*
X85605000Y-39837000D02*
X85605000Y27000000D01*
X85605000Y27000000D02*
X86250000Y27000000D01*
X86250000Y27000000D02*
X86250000Y14110000D01*
D25*
%TO.N,COL0*%
X72075000Y12000000D02*
X67850000Y29350000D01*
%TO.N,COL1*%
X73345000Y12000000D02*
X69450000Y31890000D01*
%TO.N,COL2*%
X74615000Y12000000D02*
X71050000Y34430000D01*
%TO.N,COL3*%
X75885000Y12000000D02*
X72650000Y36970000D01*
%TO.N,COL4*%
X77155000Y12000000D02*
X86250000Y14110000D01*
%TO.N,EN*%
X66500000Y25720000D02*
X67500000Y27825000D01*
X67500000Y27825000D02*
X70300000Y30650000D01*
%TO.N,3V3*%
X66500000Y26990000D02*
X67500000Y26175000D01*
D24*
%TO.N,GND*%
X70300000Y32350000D02*
X66500000Y28260000D01*
D25*
%TO.N,3V3*%
X22250000Y-14190000D02*
X70250000Y11570000D01*
X70250000Y11570000D02*
X98250000Y25460000D01*
%TO.N,USB_CC1*%
X50625000Y37580000D02*
X4000000Y37580000D01*
X4000000Y37580000D02*
X4000000Y-31920000D01*
X4000000Y-31920000D02*
X18000000Y-31920000D01*
%TO.N,USB_CC2*%
X51625000Y36580000D02*
X6000000Y36580000D01*
X6000000Y36580000D02*
X6000000Y-31920000D01*
X6000000Y-31920000D02*
X12500000Y-31920000D01*
%TO.N,ENC_A*%
X80250000Y24270000D02*
X5500000Y2500000D01*
%TO.N,ENC_B*%
X80250000Y26810000D02*
X10500000Y2500000D01*
%TO.N,ENC_SW*%
X80250000Y29350000D02*
X5500000Y17500000D01*
%TO.N,3V3*%
X67500000Y27825000D02*
X66500000Y26990000D01*
D24*
%TO.N,GND*%
X70300000Y32350000D02*
X73700000Y32350000D01*
D25*
%TO.N,EN*%
X66500000Y25720000D02*
X67500000Y26175000D01*
X67500000Y27825000D02*
X73700000Y30650000D01*
%TD*%
M02*
