%TF.GenerationSoftware,KiCad,Pcbnew,9.0.7*%
%TF.CreationDate,2026-02-28T22:53:30-05:00*%
%TF.ProjectId,Macropad,4d616372-6f70-4616-942e-6b696361645f,rev?*%
%TF.SameCoordinates,Original*%
%TF.FileFunction,Paste,Top*%
%TF.FilePolarity,Positive*%
%FSLAX46Y46*%
G04 Gerber Fmt 4.6, Leading zero omitted, Abs format (unit mm)*
G04 Created by KiCad (PCBNEW 9.0.7) date 2026-02-28 22:53:30*
%MOMM*%
%LPD*%
G01*
G04 APERTURE LIST*
G04 Aperture macros list*
%AMRoundRect*
0 Rectangle with rounded corners*
0 $1 Rounding radius*
0 $2 $3 $4 $5 $6 $7 $8 $9 X,Y pos of 4 corners*
0 Add a 4 corners polygon primitive as box body*
4,1,4,$2,$3,$4,$5,$6,$7,$8,$9,$2,$3,0*
0 Add four circle primitives for the rounded corners*
1,1,$1+$1,$2,$3*
1,1,$1+$1,$4,$5*
1,1,$1+$1,$6,$7*
1,1,$1+$1,$8,$9*
0 Add four rect primitives between the rounded corners*
20,1,$1+$1,$2,$3,$4,$5,0*
20,1,$1+$1,$4,$5,$6,$7,0*
20,1,$1+$1,$6,$7,$8,$9,0*
20,1,$1+$1,$8,$9,$2,$3,0*%
G04 Aperture macros list end*
%ADD10R,1.500000X0.900000*%
%ADD11RoundRect,0.375000X-0.625000X-0.375000X0.625000X-0.375000X0.625000X0.375000X-0.625000X0.375000X0*%
%ADD12RoundRect,0.500000X-0.500000X-1.400000X0.500000X-1.400000X0.500000X1.400000X-0.500000X1.400000X0*%
%ADD13RoundRect,0.175000X-0.175000X-0.425000X0.175000X-0.425000X0.175000X0.425000X-0.175000X0.425000X0*%
%ADD14RoundRect,0.190000X0.190000X0.410000X-0.190000X0.410000X-0.190000X-0.410000X0.190000X-0.410000X0*%
%ADD15RoundRect,0.200000X0.200000X0.400000X-0.200000X0.400000X-0.200000X-0.400000X0.200000X-0.400000X0*%
%ADD16RoundRect,0.175000X0.175000X0.425000X-0.175000X0.425000X-0.175000X-0.425000X0.175000X-0.425000X0*%
%ADD17RoundRect,0.190000X-0.190000X-0.410000X0.190000X-0.410000X0.190000X0.410000X-0.190000X0.410000X0*%
%ADD18RoundRect,0.200000X-0.200000X-0.400000X0.200000X-0.400000X0.200000X0.400000X-0.200000X0.400000X0*%
%ADD19O,1.100000X1.700000*%
%ADD20RoundRect,0.150000X-0.512500X-0.150000X0.512500X-0.150000X0.512500X0.150000X-0.512500X0.150000X0*%
%ADD21RoundRect,0.200000X0.275000X-0.200000X0.275000X0.200000X-0.275000X0.200000X-0.275000X-0.200000X0*%
%ADD22RoundRect,0.200000X-0.200000X-0.275000X0.200000X-0.275000X0.200000X0.275000X-0.200000X0.275000X0*%
%ADD23RoundRect,0.250000X-1.000000X-1.250000X1.000000X-1.250000X1.000000X1.250000X-1.000000X1.250000X0*%
%ADD24RoundRect,0.240000X-0.360000X-0.460000X0.360000X-0.460000X0.360000X0.460000X-0.360000X0.460000X0*%
%ADD25RoundRect,0.243750X-0.243750X-0.456250X0.243750X-0.456250X0.243750X0.456250X-0.243750X0.456250X0*%
G04 APERTURE END LIST*
D10*
%TO.C,U901*%
X66500000Y28260000D03*
X66500000Y26990000D03*
X66500000Y25720000D03*
X66500000Y24450000D03*
X66500000Y23180000D03*
X66500000Y21910000D03*
X66500000Y20640000D03*
X66500000Y19370000D03*
X66500000Y18100000D03*
X66500000Y16830000D03*
X66500000Y15560000D03*
X66500000Y14290000D03*
X66500000Y13020000D03*
X66500000Y11750000D03*
X68265000Y10500000D03*
X69535000Y10500000D03*
X70805000Y10500000D03*
X72075000Y10500000D03*
X73345000Y10500000D03*
X74615000Y10500000D03*
X75885000Y10500000D03*
X77155000Y10500000D03*
X78425000Y10500000D03*
X79695000Y10500000D03*
X80965000Y10500000D03*
X82235000Y10500000D03*
X84000000Y11750000D03*
X84000000Y13020000D03*
X84000000Y14290000D03*
X84000000Y15560000D03*
X84000000Y16830000D03*
X84000000Y18100000D03*
X84000000Y19370000D03*
X84000000Y20640000D03*
X84000000Y21910000D03*
X84000000Y23180000D03*
X84000000Y24450000D03*
X84000000Y25720000D03*
X84000000Y26990000D03*
X84000000Y28260000D03*
%TD*%
D11*
%TO.C,U402*%
X27850000Y-11700000D03*
X27850000Y-14000000D03*
D12*
X34150000Y-14000000D03*
D11*
X27850000Y-16300000D03*
%TD*%
D13*
%TO.C,J402*%
X50625000Y39080000D03*
D14*
X52645000Y39080000D03*
D15*
X53875000Y39080000D03*
D16*
X51625000Y39080000D03*
D17*
X49605000Y39080000D03*
D18*
X48375000Y39080000D03*
D19*
X46805000Y39000000D03*
X46805000Y35200000D03*
X55445000Y39000000D03*
X55445000Y35200000D03*
%TD*%
D20*
%TO.C,U403*%
X34862500Y-27050000D03*
X34862500Y-28000000D03*
X34862500Y-28950000D03*
X37137500Y-28950000D03*
X37137500Y-27050000D03*
%TD*%
D21*
%TO.C,R402*%
X11500000Y-28825000D03*
X11500000Y-27175000D03*
%TD*%
%TO.C,R403*%
X12500000Y-28825000D03*
X12500000Y-27175000D03*
%TD*%
D22*
%TO.C,R404*%
X39175000Y-27050000D03*
X40825000Y-27050000D03*
%TD*%
%TO.C,C402*%
X32675000Y-25000000D03*
X34325000Y-25000000D03*
%TD*%
%TO.C,C403*%
X29675000Y-25000000D03*
X31325000Y-25000000D03*
%TD*%
D20*
%TO.C,U404*%
X37862500Y-13050000D03*
X37862500Y-14000000D03*
X37862500Y-14950000D03*
X40137500Y-14950000D03*
X40137500Y-14000000D03*
X40137500Y-13050000D03*
%TD*%
D23*
%TO.C,L401*%
X42000000Y-14000000D03*
X46000000Y-14000000D03*
%TD*%
D24*
%TO.C,D401*%
X44850000Y-10000000D03*
X48150000Y-10000000D03*
%TD*%
D22*
%TO.C,R405*%
X41175000Y-18000000D03*
X42825000Y-18000000D03*
%TD*%
%TO.C,R406*%
X41175000Y-20000000D03*
X42825000Y-20000000D03*
%TD*%
%TO.C,C404*%
X37175000Y-18000000D03*
X38825000Y-18000000D03*
%TD*%
%TO.C,C405*%
X48175000Y-14000000D03*
X49825000Y-14000000D03*
%TD*%
D25*
%TO.C,R401*%
X78122500Y3000000D03*
X79997500Y3000000D03*
%TD*%
M02*
