M48
; DRILL file {KiCad 9.0.7} date 2026-03-01T02:19:50-0500
; FORMAT={-:-/ absolute / metric / decimal}
; #@! TF.CreationDate,2026-03-01T02:19:50-05:00
; #@! TF.GenerationSoftware,Kicad,Pcbnew,9.0.7
; #@! TF.FileFunction,NonPlated,1,2,NPTH
FMAT,2
METRIC
; #@! TA.AperFunction,NonPlated,NPTH,ComponentDrill
T1C1.750
; #@! TA.AperFunction,NonPlated,NPTH,ComponentDrill
T2C3.200
; #@! TA.AperFunction,NonPlated,NPTH,ComponentDrill
T3C4.000
%
G90
G05
T1
X4.445Y-9.525
X4.445Y-33.337
X4.445Y-52.388
X4.445Y-71.438
X4.445Y-90.487
X4.445Y-109.538
X14.605Y-9.525
X14.605Y-33.337
X14.605Y-52.388
X14.605Y-71.438
X14.605Y-90.487
X14.605Y-109.538
X23.495Y-33.337
X23.495Y-52.388
X23.495Y-71.438
X23.495Y-90.487
X23.495Y-109.538
X33.655Y-33.337
X33.655Y-52.388
X33.655Y-71.438
X33.655Y-90.487
X33.655Y-109.538
X42.545Y-33.337
X42.545Y-52.388
X42.545Y-71.438
X42.545Y-90.487
X42.545Y-109.538
X52.705Y-33.337
X52.705Y-52.388
X52.705Y-71.438
X52.705Y-90.487
X52.705Y-109.538
X61.595Y-33.337
X61.595Y-52.388
X61.595Y-71.438
X61.595Y-90.487
X61.595Y-109.538
X71.755Y-33.337
X71.755Y-52.388
X71.755Y-71.438
X71.755Y-90.487
X71.755Y-109.538
X80.645Y-33.337
X80.645Y-52.388
X80.645Y-71.438
X80.645Y-90.487
X80.645Y-109.538
X90.805Y-33.337
X90.805Y-52.388
X90.805Y-71.438
X90.805Y-90.487
X90.805Y-109.538
T2
X0.0Y36.0
X0.0Y-119.0
X102.25Y36.0
X102.25Y-119.0
T3
X9.525Y-9.525
X9.525Y-33.337
X9.525Y-52.388
X9.525Y-71.438
X9.525Y-90.487
X9.525Y-109.538
X28.575Y-33.337
X28.575Y-52.388
X28.575Y-71.438
X28.575Y-90.487
X28.575Y-109.538
X47.625Y-33.337
X47.625Y-52.388
X47.625Y-71.438
X47.625Y-90.487
X47.625Y-109.538
X66.675Y-33.337
X66.675Y-52.388
X66.675Y-71.438
X66.675Y-90.487
X66.675Y-109.538
X85.725Y-33.337
X85.725Y-52.388
X85.725Y-71.438
X85.725Y-90.487
X85.725Y-109.538
M30
