%TF.GenerationSoftware,KiCad,Pcbnew,9.0.7*%
%TF.CreationDate,2026-02-28T22:53:31-05:00*%
%TF.ProjectId,Macropad,4d616372-6f70-4616-942e-6b696361645f,rev?*%
%TF.SameCoordinates,Original*%
%TF.FileFunction,Other,User*%
%FSLAX46Y46*%
G04 Gerber Fmt 4.6, Leading zero omitted, Abs format (unit mm)*
G04 Created by KiCad (PCBNEW 9.0.7) date 2026-02-28 22:53:31*
%MOMM*%
%LPD*%
G01*
G04 APERTURE LIST*
%ADD10C,0.050000*%
G04 APERTURE END LIST*
%TO.C,SW1*%
D10*
X0Y0D02*
X19050000Y0D01*
X19050000Y-19050000D01*
X0Y-19050000D01*
X0Y0D01*
%TO.C,SW2*%
X0Y-23812000D02*
X19050000Y-23812000D01*
X19050000Y-42862000D01*
X0Y-42862000D01*
X0Y-23812000D01*
%TO.C,SW3*%
X19050000Y-23812000D02*
X38100000Y-23812000D01*
X38100000Y-42862000D01*
X19050000Y-42862000D01*
X19050000Y-23812000D01*
%TO.C,SW4*%
X38100000Y-23812000D02*
X57150000Y-23812000D01*
X57150000Y-42862000D01*
X38100000Y-42862000D01*
X38100000Y-23812000D01*
%TO.C,SW5*%
X57150000Y-23812000D02*
X76200000Y-23812000D01*
X76200000Y-42862000D01*
X57150000Y-42862000D01*
X57150000Y-23812000D01*
%TO.C,SW6*%
X76200000Y-23812000D02*
X95250000Y-23812000D01*
X95250000Y-42862000D01*
X76200000Y-42862000D01*
X76200000Y-23812000D01*
%TO.C,SW7*%
X0Y-42863000D02*
X19050000Y-42863000D01*
X19050000Y-61913000D01*
X0Y-61913000D01*
X0Y-42863000D01*
%TO.C,SW8*%
X19050000Y-42863000D02*
X38100000Y-42863000D01*
X38100000Y-61913000D01*
X19050000Y-61913000D01*
X19050000Y-42863000D01*
%TO.C,SW9*%
X38100000Y-42863000D02*
X57150000Y-42863000D01*
X57150000Y-61913000D01*
X38100000Y-61913000D01*
X38100000Y-42863000D01*
%TO.C,SW10*%
X57150000Y-42863000D02*
X76200000Y-42863000D01*
X76200000Y-61913000D01*
X57150000Y-61913000D01*
X57150000Y-42863000D01*
%TO.C,SW11*%
X76200000Y-42863000D02*
X95250000Y-42863000D01*
X95250000Y-61913000D01*
X76200000Y-61913000D01*
X76200000Y-42863000D01*
%TO.C,SW12*%
X0Y-61913000D02*
X19050000Y-61913000D01*
X19050000Y-80963000D01*
X0Y-80963000D01*
X0Y-61913000D01*
%TO.C,SW13*%
X19050000Y-61913000D02*
X38100000Y-61913000D01*
X38100000Y-80963000D01*
X19050000Y-80963000D01*
X19050000Y-61913000D01*
%TO.C,SW14*%
X38100000Y-61913000D02*
X57150000Y-61913000D01*
X57150000Y-80963000D01*
X38100000Y-80963000D01*
X38100000Y-61913000D01*
%TO.C,SW15*%
X57150000Y-61913000D02*
X76200000Y-61913000D01*
X76200000Y-80963000D01*
X57150000Y-80963000D01*
X57150000Y-61913000D01*
%TO.C,SW16*%
X76200000Y-61913000D02*
X95250000Y-61913000D01*
X95250000Y-80963000D01*
X76200000Y-80963000D01*
X76200000Y-61913000D01*
%TO.C,SW17*%
X0Y-80962000D02*
X19050000Y-80962000D01*
X19050000Y-100012000D01*
X0Y-100012000D01*
X0Y-80962000D01*
%TO.C,SW18*%
X19050000Y-80962000D02*
X38100000Y-80962000D01*
X38100000Y-100012000D01*
X19050000Y-100012000D01*
X19050000Y-80962000D01*
%TO.C,SW19*%
X38100000Y-80962000D02*
X57150000Y-80962000D01*
X57150000Y-100012000D01*
X38100000Y-100012000D01*
X38100000Y-80962000D01*
%TO.C,SW20*%
X57150000Y-80962000D02*
X76200000Y-80962000D01*
X76200000Y-100012000D01*
X57150000Y-100012000D01*
X57150000Y-80962000D01*
%TO.C,SW21*%
X76200000Y-80962000D02*
X95250000Y-80962000D01*
X95250000Y-100012000D01*
X76200000Y-100012000D01*
X76200000Y-80962000D01*
%TO.C,SW22*%
X0Y-100013000D02*
X19050000Y-100013000D01*
X19050000Y-119063000D01*
X0Y-119063000D01*
X0Y-100013000D01*
%TO.C,SW23*%
X19050000Y-100013000D02*
X38100000Y-100013000D01*
X38100000Y-119063000D01*
X19050000Y-119063000D01*
X19050000Y-100013000D01*
%TO.C,SW24*%
X38100000Y-100013000D02*
X57150000Y-100013000D01*
X57150000Y-119063000D01*
X38100000Y-119063000D01*
X38100000Y-100013000D01*
%TO.C,SW25*%
X57150000Y-100013000D02*
X76200000Y-100013000D01*
X76200000Y-119063000D01*
X57150000Y-119063000D01*
X57150000Y-100013000D01*
%TO.C,SW26*%
X76200000Y-100013000D02*
X95250000Y-100013000D01*
X95250000Y-119063000D01*
X76200000Y-119063000D01*
X76200000Y-100013000D01*
%TD*%
M02*
