%TF.GenerationSoftware,KiCad,Pcbnew,9.0.7*%
%TF.CreationDate,2026-02-28T06:01:15-05:00*%
%TF.ProjectId,Macropad,4d616372-6f70-4616-942e-6b696361645f,rev?*%
%TF.SameCoordinates,Original*%
%TF.FileFunction,Paste,Bot*%
%TF.FilePolarity,Positive*%
%FSLAX46Y46*%
G04 Gerber Fmt 4.6, Leading zero omitted, Abs format (unit mm)*
G04 Created by KiCad (PCBNEW 9.0.7) date 2026-02-28 06:01:15*
%MOMM*%
%LPD*%
G01*
G04 APERTURE LIST*
%ADD10R,2.550000X2.500000*%
G04 APERTURE END LIST*
D10*
%TO.C,SW1*%
X1965000Y-6985000D03*
X15815000Y-4445000D03*
%TD*%
%TO.C,SW2*%
X1965000Y-30797000D03*
X15815000Y-28257000D03*
%TD*%
%TO.C,SW3*%
X21015000Y-30797000D03*
X34865000Y-28257000D03*
%TD*%
%TO.C,SW4*%
X40065000Y-30797000D03*
X53915000Y-28257000D03*
%TD*%
%TO.C,SW5*%
X59115000Y-30797000D03*
X72965000Y-28257000D03*
%TD*%
%TO.C,SW6*%
X78165000Y-30797000D03*
X92015000Y-28257000D03*
%TD*%
%TO.C,SW7*%
X1965000Y-49848000D03*
X15815000Y-47308000D03*
%TD*%
%TO.C,SW8*%
X21015000Y-49848000D03*
X34865000Y-47308000D03*
%TD*%
%TO.C,SW9*%
X40065000Y-49848000D03*
X53915000Y-47308000D03*
%TD*%
%TO.C,SW10*%
X59115000Y-49848000D03*
X72965000Y-47308000D03*
%TD*%
%TO.C,SW11*%
X78165000Y-49848000D03*
X92015000Y-47308000D03*
%TD*%
%TO.C,SW12*%
X1965000Y-68898000D03*
X15815000Y-66358000D03*
%TD*%
%TO.C,SW13*%
X21015000Y-68898000D03*
X34865000Y-66358000D03*
%TD*%
%TO.C,SW14*%
X40065000Y-68898000D03*
X53915000Y-66358000D03*
%TD*%
%TO.C,SW15*%
X59115000Y-68898000D03*
X72965000Y-66358000D03*
%TD*%
%TO.C,SW16*%
X78165000Y-68898000D03*
X92015000Y-66358000D03*
%TD*%
%TO.C,SW17*%
X1965000Y-87947000D03*
X15815000Y-85407000D03*
%TD*%
%TO.C,SW18*%
X21015000Y-87947000D03*
X34865000Y-85407000D03*
%TD*%
%TO.C,SW19*%
X40065000Y-87947000D03*
X53915000Y-85407000D03*
%TD*%
%TO.C,SW20*%
X59115000Y-87947000D03*
X72965000Y-85407000D03*
%TD*%
%TO.C,SW21*%
X78165000Y-87947000D03*
X92015000Y-85407000D03*
%TD*%
%TO.C,SW22*%
X1965000Y-106998000D03*
X15815000Y-104458000D03*
%TD*%
%TO.C,SW23*%
X21015000Y-106998000D03*
X34865000Y-104458000D03*
%TD*%
%TO.C,SW24*%
X40065000Y-106998000D03*
X53915000Y-104458000D03*
%TD*%
%TO.C,SW25*%
X59115000Y-106998000D03*
X72965000Y-104458000D03*
%TD*%
%TO.C,SW26*%
X78165000Y-106998000D03*
X92015000Y-104458000D03*
%TD*%
M02*
