%TF.GenerationSoftware,KiCad,Pcbnew,9.0.7*%
%TF.CreationDate,2026-02-28T06:01:15-05:00*%
%TF.ProjectId,Macropad,4d616372-6f70-4616-942e-6b696361645f,rev?*%
%TF.SameCoordinates,Original*%
%TF.FileFunction,AssemblyDrawing,Top*%
%FSLAX46Y46*%
G04 Gerber Fmt 4.6, Leading zero omitted, Abs format (unit mm)*
G04 Created by KiCad (PCBNEW 9.0.7) date 2026-02-28 06:01:15*
%MOMM*%
%LPD*%
G01*
G04 APERTURE LIST*
%ADD10C,0.150000*%
%ADD11C,0.100000*%
G04 APERTURE END LIST*
D10*
X6477381Y-17932200D02*
X6620238Y-17979819D01*
X6620238Y-17979819D02*
X6858333Y-17979819D01*
X6858333Y-17979819D02*
X6953571Y-17932200D01*
X6953571Y-17932200D02*
X7001190Y-17884580D01*
X7001190Y-17884580D02*
X7048809Y-17789342D01*
X7048809Y-17789342D02*
X7048809Y-17694104D01*
X7048809Y-17694104D02*
X7001190Y-17598866D01*
X7001190Y-17598866D02*
X6953571Y-17551247D01*
X6953571Y-17551247D02*
X6858333Y-17503628D01*
X6858333Y-17503628D02*
X6667857Y-17456009D01*
X6667857Y-17456009D02*
X6572619Y-17408390D01*
X6572619Y-17408390D02*
X6525000Y-17360771D01*
X6525000Y-17360771D02*
X6477381Y-17265533D01*
X6477381Y-17265533D02*
X6477381Y-17170295D01*
X6477381Y-17170295D02*
X6525000Y-17075057D01*
X6525000Y-17075057D02*
X6572619Y-17027438D01*
X6572619Y-17027438D02*
X6667857Y-16979819D01*
X6667857Y-16979819D02*
X6905952Y-16979819D01*
X6905952Y-16979819D02*
X7048809Y-17027438D01*
X7382143Y-16979819D02*
X7620238Y-17979819D01*
X7620238Y-17979819D02*
X7810714Y-17265533D01*
X7810714Y-17265533D02*
X8001190Y-17979819D01*
X8001190Y-17979819D02*
X8239286Y-16979819D01*
X8382143Y-18075057D02*
X9144047Y-18075057D01*
X9382143Y-17979819D02*
X9382143Y-16979819D01*
X9382143Y-16979819D02*
X9763095Y-16979819D01*
X9763095Y-16979819D02*
X9858333Y-17027438D01*
X9858333Y-17027438D02*
X9905952Y-17075057D01*
X9905952Y-17075057D02*
X9953571Y-17170295D01*
X9953571Y-17170295D02*
X9953571Y-17313152D01*
X9953571Y-17313152D02*
X9905952Y-17408390D01*
X9905952Y-17408390D02*
X9858333Y-17456009D01*
X9858333Y-17456009D02*
X9763095Y-17503628D01*
X9763095Y-17503628D02*
X9382143Y-17503628D01*
X10810714Y-17313152D02*
X10810714Y-17979819D01*
X10382143Y-17313152D02*
X10382143Y-17836961D01*
X10382143Y-17836961D02*
X10429762Y-17932200D01*
X10429762Y-17932200D02*
X10525000Y-17979819D01*
X10525000Y-17979819D02*
X10667857Y-17979819D01*
X10667857Y-17979819D02*
X10763095Y-17932200D01*
X10763095Y-17932200D02*
X10810714Y-17884580D01*
X11239286Y-17932200D02*
X11334524Y-17979819D01*
X11334524Y-17979819D02*
X11525000Y-17979819D01*
X11525000Y-17979819D02*
X11620238Y-17932200D01*
X11620238Y-17932200D02*
X11667857Y-17836961D01*
X11667857Y-17836961D02*
X11667857Y-17789342D01*
X11667857Y-17789342D02*
X11620238Y-17694104D01*
X11620238Y-17694104D02*
X11525000Y-17646485D01*
X11525000Y-17646485D02*
X11382143Y-17646485D01*
X11382143Y-17646485D02*
X11286905Y-17598866D01*
X11286905Y-17598866D02*
X11239286Y-17503628D01*
X11239286Y-17503628D02*
X11239286Y-17456009D01*
X11239286Y-17456009D02*
X11286905Y-17360771D01*
X11286905Y-17360771D02*
X11382143Y-17313152D01*
X11382143Y-17313152D02*
X11525000Y-17313152D01*
X11525000Y-17313152D02*
X11620238Y-17360771D01*
X12096429Y-17979819D02*
X12096429Y-16979819D01*
X12525000Y-17979819D02*
X12525000Y-17456009D01*
X12525000Y-17456009D02*
X12477381Y-17360771D01*
X12477381Y-17360771D02*
X12382143Y-17313152D01*
X12382143Y-17313152D02*
X12239286Y-17313152D01*
X12239286Y-17313152D02*
X12144048Y-17360771D01*
X12144048Y-17360771D02*
X12096429Y-17408390D01*
X6477381Y-41744200D02*
X6620238Y-41791819D01*
X6620238Y-41791819D02*
X6858333Y-41791819D01*
X6858333Y-41791819D02*
X6953571Y-41744200D01*
X6953571Y-41744200D02*
X7001190Y-41696580D01*
X7001190Y-41696580D02*
X7048809Y-41601342D01*
X7048809Y-41601342D02*
X7048809Y-41506104D01*
X7048809Y-41506104D02*
X7001190Y-41410866D01*
X7001190Y-41410866D02*
X6953571Y-41363247D01*
X6953571Y-41363247D02*
X6858333Y-41315628D01*
X6858333Y-41315628D02*
X6667857Y-41268009D01*
X6667857Y-41268009D02*
X6572619Y-41220390D01*
X6572619Y-41220390D02*
X6525000Y-41172771D01*
X6525000Y-41172771D02*
X6477381Y-41077533D01*
X6477381Y-41077533D02*
X6477381Y-40982295D01*
X6477381Y-40982295D02*
X6525000Y-40887057D01*
X6525000Y-40887057D02*
X6572619Y-40839438D01*
X6572619Y-40839438D02*
X6667857Y-40791819D01*
X6667857Y-40791819D02*
X6905952Y-40791819D01*
X6905952Y-40791819D02*
X7048809Y-40839438D01*
X7382143Y-40791819D02*
X7620238Y-41791819D01*
X7620238Y-41791819D02*
X7810714Y-41077533D01*
X7810714Y-41077533D02*
X8001190Y-41791819D01*
X8001190Y-41791819D02*
X8239286Y-40791819D01*
X8382143Y-41887057D02*
X9144047Y-41887057D01*
X9382143Y-41791819D02*
X9382143Y-40791819D01*
X9382143Y-40791819D02*
X9763095Y-40791819D01*
X9763095Y-40791819D02*
X9858333Y-40839438D01*
X9858333Y-40839438D02*
X9905952Y-40887057D01*
X9905952Y-40887057D02*
X9953571Y-40982295D01*
X9953571Y-40982295D02*
X9953571Y-41125152D01*
X9953571Y-41125152D02*
X9905952Y-41220390D01*
X9905952Y-41220390D02*
X9858333Y-41268009D01*
X9858333Y-41268009D02*
X9763095Y-41315628D01*
X9763095Y-41315628D02*
X9382143Y-41315628D01*
X10810714Y-41125152D02*
X10810714Y-41791819D01*
X10382143Y-41125152D02*
X10382143Y-41648961D01*
X10382143Y-41648961D02*
X10429762Y-41744200D01*
X10429762Y-41744200D02*
X10525000Y-41791819D01*
X10525000Y-41791819D02*
X10667857Y-41791819D01*
X10667857Y-41791819D02*
X10763095Y-41744200D01*
X10763095Y-41744200D02*
X10810714Y-41696580D01*
X11239286Y-41744200D02*
X11334524Y-41791819D01*
X11334524Y-41791819D02*
X11525000Y-41791819D01*
X11525000Y-41791819D02*
X11620238Y-41744200D01*
X11620238Y-41744200D02*
X11667857Y-41648961D01*
X11667857Y-41648961D02*
X11667857Y-41601342D01*
X11667857Y-41601342D02*
X11620238Y-41506104D01*
X11620238Y-41506104D02*
X11525000Y-41458485D01*
X11525000Y-41458485D02*
X11382143Y-41458485D01*
X11382143Y-41458485D02*
X11286905Y-41410866D01*
X11286905Y-41410866D02*
X11239286Y-41315628D01*
X11239286Y-41315628D02*
X11239286Y-41268009D01*
X11239286Y-41268009D02*
X11286905Y-41172771D01*
X11286905Y-41172771D02*
X11382143Y-41125152D01*
X11382143Y-41125152D02*
X11525000Y-41125152D01*
X11525000Y-41125152D02*
X11620238Y-41172771D01*
X12096429Y-41791819D02*
X12096429Y-40791819D01*
X12525000Y-41791819D02*
X12525000Y-41268009D01*
X12525000Y-41268009D02*
X12477381Y-41172771D01*
X12477381Y-41172771D02*
X12382143Y-41125152D01*
X12382143Y-41125152D02*
X12239286Y-41125152D01*
X12239286Y-41125152D02*
X12144048Y-41172771D01*
X12144048Y-41172771D02*
X12096429Y-41220390D01*
X25527381Y-41744200D02*
X25670238Y-41791819D01*
X25670238Y-41791819D02*
X25908333Y-41791819D01*
X25908333Y-41791819D02*
X26003571Y-41744200D01*
X26003571Y-41744200D02*
X26051190Y-41696580D01*
X26051190Y-41696580D02*
X26098809Y-41601342D01*
X26098809Y-41601342D02*
X26098809Y-41506104D01*
X26098809Y-41506104D02*
X26051190Y-41410866D01*
X26051190Y-41410866D02*
X26003571Y-41363247D01*
X26003571Y-41363247D02*
X25908333Y-41315628D01*
X25908333Y-41315628D02*
X25717857Y-41268009D01*
X25717857Y-41268009D02*
X25622619Y-41220390D01*
X25622619Y-41220390D02*
X25575000Y-41172771D01*
X25575000Y-41172771D02*
X25527381Y-41077533D01*
X25527381Y-41077533D02*
X25527381Y-40982295D01*
X25527381Y-40982295D02*
X25575000Y-40887057D01*
X25575000Y-40887057D02*
X25622619Y-40839438D01*
X25622619Y-40839438D02*
X25717857Y-40791819D01*
X25717857Y-40791819D02*
X25955952Y-40791819D01*
X25955952Y-40791819D02*
X26098809Y-40839438D01*
X26432143Y-40791819D02*
X26670238Y-41791819D01*
X26670238Y-41791819D02*
X26860714Y-41077533D01*
X26860714Y-41077533D02*
X27051190Y-41791819D01*
X27051190Y-41791819D02*
X27289286Y-40791819D01*
X27432143Y-41887057D02*
X28194047Y-41887057D01*
X28432143Y-41791819D02*
X28432143Y-40791819D01*
X28432143Y-40791819D02*
X28813095Y-40791819D01*
X28813095Y-40791819D02*
X28908333Y-40839438D01*
X28908333Y-40839438D02*
X28955952Y-40887057D01*
X28955952Y-40887057D02*
X29003571Y-40982295D01*
X29003571Y-40982295D02*
X29003571Y-41125152D01*
X29003571Y-41125152D02*
X28955952Y-41220390D01*
X28955952Y-41220390D02*
X28908333Y-41268009D01*
X28908333Y-41268009D02*
X28813095Y-41315628D01*
X28813095Y-41315628D02*
X28432143Y-41315628D01*
X29860714Y-41125152D02*
X29860714Y-41791819D01*
X29432143Y-41125152D02*
X29432143Y-41648961D01*
X29432143Y-41648961D02*
X29479762Y-41744200D01*
X29479762Y-41744200D02*
X29575000Y-41791819D01*
X29575000Y-41791819D02*
X29717857Y-41791819D01*
X29717857Y-41791819D02*
X29813095Y-41744200D01*
X29813095Y-41744200D02*
X29860714Y-41696580D01*
X30289286Y-41744200D02*
X30384524Y-41791819D01*
X30384524Y-41791819D02*
X30575000Y-41791819D01*
X30575000Y-41791819D02*
X30670238Y-41744200D01*
X30670238Y-41744200D02*
X30717857Y-41648961D01*
X30717857Y-41648961D02*
X30717857Y-41601342D01*
X30717857Y-41601342D02*
X30670238Y-41506104D01*
X30670238Y-41506104D02*
X30575000Y-41458485D01*
X30575000Y-41458485D02*
X30432143Y-41458485D01*
X30432143Y-41458485D02*
X30336905Y-41410866D01*
X30336905Y-41410866D02*
X30289286Y-41315628D01*
X30289286Y-41315628D02*
X30289286Y-41268009D01*
X30289286Y-41268009D02*
X30336905Y-41172771D01*
X30336905Y-41172771D02*
X30432143Y-41125152D01*
X30432143Y-41125152D02*
X30575000Y-41125152D01*
X30575000Y-41125152D02*
X30670238Y-41172771D01*
X31146429Y-41791819D02*
X31146429Y-40791819D01*
X31575000Y-41791819D02*
X31575000Y-41268009D01*
X31575000Y-41268009D02*
X31527381Y-41172771D01*
X31527381Y-41172771D02*
X31432143Y-41125152D01*
X31432143Y-41125152D02*
X31289286Y-41125152D01*
X31289286Y-41125152D02*
X31194048Y-41172771D01*
X31194048Y-41172771D02*
X31146429Y-41220390D01*
X44577381Y-41744200D02*
X44720238Y-41791819D01*
X44720238Y-41791819D02*
X44958333Y-41791819D01*
X44958333Y-41791819D02*
X45053571Y-41744200D01*
X45053571Y-41744200D02*
X45101190Y-41696580D01*
X45101190Y-41696580D02*
X45148809Y-41601342D01*
X45148809Y-41601342D02*
X45148809Y-41506104D01*
X45148809Y-41506104D02*
X45101190Y-41410866D01*
X45101190Y-41410866D02*
X45053571Y-41363247D01*
X45053571Y-41363247D02*
X44958333Y-41315628D01*
X44958333Y-41315628D02*
X44767857Y-41268009D01*
X44767857Y-41268009D02*
X44672619Y-41220390D01*
X44672619Y-41220390D02*
X44625000Y-41172771D01*
X44625000Y-41172771D02*
X44577381Y-41077533D01*
X44577381Y-41077533D02*
X44577381Y-40982295D01*
X44577381Y-40982295D02*
X44625000Y-40887057D01*
X44625000Y-40887057D02*
X44672619Y-40839438D01*
X44672619Y-40839438D02*
X44767857Y-40791819D01*
X44767857Y-40791819D02*
X45005952Y-40791819D01*
X45005952Y-40791819D02*
X45148809Y-40839438D01*
X45482143Y-40791819D02*
X45720238Y-41791819D01*
X45720238Y-41791819D02*
X45910714Y-41077533D01*
X45910714Y-41077533D02*
X46101190Y-41791819D01*
X46101190Y-41791819D02*
X46339286Y-40791819D01*
X46482143Y-41887057D02*
X47244047Y-41887057D01*
X47482143Y-41791819D02*
X47482143Y-40791819D01*
X47482143Y-40791819D02*
X47863095Y-40791819D01*
X47863095Y-40791819D02*
X47958333Y-40839438D01*
X47958333Y-40839438D02*
X48005952Y-40887057D01*
X48005952Y-40887057D02*
X48053571Y-40982295D01*
X48053571Y-40982295D02*
X48053571Y-41125152D01*
X48053571Y-41125152D02*
X48005952Y-41220390D01*
X48005952Y-41220390D02*
X47958333Y-41268009D01*
X47958333Y-41268009D02*
X47863095Y-41315628D01*
X47863095Y-41315628D02*
X47482143Y-41315628D01*
X48910714Y-41125152D02*
X48910714Y-41791819D01*
X48482143Y-41125152D02*
X48482143Y-41648961D01*
X48482143Y-41648961D02*
X48529762Y-41744200D01*
X48529762Y-41744200D02*
X48625000Y-41791819D01*
X48625000Y-41791819D02*
X48767857Y-41791819D01*
X48767857Y-41791819D02*
X48863095Y-41744200D01*
X48863095Y-41744200D02*
X48910714Y-41696580D01*
X49339286Y-41744200D02*
X49434524Y-41791819D01*
X49434524Y-41791819D02*
X49625000Y-41791819D01*
X49625000Y-41791819D02*
X49720238Y-41744200D01*
X49720238Y-41744200D02*
X49767857Y-41648961D01*
X49767857Y-41648961D02*
X49767857Y-41601342D01*
X49767857Y-41601342D02*
X49720238Y-41506104D01*
X49720238Y-41506104D02*
X49625000Y-41458485D01*
X49625000Y-41458485D02*
X49482143Y-41458485D01*
X49482143Y-41458485D02*
X49386905Y-41410866D01*
X49386905Y-41410866D02*
X49339286Y-41315628D01*
X49339286Y-41315628D02*
X49339286Y-41268009D01*
X49339286Y-41268009D02*
X49386905Y-41172771D01*
X49386905Y-41172771D02*
X49482143Y-41125152D01*
X49482143Y-41125152D02*
X49625000Y-41125152D01*
X49625000Y-41125152D02*
X49720238Y-41172771D01*
X50196429Y-41791819D02*
X50196429Y-40791819D01*
X50625000Y-41791819D02*
X50625000Y-41268009D01*
X50625000Y-41268009D02*
X50577381Y-41172771D01*
X50577381Y-41172771D02*
X50482143Y-41125152D01*
X50482143Y-41125152D02*
X50339286Y-41125152D01*
X50339286Y-41125152D02*
X50244048Y-41172771D01*
X50244048Y-41172771D02*
X50196429Y-41220390D01*
X63627381Y-41744200D02*
X63770238Y-41791819D01*
X63770238Y-41791819D02*
X64008333Y-41791819D01*
X64008333Y-41791819D02*
X64103571Y-41744200D01*
X64103571Y-41744200D02*
X64151190Y-41696580D01*
X64151190Y-41696580D02*
X64198809Y-41601342D01*
X64198809Y-41601342D02*
X64198809Y-41506104D01*
X64198809Y-41506104D02*
X64151190Y-41410866D01*
X64151190Y-41410866D02*
X64103571Y-41363247D01*
X64103571Y-41363247D02*
X64008333Y-41315628D01*
X64008333Y-41315628D02*
X63817857Y-41268009D01*
X63817857Y-41268009D02*
X63722619Y-41220390D01*
X63722619Y-41220390D02*
X63675000Y-41172771D01*
X63675000Y-41172771D02*
X63627381Y-41077533D01*
X63627381Y-41077533D02*
X63627381Y-40982295D01*
X63627381Y-40982295D02*
X63675000Y-40887057D01*
X63675000Y-40887057D02*
X63722619Y-40839438D01*
X63722619Y-40839438D02*
X63817857Y-40791819D01*
X63817857Y-40791819D02*
X64055952Y-40791819D01*
X64055952Y-40791819D02*
X64198809Y-40839438D01*
X64532143Y-40791819D02*
X64770238Y-41791819D01*
X64770238Y-41791819D02*
X64960714Y-41077533D01*
X64960714Y-41077533D02*
X65151190Y-41791819D01*
X65151190Y-41791819D02*
X65389286Y-40791819D01*
X65532143Y-41887057D02*
X66294047Y-41887057D01*
X66532143Y-41791819D02*
X66532143Y-40791819D01*
X66532143Y-40791819D02*
X66913095Y-40791819D01*
X66913095Y-40791819D02*
X67008333Y-40839438D01*
X67008333Y-40839438D02*
X67055952Y-40887057D01*
X67055952Y-40887057D02*
X67103571Y-40982295D01*
X67103571Y-40982295D02*
X67103571Y-41125152D01*
X67103571Y-41125152D02*
X67055952Y-41220390D01*
X67055952Y-41220390D02*
X67008333Y-41268009D01*
X67008333Y-41268009D02*
X66913095Y-41315628D01*
X66913095Y-41315628D02*
X66532143Y-41315628D01*
X67960714Y-41125152D02*
X67960714Y-41791819D01*
X67532143Y-41125152D02*
X67532143Y-41648961D01*
X67532143Y-41648961D02*
X67579762Y-41744200D01*
X67579762Y-41744200D02*
X67675000Y-41791819D01*
X67675000Y-41791819D02*
X67817857Y-41791819D01*
X67817857Y-41791819D02*
X67913095Y-41744200D01*
X67913095Y-41744200D02*
X67960714Y-41696580D01*
X68389286Y-41744200D02*
X68484524Y-41791819D01*
X68484524Y-41791819D02*
X68675000Y-41791819D01*
X68675000Y-41791819D02*
X68770238Y-41744200D01*
X68770238Y-41744200D02*
X68817857Y-41648961D01*
X68817857Y-41648961D02*
X68817857Y-41601342D01*
X68817857Y-41601342D02*
X68770238Y-41506104D01*
X68770238Y-41506104D02*
X68675000Y-41458485D01*
X68675000Y-41458485D02*
X68532143Y-41458485D01*
X68532143Y-41458485D02*
X68436905Y-41410866D01*
X68436905Y-41410866D02*
X68389286Y-41315628D01*
X68389286Y-41315628D02*
X68389286Y-41268009D01*
X68389286Y-41268009D02*
X68436905Y-41172771D01*
X68436905Y-41172771D02*
X68532143Y-41125152D01*
X68532143Y-41125152D02*
X68675000Y-41125152D01*
X68675000Y-41125152D02*
X68770238Y-41172771D01*
X69246429Y-41791819D02*
X69246429Y-40791819D01*
X69675000Y-41791819D02*
X69675000Y-41268009D01*
X69675000Y-41268009D02*
X69627381Y-41172771D01*
X69627381Y-41172771D02*
X69532143Y-41125152D01*
X69532143Y-41125152D02*
X69389286Y-41125152D01*
X69389286Y-41125152D02*
X69294048Y-41172771D01*
X69294048Y-41172771D02*
X69246429Y-41220390D01*
X82677381Y-41744200D02*
X82820238Y-41791819D01*
X82820238Y-41791819D02*
X83058333Y-41791819D01*
X83058333Y-41791819D02*
X83153571Y-41744200D01*
X83153571Y-41744200D02*
X83201190Y-41696580D01*
X83201190Y-41696580D02*
X83248809Y-41601342D01*
X83248809Y-41601342D02*
X83248809Y-41506104D01*
X83248809Y-41506104D02*
X83201190Y-41410866D01*
X83201190Y-41410866D02*
X83153571Y-41363247D01*
X83153571Y-41363247D02*
X83058333Y-41315628D01*
X83058333Y-41315628D02*
X82867857Y-41268009D01*
X82867857Y-41268009D02*
X82772619Y-41220390D01*
X82772619Y-41220390D02*
X82725000Y-41172771D01*
X82725000Y-41172771D02*
X82677381Y-41077533D01*
X82677381Y-41077533D02*
X82677381Y-40982295D01*
X82677381Y-40982295D02*
X82725000Y-40887057D01*
X82725000Y-40887057D02*
X82772619Y-40839438D01*
X82772619Y-40839438D02*
X82867857Y-40791819D01*
X82867857Y-40791819D02*
X83105952Y-40791819D01*
X83105952Y-40791819D02*
X83248809Y-40839438D01*
X83582143Y-40791819D02*
X83820238Y-41791819D01*
X83820238Y-41791819D02*
X84010714Y-41077533D01*
X84010714Y-41077533D02*
X84201190Y-41791819D01*
X84201190Y-41791819D02*
X84439286Y-40791819D01*
X84582143Y-41887057D02*
X85344047Y-41887057D01*
X85582143Y-41791819D02*
X85582143Y-40791819D01*
X85582143Y-40791819D02*
X85963095Y-40791819D01*
X85963095Y-40791819D02*
X86058333Y-40839438D01*
X86058333Y-40839438D02*
X86105952Y-40887057D01*
X86105952Y-40887057D02*
X86153571Y-40982295D01*
X86153571Y-40982295D02*
X86153571Y-41125152D01*
X86153571Y-41125152D02*
X86105952Y-41220390D01*
X86105952Y-41220390D02*
X86058333Y-41268009D01*
X86058333Y-41268009D02*
X85963095Y-41315628D01*
X85963095Y-41315628D02*
X85582143Y-41315628D01*
X87010714Y-41125152D02*
X87010714Y-41791819D01*
X86582143Y-41125152D02*
X86582143Y-41648961D01*
X86582143Y-41648961D02*
X86629762Y-41744200D01*
X86629762Y-41744200D02*
X86725000Y-41791819D01*
X86725000Y-41791819D02*
X86867857Y-41791819D01*
X86867857Y-41791819D02*
X86963095Y-41744200D01*
X86963095Y-41744200D02*
X87010714Y-41696580D01*
X87439286Y-41744200D02*
X87534524Y-41791819D01*
X87534524Y-41791819D02*
X87725000Y-41791819D01*
X87725000Y-41791819D02*
X87820238Y-41744200D01*
X87820238Y-41744200D02*
X87867857Y-41648961D01*
X87867857Y-41648961D02*
X87867857Y-41601342D01*
X87867857Y-41601342D02*
X87820238Y-41506104D01*
X87820238Y-41506104D02*
X87725000Y-41458485D01*
X87725000Y-41458485D02*
X87582143Y-41458485D01*
X87582143Y-41458485D02*
X87486905Y-41410866D01*
X87486905Y-41410866D02*
X87439286Y-41315628D01*
X87439286Y-41315628D02*
X87439286Y-41268009D01*
X87439286Y-41268009D02*
X87486905Y-41172771D01*
X87486905Y-41172771D02*
X87582143Y-41125152D01*
X87582143Y-41125152D02*
X87725000Y-41125152D01*
X87725000Y-41125152D02*
X87820238Y-41172771D01*
X88296429Y-41791819D02*
X88296429Y-40791819D01*
X88725000Y-41791819D02*
X88725000Y-41268009D01*
X88725000Y-41268009D02*
X88677381Y-41172771D01*
X88677381Y-41172771D02*
X88582143Y-41125152D01*
X88582143Y-41125152D02*
X88439286Y-41125152D01*
X88439286Y-41125152D02*
X88344048Y-41172771D01*
X88344048Y-41172771D02*
X88296429Y-41220390D01*
X6477381Y-60795200D02*
X6620238Y-60842819D01*
X6620238Y-60842819D02*
X6858333Y-60842819D01*
X6858333Y-60842819D02*
X6953571Y-60795200D01*
X6953571Y-60795200D02*
X7001190Y-60747580D01*
X7001190Y-60747580D02*
X7048809Y-60652342D01*
X7048809Y-60652342D02*
X7048809Y-60557104D01*
X7048809Y-60557104D02*
X7001190Y-60461866D01*
X7001190Y-60461866D02*
X6953571Y-60414247D01*
X6953571Y-60414247D02*
X6858333Y-60366628D01*
X6858333Y-60366628D02*
X6667857Y-60319009D01*
X6667857Y-60319009D02*
X6572619Y-60271390D01*
X6572619Y-60271390D02*
X6525000Y-60223771D01*
X6525000Y-60223771D02*
X6477381Y-60128533D01*
X6477381Y-60128533D02*
X6477381Y-60033295D01*
X6477381Y-60033295D02*
X6525000Y-59938057D01*
X6525000Y-59938057D02*
X6572619Y-59890438D01*
X6572619Y-59890438D02*
X6667857Y-59842819D01*
X6667857Y-59842819D02*
X6905952Y-59842819D01*
X6905952Y-59842819D02*
X7048809Y-59890438D01*
X7382143Y-59842819D02*
X7620238Y-60842819D01*
X7620238Y-60842819D02*
X7810714Y-60128533D01*
X7810714Y-60128533D02*
X8001190Y-60842819D01*
X8001190Y-60842819D02*
X8239286Y-59842819D01*
X8382143Y-60938057D02*
X9144047Y-60938057D01*
X9382143Y-60842819D02*
X9382143Y-59842819D01*
X9382143Y-59842819D02*
X9763095Y-59842819D01*
X9763095Y-59842819D02*
X9858333Y-59890438D01*
X9858333Y-59890438D02*
X9905952Y-59938057D01*
X9905952Y-59938057D02*
X9953571Y-60033295D01*
X9953571Y-60033295D02*
X9953571Y-60176152D01*
X9953571Y-60176152D02*
X9905952Y-60271390D01*
X9905952Y-60271390D02*
X9858333Y-60319009D01*
X9858333Y-60319009D02*
X9763095Y-60366628D01*
X9763095Y-60366628D02*
X9382143Y-60366628D01*
X10810714Y-60176152D02*
X10810714Y-60842819D01*
X10382143Y-60176152D02*
X10382143Y-60699961D01*
X10382143Y-60699961D02*
X10429762Y-60795200D01*
X10429762Y-60795200D02*
X10525000Y-60842819D01*
X10525000Y-60842819D02*
X10667857Y-60842819D01*
X10667857Y-60842819D02*
X10763095Y-60795200D01*
X10763095Y-60795200D02*
X10810714Y-60747580D01*
X11239286Y-60795200D02*
X11334524Y-60842819D01*
X11334524Y-60842819D02*
X11525000Y-60842819D01*
X11525000Y-60842819D02*
X11620238Y-60795200D01*
X11620238Y-60795200D02*
X11667857Y-60699961D01*
X11667857Y-60699961D02*
X11667857Y-60652342D01*
X11667857Y-60652342D02*
X11620238Y-60557104D01*
X11620238Y-60557104D02*
X11525000Y-60509485D01*
X11525000Y-60509485D02*
X11382143Y-60509485D01*
X11382143Y-60509485D02*
X11286905Y-60461866D01*
X11286905Y-60461866D02*
X11239286Y-60366628D01*
X11239286Y-60366628D02*
X11239286Y-60319009D01*
X11239286Y-60319009D02*
X11286905Y-60223771D01*
X11286905Y-60223771D02*
X11382143Y-60176152D01*
X11382143Y-60176152D02*
X11525000Y-60176152D01*
X11525000Y-60176152D02*
X11620238Y-60223771D01*
X12096429Y-60842819D02*
X12096429Y-59842819D01*
X12525000Y-60842819D02*
X12525000Y-60319009D01*
X12525000Y-60319009D02*
X12477381Y-60223771D01*
X12477381Y-60223771D02*
X12382143Y-60176152D01*
X12382143Y-60176152D02*
X12239286Y-60176152D01*
X12239286Y-60176152D02*
X12144048Y-60223771D01*
X12144048Y-60223771D02*
X12096429Y-60271390D01*
X25527381Y-60795200D02*
X25670238Y-60842819D01*
X25670238Y-60842819D02*
X25908333Y-60842819D01*
X25908333Y-60842819D02*
X26003571Y-60795200D01*
X26003571Y-60795200D02*
X26051190Y-60747580D01*
X26051190Y-60747580D02*
X26098809Y-60652342D01*
X26098809Y-60652342D02*
X26098809Y-60557104D01*
X26098809Y-60557104D02*
X26051190Y-60461866D01*
X26051190Y-60461866D02*
X26003571Y-60414247D01*
X26003571Y-60414247D02*
X25908333Y-60366628D01*
X25908333Y-60366628D02*
X25717857Y-60319009D01*
X25717857Y-60319009D02*
X25622619Y-60271390D01*
X25622619Y-60271390D02*
X25575000Y-60223771D01*
X25575000Y-60223771D02*
X25527381Y-60128533D01*
X25527381Y-60128533D02*
X25527381Y-60033295D01*
X25527381Y-60033295D02*
X25575000Y-59938057D01*
X25575000Y-59938057D02*
X25622619Y-59890438D01*
X25622619Y-59890438D02*
X25717857Y-59842819D01*
X25717857Y-59842819D02*
X25955952Y-59842819D01*
X25955952Y-59842819D02*
X26098809Y-59890438D01*
X26432143Y-59842819D02*
X26670238Y-60842819D01*
X26670238Y-60842819D02*
X26860714Y-60128533D01*
X26860714Y-60128533D02*
X27051190Y-60842819D01*
X27051190Y-60842819D02*
X27289286Y-59842819D01*
X27432143Y-60938057D02*
X28194047Y-60938057D01*
X28432143Y-60842819D02*
X28432143Y-59842819D01*
X28432143Y-59842819D02*
X28813095Y-59842819D01*
X28813095Y-59842819D02*
X28908333Y-59890438D01*
X28908333Y-59890438D02*
X28955952Y-59938057D01*
X28955952Y-59938057D02*
X29003571Y-60033295D01*
X29003571Y-60033295D02*
X29003571Y-60176152D01*
X29003571Y-60176152D02*
X28955952Y-60271390D01*
X28955952Y-60271390D02*
X28908333Y-60319009D01*
X28908333Y-60319009D02*
X28813095Y-60366628D01*
X28813095Y-60366628D02*
X28432143Y-60366628D01*
X29860714Y-60176152D02*
X29860714Y-60842819D01*
X29432143Y-60176152D02*
X29432143Y-60699961D01*
X29432143Y-60699961D02*
X29479762Y-60795200D01*
X29479762Y-60795200D02*
X29575000Y-60842819D01*
X29575000Y-60842819D02*
X29717857Y-60842819D01*
X29717857Y-60842819D02*
X29813095Y-60795200D01*
X29813095Y-60795200D02*
X29860714Y-60747580D01*
X30289286Y-60795200D02*
X30384524Y-60842819D01*
X30384524Y-60842819D02*
X30575000Y-60842819D01*
X30575000Y-60842819D02*
X30670238Y-60795200D01*
X30670238Y-60795200D02*
X30717857Y-60699961D01*
X30717857Y-60699961D02*
X30717857Y-60652342D01*
X30717857Y-60652342D02*
X30670238Y-60557104D01*
X30670238Y-60557104D02*
X30575000Y-60509485D01*
X30575000Y-60509485D02*
X30432143Y-60509485D01*
X30432143Y-60509485D02*
X30336905Y-60461866D01*
X30336905Y-60461866D02*
X30289286Y-60366628D01*
X30289286Y-60366628D02*
X30289286Y-60319009D01*
X30289286Y-60319009D02*
X30336905Y-60223771D01*
X30336905Y-60223771D02*
X30432143Y-60176152D01*
X30432143Y-60176152D02*
X30575000Y-60176152D01*
X30575000Y-60176152D02*
X30670238Y-60223771D01*
X31146429Y-60842819D02*
X31146429Y-59842819D01*
X31575000Y-60842819D02*
X31575000Y-60319009D01*
X31575000Y-60319009D02*
X31527381Y-60223771D01*
X31527381Y-60223771D02*
X31432143Y-60176152D01*
X31432143Y-60176152D02*
X31289286Y-60176152D01*
X31289286Y-60176152D02*
X31194048Y-60223771D01*
X31194048Y-60223771D02*
X31146429Y-60271390D01*
X44577381Y-60795200D02*
X44720238Y-60842819D01*
X44720238Y-60842819D02*
X44958333Y-60842819D01*
X44958333Y-60842819D02*
X45053571Y-60795200D01*
X45053571Y-60795200D02*
X45101190Y-60747580D01*
X45101190Y-60747580D02*
X45148809Y-60652342D01*
X45148809Y-60652342D02*
X45148809Y-60557104D01*
X45148809Y-60557104D02*
X45101190Y-60461866D01*
X45101190Y-60461866D02*
X45053571Y-60414247D01*
X45053571Y-60414247D02*
X44958333Y-60366628D01*
X44958333Y-60366628D02*
X44767857Y-60319009D01*
X44767857Y-60319009D02*
X44672619Y-60271390D01*
X44672619Y-60271390D02*
X44625000Y-60223771D01*
X44625000Y-60223771D02*
X44577381Y-60128533D01*
X44577381Y-60128533D02*
X44577381Y-60033295D01*
X44577381Y-60033295D02*
X44625000Y-59938057D01*
X44625000Y-59938057D02*
X44672619Y-59890438D01*
X44672619Y-59890438D02*
X44767857Y-59842819D01*
X44767857Y-59842819D02*
X45005952Y-59842819D01*
X45005952Y-59842819D02*
X45148809Y-59890438D01*
X45482143Y-59842819D02*
X45720238Y-60842819D01*
X45720238Y-60842819D02*
X45910714Y-60128533D01*
X45910714Y-60128533D02*
X46101190Y-60842819D01*
X46101190Y-60842819D02*
X46339286Y-59842819D01*
X46482143Y-60938057D02*
X47244047Y-60938057D01*
X47482143Y-60842819D02*
X47482143Y-59842819D01*
X47482143Y-59842819D02*
X47863095Y-59842819D01*
X47863095Y-59842819D02*
X47958333Y-59890438D01*
X47958333Y-59890438D02*
X48005952Y-59938057D01*
X48005952Y-59938057D02*
X48053571Y-60033295D01*
X48053571Y-60033295D02*
X48053571Y-60176152D01*
X48053571Y-60176152D02*
X48005952Y-60271390D01*
X48005952Y-60271390D02*
X47958333Y-60319009D01*
X47958333Y-60319009D02*
X47863095Y-60366628D01*
X47863095Y-60366628D02*
X47482143Y-60366628D01*
X48910714Y-60176152D02*
X48910714Y-60842819D01*
X48482143Y-60176152D02*
X48482143Y-60699961D01*
X48482143Y-60699961D02*
X48529762Y-60795200D01*
X48529762Y-60795200D02*
X48625000Y-60842819D01*
X48625000Y-60842819D02*
X48767857Y-60842819D01*
X48767857Y-60842819D02*
X48863095Y-60795200D01*
X48863095Y-60795200D02*
X48910714Y-60747580D01*
X49339286Y-60795200D02*
X49434524Y-60842819D01*
X49434524Y-60842819D02*
X49625000Y-60842819D01*
X49625000Y-60842819D02*
X49720238Y-60795200D01*
X49720238Y-60795200D02*
X49767857Y-60699961D01*
X49767857Y-60699961D02*
X49767857Y-60652342D01*
X49767857Y-60652342D02*
X49720238Y-60557104D01*
X49720238Y-60557104D02*
X49625000Y-60509485D01*
X49625000Y-60509485D02*
X49482143Y-60509485D01*
X49482143Y-60509485D02*
X49386905Y-60461866D01*
X49386905Y-60461866D02*
X49339286Y-60366628D01*
X49339286Y-60366628D02*
X49339286Y-60319009D01*
X49339286Y-60319009D02*
X49386905Y-60223771D01*
X49386905Y-60223771D02*
X49482143Y-60176152D01*
X49482143Y-60176152D02*
X49625000Y-60176152D01*
X49625000Y-60176152D02*
X49720238Y-60223771D01*
X50196429Y-60842819D02*
X50196429Y-59842819D01*
X50625000Y-60842819D02*
X50625000Y-60319009D01*
X50625000Y-60319009D02*
X50577381Y-60223771D01*
X50577381Y-60223771D02*
X50482143Y-60176152D01*
X50482143Y-60176152D02*
X50339286Y-60176152D01*
X50339286Y-60176152D02*
X50244048Y-60223771D01*
X50244048Y-60223771D02*
X50196429Y-60271390D01*
X63627381Y-60795200D02*
X63770238Y-60842819D01*
X63770238Y-60842819D02*
X64008333Y-60842819D01*
X64008333Y-60842819D02*
X64103571Y-60795200D01*
X64103571Y-60795200D02*
X64151190Y-60747580D01*
X64151190Y-60747580D02*
X64198809Y-60652342D01*
X64198809Y-60652342D02*
X64198809Y-60557104D01*
X64198809Y-60557104D02*
X64151190Y-60461866D01*
X64151190Y-60461866D02*
X64103571Y-60414247D01*
X64103571Y-60414247D02*
X64008333Y-60366628D01*
X64008333Y-60366628D02*
X63817857Y-60319009D01*
X63817857Y-60319009D02*
X63722619Y-60271390D01*
X63722619Y-60271390D02*
X63675000Y-60223771D01*
X63675000Y-60223771D02*
X63627381Y-60128533D01*
X63627381Y-60128533D02*
X63627381Y-60033295D01*
X63627381Y-60033295D02*
X63675000Y-59938057D01*
X63675000Y-59938057D02*
X63722619Y-59890438D01*
X63722619Y-59890438D02*
X63817857Y-59842819D01*
X63817857Y-59842819D02*
X64055952Y-59842819D01*
X64055952Y-59842819D02*
X64198809Y-59890438D01*
X64532143Y-59842819D02*
X64770238Y-60842819D01*
X64770238Y-60842819D02*
X64960714Y-60128533D01*
X64960714Y-60128533D02*
X65151190Y-60842819D01*
X65151190Y-60842819D02*
X65389286Y-59842819D01*
X65532143Y-60938057D02*
X66294047Y-60938057D01*
X66532143Y-60842819D02*
X66532143Y-59842819D01*
X66532143Y-59842819D02*
X66913095Y-59842819D01*
X66913095Y-59842819D02*
X67008333Y-59890438D01*
X67008333Y-59890438D02*
X67055952Y-59938057D01*
X67055952Y-59938057D02*
X67103571Y-60033295D01*
X67103571Y-60033295D02*
X67103571Y-60176152D01*
X67103571Y-60176152D02*
X67055952Y-60271390D01*
X67055952Y-60271390D02*
X67008333Y-60319009D01*
X67008333Y-60319009D02*
X66913095Y-60366628D01*
X66913095Y-60366628D02*
X66532143Y-60366628D01*
X67960714Y-60176152D02*
X67960714Y-60842819D01*
X67532143Y-60176152D02*
X67532143Y-60699961D01*
X67532143Y-60699961D02*
X67579762Y-60795200D01*
X67579762Y-60795200D02*
X67675000Y-60842819D01*
X67675000Y-60842819D02*
X67817857Y-60842819D01*
X67817857Y-60842819D02*
X67913095Y-60795200D01*
X67913095Y-60795200D02*
X67960714Y-60747580D01*
X68389286Y-60795200D02*
X68484524Y-60842819D01*
X68484524Y-60842819D02*
X68675000Y-60842819D01*
X68675000Y-60842819D02*
X68770238Y-60795200D01*
X68770238Y-60795200D02*
X68817857Y-60699961D01*
X68817857Y-60699961D02*
X68817857Y-60652342D01*
X68817857Y-60652342D02*
X68770238Y-60557104D01*
X68770238Y-60557104D02*
X68675000Y-60509485D01*
X68675000Y-60509485D02*
X68532143Y-60509485D01*
X68532143Y-60509485D02*
X68436905Y-60461866D01*
X68436905Y-60461866D02*
X68389286Y-60366628D01*
X68389286Y-60366628D02*
X68389286Y-60319009D01*
X68389286Y-60319009D02*
X68436905Y-60223771D01*
X68436905Y-60223771D02*
X68532143Y-60176152D01*
X68532143Y-60176152D02*
X68675000Y-60176152D01*
X68675000Y-60176152D02*
X68770238Y-60223771D01*
X69246429Y-60842819D02*
X69246429Y-59842819D01*
X69675000Y-60842819D02*
X69675000Y-60319009D01*
X69675000Y-60319009D02*
X69627381Y-60223771D01*
X69627381Y-60223771D02*
X69532143Y-60176152D01*
X69532143Y-60176152D02*
X69389286Y-60176152D01*
X69389286Y-60176152D02*
X69294048Y-60223771D01*
X69294048Y-60223771D02*
X69246429Y-60271390D01*
X82677381Y-60795200D02*
X82820238Y-60842819D01*
X82820238Y-60842819D02*
X83058333Y-60842819D01*
X83058333Y-60842819D02*
X83153571Y-60795200D01*
X83153571Y-60795200D02*
X83201190Y-60747580D01*
X83201190Y-60747580D02*
X83248809Y-60652342D01*
X83248809Y-60652342D02*
X83248809Y-60557104D01*
X83248809Y-60557104D02*
X83201190Y-60461866D01*
X83201190Y-60461866D02*
X83153571Y-60414247D01*
X83153571Y-60414247D02*
X83058333Y-60366628D01*
X83058333Y-60366628D02*
X82867857Y-60319009D01*
X82867857Y-60319009D02*
X82772619Y-60271390D01*
X82772619Y-60271390D02*
X82725000Y-60223771D01*
X82725000Y-60223771D02*
X82677381Y-60128533D01*
X82677381Y-60128533D02*
X82677381Y-60033295D01*
X82677381Y-60033295D02*
X82725000Y-59938057D01*
X82725000Y-59938057D02*
X82772619Y-59890438D01*
X82772619Y-59890438D02*
X82867857Y-59842819D01*
X82867857Y-59842819D02*
X83105952Y-59842819D01*
X83105952Y-59842819D02*
X83248809Y-59890438D01*
X83582143Y-59842819D02*
X83820238Y-60842819D01*
X83820238Y-60842819D02*
X84010714Y-60128533D01*
X84010714Y-60128533D02*
X84201190Y-60842819D01*
X84201190Y-60842819D02*
X84439286Y-59842819D01*
X84582143Y-60938057D02*
X85344047Y-60938057D01*
X85582143Y-60842819D02*
X85582143Y-59842819D01*
X85582143Y-59842819D02*
X85963095Y-59842819D01*
X85963095Y-59842819D02*
X86058333Y-59890438D01*
X86058333Y-59890438D02*
X86105952Y-59938057D01*
X86105952Y-59938057D02*
X86153571Y-60033295D01*
X86153571Y-60033295D02*
X86153571Y-60176152D01*
X86153571Y-60176152D02*
X86105952Y-60271390D01*
X86105952Y-60271390D02*
X86058333Y-60319009D01*
X86058333Y-60319009D02*
X85963095Y-60366628D01*
X85963095Y-60366628D02*
X85582143Y-60366628D01*
X87010714Y-60176152D02*
X87010714Y-60842819D01*
X86582143Y-60176152D02*
X86582143Y-60699961D01*
X86582143Y-60699961D02*
X86629762Y-60795200D01*
X86629762Y-60795200D02*
X86725000Y-60842819D01*
X86725000Y-60842819D02*
X86867857Y-60842819D01*
X86867857Y-60842819D02*
X86963095Y-60795200D01*
X86963095Y-60795200D02*
X87010714Y-60747580D01*
X87439286Y-60795200D02*
X87534524Y-60842819D01*
X87534524Y-60842819D02*
X87725000Y-60842819D01*
X87725000Y-60842819D02*
X87820238Y-60795200D01*
X87820238Y-60795200D02*
X87867857Y-60699961D01*
X87867857Y-60699961D02*
X87867857Y-60652342D01*
X87867857Y-60652342D02*
X87820238Y-60557104D01*
X87820238Y-60557104D02*
X87725000Y-60509485D01*
X87725000Y-60509485D02*
X87582143Y-60509485D01*
X87582143Y-60509485D02*
X87486905Y-60461866D01*
X87486905Y-60461866D02*
X87439286Y-60366628D01*
X87439286Y-60366628D02*
X87439286Y-60319009D01*
X87439286Y-60319009D02*
X87486905Y-60223771D01*
X87486905Y-60223771D02*
X87582143Y-60176152D01*
X87582143Y-60176152D02*
X87725000Y-60176152D01*
X87725000Y-60176152D02*
X87820238Y-60223771D01*
X88296429Y-60842819D02*
X88296429Y-59842819D01*
X88725000Y-60842819D02*
X88725000Y-60319009D01*
X88725000Y-60319009D02*
X88677381Y-60223771D01*
X88677381Y-60223771D02*
X88582143Y-60176152D01*
X88582143Y-60176152D02*
X88439286Y-60176152D01*
X88439286Y-60176152D02*
X88344048Y-60223771D01*
X88344048Y-60223771D02*
X88296429Y-60271390D01*
X6477381Y-79845200D02*
X6620238Y-79892819D01*
X6620238Y-79892819D02*
X6858333Y-79892819D01*
X6858333Y-79892819D02*
X6953571Y-79845200D01*
X6953571Y-79845200D02*
X7001190Y-79797580D01*
X7001190Y-79797580D02*
X7048809Y-79702342D01*
X7048809Y-79702342D02*
X7048809Y-79607104D01*
X7048809Y-79607104D02*
X7001190Y-79511866D01*
X7001190Y-79511866D02*
X6953571Y-79464247D01*
X6953571Y-79464247D02*
X6858333Y-79416628D01*
X6858333Y-79416628D02*
X6667857Y-79369009D01*
X6667857Y-79369009D02*
X6572619Y-79321390D01*
X6572619Y-79321390D02*
X6525000Y-79273771D01*
X6525000Y-79273771D02*
X6477381Y-79178533D01*
X6477381Y-79178533D02*
X6477381Y-79083295D01*
X6477381Y-79083295D02*
X6525000Y-78988057D01*
X6525000Y-78988057D02*
X6572619Y-78940438D01*
X6572619Y-78940438D02*
X6667857Y-78892819D01*
X6667857Y-78892819D02*
X6905952Y-78892819D01*
X6905952Y-78892819D02*
X7048809Y-78940438D01*
X7382143Y-78892819D02*
X7620238Y-79892819D01*
X7620238Y-79892819D02*
X7810714Y-79178533D01*
X7810714Y-79178533D02*
X8001190Y-79892819D01*
X8001190Y-79892819D02*
X8239286Y-78892819D01*
X8382143Y-79988057D02*
X9144047Y-79988057D01*
X9382143Y-79892819D02*
X9382143Y-78892819D01*
X9382143Y-78892819D02*
X9763095Y-78892819D01*
X9763095Y-78892819D02*
X9858333Y-78940438D01*
X9858333Y-78940438D02*
X9905952Y-78988057D01*
X9905952Y-78988057D02*
X9953571Y-79083295D01*
X9953571Y-79083295D02*
X9953571Y-79226152D01*
X9953571Y-79226152D02*
X9905952Y-79321390D01*
X9905952Y-79321390D02*
X9858333Y-79369009D01*
X9858333Y-79369009D02*
X9763095Y-79416628D01*
X9763095Y-79416628D02*
X9382143Y-79416628D01*
X10810714Y-79226152D02*
X10810714Y-79892819D01*
X10382143Y-79226152D02*
X10382143Y-79749961D01*
X10382143Y-79749961D02*
X10429762Y-79845200D01*
X10429762Y-79845200D02*
X10525000Y-79892819D01*
X10525000Y-79892819D02*
X10667857Y-79892819D01*
X10667857Y-79892819D02*
X10763095Y-79845200D01*
X10763095Y-79845200D02*
X10810714Y-79797580D01*
X11239286Y-79845200D02*
X11334524Y-79892819D01*
X11334524Y-79892819D02*
X11525000Y-79892819D01*
X11525000Y-79892819D02*
X11620238Y-79845200D01*
X11620238Y-79845200D02*
X11667857Y-79749961D01*
X11667857Y-79749961D02*
X11667857Y-79702342D01*
X11667857Y-79702342D02*
X11620238Y-79607104D01*
X11620238Y-79607104D02*
X11525000Y-79559485D01*
X11525000Y-79559485D02*
X11382143Y-79559485D01*
X11382143Y-79559485D02*
X11286905Y-79511866D01*
X11286905Y-79511866D02*
X11239286Y-79416628D01*
X11239286Y-79416628D02*
X11239286Y-79369009D01*
X11239286Y-79369009D02*
X11286905Y-79273771D01*
X11286905Y-79273771D02*
X11382143Y-79226152D01*
X11382143Y-79226152D02*
X11525000Y-79226152D01*
X11525000Y-79226152D02*
X11620238Y-79273771D01*
X12096429Y-79892819D02*
X12096429Y-78892819D01*
X12525000Y-79892819D02*
X12525000Y-79369009D01*
X12525000Y-79369009D02*
X12477381Y-79273771D01*
X12477381Y-79273771D02*
X12382143Y-79226152D01*
X12382143Y-79226152D02*
X12239286Y-79226152D01*
X12239286Y-79226152D02*
X12144048Y-79273771D01*
X12144048Y-79273771D02*
X12096429Y-79321390D01*
X25527381Y-79845200D02*
X25670238Y-79892819D01*
X25670238Y-79892819D02*
X25908333Y-79892819D01*
X25908333Y-79892819D02*
X26003571Y-79845200D01*
X26003571Y-79845200D02*
X26051190Y-79797580D01*
X26051190Y-79797580D02*
X26098809Y-79702342D01*
X26098809Y-79702342D02*
X26098809Y-79607104D01*
X26098809Y-79607104D02*
X26051190Y-79511866D01*
X26051190Y-79511866D02*
X26003571Y-79464247D01*
X26003571Y-79464247D02*
X25908333Y-79416628D01*
X25908333Y-79416628D02*
X25717857Y-79369009D01*
X25717857Y-79369009D02*
X25622619Y-79321390D01*
X25622619Y-79321390D02*
X25575000Y-79273771D01*
X25575000Y-79273771D02*
X25527381Y-79178533D01*
X25527381Y-79178533D02*
X25527381Y-79083295D01*
X25527381Y-79083295D02*
X25575000Y-78988057D01*
X25575000Y-78988057D02*
X25622619Y-78940438D01*
X25622619Y-78940438D02*
X25717857Y-78892819D01*
X25717857Y-78892819D02*
X25955952Y-78892819D01*
X25955952Y-78892819D02*
X26098809Y-78940438D01*
X26432143Y-78892819D02*
X26670238Y-79892819D01*
X26670238Y-79892819D02*
X26860714Y-79178533D01*
X26860714Y-79178533D02*
X27051190Y-79892819D01*
X27051190Y-79892819D02*
X27289286Y-78892819D01*
X27432143Y-79988057D02*
X28194047Y-79988057D01*
X28432143Y-79892819D02*
X28432143Y-78892819D01*
X28432143Y-78892819D02*
X28813095Y-78892819D01*
X28813095Y-78892819D02*
X28908333Y-78940438D01*
X28908333Y-78940438D02*
X28955952Y-78988057D01*
X28955952Y-78988057D02*
X29003571Y-79083295D01*
X29003571Y-79083295D02*
X29003571Y-79226152D01*
X29003571Y-79226152D02*
X28955952Y-79321390D01*
X28955952Y-79321390D02*
X28908333Y-79369009D01*
X28908333Y-79369009D02*
X28813095Y-79416628D01*
X28813095Y-79416628D02*
X28432143Y-79416628D01*
X29860714Y-79226152D02*
X29860714Y-79892819D01*
X29432143Y-79226152D02*
X29432143Y-79749961D01*
X29432143Y-79749961D02*
X29479762Y-79845200D01*
X29479762Y-79845200D02*
X29575000Y-79892819D01*
X29575000Y-79892819D02*
X29717857Y-79892819D01*
X29717857Y-79892819D02*
X29813095Y-79845200D01*
X29813095Y-79845200D02*
X29860714Y-79797580D01*
X30289286Y-79845200D02*
X30384524Y-79892819D01*
X30384524Y-79892819D02*
X30575000Y-79892819D01*
X30575000Y-79892819D02*
X30670238Y-79845200D01*
X30670238Y-79845200D02*
X30717857Y-79749961D01*
X30717857Y-79749961D02*
X30717857Y-79702342D01*
X30717857Y-79702342D02*
X30670238Y-79607104D01*
X30670238Y-79607104D02*
X30575000Y-79559485D01*
X30575000Y-79559485D02*
X30432143Y-79559485D01*
X30432143Y-79559485D02*
X30336905Y-79511866D01*
X30336905Y-79511866D02*
X30289286Y-79416628D01*
X30289286Y-79416628D02*
X30289286Y-79369009D01*
X30289286Y-79369009D02*
X30336905Y-79273771D01*
X30336905Y-79273771D02*
X30432143Y-79226152D01*
X30432143Y-79226152D02*
X30575000Y-79226152D01*
X30575000Y-79226152D02*
X30670238Y-79273771D01*
X31146429Y-79892819D02*
X31146429Y-78892819D01*
X31575000Y-79892819D02*
X31575000Y-79369009D01*
X31575000Y-79369009D02*
X31527381Y-79273771D01*
X31527381Y-79273771D02*
X31432143Y-79226152D01*
X31432143Y-79226152D02*
X31289286Y-79226152D01*
X31289286Y-79226152D02*
X31194048Y-79273771D01*
X31194048Y-79273771D02*
X31146429Y-79321390D01*
X44577381Y-79845200D02*
X44720238Y-79892819D01*
X44720238Y-79892819D02*
X44958333Y-79892819D01*
X44958333Y-79892819D02*
X45053571Y-79845200D01*
X45053571Y-79845200D02*
X45101190Y-79797580D01*
X45101190Y-79797580D02*
X45148809Y-79702342D01*
X45148809Y-79702342D02*
X45148809Y-79607104D01*
X45148809Y-79607104D02*
X45101190Y-79511866D01*
X45101190Y-79511866D02*
X45053571Y-79464247D01*
X45053571Y-79464247D02*
X44958333Y-79416628D01*
X44958333Y-79416628D02*
X44767857Y-79369009D01*
X44767857Y-79369009D02*
X44672619Y-79321390D01*
X44672619Y-79321390D02*
X44625000Y-79273771D01*
X44625000Y-79273771D02*
X44577381Y-79178533D01*
X44577381Y-79178533D02*
X44577381Y-79083295D01*
X44577381Y-79083295D02*
X44625000Y-78988057D01*
X44625000Y-78988057D02*
X44672619Y-78940438D01*
X44672619Y-78940438D02*
X44767857Y-78892819D01*
X44767857Y-78892819D02*
X45005952Y-78892819D01*
X45005952Y-78892819D02*
X45148809Y-78940438D01*
X45482143Y-78892819D02*
X45720238Y-79892819D01*
X45720238Y-79892819D02*
X45910714Y-79178533D01*
X45910714Y-79178533D02*
X46101190Y-79892819D01*
X46101190Y-79892819D02*
X46339286Y-78892819D01*
X46482143Y-79988057D02*
X47244047Y-79988057D01*
X47482143Y-79892819D02*
X47482143Y-78892819D01*
X47482143Y-78892819D02*
X47863095Y-78892819D01*
X47863095Y-78892819D02*
X47958333Y-78940438D01*
X47958333Y-78940438D02*
X48005952Y-78988057D01*
X48005952Y-78988057D02*
X48053571Y-79083295D01*
X48053571Y-79083295D02*
X48053571Y-79226152D01*
X48053571Y-79226152D02*
X48005952Y-79321390D01*
X48005952Y-79321390D02*
X47958333Y-79369009D01*
X47958333Y-79369009D02*
X47863095Y-79416628D01*
X47863095Y-79416628D02*
X47482143Y-79416628D01*
X48910714Y-79226152D02*
X48910714Y-79892819D01*
X48482143Y-79226152D02*
X48482143Y-79749961D01*
X48482143Y-79749961D02*
X48529762Y-79845200D01*
X48529762Y-79845200D02*
X48625000Y-79892819D01*
X48625000Y-79892819D02*
X48767857Y-79892819D01*
X48767857Y-79892819D02*
X48863095Y-79845200D01*
X48863095Y-79845200D02*
X48910714Y-79797580D01*
X49339286Y-79845200D02*
X49434524Y-79892819D01*
X49434524Y-79892819D02*
X49625000Y-79892819D01*
X49625000Y-79892819D02*
X49720238Y-79845200D01*
X49720238Y-79845200D02*
X49767857Y-79749961D01*
X49767857Y-79749961D02*
X49767857Y-79702342D01*
X49767857Y-79702342D02*
X49720238Y-79607104D01*
X49720238Y-79607104D02*
X49625000Y-79559485D01*
X49625000Y-79559485D02*
X49482143Y-79559485D01*
X49482143Y-79559485D02*
X49386905Y-79511866D01*
X49386905Y-79511866D02*
X49339286Y-79416628D01*
X49339286Y-79416628D02*
X49339286Y-79369009D01*
X49339286Y-79369009D02*
X49386905Y-79273771D01*
X49386905Y-79273771D02*
X49482143Y-79226152D01*
X49482143Y-79226152D02*
X49625000Y-79226152D01*
X49625000Y-79226152D02*
X49720238Y-79273771D01*
X50196429Y-79892819D02*
X50196429Y-78892819D01*
X50625000Y-79892819D02*
X50625000Y-79369009D01*
X50625000Y-79369009D02*
X50577381Y-79273771D01*
X50577381Y-79273771D02*
X50482143Y-79226152D01*
X50482143Y-79226152D02*
X50339286Y-79226152D01*
X50339286Y-79226152D02*
X50244048Y-79273771D01*
X50244048Y-79273771D02*
X50196429Y-79321390D01*
X63627381Y-79845200D02*
X63770238Y-79892819D01*
X63770238Y-79892819D02*
X64008333Y-79892819D01*
X64008333Y-79892819D02*
X64103571Y-79845200D01*
X64103571Y-79845200D02*
X64151190Y-79797580D01*
X64151190Y-79797580D02*
X64198809Y-79702342D01*
X64198809Y-79702342D02*
X64198809Y-79607104D01*
X64198809Y-79607104D02*
X64151190Y-79511866D01*
X64151190Y-79511866D02*
X64103571Y-79464247D01*
X64103571Y-79464247D02*
X64008333Y-79416628D01*
X64008333Y-79416628D02*
X63817857Y-79369009D01*
X63817857Y-79369009D02*
X63722619Y-79321390D01*
X63722619Y-79321390D02*
X63675000Y-79273771D01*
X63675000Y-79273771D02*
X63627381Y-79178533D01*
X63627381Y-79178533D02*
X63627381Y-79083295D01*
X63627381Y-79083295D02*
X63675000Y-78988057D01*
X63675000Y-78988057D02*
X63722619Y-78940438D01*
X63722619Y-78940438D02*
X63817857Y-78892819D01*
X63817857Y-78892819D02*
X64055952Y-78892819D01*
X64055952Y-78892819D02*
X64198809Y-78940438D01*
X64532143Y-78892819D02*
X64770238Y-79892819D01*
X64770238Y-79892819D02*
X64960714Y-79178533D01*
X64960714Y-79178533D02*
X65151190Y-79892819D01*
X65151190Y-79892819D02*
X65389286Y-78892819D01*
X65532143Y-79988057D02*
X66294047Y-79988057D01*
X66532143Y-79892819D02*
X66532143Y-78892819D01*
X66532143Y-78892819D02*
X66913095Y-78892819D01*
X66913095Y-78892819D02*
X67008333Y-78940438D01*
X67008333Y-78940438D02*
X67055952Y-78988057D01*
X67055952Y-78988057D02*
X67103571Y-79083295D01*
X67103571Y-79083295D02*
X67103571Y-79226152D01*
X67103571Y-79226152D02*
X67055952Y-79321390D01*
X67055952Y-79321390D02*
X67008333Y-79369009D01*
X67008333Y-79369009D02*
X66913095Y-79416628D01*
X66913095Y-79416628D02*
X66532143Y-79416628D01*
X67960714Y-79226152D02*
X67960714Y-79892819D01*
X67532143Y-79226152D02*
X67532143Y-79749961D01*
X67532143Y-79749961D02*
X67579762Y-79845200D01*
X67579762Y-79845200D02*
X67675000Y-79892819D01*
X67675000Y-79892819D02*
X67817857Y-79892819D01*
X67817857Y-79892819D02*
X67913095Y-79845200D01*
X67913095Y-79845200D02*
X67960714Y-79797580D01*
X68389286Y-79845200D02*
X68484524Y-79892819D01*
X68484524Y-79892819D02*
X68675000Y-79892819D01*
X68675000Y-79892819D02*
X68770238Y-79845200D01*
X68770238Y-79845200D02*
X68817857Y-79749961D01*
X68817857Y-79749961D02*
X68817857Y-79702342D01*
X68817857Y-79702342D02*
X68770238Y-79607104D01*
X68770238Y-79607104D02*
X68675000Y-79559485D01*
X68675000Y-79559485D02*
X68532143Y-79559485D01*
X68532143Y-79559485D02*
X68436905Y-79511866D01*
X68436905Y-79511866D02*
X68389286Y-79416628D01*
X68389286Y-79416628D02*
X68389286Y-79369009D01*
X68389286Y-79369009D02*
X68436905Y-79273771D01*
X68436905Y-79273771D02*
X68532143Y-79226152D01*
X68532143Y-79226152D02*
X68675000Y-79226152D01*
X68675000Y-79226152D02*
X68770238Y-79273771D01*
X69246429Y-79892819D02*
X69246429Y-78892819D01*
X69675000Y-79892819D02*
X69675000Y-79369009D01*
X69675000Y-79369009D02*
X69627381Y-79273771D01*
X69627381Y-79273771D02*
X69532143Y-79226152D01*
X69532143Y-79226152D02*
X69389286Y-79226152D01*
X69389286Y-79226152D02*
X69294048Y-79273771D01*
X69294048Y-79273771D02*
X69246429Y-79321390D01*
X82677381Y-79845200D02*
X82820238Y-79892819D01*
X82820238Y-79892819D02*
X83058333Y-79892819D01*
X83058333Y-79892819D02*
X83153571Y-79845200D01*
X83153571Y-79845200D02*
X83201190Y-79797580D01*
X83201190Y-79797580D02*
X83248809Y-79702342D01*
X83248809Y-79702342D02*
X83248809Y-79607104D01*
X83248809Y-79607104D02*
X83201190Y-79511866D01*
X83201190Y-79511866D02*
X83153571Y-79464247D01*
X83153571Y-79464247D02*
X83058333Y-79416628D01*
X83058333Y-79416628D02*
X82867857Y-79369009D01*
X82867857Y-79369009D02*
X82772619Y-79321390D01*
X82772619Y-79321390D02*
X82725000Y-79273771D01*
X82725000Y-79273771D02*
X82677381Y-79178533D01*
X82677381Y-79178533D02*
X82677381Y-79083295D01*
X82677381Y-79083295D02*
X82725000Y-78988057D01*
X82725000Y-78988057D02*
X82772619Y-78940438D01*
X82772619Y-78940438D02*
X82867857Y-78892819D01*
X82867857Y-78892819D02*
X83105952Y-78892819D01*
X83105952Y-78892819D02*
X83248809Y-78940438D01*
X83582143Y-78892819D02*
X83820238Y-79892819D01*
X83820238Y-79892819D02*
X84010714Y-79178533D01*
X84010714Y-79178533D02*
X84201190Y-79892819D01*
X84201190Y-79892819D02*
X84439286Y-78892819D01*
X84582143Y-79988057D02*
X85344047Y-79988057D01*
X85582143Y-79892819D02*
X85582143Y-78892819D01*
X85582143Y-78892819D02*
X85963095Y-78892819D01*
X85963095Y-78892819D02*
X86058333Y-78940438D01*
X86058333Y-78940438D02*
X86105952Y-78988057D01*
X86105952Y-78988057D02*
X86153571Y-79083295D01*
X86153571Y-79083295D02*
X86153571Y-79226152D01*
X86153571Y-79226152D02*
X86105952Y-79321390D01*
X86105952Y-79321390D02*
X86058333Y-79369009D01*
X86058333Y-79369009D02*
X85963095Y-79416628D01*
X85963095Y-79416628D02*
X85582143Y-79416628D01*
X87010714Y-79226152D02*
X87010714Y-79892819D01*
X86582143Y-79226152D02*
X86582143Y-79749961D01*
X86582143Y-79749961D02*
X86629762Y-79845200D01*
X86629762Y-79845200D02*
X86725000Y-79892819D01*
X86725000Y-79892819D02*
X86867857Y-79892819D01*
X86867857Y-79892819D02*
X86963095Y-79845200D01*
X86963095Y-79845200D02*
X87010714Y-79797580D01*
X87439286Y-79845200D02*
X87534524Y-79892819D01*
X87534524Y-79892819D02*
X87725000Y-79892819D01*
X87725000Y-79892819D02*
X87820238Y-79845200D01*
X87820238Y-79845200D02*
X87867857Y-79749961D01*
X87867857Y-79749961D02*
X87867857Y-79702342D01*
X87867857Y-79702342D02*
X87820238Y-79607104D01*
X87820238Y-79607104D02*
X87725000Y-79559485D01*
X87725000Y-79559485D02*
X87582143Y-79559485D01*
X87582143Y-79559485D02*
X87486905Y-79511866D01*
X87486905Y-79511866D02*
X87439286Y-79416628D01*
X87439286Y-79416628D02*
X87439286Y-79369009D01*
X87439286Y-79369009D02*
X87486905Y-79273771D01*
X87486905Y-79273771D02*
X87582143Y-79226152D01*
X87582143Y-79226152D02*
X87725000Y-79226152D01*
X87725000Y-79226152D02*
X87820238Y-79273771D01*
X88296429Y-79892819D02*
X88296429Y-78892819D01*
X88725000Y-79892819D02*
X88725000Y-79369009D01*
X88725000Y-79369009D02*
X88677381Y-79273771D01*
X88677381Y-79273771D02*
X88582143Y-79226152D01*
X88582143Y-79226152D02*
X88439286Y-79226152D01*
X88439286Y-79226152D02*
X88344048Y-79273771D01*
X88344048Y-79273771D02*
X88296429Y-79321390D01*
X6477381Y-98894200D02*
X6620238Y-98941819D01*
X6620238Y-98941819D02*
X6858333Y-98941819D01*
X6858333Y-98941819D02*
X6953571Y-98894200D01*
X6953571Y-98894200D02*
X7001190Y-98846580D01*
X7001190Y-98846580D02*
X7048809Y-98751342D01*
X7048809Y-98751342D02*
X7048809Y-98656104D01*
X7048809Y-98656104D02*
X7001190Y-98560866D01*
X7001190Y-98560866D02*
X6953571Y-98513247D01*
X6953571Y-98513247D02*
X6858333Y-98465628D01*
X6858333Y-98465628D02*
X6667857Y-98418009D01*
X6667857Y-98418009D02*
X6572619Y-98370390D01*
X6572619Y-98370390D02*
X6525000Y-98322771D01*
X6525000Y-98322771D02*
X6477381Y-98227533D01*
X6477381Y-98227533D02*
X6477381Y-98132295D01*
X6477381Y-98132295D02*
X6525000Y-98037057D01*
X6525000Y-98037057D02*
X6572619Y-97989438D01*
X6572619Y-97989438D02*
X6667857Y-97941819D01*
X6667857Y-97941819D02*
X6905952Y-97941819D01*
X6905952Y-97941819D02*
X7048809Y-97989438D01*
X7382143Y-97941819D02*
X7620238Y-98941819D01*
X7620238Y-98941819D02*
X7810714Y-98227533D01*
X7810714Y-98227533D02*
X8001190Y-98941819D01*
X8001190Y-98941819D02*
X8239286Y-97941819D01*
X8382143Y-99037057D02*
X9144047Y-99037057D01*
X9382143Y-98941819D02*
X9382143Y-97941819D01*
X9382143Y-97941819D02*
X9763095Y-97941819D01*
X9763095Y-97941819D02*
X9858333Y-97989438D01*
X9858333Y-97989438D02*
X9905952Y-98037057D01*
X9905952Y-98037057D02*
X9953571Y-98132295D01*
X9953571Y-98132295D02*
X9953571Y-98275152D01*
X9953571Y-98275152D02*
X9905952Y-98370390D01*
X9905952Y-98370390D02*
X9858333Y-98418009D01*
X9858333Y-98418009D02*
X9763095Y-98465628D01*
X9763095Y-98465628D02*
X9382143Y-98465628D01*
X10810714Y-98275152D02*
X10810714Y-98941819D01*
X10382143Y-98275152D02*
X10382143Y-98798961D01*
X10382143Y-98798961D02*
X10429762Y-98894200D01*
X10429762Y-98894200D02*
X10525000Y-98941819D01*
X10525000Y-98941819D02*
X10667857Y-98941819D01*
X10667857Y-98941819D02*
X10763095Y-98894200D01*
X10763095Y-98894200D02*
X10810714Y-98846580D01*
X11239286Y-98894200D02*
X11334524Y-98941819D01*
X11334524Y-98941819D02*
X11525000Y-98941819D01*
X11525000Y-98941819D02*
X11620238Y-98894200D01*
X11620238Y-98894200D02*
X11667857Y-98798961D01*
X11667857Y-98798961D02*
X11667857Y-98751342D01*
X11667857Y-98751342D02*
X11620238Y-98656104D01*
X11620238Y-98656104D02*
X11525000Y-98608485D01*
X11525000Y-98608485D02*
X11382143Y-98608485D01*
X11382143Y-98608485D02*
X11286905Y-98560866D01*
X11286905Y-98560866D02*
X11239286Y-98465628D01*
X11239286Y-98465628D02*
X11239286Y-98418009D01*
X11239286Y-98418009D02*
X11286905Y-98322771D01*
X11286905Y-98322771D02*
X11382143Y-98275152D01*
X11382143Y-98275152D02*
X11525000Y-98275152D01*
X11525000Y-98275152D02*
X11620238Y-98322771D01*
X12096429Y-98941819D02*
X12096429Y-97941819D01*
X12525000Y-98941819D02*
X12525000Y-98418009D01*
X12525000Y-98418009D02*
X12477381Y-98322771D01*
X12477381Y-98322771D02*
X12382143Y-98275152D01*
X12382143Y-98275152D02*
X12239286Y-98275152D01*
X12239286Y-98275152D02*
X12144048Y-98322771D01*
X12144048Y-98322771D02*
X12096429Y-98370390D01*
X25527381Y-98894200D02*
X25670238Y-98941819D01*
X25670238Y-98941819D02*
X25908333Y-98941819D01*
X25908333Y-98941819D02*
X26003571Y-98894200D01*
X26003571Y-98894200D02*
X26051190Y-98846580D01*
X26051190Y-98846580D02*
X26098809Y-98751342D01*
X26098809Y-98751342D02*
X26098809Y-98656104D01*
X26098809Y-98656104D02*
X26051190Y-98560866D01*
X26051190Y-98560866D02*
X26003571Y-98513247D01*
X26003571Y-98513247D02*
X25908333Y-98465628D01*
X25908333Y-98465628D02*
X25717857Y-98418009D01*
X25717857Y-98418009D02*
X25622619Y-98370390D01*
X25622619Y-98370390D02*
X25575000Y-98322771D01*
X25575000Y-98322771D02*
X25527381Y-98227533D01*
X25527381Y-98227533D02*
X25527381Y-98132295D01*
X25527381Y-98132295D02*
X25575000Y-98037057D01*
X25575000Y-98037057D02*
X25622619Y-97989438D01*
X25622619Y-97989438D02*
X25717857Y-97941819D01*
X25717857Y-97941819D02*
X25955952Y-97941819D01*
X25955952Y-97941819D02*
X26098809Y-97989438D01*
X26432143Y-97941819D02*
X26670238Y-98941819D01*
X26670238Y-98941819D02*
X26860714Y-98227533D01*
X26860714Y-98227533D02*
X27051190Y-98941819D01*
X27051190Y-98941819D02*
X27289286Y-97941819D01*
X27432143Y-99037057D02*
X28194047Y-99037057D01*
X28432143Y-98941819D02*
X28432143Y-97941819D01*
X28432143Y-97941819D02*
X28813095Y-97941819D01*
X28813095Y-97941819D02*
X28908333Y-97989438D01*
X28908333Y-97989438D02*
X28955952Y-98037057D01*
X28955952Y-98037057D02*
X29003571Y-98132295D01*
X29003571Y-98132295D02*
X29003571Y-98275152D01*
X29003571Y-98275152D02*
X28955952Y-98370390D01*
X28955952Y-98370390D02*
X28908333Y-98418009D01*
X28908333Y-98418009D02*
X28813095Y-98465628D01*
X28813095Y-98465628D02*
X28432143Y-98465628D01*
X29860714Y-98275152D02*
X29860714Y-98941819D01*
X29432143Y-98275152D02*
X29432143Y-98798961D01*
X29432143Y-98798961D02*
X29479762Y-98894200D01*
X29479762Y-98894200D02*
X29575000Y-98941819D01*
X29575000Y-98941819D02*
X29717857Y-98941819D01*
X29717857Y-98941819D02*
X29813095Y-98894200D01*
X29813095Y-98894200D02*
X29860714Y-98846580D01*
X30289286Y-98894200D02*
X30384524Y-98941819D01*
X30384524Y-98941819D02*
X30575000Y-98941819D01*
X30575000Y-98941819D02*
X30670238Y-98894200D01*
X30670238Y-98894200D02*
X30717857Y-98798961D01*
X30717857Y-98798961D02*
X30717857Y-98751342D01*
X30717857Y-98751342D02*
X30670238Y-98656104D01*
X30670238Y-98656104D02*
X30575000Y-98608485D01*
X30575000Y-98608485D02*
X30432143Y-98608485D01*
X30432143Y-98608485D02*
X30336905Y-98560866D01*
X30336905Y-98560866D02*
X30289286Y-98465628D01*
X30289286Y-98465628D02*
X30289286Y-98418009D01*
X30289286Y-98418009D02*
X30336905Y-98322771D01*
X30336905Y-98322771D02*
X30432143Y-98275152D01*
X30432143Y-98275152D02*
X30575000Y-98275152D01*
X30575000Y-98275152D02*
X30670238Y-98322771D01*
X31146429Y-98941819D02*
X31146429Y-97941819D01*
X31575000Y-98941819D02*
X31575000Y-98418009D01*
X31575000Y-98418009D02*
X31527381Y-98322771D01*
X31527381Y-98322771D02*
X31432143Y-98275152D01*
X31432143Y-98275152D02*
X31289286Y-98275152D01*
X31289286Y-98275152D02*
X31194048Y-98322771D01*
X31194048Y-98322771D02*
X31146429Y-98370390D01*
X44577381Y-98894200D02*
X44720238Y-98941819D01*
X44720238Y-98941819D02*
X44958333Y-98941819D01*
X44958333Y-98941819D02*
X45053571Y-98894200D01*
X45053571Y-98894200D02*
X45101190Y-98846580D01*
X45101190Y-98846580D02*
X45148809Y-98751342D01*
X45148809Y-98751342D02*
X45148809Y-98656104D01*
X45148809Y-98656104D02*
X45101190Y-98560866D01*
X45101190Y-98560866D02*
X45053571Y-98513247D01*
X45053571Y-98513247D02*
X44958333Y-98465628D01*
X44958333Y-98465628D02*
X44767857Y-98418009D01*
X44767857Y-98418009D02*
X44672619Y-98370390D01*
X44672619Y-98370390D02*
X44625000Y-98322771D01*
X44625000Y-98322771D02*
X44577381Y-98227533D01*
X44577381Y-98227533D02*
X44577381Y-98132295D01*
X44577381Y-98132295D02*
X44625000Y-98037057D01*
X44625000Y-98037057D02*
X44672619Y-97989438D01*
X44672619Y-97989438D02*
X44767857Y-97941819D01*
X44767857Y-97941819D02*
X45005952Y-97941819D01*
X45005952Y-97941819D02*
X45148809Y-97989438D01*
X45482143Y-97941819D02*
X45720238Y-98941819D01*
X45720238Y-98941819D02*
X45910714Y-98227533D01*
X45910714Y-98227533D02*
X46101190Y-98941819D01*
X46101190Y-98941819D02*
X46339286Y-97941819D01*
X46482143Y-99037057D02*
X47244047Y-99037057D01*
X47482143Y-98941819D02*
X47482143Y-97941819D01*
X47482143Y-97941819D02*
X47863095Y-97941819D01*
X47863095Y-97941819D02*
X47958333Y-97989438D01*
X47958333Y-97989438D02*
X48005952Y-98037057D01*
X48005952Y-98037057D02*
X48053571Y-98132295D01*
X48053571Y-98132295D02*
X48053571Y-98275152D01*
X48053571Y-98275152D02*
X48005952Y-98370390D01*
X48005952Y-98370390D02*
X47958333Y-98418009D01*
X47958333Y-98418009D02*
X47863095Y-98465628D01*
X47863095Y-98465628D02*
X47482143Y-98465628D01*
X48910714Y-98275152D02*
X48910714Y-98941819D01*
X48482143Y-98275152D02*
X48482143Y-98798961D01*
X48482143Y-98798961D02*
X48529762Y-98894200D01*
X48529762Y-98894200D02*
X48625000Y-98941819D01*
X48625000Y-98941819D02*
X48767857Y-98941819D01*
X48767857Y-98941819D02*
X48863095Y-98894200D01*
X48863095Y-98894200D02*
X48910714Y-98846580D01*
X49339286Y-98894200D02*
X49434524Y-98941819D01*
X49434524Y-98941819D02*
X49625000Y-98941819D01*
X49625000Y-98941819D02*
X49720238Y-98894200D01*
X49720238Y-98894200D02*
X49767857Y-98798961D01*
X49767857Y-98798961D02*
X49767857Y-98751342D01*
X49767857Y-98751342D02*
X49720238Y-98656104D01*
X49720238Y-98656104D02*
X49625000Y-98608485D01*
X49625000Y-98608485D02*
X49482143Y-98608485D01*
X49482143Y-98608485D02*
X49386905Y-98560866D01*
X49386905Y-98560866D02*
X49339286Y-98465628D01*
X49339286Y-98465628D02*
X49339286Y-98418009D01*
X49339286Y-98418009D02*
X49386905Y-98322771D01*
X49386905Y-98322771D02*
X49482143Y-98275152D01*
X49482143Y-98275152D02*
X49625000Y-98275152D01*
X49625000Y-98275152D02*
X49720238Y-98322771D01*
X50196429Y-98941819D02*
X50196429Y-97941819D01*
X50625000Y-98941819D02*
X50625000Y-98418009D01*
X50625000Y-98418009D02*
X50577381Y-98322771D01*
X50577381Y-98322771D02*
X50482143Y-98275152D01*
X50482143Y-98275152D02*
X50339286Y-98275152D01*
X50339286Y-98275152D02*
X50244048Y-98322771D01*
X50244048Y-98322771D02*
X50196429Y-98370390D01*
X63627381Y-98894200D02*
X63770238Y-98941819D01*
X63770238Y-98941819D02*
X64008333Y-98941819D01*
X64008333Y-98941819D02*
X64103571Y-98894200D01*
X64103571Y-98894200D02*
X64151190Y-98846580D01*
X64151190Y-98846580D02*
X64198809Y-98751342D01*
X64198809Y-98751342D02*
X64198809Y-98656104D01*
X64198809Y-98656104D02*
X64151190Y-98560866D01*
X64151190Y-98560866D02*
X64103571Y-98513247D01*
X64103571Y-98513247D02*
X64008333Y-98465628D01*
X64008333Y-98465628D02*
X63817857Y-98418009D01*
X63817857Y-98418009D02*
X63722619Y-98370390D01*
X63722619Y-98370390D02*
X63675000Y-98322771D01*
X63675000Y-98322771D02*
X63627381Y-98227533D01*
X63627381Y-98227533D02*
X63627381Y-98132295D01*
X63627381Y-98132295D02*
X63675000Y-98037057D01*
X63675000Y-98037057D02*
X63722619Y-97989438D01*
X63722619Y-97989438D02*
X63817857Y-97941819D01*
X63817857Y-97941819D02*
X64055952Y-97941819D01*
X64055952Y-97941819D02*
X64198809Y-97989438D01*
X64532143Y-97941819D02*
X64770238Y-98941819D01*
X64770238Y-98941819D02*
X64960714Y-98227533D01*
X64960714Y-98227533D02*
X65151190Y-98941819D01*
X65151190Y-98941819D02*
X65389286Y-97941819D01*
X65532143Y-99037057D02*
X66294047Y-99037057D01*
X66532143Y-98941819D02*
X66532143Y-97941819D01*
X66532143Y-97941819D02*
X66913095Y-97941819D01*
X66913095Y-97941819D02*
X67008333Y-97989438D01*
X67008333Y-97989438D02*
X67055952Y-98037057D01*
X67055952Y-98037057D02*
X67103571Y-98132295D01*
X67103571Y-98132295D02*
X67103571Y-98275152D01*
X67103571Y-98275152D02*
X67055952Y-98370390D01*
X67055952Y-98370390D02*
X67008333Y-98418009D01*
X67008333Y-98418009D02*
X66913095Y-98465628D01*
X66913095Y-98465628D02*
X66532143Y-98465628D01*
X67960714Y-98275152D02*
X67960714Y-98941819D01*
X67532143Y-98275152D02*
X67532143Y-98798961D01*
X67532143Y-98798961D02*
X67579762Y-98894200D01*
X67579762Y-98894200D02*
X67675000Y-98941819D01*
X67675000Y-98941819D02*
X67817857Y-98941819D01*
X67817857Y-98941819D02*
X67913095Y-98894200D01*
X67913095Y-98894200D02*
X67960714Y-98846580D01*
X68389286Y-98894200D02*
X68484524Y-98941819D01*
X68484524Y-98941819D02*
X68675000Y-98941819D01*
X68675000Y-98941819D02*
X68770238Y-98894200D01*
X68770238Y-98894200D02*
X68817857Y-98798961D01*
X68817857Y-98798961D02*
X68817857Y-98751342D01*
X68817857Y-98751342D02*
X68770238Y-98656104D01*
X68770238Y-98656104D02*
X68675000Y-98608485D01*
X68675000Y-98608485D02*
X68532143Y-98608485D01*
X68532143Y-98608485D02*
X68436905Y-98560866D01*
X68436905Y-98560866D02*
X68389286Y-98465628D01*
X68389286Y-98465628D02*
X68389286Y-98418009D01*
X68389286Y-98418009D02*
X68436905Y-98322771D01*
X68436905Y-98322771D02*
X68532143Y-98275152D01*
X68532143Y-98275152D02*
X68675000Y-98275152D01*
X68675000Y-98275152D02*
X68770238Y-98322771D01*
X69246429Y-98941819D02*
X69246429Y-97941819D01*
X69675000Y-98941819D02*
X69675000Y-98418009D01*
X69675000Y-98418009D02*
X69627381Y-98322771D01*
X69627381Y-98322771D02*
X69532143Y-98275152D01*
X69532143Y-98275152D02*
X69389286Y-98275152D01*
X69389286Y-98275152D02*
X69294048Y-98322771D01*
X69294048Y-98322771D02*
X69246429Y-98370390D01*
X82677381Y-98894200D02*
X82820238Y-98941819D01*
X82820238Y-98941819D02*
X83058333Y-98941819D01*
X83058333Y-98941819D02*
X83153571Y-98894200D01*
X83153571Y-98894200D02*
X83201190Y-98846580D01*
X83201190Y-98846580D02*
X83248809Y-98751342D01*
X83248809Y-98751342D02*
X83248809Y-98656104D01*
X83248809Y-98656104D02*
X83201190Y-98560866D01*
X83201190Y-98560866D02*
X83153571Y-98513247D01*
X83153571Y-98513247D02*
X83058333Y-98465628D01*
X83058333Y-98465628D02*
X82867857Y-98418009D01*
X82867857Y-98418009D02*
X82772619Y-98370390D01*
X82772619Y-98370390D02*
X82725000Y-98322771D01*
X82725000Y-98322771D02*
X82677381Y-98227533D01*
X82677381Y-98227533D02*
X82677381Y-98132295D01*
X82677381Y-98132295D02*
X82725000Y-98037057D01*
X82725000Y-98037057D02*
X82772619Y-97989438D01*
X82772619Y-97989438D02*
X82867857Y-97941819D01*
X82867857Y-97941819D02*
X83105952Y-97941819D01*
X83105952Y-97941819D02*
X83248809Y-97989438D01*
X83582143Y-97941819D02*
X83820238Y-98941819D01*
X83820238Y-98941819D02*
X84010714Y-98227533D01*
X84010714Y-98227533D02*
X84201190Y-98941819D01*
X84201190Y-98941819D02*
X84439286Y-97941819D01*
X84582143Y-99037057D02*
X85344047Y-99037057D01*
X85582143Y-98941819D02*
X85582143Y-97941819D01*
X85582143Y-97941819D02*
X85963095Y-97941819D01*
X85963095Y-97941819D02*
X86058333Y-97989438D01*
X86058333Y-97989438D02*
X86105952Y-98037057D01*
X86105952Y-98037057D02*
X86153571Y-98132295D01*
X86153571Y-98132295D02*
X86153571Y-98275152D01*
X86153571Y-98275152D02*
X86105952Y-98370390D01*
X86105952Y-98370390D02*
X86058333Y-98418009D01*
X86058333Y-98418009D02*
X85963095Y-98465628D01*
X85963095Y-98465628D02*
X85582143Y-98465628D01*
X87010714Y-98275152D02*
X87010714Y-98941819D01*
X86582143Y-98275152D02*
X86582143Y-98798961D01*
X86582143Y-98798961D02*
X86629762Y-98894200D01*
X86629762Y-98894200D02*
X86725000Y-98941819D01*
X86725000Y-98941819D02*
X86867857Y-98941819D01*
X86867857Y-98941819D02*
X86963095Y-98894200D01*
X86963095Y-98894200D02*
X87010714Y-98846580D01*
X87439286Y-98894200D02*
X87534524Y-98941819D01*
X87534524Y-98941819D02*
X87725000Y-98941819D01*
X87725000Y-98941819D02*
X87820238Y-98894200D01*
X87820238Y-98894200D02*
X87867857Y-98798961D01*
X87867857Y-98798961D02*
X87867857Y-98751342D01*
X87867857Y-98751342D02*
X87820238Y-98656104D01*
X87820238Y-98656104D02*
X87725000Y-98608485D01*
X87725000Y-98608485D02*
X87582143Y-98608485D01*
X87582143Y-98608485D02*
X87486905Y-98560866D01*
X87486905Y-98560866D02*
X87439286Y-98465628D01*
X87439286Y-98465628D02*
X87439286Y-98418009D01*
X87439286Y-98418009D02*
X87486905Y-98322771D01*
X87486905Y-98322771D02*
X87582143Y-98275152D01*
X87582143Y-98275152D02*
X87725000Y-98275152D01*
X87725000Y-98275152D02*
X87820238Y-98322771D01*
X88296429Y-98941819D02*
X88296429Y-97941819D01*
X88725000Y-98941819D02*
X88725000Y-98418009D01*
X88725000Y-98418009D02*
X88677381Y-98322771D01*
X88677381Y-98322771D02*
X88582143Y-98275152D01*
X88582143Y-98275152D02*
X88439286Y-98275152D01*
X88439286Y-98275152D02*
X88344048Y-98322771D01*
X88344048Y-98322771D02*
X88296429Y-98370390D01*
X6477381Y-117945200D02*
X6620238Y-117992819D01*
X6620238Y-117992819D02*
X6858333Y-117992819D01*
X6858333Y-117992819D02*
X6953571Y-117945200D01*
X6953571Y-117945200D02*
X7001190Y-117897580D01*
X7001190Y-117897580D02*
X7048809Y-117802342D01*
X7048809Y-117802342D02*
X7048809Y-117707104D01*
X7048809Y-117707104D02*
X7001190Y-117611866D01*
X7001190Y-117611866D02*
X6953571Y-117564247D01*
X6953571Y-117564247D02*
X6858333Y-117516628D01*
X6858333Y-117516628D02*
X6667857Y-117469009D01*
X6667857Y-117469009D02*
X6572619Y-117421390D01*
X6572619Y-117421390D02*
X6525000Y-117373771D01*
X6525000Y-117373771D02*
X6477381Y-117278533D01*
X6477381Y-117278533D02*
X6477381Y-117183295D01*
X6477381Y-117183295D02*
X6525000Y-117088057D01*
X6525000Y-117088057D02*
X6572619Y-117040438D01*
X6572619Y-117040438D02*
X6667857Y-116992819D01*
X6667857Y-116992819D02*
X6905952Y-116992819D01*
X6905952Y-116992819D02*
X7048809Y-117040438D01*
X7382143Y-116992819D02*
X7620238Y-117992819D01*
X7620238Y-117992819D02*
X7810714Y-117278533D01*
X7810714Y-117278533D02*
X8001190Y-117992819D01*
X8001190Y-117992819D02*
X8239286Y-116992819D01*
X8382143Y-118088057D02*
X9144047Y-118088057D01*
X9382143Y-117992819D02*
X9382143Y-116992819D01*
X9382143Y-116992819D02*
X9763095Y-116992819D01*
X9763095Y-116992819D02*
X9858333Y-117040438D01*
X9858333Y-117040438D02*
X9905952Y-117088057D01*
X9905952Y-117088057D02*
X9953571Y-117183295D01*
X9953571Y-117183295D02*
X9953571Y-117326152D01*
X9953571Y-117326152D02*
X9905952Y-117421390D01*
X9905952Y-117421390D02*
X9858333Y-117469009D01*
X9858333Y-117469009D02*
X9763095Y-117516628D01*
X9763095Y-117516628D02*
X9382143Y-117516628D01*
X10810714Y-117326152D02*
X10810714Y-117992819D01*
X10382143Y-117326152D02*
X10382143Y-117849961D01*
X10382143Y-117849961D02*
X10429762Y-117945200D01*
X10429762Y-117945200D02*
X10525000Y-117992819D01*
X10525000Y-117992819D02*
X10667857Y-117992819D01*
X10667857Y-117992819D02*
X10763095Y-117945200D01*
X10763095Y-117945200D02*
X10810714Y-117897580D01*
X11239286Y-117945200D02*
X11334524Y-117992819D01*
X11334524Y-117992819D02*
X11525000Y-117992819D01*
X11525000Y-117992819D02*
X11620238Y-117945200D01*
X11620238Y-117945200D02*
X11667857Y-117849961D01*
X11667857Y-117849961D02*
X11667857Y-117802342D01*
X11667857Y-117802342D02*
X11620238Y-117707104D01*
X11620238Y-117707104D02*
X11525000Y-117659485D01*
X11525000Y-117659485D02*
X11382143Y-117659485D01*
X11382143Y-117659485D02*
X11286905Y-117611866D01*
X11286905Y-117611866D02*
X11239286Y-117516628D01*
X11239286Y-117516628D02*
X11239286Y-117469009D01*
X11239286Y-117469009D02*
X11286905Y-117373771D01*
X11286905Y-117373771D02*
X11382143Y-117326152D01*
X11382143Y-117326152D02*
X11525000Y-117326152D01*
X11525000Y-117326152D02*
X11620238Y-117373771D01*
X12096429Y-117992819D02*
X12096429Y-116992819D01*
X12525000Y-117992819D02*
X12525000Y-117469009D01*
X12525000Y-117469009D02*
X12477381Y-117373771D01*
X12477381Y-117373771D02*
X12382143Y-117326152D01*
X12382143Y-117326152D02*
X12239286Y-117326152D01*
X12239286Y-117326152D02*
X12144048Y-117373771D01*
X12144048Y-117373771D02*
X12096429Y-117421390D01*
X25527381Y-117945200D02*
X25670238Y-117992819D01*
X25670238Y-117992819D02*
X25908333Y-117992819D01*
X25908333Y-117992819D02*
X26003571Y-117945200D01*
X26003571Y-117945200D02*
X26051190Y-117897580D01*
X26051190Y-117897580D02*
X26098809Y-117802342D01*
X26098809Y-117802342D02*
X26098809Y-117707104D01*
X26098809Y-117707104D02*
X26051190Y-117611866D01*
X26051190Y-117611866D02*
X26003571Y-117564247D01*
X26003571Y-117564247D02*
X25908333Y-117516628D01*
X25908333Y-117516628D02*
X25717857Y-117469009D01*
X25717857Y-117469009D02*
X25622619Y-117421390D01*
X25622619Y-117421390D02*
X25575000Y-117373771D01*
X25575000Y-117373771D02*
X25527381Y-117278533D01*
X25527381Y-117278533D02*
X25527381Y-117183295D01*
X25527381Y-117183295D02*
X25575000Y-117088057D01*
X25575000Y-117088057D02*
X25622619Y-117040438D01*
X25622619Y-117040438D02*
X25717857Y-116992819D01*
X25717857Y-116992819D02*
X25955952Y-116992819D01*
X25955952Y-116992819D02*
X26098809Y-117040438D01*
X26432143Y-116992819D02*
X26670238Y-117992819D01*
X26670238Y-117992819D02*
X26860714Y-117278533D01*
X26860714Y-117278533D02*
X27051190Y-117992819D01*
X27051190Y-117992819D02*
X27289286Y-116992819D01*
X27432143Y-118088057D02*
X28194047Y-118088057D01*
X28432143Y-117992819D02*
X28432143Y-116992819D01*
X28432143Y-116992819D02*
X28813095Y-116992819D01*
X28813095Y-116992819D02*
X28908333Y-117040438D01*
X28908333Y-117040438D02*
X28955952Y-117088057D01*
X28955952Y-117088057D02*
X29003571Y-117183295D01*
X29003571Y-117183295D02*
X29003571Y-117326152D01*
X29003571Y-117326152D02*
X28955952Y-117421390D01*
X28955952Y-117421390D02*
X28908333Y-117469009D01*
X28908333Y-117469009D02*
X28813095Y-117516628D01*
X28813095Y-117516628D02*
X28432143Y-117516628D01*
X29860714Y-117326152D02*
X29860714Y-117992819D01*
X29432143Y-117326152D02*
X29432143Y-117849961D01*
X29432143Y-117849961D02*
X29479762Y-117945200D01*
X29479762Y-117945200D02*
X29575000Y-117992819D01*
X29575000Y-117992819D02*
X29717857Y-117992819D01*
X29717857Y-117992819D02*
X29813095Y-117945200D01*
X29813095Y-117945200D02*
X29860714Y-117897580D01*
X30289286Y-117945200D02*
X30384524Y-117992819D01*
X30384524Y-117992819D02*
X30575000Y-117992819D01*
X30575000Y-117992819D02*
X30670238Y-117945200D01*
X30670238Y-117945200D02*
X30717857Y-117849961D01*
X30717857Y-117849961D02*
X30717857Y-117802342D01*
X30717857Y-117802342D02*
X30670238Y-117707104D01*
X30670238Y-117707104D02*
X30575000Y-117659485D01*
X30575000Y-117659485D02*
X30432143Y-117659485D01*
X30432143Y-117659485D02*
X30336905Y-117611866D01*
X30336905Y-117611866D02*
X30289286Y-117516628D01*
X30289286Y-117516628D02*
X30289286Y-117469009D01*
X30289286Y-117469009D02*
X30336905Y-117373771D01*
X30336905Y-117373771D02*
X30432143Y-117326152D01*
X30432143Y-117326152D02*
X30575000Y-117326152D01*
X30575000Y-117326152D02*
X30670238Y-117373771D01*
X31146429Y-117992819D02*
X31146429Y-116992819D01*
X31575000Y-117992819D02*
X31575000Y-117469009D01*
X31575000Y-117469009D02*
X31527381Y-117373771D01*
X31527381Y-117373771D02*
X31432143Y-117326152D01*
X31432143Y-117326152D02*
X31289286Y-117326152D01*
X31289286Y-117326152D02*
X31194048Y-117373771D01*
X31194048Y-117373771D02*
X31146429Y-117421390D01*
X44577381Y-117945200D02*
X44720238Y-117992819D01*
X44720238Y-117992819D02*
X44958333Y-117992819D01*
X44958333Y-117992819D02*
X45053571Y-117945200D01*
X45053571Y-117945200D02*
X45101190Y-117897580D01*
X45101190Y-117897580D02*
X45148809Y-117802342D01*
X45148809Y-117802342D02*
X45148809Y-117707104D01*
X45148809Y-117707104D02*
X45101190Y-117611866D01*
X45101190Y-117611866D02*
X45053571Y-117564247D01*
X45053571Y-117564247D02*
X44958333Y-117516628D01*
X44958333Y-117516628D02*
X44767857Y-117469009D01*
X44767857Y-117469009D02*
X44672619Y-117421390D01*
X44672619Y-117421390D02*
X44625000Y-117373771D01*
X44625000Y-117373771D02*
X44577381Y-117278533D01*
X44577381Y-117278533D02*
X44577381Y-117183295D01*
X44577381Y-117183295D02*
X44625000Y-117088057D01*
X44625000Y-117088057D02*
X44672619Y-117040438D01*
X44672619Y-117040438D02*
X44767857Y-116992819D01*
X44767857Y-116992819D02*
X45005952Y-116992819D01*
X45005952Y-116992819D02*
X45148809Y-117040438D01*
X45482143Y-116992819D02*
X45720238Y-117992819D01*
X45720238Y-117992819D02*
X45910714Y-117278533D01*
X45910714Y-117278533D02*
X46101190Y-117992819D01*
X46101190Y-117992819D02*
X46339286Y-116992819D01*
X46482143Y-118088057D02*
X47244047Y-118088057D01*
X47482143Y-117992819D02*
X47482143Y-116992819D01*
X47482143Y-116992819D02*
X47863095Y-116992819D01*
X47863095Y-116992819D02*
X47958333Y-117040438D01*
X47958333Y-117040438D02*
X48005952Y-117088057D01*
X48005952Y-117088057D02*
X48053571Y-117183295D01*
X48053571Y-117183295D02*
X48053571Y-117326152D01*
X48053571Y-117326152D02*
X48005952Y-117421390D01*
X48005952Y-117421390D02*
X47958333Y-117469009D01*
X47958333Y-117469009D02*
X47863095Y-117516628D01*
X47863095Y-117516628D02*
X47482143Y-117516628D01*
X48910714Y-117326152D02*
X48910714Y-117992819D01*
X48482143Y-117326152D02*
X48482143Y-117849961D01*
X48482143Y-117849961D02*
X48529762Y-117945200D01*
X48529762Y-117945200D02*
X48625000Y-117992819D01*
X48625000Y-117992819D02*
X48767857Y-117992819D01*
X48767857Y-117992819D02*
X48863095Y-117945200D01*
X48863095Y-117945200D02*
X48910714Y-117897580D01*
X49339286Y-117945200D02*
X49434524Y-117992819D01*
X49434524Y-117992819D02*
X49625000Y-117992819D01*
X49625000Y-117992819D02*
X49720238Y-117945200D01*
X49720238Y-117945200D02*
X49767857Y-117849961D01*
X49767857Y-117849961D02*
X49767857Y-117802342D01*
X49767857Y-117802342D02*
X49720238Y-117707104D01*
X49720238Y-117707104D02*
X49625000Y-117659485D01*
X49625000Y-117659485D02*
X49482143Y-117659485D01*
X49482143Y-117659485D02*
X49386905Y-117611866D01*
X49386905Y-117611866D02*
X49339286Y-117516628D01*
X49339286Y-117516628D02*
X49339286Y-117469009D01*
X49339286Y-117469009D02*
X49386905Y-117373771D01*
X49386905Y-117373771D02*
X49482143Y-117326152D01*
X49482143Y-117326152D02*
X49625000Y-117326152D01*
X49625000Y-117326152D02*
X49720238Y-117373771D01*
X50196429Y-117992819D02*
X50196429Y-116992819D01*
X50625000Y-117992819D02*
X50625000Y-117469009D01*
X50625000Y-117469009D02*
X50577381Y-117373771D01*
X50577381Y-117373771D02*
X50482143Y-117326152D01*
X50482143Y-117326152D02*
X50339286Y-117326152D01*
X50339286Y-117326152D02*
X50244048Y-117373771D01*
X50244048Y-117373771D02*
X50196429Y-117421390D01*
X63627381Y-117945200D02*
X63770238Y-117992819D01*
X63770238Y-117992819D02*
X64008333Y-117992819D01*
X64008333Y-117992819D02*
X64103571Y-117945200D01*
X64103571Y-117945200D02*
X64151190Y-117897580D01*
X64151190Y-117897580D02*
X64198809Y-117802342D01*
X64198809Y-117802342D02*
X64198809Y-117707104D01*
X64198809Y-117707104D02*
X64151190Y-117611866D01*
X64151190Y-117611866D02*
X64103571Y-117564247D01*
X64103571Y-117564247D02*
X64008333Y-117516628D01*
X64008333Y-117516628D02*
X63817857Y-117469009D01*
X63817857Y-117469009D02*
X63722619Y-117421390D01*
X63722619Y-117421390D02*
X63675000Y-117373771D01*
X63675000Y-117373771D02*
X63627381Y-117278533D01*
X63627381Y-117278533D02*
X63627381Y-117183295D01*
X63627381Y-117183295D02*
X63675000Y-117088057D01*
X63675000Y-117088057D02*
X63722619Y-117040438D01*
X63722619Y-117040438D02*
X63817857Y-116992819D01*
X63817857Y-116992819D02*
X64055952Y-116992819D01*
X64055952Y-116992819D02*
X64198809Y-117040438D01*
X64532143Y-116992819D02*
X64770238Y-117992819D01*
X64770238Y-117992819D02*
X64960714Y-117278533D01*
X64960714Y-117278533D02*
X65151190Y-117992819D01*
X65151190Y-117992819D02*
X65389286Y-116992819D01*
X65532143Y-118088057D02*
X66294047Y-118088057D01*
X66532143Y-117992819D02*
X66532143Y-116992819D01*
X66532143Y-116992819D02*
X66913095Y-116992819D01*
X66913095Y-116992819D02*
X67008333Y-117040438D01*
X67008333Y-117040438D02*
X67055952Y-117088057D01*
X67055952Y-117088057D02*
X67103571Y-117183295D01*
X67103571Y-117183295D02*
X67103571Y-117326152D01*
X67103571Y-117326152D02*
X67055952Y-117421390D01*
X67055952Y-117421390D02*
X67008333Y-117469009D01*
X67008333Y-117469009D02*
X66913095Y-117516628D01*
X66913095Y-117516628D02*
X66532143Y-117516628D01*
X67960714Y-117326152D02*
X67960714Y-117992819D01*
X67532143Y-117326152D02*
X67532143Y-117849961D01*
X67532143Y-117849961D02*
X67579762Y-117945200D01*
X67579762Y-117945200D02*
X67675000Y-117992819D01*
X67675000Y-117992819D02*
X67817857Y-117992819D01*
X67817857Y-117992819D02*
X67913095Y-117945200D01*
X67913095Y-117945200D02*
X67960714Y-117897580D01*
X68389286Y-117945200D02*
X68484524Y-117992819D01*
X68484524Y-117992819D02*
X68675000Y-117992819D01*
X68675000Y-117992819D02*
X68770238Y-117945200D01*
X68770238Y-117945200D02*
X68817857Y-117849961D01*
X68817857Y-117849961D02*
X68817857Y-117802342D01*
X68817857Y-117802342D02*
X68770238Y-117707104D01*
X68770238Y-117707104D02*
X68675000Y-117659485D01*
X68675000Y-117659485D02*
X68532143Y-117659485D01*
X68532143Y-117659485D02*
X68436905Y-117611866D01*
X68436905Y-117611866D02*
X68389286Y-117516628D01*
X68389286Y-117516628D02*
X68389286Y-117469009D01*
X68389286Y-117469009D02*
X68436905Y-117373771D01*
X68436905Y-117373771D02*
X68532143Y-117326152D01*
X68532143Y-117326152D02*
X68675000Y-117326152D01*
X68675000Y-117326152D02*
X68770238Y-117373771D01*
X69246429Y-117992819D02*
X69246429Y-116992819D01*
X69675000Y-117992819D02*
X69675000Y-117469009D01*
X69675000Y-117469009D02*
X69627381Y-117373771D01*
X69627381Y-117373771D02*
X69532143Y-117326152D01*
X69532143Y-117326152D02*
X69389286Y-117326152D01*
X69389286Y-117326152D02*
X69294048Y-117373771D01*
X69294048Y-117373771D02*
X69246429Y-117421390D01*
X82677381Y-117945200D02*
X82820238Y-117992819D01*
X82820238Y-117992819D02*
X83058333Y-117992819D01*
X83058333Y-117992819D02*
X83153571Y-117945200D01*
X83153571Y-117945200D02*
X83201190Y-117897580D01*
X83201190Y-117897580D02*
X83248809Y-117802342D01*
X83248809Y-117802342D02*
X83248809Y-117707104D01*
X83248809Y-117707104D02*
X83201190Y-117611866D01*
X83201190Y-117611866D02*
X83153571Y-117564247D01*
X83153571Y-117564247D02*
X83058333Y-117516628D01*
X83058333Y-117516628D02*
X82867857Y-117469009D01*
X82867857Y-117469009D02*
X82772619Y-117421390D01*
X82772619Y-117421390D02*
X82725000Y-117373771D01*
X82725000Y-117373771D02*
X82677381Y-117278533D01*
X82677381Y-117278533D02*
X82677381Y-117183295D01*
X82677381Y-117183295D02*
X82725000Y-117088057D01*
X82725000Y-117088057D02*
X82772619Y-117040438D01*
X82772619Y-117040438D02*
X82867857Y-116992819D01*
X82867857Y-116992819D02*
X83105952Y-116992819D01*
X83105952Y-116992819D02*
X83248809Y-117040438D01*
X83582143Y-116992819D02*
X83820238Y-117992819D01*
X83820238Y-117992819D02*
X84010714Y-117278533D01*
X84010714Y-117278533D02*
X84201190Y-117992819D01*
X84201190Y-117992819D02*
X84439286Y-116992819D01*
X84582143Y-118088057D02*
X85344047Y-118088057D01*
X85582143Y-117992819D02*
X85582143Y-116992819D01*
X85582143Y-116992819D02*
X85963095Y-116992819D01*
X85963095Y-116992819D02*
X86058333Y-117040438D01*
X86058333Y-117040438D02*
X86105952Y-117088057D01*
X86105952Y-117088057D02*
X86153571Y-117183295D01*
X86153571Y-117183295D02*
X86153571Y-117326152D01*
X86153571Y-117326152D02*
X86105952Y-117421390D01*
X86105952Y-117421390D02*
X86058333Y-117469009D01*
X86058333Y-117469009D02*
X85963095Y-117516628D01*
X85963095Y-117516628D02*
X85582143Y-117516628D01*
X87010714Y-117326152D02*
X87010714Y-117992819D01*
X86582143Y-117326152D02*
X86582143Y-117849961D01*
X86582143Y-117849961D02*
X86629762Y-117945200D01*
X86629762Y-117945200D02*
X86725000Y-117992819D01*
X86725000Y-117992819D02*
X86867857Y-117992819D01*
X86867857Y-117992819D02*
X86963095Y-117945200D01*
X86963095Y-117945200D02*
X87010714Y-117897580D01*
X87439286Y-117945200D02*
X87534524Y-117992819D01*
X87534524Y-117992819D02*
X87725000Y-117992819D01*
X87725000Y-117992819D02*
X87820238Y-117945200D01*
X87820238Y-117945200D02*
X87867857Y-117849961D01*
X87867857Y-117849961D02*
X87867857Y-117802342D01*
X87867857Y-117802342D02*
X87820238Y-117707104D01*
X87820238Y-117707104D02*
X87725000Y-117659485D01*
X87725000Y-117659485D02*
X87582143Y-117659485D01*
X87582143Y-117659485D02*
X87486905Y-117611866D01*
X87486905Y-117611866D02*
X87439286Y-117516628D01*
X87439286Y-117516628D02*
X87439286Y-117469009D01*
X87439286Y-117469009D02*
X87486905Y-117373771D01*
X87486905Y-117373771D02*
X87582143Y-117326152D01*
X87582143Y-117326152D02*
X87725000Y-117326152D01*
X87725000Y-117326152D02*
X87820238Y-117373771D01*
X88296429Y-117992819D02*
X88296429Y-116992819D01*
X88725000Y-117992819D02*
X88725000Y-117469009D01*
X88725000Y-117469009D02*
X88677381Y-117373771D01*
X88677381Y-117373771D02*
X88582143Y-117326152D01*
X88582143Y-117326152D02*
X88439286Y-117326152D01*
X88439286Y-117326152D02*
X88344048Y-117373771D01*
X88344048Y-117373771D02*
X88296429Y-117421390D01*
X73535714Y40545180D02*
X73535714Y39735657D01*
X73535714Y39735657D02*
X73583333Y39640419D01*
X73583333Y39640419D02*
X73630952Y39592800D01*
X73630952Y39592800D02*
X73726190Y39545180D01*
X73726190Y39545180D02*
X73916666Y39545180D01*
X73916666Y39545180D02*
X74011904Y39592800D01*
X74011904Y39592800D02*
X74059523Y39640419D01*
X74059523Y39640419D02*
X74107142Y39735657D01*
X74107142Y39735657D02*
X74107142Y40545180D01*
X74630952Y39545180D02*
X74821428Y39545180D01*
X74821428Y39545180D02*
X74916666Y39592800D01*
X74916666Y39592800D02*
X74964285Y39640419D01*
X74964285Y39640419D02*
X75059523Y39783276D01*
X75059523Y39783276D02*
X75107142Y39973752D01*
X75107142Y39973752D02*
X75107142Y40354704D01*
X75107142Y40354704D02*
X75059523Y40449942D01*
X75059523Y40449942D02*
X75011904Y40497561D01*
X75011904Y40497561D02*
X74916666Y40545180D01*
X74916666Y40545180D02*
X74726190Y40545180D01*
X74726190Y40545180D02*
X74630952Y40497561D01*
X74630952Y40497561D02*
X74583333Y40449942D01*
X74583333Y40449942D02*
X74535714Y40354704D01*
X74535714Y40354704D02*
X74535714Y40116609D01*
X74535714Y40116609D02*
X74583333Y40021371D01*
X74583333Y40021371D02*
X74630952Y39973752D01*
X74630952Y39973752D02*
X74726190Y39926133D01*
X74726190Y39926133D02*
X74916666Y39926133D01*
X74916666Y39926133D02*
X75011904Y39973752D01*
X75011904Y39973752D02*
X75059523Y40021371D01*
X75059523Y40021371D02*
X75107142Y40116609D01*
X75726190Y40545180D02*
X75821428Y40545180D01*
X75821428Y40545180D02*
X75916666Y40497561D01*
X75916666Y40497561D02*
X75964285Y40449942D01*
X75964285Y40449942D02*
X76011904Y40354704D01*
X76011904Y40354704D02*
X76059523Y40164228D01*
X76059523Y40164228D02*
X76059523Y39926133D01*
X76059523Y39926133D02*
X76011904Y39735657D01*
X76011904Y39735657D02*
X75964285Y39640419D01*
X75964285Y39640419D02*
X75916666Y39592800D01*
X75916666Y39592800D02*
X75821428Y39545180D01*
X75821428Y39545180D02*
X75726190Y39545180D01*
X75726190Y39545180D02*
X75630952Y39592800D01*
X75630952Y39592800D02*
X75583333Y39640419D01*
X75583333Y39640419D02*
X75535714Y39735657D01*
X75535714Y39735657D02*
X75488095Y39926133D01*
X75488095Y39926133D02*
X75488095Y40164228D01*
X75488095Y40164228D02*
X75535714Y40354704D01*
X75535714Y40354704D02*
X75583333Y40449942D01*
X75583333Y40449942D02*
X75630952Y40497561D01*
X75630952Y40497561D02*
X75726190Y40545180D01*
X77011904Y39545180D02*
X76440476Y39545180D01*
X76726190Y39545180D02*
X76726190Y40545180D01*
X76726190Y40545180D02*
X76630952Y40402323D01*
X76630952Y40402323D02*
X76535714Y40307085D01*
X76535714Y40307085D02*
X76440476Y40259466D01*
X64535715Y-6931009D02*
X64869048Y-6931009D01*
X65011905Y-7454819D02*
X64535715Y-7454819D01*
X64535715Y-7454819D02*
X64535715Y-6454819D01*
X64535715Y-6454819D02*
X65011905Y-6454819D01*
X65392858Y-7407200D02*
X65535715Y-7454819D01*
X65535715Y-7454819D02*
X65773810Y-7454819D01*
X65773810Y-7454819D02*
X65869048Y-7407200D01*
X65869048Y-7407200D02*
X65916667Y-7359580D01*
X65916667Y-7359580D02*
X65964286Y-7264342D01*
X65964286Y-7264342D02*
X65964286Y-7169104D01*
X65964286Y-7169104D02*
X65916667Y-7073866D01*
X65916667Y-7073866D02*
X65869048Y-7026247D01*
X65869048Y-7026247D02*
X65773810Y-6978628D01*
X65773810Y-6978628D02*
X65583334Y-6931009D01*
X65583334Y-6931009D02*
X65488096Y-6883390D01*
X65488096Y-6883390D02*
X65440477Y-6835771D01*
X65440477Y-6835771D02*
X65392858Y-6740533D01*
X65392858Y-6740533D02*
X65392858Y-6645295D01*
X65392858Y-6645295D02*
X65440477Y-6550057D01*
X65440477Y-6550057D02*
X65488096Y-6502438D01*
X65488096Y-6502438D02*
X65583334Y-6454819D01*
X65583334Y-6454819D02*
X65821429Y-6454819D01*
X65821429Y-6454819D02*
X65964286Y-6502438D01*
X66392858Y-7454819D02*
X66392858Y-6454819D01*
X66392858Y-6454819D02*
X66773810Y-6454819D01*
X66773810Y-6454819D02*
X66869048Y-6502438D01*
X66869048Y-6502438D02*
X66916667Y-6550057D01*
X66916667Y-6550057D02*
X66964286Y-6645295D01*
X66964286Y-6645295D02*
X66964286Y-6788152D01*
X66964286Y-6788152D02*
X66916667Y-6883390D01*
X66916667Y-6883390D02*
X66869048Y-6931009D01*
X66869048Y-6931009D02*
X66773810Y-6978628D01*
X66773810Y-6978628D02*
X66392858Y-6978628D01*
X67297620Y-6454819D02*
X67916667Y-6454819D01*
X67916667Y-6454819D02*
X67583334Y-6835771D01*
X67583334Y-6835771D02*
X67726191Y-6835771D01*
X67726191Y-6835771D02*
X67821429Y-6883390D01*
X67821429Y-6883390D02*
X67869048Y-6931009D01*
X67869048Y-6931009D02*
X67916667Y-7026247D01*
X67916667Y-7026247D02*
X67916667Y-7264342D01*
X67916667Y-7264342D02*
X67869048Y-7359580D01*
X67869048Y-7359580D02*
X67821429Y-7407200D01*
X67821429Y-7407200D02*
X67726191Y-7454819D01*
X67726191Y-7454819D02*
X67440477Y-7454819D01*
X67440477Y-7454819D02*
X67345239Y-7407200D01*
X67345239Y-7407200D02*
X67297620Y-7359580D01*
X68297620Y-6550057D02*
X68345239Y-6502438D01*
X68345239Y-6502438D02*
X68440477Y-6454819D01*
X68440477Y-6454819D02*
X68678572Y-6454819D01*
X68678572Y-6454819D02*
X68773810Y-6502438D01*
X68773810Y-6502438D02*
X68821429Y-6550057D01*
X68821429Y-6550057D02*
X68869048Y-6645295D01*
X68869048Y-6645295D02*
X68869048Y-6740533D01*
X68869048Y-6740533D02*
X68821429Y-6883390D01*
X68821429Y-6883390D02*
X68250001Y-7454819D01*
X68250001Y-7454819D02*
X68869048Y-7454819D01*
X69297620Y-7073866D02*
X70059525Y-7073866D01*
X70488096Y-7407200D02*
X70630953Y-7454819D01*
X70630953Y-7454819D02*
X70869048Y-7454819D01*
X70869048Y-7454819D02*
X70964286Y-7407200D01*
X70964286Y-7407200D02*
X71011905Y-7359580D01*
X71011905Y-7359580D02*
X71059524Y-7264342D01*
X71059524Y-7264342D02*
X71059524Y-7169104D01*
X71059524Y-7169104D02*
X71011905Y-7073866D01*
X71011905Y-7073866D02*
X70964286Y-7026247D01*
X70964286Y-7026247D02*
X70869048Y-6978628D01*
X70869048Y-6978628D02*
X70678572Y-6931009D01*
X70678572Y-6931009D02*
X70583334Y-6883390D01*
X70583334Y-6883390D02*
X70535715Y-6835771D01*
X70535715Y-6835771D02*
X70488096Y-6740533D01*
X70488096Y-6740533D02*
X70488096Y-6645295D01*
X70488096Y-6645295D02*
X70535715Y-6550057D01*
X70535715Y-6550057D02*
X70583334Y-6502438D01*
X70583334Y-6502438D02*
X70678572Y-6454819D01*
X70678572Y-6454819D02*
X70916667Y-6454819D01*
X70916667Y-6454819D02*
X71059524Y-6502438D01*
X71392858Y-6454819D02*
X72011905Y-6454819D01*
X72011905Y-6454819D02*
X71678572Y-6835771D01*
X71678572Y-6835771D02*
X71821429Y-6835771D01*
X71821429Y-6835771D02*
X71916667Y-6883390D01*
X71916667Y-6883390D02*
X71964286Y-6931009D01*
X71964286Y-6931009D02*
X72011905Y-7026247D01*
X72011905Y-7026247D02*
X72011905Y-7264342D01*
X72011905Y-7264342D02*
X71964286Y-7359580D01*
X71964286Y-7359580D02*
X71916667Y-7407200D01*
X71916667Y-7407200D02*
X71821429Y-7454819D01*
X71821429Y-7454819D02*
X71535715Y-7454819D01*
X71535715Y-7454819D02*
X71440477Y-7407200D01*
X71440477Y-7407200D02*
X71392858Y-7359580D01*
X72440477Y-7073866D02*
X73202382Y-7073866D01*
X73583334Y-6454819D02*
X73821429Y-7454819D01*
X73821429Y-7454819D02*
X74011905Y-6740533D01*
X74011905Y-6740533D02*
X74202381Y-7454819D01*
X74202381Y-7454819D02*
X74440477Y-6454819D01*
X75392857Y-7454819D02*
X75059524Y-6978628D01*
X74821429Y-7454819D02*
X74821429Y-6454819D01*
X74821429Y-6454819D02*
X75202381Y-6454819D01*
X75202381Y-6454819D02*
X75297619Y-6502438D01*
X75297619Y-6502438D02*
X75345238Y-6550057D01*
X75345238Y-6550057D02*
X75392857Y-6645295D01*
X75392857Y-6645295D02*
X75392857Y-6788152D01*
X75392857Y-6788152D02*
X75345238Y-6883390D01*
X75345238Y-6883390D02*
X75297619Y-6931009D01*
X75297619Y-6931009D02*
X75202381Y-6978628D01*
X75202381Y-6978628D02*
X74821429Y-6978628D01*
X76011905Y-6454819D02*
X76202381Y-6454819D01*
X76202381Y-6454819D02*
X76297619Y-6502438D01*
X76297619Y-6502438D02*
X76392857Y-6597676D01*
X76392857Y-6597676D02*
X76440476Y-6788152D01*
X76440476Y-6788152D02*
X76440476Y-7121485D01*
X76440476Y-7121485D02*
X76392857Y-7311961D01*
X76392857Y-7311961D02*
X76297619Y-7407200D01*
X76297619Y-7407200D02*
X76202381Y-7454819D01*
X76202381Y-7454819D02*
X76011905Y-7454819D01*
X76011905Y-7454819D02*
X75916667Y-7407200D01*
X75916667Y-7407200D02*
X75821429Y-7311961D01*
X75821429Y-7311961D02*
X75773810Y-7121485D01*
X75773810Y-7121485D02*
X75773810Y-6788152D01*
X75773810Y-6788152D02*
X75821429Y-6597676D01*
X75821429Y-6597676D02*
X75916667Y-6502438D01*
X75916667Y-6502438D02*
X76011905Y-6454819D01*
X77059524Y-6454819D02*
X77250000Y-6454819D01*
X77250000Y-6454819D02*
X77345238Y-6502438D01*
X77345238Y-6502438D02*
X77440476Y-6597676D01*
X77440476Y-6597676D02*
X77488095Y-6788152D01*
X77488095Y-6788152D02*
X77488095Y-7121485D01*
X77488095Y-7121485D02*
X77440476Y-7311961D01*
X77440476Y-7311961D02*
X77345238Y-7407200D01*
X77345238Y-7407200D02*
X77250000Y-7454819D01*
X77250000Y-7454819D02*
X77059524Y-7454819D01*
X77059524Y-7454819D02*
X76964286Y-7407200D01*
X76964286Y-7407200D02*
X76869048Y-7311961D01*
X76869048Y-7311961D02*
X76821429Y-7121485D01*
X76821429Y-7121485D02*
X76821429Y-6788152D01*
X76821429Y-6788152D02*
X76869048Y-6597676D01*
X76869048Y-6597676D02*
X76964286Y-6502438D01*
X76964286Y-6502438D02*
X77059524Y-6454819D01*
X77916667Y-7454819D02*
X77916667Y-6454819D01*
X77916667Y-6454819D02*
X78250000Y-7169104D01*
X78250000Y-7169104D02*
X78583333Y-6454819D01*
X78583333Y-6454819D02*
X78583333Y-7454819D01*
X79059524Y-7073866D02*
X79821429Y-7073866D01*
X80821428Y-7454819D02*
X80250000Y-7454819D01*
X80535714Y-7454819D02*
X80535714Y-6454819D01*
X80535714Y-6454819D02*
X80440476Y-6597676D01*
X80440476Y-6597676D02*
X80345238Y-6692914D01*
X80345238Y-6692914D02*
X80250000Y-6740533D01*
X81250000Y-7073866D02*
X82011905Y-7073866D01*
X82488095Y-7454819D02*
X82488095Y-6454819D01*
X82488095Y-6454819D02*
X83059523Y-7454819D01*
X83059523Y-7454819D02*
X83059523Y-6454819D01*
X83678571Y-6883390D02*
X83583333Y-6835771D01*
X83583333Y-6835771D02*
X83535714Y-6788152D01*
X83535714Y-6788152D02*
X83488095Y-6692914D01*
X83488095Y-6692914D02*
X83488095Y-6645295D01*
X83488095Y-6645295D02*
X83535714Y-6550057D01*
X83535714Y-6550057D02*
X83583333Y-6502438D01*
X83583333Y-6502438D02*
X83678571Y-6454819D01*
X83678571Y-6454819D02*
X83869047Y-6454819D01*
X83869047Y-6454819D02*
X83964285Y-6502438D01*
X83964285Y-6502438D02*
X84011904Y-6550057D01*
X84011904Y-6550057D02*
X84059523Y-6645295D01*
X84059523Y-6645295D02*
X84059523Y-6692914D01*
X84059523Y-6692914D02*
X84011904Y-6788152D01*
X84011904Y-6788152D02*
X83964285Y-6835771D01*
X83964285Y-6835771D02*
X83869047Y-6883390D01*
X83869047Y-6883390D02*
X83678571Y-6883390D01*
X83678571Y-6883390D02*
X83583333Y-6931009D01*
X83583333Y-6931009D02*
X83535714Y-6978628D01*
X83535714Y-6978628D02*
X83488095Y-7073866D01*
X83488095Y-7073866D02*
X83488095Y-7264342D01*
X83488095Y-7264342D02*
X83535714Y-7359580D01*
X83535714Y-7359580D02*
X83583333Y-7407200D01*
X83583333Y-7407200D02*
X83678571Y-7454819D01*
X83678571Y-7454819D02*
X83869047Y-7454819D01*
X83869047Y-7454819D02*
X83964285Y-7407200D01*
X83964285Y-7407200D02*
X84011904Y-7359580D01*
X84011904Y-7359580D02*
X84059523Y-7264342D01*
X84059523Y-7264342D02*
X84059523Y-7073866D01*
X84059523Y-7073866D02*
X84011904Y-6978628D01*
X84011904Y-6978628D02*
X83964285Y-6931009D01*
X83964285Y-6931009D02*
X83869047Y-6883390D01*
X85059523Y-7454819D02*
X84726190Y-6978628D01*
X84488095Y-7454819D02*
X84488095Y-6454819D01*
X84488095Y-6454819D02*
X84869047Y-6454819D01*
X84869047Y-6454819D02*
X84964285Y-6502438D01*
X84964285Y-6502438D02*
X85011904Y-6550057D01*
X85011904Y-6550057D02*
X85059523Y-6645295D01*
X85059523Y-6645295D02*
X85059523Y-6788152D01*
X85059523Y-6788152D02*
X85011904Y-6883390D01*
X85011904Y-6883390D02*
X84964285Y-6931009D01*
X84964285Y-6931009D02*
X84869047Y-6978628D01*
X84869047Y-6978628D02*
X84488095Y-6978628D01*
X85630952Y-6883390D02*
X85535714Y-6835771D01*
X85535714Y-6835771D02*
X85488095Y-6788152D01*
X85488095Y-6788152D02*
X85440476Y-6692914D01*
X85440476Y-6692914D02*
X85440476Y-6645295D01*
X85440476Y-6645295D02*
X85488095Y-6550057D01*
X85488095Y-6550057D02*
X85535714Y-6502438D01*
X85535714Y-6502438D02*
X85630952Y-6454819D01*
X85630952Y-6454819D02*
X85821428Y-6454819D01*
X85821428Y-6454819D02*
X85916666Y-6502438D01*
X85916666Y-6502438D02*
X85964285Y-6550057D01*
X85964285Y-6550057D02*
X86011904Y-6645295D01*
X86011904Y-6645295D02*
X86011904Y-6692914D01*
X86011904Y-6692914D02*
X85964285Y-6788152D01*
X85964285Y-6788152D02*
X85916666Y-6835771D01*
X85916666Y-6835771D02*
X85821428Y-6883390D01*
X85821428Y-6883390D02*
X85630952Y-6883390D01*
X85630952Y-6883390D02*
X85535714Y-6931009D01*
X85535714Y-6931009D02*
X85488095Y-6978628D01*
X85488095Y-6978628D02*
X85440476Y-7073866D01*
X85440476Y-7073866D02*
X85440476Y-7264342D01*
X85440476Y-7264342D02*
X85488095Y-7359580D01*
X85488095Y-7359580D02*
X85535714Y-7407200D01*
X85535714Y-7407200D02*
X85630952Y-7454819D01*
X85630952Y-7454819D02*
X85821428Y-7454819D01*
X85821428Y-7454819D02*
X85916666Y-7407200D01*
X85916666Y-7407200D02*
X85964285Y-7359580D01*
X85964285Y-7359580D02*
X86011904Y-7264342D01*
X86011904Y-7264342D02*
X86011904Y-7073866D01*
X86011904Y-7073866D02*
X85964285Y-6978628D01*
X85964285Y-6978628D02*
X85916666Y-6931009D01*
X85916666Y-6931009D02*
X85821428Y-6883390D01*
X90392857Y19545180D02*
X90392857Y20545180D01*
X91440475Y19545180D02*
X91107142Y20021371D01*
X90869047Y19545180D02*
X90869047Y20545180D01*
X90869047Y20545180D02*
X91249999Y20545180D01*
X91249999Y20545180D02*
X91345237Y20497561D01*
X91345237Y20497561D02*
X91392856Y20449942D01*
X91392856Y20449942D02*
X91440475Y20354704D01*
X91440475Y20354704D02*
X91440475Y20211847D01*
X91440475Y20211847D02*
X91392856Y20116609D01*
X91392856Y20116609D02*
X91345237Y20068990D01*
X91345237Y20068990D02*
X91249999Y20021371D01*
X91249999Y20021371D02*
X90869047Y20021371D01*
X91630952Y19449942D02*
X92392856Y19449942D01*
X93202380Y19545180D02*
X92869047Y20021371D01*
X92630952Y19545180D02*
X92630952Y20545180D01*
X92630952Y20545180D02*
X93011904Y20545180D01*
X93011904Y20545180D02*
X93107142Y20497561D01*
X93107142Y20497561D02*
X93154761Y20449942D01*
X93154761Y20449942D02*
X93202380Y20354704D01*
X93202380Y20354704D02*
X93202380Y20211847D01*
X93202380Y20211847D02*
X93154761Y20116609D01*
X93154761Y20116609D02*
X93107142Y20068990D01*
X93107142Y20068990D02*
X93011904Y20021371D01*
X93011904Y20021371D02*
X92630952Y20021371D01*
X93535714Y20545180D02*
X94202380Y19545180D01*
X94202380Y20545180D02*
X93535714Y19545180D01*
X90511905Y9545180D02*
X90511905Y10545180D01*
X91559523Y9545180D02*
X91226190Y10021371D01*
X90988095Y9545180D02*
X90988095Y10545180D01*
X90988095Y10545180D02*
X91369047Y10545180D01*
X91369047Y10545180D02*
X91464285Y10497561D01*
X91464285Y10497561D02*
X91511904Y10449942D01*
X91511904Y10449942D02*
X91559523Y10354704D01*
X91559523Y10354704D02*
X91559523Y10211847D01*
X91559523Y10211847D02*
X91511904Y10116609D01*
X91511904Y10116609D02*
X91464285Y10068990D01*
X91464285Y10068990D02*
X91369047Y10021371D01*
X91369047Y10021371D02*
X90988095Y10021371D01*
X91750000Y9449942D02*
X92511904Y9449942D01*
X92607143Y10545180D02*
X93178571Y10545180D01*
X92892857Y9545180D02*
X92892857Y10545180D01*
X93416667Y10545180D02*
X94083333Y9545180D01*
X94083333Y10545180D02*
X93416667Y9545180D01*
X89011904Y-454819D02*
X88535714Y-454819D01*
X88535714Y-454819D02*
X88535714Y545180D01*
X89345238Y68990D02*
X89678571Y68990D01*
X89821428Y-454819D02*
X89345238Y-454819D01*
X89345238Y-454819D02*
X89345238Y545180D01*
X89345238Y545180D02*
X89821428Y545180D01*
X90250000Y-454819D02*
X90250000Y545180D01*
X90250000Y545180D02*
X90488095Y545180D01*
X90488095Y545180D02*
X90630952Y497561D01*
X90630952Y497561D02*
X90726190Y402323D01*
X90726190Y402323D02*
X90773809Y307085D01*
X90773809Y307085D02*
X90821428Y116609D01*
X90821428Y116609D02*
X90821428Y-26247D01*
X90821428Y-26247D02*
X90773809Y-216723D01*
X90773809Y-216723D02*
X90726190Y-311961D01*
X90726190Y-311961D02*
X90630952Y-407200D01*
X90630952Y-407200D02*
X90488095Y-454819D01*
X90488095Y-454819D02*
X90250000Y-454819D01*
X91011905Y-550057D02*
X91773809Y-550057D01*
X92583333Y-359580D02*
X92535714Y-407200D01*
X92535714Y-407200D02*
X92392857Y-454819D01*
X92392857Y-454819D02*
X92297619Y-454819D01*
X92297619Y-454819D02*
X92154762Y-407200D01*
X92154762Y-407200D02*
X92059524Y-311961D01*
X92059524Y-311961D02*
X92011905Y-216723D01*
X92011905Y-216723D02*
X91964286Y-26247D01*
X91964286Y-26247D02*
X91964286Y116609D01*
X91964286Y116609D02*
X92011905Y307085D01*
X92011905Y307085D02*
X92059524Y402323D01*
X92059524Y402323D02*
X92154762Y497561D01*
X92154762Y497561D02*
X92297619Y545180D01*
X92297619Y545180D02*
X92392857Y545180D01*
X92392857Y545180D02*
X92535714Y497561D01*
X92535714Y497561D02*
X92583333Y449942D01*
X93011905Y-454819D02*
X93011905Y545180D01*
X93011905Y68990D02*
X93583333Y68990D01*
X93583333Y-454819D02*
X93583333Y545180D01*
X94011905Y-169104D02*
X94488095Y-169104D01*
X93916667Y-454819D02*
X94250000Y545180D01*
X94250000Y545180D02*
X94583333Y-454819D01*
X94916667Y-454819D02*
X94916667Y545180D01*
X95392857Y-454819D02*
X95392857Y545180D01*
X95392857Y545180D02*
X95964285Y-454819D01*
X95964285Y-454819D02*
X95964285Y545180D01*
X89964285Y-10454819D02*
X89488095Y-10454819D01*
X89488095Y-10454819D02*
X89488095Y-9454819D01*
X90869047Y-10359580D02*
X90821428Y-10407200D01*
X90821428Y-10407200D02*
X90678571Y-10454819D01*
X90678571Y-10454819D02*
X90583333Y-10454819D01*
X90583333Y-10454819D02*
X90440476Y-10407200D01*
X90440476Y-10407200D02*
X90345238Y-10311961D01*
X90345238Y-10311961D02*
X90297619Y-10216723D01*
X90297619Y-10216723D02*
X90250000Y-10026247D01*
X90250000Y-10026247D02*
X90250000Y-9883390D01*
X90250000Y-9883390D02*
X90297619Y-9692914D01*
X90297619Y-9692914D02*
X90345238Y-9597676D01*
X90345238Y-9597676D02*
X90440476Y-9502438D01*
X90440476Y-9502438D02*
X90583333Y-9454819D01*
X90583333Y-9454819D02*
X90678571Y-9454819D01*
X90678571Y-9454819D02*
X90821428Y-9502438D01*
X90821428Y-9502438D02*
X90869047Y-9550057D01*
X91297619Y-10454819D02*
X91297619Y-9454819D01*
X91297619Y-9454819D02*
X91535714Y-9454819D01*
X91535714Y-9454819D02*
X91678571Y-9502438D01*
X91678571Y-9502438D02*
X91773809Y-9597676D01*
X91773809Y-9597676D02*
X91821428Y-9692914D01*
X91821428Y-9692914D02*
X91869047Y-9883390D01*
X91869047Y-9883390D02*
X91869047Y-10026247D01*
X91869047Y-10026247D02*
X91821428Y-10216723D01*
X91821428Y-10216723D02*
X91773809Y-10311961D01*
X91773809Y-10311961D02*
X91678571Y-10407200D01*
X91678571Y-10407200D02*
X91535714Y-10454819D01*
X91535714Y-10454819D02*
X91297619Y-10454819D01*
X92059524Y-10550057D02*
X92821428Y-10550057D01*
X93059524Y-10454819D02*
X93059524Y-9454819D01*
X93488095Y-9550057D02*
X93535714Y-9502438D01*
X93535714Y-9502438D02*
X93630952Y-9454819D01*
X93630952Y-9454819D02*
X93869047Y-9454819D01*
X93869047Y-9454819D02*
X93964285Y-9502438D01*
X93964285Y-9502438D02*
X94011904Y-9550057D01*
X94011904Y-9550057D02*
X94059523Y-9645295D01*
X94059523Y-9645295D02*
X94059523Y-9740533D01*
X94059523Y-9740533D02*
X94011904Y-9883390D01*
X94011904Y-9883390D02*
X93440476Y-10454819D01*
X93440476Y-10454819D02*
X94059523Y-10454819D01*
X95059523Y-10359580D02*
X95011904Y-10407200D01*
X95011904Y-10407200D02*
X94869047Y-10454819D01*
X94869047Y-10454819D02*
X94773809Y-10454819D01*
X94773809Y-10454819D02*
X94630952Y-10407200D01*
X94630952Y-10407200D02*
X94535714Y-10311961D01*
X94535714Y-10311961D02*
X94488095Y-10216723D01*
X94488095Y-10216723D02*
X94440476Y-10026247D01*
X94440476Y-10026247D02*
X94440476Y-9883390D01*
X94440476Y-9883390D02*
X94488095Y-9692914D01*
X94488095Y-9692914D02*
X94535714Y-9597676D01*
X94535714Y-9597676D02*
X94630952Y-9502438D01*
X94630952Y-9502438D02*
X94773809Y-9454819D01*
X94773809Y-9454819D02*
X94869047Y-9454819D01*
X94869047Y-9454819D02*
X95011904Y-9502438D01*
X95011904Y-9502438D02*
X95059523Y-9550057D01*
X17702380Y-12801009D02*
X17845237Y-12848628D01*
X17845237Y-12848628D02*
X17892856Y-12896247D01*
X17892856Y-12896247D02*
X17940475Y-12991485D01*
X17940475Y-12991485D02*
X17940475Y-13134342D01*
X17940475Y-13134342D02*
X17892856Y-13229580D01*
X17892856Y-13229580D02*
X17845237Y-13277200D01*
X17845237Y-13277200D02*
X17749999Y-13324819D01*
X17749999Y-13324819D02*
X17369047Y-13324819D01*
X17369047Y-13324819D02*
X17369047Y-12324819D01*
X17369047Y-12324819D02*
X17702380Y-12324819D01*
X17702380Y-12324819D02*
X17797618Y-12372438D01*
X17797618Y-12372438D02*
X17845237Y-12420057D01*
X17845237Y-12420057D02*
X17892856Y-12515295D01*
X17892856Y-12515295D02*
X17892856Y-12610533D01*
X17892856Y-12610533D02*
X17845237Y-12705771D01*
X17845237Y-12705771D02*
X17797618Y-12753390D01*
X17797618Y-12753390D02*
X17702380Y-12801009D01*
X17702380Y-12801009D02*
X17369047Y-12801009D01*
X18321428Y-13039104D02*
X18797618Y-13039104D01*
X18226190Y-13324819D02*
X18559523Y-12324819D01*
X18559523Y-12324819D02*
X18892856Y-13324819D01*
X19083333Y-12324819D02*
X19654761Y-12324819D01*
X19369047Y-13324819D02*
X19369047Y-12324819D01*
X19845238Y-12324819D02*
X20416666Y-12324819D01*
X20130952Y-13324819D02*
X20130952Y-12324819D01*
X20750000Y-12801009D02*
X21083333Y-12801009D01*
X21226190Y-13324819D02*
X20750000Y-13324819D01*
X20750000Y-13324819D02*
X20750000Y-12324819D01*
X20750000Y-12324819D02*
X21226190Y-12324819D01*
X22226190Y-13324819D02*
X21892857Y-12848628D01*
X21654762Y-13324819D02*
X21654762Y-12324819D01*
X21654762Y-12324819D02*
X22035714Y-12324819D01*
X22035714Y-12324819D02*
X22130952Y-12372438D01*
X22130952Y-12372438D02*
X22178571Y-12420057D01*
X22178571Y-12420057D02*
X22226190Y-12515295D01*
X22226190Y-12515295D02*
X22226190Y-12658152D01*
X22226190Y-12658152D02*
X22178571Y-12753390D01*
X22178571Y-12753390D02*
X22130952Y-12801009D01*
X22130952Y-12801009D02*
X22035714Y-12848628D01*
X22035714Y-12848628D02*
X21654762Y-12848628D01*
X22845238Y-12848628D02*
X22845238Y-13324819D01*
X22511905Y-12324819D02*
X22845238Y-12848628D01*
X22845238Y-12848628D02*
X23178571Y-12324819D01*
X23273810Y-13420057D02*
X24035714Y-13420057D01*
X24750000Y-13324819D02*
X24273810Y-13324819D01*
X24273810Y-13324819D02*
X24273810Y-12324819D01*
X25083334Y-13324819D02*
X25083334Y-12324819D01*
X25559524Y-13324819D02*
X25559524Y-12324819D01*
X25559524Y-12324819D02*
X25940476Y-12324819D01*
X25940476Y-12324819D02*
X26035714Y-12372438D01*
X26035714Y-12372438D02*
X26083333Y-12420057D01*
X26083333Y-12420057D02*
X26130952Y-12515295D01*
X26130952Y-12515295D02*
X26130952Y-12658152D01*
X26130952Y-12658152D02*
X26083333Y-12753390D01*
X26083333Y-12753390D02*
X26035714Y-12801009D01*
X26035714Y-12801009D02*
X25940476Y-12848628D01*
X25940476Y-12848628D02*
X25559524Y-12848628D01*
X26750000Y-12324819D02*
X26940476Y-12324819D01*
X26940476Y-12324819D02*
X27035714Y-12372438D01*
X27035714Y-12372438D02*
X27130952Y-12467676D01*
X27130952Y-12467676D02*
X27178571Y-12658152D01*
X27178571Y-12658152D02*
X27178571Y-12991485D01*
X27178571Y-12991485D02*
X27130952Y-13181961D01*
X27130952Y-13181961D02*
X27035714Y-13277200D01*
X27035714Y-13277200D02*
X26940476Y-13324819D01*
X26940476Y-13324819D02*
X26750000Y-13324819D01*
X26750000Y-13324819D02*
X26654762Y-13277200D01*
X26654762Y-13277200D02*
X26559524Y-13181961D01*
X26559524Y-13181961D02*
X26511905Y-12991485D01*
X26511905Y-12991485D02*
X26511905Y-12658152D01*
X26511905Y-12658152D02*
X26559524Y-12467676D01*
X26559524Y-12467676D02*
X26654762Y-12372438D01*
X26654762Y-12372438D02*
X26750000Y-12324819D01*
X16821428Y-20931009D02*
X16964285Y-20978628D01*
X16964285Y-20978628D02*
X17011904Y-21026247D01*
X17011904Y-21026247D02*
X17059523Y-21121485D01*
X17059523Y-21121485D02*
X17059523Y-21264342D01*
X17059523Y-21264342D02*
X17011904Y-21359580D01*
X17011904Y-21359580D02*
X16964285Y-21407200D01*
X16964285Y-21407200D02*
X16869047Y-21454819D01*
X16869047Y-21454819D02*
X16488095Y-21454819D01*
X16488095Y-21454819D02*
X16488095Y-20454819D01*
X16488095Y-20454819D02*
X16821428Y-20454819D01*
X16821428Y-20454819D02*
X16916666Y-20502438D01*
X16916666Y-20502438D02*
X16964285Y-20550057D01*
X16964285Y-20550057D02*
X17011904Y-20645295D01*
X17011904Y-20645295D02*
X17011904Y-20740533D01*
X17011904Y-20740533D02*
X16964285Y-20835771D01*
X16964285Y-20835771D02*
X16916666Y-20883390D01*
X16916666Y-20883390D02*
X16821428Y-20931009D01*
X16821428Y-20931009D02*
X16488095Y-20931009D01*
X17440476Y-21169104D02*
X17916666Y-21169104D01*
X17345238Y-21454819D02*
X17678571Y-20454819D01*
X17678571Y-20454819D02*
X18011904Y-21454819D01*
X18202381Y-20454819D02*
X18773809Y-20454819D01*
X18488095Y-21454819D02*
X18488095Y-20454819D01*
X18869048Y-21550057D02*
X19630952Y-21550057D01*
X20440476Y-21359580D02*
X20392857Y-21407200D01*
X20392857Y-21407200D02*
X20250000Y-21454819D01*
X20250000Y-21454819D02*
X20154762Y-21454819D01*
X20154762Y-21454819D02*
X20011905Y-21407200D01*
X20011905Y-21407200D02*
X19916667Y-21311961D01*
X19916667Y-21311961D02*
X19869048Y-21216723D01*
X19869048Y-21216723D02*
X19821429Y-21026247D01*
X19821429Y-21026247D02*
X19821429Y-20883390D01*
X19821429Y-20883390D02*
X19869048Y-20692914D01*
X19869048Y-20692914D02*
X19916667Y-20597676D01*
X19916667Y-20597676D02*
X20011905Y-20502438D01*
X20011905Y-20502438D02*
X20154762Y-20454819D01*
X20154762Y-20454819D02*
X20250000Y-20454819D01*
X20250000Y-20454819D02*
X20392857Y-20502438D01*
X20392857Y-20502438D02*
X20440476Y-20550057D01*
X20869048Y-21454819D02*
X20869048Y-20454819D01*
X20869048Y-20931009D02*
X21440476Y-20931009D01*
X21440476Y-21454819D02*
X21440476Y-20454819D01*
X22440476Y-20502438D02*
X22345238Y-20454819D01*
X22345238Y-20454819D02*
X22202381Y-20454819D01*
X22202381Y-20454819D02*
X22059524Y-20502438D01*
X22059524Y-20502438D02*
X21964286Y-20597676D01*
X21964286Y-20597676D02*
X21916667Y-20692914D01*
X21916667Y-20692914D02*
X21869048Y-20883390D01*
X21869048Y-20883390D02*
X21869048Y-21026247D01*
X21869048Y-21026247D02*
X21916667Y-21216723D01*
X21916667Y-21216723D02*
X21964286Y-21311961D01*
X21964286Y-21311961D02*
X22059524Y-21407200D01*
X22059524Y-21407200D02*
X22202381Y-21454819D01*
X22202381Y-21454819D02*
X22297619Y-21454819D01*
X22297619Y-21454819D02*
X22440476Y-21407200D01*
X22440476Y-21407200D02*
X22488095Y-21359580D01*
X22488095Y-21359580D02*
X22488095Y-21026247D01*
X22488095Y-21026247D02*
X22297619Y-21026247D01*
X22678572Y-21550057D02*
X23440476Y-21550057D01*
X24011905Y-20931009D02*
X24154762Y-20978628D01*
X24154762Y-20978628D02*
X24202381Y-21026247D01*
X24202381Y-21026247D02*
X24250000Y-21121485D01*
X24250000Y-21121485D02*
X24250000Y-21264342D01*
X24250000Y-21264342D02*
X24202381Y-21359580D01*
X24202381Y-21359580D02*
X24154762Y-21407200D01*
X24154762Y-21407200D02*
X24059524Y-21454819D01*
X24059524Y-21454819D02*
X23678572Y-21454819D01*
X23678572Y-21454819D02*
X23678572Y-20454819D01*
X23678572Y-20454819D02*
X24011905Y-20454819D01*
X24011905Y-20454819D02*
X24107143Y-20502438D01*
X24107143Y-20502438D02*
X24154762Y-20550057D01*
X24154762Y-20550057D02*
X24202381Y-20645295D01*
X24202381Y-20645295D02*
X24202381Y-20740533D01*
X24202381Y-20740533D02*
X24154762Y-20835771D01*
X24154762Y-20835771D02*
X24107143Y-20883390D01*
X24107143Y-20883390D02*
X24011905Y-20931009D01*
X24011905Y-20931009D02*
X23678572Y-20931009D01*
X24869048Y-20454819D02*
X25059524Y-20454819D01*
X25059524Y-20454819D02*
X25154762Y-20502438D01*
X25154762Y-20502438D02*
X25250000Y-20597676D01*
X25250000Y-20597676D02*
X25297619Y-20788152D01*
X25297619Y-20788152D02*
X25297619Y-21121485D01*
X25297619Y-21121485D02*
X25250000Y-21311961D01*
X25250000Y-21311961D02*
X25154762Y-21407200D01*
X25154762Y-21407200D02*
X25059524Y-21454819D01*
X25059524Y-21454819D02*
X24869048Y-21454819D01*
X24869048Y-21454819D02*
X24773810Y-21407200D01*
X24773810Y-21407200D02*
X24678572Y-21311961D01*
X24678572Y-21311961D02*
X24630953Y-21121485D01*
X24630953Y-21121485D02*
X24630953Y-20788152D01*
X24630953Y-20788152D02*
X24678572Y-20597676D01*
X24678572Y-20597676D02*
X24773810Y-20502438D01*
X24773810Y-20502438D02*
X24869048Y-20454819D01*
X25916667Y-20454819D02*
X26107143Y-20454819D01*
X26107143Y-20454819D02*
X26202381Y-20502438D01*
X26202381Y-20502438D02*
X26297619Y-20597676D01*
X26297619Y-20597676D02*
X26345238Y-20788152D01*
X26345238Y-20788152D02*
X26345238Y-21121485D01*
X26345238Y-21121485D02*
X26297619Y-21311961D01*
X26297619Y-21311961D02*
X26202381Y-21407200D01*
X26202381Y-21407200D02*
X26107143Y-21454819D01*
X26107143Y-21454819D02*
X25916667Y-21454819D01*
X25916667Y-21454819D02*
X25821429Y-21407200D01*
X25821429Y-21407200D02*
X25726191Y-21311961D01*
X25726191Y-21311961D02*
X25678572Y-21121485D01*
X25678572Y-21121485D02*
X25678572Y-20788152D01*
X25678572Y-20788152D02*
X25726191Y-20597676D01*
X25726191Y-20597676D02*
X25821429Y-20502438D01*
X25821429Y-20502438D02*
X25916667Y-20454819D01*
X26726191Y-21407200D02*
X26869048Y-21454819D01*
X26869048Y-21454819D02*
X27107143Y-21454819D01*
X27107143Y-21454819D02*
X27202381Y-21407200D01*
X27202381Y-21407200D02*
X27250000Y-21359580D01*
X27250000Y-21359580D02*
X27297619Y-21264342D01*
X27297619Y-21264342D02*
X27297619Y-21169104D01*
X27297619Y-21169104D02*
X27250000Y-21073866D01*
X27250000Y-21073866D02*
X27202381Y-21026247D01*
X27202381Y-21026247D02*
X27107143Y-20978628D01*
X27107143Y-20978628D02*
X26916667Y-20931009D01*
X26916667Y-20931009D02*
X26821429Y-20883390D01*
X26821429Y-20883390D02*
X26773810Y-20835771D01*
X26773810Y-20835771D02*
X26726191Y-20740533D01*
X26726191Y-20740533D02*
X26726191Y-20645295D01*
X26726191Y-20645295D02*
X26773810Y-20550057D01*
X26773810Y-20550057D02*
X26821429Y-20502438D01*
X26821429Y-20502438D02*
X26916667Y-20454819D01*
X26916667Y-20454819D02*
X27154762Y-20454819D01*
X27154762Y-20454819D02*
X27297619Y-20502438D01*
X27583334Y-20454819D02*
X28154762Y-20454819D01*
X27869048Y-21454819D02*
X27869048Y-20454819D01*
X26000000Y-18669104D02*
X26476190Y-18669104D01*
X25904762Y-18954819D02*
X26238095Y-17954819D01*
X26238095Y-17954819D02*
X26571428Y-18954819D01*
X26904762Y-18954819D02*
X26904762Y-17954819D01*
X26904762Y-17954819D02*
X27238095Y-18669104D01*
X27238095Y-18669104D02*
X27571428Y-17954819D01*
X27571428Y-17954819D02*
X27571428Y-18954819D01*
X28000000Y-18907200D02*
X28142857Y-18954819D01*
X28142857Y-18954819D02*
X28380952Y-18954819D01*
X28380952Y-18954819D02*
X28476190Y-18907200D01*
X28476190Y-18907200D02*
X28523809Y-18859580D01*
X28523809Y-18859580D02*
X28571428Y-18764342D01*
X28571428Y-18764342D02*
X28571428Y-18669104D01*
X28571428Y-18669104D02*
X28523809Y-18573866D01*
X28523809Y-18573866D02*
X28476190Y-18526247D01*
X28476190Y-18526247D02*
X28380952Y-18478628D01*
X28380952Y-18478628D02*
X28190476Y-18431009D01*
X28190476Y-18431009D02*
X28095238Y-18383390D01*
X28095238Y-18383390D02*
X28047619Y-18335771D01*
X28047619Y-18335771D02*
X28000000Y-18240533D01*
X28000000Y-18240533D02*
X28000000Y-18145295D01*
X28000000Y-18145295D02*
X28047619Y-18050057D01*
X28047619Y-18050057D02*
X28095238Y-18002438D01*
X28095238Y-18002438D02*
X28190476Y-17954819D01*
X28190476Y-17954819D02*
X28428571Y-17954819D01*
X28428571Y-17954819D02*
X28571428Y-18002438D01*
X29523809Y-18954819D02*
X28952381Y-18954819D01*
X29238095Y-18954819D02*
X29238095Y-17954819D01*
X29238095Y-17954819D02*
X29142857Y-18097676D01*
X29142857Y-18097676D02*
X29047619Y-18192914D01*
X29047619Y-18192914D02*
X28952381Y-18240533D01*
X30476190Y-18954819D02*
X29904762Y-18954819D01*
X30190476Y-18954819D02*
X30190476Y-17954819D01*
X30190476Y-17954819D02*
X30095238Y-18097676D01*
X30095238Y-18097676D02*
X30000000Y-18192914D01*
X30000000Y-18192914D02*
X29904762Y-18240533D01*
X31428571Y-18954819D02*
X30857143Y-18954819D01*
X31142857Y-18954819D02*
X31142857Y-17954819D01*
X31142857Y-17954819D02*
X31047619Y-18097676D01*
X31047619Y-18097676D02*
X30952381Y-18192914D01*
X30952381Y-18192914D02*
X30857143Y-18240533D01*
X31761905Y-17954819D02*
X32428571Y-17954819D01*
X32428571Y-17954819D02*
X32000000Y-18954819D01*
X32809524Y-18573866D02*
X33571429Y-18573866D01*
X33952381Y-17954819D02*
X34571428Y-17954819D01*
X34571428Y-17954819D02*
X34238095Y-18335771D01*
X34238095Y-18335771D02*
X34380952Y-18335771D01*
X34380952Y-18335771D02*
X34476190Y-18383390D01*
X34476190Y-18383390D02*
X34523809Y-18431009D01*
X34523809Y-18431009D02*
X34571428Y-18526247D01*
X34571428Y-18526247D02*
X34571428Y-18764342D01*
X34571428Y-18764342D02*
X34523809Y-18859580D01*
X34523809Y-18859580D02*
X34476190Y-18907200D01*
X34476190Y-18907200D02*
X34380952Y-18954819D01*
X34380952Y-18954819D02*
X34095238Y-18954819D01*
X34095238Y-18954819D02*
X34000000Y-18907200D01*
X34000000Y-18907200D02*
X33952381Y-18859580D01*
X35000000Y-18859580D02*
X35047619Y-18907200D01*
X35047619Y-18907200D02*
X35000000Y-18954819D01*
X35000000Y-18954819D02*
X34952381Y-18907200D01*
X34952381Y-18907200D02*
X35000000Y-18859580D01*
X35000000Y-18859580D02*
X35000000Y-18954819D01*
X35380952Y-17954819D02*
X35999999Y-17954819D01*
X35999999Y-17954819D02*
X35666666Y-18335771D01*
X35666666Y-18335771D02*
X35809523Y-18335771D01*
X35809523Y-18335771D02*
X35904761Y-18383390D01*
X35904761Y-18383390D02*
X35952380Y-18431009D01*
X35952380Y-18431009D02*
X35999999Y-18526247D01*
X35999999Y-18526247D02*
X35999999Y-18764342D01*
X35999999Y-18764342D02*
X35952380Y-18859580D01*
X35952380Y-18859580D02*
X35904761Y-18907200D01*
X35904761Y-18907200D02*
X35809523Y-18954819D01*
X35809523Y-18954819D02*
X35523809Y-18954819D01*
X35523809Y-18954819D02*
X35428571Y-18907200D01*
X35428571Y-18907200D02*
X35380952Y-18859580D01*
X6809524Y-39179819D02*
X6809524Y-39989342D01*
X6809524Y-39989342D02*
X6857143Y-40084580D01*
X6857143Y-40084580D02*
X6904762Y-40132200D01*
X6904762Y-40132200D02*
X7000000Y-40179819D01*
X7000000Y-40179819D02*
X7190476Y-40179819D01*
X7190476Y-40179819D02*
X7285714Y-40132200D01*
X7285714Y-40132200D02*
X7333333Y-40084580D01*
X7333333Y-40084580D02*
X7380952Y-39989342D01*
X7380952Y-39989342D02*
X7380952Y-39179819D01*
X7809524Y-40132200D02*
X7952381Y-40179819D01*
X7952381Y-40179819D02*
X8190476Y-40179819D01*
X8190476Y-40179819D02*
X8285714Y-40132200D01*
X8285714Y-40132200D02*
X8333333Y-40084580D01*
X8333333Y-40084580D02*
X8380952Y-39989342D01*
X8380952Y-39989342D02*
X8380952Y-39894104D01*
X8380952Y-39894104D02*
X8333333Y-39798866D01*
X8333333Y-39798866D02*
X8285714Y-39751247D01*
X8285714Y-39751247D02*
X8190476Y-39703628D01*
X8190476Y-39703628D02*
X8000000Y-39656009D01*
X8000000Y-39656009D02*
X7904762Y-39608390D01*
X7904762Y-39608390D02*
X7857143Y-39560771D01*
X7857143Y-39560771D02*
X7809524Y-39465533D01*
X7809524Y-39465533D02*
X7809524Y-39370295D01*
X7809524Y-39370295D02*
X7857143Y-39275057D01*
X7857143Y-39275057D02*
X7904762Y-39227438D01*
X7904762Y-39227438D02*
X8000000Y-39179819D01*
X8000000Y-39179819D02*
X8238095Y-39179819D01*
X8238095Y-39179819D02*
X8380952Y-39227438D01*
X9142857Y-39656009D02*
X9285714Y-39703628D01*
X9285714Y-39703628D02*
X9333333Y-39751247D01*
X9333333Y-39751247D02*
X9380952Y-39846485D01*
X9380952Y-39846485D02*
X9380952Y-39989342D01*
X9380952Y-39989342D02*
X9333333Y-40084580D01*
X9333333Y-40084580D02*
X9285714Y-40132200D01*
X9285714Y-40132200D02*
X9190476Y-40179819D01*
X9190476Y-40179819D02*
X8809524Y-40179819D01*
X8809524Y-40179819D02*
X8809524Y-39179819D01*
X8809524Y-39179819D02*
X9142857Y-39179819D01*
X9142857Y-39179819D02*
X9238095Y-39227438D01*
X9238095Y-39227438D02*
X9285714Y-39275057D01*
X9285714Y-39275057D02*
X9333333Y-39370295D01*
X9333333Y-39370295D02*
X9333333Y-39465533D01*
X9333333Y-39465533D02*
X9285714Y-39560771D01*
X9285714Y-39560771D02*
X9238095Y-39608390D01*
X9238095Y-39608390D02*
X9142857Y-39656009D01*
X9142857Y-39656009D02*
X8809524Y-39656009D01*
X9571429Y-40275057D02*
X10333333Y-40275057D01*
X11142857Y-40084580D02*
X11095238Y-40132200D01*
X11095238Y-40132200D02*
X10952381Y-40179819D01*
X10952381Y-40179819D02*
X10857143Y-40179819D01*
X10857143Y-40179819D02*
X10714286Y-40132200D01*
X10714286Y-40132200D02*
X10619048Y-40036961D01*
X10619048Y-40036961D02*
X10571429Y-39941723D01*
X10571429Y-39941723D02*
X10523810Y-39751247D01*
X10523810Y-39751247D02*
X10523810Y-39608390D01*
X10523810Y-39608390D02*
X10571429Y-39417914D01*
X10571429Y-39417914D02*
X10619048Y-39322676D01*
X10619048Y-39322676D02*
X10714286Y-39227438D01*
X10714286Y-39227438D02*
X10857143Y-39179819D01*
X10857143Y-39179819D02*
X10952381Y-39179819D01*
X10952381Y-39179819D02*
X11095238Y-39227438D01*
X11095238Y-39227438D02*
X11142857Y-39275057D01*
X11333334Y-40275057D02*
X12095238Y-40275057D01*
X12904762Y-40084580D02*
X12857143Y-40132200D01*
X12857143Y-40132200D02*
X12714286Y-40179819D01*
X12714286Y-40179819D02*
X12619048Y-40179819D01*
X12619048Y-40179819D02*
X12476191Y-40132200D01*
X12476191Y-40132200D02*
X12380953Y-40036961D01*
X12380953Y-40036961D02*
X12333334Y-39941723D01*
X12333334Y-39941723D02*
X12285715Y-39751247D01*
X12285715Y-39751247D02*
X12285715Y-39608390D01*
X12285715Y-39608390D02*
X12333334Y-39417914D01*
X12333334Y-39417914D02*
X12380953Y-39322676D01*
X12380953Y-39322676D02*
X12476191Y-39227438D01*
X12476191Y-39227438D02*
X12619048Y-39179819D01*
X12619048Y-39179819D02*
X12714286Y-39179819D01*
X12714286Y-39179819D02*
X12857143Y-39227438D01*
X12857143Y-39227438D02*
X12904762Y-39275057D01*
X13333334Y-40179819D02*
X13333334Y-39179819D01*
X13333334Y-39656009D02*
X13904762Y-39656009D01*
X13904762Y-40179819D02*
X13904762Y-39179819D01*
X14904762Y-39227438D02*
X14809524Y-39179819D01*
X14809524Y-39179819D02*
X14666667Y-39179819D01*
X14666667Y-39179819D02*
X14523810Y-39227438D01*
X14523810Y-39227438D02*
X14428572Y-39322676D01*
X14428572Y-39322676D02*
X14380953Y-39417914D01*
X14380953Y-39417914D02*
X14333334Y-39608390D01*
X14333334Y-39608390D02*
X14333334Y-39751247D01*
X14333334Y-39751247D02*
X14380953Y-39941723D01*
X14380953Y-39941723D02*
X14428572Y-40036961D01*
X14428572Y-40036961D02*
X14523810Y-40132200D01*
X14523810Y-40132200D02*
X14666667Y-40179819D01*
X14666667Y-40179819D02*
X14761905Y-40179819D01*
X14761905Y-40179819D02*
X14904762Y-40132200D01*
X14904762Y-40132200D02*
X14952381Y-40084580D01*
X14952381Y-40084580D02*
X14952381Y-39751247D01*
X14952381Y-39751247D02*
X14761905Y-39751247D01*
X15142858Y-40275057D02*
X15904762Y-40275057D01*
X16142858Y-40179819D02*
X16142858Y-39179819D01*
X16619048Y-40179819D02*
X16619048Y-39179819D01*
X16619048Y-39179819D02*
X17190476Y-40179819D01*
X17190476Y-40179819D02*
X17190476Y-39179819D01*
X32285714Y-30854819D02*
X32285714Y-29854819D01*
X32285714Y-29854819D02*
X32619047Y-30569104D01*
X32619047Y-30569104D02*
X32952380Y-29854819D01*
X32952380Y-29854819D02*
X32952380Y-30854819D01*
X33999999Y-30759580D02*
X33952380Y-30807200D01*
X33952380Y-30807200D02*
X33809523Y-30854819D01*
X33809523Y-30854819D02*
X33714285Y-30854819D01*
X33714285Y-30854819D02*
X33571428Y-30807200D01*
X33571428Y-30807200D02*
X33476190Y-30711961D01*
X33476190Y-30711961D02*
X33428571Y-30616723D01*
X33428571Y-30616723D02*
X33380952Y-30426247D01*
X33380952Y-30426247D02*
X33380952Y-30283390D01*
X33380952Y-30283390D02*
X33428571Y-30092914D01*
X33428571Y-30092914D02*
X33476190Y-29997676D01*
X33476190Y-29997676D02*
X33571428Y-29902438D01*
X33571428Y-29902438D02*
X33714285Y-29854819D01*
X33714285Y-29854819D02*
X33809523Y-29854819D01*
X33809523Y-29854819D02*
X33952380Y-29902438D01*
X33952380Y-29902438D02*
X33999999Y-29950057D01*
X34428571Y-30854819D02*
X34428571Y-29854819D01*
X34428571Y-29854819D02*
X34809523Y-29854819D01*
X34809523Y-29854819D02*
X34904761Y-29902438D01*
X34904761Y-29902438D02*
X34952380Y-29950057D01*
X34952380Y-29950057D02*
X34999999Y-30045295D01*
X34999999Y-30045295D02*
X34999999Y-30188152D01*
X34999999Y-30188152D02*
X34952380Y-30283390D01*
X34952380Y-30283390D02*
X34904761Y-30331009D01*
X34904761Y-30331009D02*
X34809523Y-30378628D01*
X34809523Y-30378628D02*
X34428571Y-30378628D01*
X35333333Y-29854819D02*
X35999999Y-29854819D01*
X35999999Y-29854819D02*
X35571428Y-30854819D01*
X36285714Y-29854819D02*
X36904761Y-29854819D01*
X36904761Y-29854819D02*
X36571428Y-30235771D01*
X36571428Y-30235771D02*
X36714285Y-30235771D01*
X36714285Y-30235771D02*
X36809523Y-30283390D01*
X36809523Y-30283390D02*
X36857142Y-30331009D01*
X36857142Y-30331009D02*
X36904761Y-30426247D01*
X36904761Y-30426247D02*
X36904761Y-30664342D01*
X36904761Y-30664342D02*
X36857142Y-30759580D01*
X36857142Y-30759580D02*
X36809523Y-30807200D01*
X36809523Y-30807200D02*
X36714285Y-30854819D01*
X36714285Y-30854819D02*
X36428571Y-30854819D01*
X36428571Y-30854819D02*
X36333333Y-30807200D01*
X36333333Y-30807200D02*
X36285714Y-30759580D01*
X37476190Y-30283390D02*
X37380952Y-30235771D01*
X37380952Y-30235771D02*
X37333333Y-30188152D01*
X37333333Y-30188152D02*
X37285714Y-30092914D01*
X37285714Y-30092914D02*
X37285714Y-30045295D01*
X37285714Y-30045295D02*
X37333333Y-29950057D01*
X37333333Y-29950057D02*
X37380952Y-29902438D01*
X37380952Y-29902438D02*
X37476190Y-29854819D01*
X37476190Y-29854819D02*
X37666666Y-29854819D01*
X37666666Y-29854819D02*
X37761904Y-29902438D01*
X37761904Y-29902438D02*
X37809523Y-29950057D01*
X37809523Y-29950057D02*
X37857142Y-30045295D01*
X37857142Y-30045295D02*
X37857142Y-30092914D01*
X37857142Y-30092914D02*
X37809523Y-30188152D01*
X37809523Y-30188152D02*
X37761904Y-30235771D01*
X37761904Y-30235771D02*
X37666666Y-30283390D01*
X37666666Y-30283390D02*
X37476190Y-30283390D01*
X37476190Y-30283390D02*
X37380952Y-30331009D01*
X37380952Y-30331009D02*
X37333333Y-30378628D01*
X37333333Y-30378628D02*
X37285714Y-30473866D01*
X37285714Y-30473866D02*
X37285714Y-30664342D01*
X37285714Y-30664342D02*
X37333333Y-30759580D01*
X37333333Y-30759580D02*
X37380952Y-30807200D01*
X37380952Y-30807200D02*
X37476190Y-30854819D01*
X37476190Y-30854819D02*
X37666666Y-30854819D01*
X37666666Y-30854819D02*
X37761904Y-30807200D01*
X37761904Y-30807200D02*
X37809523Y-30759580D01*
X37809523Y-30759580D02*
X37857142Y-30664342D01*
X37857142Y-30664342D02*
X37857142Y-30473866D01*
X37857142Y-30473866D02*
X37809523Y-30378628D01*
X37809523Y-30378628D02*
X37761904Y-30331009D01*
X37761904Y-30331009D02*
X37666666Y-30283390D01*
X38190476Y-29854819D02*
X38809523Y-29854819D01*
X38809523Y-29854819D02*
X38476190Y-30235771D01*
X38476190Y-30235771D02*
X38619047Y-30235771D01*
X38619047Y-30235771D02*
X38714285Y-30283390D01*
X38714285Y-30283390D02*
X38761904Y-30331009D01*
X38761904Y-30331009D02*
X38809523Y-30426247D01*
X38809523Y-30426247D02*
X38809523Y-30664342D01*
X38809523Y-30664342D02*
X38761904Y-30759580D01*
X38761904Y-30759580D02*
X38714285Y-30807200D01*
X38714285Y-30807200D02*
X38619047Y-30854819D01*
X38619047Y-30854819D02*
X38333333Y-30854819D01*
X38333333Y-30854819D02*
X38238095Y-30807200D01*
X38238095Y-30807200D02*
X38190476Y-30759580D01*
X39761904Y-30854819D02*
X39190476Y-30854819D01*
X39476190Y-30854819D02*
X39476190Y-29854819D01*
X39476190Y-29854819D02*
X39380952Y-29997676D01*
X39380952Y-29997676D02*
X39285714Y-30092914D01*
X39285714Y-30092914D02*
X39190476Y-30140533D01*
X12154819Y-28880952D02*
X12154819Y-29357142D01*
X12154819Y-29357142D02*
X12631009Y-29404761D01*
X12631009Y-29404761D02*
X12583390Y-29357142D01*
X12583390Y-29357142D02*
X12535771Y-29261904D01*
X12535771Y-29261904D02*
X12535771Y-29023809D01*
X12535771Y-29023809D02*
X12583390Y-28928571D01*
X12583390Y-28928571D02*
X12631009Y-28880952D01*
X12631009Y-28880952D02*
X12726247Y-28833333D01*
X12726247Y-28833333D02*
X12964342Y-28833333D01*
X12964342Y-28833333D02*
X13059580Y-28880952D01*
X13059580Y-28880952D02*
X13107200Y-28928571D01*
X13107200Y-28928571D02*
X13154819Y-29023809D01*
X13154819Y-29023809D02*
X13154819Y-29261904D01*
X13154819Y-29261904D02*
X13107200Y-29357142D01*
X13107200Y-29357142D02*
X13059580Y-29404761D01*
X13059580Y-28404761D02*
X13107200Y-28357142D01*
X13107200Y-28357142D02*
X13154819Y-28404761D01*
X13154819Y-28404761D02*
X13107200Y-28452380D01*
X13107200Y-28452380D02*
X13059580Y-28404761D01*
X13059580Y-28404761D02*
X13154819Y-28404761D01*
X13154819Y-27404762D02*
X13154819Y-27976190D01*
X13154819Y-27690476D02*
X12154819Y-27690476D01*
X12154819Y-27690476D02*
X12297676Y-27785714D01*
X12297676Y-27785714D02*
X12392914Y-27880952D01*
X12392914Y-27880952D02*
X12440533Y-27976190D01*
X13154819Y-26976190D02*
X12154819Y-26976190D01*
X12773866Y-26880952D02*
X13154819Y-26595238D01*
X12488152Y-26595238D02*
X12869104Y-26976190D01*
X13154819Y-28880952D02*
X13154819Y-29357142D01*
X13154819Y-29357142D02*
X13631009Y-29404761D01*
X13631009Y-29404761D02*
X13583390Y-29357142D01*
X13583390Y-29357142D02*
X13535771Y-29261904D01*
X13535771Y-29261904D02*
X13535771Y-29023809D01*
X13535771Y-29023809D02*
X13583390Y-28928571D01*
X13583390Y-28928571D02*
X13631009Y-28880952D01*
X13631009Y-28880952D02*
X13726247Y-28833333D01*
X13726247Y-28833333D02*
X13964342Y-28833333D01*
X13964342Y-28833333D02*
X14059580Y-28880952D01*
X14059580Y-28880952D02*
X14107200Y-28928571D01*
X14107200Y-28928571D02*
X14154819Y-29023809D01*
X14154819Y-29023809D02*
X14154819Y-29261904D01*
X14154819Y-29261904D02*
X14107200Y-29357142D01*
X14107200Y-29357142D02*
X14059580Y-29404761D01*
X14059580Y-28404761D02*
X14107200Y-28357142D01*
X14107200Y-28357142D02*
X14154819Y-28404761D01*
X14154819Y-28404761D02*
X14107200Y-28452380D01*
X14107200Y-28452380D02*
X14059580Y-28404761D01*
X14059580Y-28404761D02*
X14154819Y-28404761D01*
X14154819Y-27404762D02*
X14154819Y-27976190D01*
X14154819Y-27690476D02*
X13154819Y-27690476D01*
X13154819Y-27690476D02*
X13297676Y-27785714D01*
X13297676Y-27785714D02*
X13392914Y-27880952D01*
X13392914Y-27880952D02*
X13440533Y-27976190D01*
X14154819Y-26976190D02*
X13154819Y-26976190D01*
X13773866Y-26880952D02*
X14154819Y-26595238D01*
X13488152Y-26595238D02*
X13869104Y-26976190D01*
X39309524Y-27800057D02*
X39357143Y-27752438D01*
X39357143Y-27752438D02*
X39452381Y-27704819D01*
X39452381Y-27704819D02*
X39690476Y-27704819D01*
X39690476Y-27704819D02*
X39785714Y-27752438D01*
X39785714Y-27752438D02*
X39833333Y-27800057D01*
X39833333Y-27800057D02*
X39880952Y-27895295D01*
X39880952Y-27895295D02*
X39880952Y-27990533D01*
X39880952Y-27990533D02*
X39833333Y-28133390D01*
X39833333Y-28133390D02*
X39261905Y-28704819D01*
X39261905Y-28704819D02*
X39880952Y-28704819D01*
X40309524Y-28704819D02*
X40309524Y-27704819D01*
X40404762Y-28323866D02*
X40690476Y-28704819D01*
X40690476Y-28038152D02*
X40309524Y-28419104D01*
X32904761Y-26654819D02*
X32333333Y-26654819D01*
X32619047Y-26654819D02*
X32619047Y-25654819D01*
X32619047Y-25654819D02*
X32523809Y-25797676D01*
X32523809Y-25797676D02*
X32428571Y-25892914D01*
X32428571Y-25892914D02*
X32333333Y-25940533D01*
X33761904Y-25988152D02*
X33761904Y-26654819D01*
X33333333Y-25988152D02*
X33333333Y-26511961D01*
X33333333Y-26511961D02*
X33380952Y-26607200D01*
X33380952Y-26607200D02*
X33476190Y-26654819D01*
X33476190Y-26654819D02*
X33619047Y-26654819D01*
X33619047Y-26654819D02*
X33714285Y-26607200D01*
X33714285Y-26607200D02*
X33761904Y-26559580D01*
X34571428Y-26131009D02*
X34238095Y-26131009D01*
X34238095Y-26654819D02*
X34238095Y-25654819D01*
X34238095Y-25654819D02*
X34714285Y-25654819D01*
X29095238Y-25988152D02*
X29095238Y-26654819D01*
X28857143Y-25607200D02*
X28619048Y-26321485D01*
X28619048Y-26321485D02*
X29238095Y-26321485D01*
X29619048Y-26559580D02*
X29666667Y-26607200D01*
X29666667Y-26607200D02*
X29619048Y-26654819D01*
X29619048Y-26654819D02*
X29571429Y-26607200D01*
X29571429Y-26607200D02*
X29619048Y-26559580D01*
X29619048Y-26559580D02*
X29619048Y-26654819D01*
X30000000Y-25654819D02*
X30666666Y-25654819D01*
X30666666Y-25654819D02*
X30238095Y-26654819D01*
X31476190Y-25988152D02*
X31476190Y-26654819D01*
X31047619Y-25988152D02*
X31047619Y-26511961D01*
X31047619Y-26511961D02*
X31095238Y-26607200D01*
X31095238Y-26607200D02*
X31190476Y-26654819D01*
X31190476Y-26654819D02*
X31333333Y-26654819D01*
X31333333Y-26654819D02*
X31428571Y-26607200D01*
X31428571Y-26607200D02*
X31476190Y-26559580D01*
X32285714Y-26131009D02*
X31952381Y-26131009D01*
X31952381Y-26654819D02*
X31952381Y-25654819D01*
X31952381Y-25654819D02*
X32428571Y-25654819D01*
X36380952Y-16854819D02*
X36380952Y-15854819D01*
X36380952Y-15854819D02*
X36714285Y-16569104D01*
X36714285Y-16569104D02*
X37047618Y-15854819D01*
X37047618Y-15854819D02*
X37047618Y-16854819D01*
X37380952Y-15854819D02*
X37952380Y-15854819D01*
X37666666Y-16854819D02*
X37666666Y-15854819D01*
X38190476Y-15854819D02*
X38809523Y-15854819D01*
X38809523Y-15854819D02*
X38476190Y-16235771D01*
X38476190Y-16235771D02*
X38619047Y-16235771D01*
X38619047Y-16235771D02*
X38714285Y-16283390D01*
X38714285Y-16283390D02*
X38761904Y-16331009D01*
X38761904Y-16331009D02*
X38809523Y-16426247D01*
X38809523Y-16426247D02*
X38809523Y-16664342D01*
X38809523Y-16664342D02*
X38761904Y-16759580D01*
X38761904Y-16759580D02*
X38714285Y-16807200D01*
X38714285Y-16807200D02*
X38619047Y-16854819D01*
X38619047Y-16854819D02*
X38333333Y-16854819D01*
X38333333Y-16854819D02*
X38238095Y-16807200D01*
X38238095Y-16807200D02*
X38190476Y-16759580D01*
X39666666Y-15854819D02*
X39476190Y-15854819D01*
X39476190Y-15854819D02*
X39380952Y-15902438D01*
X39380952Y-15902438D02*
X39333333Y-15950057D01*
X39333333Y-15950057D02*
X39238095Y-16092914D01*
X39238095Y-16092914D02*
X39190476Y-16283390D01*
X39190476Y-16283390D02*
X39190476Y-16664342D01*
X39190476Y-16664342D02*
X39238095Y-16759580D01*
X39238095Y-16759580D02*
X39285714Y-16807200D01*
X39285714Y-16807200D02*
X39380952Y-16854819D01*
X39380952Y-16854819D02*
X39571428Y-16854819D01*
X39571428Y-16854819D02*
X39666666Y-16807200D01*
X39666666Y-16807200D02*
X39714285Y-16759580D01*
X39714285Y-16759580D02*
X39761904Y-16664342D01*
X39761904Y-16664342D02*
X39761904Y-16426247D01*
X39761904Y-16426247D02*
X39714285Y-16331009D01*
X39714285Y-16331009D02*
X39666666Y-16283390D01*
X39666666Y-16283390D02*
X39571428Y-16235771D01*
X39571428Y-16235771D02*
X39380952Y-16235771D01*
X39380952Y-16235771D02*
X39285714Y-16283390D01*
X39285714Y-16283390D02*
X39238095Y-16331009D01*
X39238095Y-16331009D02*
X39190476Y-16426247D01*
X40380952Y-15854819D02*
X40476190Y-15854819D01*
X40476190Y-15854819D02*
X40571428Y-15902438D01*
X40571428Y-15902438D02*
X40619047Y-15950057D01*
X40619047Y-15950057D02*
X40666666Y-16045295D01*
X40666666Y-16045295D02*
X40714285Y-16235771D01*
X40714285Y-16235771D02*
X40714285Y-16473866D01*
X40714285Y-16473866D02*
X40666666Y-16664342D01*
X40666666Y-16664342D02*
X40619047Y-16759580D01*
X40619047Y-16759580D02*
X40571428Y-16807200D01*
X40571428Y-16807200D02*
X40476190Y-16854819D01*
X40476190Y-16854819D02*
X40380952Y-16854819D01*
X40380952Y-16854819D02*
X40285714Y-16807200D01*
X40285714Y-16807200D02*
X40238095Y-16759580D01*
X40238095Y-16759580D02*
X40190476Y-16664342D01*
X40190476Y-16664342D02*
X40142857Y-16473866D01*
X40142857Y-16473866D02*
X40142857Y-16235771D01*
X40142857Y-16235771D02*
X40190476Y-16045295D01*
X40190476Y-16045295D02*
X40238095Y-15950057D01*
X40238095Y-15950057D02*
X40285714Y-15902438D01*
X40285714Y-15902438D02*
X40380952Y-15854819D01*
X41285714Y-16283390D02*
X41190476Y-16235771D01*
X41190476Y-16235771D02*
X41142857Y-16188152D01*
X41142857Y-16188152D02*
X41095238Y-16092914D01*
X41095238Y-16092914D02*
X41095238Y-16045295D01*
X41095238Y-16045295D02*
X41142857Y-15950057D01*
X41142857Y-15950057D02*
X41190476Y-15902438D01*
X41190476Y-15902438D02*
X41285714Y-15854819D01*
X41285714Y-15854819D02*
X41476190Y-15854819D01*
X41476190Y-15854819D02*
X41571428Y-15902438D01*
X41571428Y-15902438D02*
X41619047Y-15950057D01*
X41619047Y-15950057D02*
X41666666Y-16045295D01*
X41666666Y-16045295D02*
X41666666Y-16092914D01*
X41666666Y-16092914D02*
X41619047Y-16188152D01*
X41619047Y-16188152D02*
X41571428Y-16235771D01*
X41571428Y-16235771D02*
X41476190Y-16283390D01*
X41476190Y-16283390D02*
X41285714Y-16283390D01*
X41285714Y-16283390D02*
X41190476Y-16331009D01*
X41190476Y-16331009D02*
X41142857Y-16378628D01*
X41142857Y-16378628D02*
X41095238Y-16473866D01*
X41095238Y-16473866D02*
X41095238Y-16664342D01*
X41095238Y-16664342D02*
X41142857Y-16759580D01*
X41142857Y-16759580D02*
X41190476Y-16807200D01*
X41190476Y-16807200D02*
X41285714Y-16854819D01*
X41285714Y-16854819D02*
X41476190Y-16854819D01*
X41476190Y-16854819D02*
X41571428Y-16807200D01*
X41571428Y-16807200D02*
X41619047Y-16759580D01*
X41619047Y-16759580D02*
X41666666Y-16664342D01*
X41666666Y-16664342D02*
X41666666Y-16473866D01*
X41666666Y-16473866D02*
X41619047Y-16378628D01*
X41619047Y-16378628D02*
X41571428Y-16331009D01*
X41571428Y-16331009D02*
X41476190Y-16283390D01*
X42500000Y-17188152D02*
X42500000Y-17854819D01*
X42261905Y-16807200D02*
X42023810Y-17521485D01*
X42023810Y-17521485D02*
X42642857Y-17521485D01*
X43023810Y-17759580D02*
X43071429Y-17807200D01*
X43071429Y-17807200D02*
X43023810Y-17854819D01*
X43023810Y-17854819D02*
X42976191Y-17807200D01*
X42976191Y-17807200D02*
X43023810Y-17759580D01*
X43023810Y-17759580D02*
X43023810Y-17854819D01*
X43404762Y-16854819D02*
X44071428Y-16854819D01*
X44071428Y-16854819D02*
X43642857Y-17854819D01*
X44880952Y-17188152D02*
X44880952Y-17854819D01*
X44452381Y-17188152D02*
X44452381Y-17711961D01*
X44452381Y-17711961D02*
X44500000Y-17807200D01*
X44500000Y-17807200D02*
X44595238Y-17854819D01*
X44595238Y-17854819D02*
X44738095Y-17854819D01*
X44738095Y-17854819D02*
X44833333Y-17807200D01*
X44833333Y-17807200D02*
X44880952Y-17759580D01*
X45357143Y-17854819D02*
X45357143Y-16854819D01*
X45357143Y-17331009D02*
X45928571Y-17331009D01*
X45928571Y-17854819D02*
X45928571Y-16854819D01*
X44785714Y-12207200D02*
X44928571Y-12254819D01*
X44928571Y-12254819D02*
X45166666Y-12254819D01*
X45166666Y-12254819D02*
X45261904Y-12207200D01*
X45261904Y-12207200D02*
X45309523Y-12159580D01*
X45309523Y-12159580D02*
X45357142Y-12064342D01*
X45357142Y-12064342D02*
X45357142Y-11969104D01*
X45357142Y-11969104D02*
X45309523Y-11873866D01*
X45309523Y-11873866D02*
X45261904Y-11826247D01*
X45261904Y-11826247D02*
X45166666Y-11778628D01*
X45166666Y-11778628D02*
X44976190Y-11731009D01*
X44976190Y-11731009D02*
X44880952Y-11683390D01*
X44880952Y-11683390D02*
X44833333Y-11635771D01*
X44833333Y-11635771D02*
X44785714Y-11540533D01*
X44785714Y-11540533D02*
X44785714Y-11445295D01*
X44785714Y-11445295D02*
X44833333Y-11350057D01*
X44833333Y-11350057D02*
X44880952Y-11302438D01*
X44880952Y-11302438D02*
X44976190Y-11254819D01*
X44976190Y-11254819D02*
X45214285Y-11254819D01*
X45214285Y-11254819D02*
X45357142Y-11302438D01*
X45738095Y-12207200D02*
X45880952Y-12254819D01*
X45880952Y-12254819D02*
X46119047Y-12254819D01*
X46119047Y-12254819D02*
X46214285Y-12207200D01*
X46214285Y-12207200D02*
X46261904Y-12159580D01*
X46261904Y-12159580D02*
X46309523Y-12064342D01*
X46309523Y-12064342D02*
X46309523Y-11969104D01*
X46309523Y-11969104D02*
X46261904Y-11873866D01*
X46261904Y-11873866D02*
X46214285Y-11826247D01*
X46214285Y-11826247D02*
X46119047Y-11778628D01*
X46119047Y-11778628D02*
X45928571Y-11731009D01*
X45928571Y-11731009D02*
X45833333Y-11683390D01*
X45833333Y-11683390D02*
X45785714Y-11635771D01*
X45785714Y-11635771D02*
X45738095Y-11540533D01*
X45738095Y-11540533D02*
X45738095Y-11445295D01*
X45738095Y-11445295D02*
X45785714Y-11350057D01*
X45785714Y-11350057D02*
X45833333Y-11302438D01*
X45833333Y-11302438D02*
X45928571Y-11254819D01*
X45928571Y-11254819D02*
X46166666Y-11254819D01*
X46166666Y-11254819D02*
X46309523Y-11302438D01*
X47261904Y-12254819D02*
X46690476Y-12254819D01*
X46976190Y-12254819D02*
X46976190Y-11254819D01*
X46976190Y-11254819D02*
X46880952Y-11397676D01*
X46880952Y-11397676D02*
X46785714Y-11492914D01*
X46785714Y-11492914D02*
X46690476Y-11540533D01*
X48119047Y-11588152D02*
X48119047Y-12254819D01*
X47880952Y-11207200D02*
X47642857Y-11921485D01*
X47642857Y-11921485D02*
X48261904Y-11921485D01*
X40928571Y-19654819D02*
X40357143Y-19654819D01*
X40642857Y-19654819D02*
X40642857Y-18654819D01*
X40642857Y-18654819D02*
X40547619Y-18797676D01*
X40547619Y-18797676D02*
X40452381Y-18892914D01*
X40452381Y-18892914D02*
X40357143Y-18940533D01*
X41547619Y-18654819D02*
X41642857Y-18654819D01*
X41642857Y-18654819D02*
X41738095Y-18702438D01*
X41738095Y-18702438D02*
X41785714Y-18750057D01*
X41785714Y-18750057D02*
X41833333Y-18845295D01*
X41833333Y-18845295D02*
X41880952Y-19035771D01*
X41880952Y-19035771D02*
X41880952Y-19273866D01*
X41880952Y-19273866D02*
X41833333Y-19464342D01*
X41833333Y-19464342D02*
X41785714Y-19559580D01*
X41785714Y-19559580D02*
X41738095Y-19607200D01*
X41738095Y-19607200D02*
X41642857Y-19654819D01*
X41642857Y-19654819D02*
X41547619Y-19654819D01*
X41547619Y-19654819D02*
X41452381Y-19607200D01*
X41452381Y-19607200D02*
X41404762Y-19559580D01*
X41404762Y-19559580D02*
X41357143Y-19464342D01*
X41357143Y-19464342D02*
X41309524Y-19273866D01*
X41309524Y-19273866D02*
X41309524Y-19035771D01*
X41309524Y-19035771D02*
X41357143Y-18845295D01*
X41357143Y-18845295D02*
X41404762Y-18750057D01*
X41404762Y-18750057D02*
X41452381Y-18702438D01*
X41452381Y-18702438D02*
X41547619Y-18654819D01*
X42500000Y-18654819D02*
X42595238Y-18654819D01*
X42595238Y-18654819D02*
X42690476Y-18702438D01*
X42690476Y-18702438D02*
X42738095Y-18750057D01*
X42738095Y-18750057D02*
X42785714Y-18845295D01*
X42785714Y-18845295D02*
X42833333Y-19035771D01*
X42833333Y-19035771D02*
X42833333Y-19273866D01*
X42833333Y-19273866D02*
X42785714Y-19464342D01*
X42785714Y-19464342D02*
X42738095Y-19559580D01*
X42738095Y-19559580D02*
X42690476Y-19607200D01*
X42690476Y-19607200D02*
X42595238Y-19654819D01*
X42595238Y-19654819D02*
X42500000Y-19654819D01*
X42500000Y-19654819D02*
X42404762Y-19607200D01*
X42404762Y-19607200D02*
X42357143Y-19559580D01*
X42357143Y-19559580D02*
X42309524Y-19464342D01*
X42309524Y-19464342D02*
X42261905Y-19273866D01*
X42261905Y-19273866D02*
X42261905Y-19035771D01*
X42261905Y-19035771D02*
X42309524Y-18845295D01*
X42309524Y-18845295D02*
X42357143Y-18750057D01*
X42357143Y-18750057D02*
X42404762Y-18702438D01*
X42404762Y-18702438D02*
X42500000Y-18654819D01*
X43261905Y-19654819D02*
X43261905Y-18654819D01*
X43357143Y-19273866D02*
X43642857Y-19654819D01*
X43642857Y-18988152D02*
X43261905Y-19369104D01*
X40833333Y-20750057D02*
X40880952Y-20702438D01*
X40880952Y-20702438D02*
X40976190Y-20654819D01*
X40976190Y-20654819D02*
X41214285Y-20654819D01*
X41214285Y-20654819D02*
X41309523Y-20702438D01*
X41309523Y-20702438D02*
X41357142Y-20750057D01*
X41357142Y-20750057D02*
X41404761Y-20845295D01*
X41404761Y-20845295D02*
X41404761Y-20940533D01*
X41404761Y-20940533D02*
X41357142Y-21083390D01*
X41357142Y-21083390D02*
X40785714Y-21654819D01*
X40785714Y-21654819D02*
X41404761Y-21654819D01*
X41785714Y-20750057D02*
X41833333Y-20702438D01*
X41833333Y-20702438D02*
X41928571Y-20654819D01*
X41928571Y-20654819D02*
X42166666Y-20654819D01*
X42166666Y-20654819D02*
X42261904Y-20702438D01*
X42261904Y-20702438D02*
X42309523Y-20750057D01*
X42309523Y-20750057D02*
X42357142Y-20845295D01*
X42357142Y-20845295D02*
X42357142Y-20940533D01*
X42357142Y-20940533D02*
X42309523Y-21083390D01*
X42309523Y-21083390D02*
X41738095Y-21654819D01*
X41738095Y-21654819D02*
X42357142Y-21654819D01*
X42785714Y-21654819D02*
X42785714Y-20654819D01*
X42880952Y-21273866D02*
X43166666Y-21654819D01*
X43166666Y-20988152D02*
X42785714Y-21369104D01*
X36928571Y-19654819D02*
X36357143Y-19654819D01*
X36642857Y-19654819D02*
X36642857Y-18654819D01*
X36642857Y-18654819D02*
X36547619Y-18797676D01*
X36547619Y-18797676D02*
X36452381Y-18892914D01*
X36452381Y-18892914D02*
X36357143Y-18940533D01*
X37547619Y-18654819D02*
X37642857Y-18654819D01*
X37642857Y-18654819D02*
X37738095Y-18702438D01*
X37738095Y-18702438D02*
X37785714Y-18750057D01*
X37785714Y-18750057D02*
X37833333Y-18845295D01*
X37833333Y-18845295D02*
X37880952Y-19035771D01*
X37880952Y-19035771D02*
X37880952Y-19273866D01*
X37880952Y-19273866D02*
X37833333Y-19464342D01*
X37833333Y-19464342D02*
X37785714Y-19559580D01*
X37785714Y-19559580D02*
X37738095Y-19607200D01*
X37738095Y-19607200D02*
X37642857Y-19654819D01*
X37642857Y-19654819D02*
X37547619Y-19654819D01*
X37547619Y-19654819D02*
X37452381Y-19607200D01*
X37452381Y-19607200D02*
X37404762Y-19559580D01*
X37404762Y-19559580D02*
X37357143Y-19464342D01*
X37357143Y-19464342D02*
X37309524Y-19273866D01*
X37309524Y-19273866D02*
X37309524Y-19035771D01*
X37309524Y-19035771D02*
X37357143Y-18845295D01*
X37357143Y-18845295D02*
X37404762Y-18750057D01*
X37404762Y-18750057D02*
X37452381Y-18702438D01*
X37452381Y-18702438D02*
X37547619Y-18654819D01*
X38738095Y-18988152D02*
X38738095Y-19654819D01*
X38309524Y-18988152D02*
X38309524Y-19511961D01*
X38309524Y-19511961D02*
X38357143Y-19607200D01*
X38357143Y-19607200D02*
X38452381Y-19654819D01*
X38452381Y-19654819D02*
X38595238Y-19654819D01*
X38595238Y-19654819D02*
X38690476Y-19607200D01*
X38690476Y-19607200D02*
X38738095Y-19559580D01*
X39547619Y-19131009D02*
X39214286Y-19131009D01*
X39214286Y-19654819D02*
X39214286Y-18654819D01*
X39214286Y-18654819D02*
X39690476Y-18654819D01*
X47928571Y-15654819D02*
X47357143Y-15654819D01*
X47642857Y-15654819D02*
X47642857Y-14654819D01*
X47642857Y-14654819D02*
X47547619Y-14797676D01*
X47547619Y-14797676D02*
X47452381Y-14892914D01*
X47452381Y-14892914D02*
X47357143Y-14940533D01*
X48547619Y-14654819D02*
X48642857Y-14654819D01*
X48642857Y-14654819D02*
X48738095Y-14702438D01*
X48738095Y-14702438D02*
X48785714Y-14750057D01*
X48785714Y-14750057D02*
X48833333Y-14845295D01*
X48833333Y-14845295D02*
X48880952Y-15035771D01*
X48880952Y-15035771D02*
X48880952Y-15273866D01*
X48880952Y-15273866D02*
X48833333Y-15464342D01*
X48833333Y-15464342D02*
X48785714Y-15559580D01*
X48785714Y-15559580D02*
X48738095Y-15607200D01*
X48738095Y-15607200D02*
X48642857Y-15654819D01*
X48642857Y-15654819D02*
X48547619Y-15654819D01*
X48547619Y-15654819D02*
X48452381Y-15607200D01*
X48452381Y-15607200D02*
X48404762Y-15559580D01*
X48404762Y-15559580D02*
X48357143Y-15464342D01*
X48357143Y-15464342D02*
X48309524Y-15273866D01*
X48309524Y-15273866D02*
X48309524Y-15035771D01*
X48309524Y-15035771D02*
X48357143Y-14845295D01*
X48357143Y-14845295D02*
X48404762Y-14750057D01*
X48404762Y-14750057D02*
X48452381Y-14702438D01*
X48452381Y-14702438D02*
X48547619Y-14654819D01*
X49738095Y-14988152D02*
X49738095Y-15654819D01*
X49309524Y-14988152D02*
X49309524Y-15511961D01*
X49309524Y-15511961D02*
X49357143Y-15607200D01*
X49357143Y-15607200D02*
X49452381Y-15654819D01*
X49452381Y-15654819D02*
X49595238Y-15654819D01*
X49595238Y-15654819D02*
X49690476Y-15607200D01*
X49690476Y-15607200D02*
X49738095Y-15559580D01*
X50547619Y-15131009D02*
X50214286Y-15131009D01*
X50214286Y-15654819D02*
X50214286Y-14654819D01*
X50214286Y-14654819D02*
X50690476Y-14654819D01*
X77274286Y1545180D02*
X77893333Y1545180D01*
X77893333Y1545180D02*
X77560000Y1164228D01*
X77560000Y1164228D02*
X77702857Y1164228D01*
X77702857Y1164228D02*
X77798095Y1116609D01*
X77798095Y1116609D02*
X77845714Y1068990D01*
X77845714Y1068990D02*
X77893333Y973752D01*
X77893333Y973752D02*
X77893333Y735657D01*
X77893333Y735657D02*
X77845714Y640419D01*
X77845714Y640419D02*
X77798095Y592800D01*
X77798095Y592800D02*
X77702857Y545180D01*
X77702857Y545180D02*
X77417143Y545180D01*
X77417143Y545180D02*
X77321905Y592800D01*
X77321905Y592800D02*
X77274286Y640419D01*
X78226667Y1545180D02*
X78845714Y1545180D01*
X78845714Y1545180D02*
X78512381Y1164228D01*
X78512381Y1164228D02*
X78655238Y1164228D01*
X78655238Y1164228D02*
X78750476Y1116609D01*
X78750476Y1116609D02*
X78798095Y1068990D01*
X78798095Y1068990D02*
X78845714Y973752D01*
X78845714Y973752D02*
X78845714Y735657D01*
X78845714Y735657D02*
X78798095Y640419D01*
X78798095Y640419D02*
X78750476Y592800D01*
X78750476Y592800D02*
X78655238Y545180D01*
X78655238Y545180D02*
X78369524Y545180D01*
X78369524Y545180D02*
X78274286Y592800D01*
X78274286Y592800D02*
X78226667Y640419D01*
X79464762Y1545180D02*
X79560000Y1545180D01*
X79560000Y1545180D02*
X79655238Y1497561D01*
X79655238Y1497561D02*
X79702857Y1449942D01*
X79702857Y1449942D02*
X79750476Y1354704D01*
X79750476Y1354704D02*
X79798095Y1164228D01*
X79798095Y1164228D02*
X79798095Y926133D01*
X79798095Y926133D02*
X79750476Y735657D01*
X79750476Y735657D02*
X79702857Y640419D01*
X79702857Y640419D02*
X79655238Y592800D01*
X79655238Y592800D02*
X79560000Y545180D01*
X79560000Y545180D02*
X79464762Y545180D01*
X79464762Y545180D02*
X79369524Y592800D01*
X79369524Y592800D02*
X79321905Y640419D01*
X79321905Y640419D02*
X79274286Y735657D01*
X79274286Y735657D02*
X79226667Y926133D01*
X79226667Y926133D02*
X79226667Y1164228D01*
X79226667Y1164228D02*
X79274286Y1354704D01*
X79274286Y1354704D02*
X79321905Y1449942D01*
X79321905Y1449942D02*
X79369524Y1497561D01*
X79369524Y1497561D02*
X79464762Y1545180D01*
X80798095Y545180D02*
X80464762Y1021371D01*
X80226667Y545180D02*
X80226667Y1545180D01*
X80226667Y1545180D02*
X80607619Y1545180D01*
X80607619Y1545180D02*
X80702857Y1497561D01*
X80702857Y1497561D02*
X80750476Y1449942D01*
X80750476Y1449942D02*
X80798095Y1354704D01*
X80798095Y1354704D02*
X80798095Y1211847D01*
X80798095Y1211847D02*
X80750476Y1116609D01*
X80750476Y1116609D02*
X80702857Y1068990D01*
X80702857Y1068990D02*
X80607619Y1021371D01*
X80607619Y1021371D02*
X80226667Y1021371D01*
X99357142Y-9788152D02*
X99357142Y-10454819D01*
X99119047Y-9407200D02*
X98880952Y-10121485D01*
X98880952Y-10121485D02*
X99499999Y-10121485D01*
X99785714Y-9454819D02*
X100452380Y-9454819D01*
X100452380Y-9454819D02*
X100023809Y-10454819D01*
X101023809Y-9454819D02*
X101119047Y-9454819D01*
X101119047Y-9454819D02*
X101214285Y-9502438D01*
X101214285Y-9502438D02*
X101261904Y-9550057D01*
X101261904Y-9550057D02*
X101309523Y-9645295D01*
X101309523Y-9645295D02*
X101357142Y-9835771D01*
X101357142Y-9835771D02*
X101357142Y-10073866D01*
X101357142Y-10073866D02*
X101309523Y-10264342D01*
X101309523Y-10264342D02*
X101261904Y-10359580D01*
X101261904Y-10359580D02*
X101214285Y-10407200D01*
X101214285Y-10407200D02*
X101119047Y-10454819D01*
X101119047Y-10454819D02*
X101023809Y-10454819D01*
X101023809Y-10454819D02*
X100928571Y-10407200D01*
X100928571Y-10407200D02*
X100880952Y-10359580D01*
X100880952Y-10359580D02*
X100833333Y-10264342D01*
X100833333Y-10264342D02*
X100785714Y-10073866D01*
X100785714Y-10073866D02*
X100785714Y-9835771D01*
X100785714Y-9835771D02*
X100833333Y-9645295D01*
X100833333Y-9645295D02*
X100880952Y-9550057D01*
X100880952Y-9550057D02*
X100928571Y-9502438D01*
X100928571Y-9502438D02*
X101023809Y-9454819D01*
X102214285Y-9788152D02*
X102214285Y-10454819D01*
X101785714Y-9788152D02*
X101785714Y-10311961D01*
X101785714Y-10311961D02*
X101833333Y-10407200D01*
X101833333Y-10407200D02*
X101928571Y-10454819D01*
X101928571Y-10454819D02*
X102071428Y-10454819D01*
X102071428Y-10454819D02*
X102166666Y-10407200D01*
X102166666Y-10407200D02*
X102214285Y-10359580D01*
X103023809Y-9931009D02*
X102690476Y-9931009D01*
X102690476Y-10454819D02*
X102690476Y-9454819D01*
X102690476Y-9454819D02*
X103166666Y-9454819D01*
X70916665Y-23454819D02*
X70583332Y-22978628D01*
X70345237Y-23454819D02*
X70345237Y-22454819D01*
X70345237Y-22454819D02*
X70726189Y-22454819D01*
X70726189Y-22454819D02*
X70821427Y-22502438D01*
X70821427Y-22502438D02*
X70869046Y-22550057D01*
X70869046Y-22550057D02*
X70916665Y-22645295D01*
X70916665Y-22645295D02*
X70916665Y-22788152D01*
X70916665Y-22788152D02*
X70869046Y-22883390D01*
X70869046Y-22883390D02*
X70821427Y-22931009D01*
X70821427Y-22931009D02*
X70726189Y-22978628D01*
X70726189Y-22978628D02*
X70345237Y-22978628D01*
X71488094Y-23454819D02*
X71392856Y-23407200D01*
X71392856Y-23407200D02*
X71345237Y-23359580D01*
X71345237Y-23359580D02*
X71297618Y-23264342D01*
X71297618Y-23264342D02*
X71297618Y-22978628D01*
X71297618Y-22978628D02*
X71345237Y-22883390D01*
X71345237Y-22883390D02*
X71392856Y-22835771D01*
X71392856Y-22835771D02*
X71488094Y-22788152D01*
X71488094Y-22788152D02*
X71630951Y-22788152D01*
X71630951Y-22788152D02*
X71726189Y-22835771D01*
X71726189Y-22835771D02*
X71773808Y-22883390D01*
X71773808Y-22883390D02*
X71821427Y-22978628D01*
X71821427Y-22978628D02*
X71821427Y-23264342D01*
X71821427Y-23264342D02*
X71773808Y-23359580D01*
X71773808Y-23359580D02*
X71726189Y-23407200D01*
X71726189Y-23407200D02*
X71630951Y-23454819D01*
X71630951Y-23454819D02*
X71488094Y-23454819D01*
X72107142Y-22788152D02*
X72488094Y-22788152D01*
X72249999Y-22454819D02*
X72249999Y-23311961D01*
X72249999Y-23311961D02*
X72297618Y-23407200D01*
X72297618Y-23407200D02*
X72392856Y-23454819D01*
X72392856Y-23454819D02*
X72488094Y-23454819D01*
X73249999Y-23454819D02*
X73249999Y-22931009D01*
X73249999Y-22931009D02*
X73202380Y-22835771D01*
X73202380Y-22835771D02*
X73107142Y-22788152D01*
X73107142Y-22788152D02*
X72916666Y-22788152D01*
X72916666Y-22788152D02*
X72821428Y-22835771D01*
X73249999Y-23407200D02*
X73154761Y-23454819D01*
X73154761Y-23454819D02*
X72916666Y-23454819D01*
X72916666Y-23454819D02*
X72821428Y-23407200D01*
X72821428Y-23407200D02*
X72773809Y-23311961D01*
X72773809Y-23311961D02*
X72773809Y-23216723D01*
X72773809Y-23216723D02*
X72821428Y-23121485D01*
X72821428Y-23121485D02*
X72916666Y-23073866D01*
X72916666Y-23073866D02*
X73154761Y-23073866D01*
X73154761Y-23073866D02*
X73249999Y-23026247D01*
X73726190Y-23454819D02*
X73726190Y-22788152D01*
X73726190Y-22978628D02*
X73773809Y-22883390D01*
X73773809Y-22883390D02*
X73821428Y-22835771D01*
X73821428Y-22835771D02*
X73916666Y-22788152D01*
X73916666Y-22788152D02*
X74011904Y-22788152D01*
X74250000Y-22788152D02*
X74488095Y-23454819D01*
X74726190Y-22788152D02*
X74488095Y-23454819D01*
X74488095Y-23454819D02*
X74392857Y-23692914D01*
X74392857Y-23692914D02*
X74345238Y-23740533D01*
X74345238Y-23740533D02*
X74250000Y-23788152D01*
X75107143Y-22931009D02*
X75440476Y-22931009D01*
X75583333Y-23454819D02*
X75107143Y-23454819D01*
X75107143Y-23454819D02*
X75107143Y-22454819D01*
X75107143Y-22454819D02*
X75583333Y-22454819D01*
X76011905Y-22788152D02*
X76011905Y-23454819D01*
X76011905Y-22883390D02*
X76059524Y-22835771D01*
X76059524Y-22835771D02*
X76154762Y-22788152D01*
X76154762Y-22788152D02*
X76297619Y-22788152D01*
X76297619Y-22788152D02*
X76392857Y-22835771D01*
X76392857Y-22835771D02*
X76440476Y-22931009D01*
X76440476Y-22931009D02*
X76440476Y-23454819D01*
X77345238Y-23407200D02*
X77250000Y-23454819D01*
X77250000Y-23454819D02*
X77059524Y-23454819D01*
X77059524Y-23454819D02*
X76964286Y-23407200D01*
X76964286Y-23407200D02*
X76916667Y-23359580D01*
X76916667Y-23359580D02*
X76869048Y-23264342D01*
X76869048Y-23264342D02*
X76869048Y-22978628D01*
X76869048Y-22978628D02*
X76916667Y-22883390D01*
X76916667Y-22883390D02*
X76964286Y-22835771D01*
X76964286Y-22835771D02*
X77059524Y-22788152D01*
X77059524Y-22788152D02*
X77250000Y-22788152D01*
X77250000Y-22788152D02*
X77345238Y-22835771D01*
X77916667Y-23454819D02*
X77821429Y-23407200D01*
X77821429Y-23407200D02*
X77773810Y-23359580D01*
X77773810Y-23359580D02*
X77726191Y-23264342D01*
X77726191Y-23264342D02*
X77726191Y-22978628D01*
X77726191Y-22978628D02*
X77773810Y-22883390D01*
X77773810Y-22883390D02*
X77821429Y-22835771D01*
X77821429Y-22835771D02*
X77916667Y-22788152D01*
X77916667Y-22788152D02*
X78059524Y-22788152D01*
X78059524Y-22788152D02*
X78154762Y-22835771D01*
X78154762Y-22835771D02*
X78202381Y-22883390D01*
X78202381Y-22883390D02*
X78250000Y-22978628D01*
X78250000Y-22978628D02*
X78250000Y-23264342D01*
X78250000Y-23264342D02*
X78202381Y-23359580D01*
X78202381Y-23359580D02*
X78154762Y-23407200D01*
X78154762Y-23407200D02*
X78059524Y-23454819D01*
X78059524Y-23454819D02*
X77916667Y-23454819D01*
X79107143Y-23454819D02*
X79107143Y-22454819D01*
X79107143Y-23407200D02*
X79011905Y-23454819D01*
X79011905Y-23454819D02*
X78821429Y-23454819D01*
X78821429Y-23454819D02*
X78726191Y-23407200D01*
X78726191Y-23407200D02*
X78678572Y-23359580D01*
X78678572Y-23359580D02*
X78630953Y-23264342D01*
X78630953Y-23264342D02*
X78630953Y-22978628D01*
X78630953Y-22978628D02*
X78678572Y-22883390D01*
X78678572Y-22883390D02*
X78726191Y-22835771D01*
X78726191Y-22835771D02*
X78821429Y-22788152D01*
X78821429Y-22788152D02*
X79011905Y-22788152D01*
X79011905Y-22788152D02*
X79107143Y-22835771D01*
X79964286Y-23407200D02*
X79869048Y-23454819D01*
X79869048Y-23454819D02*
X79678572Y-23454819D01*
X79678572Y-23454819D02*
X79583334Y-23407200D01*
X79583334Y-23407200D02*
X79535715Y-23311961D01*
X79535715Y-23311961D02*
X79535715Y-22931009D01*
X79535715Y-22931009D02*
X79583334Y-22835771D01*
X79583334Y-22835771D02*
X79678572Y-22788152D01*
X79678572Y-22788152D02*
X79869048Y-22788152D01*
X79869048Y-22788152D02*
X79964286Y-22835771D01*
X79964286Y-22835771D02*
X80011905Y-22931009D01*
X80011905Y-22931009D02*
X80011905Y-23026247D01*
X80011905Y-23026247D02*
X79535715Y-23121485D01*
X80440477Y-23454819D02*
X80440477Y-22788152D01*
X80440477Y-22978628D02*
X80488096Y-22883390D01*
X80488096Y-22883390D02*
X80535715Y-22835771D01*
X80535715Y-22835771D02*
X80630953Y-22788152D01*
X80630953Y-22788152D02*
X80726191Y-22788152D01*
X80821430Y-23550057D02*
X81583334Y-23550057D01*
X81773811Y-23407200D02*
X81916668Y-23454819D01*
X81916668Y-23454819D02*
X82154763Y-23454819D01*
X82154763Y-23454819D02*
X82250001Y-23407200D01*
X82250001Y-23407200D02*
X82297620Y-23359580D01*
X82297620Y-23359580D02*
X82345239Y-23264342D01*
X82345239Y-23264342D02*
X82345239Y-23169104D01*
X82345239Y-23169104D02*
X82297620Y-23073866D01*
X82297620Y-23073866D02*
X82250001Y-23026247D01*
X82250001Y-23026247D02*
X82154763Y-22978628D01*
X82154763Y-22978628D02*
X81964287Y-22931009D01*
X81964287Y-22931009D02*
X81869049Y-22883390D01*
X81869049Y-22883390D02*
X81821430Y-22835771D01*
X81821430Y-22835771D02*
X81773811Y-22740533D01*
X81773811Y-22740533D02*
X81773811Y-22645295D01*
X81773811Y-22645295D02*
X81821430Y-22550057D01*
X81821430Y-22550057D02*
X81869049Y-22502438D01*
X81869049Y-22502438D02*
X81964287Y-22454819D01*
X81964287Y-22454819D02*
X82202382Y-22454819D01*
X82202382Y-22454819D02*
X82345239Y-22502438D01*
X82678573Y-22788152D02*
X82869049Y-23454819D01*
X82869049Y-23454819D02*
X83059525Y-22978628D01*
X83059525Y-22978628D02*
X83250001Y-23454819D01*
X83250001Y-23454819D02*
X83440477Y-22788152D01*
X83821430Y-23454819D02*
X83821430Y-22788152D01*
X83821430Y-22454819D02*
X83773811Y-22502438D01*
X83773811Y-22502438D02*
X83821430Y-22550057D01*
X83821430Y-22550057D02*
X83869049Y-22502438D01*
X83869049Y-22502438D02*
X83821430Y-22454819D01*
X83821430Y-22454819D02*
X83821430Y-22550057D01*
X84154763Y-22788152D02*
X84535715Y-22788152D01*
X84297620Y-22454819D02*
X84297620Y-23311961D01*
X84297620Y-23311961D02*
X84345239Y-23407200D01*
X84345239Y-23407200D02*
X84440477Y-23454819D01*
X84440477Y-23454819D02*
X84535715Y-23454819D01*
X85297620Y-23407200D02*
X85202382Y-23454819D01*
X85202382Y-23454819D02*
X85011906Y-23454819D01*
X85011906Y-23454819D02*
X84916668Y-23407200D01*
X84916668Y-23407200D02*
X84869049Y-23359580D01*
X84869049Y-23359580D02*
X84821430Y-23264342D01*
X84821430Y-23264342D02*
X84821430Y-22978628D01*
X84821430Y-22978628D02*
X84869049Y-22883390D01*
X84869049Y-22883390D02*
X84916668Y-22835771D01*
X84916668Y-22835771D02*
X85011906Y-22788152D01*
X85011906Y-22788152D02*
X85202382Y-22788152D01*
X85202382Y-22788152D02*
X85297620Y-22835771D01*
X85726192Y-23454819D02*
X85726192Y-22454819D01*
X86154763Y-23454819D02*
X86154763Y-22931009D01*
X86154763Y-22931009D02*
X86107144Y-22835771D01*
X86107144Y-22835771D02*
X86011906Y-22788152D01*
X86011906Y-22788152D02*
X85869049Y-22788152D01*
X85869049Y-22788152D02*
X85773811Y-22835771D01*
X85773811Y-22835771D02*
X85726192Y-22883390D01*
X-4785714Y31345180D02*
X-4785714Y32345180D01*
X-4785714Y32345180D02*
X-4452381Y31630895D01*
X-4452381Y31630895D02*
X-4119048Y32345180D01*
X-4119048Y32345180D02*
X-4119048Y31345180D01*
X-3500000Y31345180D02*
X-3595238Y31392800D01*
X-3595238Y31392800D02*
X-3642857Y31440419D01*
X-3642857Y31440419D02*
X-3690476Y31535657D01*
X-3690476Y31535657D02*
X-3690476Y31821371D01*
X-3690476Y31821371D02*
X-3642857Y31916609D01*
X-3642857Y31916609D02*
X-3595238Y31964228D01*
X-3595238Y31964228D02*
X-3500000Y32011847D01*
X-3500000Y32011847D02*
X-3357143Y32011847D01*
X-3357143Y32011847D02*
X-3261905Y31964228D01*
X-3261905Y31964228D02*
X-3214286Y31916609D01*
X-3214286Y31916609D02*
X-3166667Y31821371D01*
X-3166667Y31821371D02*
X-3166667Y31535657D01*
X-3166667Y31535657D02*
X-3214286Y31440419D01*
X-3214286Y31440419D02*
X-3261905Y31392800D01*
X-3261905Y31392800D02*
X-3357143Y31345180D01*
X-3357143Y31345180D02*
X-3500000Y31345180D01*
X-2309524Y32011847D02*
X-2309524Y31345180D01*
X-2738095Y32011847D02*
X-2738095Y31488038D01*
X-2738095Y31488038D02*
X-2690476Y31392800D01*
X-2690476Y31392800D02*
X-2595238Y31345180D01*
X-2595238Y31345180D02*
X-2452381Y31345180D01*
X-2452381Y31345180D02*
X-2357143Y31392800D01*
X-2357143Y31392800D02*
X-2309524Y31440419D01*
X-1833333Y32011847D02*
X-1833333Y31345180D01*
X-1833333Y31916609D02*
X-1785714Y31964228D01*
X-1785714Y31964228D02*
X-1690476Y32011847D01*
X-1690476Y32011847D02*
X-1547619Y32011847D01*
X-1547619Y32011847D02*
X-1452381Y31964228D01*
X-1452381Y31964228D02*
X-1404762Y31868990D01*
X-1404762Y31868990D02*
X-1404762Y31345180D01*
X-1071428Y32011847D02*
X-690476Y32011847D01*
X-928571Y32345180D02*
X-928571Y31488038D01*
X-928571Y31488038D02*
X-880952Y31392800D01*
X-880952Y31392800D02*
X-785714Y31345180D01*
X-785714Y31345180D02*
X-690476Y31345180D01*
X-357142Y31345180D02*
X-357142Y32011847D01*
X-357142Y32345180D02*
X-404761Y32297561D01*
X-404761Y32297561D02*
X-357142Y32249942D01*
X-357142Y32249942D02*
X-309523Y32297561D01*
X-309523Y32297561D02*
X-357142Y32345180D01*
X-357142Y32345180D02*
X-357142Y32249942D01*
X119047Y32011847D02*
X119047Y31345180D01*
X119047Y31916609D02*
X166666Y31964228D01*
X166666Y31964228D02*
X261904Y32011847D01*
X261904Y32011847D02*
X404761Y32011847D01*
X404761Y32011847D02*
X499999Y31964228D01*
X499999Y31964228D02*
X547618Y31868990D01*
X547618Y31868990D02*
X547618Y31345180D01*
X1452380Y32011847D02*
X1452380Y31202323D01*
X1452380Y31202323D02*
X1404761Y31107085D01*
X1404761Y31107085D02*
X1357142Y31059466D01*
X1357142Y31059466D02*
X1261904Y31011847D01*
X1261904Y31011847D02*
X1119047Y31011847D01*
X1119047Y31011847D02*
X1023809Y31059466D01*
X1452380Y31392800D02*
X1357142Y31345180D01*
X1357142Y31345180D02*
X1166666Y31345180D01*
X1166666Y31345180D02*
X1071428Y31392800D01*
X1071428Y31392800D02*
X1023809Y31440419D01*
X1023809Y31440419D02*
X976190Y31535657D01*
X976190Y31535657D02*
X976190Y31821371D01*
X976190Y31821371D02*
X1023809Y31916609D01*
X1023809Y31916609D02*
X1071428Y31964228D01*
X1071428Y31964228D02*
X1166666Y32011847D01*
X1166666Y32011847D02*
X1357142Y32011847D01*
X1357142Y32011847D02*
X1452380Y31964228D01*
X1928571Y31345180D02*
X1928571Y32345180D01*
X1928571Y31868990D02*
X2499999Y31868990D01*
X2499999Y31345180D02*
X2499999Y32345180D01*
X3119047Y31345180D02*
X3023809Y31392800D01*
X3023809Y31392800D02*
X2976190Y31440419D01*
X2976190Y31440419D02*
X2928571Y31535657D01*
X2928571Y31535657D02*
X2928571Y31821371D01*
X2928571Y31821371D02*
X2976190Y31916609D01*
X2976190Y31916609D02*
X3023809Y31964228D01*
X3023809Y31964228D02*
X3119047Y32011847D01*
X3119047Y32011847D02*
X3261904Y32011847D01*
X3261904Y32011847D02*
X3357142Y31964228D01*
X3357142Y31964228D02*
X3404761Y31916609D01*
X3404761Y31916609D02*
X3452380Y31821371D01*
X3452380Y31821371D02*
X3452380Y31535657D01*
X3452380Y31535657D02*
X3404761Y31440419D01*
X3404761Y31440419D02*
X3357142Y31392800D01*
X3357142Y31392800D02*
X3261904Y31345180D01*
X3261904Y31345180D02*
X3119047Y31345180D01*
X4023809Y31345180D02*
X3928571Y31392800D01*
X3928571Y31392800D02*
X3880952Y31488038D01*
X3880952Y31488038D02*
X3880952Y32345180D01*
X4785714Y31392800D02*
X4690476Y31345180D01*
X4690476Y31345180D02*
X4500000Y31345180D01*
X4500000Y31345180D02*
X4404762Y31392800D01*
X4404762Y31392800D02*
X4357143Y31488038D01*
X4357143Y31488038D02*
X4357143Y31868990D01*
X4357143Y31868990D02*
X4404762Y31964228D01*
X4404762Y31964228D02*
X4500000Y32011847D01*
X4500000Y32011847D02*
X4690476Y32011847D01*
X4690476Y32011847D02*
X4785714Y31964228D01*
X4785714Y31964228D02*
X4833333Y31868990D01*
X4833333Y31868990D02*
X4833333Y31773752D01*
X4833333Y31773752D02*
X4357143Y31678514D01*
X97464285Y31345180D02*
X97464285Y32345180D01*
X97464285Y32345180D02*
X97797618Y31630895D01*
X97797618Y31630895D02*
X98130951Y32345180D01*
X98130951Y32345180D02*
X98130951Y31345180D01*
X98749999Y31345180D02*
X98654761Y31392800D01*
X98654761Y31392800D02*
X98607142Y31440419D01*
X98607142Y31440419D02*
X98559523Y31535657D01*
X98559523Y31535657D02*
X98559523Y31821371D01*
X98559523Y31821371D02*
X98607142Y31916609D01*
X98607142Y31916609D02*
X98654761Y31964228D01*
X98654761Y31964228D02*
X98749999Y32011847D01*
X98749999Y32011847D02*
X98892856Y32011847D01*
X98892856Y32011847D02*
X98988094Y31964228D01*
X98988094Y31964228D02*
X99035713Y31916609D01*
X99035713Y31916609D02*
X99083332Y31821371D01*
X99083332Y31821371D02*
X99083332Y31535657D01*
X99083332Y31535657D02*
X99035713Y31440419D01*
X99035713Y31440419D02*
X98988094Y31392800D01*
X98988094Y31392800D02*
X98892856Y31345180D01*
X98892856Y31345180D02*
X98749999Y31345180D01*
X99940475Y32011847D02*
X99940475Y31345180D01*
X99511904Y32011847D02*
X99511904Y31488038D01*
X99511904Y31488038D02*
X99559523Y31392800D01*
X99559523Y31392800D02*
X99654761Y31345180D01*
X99654761Y31345180D02*
X99797618Y31345180D01*
X99797618Y31345180D02*
X99892856Y31392800D01*
X99892856Y31392800D02*
X99940475Y31440419D01*
X100416666Y32011847D02*
X100416666Y31345180D01*
X100416666Y31916609D02*
X100464285Y31964228D01*
X100464285Y31964228D02*
X100559523Y32011847D01*
X100559523Y32011847D02*
X100702380Y32011847D01*
X100702380Y32011847D02*
X100797618Y31964228D01*
X100797618Y31964228D02*
X100845237Y31868990D01*
X100845237Y31868990D02*
X100845237Y31345180D01*
X101178571Y32011847D02*
X101559523Y32011847D01*
X101321428Y32345180D02*
X101321428Y31488038D01*
X101321428Y31488038D02*
X101369047Y31392800D01*
X101369047Y31392800D02*
X101464285Y31345180D01*
X101464285Y31345180D02*
X101559523Y31345180D01*
X101892857Y31345180D02*
X101892857Y32011847D01*
X101892857Y32345180D02*
X101845238Y32297561D01*
X101845238Y32297561D02*
X101892857Y32249942D01*
X101892857Y32249942D02*
X101940476Y32297561D01*
X101940476Y32297561D02*
X101892857Y32345180D01*
X101892857Y32345180D02*
X101892857Y32249942D01*
X102369047Y32011847D02*
X102369047Y31345180D01*
X102369047Y31916609D02*
X102416666Y31964228D01*
X102416666Y31964228D02*
X102511904Y32011847D01*
X102511904Y32011847D02*
X102654761Y32011847D01*
X102654761Y32011847D02*
X102749999Y31964228D01*
X102749999Y31964228D02*
X102797618Y31868990D01*
X102797618Y31868990D02*
X102797618Y31345180D01*
X103702380Y32011847D02*
X103702380Y31202323D01*
X103702380Y31202323D02*
X103654761Y31107085D01*
X103654761Y31107085D02*
X103607142Y31059466D01*
X103607142Y31059466D02*
X103511904Y31011847D01*
X103511904Y31011847D02*
X103369047Y31011847D01*
X103369047Y31011847D02*
X103273809Y31059466D01*
X103702380Y31392800D02*
X103607142Y31345180D01*
X103607142Y31345180D02*
X103416666Y31345180D01*
X103416666Y31345180D02*
X103321428Y31392800D01*
X103321428Y31392800D02*
X103273809Y31440419D01*
X103273809Y31440419D02*
X103226190Y31535657D01*
X103226190Y31535657D02*
X103226190Y31821371D01*
X103226190Y31821371D02*
X103273809Y31916609D01*
X103273809Y31916609D02*
X103321428Y31964228D01*
X103321428Y31964228D02*
X103416666Y32011847D01*
X103416666Y32011847D02*
X103607142Y32011847D01*
X103607142Y32011847D02*
X103702380Y31964228D01*
X104178571Y31345180D02*
X104178571Y32345180D01*
X104178571Y31868990D02*
X104749999Y31868990D01*
X104749999Y31345180D02*
X104749999Y32345180D01*
X105369047Y31345180D02*
X105273809Y31392800D01*
X105273809Y31392800D02*
X105226190Y31440419D01*
X105226190Y31440419D02*
X105178571Y31535657D01*
X105178571Y31535657D02*
X105178571Y31821371D01*
X105178571Y31821371D02*
X105226190Y31916609D01*
X105226190Y31916609D02*
X105273809Y31964228D01*
X105273809Y31964228D02*
X105369047Y32011847D01*
X105369047Y32011847D02*
X105511904Y32011847D01*
X105511904Y32011847D02*
X105607142Y31964228D01*
X105607142Y31964228D02*
X105654761Y31916609D01*
X105654761Y31916609D02*
X105702380Y31821371D01*
X105702380Y31821371D02*
X105702380Y31535657D01*
X105702380Y31535657D02*
X105654761Y31440419D01*
X105654761Y31440419D02*
X105607142Y31392800D01*
X105607142Y31392800D02*
X105511904Y31345180D01*
X105511904Y31345180D02*
X105369047Y31345180D01*
X106273809Y31345180D02*
X106178571Y31392800D01*
X106178571Y31392800D02*
X106130952Y31488038D01*
X106130952Y31488038D02*
X106130952Y32345180D01*
X107035714Y31392800D02*
X106940476Y31345180D01*
X106940476Y31345180D02*
X106750000Y31345180D01*
X106750000Y31345180D02*
X106654762Y31392800D01*
X106654762Y31392800D02*
X106607143Y31488038D01*
X106607143Y31488038D02*
X106607143Y31868990D01*
X106607143Y31868990D02*
X106654762Y31964228D01*
X106654762Y31964228D02*
X106750000Y32011847D01*
X106750000Y32011847D02*
X106940476Y32011847D01*
X106940476Y32011847D02*
X107035714Y31964228D01*
X107035714Y31964228D02*
X107083333Y31868990D01*
X107083333Y31868990D02*
X107083333Y31773752D01*
X107083333Y31773752D02*
X106607143Y31678514D01*
X-4785714Y-123654819D02*
X-4785714Y-122654819D01*
X-4785714Y-122654819D02*
X-4452381Y-123369104D01*
X-4452381Y-123369104D02*
X-4119048Y-122654819D01*
X-4119048Y-122654819D02*
X-4119048Y-123654819D01*
X-3500000Y-123654819D02*
X-3595238Y-123607200D01*
X-3595238Y-123607200D02*
X-3642857Y-123559580D01*
X-3642857Y-123559580D02*
X-3690476Y-123464342D01*
X-3690476Y-123464342D02*
X-3690476Y-123178628D01*
X-3690476Y-123178628D02*
X-3642857Y-123083390D01*
X-3642857Y-123083390D02*
X-3595238Y-123035771D01*
X-3595238Y-123035771D02*
X-3500000Y-122988152D01*
X-3500000Y-122988152D02*
X-3357143Y-122988152D01*
X-3357143Y-122988152D02*
X-3261905Y-123035771D01*
X-3261905Y-123035771D02*
X-3214286Y-123083390D01*
X-3214286Y-123083390D02*
X-3166667Y-123178628D01*
X-3166667Y-123178628D02*
X-3166667Y-123464342D01*
X-3166667Y-123464342D02*
X-3214286Y-123559580D01*
X-3214286Y-123559580D02*
X-3261905Y-123607200D01*
X-3261905Y-123607200D02*
X-3357143Y-123654819D01*
X-3357143Y-123654819D02*
X-3500000Y-123654819D01*
X-2309524Y-122988152D02*
X-2309524Y-123654819D01*
X-2738095Y-122988152D02*
X-2738095Y-123511961D01*
X-2738095Y-123511961D02*
X-2690476Y-123607200D01*
X-2690476Y-123607200D02*
X-2595238Y-123654819D01*
X-2595238Y-123654819D02*
X-2452381Y-123654819D01*
X-2452381Y-123654819D02*
X-2357143Y-123607200D01*
X-2357143Y-123607200D02*
X-2309524Y-123559580D01*
X-1833333Y-122988152D02*
X-1833333Y-123654819D01*
X-1833333Y-123083390D02*
X-1785714Y-123035771D01*
X-1785714Y-123035771D02*
X-1690476Y-122988152D01*
X-1690476Y-122988152D02*
X-1547619Y-122988152D01*
X-1547619Y-122988152D02*
X-1452381Y-123035771D01*
X-1452381Y-123035771D02*
X-1404762Y-123131009D01*
X-1404762Y-123131009D02*
X-1404762Y-123654819D01*
X-1071428Y-122988152D02*
X-690476Y-122988152D01*
X-928571Y-122654819D02*
X-928571Y-123511961D01*
X-928571Y-123511961D02*
X-880952Y-123607200D01*
X-880952Y-123607200D02*
X-785714Y-123654819D01*
X-785714Y-123654819D02*
X-690476Y-123654819D01*
X-357142Y-123654819D02*
X-357142Y-122988152D01*
X-357142Y-122654819D02*
X-404761Y-122702438D01*
X-404761Y-122702438D02*
X-357142Y-122750057D01*
X-357142Y-122750057D02*
X-309523Y-122702438D01*
X-309523Y-122702438D02*
X-357142Y-122654819D01*
X-357142Y-122654819D02*
X-357142Y-122750057D01*
X119047Y-122988152D02*
X119047Y-123654819D01*
X119047Y-123083390D02*
X166666Y-123035771D01*
X166666Y-123035771D02*
X261904Y-122988152D01*
X261904Y-122988152D02*
X404761Y-122988152D01*
X404761Y-122988152D02*
X499999Y-123035771D01*
X499999Y-123035771D02*
X547618Y-123131009D01*
X547618Y-123131009D02*
X547618Y-123654819D01*
X1452380Y-122988152D02*
X1452380Y-123797676D01*
X1452380Y-123797676D02*
X1404761Y-123892914D01*
X1404761Y-123892914D02*
X1357142Y-123940533D01*
X1357142Y-123940533D02*
X1261904Y-123988152D01*
X1261904Y-123988152D02*
X1119047Y-123988152D01*
X1119047Y-123988152D02*
X1023809Y-123940533D01*
X1452380Y-123607200D02*
X1357142Y-123654819D01*
X1357142Y-123654819D02*
X1166666Y-123654819D01*
X1166666Y-123654819D02*
X1071428Y-123607200D01*
X1071428Y-123607200D02*
X1023809Y-123559580D01*
X1023809Y-123559580D02*
X976190Y-123464342D01*
X976190Y-123464342D02*
X976190Y-123178628D01*
X976190Y-123178628D02*
X1023809Y-123083390D01*
X1023809Y-123083390D02*
X1071428Y-123035771D01*
X1071428Y-123035771D02*
X1166666Y-122988152D01*
X1166666Y-122988152D02*
X1357142Y-122988152D01*
X1357142Y-122988152D02*
X1452380Y-123035771D01*
X1928571Y-123654819D02*
X1928571Y-122654819D01*
X1928571Y-123131009D02*
X2499999Y-123131009D01*
X2499999Y-123654819D02*
X2499999Y-122654819D01*
X3119047Y-123654819D02*
X3023809Y-123607200D01*
X3023809Y-123607200D02*
X2976190Y-123559580D01*
X2976190Y-123559580D02*
X2928571Y-123464342D01*
X2928571Y-123464342D02*
X2928571Y-123178628D01*
X2928571Y-123178628D02*
X2976190Y-123083390D01*
X2976190Y-123083390D02*
X3023809Y-123035771D01*
X3023809Y-123035771D02*
X3119047Y-122988152D01*
X3119047Y-122988152D02*
X3261904Y-122988152D01*
X3261904Y-122988152D02*
X3357142Y-123035771D01*
X3357142Y-123035771D02*
X3404761Y-123083390D01*
X3404761Y-123083390D02*
X3452380Y-123178628D01*
X3452380Y-123178628D02*
X3452380Y-123464342D01*
X3452380Y-123464342D02*
X3404761Y-123559580D01*
X3404761Y-123559580D02*
X3357142Y-123607200D01*
X3357142Y-123607200D02*
X3261904Y-123654819D01*
X3261904Y-123654819D02*
X3119047Y-123654819D01*
X4023809Y-123654819D02*
X3928571Y-123607200D01*
X3928571Y-123607200D02*
X3880952Y-123511961D01*
X3880952Y-123511961D02*
X3880952Y-122654819D01*
X4785714Y-123607200D02*
X4690476Y-123654819D01*
X4690476Y-123654819D02*
X4500000Y-123654819D01*
X4500000Y-123654819D02*
X4404762Y-123607200D01*
X4404762Y-123607200D02*
X4357143Y-123511961D01*
X4357143Y-123511961D02*
X4357143Y-123131009D01*
X4357143Y-123131009D02*
X4404762Y-123035771D01*
X4404762Y-123035771D02*
X4500000Y-122988152D01*
X4500000Y-122988152D02*
X4690476Y-122988152D01*
X4690476Y-122988152D02*
X4785714Y-123035771D01*
X4785714Y-123035771D02*
X4833333Y-123131009D01*
X4833333Y-123131009D02*
X4833333Y-123226247D01*
X4833333Y-123226247D02*
X4357143Y-123321485D01*
X97464285Y-123654819D02*
X97464285Y-122654819D01*
X97464285Y-122654819D02*
X97797618Y-123369104D01*
X97797618Y-123369104D02*
X98130951Y-122654819D01*
X98130951Y-122654819D02*
X98130951Y-123654819D01*
X98749999Y-123654819D02*
X98654761Y-123607200D01*
X98654761Y-123607200D02*
X98607142Y-123559580D01*
X98607142Y-123559580D02*
X98559523Y-123464342D01*
X98559523Y-123464342D02*
X98559523Y-123178628D01*
X98559523Y-123178628D02*
X98607142Y-123083390D01*
X98607142Y-123083390D02*
X98654761Y-123035771D01*
X98654761Y-123035771D02*
X98749999Y-122988152D01*
X98749999Y-122988152D02*
X98892856Y-122988152D01*
X98892856Y-122988152D02*
X98988094Y-123035771D01*
X98988094Y-123035771D02*
X99035713Y-123083390D01*
X99035713Y-123083390D02*
X99083332Y-123178628D01*
X99083332Y-123178628D02*
X99083332Y-123464342D01*
X99083332Y-123464342D02*
X99035713Y-123559580D01*
X99035713Y-123559580D02*
X98988094Y-123607200D01*
X98988094Y-123607200D02*
X98892856Y-123654819D01*
X98892856Y-123654819D02*
X98749999Y-123654819D01*
X99940475Y-122988152D02*
X99940475Y-123654819D01*
X99511904Y-122988152D02*
X99511904Y-123511961D01*
X99511904Y-123511961D02*
X99559523Y-123607200D01*
X99559523Y-123607200D02*
X99654761Y-123654819D01*
X99654761Y-123654819D02*
X99797618Y-123654819D01*
X99797618Y-123654819D02*
X99892856Y-123607200D01*
X99892856Y-123607200D02*
X99940475Y-123559580D01*
X100416666Y-122988152D02*
X100416666Y-123654819D01*
X100416666Y-123083390D02*
X100464285Y-123035771D01*
X100464285Y-123035771D02*
X100559523Y-122988152D01*
X100559523Y-122988152D02*
X100702380Y-122988152D01*
X100702380Y-122988152D02*
X100797618Y-123035771D01*
X100797618Y-123035771D02*
X100845237Y-123131009D01*
X100845237Y-123131009D02*
X100845237Y-123654819D01*
X101178571Y-122988152D02*
X101559523Y-122988152D01*
X101321428Y-122654819D02*
X101321428Y-123511961D01*
X101321428Y-123511961D02*
X101369047Y-123607200D01*
X101369047Y-123607200D02*
X101464285Y-123654819D01*
X101464285Y-123654819D02*
X101559523Y-123654819D01*
X101892857Y-123654819D02*
X101892857Y-122988152D01*
X101892857Y-122654819D02*
X101845238Y-122702438D01*
X101845238Y-122702438D02*
X101892857Y-122750057D01*
X101892857Y-122750057D02*
X101940476Y-122702438D01*
X101940476Y-122702438D02*
X101892857Y-122654819D01*
X101892857Y-122654819D02*
X101892857Y-122750057D01*
X102369047Y-122988152D02*
X102369047Y-123654819D01*
X102369047Y-123083390D02*
X102416666Y-123035771D01*
X102416666Y-123035771D02*
X102511904Y-122988152D01*
X102511904Y-122988152D02*
X102654761Y-122988152D01*
X102654761Y-122988152D02*
X102749999Y-123035771D01*
X102749999Y-123035771D02*
X102797618Y-123131009D01*
X102797618Y-123131009D02*
X102797618Y-123654819D01*
X103702380Y-122988152D02*
X103702380Y-123797676D01*
X103702380Y-123797676D02*
X103654761Y-123892914D01*
X103654761Y-123892914D02*
X103607142Y-123940533D01*
X103607142Y-123940533D02*
X103511904Y-123988152D01*
X103511904Y-123988152D02*
X103369047Y-123988152D01*
X103369047Y-123988152D02*
X103273809Y-123940533D01*
X103702380Y-123607200D02*
X103607142Y-123654819D01*
X103607142Y-123654819D02*
X103416666Y-123654819D01*
X103416666Y-123654819D02*
X103321428Y-123607200D01*
X103321428Y-123607200D02*
X103273809Y-123559580D01*
X103273809Y-123559580D02*
X103226190Y-123464342D01*
X103226190Y-123464342D02*
X103226190Y-123178628D01*
X103226190Y-123178628D02*
X103273809Y-123083390D01*
X103273809Y-123083390D02*
X103321428Y-123035771D01*
X103321428Y-123035771D02*
X103416666Y-122988152D01*
X103416666Y-122988152D02*
X103607142Y-122988152D01*
X103607142Y-122988152D02*
X103702380Y-123035771D01*
X104178571Y-123654819D02*
X104178571Y-122654819D01*
X104178571Y-123131009D02*
X104749999Y-123131009D01*
X104749999Y-123654819D02*
X104749999Y-122654819D01*
X105369047Y-123654819D02*
X105273809Y-123607200D01*
X105273809Y-123607200D02*
X105226190Y-123559580D01*
X105226190Y-123559580D02*
X105178571Y-123464342D01*
X105178571Y-123464342D02*
X105178571Y-123178628D01*
X105178571Y-123178628D02*
X105226190Y-123083390D01*
X105226190Y-123083390D02*
X105273809Y-123035771D01*
X105273809Y-123035771D02*
X105369047Y-122988152D01*
X105369047Y-122988152D02*
X105511904Y-122988152D01*
X105511904Y-122988152D02*
X105607142Y-123035771D01*
X105607142Y-123035771D02*
X105654761Y-123083390D01*
X105654761Y-123083390D02*
X105702380Y-123178628D01*
X105702380Y-123178628D02*
X105702380Y-123464342D01*
X105702380Y-123464342D02*
X105654761Y-123559580D01*
X105654761Y-123559580D02*
X105607142Y-123607200D01*
X105607142Y-123607200D02*
X105511904Y-123654819D01*
X105511904Y-123654819D02*
X105369047Y-123654819D01*
X106273809Y-123654819D02*
X106178571Y-123607200D01*
X106178571Y-123607200D02*
X106130952Y-123511961D01*
X106130952Y-123511961D02*
X106130952Y-122654819D01*
X107035714Y-123607200D02*
X106940476Y-123654819D01*
X106940476Y-123654819D02*
X106750000Y-123654819D01*
X106750000Y-123654819D02*
X106654762Y-123607200D01*
X106654762Y-123607200D02*
X106607143Y-123511961D01*
X106607143Y-123511961D02*
X106607143Y-123131009D01*
X106607143Y-123131009D02*
X106654762Y-123035771D01*
X106654762Y-123035771D02*
X106750000Y-122988152D01*
X106750000Y-122988152D02*
X106940476Y-122988152D01*
X106940476Y-122988152D02*
X107035714Y-123035771D01*
X107035714Y-123035771D02*
X107083333Y-123131009D01*
X107083333Y-123131009D02*
X107083333Y-123226247D01*
X107083333Y-123226247D02*
X106607143Y-123321485D01*
%TO.C,SW1*%
D11*
X0Y0D02*
X19050000Y0D01*
X19050000Y-19050000D01*
X0Y-19050000D01*
X0Y0D01*
%TO.C,SW2*%
X0Y-23812000D02*
X19050000Y-23812000D01*
X19050000Y-42862000D01*
X0Y-42862000D01*
X0Y-23812000D01*
%TO.C,SW3*%
X19050000Y-23812000D02*
X38100000Y-23812000D01*
X38100000Y-42862000D01*
X19050000Y-42862000D01*
X19050000Y-23812000D01*
%TO.C,SW4*%
X38100000Y-23812000D02*
X57150000Y-23812000D01*
X57150000Y-42862000D01*
X38100000Y-42862000D01*
X38100000Y-23812000D01*
%TO.C,SW5*%
X57150000Y-23812000D02*
X76200000Y-23812000D01*
X76200000Y-42862000D01*
X57150000Y-42862000D01*
X57150000Y-23812000D01*
%TO.C,SW6*%
X76200000Y-23812000D02*
X95250000Y-23812000D01*
X95250000Y-42862000D01*
X76200000Y-42862000D01*
X76200000Y-23812000D01*
%TO.C,SW7*%
X0Y-42863000D02*
X19050000Y-42863000D01*
X19050000Y-61913000D01*
X0Y-61913000D01*
X0Y-42863000D01*
%TO.C,SW8*%
X19050000Y-42863000D02*
X38100000Y-42863000D01*
X38100000Y-61913000D01*
X19050000Y-61913000D01*
X19050000Y-42863000D01*
%TO.C,SW9*%
X38100000Y-42863000D02*
X57150000Y-42863000D01*
X57150000Y-61913000D01*
X38100000Y-61913000D01*
X38100000Y-42863000D01*
%TO.C,SW10*%
X57150000Y-42863000D02*
X76200000Y-42863000D01*
X76200000Y-61913000D01*
X57150000Y-61913000D01*
X57150000Y-42863000D01*
%TO.C,SW11*%
X76200000Y-42863000D02*
X95250000Y-42863000D01*
X95250000Y-61913000D01*
X76200000Y-61913000D01*
X76200000Y-42863000D01*
%TO.C,SW12*%
X0Y-61913000D02*
X19050000Y-61913000D01*
X19050000Y-80963000D01*
X0Y-80963000D01*
X0Y-61913000D01*
%TO.C,SW13*%
X19050000Y-61913000D02*
X38100000Y-61913000D01*
X38100000Y-80963000D01*
X19050000Y-80963000D01*
X19050000Y-61913000D01*
%TO.C,SW14*%
X38100000Y-61913000D02*
X57150000Y-61913000D01*
X57150000Y-80963000D01*
X38100000Y-80963000D01*
X38100000Y-61913000D01*
%TO.C,SW15*%
X57150000Y-61913000D02*
X76200000Y-61913000D01*
X76200000Y-80963000D01*
X57150000Y-80963000D01*
X57150000Y-61913000D01*
%TO.C,SW16*%
X76200000Y-61913000D02*
X95250000Y-61913000D01*
X95250000Y-80963000D01*
X76200000Y-80963000D01*
X76200000Y-61913000D01*
%TO.C,SW17*%
X0Y-80962000D02*
X19050000Y-80962000D01*
X19050000Y-100012000D01*
X0Y-100012000D01*
X0Y-80962000D01*
%TO.C,SW18*%
X19050000Y-80962000D02*
X38100000Y-80962000D01*
X38100000Y-100012000D01*
X19050000Y-100012000D01*
X19050000Y-80962000D01*
%TO.C,SW19*%
X38100000Y-80962000D02*
X57150000Y-80962000D01*
X57150000Y-100012000D01*
X38100000Y-100012000D01*
X38100000Y-80962000D01*
%TO.C,SW20*%
X57150000Y-80962000D02*
X76200000Y-80962000D01*
X76200000Y-100012000D01*
X57150000Y-100012000D01*
X57150000Y-80962000D01*
%TO.C,SW21*%
X76200000Y-80962000D02*
X95250000Y-80962000D01*
X95250000Y-100012000D01*
X76200000Y-100012000D01*
X76200000Y-80962000D01*
%TO.C,SW22*%
X0Y-100013000D02*
X19050000Y-100013000D01*
X19050000Y-119063000D01*
X0Y-119063000D01*
X0Y-100013000D01*
%TO.C,SW23*%
X19050000Y-100013000D02*
X38100000Y-100013000D01*
X38100000Y-119063000D01*
X19050000Y-119063000D01*
X19050000Y-100013000D01*
%TO.C,SW24*%
X38100000Y-100013000D02*
X57150000Y-100013000D01*
X57150000Y-119063000D01*
X38100000Y-119063000D01*
X38100000Y-100013000D01*
%TO.C,SW25*%
X57150000Y-100013000D02*
X76200000Y-100013000D01*
X76200000Y-119063000D01*
X57150000Y-119063000D01*
X57150000Y-100013000D01*
%TO.C,SW26*%
X76200000Y-100013000D02*
X95250000Y-100013000D01*
X95250000Y-119063000D01*
X76200000Y-119063000D01*
X76200000Y-100013000D01*
%TD*%
M02*
